<?xml version="1.0" encoding="UTF-8" standalone="no"?>
<!-- Generator: Adobe Illustrator 19.0.0, SVG Export Plug-In . SVG Version: 6.00 Build 0)  -->

<svg
   version="1.1"
   id="Layer_1"
   x="0px"
   y="0px"
   viewBox="0 0 118.984 128.00027"
   xml:space="preserve"
   sodipodi:docname="boite_aux_lettres_source.svg"
   width="118.984"
   height="128.00027"
   inkscape:version="1.1.1 (3bf5ae0d25, 2021-09-20)"
   xmlns:inkscape="http://www.inkscape.org/namespaces/inkscape"
   xmlns:sodipodi="http://sodipodi.sourceforge.net/DTD/sodipodi-0.dtd"
   xmlns="http://www.w3.org/2000/svg"
   xmlns:svg="http://www.w3.org/2000/svg"><defs
   id="defs57" /><sodipodi:namedview
   id="namedview55"
   pagecolor="#ffffff"
   bordercolor="#666666"
   borderopacity="1.0"
   inkscape:pageshadow="2"
   inkscape:pageopacity="0.0"
   inkscape:pagecheckerboard="0"
   showgrid="false"
   fit-margin-top="0"
   fit-margin-left="0"
   fit-margin-right="0"
   fit-margin-bottom="0"
   inkscape:zoom="4.2868349"
   inkscape:cx="55.635453"
   inkscape:cy="72.081153"
   inkscape:window-width="1920"
   inkscape:window-height="979"
   inkscape:window-x="0"
   inkscape:window-y="0"
   inkscape:window-maximized="1"
   inkscape:current-layer="Layer_1" />
<path
   style="fill:#fcd577;stroke-width:3.99999"
   d="M 258.589,298.418 H 485.282 V 163.21 c 0,-46.365 -37.587,-83.953 -83.953,-83.953 v 0 H 174.636"
   id="path2"
   transform="matrix(0.25000053,0,0,0.25000053,-4.5080096,0)" />
<path
   style="fill:#eac36e;stroke-width:3.99999"
   d="m 248.867,79.257 v 0 h -29.424 c 46.365,0 83.953,37.587 83.953,83.953 v 67.49 c 0,16.25 13.173,29.424 29.423,29.424 v 0 -96.914 C 332.82,116.844 295.233,79.257 248.867,79.257 Z"
   id="path4"
   transform="matrix(0.25000053,0,0,0.25000053,-4.5080096,0)" />
<path
   style="fill:#415e72;stroke-width:3.99999"
   d="m 174.636,79.257 v 0 c -46.367,0 -83.953,37.587 -83.953,83.953 V 298.419 H 258.589 V 163.21 c 0,-46.366 -37.587,-83.953 -83.953,-83.953 z"
   id="path6"
   transform="matrix(0.25000053,0,0,0.25000053,-4.5080096,0)" />
<polygon
   style="fill:#cfdce5;stroke-width:3.99999"
   points="258.592,298.414 65.944,298.414 65.944,150.755 257.673,150.755 "
   id="polygon8"
   transform="matrix(0.25000053,0,0,0.25000053,-4.5080096,0)" />
<path
   style="fill:#bac6cc;stroke-width:3.99999"
   d="M 225.94,298.414 V 163.21 c 0,-4.23 -0.318,-8.39 -0.919,-12.455 h 32.652 l 0.919,147.659 z"
   id="path10"
   transform="matrix(0.25000053,0,0,0.25000053,-6.4127596,2.14025)" />
<path
   style="fill:#c8c8c8;stroke-width:3.99999;fill-opacity:1"
   d="m 346.961,8.56 h -28.869 v 236.541 c 0,7.972 6.462,14.434 14.434,14.434 v 0 c 7.972,0 14.434,-6.462 14.434,-14.434 V 8.56 Z"
   id="path12"
   transform="matrix(0.25000053,0,0,0.25000053,-4.5080096,0)" />
<polygon
   style="fill:#c8c8c8;stroke-width:3.99999;fill-opacity:1"
   points="346.961,24.467 430.914,66.444 346.961,108.42 "
   id="polygon14"
   transform="matrix(0.25000053,0,0,0.25000053,-4.5080096,0)" />
<polyline
   style="fill:#fcd577;stroke-width:3.99999"
   points="278.618,503.44 278.618,298.418 324.571,298.418 324.571,503.44 "
   id="polyline16"
   transform="matrix(0.25000053,0,0,0.25000053,-4.5080096,0)" />
<polyline
   style="fill:#eac36e;stroke-width:3.99999"
   points="278.618,366.392 278.618,298.418 324.571,298.418 324.571,336.933 "
   id="polyline18"
   transform="matrix(0.25000053,0,0,0.25000053,-4.5080096,0)" />
<path
   d="m 453.185,86.503 c -3.919,-2.647 -9.239,-1.616 -11.886,2.301 -2.647,3.917 -1.616,9.238 2.301,11.885 20.818,14.063 33.246,37.437 33.246,62.522 V 289.86 H 267.274 V 163.21 c 0,-31.081 -15.423,-58.608 -38.999,-75.393 h 64.02 c 4.727,0 8.56,-3.833 8.56,-8.56 0,-4.727 -3.833,-8.56 -8.56,-8.56 H 174.761 v 0 0 c -34.743,0 -66.249,19.185 -82.22,50.067 -2.172,4.199 -0.528,9.363 3.671,11.535 4.199,2.171 9.363,0.528 11.535,-3.672 13.02,-25.173 38.698,-40.812 67.014,-40.812 34.279,0 63.266,23.004 72.39,54.378 H 66.07 c -4.727,0 -8.56,3.833 -8.56,8.56 V 289.856 H 26.592 c -4.727,0 -8.56,3.833 -8.56,8.56 0,4.727 3.833,8.56 8.56,8.56 h 243.591 v 196.462 c 0,4.727 3.833,8.56 8.56,8.56 4.727,0 8.56,-3.833 8.56,-8.56 v -196.46 h 28.833 V 503.44 c 0,4.727 3.833,8.56 8.56,8.56 4.727,0 8.56,-3.833 8.56,-8.56 V 306.978 h 152.151 c 4.727,0 8.56,-3.833 8.56,-8.56 V 163.21 c -10e-4,-30.78 -15.245,-59.456 -40.782,-76.707 z m -203.037,76.5 -77.153,59.773 -39.148,-30.335 c -3.738,-2.897 -9.115,-2.213 -12.009,1.524 -2.896,3.737 -2.213,9.114 1.524,12.009 l 44.386,34.397 c 1.544,1.197 3.394,1.795 5.244,1.795 1.849,0 3.699,-0.597 5.241,-1.792 l 71.92,-55.717 v 79.856 l -36.961,-28.641 c -3.738,-2.897 -9.115,-2.214 -12.009,1.523 -2.896,3.737 -2.214,9.114 1.523,12.009 l 47.447,36.767 v 3.684 H 91.097 l 53.142,-41.18 c 3.737,-2.896 4.418,-8.272 1.523,-12.009 -2.896,-3.737 -8.271,-4.418 -12.009,-1.523 L 74.632,280.957 V 168.215 l 26.352,20.416 c 1.56,1.209 3.406,1.794 5.236,1.794 2.557,0 5.086,-1.14 6.773,-3.317 2.896,-3.737 2.213,-9.114 -1.524,-12.009 L 91.096,159.316 h 158.958 c 0.062,1.22 0.091,2.451 0.094,3.687 z"
   id="path20"
   transform="matrix(0.25000053,0,0,0.25000053,-4.5080096,0)"
   style="stroke-width:3.99999" />
<path
   d="m 332.652,268.095 c 12.679,0 22.994,-10.315 22.994,-22.994 V 113.711 L 434.867,74.1 c 2.9,-1.451 4.732,-4.414 4.732,-7.656 0,-3.242 -1.832,-6.207 -4.732,-7.656 L 355.646,19.177 V 8.56 c 0,-4.727 -3.833,-8.56 -8.56,-8.56 h -28.868 c -4.727,0 -8.56,3.833 -8.56,8.56 v 236.541 c -0.001,12.679 10.315,22.994 22.994,22.994 z M 411.898,66.444 355.645,94.57 V 38.318 Z M 326.777,17.12 h 11.748 v 227.981 c 0,3.239 -2.635,5.874 -5.874,5.874 -3.239,0 -5.873,-2.635 -5.873,-5.874 V 17.12 Z"
   id="path22"
   transform="matrix(0.25000053,0,0,0.25000053,-4.5080096,0)"
   style="stroke-width:3.99999" />
<g
   id="g24"
   transform="matrix(0.25000053,0,0,0.25000053,-4.5080096,0)"
   style="stroke-width:3.99999">
</g>
<g
   id="g26"
   transform="matrix(0.25000053,0,0,0.25000053,-4.5080096,0)"
   style="stroke-width:3.99999">
</g>
<g
   id="g28"
   transform="matrix(0.25000053,0,0,0.25000053,-4.5080096,0)"
   style="stroke-width:3.99999">
</g>
<g
   id="g30"
   transform="matrix(0.25000053,0,0,0.25000053,-4.5080096,0)"
   style="stroke-width:3.99999">
</g>
<g
   id="g32"
   transform="matrix(0.25000053,0,0,0.25000053,-4.5080096,0)"
   style="stroke-width:3.99999">
</g>
<g
   id="g34"
   transform="matrix(0.25000053,0,0,0.25000053,-4.5080096,0)"
   style="stroke-width:3.99999">
</g>
<g
   id="g36"
   transform="matrix(0.25000053,0,0,0.25000053,-4.5080096,0)"
   style="stroke-width:3.99999">
</g>
<g
   id="g38"
   transform="matrix(0.25000053,0,0,0.25000053,-4.5080096,0)"
   style="stroke-width:3.99999">
</g>
<g
   id="g40"
   transform="matrix(0.25000053,0,0,0.25000053,-4.5080096,0)"
   style="stroke-width:3.99999">
</g>
<g
   id="g42"
   transform="matrix(0.25000053,0,0,0.25000053,-4.5080096,0)"
   style="stroke-width:3.99999">
</g>
<g
   id="g44"
   transform="matrix(0.25000053,0,0,0.25000053,-4.5080096,0)"
   style="stroke-width:3.99999">
</g>
<g
   id="g46"
   transform="matrix(0.25000053,0,0,0.25000053,-4.5080096,0)"
   style="stroke-width:3.99999">
</g>
<g
   id="g48"
   transform="matrix(0.25000053,0,0,0.25000053,-4.5080096,0)"
   style="stroke-width:3.99999">
</g>
<g
   id="g50"
   transform="matrix(0.25000053,0,0,0.25000053,-4.5080096,0)"
   style="stroke-width:3.99999">
</g>
<g
   id="g52"
   transform="matrix(0.25000053,0,0,0.25000053,-4.5080096,0)"
   style="stroke-width:3.99999">
</g>
</svg>
