<?xml version="1.0" encoding="UTF-8" standalone="no"?>
<!-- Generator: Adobe Illustrator 19.0.0, SVG Export Plug-In . SVG Version: 6.00 Build 0)  -->

<svg
   version="1.1"
   id="Layer_1"
   x="0px"
   y="0px"
   viewBox="0 0 128 128"
   xml:space="preserve"
   sodipodi:docname="bouton_panique_source.svg"
   width="128"
   height="128"
   inkscape:version="1.1 (c68e22c387, 2021-05-23)"
   xmlns:inkscape="http://www.inkscape.org/namespaces/inkscape"
   xmlns:sodipodi="http://sodipodi.sourceforge.net/DTD/sodipodi-0.dtd"
   xmlns="http://www.w3.org/2000/svg"
   xmlns:svg="http://www.w3.org/2000/svg"><defs
   id="defs71" /><sodipodi:namedview
   id="namedview69"
   pagecolor="#ffffff"
   bordercolor="#666666"
   borderopacity="1.0"
   inkscape:pageshadow="2"
   inkscape:pageopacity="0.0"
   inkscape:pagecheckerboard="0"
   showgrid="false"
   fit-margin-top="0"
   fit-margin-left="0"
   fit-margin-right="0"
   fit-margin-bottom="0"
   inkscape:zoom="6.0625"
   inkscape:cx="52.865979"
   inkscape:cy="62.020619"
   inkscape:window-width="1920"
   inkscape:window-height="979"
   inkscape:window-x="0"
   inkscape:window-y="0"
   inkscape:window-maximized="1"
   inkscape:current-layer="Layer_1" />
<g
   id="g6"
   transform="scale(0.25)"
   style="stroke-width:4">
	<path
   style="fill:#00ff00;fill-opacity:1;stroke-width:4"
   d="M 356.796,503.409 H 81.897 c -10.122,0 -18.327,-8.205 -18.327,-18.327 v -73.306 c 0,-10.122 8.205,-18.327 18.327,-18.327 h 274.899 c 10.122,0 18.327,8.205 18.327,18.327 v 73.306 c 0,10.123 -8.205,18.327 -18.327,18.327 z"
   id="path2" />
	<circle
   style="fill:#00ff00;fill-opacity:1;stroke-width:4"
   cx="219.347"
   cy="219.347"
   r="210.756"
   id="circle4" />
</g>
<path
   style="fill:#000000;stroke-width:4;fill-opacity:0.42091674"
   d="M 265.163,384.286 C 148.765,384.286 54.407,289.927 54.407,173.53 54.407,127.023 69.504,84.058 95.018,49.201 42.635,87.544 8.591,149.456 8.591,219.347 c 0,116.397 94.358,210.756 210.756,210.756 69.89,0 131.802,-34.044 170.144,-86.427 -34.857,25.515 -77.82,40.61 -124.328,40.61 z"
   id="path8"
   transform="scale(0.25)" />
<circle
   style="fill:#e4eaf8;stroke-width:4"
   cx="219.347"
   cy="219.347"
   r="64.142998"
   id="circle10"
   transform="scale(0.25)" />
<circle
   style="fill:#afb9d2;stroke-width:4"
   cx="219.347"
   cy="219.347"
   r="27.49"
   id="circle12"
   transform="scale(0.25)" />
<circle
   style="fill:#5b5d6e;stroke-width:4"
   cx="475.91901"
   cy="329.306"
   r="27.49"
   id="circle14"
   transform="scale(0.25)" />
<path
   style="fill:#464655;stroke-width:4"
   d="m 489.664,343.051 c -15.182,0 -27.49,-12.307 -27.49,-27.49 0,-4.028 0.914,-7.827 2.472,-11.273 -9.545,4.31 -16.217,13.864 -16.217,25.018 0,15.182 12.307,27.49 27.49,27.49 11.154,0 20.708,-6.671 25.018,-16.217 -3.446,1.558 -7.244,2.472 -11.273,2.472 z"
   id="path16"
   transform="scale(0.25)" />
<path
   d="m 219.347,255.427 c 19.895,0 36.081,-16.186 36.081,-36.081 0,-4.744 -3.846,-8.591 -8.591,-8.591 -4.744,0 -8.591,3.846 -8.591,8.591 0,10.421 -8.478,18.899 -18.899,18.899 -10.421,0 -18.899,-8.478 -18.899,-18.899 0,-10.421 8.478,-18.899 18.899,-18.899 4.744,0 8.591,-3.846 8.591,-8.591 0,-4.744 -3.846,-8.591 -8.591,-8.591 -19.895,0 -36.081,16.186 -36.081,36.081 0,19.895 16.186,36.081 36.081,36.081 z"
   id="path18"
   transform="scale(0.25)"
   style="stroke-width:4" />
<path
   d="m 219.347,292.081 c 40.106,0 72.734,-32.628 72.734,-72.734 0,-40.106 -32.628,-72.734 -72.734,-72.734 -40.106,0 -72.734,32.628 -72.734,72.734 0,40.106 32.628,72.734 72.734,72.734 z m 0,-128.287 c 30.632,0 55.553,24.921 55.553,55.553 0,30.632 -24.921,55.553 -55.553,55.553 -30.632,0 -55.553,-24.921 -55.553,-55.553 0,-30.632 24.921,-55.553 55.553,-55.553 z"
   id="path20"
   transform="scale(0.25)"
   style="stroke-width:4" />
<path
   d="m 100.315,421.512 h -0.092 c -4.744,0 -8.545,3.846 -8.545,8.591 0,4.745 3.892,8.591 8.636,8.591 4.744,0 8.591,-3.846 8.591,-8.591 0,-4.745 -3.845,-8.591 -8.59,-8.591 z"
   id="path22"
   transform="scale(0.25)"
   style="stroke-width:4" />
<path
   d="m 100.315,458.166 h -0.092 c -4.744,0 -8.545,3.846 -8.545,8.591 0,4.744 3.892,8.591 8.636,8.591 4.744,0 8.591,-3.846 8.591,-8.591 0.001,-4.745 -3.845,-8.591 -8.59,-8.591 z"
   id="path24"
   transform="scale(0.25)"
   style="stroke-width:4" />
<path
   d="m 338.47,421.512 h -0.092 c -4.744,0 -8.545,3.846 -8.545,8.591 0,4.745 3.892,8.591 8.636,8.591 4.744,0 8.591,-3.846 8.591,-8.591 0,-4.745 -3.846,-8.591 -8.59,-8.591 z"
   id="path26"
   transform="scale(0.25)"
   style="stroke-width:4" />
<path
   d="m 338.47,458.166 h -0.092 c -4.744,0 -8.545,3.846 -8.545,8.591 0,4.744 3.892,8.591 8.636,8.591 4.744,0 8.591,-3.846 8.591,-8.591 0,-4.745 -3.846,-8.591 -8.59,-8.591 z"
   id="path28"
   transform="scale(0.25)"
   style="stroke-width:4" />
<path
   d="m 512,329.306 c 0,-19.895 -16.186,-36.081 -36.081,-36.081 -19.895,0 -36.081,16.186 -36.081,36.081 0,16.41 11.017,30.287 26.039,34.648 -3.529,19.755 -13.429,37.849 -28.393,51.597 -14.927,13.713 -33.763,22.031 -53.771,23.889 v -27.664 c 0,-12.908 -9.134,-23.718 -21.276,-26.318 46.666,-40.254 76.256,-99.791 76.256,-166.111 C 438.694,98.399 340.294,0 219.347,0 98.4,0 0,98.399 0,219.347 c 0,66.321 29.589,125.857 76.256,166.111 -12.143,2.6 -21.276,13.41 -21.276,26.318 v 73.306 C 54.98,499.925 67.055,512 81.897,512 h 274.899 c 14.842,0 26.917,-12.075 26.917,-26.917 V 456.66 c 24.33,-1.901 47.29,-11.821 65.396,-28.456 18.332,-16.843 30.243,-39.198 34.053,-63.548 C 499.599,361.293 512,346.721 512,329.306 Z M 17.181,219.347 c 0,-111.474 90.692,-202.166 202.166,-202.166 111.474,0 202.166,90.692 202.166,202.166 0,111.474 -90.692,202.166 -202.166,202.166 -111.474,0 -202.166,-90.692 -202.166,-202.166 z m 349.351,265.736 c 0,5.369 -4.367,9.736 -9.736,9.736 H 81.897 c -5.369,0 -9.736,-4.367 -9.736,-9.736 v -73.306 c 0,-5.369 4.367,-9.736 9.736,-9.736 h 16.2 c 34.756,23.144 76.453,36.653 121.25,36.653 44.797,0 86.494,-13.509 121.25,-36.653 h 16.2 c 5.369,0 9.736,4.367 9.736,9.736 v 73.306 z M 475.919,348.206 c -10.421,0 -18.899,-8.478 -18.899,-18.899 0,-10.421 8.478,-18.899 18.899,-18.899 10.421,0 18.899,8.478 18.899,18.899 0,10.421 -8.478,18.899 -18.899,18.899 z"
   id="path30"
   transform="scale(0.25)"
   style="stroke-width:4" />
<path
   d="m 297.739,73.538 c 5.997,3.231 11.86,6.876 17.423,10.833 1.511,1.074 3.25,1.591 4.972,1.591 2.686,0 5.332,-1.257 7.008,-3.611 2.75,-3.866 1.844,-9.23 -2.022,-11.98 -6.141,-4.367 -12.611,-8.39 -19.232,-11.957 -4.176,-2.25 -9.387,-0.688 -11.637,3.488 -2.251,4.175 -0.689,9.385 3.488,11.636 z"
   id="path32"
   transform="scale(0.25)"
   style="stroke-width:4" />
<path
   d="m 171.293,395.652 c 0.755,0.205 1.513,0.304 2.26,0.304 3.781,0 7.245,-2.515 8.285,-6.339 1.245,-4.578 -1.457,-9.3 -6.035,-10.545 -50.009,-13.599 -91.279,-50.536 -110.397,-98.803 -1.747,-4.412 -6.74,-6.569 -11.151,-4.823 -4.411,1.747 -6.57,6.74 -4.823,11.151 21.101,53.275 66.657,94.042 121.861,109.055 z"
   id="path34"
   transform="scale(0.25)"
   style="stroke-width:4" />
<path
   d="m 382.808,193.204 c 0.67,4.23 4.322,7.246 8.474,7.246 0.448,0 0.901,-0.034 1.356,-0.108 4.686,-0.743 7.882,-5.144 7.138,-9.83 -5.73,-36.13 -22.055,-69.39 -47.209,-96.184 -3.247,-3.459 -8.685,-3.63 -12.143,-0.383 -3.459,3.247 -3.631,8.683 -0.383,12.143 22.788,24.275 37.577,54.399 42.767,87.116 z"
   id="path36"
   transform="scale(0.25)"
   style="stroke-width:4" />
<g
   id="g38"
   transform="scale(0.25)"
   style="stroke-width:4">
</g>
<g
   id="g40"
   transform="scale(0.25)"
   style="stroke-width:4">
</g>
<g
   id="g42"
   transform="scale(0.25)"
   style="stroke-width:4">
</g>
<g
   id="g44"
   transform="scale(0.25)"
   style="stroke-width:4">
</g>
<g
   id="g46"
   transform="scale(0.25)"
   style="stroke-width:4">
</g>
<g
   id="g48"
   transform="scale(0.25)"
   style="stroke-width:4">
</g>
<g
   id="g50"
   transform="scale(0.25)"
   style="stroke-width:4">
</g>
<g
   id="g52"
   transform="scale(0.25)"
   style="stroke-width:4">
</g>
<g
   id="g54"
   transform="scale(0.25)"
   style="stroke-width:4">
</g>
<g
   id="g56"
   transform="scale(0.25)"
   style="stroke-width:4">
</g>
<g
   id="g58"
   transform="scale(0.25)"
   style="stroke-width:4">
</g>
<g
   id="g60"
   transform="scale(0.25)"
   style="stroke-width:4">
</g>
<g
   id="g62"
   transform="scale(0.25)"
   style="stroke-width:4">
</g>
<g
   id="g64"
   transform="scale(0.25)"
   style="stroke-width:4">
</g>
<g
   id="g66"
   transform="scale(0.25)"
   style="stroke-width:4">
</g>
</svg>
