<?xml version="1.0" encoding="UTF-8" standalone="no"?>
<!-- Generator: Adobe Illustrator 19.0.0, SVG Export Plug-In . SVG Version: 6.00 Build 0)  -->

<svg
   version="1.1"
   id="Layer_1"
   x="0px"
   y="0px"
   viewBox="0 0 384 384"
   xml:space="preserve"
   sodipodi:docname="bouton_stop_klaxon_source.svg"
   width="128"
   height="128"
   inkscape:version="1.1 (c68e22c387, 2021-05-23)"
   xmlns:inkscape="http://www.inkscape.org/namespaces/inkscape"
   xmlns:sodipodi="http://sodipodi.sourceforge.net/DTD/sodipodi-0.dtd"
   xmlns="http://www.w3.org/2000/svg"
   xmlns:svg="http://www.w3.org/2000/svg"><defs
   id="defs53" /><sodipodi:namedview
   id="namedview51"
   pagecolor="#ffffff"
   bordercolor="#666666"
   borderopacity="1.0"
   inkscape:pageshadow="2"
   inkscape:pageopacity="0.0"
   inkscape:pagecheckerboard="0"
   showgrid="false"
   inkscape:zoom="3.9524988"
   inkscape:cx="61.859601"
   inkscape:cy="71.094266"
   inkscape:window-width="1920"
   inkscape:window-height="979"
   inkscape:window-x="0"
   inkscape:window-y="0"
   inkscape:window-maximized="1"
   inkscape:current-layer="Layer_1"
   scale-x="3"
   fit-margin-top="0"
   fit-margin-left="0"
   fit-margin-right="0"
   fit-margin-bottom="0" />
<polyline
   style="fill:#ffffff;stroke-width:1.34551"
   points="93.091,248.377 230.853,337.524 230.853,55.019 93.091,144.166 "
   id="polyline2"
   transform="matrix(0.7432125,0,0,0.7432125,46.083975,46.083879)" />
<polygon
   style="fill:#00ff00;fill-opacity:1;stroke-width:1.34551"
   points="209.067,297.443 114.877,236.546 114.877,155.997 209.067,95.1 "
   id="polygon4"
   transform="matrix(0.7432125,0,0,0.7432125,46.083975,46.083879)" />
<g
   id="g10"
   transform="matrix(0.7432125,0,0,0.7432125,46.083975,46.083879)"
   style="stroke-width:1.34551">
	<path
   style="fill:#00ff00;stroke-width:1.34551"
   d="m 252.638,160.781 v 70.917 c 15.127,-4.655 26.182,-18.747 26.182,-35.491 0,-16.744 -10.99,-30.707 -26.182,-35.426 z"
   id="path6" />
	<rect
   x="21.851"
   y="149.144"
   style="fill:#00ff00;fill-opacity:1;stroke-width:1.34551"
   width="49.389999"
   height="94.254997"
   id="rect8" />
</g>
<g
   id="g18"
   transform="matrix(0.7432125,0,0,0.7432125,46.083975,46.083879)"
   style="stroke-width:1.34551">
	<path
   style="fill:#194f82;stroke-width:1.34551"
   d="M 252.768,138.413 V 34.979 c 0,-8.663 -9.568,-13.834 -16.873,-9.115 L 78.933,127.358 H 10.925 C 4.913,127.358 0,132.207 0,138.284 v 116.04 c 0,6.012 4.848,10.925 10.925,10.925 h 68.008 l 156.962,101.56 c 7.24,4.719 16.873,-0.517 16.873,-9.115 V 254.13 c 27.216,-5.172 47.968,-29.156 47.968,-57.859 0,-28.703 -20.688,-52.686 -47.968,-57.858 z M 71.24,243.399 H 21.85 V 149.144 H 71.24 Z M 230.853,337.524 93.091,248.377 v -19.394 h 21.786 c 6.012,0 10.925,-4.848 10.925,-10.925 0,-6.012 -4.848,-10.925 -10.925,-10.925 H 93.091 v -21.786 h 43.636 c 6.012,0 10.925,-4.848 10.925,-10.925 0,-6.012 -4.848,-10.925 -10.925,-10.925 H 93.091 V 144.103 L 230.853,54.956 Z M 252.638,231.762 V 160.78 c 15.127,4.655 26.182,18.747 26.182,35.491 0,16.744 -10.99,30.772 -26.182,35.491 z"
   id="path12" />
	<path
   style="fill:#00ff00;stroke-width:1.34551"
   d="m 348.509,89.54 c -4.267,-4.267 -11.184,-4.267 -15.451,0 -4.267,4.267 -4.202,11.119 0.065,15.386 23.337,23.402 37.689,55.725 37.689,91.281 0,35.556 -14.481,67.814 -37.689,91.216 -4.267,4.267 -4.331,11.119 -0.065,15.386 4.267,4.267 11.184,4.331 15.451,0 27.216,-27.281 44.154,-64.97 44.154,-106.537 0,-41.567 -17.002,-79.257 -44.154,-106.732 z"
   id="path14" />
	<path
   style="fill:#00ff00;stroke-width:1.34551"
   d="m 315.475,121.54 c -4.008,-3.943 -10.925,-3.426 -14.933,0.517 -4.073,4.073 -4.331,11.119 -0.129,15.192 15.063,15.127 24.501,35.943 24.501,58.958 0,23.015 -9.374,43.83 -24.501,58.958 -4.073,4.073 -3.943,11.119 0.129,15.192 4.008,4.008 10.925,4.59 14.933,0.517 19.265,-19.071 31.224,-45.576 31.224,-74.731 -0.065,-29.092 -11.96,-55.532 -31.224,-74.603 z"
   id="path16" />
</g>
<g
   id="g20"
   transform="matrix(0.7432125,0,0,0.7432125,46.083975,46.083879)"
   style="stroke-width:1.34551">
</g>
<g
   id="g22"
   transform="matrix(0.7432125,0,0,0.7432125,46.083975,46.083879)"
   style="stroke-width:1.34551">
</g>
<g
   id="g24"
   transform="matrix(0.7432125,0,0,0.7432125,46.083975,46.083879)"
   style="stroke-width:1.34551">
</g>
<g
   id="g26"
   transform="matrix(0.7432125,0,0,0.7432125,46.083975,46.083879)"
   style="stroke-width:1.34551">
</g>
<g
   id="g28"
   transform="matrix(0.7432125,0,0,0.7432125,46.083975,46.083879)"
   style="stroke-width:1.34551">
</g>
<g
   id="g30"
   transform="matrix(0.7432125,0,0,0.7432125,46.083975,46.083879)"
   style="stroke-width:1.34551">
</g>
<g
   id="g32"
   transform="matrix(0.7432125,0,0,0.7432125,46.083975,46.083879)"
   style="stroke-width:1.34551">
</g>
<g
   id="g34"
   transform="matrix(0.7432125,0,0,0.7432125,46.083975,46.083879)"
   style="stroke-width:1.34551">
</g>
<g
   id="g36"
   transform="matrix(0.7432125,0,0,0.7432125,46.083975,46.083879)"
   style="stroke-width:1.34551">
</g>
<g
   id="g38"
   transform="matrix(0.7432125,0,0,0.7432125,46.083975,46.083879)"
   style="stroke-width:1.34551">
</g>
<g
   id="g40"
   transform="matrix(0.7432125,0,0,0.7432125,46.083975,46.083879)"
   style="stroke-width:1.34551">
</g>
<g
   id="g42"
   transform="matrix(0.7432125,0,0,0.7432125,46.083975,46.083879)"
   style="stroke-width:1.34551">
</g>
<g
   id="g44"
   transform="matrix(0.7432125,0,0,0.7432125,46.083975,46.083879)"
   style="stroke-width:1.34551">
</g>
<g
   id="g46"
   transform="matrix(0.7432125,0,0,0.7432125,46.083975,46.083879)"
   style="stroke-width:1.34551">
</g>
<g
   id="g48"
   transform="matrix(0.7432125,0,0,0.7432125,46.083975,46.083879)"
   style="stroke-width:1.34551">
</g>
<circle
   style="fill:none;fill-opacity:1;stroke:#ff0000;stroke-width:10.76408161;stroke-miterlimit:4;stroke-dasharray:none;stroke-opacity:1;stop-color:#000000"
   id="path1375"
   cx="57.011005"
   cy="76.731522"
   r="79.385101"
   transform="matrix(2.2296375,0,0,2.2296375,64.886121,20.916519)" /><path
   style="fill:#ff0000;stroke:#ff0000;stroke-width:10.76408161;stroke-linecap:butt;stroke-linejoin:miter;stroke-miterlimit:4;stroke-dasharray:none;stroke-opacity:1"
   d="M 122.02131,0.40915572 10.093496,113.20766"
   id="path1866"
   transform="matrix(2.2296375,0,0,2.2296375,44.715934,65.337839)" /></svg>
