<?xml version="1.0" encoding="UTF-8" standalone="no"?>
<!-- Generator: Adobe Illustrator 19.0.0, SVG Export Plug-In . SVG Version: 6.00 Build 0)  -->

<svg
   version="1.1"
   id="Layer_1"
   x="0px"
   y="0px"
   viewBox="0 0 87.885498 128"
   xml:space="preserve"
   sodipodi:docname="cadena_ouvert.svg"
   width="87.885498"
   height="128"
   inkscape:version="1.1 (c68e22c387, 2021-05-23)"
   xmlns:inkscape="http://www.inkscape.org/namespaces/inkscape"
   xmlns:sodipodi="http://sodipodi.sourceforge.net/DTD/sodipodi-0.dtd"
   xmlns="http://www.w3.org/2000/svg"
   xmlns:svg="http://www.w3.org/2000/svg"><defs
   id="defs1189" /><sodipodi:namedview
   id="namedview1187"
   pagecolor="#ffffff"
   bordercolor="#666666"
   borderopacity="1.0"
   inkscape:pageshadow="2"
   inkscape:pageopacity="0.0"
   inkscape:pagecheckerboard="0"
   showgrid="false"
   fit-margin-top="0"
   fit-margin-left="0"
   fit-margin-right="0"
   fit-margin-bottom="0"
   inkscape:zoom="1.03125"
   inkscape:cx="-329.69697"
   inkscape:cy="64"
   inkscape:window-width="1366"
   inkscape:window-height="713"
   inkscape:window-x="0"
   inkscape:window-y="31"
   inkscape:window-maximized="1"
   inkscape:current-layer="Layer_1" />
<path
   style="fill:#bdccd4;stroke-width:0.25"
   d="m 25.078,28.692 c 1.97375,-8.665 9.78125,-15.13575 19.05575,-15.046 10.6505,0.10325 19.15575,8.94125 19.15575,19.59225 V 47.4585 c 4.17275,2.2105 7.922,5.1125 11.09525,8.555 v -22.687 c 0,-16.798 -13.466,-30.6795 -30.26375,-30.77575 -14.60275,-0.084 -26.871,10.1685 -29.90175,23.854 -0.74875,3.3815 1.83,6.58725 5.2935,6.58725 h 0.2635 c 2.561,-7.5e-4 4.733,-1.8025 5.30175,-4.3 z"
   id="path1142" />
<path
   style="fill:#29abe2;stroke-width:0.25"
   d="m 74.3845,56.01325 c -3.173,-3.4425 -6.92225,-6.34475 -11.09525,-8.555 -5.774,-3.0585 -12.357,-4.79325 -19.34625,-4.79325 -6.98925,0 -13.57225,1.735 -19.34625,4.79325 -4.17275,2.2105 -7.922,5.1125 -11.09525,8.555 C 6.704,63.388 2.55025,73.23725 2.55025,84.0575 c 0,22.8605 18.53225,41.39275 41.39275,41.39275 22.8605,0 41.39275,-18.53225 41.39275,-41.39275 0,-10.82025 -4.15375,-20.6695 -10.95125,-28.04425 z"
   id="path1144" />
<path
   style="fill:#bdccd4;stroke-width:0.25"
   d="m 60.66725,68.6505 c -1.74325,-1.89125 -3.803,-3.4855 -6.0955,-4.7 C 51.3995,62.27025 47.783,61.317 43.94325,61.317 c -3.83975,0 -7.4565,0.953 -10.6285,2.6335 -2.2925,1.2145 -4.35225,2.80875 -6.0955,4.7 -3.7345,4.05175 -6.01625,9.4625 -6.01625,15.407 0,12.55925 10.181,22.7405 22.7405,22.7405 12.5595,0 22.7405,-10.181 22.7405,-22.7405 -5e-4,-5.9445 -2.2825,-11.35525 -6.01675,-15.407 z"
   id="path1146" />
<path
   d="M 76.93425,55.035 V 33.3265 C 76.93425,15.05425 62.2205,0.10475 44.13525,5e-4 44.07295,0 44.01075,0 43.94825,0 36.4295,0 29.07725,2.59975 23.227,7.33125 17.417,12.03 13.334,18.608 11.7295,25.85275 c -0.5245,2.369 0.0465,4.81325 1.566,6.7065 1.5215,1.895 3.7875,2.982 6.217,2.982 h 0.2635 c 3.74275,0 6.9455,-2.5835 7.788,-6.283 v 0 c 1.7415,-7.645 8.69125,-13.13575 16.545,-13.06275 9.17,0.089 16.6305,7.73425 16.6305,17.0425 v 10.2105 c -5.2995,-2.188 -11.032,-3.33325 -16.79675,-3.33325 -7.15125,0 -14.25375,1.76025 -20.54025,5.09 -4.4175,2.34025 -8.37975,5.395 -11.7765,9.08 C 4.12875,62.419 0,72.99275 0,84.0575 5e-4,108.2875 19.713,128 43.943,128 c 24.23,0 43.9425,-19.7125 43.9425,-43.9425 0,-10.72825 -3.8815,-20.994 -10.95125,-29.0225 z M 44.15875,11.09625 C 39.1255,11.05425 34.199,12.752 30.27425,15.89575 26.412,18.9895 23.68375,23.33275 22.592,28.1255 v 0 c -0.31075,1.36375 -1.46875,2.316 -2.816,2.316 h -0.2635 c -0.87525,0 -1.69175,-0.392 -2.24025,-1.07475 C 16.72525,28.68575 16.52,27.8065 16.7085,26.9555 19.51825,14.268 30.9585,5.09975 43.94775,5.09975 c 0.0525,0 0.10575,0 0.15825,5e-4 15.28975,0.0877 27.72875,12.75 27.72875,28.22625 V 50.105 C 69.9565,48.56 67.954,47.174 65.83925,45.957 V 33.23825 c 2.5e-4,-12.0935 -9.726,-22.02625 -21.6805,-22.142 z M 43.943,122.9005 C 22.525,122.9005 5.1,105.47575 5.1,84.0575 5.1,74.277 8.7495,64.931 15.37625,57.7415 18.3805,54.48225 21.884,51.7805 25.79025,49.71175 31.344,46.76975 37.621,45.215 43.943,45.215 c 6.322,0 12.59925,1.55525 18.15275,4.49675 3.906,2.069 7.40975,4.77075 10.414,8.02975 6.62675,7.18975 10.27625,16.5355 10.27625,26.316 0,21.418 -17.425,38.843 -38.843,38.843 z"
   id="path1148"
   style="stroke-width:0.25" />
<path
   d="m 62.54175,66.92225 c -1.95475,-2.12075 -4.23475,-3.8785 -6.7765,-5.225 -3.61875,-1.917 -7.70675,-2.93 -11.82225,-2.93 -4.1155,0 -8.2035,1.01325 -11.82225,2.93 -2.542,1.3465 -4.82225,3.1045 -6.77675,5.225 -4.31475,4.6815 -6.69125,10.76675 -6.69125,17.13525 0,13.945 11.345,25.29025 25.29025,25.29025 13.94525,0 25.29025,-11.345 25.29025,-25.29025 0,-6.36825 -2.3765,-12.45375 -6.6915,-17.13525 2.5e-4,0 2.5e-4,0 0,0 z m -4.772,31.82825 -0.9505,-1.30825 c -0.82775,-1.13925 -2.422,-1.39175 -3.5615,-0.564 -1.13925,0.828 -1.39175,2.42225 -0.564,3.5615 l 0.95625,1.316 c -2.174,1.19725 -4.5915,2.001 -7.15675,2.326 v -1.627 c 0,-1.40825 -1.1415,-2.54975 -2.54975,-2.54975 -1.40825,0 -2.54975,1.1415 -2.54975,2.54975 v 1.627 C 38.8285,103.757 36.411,102.953 34.237,101.75575 l 0.95625,-1.316 c 0.82775,-1.13925 0.57525,-2.734 -0.564,-3.5615 -1.139,-0.82775 -2.73375,-0.575 -3.5615,0.564 l -0.9505,1.30825 c -1.8305,-1.72375 -3.34125,-3.78225 -4.42975,-6.08 l 1.54825,-0.503 c 1.33925,-0.43525 2.07225,-1.87375 1.637,-3.213 -0.43525,-1.33925 -1.873,-2.07175 -3.213,-1.637 l -1.54925,0.50325 c -0.231,-1.22 -0.357,-2.47675 -0.357,-3.76325 0,-1.274 0.11925,-2.5335 0.352,-3.76475 l 1.55425,0.505 c 0.26175,0.085 0.52725,0.1255 0.7885,0.1255 1.07475,0 2.0745,-0.68525 2.4245,-1.76275 0.43525,-1.33925 -0.29775,-2.77775 -1.637,-3.213 l -1.5505,-0.50375 c 0.866,-1.83325 2.007,-3.54325 3.4095,-5.06525 0.327,-0.35475 0.6675,-0.69325 1.0165,-1.02225 l 0.9565,1.3165 c 0.499,0.68675 1.2765,1.05125 2.065,1.05125 0.51975,0 1.04425,-0.15825 1.49675,-0.487 1.13925,-0.828 1.39175,-2.42225 0.564,-3.5615 L 34.235,66.35625 c 0.0915,-0.0505 0.18125,-0.1035 0.27375,-0.1525 C 36.645,65.072 38.988,64.3365 41.394,64.03 v 1.63075 c 0,1.40825 1.1415,2.54975 2.54975,2.54975 1.40825,0 2.54975,-1.1415 2.54975,-2.54975 V 64.03 c 2.406,0.3065 4.749,1.04175 6.88525,2.17375 0.0925,0.049 0.18225,0.10225 0.27375,0.1525 L 52.694,67.6755 c -0.82775,1.13925 -0.57525,2.734 0.564,3.5615 0.4525,0.329 0.977,0.487 1.49675,0.487 0.7885,0 1.566,-0.3645 2.065,-1.05125 l 0.9565,-1.3165 c 0.349,0.32875 0.68975,0.6675 1.0165,1.02225 v 0 c 1.40275,1.522 2.544,3.23175 3.4095,5.06525 l -1.5505,0.50375 c -1.33925,0.43525 -2.07225,1.87375 -1.637,3.213 0.35025,1.0775 1.3495,1.76275 2.4245,1.76275 0.261,0 0.5265,-0.0405 0.7885,-0.1255 l 1.55425,-0.505 c 0.23275,1.23125 0.352,2.49125 0.352,3.76475 0,1.2865 -0.126,2.54325 -0.357,3.76325 L 62.22775,87.3175 c -1.33875,-0.435 -2.778,0.29775 -3.213,1.637 -0.435,1.33925 0.29775,2.77775 1.637,3.213 L 62.2,92.6705 c -1.08875,2.29775 -2.5995,4.35625 -4.43025,6.08 z"
   id="path1150"
   style="stroke-width:0.25" />
<path
   d="m 48.9795,75.95075 c -1.0355,0.9545 -1.10125,2.5675 -0.14675,3.60275 1.13425,1.2305 1.7585,2.83 1.7585,4.504 0,3.666 -2.9825,6.6485 -6.6485,6.6485 -3.666,0 -6.6485,-2.9825 -6.6485,-6.6485 0,-1.40825 -1.1415,-2.54975 -2.54975,-2.54975 -1.40825,0 -2.54975,1.1415 -2.54975,2.54975 0,6.478 5.27025,11.74825 11.74825,11.74825 6.478,0 11.74825,-5.27025 11.74825,-11.74825 0,-2.95825 -1.104,-5.78525 -3.1085,-7.96025 -0.9545,-1.0355 -2.56775,-1.101 -3.60325,-0.1465 z"
   id="path1152"
   style="stroke-width:0.25" />
<path
   d="m 40.264,78.176 c 0.341,0 0.688,-0.0687 1.02025,-0.21425 C 42.0085,77.645 42.778,77.4625 43.5715,77.419 c 1.40625,-0.077 2.4835,-1.2795 2.4065,-2.6855 -0.077,-1.40625 -1.281,-2.486 -2.6855,-2.4065 -1.40425,0.077 -2.76725,0.40075 -4.0515,0.96225 -1.29025,0.56425 -1.87875,2.06775 -1.3145,3.35775 0.41875,0.95825 1.355,1.529 2.3375,1.529 z"
   id="path1154"
   style="stroke-width:0.25" />
<g
   id="g1156"
   transform="matrix(0.25,0,0,0.25,-20.05725,0)">
</g>
<g
   id="g1158"
   transform="matrix(0.25,0,0,0.25,-20.05725,0)">
</g>
<g
   id="g1160"
   transform="matrix(0.25,0,0,0.25,-20.05725,0)">
</g>
<g
   id="g1162"
   transform="matrix(0.25,0,0,0.25,-20.05725,0)">
</g>
<g
   id="g1164"
   transform="matrix(0.25,0,0,0.25,-20.05725,0)">
</g>
<g
   id="g1166"
   transform="matrix(0.25,0,0,0.25,-20.05725,0)">
</g>
<g
   id="g1168"
   transform="matrix(0.25,0,0,0.25,-20.05725,0)">
</g>
<g
   id="g1170"
   transform="matrix(0.25,0,0,0.25,-20.05725,0)">
</g>
<g
   id="g1172"
   transform="matrix(0.25,0,0,0.25,-20.05725,0)">
</g>
<g
   id="g1174"
   transform="matrix(0.25,0,0,0.25,-20.05725,0)">
</g>
<g
   id="g1176"
   transform="matrix(0.25,0,0,0.25,-20.05725,0)">
</g>
<g
   id="g1178"
   transform="matrix(0.25,0,0,0.25,-20.05725,0)">
</g>
<g
   id="g1180"
   transform="matrix(0.25,0,0,0.25,-20.05725,0)">
</g>
<g
   id="g1182"
   transform="matrix(0.25,0,0,0.25,-20.05725,0)">
</g>
<g
   id="g1184"
   transform="matrix(0.25,0,0,0.25,-20.05725,0)">
</g>
</svg>
