<?xml version="1.0" encoding="UTF-8" standalone="no"?>
<!-- Generator: Adobe Illustrator 19.0.0, SVG Export Plug-In . SVG Version: 6.00 Build 0)  -->

<svg
   version="1.1"
   id="Layer_1"
   x="0px"
   y="0px"
   viewBox="0 0 87.885002 128"
   xml:space="preserve"
   sodipodi:docname="cadena_ferme.svg"
   width="87.885002"
   height="128"
   inkscape:version="1.1 (c68e22c387, 2021-05-23)"
   xmlns:inkscape="http://www.inkscape.org/namespaces/inkscape"
   xmlns:sodipodi="http://sodipodi.sourceforge.net/DTD/sodipodi-0.dtd"
   xmlns="http://www.w3.org/2000/svg"
   xmlns:svg="http://www.w3.org/2000/svg"><defs
   id="defs47" /><sodipodi:namedview
   id="namedview45"
   pagecolor="#ffffff"
   bordercolor="#666666"
   borderopacity="1.0"
   inkscape:pageshadow="2"
   inkscape:pageopacity="0.0"
   inkscape:pagecheckerboard="0"
   showgrid="false"
   fit-margin-top="0"
   fit-margin-left="0"
   fit-margin-right="0"
   fit-margin-bottom="0"
   inkscape:zoom="1.03125"
   inkscape:cx="-138.66667"
   inkscape:cy="64"
   inkscape:window-width="1366"
   inkscape:window-height="713"
   inkscape:window-x="0"
   inkscape:window-y="31"
   inkscape:window-maximized="1"
   inkscape:current-layer="Layer_1" />
<path
   style="fill:#bdccd4;stroke-width:0.25"
   d="M 24.59625,47.45825 V 32.9915 c 0,-10.6675 8.67875,-19.34625 19.34625,-19.34625 10.6675,0 19.34625,8.67875 19.34625,19.34625 v 14.46675 c 4.17275,2.2105 7.922,5.1125 11.09525,8.555 v -23.022 c 0,-16.7855 -13.656,-30.4415 -30.4415,-30.4415 -16.7855,0 -30.4415,13.656 -30.4415,30.4415 v 23.022 c 3.173,-3.4425 6.92225,-6.34475 11.09525,-8.555 z"
   id="path2" />
<path
   style="fill:#29abe2;stroke-width:0.25"
   d="m 74.384,56.01325 c -3.173,-3.4425 -6.92225,-6.34475 -11.09525,-8.555 -5.774,-3.0585 -12.357,-4.79325 -19.34625,-4.79325 -6.98925,0 -13.57225,1.735 -19.34625,4.79325 -4.17275,2.2105 -7.922,5.1125 -11.09525,8.555 C 6.7035,63.388 2.54975,73.23725 2.54975,84.0575 c 0,22.8605 18.53225,41.39275 41.39275,41.39275 22.8605,0 41.39275,-18.53225 41.39275,-41.39275 0,-10.82025 -4.15375,-20.6695 -10.95125,-28.04425 z"
   id="path4" />
<circle
   style="fill:#7ac943;stroke-width:0.25"
   cx="43.942501"
   cy="84.153748"
   r="22.703501"
   id="circle6" />
<path
   d="M 76.93375,55.03475 V 32.9915 C 76.93375,14.79975 62.134,0 43.9425,0 25.751,0 10.95125,14.79975 10.95125,32.99125 V 55.0345 C 3.88175,63.06325 0,73.32925 0,84.0575 0,108.2875 19.7125,128 43.9425,128 c 24.23,0 43.9425,-19.7125 43.9425,-43.9425 0,-10.72825 -3.88175,-20.994 -10.95125,-29.02275 z M 60.739,43.44825 C 55.4395,41.26025 49.707,40.115 43.9425,40.115 c -5.7645,0 -11.497,1.14525 -16.7965,3.33325 v -10.457 c 0,-9.26175 7.535,-16.79675 16.7965,-16.79675 9.2615,0 16.7965,7.535 16.7965,16.79675 z M 43.9425,5.0995 c 15.3795,0 27.89175,12.51225 27.89175,27.89175 V 50.1045 c -1.87825,-1.545 -3.88075,-2.931 -5.9955,-4.148 V 32.99125 c 0,-12.07375 -9.82225,-21.8965 -21.89625,-21.8965 -12.074,0 -21.89625,9.8225 -21.89625,21.8965 V 45.9565 c -2.1145,1.217 -4.11725,2.60275 -5.9955,4.148 V 32.99125 C 16.05075,17.61175 28.563,5.0995 43.9425,5.0995 Z m 0,117.801 c -21.418,0 -38.843,-17.42475 -38.843,-38.843 0,-9.7805 3.6495,-19.1265 10.27625,-26.316 3.00425,-3.25925 6.50775,-5.961 10.414,-8.02975 5.55375,-2.942 11.83075,-4.49675 18.15275,-4.49675 6.322,0 12.599,1.55525 18.15275,4.49675 3.90575,2.069 7.40975,4.77075 10.414,8.02975 H 72.509 c 6.627,7.18975 10.2765,16.5355 10.2765,26.316 0,21.418 -17.425,38.843 -38.843,38.843 z"
   id="path8"
   style="stroke-width:0.25" />
<path
   d="m 43.9425,58.9005 c -13.925,0 -25.254,11.329 -25.254,25.254 0,13.925 11.329,25.254 25.254,25.254 13.925,0 25.254,-11.329 25.254,-25.254 0,-13.925 -11.329,-25.254 -25.254,-25.254 z m 0,45.40825 c -11.113,0 -20.1545,-9.041 -20.1545,-20.1545 C 23.788,73.04075 32.8295,64 43.9425,64 c 11.113,0 20.1545,9.041 20.1545,20.1545 0,11.1135 -9.0415,20.15425 -20.1545,20.15425 z"
   id="path10"
   style="stroke-width:0.25" />
<path
   d="M 51.2515,75.733 38.393,88.5915 34.92225,85.1205 c -0.996,-0.99575 -2.61,-0.99575 -3.60625,0 -0.99575,0.99575 -0.99575,2.61025 0,3.60625 l 5.274,5.274 c 0.498,0.498 1.1505,0.74675 1.803,0.74675 0.6525,0 1.305,-0.24875 1.803,-0.74675 L 54.85725,79.3395 c 0.99575,-0.99575 0.99575,-2.61025 0,-3.60625 C 53.8615,74.737 52.2475,74.737 51.2515,75.733 Z"
   id="path12"
   style="stroke-width:0.25" />
<g
   id="g14"
   transform="matrix(0.25,0,0,0.25,-20.0575,0)">
</g>
<g
   id="g16"
   transform="matrix(0.25,0,0,0.25,-20.0575,0)">
</g>
<g
   id="g18"
   transform="matrix(0.25,0,0,0.25,-20.0575,0)">
</g>
<g
   id="g20"
   transform="matrix(0.25,0,0,0.25,-20.0575,0)">
</g>
<g
   id="g22"
   transform="matrix(0.25,0,0,0.25,-20.0575,0)">
</g>
<g
   id="g24"
   transform="matrix(0.25,0,0,0.25,-20.0575,0)">
</g>
<g
   id="g26"
   transform="matrix(0.25,0,0,0.25,-20.0575,0)">
</g>
<g
   id="g28"
   transform="matrix(0.25,0,0,0.25,-20.0575,0)">
</g>
<g
   id="g30"
   transform="matrix(0.25,0,0,0.25,-20.0575,0)">
</g>
<g
   id="g32"
   transform="matrix(0.25,0,0,0.25,-20.0575,0)">
</g>
<g
   id="g34"
   transform="matrix(0.25,0,0,0.25,-20.0575,0)">
</g>
<g
   id="g36"
   transform="matrix(0.25,0,0,0.25,-20.0575,0)">
</g>
<g
   id="g38"
   transform="matrix(0.25,0,0,0.25,-20.0575,0)">
</g>
<g
   id="g40"
   transform="matrix(0.25,0,0,0.25,-20.0575,0)">
</g>
<g
   id="g42"
   transform="matrix(0.25,0,0,0.25,-20.0575,0)">
</g>
</svg>
