<?xml version="1.0" encoding="UTF-8" standalone="no"?>
<!-- Generator: Adobe Illustrator 19.0.0, SVG Export Plug-In . SVG Version: 6.00 Build 0)  -->

<svg
   version="1.1"
   id="Layer_1"
   x="0px"
   y="0px"
   viewBox="0 0 117.62777 128"
   xml:space="preserve"
   sodipodi:docname="claf_a_molette_2_source.svg"
   width="117.62778"
   height="128"
   inkscape:version="1.1 (c68e22c387, 2021-05-23)"
   xmlns:inkscape="http://www.inkscape.org/namespaces/inkscape"
   xmlns:sodipodi="http://sodipodi.sourceforge.net/DTD/sodipodi-0.dtd"
   xmlns="http://www.w3.org/2000/svg"
   xmlns:svg="http://www.w3.org/2000/svg"><defs
   id="defs63" /><sodipodi:namedview
   id="namedview61"
   pagecolor="#ffffff"
   bordercolor="#666666"
   borderopacity="1.0"
   inkscape:pageshadow="2"
   inkscape:pageopacity="0.0"
   inkscape:pagecheckerboard="0"
   showgrid="false"
   fit-margin-top="0"
   fit-margin-left="0"
   fit-margin-right="0"
   fit-margin-bottom="0"
   inkscape:zoom="1.5156575"
   inkscape:cx="38.59711"
   inkscape:cy="63.998627"
   inkscape:window-width="1920"
   inkscape:window-height="979"
   inkscape:window-x="0"
   inkscape:window-y="0"
   inkscape:window-maximized="1"
   inkscape:current-layer="Layer_1" />
<g
   id="g8"
   transform="matrix(0.25000537,0,0,0.25000537,-5.1861114,6.2501343e-5)"
   style="stroke-width:3.99991">
	<path
   style="fill:#aab2bc;stroke-width:3.99991"
   d="m 197.71,199.238 c -4.156,4.171 -10.921,4.171 -15.078,0 l -7.546,-7.539 c -4.172,-4.171 -4.172,-10.921 0,-15.085 4.172,-4.171 10.921,-4.171 15.078,0 l 7.546,7.539 c 4.172,4.164 4.172,10.921 0,15.085 z"
   id="path2" />
	<path
   style="fill:#aab2bc;stroke-width:3.99991"
   d="m 167.539,229.409 c -4.156,4.163 -10.921,4.171 -15.078,0 l -7.546,-7.539 c -4.172,-4.164 -4.172,-10.922 0,-15.086 4.156,-4.164 10.921,-4.164 15.078,0 l 7.546,7.539 c 4.172,4.165 4.172,10.922 0,15.086 z"
   id="path4" />
	<path
   style="fill:#aab2bc;stroke-width:3.99991"
   d="m 137.369,259.587 c -4.156,4.164 -10.921,4.164 -15.078,0 l -7.546,-7.546 c -4.172,-4.164 -4.172,-10.922 0,-15.086 4.155,-4.164 10.921,-4.164 15.077,0 l 7.546,7.539 c 4.172,4.172 4.172,10.922 0.001,15.093 z"
   id="path6" />
</g>
<path
   style="fill:#ccd1d9;stroke-width:3.99991"
   d="m 333.486,48.385 c -4.172,-4.172 -10.922,-4.172 -15.094,0 L 122.291,244.494 c -4.172,4.172 -4.172,10.922 0,15.093 l 45.249,45.265 c 2,2 4.718,3.125 7.546,3.125 2.828,0 5.547,-1.125 7.546,-3.125 L 378.75,108.727 c 2,-2 3.109,-4.719 3.109,-7.547 0,-2.828 -1.109,-5.539 -3.109,-7.539 z"
   id="path10"
   transform="matrix(0.25000537,0,0,0.25000537,-5.1861114,6.2501343e-5)" />
<path
   style="fill:#aab2bc;stroke-width:3.99991"
   d="m 182.632,259.579 c -4.171,4.172 -10.921,4.172 -15.093,0 -4.156,-4.163 -4.156,-10.913 0,-15.085 l 39.608,-39.6 c 4.156,-4.164 10.921,-4.164 15.078,0 4.171,4.172 4.171,10.922 0,15.086 z"
   id="path12"
   transform="matrix(0.25000537,0,0,0.25000537,-5.1861114,6.2501343e-5)" />
<path
   style="fill:#ffff00;fill-opacity:1;stroke-width:3.99991"
   d="m 303.315,78.555 c -4.172,-4.164 -10.921,-4.164 -15.093,0 l -49.17,49.17 -26.249,26.257 c -5.562,5.562 -12.531,17.78 -8.734,59.427 1.297,14.406 3.469,27.788 4.766,35.061 L 36.341,420.957 c -20.796,20.795 -20.796,54.638 0,75.434 20.796,20.797 54.639,20.797 75.435,0 L 358.469,249.69 c 18.265,7.547 66.904,23.601 95.699,-5.195 4.172,-4.164 4.172,-10.922 0,-15.085 z M 84.73,458.674 c 0,5.89 -4.781,10.671 -10.671,10.671 -5.89,0 -10.671,-4.781 -10.671,-10.671 0,-5.891 4.781,-10.672 10.671,-10.672 5.89,0 10.671,4.781 10.671,10.672 z"
   id="path14"
   transform="matrix(0.25000537,0,0,0.25000537,-5.1861114,6.2501343e-5)" />
<path
   style="fill:#000000;fill-opacity:1;stroke-width:3.99991"
   d="m 303.315,78.555 c -4.172,-4.164 -10.921,-4.164 -15.093,0 L 273.145,93.64 c 4.156,-4.164 10.921,-4.164 15.077,0 l 150.869,150.854 c 2.453,2.469 3.453,5.836 3,9.047 4.281,-2.344 8.359,-5.312 12.078,-9.047 4.172,-4.164 4.172,-10.922 0,-15.085 z"
   id="path16"
   transform="matrix(0.25000537,0,0,0.25000537,-5.1861114,6.2501343e-5)" />
<path
   style="fill:#ffff00;fill-opacity:1;stroke-width:3.99991"
   d="m 378.734,3.128 c -4.156,-4.171 -10.906,-4.171 -15.078,0 l -45.264,45.256 c -2,2 -3.125,4.711 -3.125,7.539 0,2.828 1.125,5.546 3.125,7.546 l 150.87,150.854 c 2.781,2.781 6.859,3.812 10.624,2.672 1.719,-0.523 3.234,-1.445 4.453,-2.672 1.469,-1.461 2.5,-3.344 2.922,-5.445 0.156,-0.812 3.984,-20.163 3.984,-43.584 0,-32.96 -7.406,-57.068 -21.983,-71.654 z"
   id="path18"
   transform="matrix(0.25000537,0,0,0.25000537,-5.1861114,6.2501343e-5)" />
<path
   style="fill:#e6e9ed;stroke-width:3.99991"
   d="m 212.804,153.982 c -4.312,4.312 -9.453,12.609 -9.797,35.459 l 55.045,55.052 c 0.531,0.523 1.094,0.977 1.672,1.367 4.141,2.734 9.781,2.281 13.422,-1.367 l 30.17,-30.17 c 4.172,-4.164 4.172,-10.922 0,-15.085 L 235.428,131.35 Z"
   id="path20"
   transform="matrix(0.25000537,0,0,0.25000537,-5.1861114,6.2501343e-5)" />
<polygon
   style="fill:#ccd1d9;stroke-width:3.99991"
   points="235.427,221.87 280.691,176.614 265.599,161.529 220.35,206.785 "
   id="polygon22"
   transform="matrix(0.25000537,0,0,0.25000537,-5.1861114,6.2501343e-5)" />
<g
   id="g28"
   transform="matrix(0.25000537,0,0,0.25000537,-5.1861114,6.2501343e-5)"
   style="stroke-width:3.99991">
	<path
   style="fill:#000000;fill-opacity:1;stroke-width:3.99991"
   d="m 258.052,289.759 -146.275,146.29 c -4.172,4.156 -10.922,4.156 -15.093,0 -4.156,-4.172 -4.156,-10.921 0,-15.092 L 242.975,274.665 c 4.156,-4.164 10.921,-4.164 15.078,0 4.171,4.172 4.171,10.922 -10e-4,15.094 z"
   id="path24" />
	<path
   style="fill:#000000;fill-opacity:1;stroke-width:3.99991"
   d="m 317.689,49.174 c -0.156,0.18 -0.281,0.375 -0.422,0.562 -0.062,0.094 -0.141,0.18 -0.203,0.281 -0.172,0.242 -0.312,0.5 -0.453,0.758 -0.031,0.047 -0.062,0.086 -0.078,0.133 -0.141,0.266 -0.266,0.539 -0.391,0.82 -0.016,0.039 -0.047,0.078 -0.062,0.125 -0.109,0.266 -0.203,0.539 -0.281,0.805 -0.031,0.062 -0.047,0.117 -0.062,0.18 -0.078,0.25 -0.141,0.508 -0.203,0.766 -0.016,0.086 -0.031,0.164 -0.047,0.25 -0.062,0.242 -0.094,0.492 -0.125,0.742 0,0.094 -0.031,0.188 -0.031,0.289 -0.031,0.328 -0.047,0.656 -0.047,0.984 0,0.023 -0.016,0.047 0,0.062 0,0.352 0.016,0.695 0.047,1.039 0,0.078 0.016,0.164 0.031,0.25 0.031,0.266 0.062,0.523 0.125,0.781 0,0.07 0.031,0.141 0.047,0.211 0.062,0.266 0.125,0.539 0.203,0.805 0.016,0.047 0.031,0.086 0.047,0.133 0.094,0.289 0.188,0.57 0.297,0.852 0.016,0.023 0.031,0.046 0.031,0.07 0.125,0.296 0.266,0.585 0.422,0.875 0,0.016 0.016,0.039 0.031,0.055 0.156,0.289 0.328,0.562 0.5,0.836 0.031,0.055 0.078,0.102 0.109,0.156 0.172,0.234 0.328,0.461 0.516,0.688 0.156,0.188 0.328,0.367 0.5,0.547 0.062,0.078 0.141,0.164 0.203,0.242 l 50.295,50.288 100.575,100.565 c 0.234,0.234 0.469,0.445 0.719,0.656 0.062,0.055 0.125,0.102 0.188,0.156 0.219,0.172 0.453,0.344 0.688,0.5 0.031,0.023 0.062,0.047 0.094,0.07 0.25,0.164 0.516,0.312 0.766,0.453 0.094,0.047 0.188,0.094 0.281,0.141 0.203,0.109 0.422,0.203 0.625,0.289 0.078,0.031 0.141,0.07 0.219,0.094 0.266,0.109 0.531,0.203 0.812,0.289 0.094,0.031 0.188,0.055 0.281,0.078 0.219,0.062 0.453,0.117 0.688,0.172 0.062,0.008 0.141,0.031 0.203,0.039 0.297,0.055 0.594,0.102 0.891,0.133 0.062,0.008 0.125,0.008 0.188,0.016 0.266,0.016 0.516,0.031 0.781,0.031 0.062,0.008 0.125,0.008 0.188,0.008 0.312,-0.008 0.624,-0.016 0.937,-0.047 0.031,0 0.062,-0.008 0.094,-0.016 0.266,-0.023 0.531,-0.062 0.797,-0.109 0.094,-0.016 0.188,-0.039 0.266,-0.055 0.25,-0.047 0.484,-0.109 0.719,-0.172 0.062,-0.023 0.125,-0.031 0.188,-0.055 0.281,-0.078 0.547,-0.18 0.812,-0.281 0.094,-0.031 0.172,-0.07 0.266,-0.109 0.25,-0.109 0.516,-0.219 0.75,-0.352 0.062,-0.031 0.125,-0.062 0.172,-0.094 0.234,-0.117 0.453,-0.25 0.672,-0.391 0.062,-0.047 0.141,-0.086 0.203,-0.133 0.25,-0.164 0.484,-0.344 0.734,-0.531 0.047,-0.039 0.094,-0.086 0.141,-0.125 0.25,-0.203 0.484,-0.422 0.719,-0.656 h 0.016 c 1.453,-1.469 2.484,-3.352 2.906,-5.445 0.062,-0.289 0.562,-2.867 1.203,-7.094 -1.516,-0.508 -2.922,-1.352 -4.125,-2.546 L 333.486,48.385 c -2.469,-2.469 -3.453,-5.836 -3,-9.047 -4.297,2.344 -8.359,5.312 -12.094,9.047 -0.25,0.25 -0.484,0.515 -0.703,0.789 z"
   id="path26" />
</g>
<g
   id="g30"
   transform="matrix(0.25000537,0,0,0.25000537,-5.1861114,6.2501343e-5)"
   style="stroke-width:3.99991">
</g>
<g
   id="g32"
   transform="matrix(0.25000537,0,0,0.25000537,-5.1861114,6.2501343e-5)"
   style="stroke-width:3.99991">
</g>
<g
   id="g34"
   transform="matrix(0.25000537,0,0,0.25000537,-5.1861114,6.2501343e-5)"
   style="stroke-width:3.99991">
</g>
<g
   id="g36"
   transform="matrix(0.25000537,0,0,0.25000537,-5.1861114,6.2501343e-5)"
   style="stroke-width:3.99991">
</g>
<g
   id="g38"
   transform="matrix(0.25000537,0,0,0.25000537,-5.1861114,6.2501343e-5)"
   style="stroke-width:3.99991">
</g>
<g
   id="g40"
   transform="matrix(0.25000537,0,0,0.25000537,-5.1861114,6.2501343e-5)"
   style="stroke-width:3.99991">
</g>
<g
   id="g42"
   transform="matrix(0.25000537,0,0,0.25000537,-5.1861114,6.2501343e-5)"
   style="stroke-width:3.99991">
</g>
<g
   id="g44"
   transform="matrix(0.25000537,0,0,0.25000537,-5.1861114,6.2501343e-5)"
   style="stroke-width:3.99991">
</g>
<g
   id="g46"
   transform="matrix(0.25000537,0,0,0.25000537,-5.1861114,6.2501343e-5)"
   style="stroke-width:3.99991">
</g>
<g
   id="g48"
   transform="matrix(0.25000537,0,0,0.25000537,-5.1861114,6.2501343e-5)"
   style="stroke-width:3.99991">
</g>
<g
   id="g50"
   transform="matrix(0.25000537,0,0,0.25000537,-5.1861114,6.2501343e-5)"
   style="stroke-width:3.99991">
</g>
<g
   id="g52"
   transform="matrix(0.25000537,0,0,0.25000537,-5.1861114,6.2501343e-5)"
   style="stroke-width:3.99991">
</g>
<g
   id="g54"
   transform="matrix(0.25000537,0,0,0.25000537,-5.1861114,6.2501343e-5)"
   style="stroke-width:3.99991">
</g>
<g
   id="g56"
   transform="matrix(0.25000537,0,0,0.25000537,-5.1861114,6.2501343e-5)"
   style="stroke-width:3.99991">
</g>
<g
   id="g58"
   transform="matrix(0.25000537,0,0,0.25000537,-5.1861114,6.2501343e-5)"
   style="stroke-width:3.99991">
</g>
</svg>
