<?xml version="1.0" encoding="UTF-8" standalone="no"?>
<!-- Generator: Adobe Illustrator 19.0.0, SVG Export Plug-In . SVG Version: 6.00 Build 0)  -->

<svg
   version="1.1"
   id="Layer_1"
   x="0px"
   y="0px"
   viewBox="0 0 128.00001 111.14969"
   xml:space="preserve"
   sodipodi:docname="clef_a_molette_3_source.svg"
   width="128"
   height="111.14969"
   inkscape:version="1.1 (c68e22c387, 2021-05-23)"
   xmlns:inkscape="http://www.inkscape.org/namespaces/inkscape"
   xmlns:sodipodi="http://sodipodi.sourceforge.net/DTD/sodipodi-0.dtd"
   xmlns="http://www.w3.org/2000/svg"
   xmlns:svg="http://www.w3.org/2000/svg"><defs
   id="defs59" /><sodipodi:namedview
   id="namedview57"
   pagecolor="#ffffff"
   bordercolor="#666666"
   borderopacity="1.0"
   inkscape:pageshadow="2"
   inkscape:pageopacity="0.0"
   inkscape:pagecheckerboard="0"
   showgrid="false"
   fit-margin-top="0"
   fit-margin-left="0"
   fit-margin-right="0"
   fit-margin-bottom="0"
   inkscape:zoom="1.5156221"
   inkscape:cx="43.216577"
   inkscape:cy="55.422786"
   inkscape:window-width="1920"
   inkscape:window-height="979"
   inkscape:window-x="0"
   inkscape:window-y="0"
   inkscape:window-maximized="1"
   inkscape:current-layer="Layer_1" />
<path
   style="fill:#ffff00;fill-opacity:1;stroke-width:3.99999"
   d="m 178.695,431.113 c -8.849,8.851 -8.849,23.201 0,32.051 8.851,8.851 23.202,8.851 32.052,0 l 96.154,-96.154 -32.05,-32.054 z"
   id="path2"
   transform="matrix(0.25000043,0,0,0.25000043,3.1250761e-5,-8.4252645)" />
<path
   style="fill:#ffff00;fill-opacity:1;stroke-width:3.99999"
   d="m 419.082,254.828 c 13.275,-13.277 13.275,-34.802 0,-48.078 l -80.13,-80.128 h -48.077 l -272.44,272.44 c -13.275,13.274 -13.275,34.799 0,48.076 13.278,13.277 34.802,13.277 48.079,0 l 144.232,-144.232 24.039,8.014 16.027,-16.028 64.103,64.105 z"
   id="path4"
   transform="matrix(0.25000043,0,0,0.25000043,3.1250761e-5,-8.4252645)" />
<path
   style="fill:#ededed;stroke-width:3.99999"
   d="m 419.082,238.801 76.121,-76.121 c 11.065,-11.063 11.065,-29.001 0,-40.063 L 423.088,50.5 c -11.065,-11.066 -29.001,-11.065 -40.064,-10e-4 -11.065,11.065 -11.065,29.001 0,40.064 l 52.886,52.885 -52.886,52.885"
   id="path6"
   transform="matrix(0.25000043,0,0,0.25000043,3.1250761e-5,-8.4252645)" />
<path
   style="fill:#ffff00;fill-opacity:1;stroke-width:3.99999"
   d="m 495.204,122.616 -36.056,-36.059 -40.064,40.064 16.828,16.828 -52.886,52.885 36.058,42.468 76.121,-76.121 c 11.063,-11.064 11.063,-29.002 -10e-4,-40.065 z"
   id="path8"
   transform="matrix(0.25000043,0,0,0.25000043,3.1250761e-5,-8.4252645)" />
<path
   style="fill:#ffff00;fill-opacity:1;stroke-width:3.99999"
   d="m 419.082,254.828 c 13.275,-13.277 13.275,-34.802 0,-48.078 l -40.064,-40.063 -112.18,112.18 64.103,64.104 z"
   id="path10"
   transform="matrix(0.25000043,0,0,0.25000043,3.1250761e-5,-8.4252645)" />
<g
   id="g16"
   transform="matrix(0.25000043,0,0,0.25000043,3.1250761e-5,-8.4252645)"
   style="stroke-width:3.99999">
	<circle
   style="fill:#ededed;stroke-width:3.99999"
   cx="314.91501"
   cy="150.659"
   r="33.995998"
   id="circle12" />
	
		<rect
   x="246.533"
   y="264.61899"
   transform="matrix(0.7071,-0.7071,0.7071,0.7071,-150.679,290.1168)"
   style="fill:#ededed;stroke-width:3.99999"
   width="56.658001"
   height="124.651"
   id="rect14" />
</g>
<rect
   x="254.53101"
   y="283.97501"
   transform="matrix(0.1767753,-0.1767753,0.1767753,0.1767753,-38.502509,66.105416)"
   style="fill:#ffff00;fill-opacity:1;stroke-width:3.99999"
   width="56.658001"
   height="101.986"
   id="rect18" />
<g
   id="g24"
   transform="matrix(0.25000043,0,0,0.25000043,3.1250761e-5,-8.4252645)"
   style="stroke-width:3.99999">
	<path
   style="fill:#2e2d31;stroke-width:3.99999"
   d="M 501.214,116.605 429.098,44.488 c -6.957,-6.957 -16.206,-10.787 -26.043,-10.787 -9.838,0 -19.086,3.831 -26.04,10.787 -6.958,6.956 -10.788,16.205 -10.788,26.042 0,9.837 3.83,19.086 10.787,26.041 l 46.877,46.877 -28.045,28.044 -50.882,-50.882 c -1.004,-1.003 -2.049,-1.95 -3.131,-2.839 -7.574,-6.224 -16.986,-9.608 -26.918,-9.608 -9.934,0 -19.345,3.384 -26.92,9.608 -1.082,0.888 -2.127,1.836 -3.131,2.839 L 12.425,393.05 c -16.567,16.568 -16.567,43.528 10e-4,60.098 8.026,8.026 18.698,12.446 30.049,12.446 11.351,0 22.021,-4.421 30.049,-12.447 l 138.223,-138.223 36.057,36.058 -74.12,74.119 c -5.885,5.886 -9.127,13.712 -9.127,22.035 0,8.323 3.241,16.149 9.127,22.035 5.886,5.886 13.712,9.128 22.036,9.128 8.324,0 16.15,-3.241 22.036,-9.128 l 74.117,-74.119 2.005,2.003 c 1.594,1.594 3.755,2.49 6.01,2.49 2.254,0 4.415,-0.895 6.01,-2.49 l 40.064,-40.064 c 3.319,-3.319 3.319,-8.701 0,-12.019 l -2.004,-2.005 82.133,-82.133 c 7.88,-7.88 12.004,-18.112 12.388,-28.457 0.145,-0.127 0.293,-0.252 0.432,-0.39 l 63.3,-63.302 c 6.958,-6.956 10.788,-16.205 10.788,-26.042 10e-4,-9.834 -3.828,-19.082 -10.785,-26.038 z m -168.269,52.082 c -4.817,4.817 -11.22,7.469 -18.029,7.469 h -10e-4 c -6.811,-0.001 -13.213,-2.653 -18.028,-7.468 -9.942,-9.942 -9.942,-26.117 -0.002,-36.057 0.602,-0.602 1.229,-1.171 1.879,-1.703 4.545,-3.734 10.192,-5.765 16.153,-5.765 5.108,0 9.987,1.491 14.139,4.269 1.384,0.926 2.686,1.994 3.89,3.199 9.938,9.942 9.938,26.116 -0.001,36.056 z m -54.09,214.348 -74.118,74.119 c -2.674,2.675 -6.233,4.149 -10.016,4.149 -3.783,0 -7.342,-1.473 -10.016,-4.149 -2.675,-2.675 -4.149,-6.233 -4.149,-10.016 0,-3.784 1.473,-7.341 4.149,-10.016 l 74.119,-74.119 z m 20.034,-4.006 -76.123,-76.124 28.046,-28.046 76.122,76.124 z M 413.073,248.818 330.94,330.95 256.822,256.831 c -1.594,-1.594 -3.757,-2.49 -6.01,-2.49 -2.254,0 -4.415,0.895 -6.01,2.49 l -40.064,40.064 -0.001,0.001 -144.231,144.231 c -4.817,4.816 -11.22,7.469 -18.03,7.469 -6.81,0 -13.213,-2.653 -18.029,-7.468 -9.94,-9.942 -9.94,-26.117 0,-36.058 L 272.863,156.652 c 1.244,8.807 5.244,17.297 12.004,24.057 8.025,8.025 18.695,12.445 30.047,12.446 0.001,0 0.001,0 0.001,0 11.35,0 22.023,-4.421 30.049,-12.447 6.758,-6.758 10.757,-15.248 12.002,-24.054 l 56.108,56.107 c 9.939,9.94 9.939,26.115 -0.001,36.057 z m 76.12,-92.148 -55.809,55.809 c -2.023,-4.246 -4.782,-8.227 -8.292,-11.738 l -17.228,-17.228 34.056,-34.055 c 1.593,-1.593 2.489,-3.755 2.489,-6.009 0,-2.254 -0.895,-4.416 -2.489,-6.009 L 389.033,84.554 c -3.745,-3.745 -5.808,-8.724 -5.808,-14.022 0,-5.298 2.062,-10.276 5.809,-14.023 3.745,-3.745 8.724,-5.808 14.021,-5.808 5.298,0 10.277,2.062 14.023,5.809 l 72.117,72.117 c 3.745,3.745 5.808,8.724 5.808,14.021 -10e-4,5.296 -2.064,10.275 -5.81,14.022 z"
   id="path20" />
	<path
   style="fill:#2e2d31;stroke-width:3.99999"
   d="M 220.761,232.792 36.466,417.09 c -3.319,3.319 -3.319,8.701 0,12.02 1.66,1.659 3.836,2.49 6.01,2.49 2.175,0 4.35,-0.829 6.01,-2.49 L 232.78,244.812 c 3.319,-3.319 3.319,-8.701 0,-12.019 -3.319,-3.319 -8.699,-3.319 -12.019,-0.001 z"
   id="path22" />
</g>
<g
   id="g26"
   transform="matrix(0.25000043,0,0,0.25000043,3.1250761e-5,-8.4252645)"
   style="stroke-width:3.99999">
</g>
<g
   id="g28"
   transform="matrix(0.25000043,0,0,0.25000043,3.1250761e-5,-8.4252645)"
   style="stroke-width:3.99999">
</g>
<g
   id="g30"
   transform="matrix(0.25000043,0,0,0.25000043,3.1250761e-5,-8.4252645)"
   style="stroke-width:3.99999">
</g>
<g
   id="g32"
   transform="matrix(0.25000043,0,0,0.25000043,3.1250761e-5,-8.4252645)"
   style="stroke-width:3.99999">
</g>
<g
   id="g34"
   transform="matrix(0.25000043,0,0,0.25000043,3.1250761e-5,-8.4252645)"
   style="stroke-width:3.99999">
</g>
<g
   id="g36"
   transform="matrix(0.25000043,0,0,0.25000043,3.1250761e-5,-8.4252645)"
   style="stroke-width:3.99999">
</g>
<g
   id="g38"
   transform="matrix(0.25000043,0,0,0.25000043,3.1250761e-5,-8.4252645)"
   style="stroke-width:3.99999">
</g>
<g
   id="g40"
   transform="matrix(0.25000043,0,0,0.25000043,3.1250761e-5,-8.4252645)"
   style="stroke-width:3.99999">
</g>
<g
   id="g42"
   transform="matrix(0.25000043,0,0,0.25000043,3.1250761e-5,-8.4252645)"
   style="stroke-width:3.99999">
</g>
<g
   id="g44"
   transform="matrix(0.25000043,0,0,0.25000043,3.1250761e-5,-8.4252645)"
   style="stroke-width:3.99999">
</g>
<g
   id="g46"
   transform="matrix(0.25000043,0,0,0.25000043,3.1250761e-5,-8.4252645)"
   style="stroke-width:3.99999">
</g>
<g
   id="g48"
   transform="matrix(0.25000043,0,0,0.25000043,3.1250761e-5,-8.4252645)"
   style="stroke-width:3.99999">
</g>
<g
   id="g50"
   transform="matrix(0.25000043,0,0,0.25000043,3.1250761e-5,-8.4252645)"
   style="stroke-width:3.99999">
</g>
<g
   id="g52"
   transform="matrix(0.25000043,0,0,0.25000043,3.1250761e-5,-8.4252645)"
   style="stroke-width:3.99999">
</g>
<g
   id="g54"
   transform="matrix(0.25000043,0,0,0.25000043,3.1250761e-5,-8.4252645)"
   style="stroke-width:3.99999">
</g>
</svg>
