<?xml version="1.0" encoding="UTF-8" standalone="no"?>
<svg
   viewBox="0 0 64 64"
   style="enable-background:new 0 0 64 64"
   version="1.1"
   id="svg18"
   sodipodi:docname="detection_mouvement_off_source.svg"
   inkscape:version="1.1 (c68e22c387, 2021-05-23)"
   xmlns:inkscape="http://www.inkscape.org/namespaces/inkscape"
   xmlns:sodipodi="http://sodipodi.sourceforge.net/DTD/sodipodi-0.dtd"
   xmlns="http://www.w3.org/2000/svg"
   xmlns:svg="http://www.w3.org/2000/svg">
  <defs
     id="defs22" />
  <sodipodi:namedview
     id="namedview20"
     pagecolor="#ffffff"
     bordercolor="#666666"
     borderopacity="1.0"
     inkscape:pageshadow="2"
     inkscape:pageopacity="0.0"
     inkscape:pagecheckerboard="0"
     showgrid="false"
     inkscape:zoom="8.5736697"
     inkscape:cx="35.748986"
     inkscape:cy="33.124672"
     inkscape:window-width="1920"
     inkscape:window-height="979"
     inkscape:window-x="0"
     inkscape:window-y="0"
     inkscape:window-maximized="1"
     inkscape:current-layer="svg18" />
  <path
     d="m -362.9,157.9 c 11.3,0 20.5,9.2 20.5,20.5 0,11.3 -9.2,20.5 -20.5,20.5 -11.3,0 -20.5,-9.2 -20.5,-20.5 0,-11.3 9.2,-20.5 20.5,-20.5 z m 25.8,46.3 h -51.2 c -14.2,0 -25.6,11.4 -25.6,25.6 v 62.6 c 0,4.9 3.9,9 9,9 5.1,0 9,-3.9 9,-9 v -57.5 c 0,-1.4 1.2,-2.6 2.6,-2.6 1.4,0 2.6,1.2 2.6,2.6 v 155.2 c 0,7.7 5.7,14 12.8,14 7.1,0 12.8,-6.3 12.8,-14 v -88.5 c 0,-1.4 1.2,-2.6 2.6,-2.6 1.4,0 2.6,1.2 2.6,2.6 v 88.5 c 0,7.7 5.7,14 12.8,14 7.1,0 12.8,-6.3 12.8,-14 V 234.9 c 0,-1.4 1.2,-2.6 2.6,-2.6 1.4,0 2.6,1.2 2.6,2.6 v 57.6 c 0,4.9 3.9,9 9,9 5.1,0 9,-3.9 9,-9 v -62.7 c -0.4,-14.2 -12.1,-25.6 -26,-25.6 z"
     id="path2-3"
     transform="matrix(0.17104793,0,0,0.17104793,93.449342,-15.970904)"
     style="stroke-width:5.84632;fill:#ffbe00;fill-opacity:1" />
</svg>
