<?xml version="1.0" encoding="UTF-8" standalone="no"?>
<!-- Generator: Adobe Illustrator 19.0.0, SVG Export Plug-In . SVG Version: 6.00 Build 0)  -->

<svg
   version="1.1"
   id="Layer_1"
   x="0px"
   y="0px"
   viewBox="0 0 92.862 127.99972"
   xml:space="preserve"
   sodipodi:docname="digicode_source.svg"
   inkscape:version="1.1 (c68e22c387, 2021-05-23)"
   width="92.862"
   height="127.99972"
   xmlns:inkscape="http://www.inkscape.org/namespaces/inkscape"
   xmlns:sodipodi="http://sodipodi.sourceforge.net/DTD/sodipodi-0.dtd"
   xmlns="http://www.w3.org/2000/svg"
   xmlns:svg="http://www.w3.org/2000/svg"><defs
   id="defs93" /><sodipodi:namedview
   id="namedview91"
   pagecolor="#ffffff"
   bordercolor="#666666"
   borderopacity="1.0"
   inkscape:pageshadow="2"
   inkscape:pageopacity="0.0"
   inkscape:pagecheckerboard="0"
   showgrid="false"
   inkscape:zoom="1.6373692"
   inkscape:cx="43.056876"
   inkscape:cy="56.798432"
   inkscape:window-width="1920"
   inkscape:window-height="979"
   inkscape:window-x="0"
   inkscape:window-y="0"
   inkscape:window-maximized="1"
   inkscape:current-layer="Layer_1"
   fit-margin-top="0"
   fit-margin-left="0"
   fit-margin-right="0"
   fit-margin-bottom="0" />

<path
   style="fill:#7b7b7b;fill-opacity:1;stroke-width:2.68151"
   d="m 364.818,375.613 c 0,22.297 -18.08,40.381 -40.381,40.381 H 156.189 c -22.301,0 -40.381,-18.08 -40.381,-40.381 v -262.47 c 0,-22.297 18.08,-40.381 40.381,-40.381 h 168.248 c 22.301,0 40.381,18.08 40.381,40.381 z"
   id="path4"
   transform="matrix(0.37292478,0,0,0.37292478,-43.187673,-27.134753)" />
<g
   id="g28"
   transform="matrix(0.37292478,0,0,0.37292478,-43.187673,-27.134753)"
   style="stroke-width:2.68151">
	<path
   style="fill:#4e4e4e;stroke-width:7.19047"
   d="m 177.071,380.14 c 0,3.076 -2.488,5.568 -5.564,5.568 h -23.206 c -3.076,0 -5.571,-2.492 -5.571,-5.568 v -23.184 c 0,-3.079 2.496,-5.571 5.571,-5.571 h 23.206 c 3.076,0 5.564,2.496 5.564,5.571 z"
   id="path6" />
	<path
   style="fill:#4e4e4e;stroke-width:7.19047"
   d="m 217.116,380.14 c 0,3.076 -2.488,5.568 -5.56,5.568 h -23.21 c -3.076,0 -5.571,-2.492 -5.571,-5.568 v -23.184 c 0,-3.079 2.496,-5.571 5.571,-5.571 h 23.21 c 3.072,0 5.56,2.496 5.56,5.571 z"
   id="path8" />
	<path
   style="fill:#4e4e4e;stroke-width:7.19047"
   d="m 257.16,380.14 c 0,3.076 -2.488,5.568 -5.56,5.568 h -23.21 c -3.072,0 -5.571,-2.492 -5.571,-5.568 v -23.184 c 0,-3.079 2.499,-5.571 5.571,-5.571 h 23.21 c 3.072,0 5.56,2.496 5.56,5.571 z"
   id="path10" />
	<path
   style="fill:#4e4e4e;stroke-width:7.19047"
   d="m 177.071,340.092 c 0,3.076 -2.488,5.568 -5.564,5.568 h -23.206 c -3.076,0 -5.571,-2.496 -5.571,-5.568 v -23.184 c 0,-3.076 2.496,-5.568 5.571,-5.568 h 23.206 c 3.076,0 5.564,2.496 5.564,5.568 z"
   id="path12" />
	<path
   style="fill:#4e4e4e;stroke-width:7.19047"
   d="m 217.116,340.092 c 0,3.076 -2.488,5.568 -5.56,5.568 h -23.21 c -3.076,0 -5.571,-2.496 -5.571,-5.568 v -23.184 c 0,-3.076 2.496,-5.568 5.571,-5.568 h 23.21 c 3.072,0 5.56,2.496 5.56,5.568 z"
   id="path14" />
	<path
   style="fill:#4e4e4e;stroke-width:7.19047"
   d="m 257.16,340.092 c 0,3.076 -2.488,5.568 -5.56,5.568 h -23.21 c -3.072,0 -5.571,-2.496 -5.571,-5.568 v -23.184 c 0,-3.076 2.499,-5.568 5.571,-5.568 h 23.21 c 3.072,0 5.56,2.496 5.56,5.568 z"
   id="path16" />
	<path
   style="fill:#4e4e4e;stroke-width:7.19047"
   d="m 177.071,300.048 c 0,3.076 -2.488,5.568 -5.564,5.568 h -23.206 c -3.076,0 -5.571,-2.496 -5.571,-5.568 v -23.184 c 0,-3.076 2.496,-5.568 5.571,-5.568 h 23.206 c 3.076,0 5.564,2.496 5.564,5.568 z"
   id="path18" />
	<path
   style="fill:#4e4e4e;stroke-width:7.19047"
   d="m 217.116,300.048 c 0,3.076 -2.488,5.568 -5.56,5.568 h -23.21 c -3.076,0 -5.571,-2.496 -5.571,-5.568 v -23.184 c 0,-3.076 2.496,-5.568 5.571,-5.568 h 23.21 c 3.072,0 5.56,2.496 5.56,5.568 z"
   id="path20" />
	<path
   style="fill:#4e4e4e;stroke-width:7.19047"
   d="m 257.16,300.048 c 0,3.076 -2.488,5.568 -5.56,5.568 h -23.21 c -3.072,0 -5.571,-2.496 -5.571,-5.568 v -23.184 c 0,-3.076 2.499,-5.568 5.571,-5.568 h 23.21 c 3.072,0 5.56,2.496 5.56,5.568 z"
   id="path22" />
	<path
   style="fill:#4e4e4e;stroke-width:7.19047"
   d="m 177.071,260.004 c 0,3.076 -2.488,5.568 -5.564,5.568 h -23.206 c -3.076,0 -5.571,-2.496 -5.571,-5.568 V 236.82 c 0,-3.076 2.496,-5.568 5.571,-5.568 h 23.206 c 3.076,0 5.564,2.496 5.564,5.568 z"
   id="path24" />
	<path
   style="fill:#4e4e4e;stroke-width:7.19047"
   d="m 338.596,199.432 c 0,3.076 -2.492,5.571 -5.568,5.571 H 148.301 c -3.076,0 -5.571,-2.496 -5.571,-5.571 v -90.483 c 0,-3.076 2.496,-5.568 5.571,-5.568 h 184.727 c 3.076,0 5.568,2.496 5.568,5.568 z"
   id="path26" />
</g>
<path
   style="fill:#74c59c;stroke-width:2.68151"
   d="m 331.864,191.032 c 0,2.862 -2.32,5.186 -5.186,5.186 H 154.651 c -2.87,0 -5.194,-2.324 -5.194,-5.186 v -73.683 c 0,-2.862 2.324,-5.186 5.194,-5.186 h 172.031 c 2.866,0 5.186,2.324 5.186,5.186 v 73.683 z"
   id="path30"
   transform="matrix(0.37292478,0,0,0.37292478,-43.187673,-27.134753)" />
<g
   id="g36"
   transform="matrix(0.37292478,0,0,0.37292478,-43.187673,-27.134753)"
   style="stroke-width:2.68151">
	<path
   style="fill:#4e4e4e;stroke-width:7.19047"
   d="m 217.116,260.004 c 0,3.076 -2.488,5.568 -5.56,5.568 h -23.21 c -3.076,0 -5.571,-2.496 -5.571,-5.568 V 236.82 c 0,-3.076 2.496,-5.568 5.571,-5.568 h 23.21 c 3.072,0 5.56,2.496 5.56,5.568 z"
   id="path32" />
	<path
   style="fill:#4e4e4e;stroke-width:7.19047"
   d="m 257.16,260.004 c 0,3.076 -2.488,5.568 -5.56,5.568 h -23.21 c -3.072,0 -5.571,-2.496 -5.571,-5.568 V 236.82 c 0,-3.076 2.499,-5.568 5.571,-5.568 h 23.21 c 3.072,0 5.56,2.496 5.56,5.568 z"
   id="path34" />
</g>
<path
   style="fill:#e79e2d;stroke-width:2.68151"
   d="m 332.358,351.385 h -40.044 -3.353 -19.854 c -3.076,0 -5.575,2.496 -5.575,5.571 v 23.184 c 0,3.076 2.499,5.568 5.575,5.568 h 19.858 3.353 40.044 c 3.072,0 5.568,-2.492 5.568,-5.568 v -23.184 c -0.004,-3.079 -2.5,-5.571 -5.572,-5.571 z"
   id="path38"
   transform="matrix(0.37292478,0,0,0.37292478,-43.187673,-27.134753)" />
<g
   id="g44"
   transform="matrix(0.37292478,0,0,0.37292478,-43.187673,-27.134753)"
   style="stroke-width:2.68151">
	<path
   style="fill:#63bd6e;stroke-width:7.19047"
   d="m 297.878,340.092 c 0,3.076 -2.492,5.568 -5.564,5.568 h -23.206 c -3.076,0 -5.575,-2.496 -5.575,-5.568 v -23.184 c 0,-3.076 2.499,-5.568 5.575,-5.568 h 23.206 c 3.072,0 5.564,2.496 5.564,5.568 z"
   id="path40" />
	<path
   style="fill:#63bd6e;stroke-width:7.19047"
   d="m 337.926,340.092 c 0,3.076 -2.496,5.568 -5.568,5.568 h -23.21 c -3.072,0 -5.568,-2.496 -5.568,-5.568 v -23.184 c 0,-3.076 2.496,-5.568 5.568,-5.568 h 23.21 c 3.072,0 5.568,2.496 5.568,5.568 z"
   id="path42" />
</g>
<g
   id="g50"
   transform="matrix(0.37292478,0,0,0.37292478,-43.187673,-27.134753)"
   style="stroke-width:2.68151">
	<path
   style="fill:#67b8cb;stroke-width:7.19047"
   d="m 297.878,300.048 c 0,3.076 -2.492,5.568 -5.564,5.568 h -23.206 c -3.076,0 -5.575,-2.496 -5.575,-5.568 v -23.184 c 0,-3.076 2.499,-5.568 5.575,-5.568 h 23.206 c 3.072,0 5.564,2.496 5.564,5.568 z"
   id="path46" />
	<path
   style="fill:#67b8cb;stroke-width:7.19047"
   d="m 337.926,300.048 c 0,3.076 -2.496,5.568 -5.568,5.568 h -23.21 c -3.072,0 -5.568,-2.496 -5.568,-5.568 v -23.184 c 0,-3.076 2.496,-5.568 5.568,-5.568 h 23.21 c 3.072,0 5.568,2.496 5.568,5.568 z"
   id="path48" />
</g>
<g
   id="g56"
   transform="matrix(0.37292478,0,0,0.37292478,-43.187673,-27.134753)"
   style="stroke-width:2.68151">
	<path
   style="fill:#e84849;stroke-width:7.19047"
   d="m 297.878,260.004 c 0,3.076 -2.492,5.568 -5.564,5.568 h -23.206 c -3.076,0 -5.575,-2.496 -5.575,-5.568 V 236.82 c 0,-3.076 2.499,-5.568 5.575,-5.568 h 23.206 c 3.072,0 5.564,2.496 5.564,5.568 z"
   id="path52" />
	<path
   style="fill:#e84849;stroke-width:7.19047"
   d="m 337.926,260.004 c 0,3.076 -2.496,5.568 -5.568,5.568 h -23.21 c -3.072,0 -5.568,-2.496 -5.568,-5.568 V 236.82 c 0,-3.076 2.496,-5.568 5.568,-5.568 h 23.21 c 3.072,0 5.568,2.496 5.568,5.568 z"
   id="path54" />
</g>
<path
   style="opacity:0.15;stroke-width:2.68151;enable-background:new"
   d="m 149.756,191.032 v -73.683 c 0,-2.862 2.327,-5.186 5.194,-5.186 h 75.191 L 314.2,196.218 H 154.95 c -2.866,0 -5.194,-2.324 -5.194,-5.186 z"
   id="path58"
   transform="matrix(0.37292478,0,0,0.37292478,-43.187673,-27.134753)" />
<g
   id="g60"
   transform="matrix(0.37292478,0,0,0.37292478,-43.187673,-27.134753)"
   style="stroke-width:2.68151">
</g>
<g
   id="g62"
   transform="matrix(0.37292478,0,0,0.37292478,-43.187673,-27.134753)"
   style="stroke-width:2.68151">
</g>
<g
   id="g64"
   transform="matrix(0.37292478,0,0,0.37292478,-43.187673,-27.134753)"
   style="stroke-width:2.68151">
</g>
<g
   id="g66"
   transform="matrix(0.37292478,0,0,0.37292478,-43.187673,-27.134753)"
   style="stroke-width:2.68151">
</g>
<g
   id="g68"
   transform="matrix(0.37292478,0,0,0.37292478,-43.187673,-27.134753)"
   style="stroke-width:2.68151">
</g>
<g
   id="g70"
   transform="matrix(0.37292478,0,0,0.37292478,-43.187673,-27.134753)"
   style="stroke-width:2.68151">
</g>
<g
   id="g72"
   transform="matrix(0.37292478,0,0,0.37292478,-43.187673,-27.134753)"
   style="stroke-width:2.68151">
</g>
<g
   id="g74"
   transform="matrix(0.37292478,0,0,0.37292478,-43.187673,-27.134753)"
   style="stroke-width:2.68151">
</g>
<g
   id="g76"
   transform="matrix(0.37292478,0,0,0.37292478,-43.187673,-27.134753)"
   style="stroke-width:2.68151">
</g>
<g
   id="g78"
   transform="matrix(0.37292478,0,0,0.37292478,-43.187673,-27.134753)"
   style="stroke-width:2.68151">
</g>
<g
   id="g80"
   transform="matrix(0.37292478,0,0,0.37292478,-43.187673,-27.134753)"
   style="stroke-width:2.68151">
</g>
<g
   id="g82"
   transform="matrix(0.37292478,0,0,0.37292478,-43.187673,-27.134753)"
   style="stroke-width:2.68151">
</g>
<g
   id="g84"
   transform="matrix(0.37292478,0,0,0.37292478,-43.187673,-27.134753)"
   style="stroke-width:2.68151">
</g>
<g
   id="g86"
   transform="matrix(0.37292478,0,0,0.37292478,-43.187673,-27.134753)"
   style="stroke-width:2.68151">
</g>
<g
   id="g88"
   transform="matrix(0.37292478,0,0,0.37292478,-43.187673,-27.134753)"
   style="stroke-width:2.68151">
</g>
</svg>
