<svg id="Calque_3" data-name="Calque 3" xmlns="http://www.w3.org/2000/svg" xmlns:xlink="http://www.w3.org/1999/xlink" viewBox="0 0 128 128"><defs><style>.cls-1,.cls-2{fill:none;}.cls-2{clip-path:url(#clip-path);}.cls-3{fill:url(#Dégradé_sans_nom);}.cls-4{fill:url(#Dégradé_sans_nom_2);}.cls-12,.cls-5{opacity:0.3;}.cls-100,.cls-101,.cls-102,.cls-103,.cls-104,.cls-105,.cls-106,.cls-107,.cls-108,.cls-109,.cls-110,.cls-111,.cls-112,.cls-113,.cls-114,.cls-115,.cls-116,.cls-117,.cls-118,.cls-119,.cls-12,.cls-120,.cls-121,.cls-122,.cls-123,.cls-124,.cls-125,.cls-126,.cls-127,.cls-129,.cls-131,.cls-132,.cls-133,.cls-134,.cls-135,.cls-136,.cls-137,.cls-138,.cls-139,.cls-14,.cls-140,.cls-141,.cls-142,.cls-143,.cls-144,.cls-145,.cls-146,.cls-147,.cls-148,.cls-149,.cls-150,.cls-151,.cls-152,.cls-153,.cls-154,.cls-155,.cls-156,.cls-157,.cls-158,.cls-159,.cls-160,.cls-161,.cls-162,.cls-163,.cls-164,.cls-165,.cls-166,.cls-167,.cls-168,.cls-169,.cls-170,.cls-171,.cls-174,.cls-175,.cls-176,.cls-177,.cls-178,.cls-179,.cls-180,.cls-181,.cls-182,.cls-193,.cls-205,.cls-206,.cls-207,.cls-208,.cls-209,.cls-210,.cls-211,.cls-212,.cls-213,.cls-214,.cls-215,.cls-216,.cls-217,.cls-218,.cls-219,.cls-220,.cls-221,.cls-222,.cls-223,.cls-224,.cls-225,.cls-226,.cls-227,.cls-228,.cls-229,.cls-230,.cls-231,.cls-232,.cls-233,.cls-234,.cls-235,.cls-236,.cls-237,.cls-238,.cls-239,.cls-240,.cls-241,.cls-242,.cls-243,.cls-244,.cls-245,.cls-246,.cls-247,.cls-248,.cls-249,.cls-250,.cls-251,.cls-252,.cls-253,.cls-254,.cls-255,.cls-260,.cls-261,.cls-262,.cls-263,.cls-264,.cls-265,.cls-266,.cls-268,.cls-269,.cls-270,.cls-271,.cls-272,.cls-273,.cls-274,.cls-275,.cls-276,.cls-29,.cls-30,.cls-31,.cls-32,.cls-33,.cls-34,.cls-35,.cls-36,.cls-37,.cls-38,.cls-39,.cls-40,.cls-41,.cls-42,.cls-43,.cls-44,.cls-45,.cls-46,.cls-47,.cls-48,.cls-49,.cls-5,.cls-50,.cls-51,.cls-52,.cls-53,.cls-54,.cls-55,.cls-56,.cls-57,.cls-58,.cls-59,.cls-60,.cls-61,.cls-62,.cls-63,.cls-64,.cls-65,.cls-66,.cls-67,.cls-68,.cls-69,.cls-7,.cls-70,.cls-71,.cls-72,.cls-73,.cls-74,.cls-75,.cls-76,.cls-77,.cls-78,.cls-79,.cls-8,.cls-81,.cls-82,.cls-83,.cls-84,.cls-85,.cls-86,.cls-87,.cls-88,.cls-90,.cls-91,.cls-92,.cls-93,.cls-94,.cls-95,.cls-96,.cls-97,.cls-98,.cls-99{isolation:isolate;}.cls-5{fill:url(#Dégradé_sans_nom_3);}.cls-6{fill:url(#Dégradé_sans_nom_4);}.cls-140,.cls-193,.cls-28,.cls-7,.cls-93{opacity:0.4;}.cls-7{fill:url(#Dégradé_sans_nom_5);}.cls-127,.cls-182,.cls-189,.cls-205,.cls-29,.cls-8{opacity:0.8;}.cls-8{fill:url(#Dégradé_sans_nom_6);}.cls-81,.cls-9{opacity:0.2;}.cls-10{fill:#bcbcbc;}.cls-11{opacity:0.1;}.cls-12{fill:url(#Dégradé_sans_nom_3-2);}.cls-13{fill:url(#Dégradé_sans_nom-2);}.cls-14,.cls-188{fill:#070707;}.cls-110,.cls-14,.cls-157,.cls-187{opacity:0.6;}.cls-15{clip-path:url(#clip-path-3);}.cls-16{fill:url(#Dégradé_sans_nom_10);}.cls-17{fill:url(#Dégradé_sans_nom-3);}.cls-18{fill:url(#Dégradé_sans_nom_12);}.cls-19{fill:url(#Dégradé_sans_nom_13);}.cls-20{fill:url(#Dégradé_sans_nom_12-2);}.cls-21{fill:url(#Dégradé_sans_nom_136);}.cls-22{clip-path:url(#clip-path-4);}.cls-174,.cls-23{opacity:0.5;}.cls-24{fill:url(#Dégradé_sans_nom_139);}.cls-25{fill:url(#Dégradé_sans_nom_139-2);}.cls-26{fill:url(#Dégradé_sans_nom_139-3);}.cls-27{fill:url(#Dégradé_sans_nom_139-4);}.cls-29{fill:url(#Dégradé_sans_nom_143);}.cls-206,.cls-30{opacity:0.8;}.cls-30{fill:url(#Dégradé_sans_nom_144);}.cls-207,.cls-31{opacity:0.81;}.cls-31{fill:url(#Dégradé_sans_nom_145);}.cls-208,.cls-32{opacity:0.81;}.cls-32{fill:url(#Dégradé_sans_nom_146);}.cls-209,.cls-33{opacity:0.82;}.cls-33{fill:url(#Dégradé_sans_nom_147);}.cls-210,.cls-34{opacity:0.82;}.cls-34{fill:url(#Dégradé_sans_nom_148);}.cls-211,.cls-35{opacity:0.82;}.cls-35{fill:url(#Dégradé_sans_nom_149);}.cls-212,.cls-36{opacity:0.83;}.cls-36{fill:url(#Dégradé_sans_nom_150);}.cls-213,.cls-37{opacity:0.83;}.cls-37{fill:url(#Dégradé_sans_nom_151);}.cls-214,.cls-38{opacity:0.84;}.cls-38{fill:url(#Dégradé_sans_nom_152);}.cls-215,.cls-39{opacity:0.84;}.cls-39{fill:url(#Dégradé_sans_nom_153);}.cls-216,.cls-40{opacity:0.84;}.cls-40{fill:url(#Dégradé_sans_nom_154);}.cls-217,.cls-41{opacity:0.85;}.cls-41{fill:url(#Dégradé_sans_nom_155);}.cls-218,.cls-42{opacity:0.85;}.cls-42{fill:url(#Dégradé_sans_nom_156);}.cls-219,.cls-43{opacity:0.85;}.cls-43{fill:url(#Dégradé_sans_nom_157);}.cls-220,.cls-44{opacity:0.86;}.cls-44{fill:url(#Dégradé_sans_nom_158);}.cls-221,.cls-45{opacity:0.86;}.cls-45{fill:url(#Dégradé_sans_nom_159);}.cls-222,.cls-46{opacity:0.87;}.cls-46{fill:url(#Dégradé_sans_nom_160);}.cls-223,.cls-47{opacity:0.87;}.cls-47{fill:url(#Dégradé_sans_nom_161);}.cls-224,.cls-48{opacity:0.87;}.cls-48{fill:url(#Dégradé_sans_nom_162);}.cls-225,.cls-49{opacity:0.88;}.cls-49{fill:url(#Dégradé_sans_nom_163);}.cls-226,.cls-50{opacity:0.88;}.cls-50{fill:url(#Dégradé_sans_nom_164);}.cls-227,.cls-51{opacity:0.89;}.cls-51{fill:url(#Dégradé_sans_nom_165);}.cls-228,.cls-52{opacity:0.89;}.cls-52{fill:url(#Dégradé_sans_nom_166);}.cls-229,.cls-53{opacity:0.89;}.cls-53{fill:url(#Dégradé_sans_nom_167);}.cls-230,.cls-54{opacity:0.9;}.cls-54{fill:url(#Dégradé_sans_nom_168);}.cls-231,.cls-55{opacity:0.9;}.cls-55{fill:url(#Dégradé_sans_nom_169);}.cls-232,.cls-56{opacity:0.91;}.cls-56{fill:url(#Dégradé_sans_nom_170);}.cls-233,.cls-57{opacity:0.91;}.cls-57{fill:url(#Dégradé_sans_nom_171);}.cls-234,.cls-58{opacity:0.91;}.cls-58{fill:url(#Dégradé_sans_nom_172);}.cls-235,.cls-59{opacity:0.92;}.cls-59{fill:url(#Dégradé_sans_nom_173);}.cls-236,.cls-60{opacity:0.92;}.cls-60{fill:url(#Dégradé_sans_nom_174);}.cls-237,.cls-61{opacity:0.93;}.cls-61{fill:url(#Dégradé_sans_nom_175);}.cls-238,.cls-62{opacity:0.93;}.cls-62{fill:url(#Dégradé_sans_nom_176);}.cls-239,.cls-63{opacity:0.93;}.cls-63{fill:url(#Dégradé_sans_nom_177);}.cls-240,.cls-64{opacity:0.94;}.cls-64{fill:url(#Dégradé_sans_nom_178);}.cls-241,.cls-65{opacity:0.94;}.cls-65{fill:url(#Dégradé_sans_nom_179);}.cls-242,.cls-66{opacity:0.95;}.cls-66{fill:url(#Dégradé_sans_nom_180);}.cls-243,.cls-67{opacity:0.95;}.cls-67{fill:url(#Dégradé_sans_nom_181);}.cls-244,.cls-68{opacity:0.95;}.cls-68{fill:url(#Dégradé_sans_nom_182);}.cls-245,.cls-69{opacity:0.96;}.cls-69{fill:url(#Dégradé_sans_nom_183);}.cls-246,.cls-70{opacity:0.96;}.cls-70{fill:url(#Dégradé_sans_nom_184);}.cls-247,.cls-71{opacity:0.96;}.cls-71{fill:url(#Dégradé_sans_nom_185);}.cls-248,.cls-72{opacity:0.97;}.cls-72{fill:url(#Dégradé_sans_nom_186);}.cls-249,.cls-73{opacity:0.97;}.cls-73{fill:url(#Dégradé_sans_nom_187);}.cls-250,.cls-74{opacity:0.98;}.cls-74{fill:url(#Dégradé_sans_nom_188);}.cls-251,.cls-75{opacity:0.98;}.cls-75{fill:url(#Dégradé_sans_nom_189);}.cls-252,.cls-76{opacity:0.98;}.cls-76{fill:url(#Dégradé_sans_nom_190);}.cls-253,.cls-77{opacity:0.99;}.cls-77{fill:url(#Dégradé_sans_nom_191);}.cls-254,.cls-78{opacity:0.99;}.cls-78{fill:url(#Dégradé_sans_nom_192);}.cls-255,.cls-79{opacity:1;}.cls-79{fill:url(#Dégradé_sans_nom_193);}.cls-80{fill:#f9f9f9;}.cls-183,.cls-81{fill:#f2f2f2;}.cls-82{fill:#f0f0f0;opacity:0.21;}.cls-83{fill:#eee;opacity:0.22;}.cls-84{fill:#e8e8e9;opacity:0.26;}.cls-85{fill:#e6e7e7;opacity:0.27;}.cls-86{fill:#e2e3e3;opacity:0.29;}.cls-87{fill:#dfdfdf;opacity:0.32;}.cls-88{fill:#ddd;opacity:0.33;}.cls-129,.cls-89{opacity:0.9;}.cls-90{fill:#e0e1e1;}.cls-137,.cls-90{opacity:0.36;}.cls-91{fill:#dedfdf;}.cls-138,.cls-91{opacity:0.38;}.cls-92{fill:#dcdcdd;}.cls-139,.cls-92{opacity:0.39;}.cls-93{fill:#dadadb;}.cls-94{fill:#d7d8d9;}.cls-141,.cls-94{opacity:0.41;}.cls-95{fill:#d5d6d6;}.cls-142,.cls-95{opacity:0.42;}.cls-139,.cls-96{fill:#d3d4d4;}.cls-143,.cls-96{opacity:0.44;}.cls-140,.cls-97{fill:#d1d2d2;}.cls-144,.cls-97{opacity:0.45;}.cls-141,.cls-98{fill:#cfd0d0;}.cls-145,.cls-98{opacity:0.46;}.cls-99{fill:#cccdce;}.cls-146,.cls-99{opacity:0.47;}.cls-100{fill:#cacbcc;}.cls-100,.cls-147{opacity:0.48;}.cls-101{fill:#c8c9ca;}.cls-101,.cls-148{opacity:0.49;}.cls-102{fill:#c6c7c7;}.cls-102,.cls-149{opacity:0.51;}.cls-103{fill:#c4c5c5;}.cls-103,.cls-150{opacity:0.52;}.cls-104{fill:#c2c3c3;}.cls-104,.cls-151,.cls-177{opacity:0.53;}.cls-105{fill:#bfc0c1;}.cls-105,.cls-152{opacity:0.54;}.cls-106{fill:#bdbebf;}.cls-106,.cls-153{opacity:0.55;}.cls-107{fill:#bbbcbd;}.cls-107,.cls-154{opacity:0.56;}.cls-108{fill:#b9babb;}.cls-108,.cls-155{opacity:0.58;}.cls-109{fill:#b7b8b8;}.cls-109,.cls-156{opacity:0.59;}.cls-110{fill:#b4b6b6;}.cls-111{fill:#b2b4b4;}.cls-111,.cls-158{opacity:0.61;}.cls-112,.cls-157{fill:#b0b1b2;}.cls-112,.cls-159{opacity:0.62;}.cls-113,.cls-158{fill:#aeafb0;}.cls-113,.cls-160{opacity:0.64;}.cls-114,.cls-179{fill:#ccc;}.cls-114,.cls-161{opacity:0.65;}.cls-115{fill:#a9abac;}.cls-115,.cls-162{opacity:0.66;}.cls-116{fill:#a7a9aa;}.cls-116,.cls-163{opacity:0.67;}.cls-117{fill:#a5a7a7;}.cls-117,.cls-164{opacity:0.68;}.cls-118{fill:#a3a4a5;}.cls-118,.cls-165{opacity:0.69;}.cls-119{fill:#a1a2a3;}.cls-119,.cls-166{opacity:0.71;}.cls-120{fill:#9ea0a1;}.cls-120,.cls-167{opacity:0.72;}.cls-121{fill:#9c9e9f;}.cls-121,.cls-168{opacity:0.73;}.cls-122{fill:#9a9c9d;}.cls-122,.cls-169{opacity:0.74;}.cls-123{fill:#989a9b;}.cls-123,.cls-170{opacity:0.75;}.cls-124{fill:#969798;}.cls-124,.cls-171{opacity:0.76;}.cls-125{fill:#939596;opacity:0.78;}.cls-126{fill:#919394;opacity:0.79;}.cls-127{fill:#8f9192;}.cls-128{fill:url(#Dégradé_sans_nom_71);}.cls-129{fill:url(#Dégradé_sans_nom_72);}.cls-130{clip-path:url(#clip-path-6);}.cls-131{fill:#ececec;opacity:0.24;}.cls-132{fill:#eaeaea;opacity:0.25;}.cls-133{fill:#e4e5e5;opacity:0.28;}.cls-134{fill:#e1e1e1;opacity:0.31;}.cls-135{fill:#dbdbdb;opacity:0.34;}.cls-136{fill:#d9d9da;opacity:0.35;}.cls-137{fill:#d7d7d8;}.cls-138{fill:#d5d5d6;}.cls-142{fill:#cdcece;}.cls-143{fill:#cbcccc;}.cls-144{fill:#c9caca;}.cls-145{fill:#c7c8c9;}.cls-146{fill:#c5c6c7;}.cls-147{fill:#c3c4c5;}.cls-148{fill:#c1c2c3;}.cls-149{fill:#c0c1c1;}.cls-150{fill:#bebfbf;}.cls-151{fill:#bcbdbd;}.cls-152{fill:#babbbb;}.cls-153{fill:#b8b9ba;}.cls-154{fill:#b6b7b8;}.cls-155{fill:#b4b5b6;}.cls-156{fill:#b2b3b4;}.cls-159{fill:#acaeae;}.cls-160{fill:#aaacac;}.cls-161{fill:#a8aaaa;}.cls-162{fill:#a6a8a9;}.cls-163{fill:#a4a6a7;}.cls-164{fill:#a2a4a5;}.cls-165{fill:#a0a2a3;}.cls-166{fill:#9fa0a1;}.cls-167{fill:#9d9e9f;}.cls-168{fill:#9b9c9d;}.cls-169{fill:#999b9b;}.cls-170{fill:#97999a;}.cls-171{fill:#959798;}.cls-172,.cls-175,.cls-176,.cls-182{fill:#b3b3b3;}.cls-173{fill:url(#Dégradé_sans_nom_246);}.cls-174,.cls-177,.cls-180,.cls-264{fill:#999;}.cls-175{opacity:0.51;}.cls-176{opacity:0.52;}.cls-178,.cls-181{fill:gray;}.cls-178{opacity:0.54;}.cls-179{opacity:0.55;}.cls-180{opacity:0.56;}.cls-181{opacity:0.57;}.cls-184{fill:url(#Dégradé_sans_nom-4);}.cls-185{fill:url(#Dégradé_sans_nom_10-2);}.cls-186{fill:url(#Dégradé_sans_nom_127);}.cls-190{fill:url(#Dégradé_sans_nom_128);}.cls-191{fill:#777f7e;}.cls-192{fill:url(#Dégradé_sans_nom_130);}.cls-193{fill:url(#Dégradé_sans_nom_132);}.cls-194{fill:url(#Dégradé_sans_nom_130-2);}.cls-195{fill:url(#Dégradé_sans_nom_134);}.cls-196{fill:url(#Dégradé_sans_nom_12-3);}.cls-197{fill:url(#Dégradé_sans_nom_136-2);}.cls-198{fill:url(#Dégradé_sans_nom_12-4);}.cls-199{fill:url(#Dégradé_sans_nom_136-3);}.cls-200{clip-path:url(#clip-path-8);}.cls-201{fill:url(#Dégradé_sans_nom_139-5);}.cls-202{fill:url(#Dégradé_sans_nom_139-6);}.cls-203{fill:url(#Dégradé_sans_nom_139-7);}.cls-204{fill:url(#Dégradé_sans_nom_139-8);}.cls-205{fill:url(#Dégradé_sans_nom_143-2);}.cls-206{fill:url(#Dégradé_sans_nom_144-2);}.cls-207{fill:url(#Dégradé_sans_nom_145-2);}.cls-208{fill:url(#Dégradé_sans_nom_146-2);}.cls-209{fill:url(#Dégradé_sans_nom_147-2);}.cls-210{fill:url(#Dégradé_sans_nom_148-2);}.cls-211{fill:url(#Dégradé_sans_nom_149-2);}.cls-212{fill:url(#Dégradé_sans_nom_150-2);}.cls-213{fill:url(#Dégradé_sans_nom_151-2);}.cls-214{fill:url(#Dégradé_sans_nom_152-2);}.cls-215{fill:url(#Dégradé_sans_nom_153-2);}.cls-216{fill:url(#Dégradé_sans_nom_154-2);}.cls-217{fill:url(#Dégradé_sans_nom_155-2);}.cls-218{fill:url(#Dégradé_sans_nom_156-2);}.cls-219{fill:url(#Dégradé_sans_nom_157-2);}.cls-220{fill:url(#Dégradé_sans_nom_158-2);}.cls-221{fill:url(#Dégradé_sans_nom_159-2);}.cls-222{fill:url(#Dégradé_sans_nom_160-2);}.cls-223{fill:url(#Dégradé_sans_nom_161-2);}.cls-224{fill:url(#Dégradé_sans_nom_162-2);}.cls-225{fill:url(#Dégradé_sans_nom_163-2);}.cls-226{fill:url(#Dégradé_sans_nom_164-2);}.cls-227{fill:url(#Dégradé_sans_nom_165-2);}.cls-228{fill:url(#Dégradé_sans_nom_166-2);}.cls-229{fill:url(#Dégradé_sans_nom_167-2);}.cls-230{fill:url(#Dégradé_sans_nom_168-2);}.cls-231{fill:url(#Dégradé_sans_nom_169-2);}.cls-232{fill:url(#Dégradé_sans_nom_170-2);}.cls-233{fill:url(#Dégradé_sans_nom_171-2);}.cls-234{fill:url(#Dégradé_sans_nom_172-2);}.cls-235{fill:url(#Dégradé_sans_nom_173-2);}.cls-236{fill:url(#Dégradé_sans_nom_174-2);}.cls-237{fill:url(#Dégradé_sans_nom_175-2);}.cls-238{fill:url(#Dégradé_sans_nom_176-2);}.cls-239{fill:url(#Dégradé_sans_nom_177-2);}.cls-240{fill:url(#Dégradé_sans_nom_178-2);}.cls-241{fill:url(#Dégradé_sans_nom_179-2);}.cls-242{fill:url(#Dégradé_sans_nom_180-2);}.cls-243{fill:url(#Dégradé_sans_nom_181-2);}.cls-244{fill:url(#Dégradé_sans_nom_182-2);}.cls-245{fill:url(#Dégradé_sans_nom_183-2);}.cls-246{fill:url(#Dégradé_sans_nom_184-2);}.cls-247{fill:url(#Dégradé_sans_nom_185-2);}.cls-248{fill:url(#Dégradé_sans_nom_186-2);}.cls-249{fill:url(#Dégradé_sans_nom_187-2);}.cls-250{fill:url(#Dégradé_sans_nom_188-2);}.cls-251{fill:url(#Dégradé_sans_nom_189-2);}.cls-252{fill:url(#Dégradé_sans_nom_190-2);}.cls-253{fill:url(#Dégradé_sans_nom_191-2);}.cls-254{fill:url(#Dégradé_sans_nom_192-2);}.cls-255{fill:url(#Dégradé_sans_nom_193-2);}.cls-256{fill:#a3a3a3;}.cls-257{fill:url(#Dégradé_sans_nom_246-2);}.cls-258{clip-path:url(#clip-path-10);}.cls-259{fill-opacity:0;}.cls-260{opacity:0.04;fill:url(#Dégradé_sans_nom_247);}.cls-261{opacity:0.06;fill:url(#Dégradé_sans_nom_248);}.cls-262{opacity:0.08;fill:url(#Dégradé_sans_nom_249);}.cls-263{opacity:0.1;fill:url(#Dégradé_sans_nom_250);}.cls-264{opacity:0.12;}.cls-265{opacity:0.14;fill:url(#Dégradé_sans_nom_252);}.cls-266,.cls-267{fill:#fff;}.cls-266{opacity:0.16;}.cls-268,.cls-269,.cls-270,.cls-271,.cls-272,.cls-273,.cls-274,.cls-275,.cls-276{opacity:0.7;}.cls-269{fill:url(#Dégradé_sans_nom_253);}.cls-270{fill:url(#Dégradé_sans_nom_253-2);}.cls-271{fill:url(#Dégradé_sans_nom_253-3);}.cls-272{fill:url(#Dégradé_sans_nom_253-4);}.cls-273{fill:url(#Dégradé_sans_nom_253-5);}.cls-274{fill:url(#Dégradé_sans_nom_253-6);}.cls-275{fill:url(#Dégradé_sans_nom_253-7);}.cls-276{fill:url(#Dégradé_sans_nom_253-8);}</style><clipPath id="clip-path"><polygon class="cls-1" points="26.64 23.39 27.44 23.39 26.64 24.19 26.64 23.39"/></clipPath><linearGradient id="Dégradé_sans_nom" x1="74.14" y1="21.6" x2="74.14" y2="105.91" gradientTransform="matrix(1, 0, 0, -1, 0, 128)" gradientUnits="userSpaceOnUse"><stop offset="0" stop-color="#badcf5"/><stop offset="0.35" stop-color="#8dbce8"/><stop offset="1" stop-color="#317ccf"/></linearGradient><linearGradient id="Dégradé_sans_nom_2" x1="63.85" y1="17.16" x2="63.85" y2="107.29" gradientTransform="matrix(1, 0, 0, -1, 0, 128)" gradientUnits="userSpaceOnUse"><stop offset="0" stop-color="#eaeaea"/><stop offset="1" stop-color="#e6e6e6"/></linearGradient><linearGradient id="Dégradé_sans_nom_3" x1="63.9" y1="106.22" x2="63.9" y2="107.05" gradientTransform="matrix(1, 0, 0, -1, 0, 128)" gradientUnits="userSpaceOnUse"><stop offset="0" stop-color="#fff"/><stop offset="0.22" stop-color="#fcfcfc"/><stop offset="0.41" stop-color="#f1f1f1"/><stop offset="0.58" stop-color="#dfdfdf"/><stop offset="0.76" stop-color="#c6c6c6"/><stop offset="0.92" stop-color="#a6a6a6"/><stop offset="1" stop-color="#949494"/></linearGradient><linearGradient id="Dégradé_sans_nom_4" x1="64" y1="16.5" x2="64" y2="129.12" gradientTransform="matrix(1, 0, 0, -1, 0, 128)" gradientUnits="userSpaceOnUse"><stop offset="0" stop-color="#f8f8f8"/><stop offset="0.59" stop-color="#f2f2f2"/><stop offset="1" stop-color="#eaeaea"/></linearGradient><linearGradient id="Dégradé_sans_nom_5" x1="63.9" y1="7.82" x2="63.9" y2="99.5" gradientTransform="matrix(1, 0, 0, -1, 0, 128)" gradientUnits="userSpaceOnUse"><stop offset="0" stop-color="#e6e6e6"/><stop offset="1" stop-color="#d4d4d4"/></linearGradient><linearGradient id="Dégradé_sans_nom_6" x1="63.95" y1="19.29" x2="63.95" y2="107.51" gradientTransform="matrix(1, 0, 0, -1, 0, 128)" gradientUnits="userSpaceOnUse"><stop offset="0" stop-color="#f9f9f9"/><stop offset="1" stop-color="#e6e6e6"/></linearGradient><linearGradient id="Dégradé_sans_nom_3-2" x1="63.9" y1="107.12" x2="63.9" y2="108.25" xlink:href="#Dégradé_sans_nom_3"/><linearGradient id="Dégradé_sans_nom-2" x1="44.37" y1="24.91" x2="44.37" y2="105.92" xlink:href="#Dégradé_sans_nom"/><clipPath id="clip-path-3"><polygon class="cls-2" points="25.04 21.79 24.14 21.79 25.04 20.99 25.04 21.79"/></clipPath><linearGradient id="Dégradé_sans_nom_10" x1="22.03" y1="99.12" x2="42.82" y2="57.84" gradientTransform="matrix(1, 0, 0, -1, 0, 128)" gradientUnits="userSpaceOnUse"><stop offset="0" stop-color="#fff"/><stop offset="0.14" stop-color="#d6d6d6"/><stop offset="0.46" stop-color="#7c7c7c"/><stop offset="0.72" stop-color="#393939"/><stop offset="0.9" stop-color="#101010"/><stop offset="1"/></linearGradient><linearGradient id="Dégradé_sans_nom-3" x1="43.64" y1="77.05" x2="33.8" y2="7.11" gradientTransform="matrix(1, 0, 0, 1, 0, 0)" xlink:href="#Dégradé_sans_nom"/><linearGradient id="Dégradé_sans_nom_12" x1="59.38" y1="63.5" x2="63.91" y2="63.5" gradientTransform="matrix(1, 0, 0, -1, 0, 128)" gradientUnits="userSpaceOnUse"><stop offset="0" stop-color="#efefef"/><stop offset="0.13" stop-color="#fff"/><stop offset="0.86" stop-color="#f2f2f2"/><stop offset="0.93" stop-color="#fff"/><stop offset="0.96" stop-color="#efefef"/><stop offset="1" stop-color="#e7e7e7"/></linearGradient><linearGradient id="Dégradé_sans_nom_13" x1="43.52" y1="108.77" x2="43.52" y2="104.26" gradientTransform="matrix(1, 0, 0, -1, 0, 128)" gradientUnits="userSpaceOnUse"><stop offset="0" stop-color="#d2d2d2"/><stop offset="0.02" stop-color="#dadada"/><stop offset="0.05" stop-color="#eee"/><stop offset="0.07" stop-color="#fff"/><stop offset="0.14" stop-color="#f2f2f2"/><stop offset="0.94" stop-color="#fff"/><stop offset="0.95" stop-color="#fafafa"/><stop offset="1" stop-color="#d2d2d2"/></linearGradient><linearGradient id="Dégradé_sans_nom_12-2" x1="43.52" y1="22.67" x2="43.52" y2="18.16" xlink:href="#Dégradé_sans_nom_12"/><linearGradient id="Dégradé_sans_nom_136" x1="23.21" y1="63.5" x2="27.73" y2="63.5" gradientTransform="matrix(1, 0, 0, -1, 0, 128)" gradientUnits="userSpaceOnUse"><stop offset="0" stop-color="#e7e7e7"/><stop offset="0.04" stop-color="#efefef"/><stop offset="0.07" stop-color="#fff"/><stop offset="0.14" stop-color="#f2f2f2"/><stop offset="0.87" stop-color="#fff"/><stop offset="1" stop-color="#efefef"/></linearGradient><clipPath id="clip-path-4"><path class="cls-1" d="M23.19,19.19v90.62H64V19.19Zm36.16,86.12H27.69V23.79H59.35Z"/></clipPath><radialGradient id="Dégradé_sans_nom_139" cx="61.62" cy="20.44" r="2.37" gradientTransform="matrix(1, 0, 0, -1, 0, 128)" gradientUnits="userSpaceOnUse"><stop offset="0" stop-color="#d1d1d1"/><stop offset="1" stop-color="#dbdbdb"/></radialGradient><radialGradient id="Dégradé_sans_nom_139-2" cx="25.44" cy="20.44" r="2.37" xlink:href="#Dégradé_sans_nom_139"/><radialGradient id="Dégradé_sans_nom_139-3" cx="61.63" cy="106.5" r="2.37" xlink:href="#Dégradé_sans_nom_139"/><radialGradient id="Dégradé_sans_nom_139-4" cx="25.48" cy="106.5" r="2.38" xlink:href="#Dégradé_sans_nom_139"/><linearGradient id="Dégradé_sans_nom_143" x1="43.62" y1="21.79" x2="43.62" y2="104.6" gradientTransform="matrix(1, 0, 0, -1, 0, 128)" gradientUnits="userSpaceOnUse"><stop offset="0" stop-color="#afafaf"/><stop offset="1" stop-color="#424242"/></linearGradient><linearGradient id="Dégradé_sans_nom_144" x1="43.62" y1="21.79" x2="43.62" y2="104.57" gradientTransform="matrix(1, 0, 0, -1, 0, 128)" gradientUnits="userSpaceOnUse"><stop offset="0" stop-color="#b0b0b0"/><stop offset="1" stop-color="#464646"/></linearGradient><linearGradient id="Dégradé_sans_nom_145" x1="43.57" y1="21.79" x2="43.57" y2="104.54" gradientTransform="matrix(1, 0, 0, -1, 0, 128)" gradientUnits="userSpaceOnUse"><stop offset="0" stop-color="#b2b2b2"/><stop offset="1" stop-color="#494949"/></linearGradient><linearGradient id="Dégradé_sans_nom_146" x1="43.57" y1="21.79" x2="43.57" y2="104.51" gradientTransform="matrix(1, 0, 0, -1, 0, 128)" gradientUnits="userSpaceOnUse"><stop offset="0" stop-color="#b3b3b3"/><stop offset="1" stop-color="#4d4d4d"/></linearGradient><linearGradient id="Dégradé_sans_nom_147" x1="43.57" y1="21.79" x2="43.57" y2="104.48" gradientTransform="matrix(1, 0, 0, -1, 0, 128)" gradientUnits="userSpaceOnUse"><stop offset="0" stop-color="#b5b5b5"/><stop offset="1" stop-color="#505050"/></linearGradient><linearGradient id="Dégradé_sans_nom_148" x1="43.52" y1="21.79" x2="43.52" y2="104.44" gradientTransform="matrix(1, 0, 0, -1, 0, 128)" gradientUnits="userSpaceOnUse"><stop offset="0" stop-color="#b6b6b6"/><stop offset="1" stop-color="#545454"/></linearGradient><linearGradient id="Dégradé_sans_nom_149" x1="43.52" y1="21.79" x2="43.52" y2="104.41" gradientTransform="matrix(1, 0, 0, -1, 0, 128)" gradientUnits="userSpaceOnUse"><stop offset="0" stop-color="#b8b8b8"/><stop offset="1" stop-color="#585858"/></linearGradient><linearGradient id="Dégradé_sans_nom_150" x1="43.47" y1="21.69" x2="43.47" y2="104.28" gradientTransform="matrix(1, 0, 0, -1, 0, 128)" gradientUnits="userSpaceOnUse"><stop offset="0" stop-color="#b9b9b9"/><stop offset="1" stop-color="#5b5b5b"/></linearGradient><linearGradient id="Dégradé_sans_nom_151" x1="43.47" y1="21.79" x2="43.47" y2="104.35" gradientTransform="matrix(1, 0, 0, -1, 0, 128)" gradientUnits="userSpaceOnUse"><stop offset="0" stop-color="#bbb"/><stop offset="1" stop-color="#5f5f5f"/></linearGradient><linearGradient id="Dégradé_sans_nom_152" x1="43.47" y1="21.79" x2="43.47" y2="104.32" gradientTransform="matrix(1, 0, 0, -1, 0, 128)" gradientUnits="userSpaceOnUse"><stop offset="0" stop-color="#bcbcbc"/><stop offset="1" stop-color="#626262"/></linearGradient><linearGradient id="Dégradé_sans_nom_153" x1="43.57" y1="21.79" x2="43.57" y2="104.28" gradientTransform="matrix(1, 0, 0, -1, 0, 128)" gradientUnits="userSpaceOnUse"><stop offset="0" stop-color="#bebebe"/><stop offset="1" stop-color="#666"/></linearGradient><linearGradient id="Dégradé_sans_nom_154" x1="43.57" y1="21.89" x2="43.57" y2="104.35" gradientTransform="matrix(1, 0, 0, -1, 0, 128)" gradientUnits="userSpaceOnUse"><stop offset="0" stop-color="#bfbfbf"/><stop offset="1" stop-color="#696969"/></linearGradient><linearGradient id="Dégradé_sans_nom_155" x1="43.52" y1="21.79" x2="43.52" y2="104.22" gradientTransform="matrix(1, 0, 0, -1, 0, 128)" gradientUnits="userSpaceOnUse"><stop offset="0" stop-color="silver"/><stop offset="1" stop-color="#6d6d6d"/></linearGradient><linearGradient id="Dégradé_sans_nom_156" x1="43.52" y1="21.89" x2="43.52" y2="104.29" gradientTransform="matrix(1, 0, 0, -1, 0, 128)" gradientUnits="userSpaceOnUse"><stop offset="0" stop-color="#c2c2c2"/><stop offset="1" stop-color="#717171"/></linearGradient><linearGradient id="Dégradé_sans_nom_157" x1="43.52" y1="21.89" x2="43.52" y2="104.26" gradientTransform="matrix(1, 0, 0, -1, 0, 128)" gradientUnits="userSpaceOnUse"><stop offset="0" stop-color="#c3c3c3"/><stop offset="1" stop-color="#747474"/></linearGradient><linearGradient id="Dégradé_sans_nom_158" x1="43.57" y1="21.89" x2="43.57" y2="104.22" gradientTransform="matrix(1, 0, 0, -1, 0, 128)" gradientUnits="userSpaceOnUse"><stop offset="0" stop-color="#c5c5c5"/><stop offset="1" stop-color="#787878"/></linearGradient><linearGradient id="Dégradé_sans_nom_159" x1="43.57" y1="21.99" x2="43.57" y2="104.29" gradientTransform="matrix(1, 0, 0, -1, 0, 128)" gradientUnits="userSpaceOnUse"><stop offset="0" stop-color="#c6c6c6"/><stop offset="1" stop-color="#7b7b7b"/></linearGradient><linearGradient id="Dégradé_sans_nom_160" x1="43.52" y1="21.99" x2="43.52" y2="104.26" gradientTransform="matrix(1, 0, 0, -1, 0, 128)" gradientUnits="userSpaceOnUse"><stop offset="0" stop-color="#c8c8c8"/><stop offset="1" stop-color="#7f7f7f"/></linearGradient><linearGradient id="Dégradé_sans_nom_161" x1="43.52" y1="21.99" x2="43.52" y2="104.23" gradientTransform="matrix(1, 0, 0, -1, 0, 128)" gradientUnits="userSpaceOnUse"><stop offset="0" stop-color="#c9c9c9"/><stop offset="1" stop-color="#838383"/></linearGradient><linearGradient id="Dégradé_sans_nom_162" x1="43.52" y1="21.99" x2="43.52" y2="104.2" gradientTransform="matrix(1, 0, 0, -1, 0, 128)" gradientUnits="userSpaceOnUse"><stop offset="0" stop-color="#cbcbcb"/><stop offset="1" stop-color="#868686"/></linearGradient><linearGradient id="Dégradé_sans_nom_163" x1="43.57" y1="21.99" x2="43.57" y2="104.16" gradientTransform="matrix(1, 0, 0, -1, 0, 128)" gradientUnits="userSpaceOnUse"><stop offset="0" stop-color="#ccc"/><stop offset="1" stop-color="#8a8a8a"/></linearGradient><linearGradient id="Dégradé_sans_nom_164" x1="43.57" y1="22.09" x2="43.57" y2="104.23" gradientTransform="matrix(1, 0, 0, -1, 0, 128)" gradientUnits="userSpaceOnUse"><stop offset="0" stop-color="#cdcdcd"/><stop offset="1" stop-color="#8d8d8d"/></linearGradient><linearGradient id="Dégradé_sans_nom_165" x1="43.57" y1="22.09" x2="43.57" y2="104.2" gradientTransform="matrix(1, 0, 0, -1, 0, 128)" gradientUnits="userSpaceOnUse"><stop offset="0" stop-color="#cfcfcf"/><stop offset="1" stop-color="#919191"/></linearGradient><linearGradient id="Dégradé_sans_nom_166" x1="43.57" y1="22.09" x2="43.57" y2="104.17" gradientTransform="matrix(1, 0, 0, -1, 0, 128)" gradientUnits="userSpaceOnUse"><stop offset="0" stop-color="#d0d0d0"/><stop offset="1" stop-color="#959595"/></linearGradient><linearGradient id="Dégradé_sans_nom_167" x1="43.57" y1="22.09" x2="43.57" y2="104.14" gradientTransform="matrix(1, 0, 0, -1, 0, 128)" gradientUnits="userSpaceOnUse"><stop offset="0" stop-color="#d2d2d2"/><stop offset="1" stop-color="#989898"/></linearGradient><linearGradient id="Dégradé_sans_nom_168" x1="43.62" y1="22.09" x2="43.62" y2="104.1" gradientTransform="matrix(1, 0, 0, -1, 0, 128)" gradientUnits="userSpaceOnUse"><stop offset="0" stop-color="#d3d3d3"/><stop offset="1" stop-color="#9c9c9c"/></linearGradient><linearGradient id="Dégradé_sans_nom_169" x1="43.62" y1="22.19" x2="43.62" y2="104.17" gradientTransform="matrix(1, 0, 0, -1, 0, 128)" gradientUnits="userSpaceOnUse"><stop offset="0" stop-color="#d5d5d5"/><stop offset="1" stop-color="#9f9f9f"/></linearGradient><linearGradient id="Dégradé_sans_nom_170" x1="43.57" y1="22.19" x2="43.57" y2="104.14" gradientTransform="matrix(1, 0, 0, -1, 0, 128)" gradientUnits="userSpaceOnUse"><stop offset="0" stop-color="#d6d6d6"/><stop offset="1" stop-color="#a3a3a3"/></linearGradient><linearGradient id="Dégradé_sans_nom_171" x1="43.57" y1="22.19" x2="43.57" y2="104.11" gradientTransform="matrix(1, 0, 0, -1, 0, 128)" gradientUnits="userSpaceOnUse"><stop offset="0" stop-color="#d8d8d8"/><stop offset="1" stop-color="#a6a6a6"/></linearGradient><linearGradient id="Dégradé_sans_nom_172" x1="43.57" y1="22.19" x2="43.57" y2="104.08" gradientTransform="matrix(1, 0, 0, -1, 0, 128)" gradientUnits="userSpaceOnUse"><stop offset="0" stop-color="#d9d9d9"/><stop offset="1" stop-color="#aaa"/></linearGradient><linearGradient id="Dégradé_sans_nom_173" x1="43.52" y1="22.19" x2="43.52" y2="104.04" gradientTransform="matrix(1, 0, 0, -1, 0, 128)" gradientUnits="userSpaceOnUse"><stop offset="0" stop-color="#dbdbdb"/><stop offset="1" stop-color="#aeaeae"/></linearGradient><linearGradient id="Dégradé_sans_nom_174" x1="43.52" y1="22.19" x2="43.52" y2="104.01" gradientTransform="matrix(1, 0, 0, -1, 0, 128)" gradientUnits="userSpaceOnUse"><stop offset="0" stop-color="#dcdcdc"/><stop offset="1" stop-color="#b1b1b1"/></linearGradient><linearGradient id="Dégradé_sans_nom_175" x1="43.47" y1="22.19" x2="43.47" y2="103.98" gradientTransform="matrix(1, 0, 0, -1, 0, 128)" gradientUnits="userSpaceOnUse"><stop offset="0" stop-color="#ddd"/><stop offset="1" stop-color="#b5b5b5"/></linearGradient><linearGradient id="Dégradé_sans_nom_176" x1="43.47" y1="22.19" x2="43.47" y2="103.95" gradientTransform="matrix(1, 0, 0, -1, 0, 128)" gradientUnits="userSpaceOnUse"><stop offset="0" stop-color="#dfdfdf"/><stop offset="1" stop-color="#b8b8b8"/></linearGradient><linearGradient id="Dégradé_sans_nom_177" x1="43.47" y1="22.19" x2="43.47" y2="103.92" gradientTransform="matrix(1, 0, 0, -1, 0, 128)" gradientUnits="userSpaceOnUse"><stop offset="0" stop-color="#e0e0e0"/><stop offset="1" stop-color="#bcbcbc"/></linearGradient><linearGradient id="Dégradé_sans_nom_178" x1="43.57" y1="22.19" x2="43.57" y2="103.88" gradientTransform="matrix(1, 0, 0, -1, 0, 128)" gradientUnits="userSpaceOnUse"><stop offset="0" stop-color="#e2e2e2"/><stop offset="1" stop-color="silver"/></linearGradient><linearGradient id="Dégradé_sans_nom_179" x1="43.57" y1="22.29" x2="43.57" y2="103.95" gradientTransform="matrix(1, 0, 0, -1, 0, 128)" gradientUnits="userSpaceOnUse"><stop offset="0" stop-color="#e3e3e3"/><stop offset="1" stop-color="#c3c3c3"/></linearGradient><linearGradient id="Dégradé_sans_nom_180" x1="43.52" y1="22.29" x2="43.52" y2="103.92" gradientTransform="matrix(1, 0, 0, -1, 0, 128)" gradientUnits="userSpaceOnUse"><stop offset="0" stop-color="#e5e5e5"/><stop offset="1" stop-color="#c7c7c7"/></linearGradient><linearGradient id="Dégradé_sans_nom_181" x1="43.52" y1="22.29" x2="43.52" y2="103.89" gradientTransform="matrix(1, 0, 0, -1, 0, 128)" gradientUnits="userSpaceOnUse"><stop offset="0" stop-color="#e6e6e6"/><stop offset="1" stop-color="#cacaca"/></linearGradient><linearGradient id="Dégradé_sans_nom_182" x1="43.52" y1="22.29" x2="43.52" y2="103.86" gradientTransform="matrix(1, 0, 0, -1, 0, 128)" gradientUnits="userSpaceOnUse"><stop offset="0" stop-color="#e8e8e8"/><stop offset="1" stop-color="#cecece"/></linearGradient><linearGradient id="Dégradé_sans_nom_183" x1="43.57" y1="22.29" x2="43.57" y2="103.82" gradientTransform="matrix(1, 0, 0, -1, 0, 128)" gradientUnits="userSpaceOnUse"><stop offset="0" stop-color="#e9e9e9"/><stop offset="1" stop-color="#d2d2d2"/></linearGradient><linearGradient id="Dégradé_sans_nom_184" x1="43.57" y1="22.39" x2="43.57" y2="103.89" gradientTransform="matrix(1, 0, 0, -1, 0, 128)" gradientUnits="userSpaceOnUse"><stop offset="0" stop-color="#eaeaea"/><stop offset="1" stop-color="#d5d5d5"/></linearGradient><linearGradient id="Dégradé_sans_nom_185" x1="43.52" y1="22.39" x2="43.52" y2="103.86" gradientTransform="matrix(1, 0, 0, -1, 0, 128)" gradientUnits="userSpaceOnUse"><stop offset="0" stop-color="#ececec"/><stop offset="1" stop-color="#d9d9d9"/></linearGradient><linearGradient id="Dégradé_sans_nom_186" x1="43.52" y1="22.39" x2="43.52" y2="103.83" gradientTransform="matrix(1, 0, 0, -1, 0, 128)" gradientUnits="userSpaceOnUse"><stop offset="0" stop-color="#ededed"/><stop offset="1" stop-color="#dcdcdc"/></linearGradient><linearGradient id="Dégradé_sans_nom_187" x1="43.52" y1="22.39" x2="43.52" y2="103.8" gradientTransform="matrix(1, 0, 0, -1, 0, 128)" gradientUnits="userSpaceOnUse"><stop offset="0" stop-color="#efefef"/><stop offset="1" stop-color="#e0e0e0"/></linearGradient><linearGradient id="Dégradé_sans_nom_188" x1="43.57" y1="22.39" x2="43.57" y2="103.76" gradientTransform="matrix(1, 0, 0, -1, 0, 128)" gradientUnits="userSpaceOnUse"><stop offset="0" stop-color="#f0f0f0"/><stop offset="1" stop-color="#e3e3e3"/></linearGradient><linearGradient id="Dégradé_sans_nom_189" x1="43.57" y1="22.48" x2="43.57" y2="103.82" gradientTransform="matrix(1, 0, 0, -1, 0, 128)" gradientUnits="userSpaceOnUse"><stop offset="0" stop-color="#f2f2f2"/><stop offset="1" stop-color="#e7e7e7"/></linearGradient><linearGradient id="Dégradé_sans_nom_190" x1="43.52" y1="22.48" x2="43.52" y2="103.79" gradientTransform="matrix(1, 0, 0, -1, 0, 128)" gradientUnits="userSpaceOnUse"><stop offset="0" stop-color="#f3f3f3"/><stop offset="1" stop-color="#ebebeb"/></linearGradient><linearGradient id="Dégradé_sans_nom_191" x1="43.52" y1="22.49" x2="43.52" y2="103.77" gradientTransform="matrix(1, 0, 0, -1, 0, 128)" gradientUnits="userSpaceOnUse"><stop offset="0" stop-color="#f5f5f5"/><stop offset="1" stop-color="#eee"/></linearGradient><linearGradient id="Dégradé_sans_nom_192" x1="43.52" y1="22.49" x2="43.52" y2="103.74" gradientTransform="matrix(1, 0, 0, -1, 0, 128)" gradientUnits="userSpaceOnUse"><stop offset="0" stop-color="#f6f6f6"/><stop offset="1" stop-color="#f2f2f2"/></linearGradient><linearGradient id="Dégradé_sans_nom_193" x1="43.62" y1="22.49" x2="43.62" y2="103.7" gradientTransform="matrix(1, 0, 0, -1, 0, 128)" gradientUnits="userSpaceOnUse"><stop offset="0" stop-color="#f8f8f8"/><stop offset="1" stop-color="#f5f5f5"/></linearGradient><linearGradient id="Dégradé_sans_nom_71" x1="62.01" y1="63.55" x2="62.01" y2="68.07" gradientTransform="matrix(1, 0, 0, -1, 0, 128)" gradientUnits="userSpaceOnUse"><stop offset="0" stop-color="#c7c7c7"/><stop offset="0.42" stop-color="#d8d8d8"/><stop offset="1" stop-color="#eaeaea"/></linearGradient><linearGradient id="Dégradé_sans_nom_72" x1="61.95" y1="64.56" x2="61.95" y2="67.86" gradientTransform="matrix(1, 0, 0, -1, 0, 128)" gradientUnits="userSpaceOnUse"><stop offset="0.33" stop-color="#dedede"/><stop offset="1" stop-color="#fff"/></linearGradient><clipPath id="clip-path-6"><path class="cls-1" d="M63,64.45h-1.9a.43.43,0,0,1-.4-.4v-3.8a.43.43,0,0,1,.4-.4H63a.43.43,0,0,1,.4.4V64A.4.4,0,0,1,63,64.45Z"/></clipPath><linearGradient id="Dégradé_sans_nom_246" x1="61.97" y1="57.98" x2="61.97" y2="66.55" gradientTransform="matrix(1, 0, 0, -1, 0, 128)" gradientUnits="userSpaceOnUse"><stop offset="0" stop-color="#c2c2c2"/><stop offset="0.66" stop-color="#c7c7c7"/><stop offset="1" stop-color="#ccc"/></linearGradient><linearGradient id="Dégradé_sans_nom-4" x1="95.47" y1="21.02" x2="95.47" y2="110.91" xlink:href="#Dégradé_sans_nom"/><linearGradient id="Dégradé_sans_nom_10-2" x1="89.73" y1="107.88" x2="93.2" y2="40.46" xlink:href="#Dégradé_sans_nom_10"/><linearGradient id="Dégradé_sans_nom_127" x1="87.1" y1="159.01" x2="95.78" y2="-9.67" gradientTransform="matrix(1, 0, 0, -1, 0, 128)" gradientUnits="userSpaceOnUse"><stop offset="0" stop-color="#badcf5"/><stop offset="0.35" stop-color="#8dbce8"/><stop offset="1" stop-color="#a7dcf8"/></linearGradient><linearGradient id="Dégradé_sans_nom_128" x1="98.23" y1="100.72" x2="104.37" y2="29.04" gradientTransform="matrix(1, 0, 0, -1, 0, 128)" gradientUnits="userSpaceOnUse"><stop offset="0" stop-color="#e6e8e8"/><stop offset="0.42" stop-color="#ebf0f0"/><stop offset="0.46" stop-color="#bcc1c1"/><stop offset="0.64" stop-color="#bcc1c1"/><stop offset="0.65" stop-color="#c5caca"/><stop offset="0.67" stop-color="#ebf0f0"/><stop offset="1" stop-color="#bcc1c1"/></linearGradient><linearGradient id="Dégradé_sans_nom_130" x1="85.23" y1="12.63" x2="85.23" y2="114.8" gradientTransform="matrix(1, 0, 0, -1, 0, 128)" gradientUnits="userSpaceOnUse"><stop offset="0" stop-color="#c1c1c1"/><stop offset="0.77" stop-color="#e1e1e1"/><stop offset="1" stop-color="#ebebeb"/></linearGradient><linearGradient id="Dégradé_sans_nom_132" x1="84.5" y1="63.6" x2="85.4" y2="63.6" gradientTransform="matrix(1, 0, 0, -1, 0, 128)" gradientUnits="userSpaceOnUse"><stop offset="0" stop-color="#fff"/><stop offset="0.14" stop-color="#fafafa"/><stop offset="0.29" stop-color="#ededed"/><stop offset="0.45" stop-color="#d6d6d6"/><stop offset="0.61" stop-color="#b6b6b6"/><stop offset="0.78" stop-color="#8d8d8d"/><stop offset="0.95" stop-color="#5c5c5c"/><stop offset="1" stop-color="#4d4d4d"/></linearGradient><linearGradient id="Dégradé_sans_nom_130-2" x1="85.93" y1="11.92" x2="85.93" y2="115.38" xlink:href="#Dégradé_sans_nom_130"/><linearGradient id="Dégradé_sans_nom_134" x1="95.77" y1="105.79" x2="95.77" y2="52.18" gradientTransform="matrix(1, 0, 0, -1, 0, 128)" gradientUnits="userSpaceOnUse"><stop offset="0" stop-color="#acacac"/><stop offset="0.32" stop-color="#bfbfbf"/><stop offset="0.67" stop-color="#ccc"/><stop offset="1" stop-color="#d0d0d0"/></linearGradient><linearGradient id="Dégradé_sans_nom_12-3" x1="102.75" y1="63.5" x2="104.6" y2="63.5" xlink:href="#Dégradé_sans_nom_12"/><linearGradient id="Dégradé_sans_nom_136-2" x1="95.5" y1="111.51" x2="94.22" y2="106.99" xlink:href="#Dégradé_sans_nom_136"/><linearGradient id="Dégradé_sans_nom_12-4" x1="94.2" y1="20.21" x2="95.44" y2="15.73" xlink:href="#Dégradé_sans_nom_12"/><linearGradient id="Dégradé_sans_nom_136-3" x1="86.3" y1="63.55" x2="88.52" y2="63.55" xlink:href="#Dégradé_sans_nom_136"/><clipPath id="clip-path-8"><path class="cls-1" d="M86.33,14V115l18.28-5.19V19.19Zm16.38,91.81-14.18,3.7V19.59l14.18,3.7Z"/></clipPath><radialGradient id="Dégradé_sans_nom_139-5" cx="199.72" cy="20.25" r="2.13" gradientTransform="matrix(0.45, 0, 0, -1, 14.09, 128)" xlink:href="#Dégradé_sans_nom_139"/><radialGradient id="Dégradé_sans_nom_139-6" cx="163.56" cy="15.87" r="2.78" gradientTransform="matrix(0.45, 0, 0, -1, 14.09, 128)" xlink:href="#Dégradé_sans_nom_139"/><radialGradient id="Dégradé_sans_nom_139-7" cx="199.73" cy="106.79" r="2.14" gradientTransform="matrix(0.45, 0, 0, -1, 14.09, 128)" xlink:href="#Dégradé_sans_nom_139"/><radialGradient id="Dégradé_sans_nom_139-8" cx="163.6" cy="111.17" r="2.78" gradientTransform="matrix(0.45, 0, 0, -1, 14.09, 128)" xlink:href="#Dégradé_sans_nom_139"/><linearGradient id="Dégradé_sans_nom_143-2" x1="95.57" y1="17.5" x2="95.57" y2="108.84" xlink:href="#Dégradé_sans_nom_143"/><linearGradient id="Dégradé_sans_nom_144-2" x1="95.57" y1="17.5" x2="95.57" y2="108.8" xlink:href="#Dégradé_sans_nom_144"/><linearGradient id="Dégradé_sans_nom_145-2" x1="95.67" y1="17.5" x2="95.67" y2="108.76" xlink:href="#Dégradé_sans_nom_145"/><linearGradient id="Dégradé_sans_nom_146-2" x1="95.62" y1="17.5" x2="95.62" y2="108.73" xlink:href="#Dégradé_sans_nom_146"/><linearGradient id="Dégradé_sans_nom_147-2" x1="95.62" y1="17.5" x2="95.62" y2="108.69" xlink:href="#Dégradé_sans_nom_147"/><linearGradient id="Dégradé_sans_nom_148-2" x1="95.62" y1="17.5" x2="95.62" y2="108.65" xlink:href="#Dégradé_sans_nom_148"/><linearGradient id="Dégradé_sans_nom_149-2" x1="95.62" y1="17.5" x2="95.62" y2="108.61" xlink:href="#Dégradé_sans_nom_149"/><linearGradient id="Dégradé_sans_nom_150-2" x1="95.62" y1="17.6" x2="95.62" y2="108.67" xlink:href="#Dégradé_sans_nom_150"/><linearGradient id="Dégradé_sans_nom_151-2" x1="95.62" y1="17.6" x2="95.62" y2="108.63" xlink:href="#Dégradé_sans_nom_151"/><linearGradient id="Dégradé_sans_nom_152-2" x1="95.57" y1="17.6" x2="95.57" y2="108.59" xlink:href="#Dégradé_sans_nom_152"/><linearGradient id="Dégradé_sans_nom_153-2" x1="95.57" y1="17.6" x2="95.57" y2="108.55" xlink:href="#Dégradé_sans_nom_153"/><linearGradient id="Dégradé_sans_nom_154-2" x1="95.57" y1="17.7" x2="95.57" y2="108.61" xlink:href="#Dégradé_sans_nom_154"/><linearGradient id="Dégradé_sans_nom_155-2" x1="95.57" y1="17.7" x2="95.57" y2="108.57" xlink:href="#Dégradé_sans_nom_155"/><linearGradient id="Dégradé_sans_nom_156-2" x1="95.67" y1="17.7" x2="95.67" y2="108.53" xlink:href="#Dégradé_sans_nom_156"/><linearGradient id="Dégradé_sans_nom_157-2" x1="95.67" y1="17.7" x2="95.67" y2="108.49" xlink:href="#Dégradé_sans_nom_157"/><linearGradient id="Dégradé_sans_nom_158-2" x1="95.67" y1="17.8" x2="95.67" y2="108.55" xlink:href="#Dégradé_sans_nom_158"/><linearGradient id="Dégradé_sans_nom_159-2" x1="95.67" y1="17.8" x2="95.67" y2="108.51" xlink:href="#Dégradé_sans_nom_159"/><linearGradient id="Dégradé_sans_nom_160-2" x1="95.67" y1="17.8" x2="95.67" y2="108.47" xlink:href="#Dégradé_sans_nom_160"/><linearGradient id="Dégradé_sans_nom_161-2" x1="95.67" y1="17.8" x2="95.67" y2="108.44" xlink:href="#Dégradé_sans_nom_161"/><linearGradient id="Dégradé_sans_nom_162-2" x1="95.67" y1="17.9" x2="95.67" y2="108.5" xlink:href="#Dégradé_sans_nom_162"/><linearGradient id="Dégradé_sans_nom_163-2" x1="95.62" y1="17.9" x2="95.62" y2="108.46" xlink:href="#Dégradé_sans_nom_163"/><linearGradient id="Dégradé_sans_nom_164-2" x1="95.62" y1="17.9" x2="95.62" y2="108.42" xlink:href="#Dégradé_sans_nom_164"/><linearGradient id="Dégradé_sans_nom_165-2" x1="95.62" y1="17.9" x2="95.62" y2="108.38" xlink:href="#Dégradé_sans_nom_165"/><linearGradient id="Dégradé_sans_nom_166-2" x1="95.72" y1="17.9" x2="95.72" y2="108.34" xlink:href="#Dégradé_sans_nom_166"/><linearGradient id="Dégradé_sans_nom_167-2" x1="95.72" y1="17.9" x2="95.72" y2="108.3" xlink:href="#Dégradé_sans_nom_167"/><linearGradient id="Dégradé_sans_nom_168-2" x1="95.72" y1="17.9" x2="95.72" y2="108.26" xlink:href="#Dégradé_sans_nom_168"/><linearGradient id="Dégradé_sans_nom_169-2" x1="95.67" y1="17.9" x2="95.67" y2="108.22" xlink:href="#Dégradé_sans_nom_169"/><linearGradient id="Dégradé_sans_nom_170-2" x1="95.67" y1="18" x2="95.67" y2="108.28" xlink:href="#Dégradé_sans_nom_170"/><linearGradient id="Dégradé_sans_nom_171-2" x1="95.67" y1="18" x2="95.67" y2="108.24" xlink:href="#Dégradé_sans_nom_171"/><linearGradient id="Dégradé_sans_nom_172-2" x1="95.67" y1="18" x2="95.67" y2="108.2" xlink:href="#Dégradé_sans_nom_172"/><linearGradient id="Dégradé_sans_nom_173-2" x1="95.67" y1="18" x2="95.67" y2="108.16" xlink:href="#Dégradé_sans_nom_173"/><linearGradient id="Dégradé_sans_nom_174-2" x1="95.62" y1="18.09" x2="95.62" y2="108.22" xlink:href="#Dégradé_sans_nom_174"/><linearGradient id="Dégradé_sans_nom_175-2" x1="95.62" y1="18.09" x2="95.62" y2="108.19" xlink:href="#Dégradé_sans_nom_175"/><linearGradient id="Dégradé_sans_nom_176-2" x1="95.72" y1="18.09" x2="95.72" y2="108.15" xlink:href="#Dégradé_sans_nom_176"/><linearGradient id="Dégradé_sans_nom_177-2" x1="95.72" y1="18.09" x2="95.72" y2="108.11" xlink:href="#Dégradé_sans_nom_177"/><linearGradient id="Dégradé_sans_nom_178-2" x1="95.72" y1="18.19" x2="95.72" y2="108.17" xlink:href="#Dégradé_sans_nom_178"/><linearGradient id="Dégradé_sans_nom_179-2" x1="95.72" y1="18.19" x2="95.72" y2="108.13" xlink:href="#Dégradé_sans_nom_179"/><linearGradient id="Dégradé_sans_nom_180-2" x1="95.67" y1="18.19" x2="95.67" y2="108.09" xlink:href="#Dégradé_sans_nom_180"/><linearGradient id="Dégradé_sans_nom_181-2" x1="95.67" y1="18.19" x2="95.67" y2="108.05" xlink:href="#Dégradé_sans_nom_181"/><linearGradient id="Dégradé_sans_nom_182-2" x1="95.67" y1="18.19" x2="95.67" y2="108.01" xlink:href="#Dégradé_sans_nom_182"/><linearGradient id="Dégradé_sans_nom_183-2" x1="95.67" y1="18.29" x2="95.67" y2="108.07" xlink:href="#Dégradé_sans_nom_183"/><linearGradient id="Dégradé_sans_nom_184-2" x1="95.67" y1="18.29" x2="95.67" y2="108.03" xlink:href="#Dégradé_sans_nom_184"/><linearGradient id="Dégradé_sans_nom_185-2" x1="95.67" y1="18.29" x2="95.67" y2="107.99" xlink:href="#Dégradé_sans_nom_185"/><linearGradient id="Dégradé_sans_nom_186-2" x1="95.62" y1="18.29" x2="95.62" y2="107.95" xlink:href="#Dégradé_sans_nom_186"/><linearGradient id="Dégradé_sans_nom_187-2" x1="95.62" y1="18.29" x2="95.62" y2="107.91" xlink:href="#Dégradé_sans_nom_187"/><linearGradient id="Dégradé_sans_nom_188-2" x1="95.62" y1="18.29" x2="95.62" y2="107.87" xlink:href="#Dégradé_sans_nom_188"/><linearGradient id="Dégradé_sans_nom_189-2" x1="95.62" y1="18.29" x2="95.62" y2="107.84" xlink:href="#Dégradé_sans_nom_189"/><linearGradient id="Dégradé_sans_nom_190-2" x1="95.62" y1="18.29" x2="95.62" y2="107.8" xlink:href="#Dégradé_sans_nom_190"/><linearGradient id="Dégradé_sans_nom_191-2" x1="95.62" y1="18.39" x2="95.62" y2="107.86" xlink:href="#Dégradé_sans_nom_191"/><linearGradient id="Dégradé_sans_nom_192-2" x1="95.62" y1="18.39" x2="95.62" y2="107.82" xlink:href="#Dégradé_sans_nom_192"/><linearGradient id="Dégradé_sans_nom_193-2" x1="95.62" y1="18.39" x2="95.62" y2="107.78" xlink:href="#Dégradé_sans_nom_193"/><linearGradient id="Dégradé_sans_nom_246-2" x1="89.64" y1="55.97" x2="89.64" y2="65.38" xlink:href="#Dégradé_sans_nom_246"/><clipPath id="clip-path-10"><path class="cls-1" d="M89.42,63.75c.7.2.9,1,1,1.7.2,1.9.2,4.49.2,6.49a.48.48,0,0,0,.9.2c.4-.8.6-8.59,0-9.59-.3-.5-1.5-1.2-3.69-1.1-.6,0-.6,2.4.1,2.4C88.43,63.85,89.13,63.75,89.42,63.75Z"/></clipPath><linearGradient id="Dégradé_sans_nom_247" x1="89.92" y1="55.29" x2="89.92" y2="66.57" gradientTransform="matrix(1, 0, 0, -1, 0, 128)" gradientUnits="userSpaceOnUse"><stop offset="0" stop-color="#030303"/><stop offset="0.72" stop-color="#060606"/><stop offset="1" stop-color="#0a0a0a"/></linearGradient><linearGradient id="Dégradé_sans_nom_248" x1="89.92" y1="55.31" x2="89.92" y2="66.56" gradientTransform="matrix(1, 0, 0, -1, 0, 128)" gradientUnits="userSpaceOnUse"><stop offset="0" stop-color="#050505"/><stop offset="0.62" stop-color="#080808"/><stop offset="1" stop-color="#0f0f0f"/></linearGradient><linearGradient id="Dégradé_sans_nom_249" x1="89.9" y1="55.32" x2="89.9" y2="66.55" gradientTransform="matrix(1, 0, 0, -1, 0, 128)" gradientUnits="userSpaceOnUse"><stop offset="0" stop-color="#070707"/><stop offset="0.56" stop-color="#0a0a0a"/><stop offset="1" stop-color="#141414"/></linearGradient><linearGradient id="Dégradé_sans_nom_250" x1="89.88" y1="55.32" x2="89.88" y2="66.53" gradientTransform="matrix(1, 0, 0, -1, 0, 128)" gradientUnits="userSpaceOnUse"><stop offset="0" stop-color="#080808"/><stop offset="0.5" stop-color="#0b0b0b"/><stop offset="0.9" stop-color="#151515"/><stop offset="1" stop-color="#191919"/></linearGradient><linearGradient id="Dégradé_sans_nom_252" x1="89.98" y1="55.36" x2="89.98" y2="66.52" gradientTransform="matrix(1, 0, 0, -1, 0, 128)" gradientUnits="userSpaceOnUse"><stop offset="0" stop-color="#0c0c0c"/><stop offset="0.44" stop-color="#0f0f0f"/><stop offset="0.79" stop-color="#191919"/><stop offset="1" stop-color="#232323"/></linearGradient><linearGradient id="Dégradé_sans_nom_253" x1="105.24" y1="104.7" x2="105.87" y2="104.7" gradientUnits="userSpaceOnUse"><stop offset="0" stop-color="#cecece"/><stop offset="0.27" stop-color="#b5b3c0"/><stop offset="0.75" stop-color="#fff"/><stop offset="1" stop-color="#7a7a7a"/><stop offset="1" stop-color="#f5f5f5"/></linearGradient><linearGradient id="Dégradé_sans_nom_253-2" x1="105.21" y1="102.23" x2="105.97" y2="102.25" xlink:href="#Dégradé_sans_nom_253"/><linearGradient id="Dégradé_sans_nom_253-3" x1="21.87" y1="104.7" x2="22.5" y2="104.7" xlink:href="#Dégradé_sans_nom_253"/><linearGradient id="Dégradé_sans_nom_253-4" x1="21.84" y1="102.23" x2="22.6" y2="102.25" xlink:href="#Dégradé_sans_nom_253"/><linearGradient id="Dégradé_sans_nom_253-5" x1="105.24" y1="26.38" x2="105.87" y2="26.38" xlink:href="#Dégradé_sans_nom_253"/><linearGradient id="Dégradé_sans_nom_253-6" x1="105.21" y1="23.91" x2="105.97" y2="23.93" xlink:href="#Dégradé_sans_nom_253"/><linearGradient id="Dégradé_sans_nom_253-7" x1="21.87" y1="26.38" x2="22.5" y2="26.38" xlink:href="#Dégradé_sans_nom_253"/><linearGradient id="Dégradé_sans_nom_253-8" x1="21.84" y1="23.91" x2="22.6" y2="23.93" xlink:href="#Dégradé_sans_nom_253"/></defs><title>Plan de travail 1</title><rect class="cls-3" x="55.86" y="20.99" width="36.56" height="87.11"/><path class="cls-4" d="M22.49,18.8v91.7h82.72V18.8H22.49Zm79.62,88.51H25.79V22h76.32v85.32C102.21,107.21,102.21,107.31,102.11,107.31Z"/><rect class="cls-5" x="23.89" y="20.89" width="80.02" height="0.9"/><path class="cls-6" d="M21.49,17.7v93.8h85V17.7Zm81.62,90.51H24.79V21h78.42l-.1,87.22Z"/><path class="cls-7" d="M23.89,109.51h80V19.69h-80ZM24.79,21h78.42v87.22H24.79Z"/><path class="cls-8" d="M24.39,108.71h79.12V20.49H24.39ZM24.79,21h78.42v87.22H24.79Z"/><g class="cls-9"><path class="cls-10" d="M103.51,20.59v88h-79v-88Zm0-.1H24.39v88.12h79.12V20.49Z"/></g><g class="cls-11"><path class="cls-10" d="M103.91,19.79v89.52H24V19.79Zm.1-.1H23.89v89.72h80l.1-89.72Z"/></g><rect class="cls-12" x="23.89" y="19.69" width="80.02" height="1.1"/><rect class="cls-13" x="26.79" y="22.59" width="35.17" height="83.72"/><path class="cls-14" d="M23.79,19.89v89.42H63.45V19.89ZM59,104.81H28.09V24.39H58.86v80.42Z"/><g class="cls-15"><polygon class="cls-16" points="26.19 23.09 26.19 105.71 31.08 105.71 53.66 23.09 26.19 23.09"/></g><polygon class="cls-17" points="28.09 24.29 28.09 104.71 32.98 104.71 55.66 24.29 28.09 24.29"/><polygon class="cls-18" points="63.85 109.81 63.85 19.2 63.85 19.2 59.35 23.79 59.35 23.79 59.35 105.31 63.85 109.81"/><polygon class="cls-19" points="27.69 23.79 59.35 23.79 63.85 19.2 23.19 19.2 23.19 19.2 27.69 23.79"/><polygon class="cls-20" points="59.35 105.31 59.35 105.31 27.69 105.31 27.69 105.31 23.19 109.81 23.19 109.81 63.85 109.81 63.85 109.81 59.35 105.31"/><polygon class="cls-21" points="23.19 19.2 23.19 109.81 27.69 105.31 27.69 23.79 27.69 23.79 23.19 19.2"/><g class="cls-22"><g class="cls-23"><path class="cls-24" d="M61.65,107.51c-.6-.6-1.2-1.1-1.6-1.6a3.57,3.57,0,0,1-.7-.7l.7.7a8,8,0,0,0,1.6,1.6c.6.6,1.1,1.2,1.6,1.6a3.57,3.57,0,0,1,.7.7l-.7-.7Z"/><path class="cls-25" d="M25.49,107.51l-1.6,1.6a3.57,3.57,0,0,1-.7.7l.7-.7a11.86,11.86,0,0,0,1.6-1.6c.6-.6,1.2-1.1,1.7-1.6a3.57,3.57,0,0,1,.7-.7l-.7.7A12.88,12.88,0,0,0,25.49,107.51Z"/><path class="cls-26" d="M61.65,21.49l1.6-1.6.7-.7-.7.7c-.4.4-1.1,1-1.6,1.6s-1.2,1.1-1.7,1.6a3.57,3.57,0,0,1-.7.7l.7-.7C60.45,22.69,61.05,22.09,61.65,21.49Z"/><path class="cls-27" d="M25.49,21.49l-1.6-1.6a3.57,3.57,0,0,1-.7-.7s.2.2.6.7,1.1,1,1.7,1.6,1.1,1.2,1.6,1.7a3.57,3.57,0,0,1,.7.7l-.7-.7A12.48,12.48,0,0,0,25.49,21.49Z"/></g></g><g class="cls-22"><g class="cls-28"><path class="cls-29" d="M56.66,102.11H30.48V26.89H56.66ZM26.79,22.69v83.52H60.45V22.69Z"/><path class="cls-30" d="M30.38,102.11V26.89H56.66v75.22Zm-3.59,4.1V22.69H60.45v83.52Z"/><path class="cls-31" d="M30.38,102.21V26.89H56.66v75.32Zm-3.59,4V22.69H60.35v83.52Z"/><path class="cls-32" d="M30.38,102.21V26.89H56.66v75.32Zm-3.59,4V22.79H60.35v83.42Z"/><path class="cls-33" d="M30.38,102.21V26.89H56.76v75.32Zm-3.59,4V22.79H60.35v83.42Z"/><path class="cls-34" d="M30.38,102.21V26.79H56.76v75.42Zm-3.59,4V22.79H60.25v83.42Z"/><path class="cls-35" d="M30.28,102.21V26.79H56.76v75.42Zm-3.49,4V22.79H60.25v83.42Z"/><path class="cls-36" d="M30.28,102.31V26.79H56.76v75.52Zm-3.49,3.9V22.89H60.15v83.42l-33.36-.1Z"/><path class="cls-37" d="M30.28,102.31V26.79H56.76v75.52Zm-3.49,3.9V22.89H60.15v83.32Z"/><path class="cls-38" d="M30.28,102.31V26.79H56.76v75.52Zm-3.49,3.9V22.89H60.15v83.32Z"/><path class="cls-39" d="M30.28,102.31V26.69H56.76v75.62Zm-3.39,3.9V22.89H60.25v83.22l-33.36.1Z"/><path class="cls-40" d="M30.28,102.31V26.69H56.76v75.62Zm-3.39,3.8V22.89H60.25v83.22Z"/><path class="cls-41" d="M30.28,102.31V26.69H56.86v75.62Zm-3.39,3.8V23H60.15v83.22l-33.26-.1Z"/><path class="cls-42" d="M30.28,102.31V26.69H56.86v75.62Zm-3.39,3.8V23H60.15v83.12Z"/><path class="cls-43" d="M30.28,102.31V26.69H57v75.62Zm-3.39,3.8V23H60.15v83.12Z"/><path class="cls-44" d="M30.28,102.31V26.59H57v75.72ZM27,106.11V23H60.15v83.12Z"/><path class="cls-45" d="M30.28,102.31V26.59H57v75.72ZM27,106V23H60.15v83Z"/><path class="cls-46" d="M30.18,102.41V26.59H57v75.82ZM27,106V23H60.05v83Z"/><path class="cls-47" d="M30.18,102.41V26.59H57v75.82ZM27,106V23.09H60.05V106Z"/><path class="cls-48" d="M30.18,102.41V26.59H57.06v75.82ZM27,106V23.09H60.05V106Z"/><path class="cls-49" d="M30.18,102.41V26.49H57.06v75.92ZM27.09,106V23.09h33V106Z"/><path class="cls-50" d="M30.18,102.41V26.49H57.06v75.92Zm-3.09,3.5V23h33v82.92Z"/><path class="cls-51" d="M30.08,102.51v-76h27v76Zm-3,3.4V23h33v82.92Z"/><path class="cls-52" d="M30.08,102.51v-76h27v76Zm-3,3.4V23.09h33v82.82Z"/><path class="cls-53" d="M30.08,102.51v-76h27v76Zm-3,3.4V23.09h33v82.82Z"/><path class="cls-54" d="M30.08,102.51v-76h27v76Zm-2.89,3.4V23.09H60.05v82.82Z"/><path class="cls-55" d="M30.08,102.51v-76h27v76Zm-2.89,3.3V23.09H60.05v82.72Z"/><path class="cls-56" d="M30,102.61V26.49H57.06v76.12Zm-2.79,3.2V23.09H60v82.72Z"/><path class="cls-57" d="M30,102.61V26.49H57.06v76.12Zm-2.79,3.2V23.19H60v82.62Z"/><path class="cls-58" d="M30,102.61V26.49H57.16v76.12Zm-2.79,3.2V23.19H60v82.62Z"/><path class="cls-59" d="M30,102.61V26.39H57.16v76.22Zm-2.79,3.2V23.19H59.85v82.62Z"/><path class="cls-60" d="M30,102.61V26.39H57.16v76.22Zm-2.79,3.2V23.19H59.85v82.52l-32.66.1Z"/><path class="cls-61" d="M29.88,102.71V26.39H57.16v76.32Zm-2.69,3.1V23.19H59.75v82.52l-32.56.1Z"/><path class="cls-62" d="M29.88,102.71V26.39H57.16v76.32Zm-2.69,3.1V23.29H59.75v82.52Z"/><path class="cls-63" d="M29.88,102.71V26.39H57.26v76.32Zm-2.69,3.1V23.29H59.75v82.52Z"/><path class="cls-64" d="M29.88,102.71V26.29H57.26v76.42Zm-2.59,3.1V23.29H59.85v82.52Z"/><path class="cls-65" d="M29.88,102.71V26.29H57.26v76.42Zm-2.59,3V23.29H59.85v82.42Z"/><path class="cls-66" d="M29.78,102.81V26.29H57.16v76.52Zm-2.49,2.9V23.29H59.75v82.42Z"/><path class="cls-67" d="M29.78,102.81V26.29H57.16v76.52Zm-2.49,2.9V23.39H59.75v82.32Z"/><path class="cls-68" d="M29.78,102.81V26.29H57.26v76.52Zm-2.49,2.9V23.39H59.75v82.32Z"/><path class="cls-69" d="M29.78,102.81V26.19H57.26v76.52l-27.48.1Zm-2.39,2.9V23.39H59.75v82.32Z"/><path class="cls-70" d="M29.78,102.81V26.19H57.26v76.52l-27.48.1Zm-2.39,2.8V23.39H59.75v82.22Z"/><path class="cls-71" d="M29.78,102.81V26.19H57.36v76.62Zm-2.39,2.8V23.39H59.65v82.22Z"/><path class="cls-72" d="M29.78,102.81V26.19H57.36v76.62Zm-2.39,2.8V23.49H59.65v82.12Z"/><path class="cls-73" d="M29.78,102.81V26.19H57.46v76.62Zm-2.39,2.8V23.49H59.65v82.12Z"/><path class="cls-74" d="M29.78,102.81V26.09H57.46v76.72Zm-2.29,2.8V23.49H59.65v82.12Z"/><path class="cls-75" d="M29.78,102.81V26.09H57.46v76.72Zm-2.29,2.7v-82H59.65v82.12l-32.16-.1Z"/><path class="cls-76" d="M29.68,102.91V26.09H57.46v76.82Zm-2.19,2.6v-82H59.55v82.12l-32.06-.1Z"/><path class="cls-77" d="M29.68,102.91V26.09H57.46v76.82Zm-2.19,2.6v-82H59.55v82Z"/><path class="cls-78" d="M29.68,102.91V26.09H57.46v76.82Zm-2.19,2.6v-82H59.55v82Z"/><path class="cls-79" d="M29.68,102.91V26H57.46v76.92Zm-2.09,2.6v-82H59.65v82Z"/><path class="cls-80" d="M29.68,102.91H57.46V26H29.68Zm-2.09,2.5V23.49H59.65v81.92Z"/></g></g><g class="cls-28"><path class="cls-81" d="M62,72.34a1.78,1.78,0,0,1-1-.4,1.4,1.4,0,0,1-.3-.9c-.1-2.09-.1-3.79,0-6.59a2,2,0,0,1,.3-1.1,1.23,1.23,0,0,1,1-.5,1.9,1.9,0,0,1,1.3.5c.1.2,0,5.8,0,7.59a1.61,1.61,0,0,1-.3.9A1.23,1.23,0,0,1,62,72.34Z"/><path class="cls-82" d="M61,63.45a1.23,1.23,0,0,1,1-.5,1.61,1.61,0,0,1,1.3.6c.1.2,0,5.8,0,7.49a1.61,1.61,0,0,1-.3.9,1.53,1.53,0,0,1-1,.4,1.78,1.78,0,0,1-1-.4,1.4,1.4,0,0,1-.3-.9c-.1-2.09-.1-3.79,0-6.49A5.31,5.31,0,0,1,61,63.45Z"/><path class="cls-83" d="M61.05,63.45a1.23,1.23,0,0,1,1-.5c.4,0,1.1.2,1.2.6.1.2,0,5.7,0,7.49a1.61,1.61,0,0,1-.3.9,1.53,1.53,0,0,1-1,.4,1.78,1.78,0,0,1-1-.4,1.64,1.64,0,0,1-.2-1c0-2-.1-3.79,0-6.49A1.69,1.69,0,0,1,61.05,63.45Z"/><path class="cls-84" d="M61.05,63.55a1.33,1.33,0,0,1,1-.6c.4,0,1.1.2,1.2.6s0,5.6,0,7.29a2.92,2.92,0,0,1-.2.9,1.6,1.6,0,0,1-1,.5,1.39,1.39,0,0,1-1-.5,1.34,1.34,0,0,1-.2-.9c0-2-.1-3.69,0-6.29A1.09,1.09,0,0,1,61.05,63.55Z"/><path class="cls-85" d="M61.05,63.55A1.33,1.33,0,0,1,62,63c.4,0,1.1.2,1.2.6s0,5.5,0,7.29a2.92,2.92,0,0,1-.2.9,1.23,1.23,0,0,1-1,.5,1.39,1.39,0,0,1-1-.5,1.34,1.34,0,0,1-.2-.9c0-1.89-.1-3.69,0-6.29A2.93,2.93,0,0,1,61.05,63.55Z"/><path class="cls-86" d="M61.05,63.55A1.33,1.33,0,0,1,62,63c.4,0,1.1.2,1.1.6s0,5.4,0,7.09a2.92,2.92,0,0,1-.2.9,1.23,1.23,0,0,1-1,.5,1.39,1.39,0,0,1-1-.5,1.34,1.34,0,0,1-.2-.9c0-1.89-.1-3.69,0-6.19C60.85,64.25,60.85,63.85,61.05,63.55Z"/><path class="cls-87" d="M61.05,63.55A1.33,1.33,0,0,1,62,63c.4,0,1,.2,1.1.6s0,5.4,0,7.09a1.88,1.88,0,0,1-.2.8,1.19,1.19,0,0,1-.9.5,1.05,1.05,0,0,1-.9-.5,1.2,1.2,0,0,1-.2-.8V64.55A2,2,0,0,1,61.05,63.55Z"/><path class="cls-88" d="M61.05,63.55A1.15,1.15,0,0,1,62,63c.4,0,1,.2,1.1.6s0,5.3,0,7a1.88,1.88,0,0,1-.2.8,1.19,1.19,0,0,1-.9.5,1.05,1.05,0,0,1-.9-.5,1.2,1.2,0,0,1-.2-.8v-6A2,2,0,0,1,61.05,63.55Z"/></g><g class="cls-89"><path class="cls-90" d="M60.65,64.45v-4.1a.43.43,0,0,1,.4-.4H63a.43.43,0,0,1,.4.4v4.1a.43.43,0,0,1-.4.4h-1.9A.43.43,0,0,1,60.65,64.45Z"/><path class="cls-91" d="M60.65,64.45v-4.1a.43.43,0,0,1,.4-.4H63a.43.43,0,0,1,.4.4v4.1a.43.43,0,0,1-.4.4h-1.9A.43.43,0,0,1,60.65,64.45Z"/><path class="cls-92" d="M60.65,64.45v-4.1a.43.43,0,0,1,.4-.4H63a.43.43,0,0,1,.4.4v4.1a.43.43,0,0,1-.4.4h-1.9A.43.43,0,0,1,60.65,64.45Z"/><path class="cls-93" d="M60.65,64.45v-4.1a.43.43,0,0,1,.4-.4H63a.43.43,0,0,1,.4.4v4.1a.43.43,0,0,1-.4.4h-1.9A.43.43,0,0,1,60.65,64.45Z"/><path class="cls-94" d="M60.65,64.45v-4.1a.43.43,0,0,1,.4-.4H63a.43.43,0,0,1,.4.4v4.1a.43.43,0,0,1-.4.4h-1.9A.43.43,0,0,1,60.65,64.45Z"/><path class="cls-95" d="M60.65,64.45v-4.1a.43.43,0,0,1,.4-.4H63a.43.43,0,0,1,.4.4v4.1a.43.43,0,0,1-.4.4h-1.9A.43.43,0,0,1,60.65,64.45Z"/><path class="cls-96" d="M60.65,64.45v-4.1a.43.43,0,0,1,.4-.4H63a.43.43,0,0,1,.4.4v4.1a.43.43,0,0,1-.4.4h-1.9A.43.43,0,0,1,60.65,64.45Z"/><path class="cls-97" d="M60.65,64.45v-4.1a.43.43,0,0,1,.4-.4H63a.43.43,0,0,1,.4.4v4.1a.43.43,0,0,1-.4.4h-1.9A.43.43,0,0,1,60.65,64.45Z"/><path class="cls-98" d="M60.65,64.45v-4.1a.43.43,0,0,1,.4-.4H63a.43.43,0,0,1,.4.4v4.1a.43.43,0,0,1-.4.4h-1.9C60.85,64.85,60.65,64.55,60.65,64.45Z"/><path class="cls-99" d="M60.65,64.35v-4a.43.43,0,0,1,.4-.4H63a.43.43,0,0,1,.4.4v4a.43.43,0,0,1-.4.4h-1.9C60.85,64.85,60.65,64.55,60.65,64.35Z"/><path class="cls-100" d="M60.65,64.35v-4a.43.43,0,0,1,.4-.4H63a.43.43,0,0,1,.4.4v4a.43.43,0,0,1-.4.4h-1.9C60.85,64.85,60.65,64.55,60.65,64.35Z"/><path class="cls-101" d="M60.65,64.35v-4a.43.43,0,0,1,.4-.4H63a.43.43,0,0,1,.4.4v4a.43.43,0,0,1-.4.4h-1.9C60.85,64.85,60.65,64.55,60.65,64.35Z"/><path class="cls-102" d="M60.65,64.35v-4a.43.43,0,0,1,.4-.4h1.8a.43.43,0,0,1,.4.4v4a.43.43,0,0,1-.4.4h-1.8C60.85,64.85,60.65,64.55,60.65,64.35Z"/><path class="cls-103" d="M60.65,64.35v-4a.43.43,0,0,1,.4-.4h1.8a.43.43,0,0,1,.4.4v4a.43.43,0,0,1-.4.4h-1.8A.43.43,0,0,1,60.65,64.35Z"/><path class="cls-104" d="M60.65,64.35v-4a.43.43,0,0,1,.4-.4h1.8a.43.43,0,0,1,.4.4v4a.43.43,0,0,1-.4.4h-1.8A.43.43,0,0,1,60.65,64.35Z"/><path class="cls-105" d="M60.65,64.35v-4a.43.43,0,0,1,.4-.4h1.8a.43.43,0,0,1,.4.4v4a.43.43,0,0,1-.4.4h-1.8A.43.43,0,0,1,60.65,64.35Z"/><path class="cls-106" d="M60.65,64.35v-4a.43.43,0,0,1,.4-.4h1.8a.43.43,0,0,1,.4.4v4a.43.43,0,0,1-.4.4h-1.8A.43.43,0,0,1,60.65,64.35Z"/><path class="cls-107" d="M60.65,64.35v-3.9a.43.43,0,0,1,.4-.4h1.8a.43.43,0,0,1,.4.4v3.9a.43.43,0,0,1-.4.4h-1.8A.43.43,0,0,1,60.65,64.35Z"/><path class="cls-108" d="M60.65,64.35v-3.9a.43.43,0,0,1,.4-.4h1.8a.43.43,0,0,1,.4.4v3.9a.43.43,0,0,1-.4.4h-1.8A.43.43,0,0,1,60.65,64.35Z"/><path class="cls-109" d="M60.75,64.35v-3.9a.43.43,0,0,1,.4-.4H63a.43.43,0,0,1,.4.4v3.9a.43.43,0,0,1-.4.4h-1.8A.37.37,0,0,1,60.75,64.35Z"/><path class="cls-110" d="M60.75,64.35v-3.9a.43.43,0,0,1,.4-.4H63a.43.43,0,0,1,.4.4v3.9a.43.43,0,0,1-.4.4h-1.8A.42.42,0,0,1,60.75,64.35Z"/><path class="cls-111" d="M60.75,64.25v-3.8a.43.43,0,0,1,.4-.4H63a.43.43,0,0,1,.4.4v3.9a.43.43,0,0,1-.4.4h-1.8C60.85,64.75,60.75,64.45,60.75,64.25Z"/><path class="cls-112" d="M60.75,64.25v-3.8a.43.43,0,0,1,.4-.4H63a.43.43,0,0,1,.4.4v3.9a.43.43,0,0,1-.4.4h-1.8C60.85,64.75,60.75,64.45,60.75,64.25Z"/><path class="cls-113" d="M60.75,64.25v-3.8a.43.43,0,0,1,.4-.4H63a.43.43,0,0,1,.4.4v3.9a.43.43,0,0,1-.4.4h-1.8C60.85,64.75,60.75,64.45,60.75,64.25Z"/><path class="cls-114" d="M60.75,64.25v-3.8a.43.43,0,0,1,.4-.4H63a.43.43,0,0,1,.4.4v3.9a.43.43,0,0,1-.4.4h-1.8A.51.51,0,0,1,60.75,64.25Z"/><path class="cls-115" d="M60.75,64.25v-3.8a.43.43,0,0,1,.4-.4H63a.43.43,0,0,1,.4.4v3.8a.43.43,0,0,1-.4.4h-1.8A.37.37,0,0,1,60.75,64.25Z"/><path class="cls-116" d="M60.75,64.25v-3.8a.43.43,0,0,1,.4-.4H63a.43.43,0,0,1,.4.4v3.8a.43.43,0,0,1-.4.4h-1.8A.37.37,0,0,1,60.75,64.25Z"/><path class="cls-117" d="M60.75,64.25v-3.8a.43.43,0,0,1,.4-.4H63a.43.43,0,0,1,.4.4v3.8a.43.43,0,0,1-.4.4h-1.8A.37.37,0,0,1,60.75,64.25Z"/><path class="cls-118" d="M60.75,64.25v-3.8a.43.43,0,0,1,.4-.4H63a.43.43,0,0,1,.4.4v3.8a.43.43,0,0,1-.4.4h-1.8A.37.37,0,0,1,60.75,64.25Z"/><path class="cls-119" d="M60.75,64.25v-3.8a.43.43,0,0,1,.4-.4H63a.43.43,0,0,1,.4.4v3.8a.43.43,0,0,1-.4.4h-1.8A.37.37,0,0,1,60.75,64.25Z"/><path class="cls-120" d="M60.75,64.25v-3.8a.43.43,0,0,1,.4-.4H63a.43.43,0,0,1,.4.4v3.8a.43.43,0,0,1-.4.4h-1.8A.37.37,0,0,1,60.75,64.25Z"/><path class="cls-121" d="M60.75,64.25v-3.8a.43.43,0,0,1,.4-.4h1.7a.43.43,0,0,1,.4.4v3.8a.43.43,0,0,1-.4.4h-1.7A.37.37,0,0,1,60.75,64.25Z"/><path class="cls-122" d="M60.75,64.25v-3.8a.43.43,0,0,1,.4-.4h1.7a.43.43,0,0,1,.4.4v3.8a.43.43,0,0,1-.4.4h-1.7A.37.37,0,0,1,60.75,64.25Z"/><path class="cls-123" d="M60.75,64.25v-3.8a.43.43,0,0,1,.4-.4h1.7a.43.43,0,0,1,.4.4v3.7a.43.43,0,0,1-.4.4h-1.7C60.85,64.65,60.75,64.45,60.75,64.25Z"/><path class="cls-124" d="M60.75,64.15v-3.7a.43.43,0,0,1,.4-.4h1.7a.43.43,0,0,1,.4.4v3.7a.43.43,0,0,1-.4.4h-1.7C60.85,64.65,60.75,64.45,60.75,64.15Z"/><path class="cls-125" d="M60.75,64.15v-3.7a.43.43,0,0,1,.4-.4h1.7a.43.43,0,0,1,.4.4v3.7a.43.43,0,0,1-.4.4h-1.7C60.85,64.55,60.75,64.45,60.75,64.15Z"/><path class="cls-126" d="M60.75,64.15v-3.7a.43.43,0,0,1,.4-.4h1.7a.43.43,0,0,1,.4.4v3.7a.43.43,0,0,1-.4.4h-1.7C60.85,64.55,60.75,64.45,60.75,64.15Z"/><path class="cls-127" d="M62.85,64.55h-1.7a.43.43,0,0,1-.4-.4v-3.7a.43.43,0,0,1,.4-.4h1.7a.43.43,0,0,1,.4.4v3.7A.37.37,0,0,1,62.85,64.55Z"/></g><path class="cls-128" d="M63,64.45h-1.9a.43.43,0,0,1-.4-.4v-3.8a.43.43,0,0,1,.4-.4H63a.43.43,0,0,1,.4.4V64A.4.4,0,0,1,63,64.45Z"/><path class="cls-129" d="M61.25,64.25a17,17,0,0,0-.1-2.3c0-.2.4-.5.9-.5s1,.2.9.5a17,17,0,0,0-.1,2.3.6.6,0,0,0,.3-.6v-3.2a.58.58,0,0,0-.6-.6h-1.2a.58.58,0,0,0-.6.6v3.2C60.85,64,61,64.15,61.25,64.25Z"/><g class="cls-130"><path class="cls-81" d="M62.05,69.84a1.41,1.41,0,0,1-1-.49,1.09,1.09,0,0,1-.2-1,35.77,35.77,0,0,0,.2-5.8,1,1,0,0,1,1.1-1.1,1.91,1.91,0,0,1,.8.3,1.14,1.14,0,0,1,.3.8,22.08,22.08,0,0,0,.2,5.8c.1.3-.1.7-.2,1A2.44,2.44,0,0,1,62.05,69.84Z"/><path class="cls-82" d="M61.25,61.85a1.14,1.14,0,0,1,.8-.3,1.91,1.91,0,0,1,.8.3.78.78,0,0,1,.2.8,22.08,22.08,0,0,0,.2,5.8c.1.3-.1.7-.2,1a1.25,1.25,0,0,1-1,.49,1.41,1.41,0,0,1-1-.49,1.09,1.09,0,0,1-.2-1,35.77,35.77,0,0,0,.2-5.8A.57.57,0,0,1,61.25,61.85Z"/><path class="cls-83" d="M61.25,61.85a1,1,0,0,1,1.6,0,.78.78,0,0,1,.2.8,22.24,22.24,0,0,0,.2,5.8c.1.3-.1.7-.2,1a1.27,1.27,0,0,1-2,0,1.09,1.09,0,0,1-.2-1,35.77,35.77,0,0,0,.2-5.8A.57.57,0,0,1,61.25,61.85Z"/><path class="cls-131" d="M61.25,61.85a1,1,0,0,1,1.6,0,.78.78,0,0,1,.2.8,22.24,22.24,0,0,0,.2,5.8c.1.3-.1.7-.2,1a1.27,1.27,0,0,1-2,0,1.09,1.09,0,0,1-.2-1,35.77,35.77,0,0,0,.2-5.8C60.85,62.25,61.05,62.05,61.25,61.85Z"/><path class="cls-132" d="M61.25,61.85a1,1,0,0,1,1.6,0,1.08,1.08,0,0,1,.2.8,22.24,22.24,0,0,0,.2,5.8c.1.3-.1.6-.2,1a1.27,1.27,0,0,1-2,0,1.09,1.09,0,0,1-.2-1,35.77,35.77,0,0,0,.2-5.8C60.85,62.25,61.05,62.05,61.25,61.85Z"/><path class="cls-84" d="M61.25,61.85a1,1,0,0,1,1.6,0,1.08,1.08,0,0,1,.2.8,21.32,21.32,0,0,0,.2,5.7c.1.3-.1.6-.2,1a1.27,1.27,0,0,1-2,0,1.09,1.09,0,0,1-.2-1,34.52,34.52,0,0,0,.2-5.7A.72.72,0,0,1,61.25,61.85Z"/><path class="cls-85" d="M61.25,61.85a1,1,0,0,1,1.6,0,1.08,1.08,0,0,1,.2.8,21.32,21.32,0,0,0,.2,5.7c.1.3-.1.6-.2,1a1.34,1.34,0,0,1-1,.59,1.11,1.11,0,0,1-1-.59,1.09,1.09,0,0,1-.2-1,34.52,34.52,0,0,0,.2-5.7A.78.78,0,0,1,61.25,61.85Z"/><path class="cls-133" d="M61.25,61.85a1,1,0,0,1,1.6,0,1.08,1.08,0,0,1,.2.8,21.32,21.32,0,0,0,.2,5.7,1.3,1.3,0,0,1-.2,1,1.34,1.34,0,0,1-1,.59,1.11,1.11,0,0,1-1-.59,1.5,1.5,0,0,1-.2-1,34.52,34.52,0,0,0,.2-5.7A.78.78,0,0,1,61.25,61.85Z"/><path class="cls-86" d="M61.25,61.85a1,1,0,0,1,1.6,0,1.08,1.08,0,0,1,.2.8,20.41,20.41,0,0,0,.2,5.6,1.3,1.3,0,0,1-.2,1,1.35,1.35,0,0,1-1.1.59,1.4,1.4,0,0,1-1.1-.59,1.5,1.5,0,0,1-.2-1,33.72,33.72,0,0,0,.2-5.6A3,3,0,0,1,61.25,61.85Z"/><path class="cls-134" d="M61.25,61.85a1,1,0,0,1,1.6,0,1.08,1.08,0,0,1,.2.8,20.57,20.57,0,0,0,.2,5.6,1.3,1.3,0,0,1-.2,1,1.35,1.35,0,0,1-1.1.59,1.4,1.4,0,0,1-1.1-.59,1.5,1.5,0,0,1-.2-1,33.29,33.29,0,0,0,.2-5.6A3,3,0,0,1,61.25,61.85Z"/><path class="cls-87" d="M61.25,61.85c.2-.2.5-.5.8-.5a1,1,0,0,1,.8.5,1.08,1.08,0,0,1,.2.8,20.57,20.57,0,0,0,.2,5.6,1.3,1.3,0,0,1-.2,1,1.35,1.35,0,0,1-1.1.59,1.4,1.4,0,0,1-1.1-.59,1.5,1.5,0,0,1-.2-1,33.29,33.29,0,0,0,.2-5.6A3,3,0,0,1,61.25,61.85Z"/><path class="cls-88" d="M61.25,61.85c.2-.2.5-.5.8-.5a1,1,0,0,1,.8.5,1.08,1.08,0,0,1,.2.8,19.68,19.68,0,0,0,.2,5.5,1.3,1.3,0,0,1-.2,1,1.35,1.35,0,0,1-1.1.59,1.25,1.25,0,0,1-1.1-.59,1.5,1.5,0,0,1-.2-1,32.5,32.5,0,0,0,.2-5.5A3,3,0,0,1,61.25,61.85Z"/><path class="cls-135" d="M61.25,61.85c.2-.2.5-.5.8-.5a1,1,0,0,1,.8.5,1.08,1.08,0,0,1,.2.7,19.68,19.68,0,0,0,.2,5.5,1.3,1.3,0,0,1-.2,1,1.35,1.35,0,0,1-1.1.59,1.25,1.25,0,0,1-1.1-.59,1.34,1.34,0,0,1-.2-.9,32.5,32.5,0,0,0,.2-5.5A3,3,0,0,1,61.25,61.85Z"/><path class="cls-136" d="M61.25,62c.2-.2.5-.5.8-.5a1,1,0,0,1,.8.5,1.08,1.08,0,0,1,.2.7,24.63,24.63,0,0,0,.2,5.5,1,1,0,0,1-.2.9,1.35,1.35,0,0,1-1.1.59,1.25,1.25,0,0,1-1.1-.59,1.34,1.34,0,0,1-.2-.9,32.5,32.5,0,0,0,.2-5.5A2.51,2.51,0,0,1,61.25,62Z"/><path class="cls-137" d="M61.25,62c.2-.2.5-.5.8-.5a1,1,0,0,1,.8.5,1.08,1.08,0,0,1,.2.7,23.49,23.49,0,0,0,.2,5.4,1,1,0,0,1-.2.9,1.36,1.36,0,0,1-1.1.6,1.52,1.52,0,0,1-1.1-.6,1.34,1.34,0,0,1-.2-.9,31.72,31.72,0,0,0,.2-5.4A5.74,5.74,0,0,1,61.25,62Z"/><path class="cls-138" d="M61.25,62a.89.89,0,0,1,1.6,0,1.08,1.08,0,0,1,.2.7,23.73,23.73,0,0,0,.2,5.4,1,1,0,0,1-.2.9,1.15,1.15,0,0,1-1.1.6,1.52,1.52,0,0,1-1.1-.6,1.34,1.34,0,0,1-.2-.9,31.72,31.72,0,0,0,.2-5.4A5.74,5.74,0,0,1,61.25,62Z"/><path class="cls-139" d="M61.25,62a.89.89,0,0,1,1.6,0,1.85,1.85,0,0,1,.2.7,23.73,23.73,0,0,0,.2,5.4,1,1,0,0,1-.2.9,1.15,1.15,0,0,1-1.1.6,1.52,1.52,0,0,1-1.1-.6,1.34,1.34,0,0,1-.2-.9,31.32,31.32,0,0,0,.2-5.4A5.74,5.74,0,0,1,61.25,62Z"/><path class="cls-140" d="M61.25,62c.2-.3.5-.6.8-.6a.94.94,0,0,1,.8.6,1.85,1.85,0,0,1,.2.7,24,24,0,0,0,.2,5.4,1,1,0,0,1-.2.9,1.15,1.15,0,0,1-1.1.6,1.36,1.36,0,0,1-1.1-.6,2.39,2.39,0,0,1-.2-.9,31.32,31.32,0,0,0,.2-5.4A5.74,5.74,0,0,1,61.25,62Z"/><path class="cls-141" d="M61.25,62c.2-.3.4-.6.8-.6s.6.2.8.6a1.85,1.85,0,0,1,.2.7,24,24,0,0,0,.2,5.4,1,1,0,0,1-.2.9,1.22,1.22,0,0,1-2.2,0,2.39,2.39,0,0,1-.2-.9,31.32,31.32,0,0,0,.2-5.4A5.74,5.74,0,0,1,61.25,62Z"/><path class="cls-142" d="M61.25,62.05c.2-.3.4-.6.8-.6s.6.2.8.6a1.85,1.85,0,0,1,.2.7,24,24,0,0,0,.2,5.4,1,1,0,0,1-.2.9,1.22,1.22,0,0,1-2.2,0,2.39,2.39,0,0,1-.2-.9,31.32,31.32,0,0,0,.2-5.4A2.51,2.51,0,0,0,61.25,62.05Z"/><path class="cls-143" d="M61.25,62.05c.2-.3.4-.6.8-.6s.6.2.8.6a1.85,1.85,0,0,1,.2.7,23.08,23.08,0,0,0,.2,5.3,1,1,0,0,1-.2.9,1.22,1.22,0,0,1-2.2,0,2.39,2.39,0,0,1-.2-.9,30.55,30.55,0,0,0,.2-5.3A2.51,2.51,0,0,0,61.25,62.05Z"/><path class="cls-144" d="M61.25,62.05c.2-.3.4-.6.8-.6s.6.2.8.6a1.85,1.85,0,0,1,.2.7,23.08,23.08,0,0,0,.2,5.3,1.41,1.41,0,0,1-.1.9,1.12,1.12,0,0,1-1.1.69A1.22,1.22,0,0,1,61,69a1.34,1.34,0,0,1-.1-.9,44.37,44.37,0,0,0,.2-5.3A1.85,1.85,0,0,1,61.25,62.05Z"/><path class="cls-145" d="M61.25,62.05c.2-.3.4-.6.8-.6s.6.2.8.6a1.85,1.85,0,0,1,.2.7,23.08,23.08,0,0,0,.2,5.3,1.41,1.41,0,0,1-.1.9,1.12,1.12,0,0,1-1.1.69A1.22,1.22,0,0,1,61,69a1.34,1.34,0,0,1-.1-.9,44.37,44.37,0,0,0,.2-5.3A1.85,1.85,0,0,1,61.25,62.05Z"/><path class="cls-146" d="M61.25,62.05c.2-.3.4-.6.8-.6s.6.2.8.6a1.85,1.85,0,0,1,.2.7,22.22,22.22,0,0,0,.2,5.2,1.41,1.41,0,0,1-.1.9,1.13,1.13,0,0,1-1.1.7,1.23,1.23,0,0,1-1.1-.7,1.34,1.34,0,0,1-.1-.9,43.5,43.5,0,0,0,.2-5.2A1.85,1.85,0,0,1,61.25,62.05Z"/><path class="cls-147" d="M61.25,62.15c.2-.3.4-.6.8-.6a.76.76,0,0,1,.8.6,1.85,1.85,0,0,1,.2.7,22.22,22.22,0,0,0,.2,5.2,1.41,1.41,0,0,1-.1.9,1.2,1.2,0,0,1-1.1.79A1.16,1.16,0,0,1,61,69a1.34,1.34,0,0,1-.1-.9,43.5,43.5,0,0,0,.2-5.2A1.17,1.17,0,0,1,61.25,62.15Z"/><path class="cls-148" d="M61.25,62.15a.87.87,0,0,1,.8-.6.76.76,0,0,1,.8.6,1.85,1.85,0,0,1,.2.7,22.22,22.22,0,0,0,.2,5.2,1.41,1.41,0,0,1-.1.9,1.1,1.1,0,0,1-1.1.79A1.16,1.16,0,0,1,61,69a1.34,1.34,0,0,1-.1-.9,43.5,43.5,0,0,0,.2-5.2A1.17,1.17,0,0,1,61.25,62.15Z"/><path class="cls-149" d="M61.25,62.15a.87.87,0,0,1,.8-.6.76.76,0,0,1,.8.6,1.85,1.85,0,0,1,.2.7,21.14,21.14,0,0,0,.2,5.1,1.41,1.41,0,0,1-.1.9,1.1,1.1,0,0,1-1.1.79,1.32,1.32,0,0,1-1.1-.79,1.34,1.34,0,0,1-.1-.9,41.82,41.82,0,0,0,.2-5.1A1.85,1.85,0,0,1,61.25,62.15Z"/><path class="cls-150" d="M61.25,62.15a.87.87,0,0,1,.8-.6.76.76,0,0,1,.8.6.88.88,0,0,1,.1.7,21.37,21.37,0,0,0,.2,5.1,1.41,1.41,0,0,1-.1.9,1,1,0,0,1-1.1.79,1.2,1.2,0,0,1-1.1-.79,2.48,2.48,0,0,1-.1-.9,41.82,41.82,0,0,0,.2-5.1C61.05,62.65,61.15,62.35,61.25,62.15Z"/><path class="cls-151" d="M61.25,62.15a.93.93,0,0,1,1.7.7,21.37,21.37,0,0,0,.2,5.1,1.41,1.41,0,0,1-.1.9,1,1,0,0,1-1.1.79,1.2,1.2,0,0,1-1.1-.79,2.48,2.48,0,0,1-.1-.9,41.82,41.82,0,0,0,.2-5.1C61.05,62.65,61.15,62.35,61.25,62.15Z"/><path class="cls-152" d="M61.25,62.15a.83.83,0,0,1,1.6,0,1.7,1.7,0,0,1,.1.7,20.32,20.32,0,0,0,.2,5,1.41,1.41,0,0,1-.1.9,1,1,0,0,1-1.1.8,1.11,1.11,0,0,1-1.1-.8,2.48,2.48,0,0,1-.1-.9,41,41,0,0,0,.2-5C61.05,62.65,61.15,62.35,61.25,62.15Z"/><path class="cls-153" d="M61.25,62.25a.76.76,0,0,1,.8-.6.87.87,0,0,1,.8.6,1.7,1.7,0,0,1,.1.7,20.53,20.53,0,0,0,.2,5,1.41,1.41,0,0,1-.1.9,1.12,1.12,0,0,1-2.2,0,2.48,2.48,0,0,1-.1-.9,41,41,0,0,0,.2-5A2.39,2.39,0,0,1,61.25,62.25Z"/><path class="cls-154" d="M61.25,62.25a.76.76,0,0,1,.8-.6.87.87,0,0,1,.8.6,1.7,1.7,0,0,1,.1.7,20.75,20.75,0,0,0,.2,5,1.41,1.41,0,0,1-.1.9,1.12,1.12,0,0,1-2.2,0,2.48,2.48,0,0,1-.1-.9,40.17,40.17,0,0,0,.2-5A2.39,2.39,0,0,1,61.25,62.25Z"/><path class="cls-155" d="M61.25,62.25a.76.76,0,0,1,.8-.6.87.87,0,0,1,.8.6,1.7,1.7,0,0,1,.1.7,20.75,20.75,0,0,0,.2,5,2.72,2.72,0,0,1,0,.9,1.12,1.12,0,0,1-2.2,0,2.7,2.7,0,0,1,0-.9,40.17,40.17,0,0,0,.2-5A.82.82,0,0,1,61.25,62.25Z"/><path class="cls-156" d="M61.25,62.25a.81.81,0,0,1,1.6,0,1.7,1.7,0,0,1,.1.7,20.75,20.75,0,0,0,.2,5v.9a1.12,1.12,0,0,1-2.2,0,2.7,2.7,0,0,1,0-.9,40.17,40.17,0,0,0,.2-5A1.48,1.48,0,0,1,61.25,62.25Z"/><path class="cls-157" d="M61.25,62.25a.81.81,0,0,1,1.6,0,1.7,1.7,0,0,1,.1.7,27.9,27.9,0,0,0,.2,5v.9a1.12,1.12,0,0,1-2.2,0c0-.2-.1-.6,0-.8a40.17,40.17,0,0,0,.2-5A1.72,1.72,0,0,1,61.25,62.25Z"/><path class="cls-158" d="M61.25,62.25a.81.81,0,0,1,1.6,0c0,.2.1.5.1.7a26.44,26.44,0,0,0,.2,4.9v.8a1.12,1.12,0,0,1-2.2,0c0-.2-.1-.6,0-.8a39.34,39.34,0,0,0,.2-4.9A1.48,1.48,0,0,1,61.25,62.25Z"/><path class="cls-159" d="M61.25,62.25a.81.81,0,0,1,1.6,0c0,.2.1.5.1.7a26.44,26.44,0,0,0,.2,4.9v.8a1.11,1.11,0,0,1-2.2,0c0-.2-.1-.6,0-.8a38.55,38.55,0,0,0,.2-4.9A1.48,1.48,0,0,1,61.25,62.25Z"/><path class="cls-160" d="M61.25,62.25a.81.81,0,0,1,1.6,0c0,.2.1.4.1.6a26.44,26.44,0,0,0,.2,4.9v.8a1.11,1.11,0,0,1-2.2,0v-.8a38.55,38.55,0,0,0,.2-4.9A1.27,1.27,0,0,1,61.25,62.25Z"/><path class="cls-161" d="M61.25,62.25a.85.85,0,0,1,.8-.7.77.77,0,0,1,.8.7c0,.2.1.4.1.6a25.72,25.72,0,0,0,.2,4.8v.8a1.1,1.1,0,0,1-1.1,1,1.18,1.18,0,0,1-1.1-1v-.8a37.74,37.74,0,0,0,.2-4.8A1.49,1.49,0,0,1,61.25,62.25Z"/><path class="cls-162" d="M61.25,62.25a.85.85,0,0,1,.8-.7.77.77,0,0,1,.8.7c0,.2.1.4,0,.6a25.72,25.72,0,0,0,.2,4.8v.8a1,1,0,0,1-1.1,1,1.1,1.1,0,0,1-1.1-1v-.8a37.74,37.74,0,0,0,.2-4.8A4.17,4.17,0,0,0,61.25,62.25Z"/><path class="cls-163" d="M61.25,62.25c.1-.4.4-.8.8-.8a.79.79,0,0,1,.8.8c0,.2.1.4,0,.6a25.72,25.72,0,0,0,.2,4.8v.8a1,1,0,0,1-1.1,1,1.1,1.1,0,0,1-1.1-1v-.8a37.74,37.74,0,0,0,.2-4.8C61.15,62.75,61.15,62.55,61.25,62.25Z"/><path class="cls-164" d="M61.25,62.25a.86.86,0,0,1,.8-.8.74.74,0,0,1,.8.8v.6a24.32,24.32,0,0,0,.2,4.7v.8a1,1,0,0,1-1.1,1,1.1,1.1,0,0,1-1.1-1v-.8a37,37,0,0,0,.2-4.7C61.15,62.75,61.15,62.55,61.25,62.25Z"/><path class="cls-165" d="M61.25,62.35a.86.86,0,0,1,.8-.8.74.74,0,0,1,.8.8V63a24.67,24.67,0,0,0,.2,4.7,2,2,0,0,0,.1.8,1,1,0,0,1-1.1,1.1,1.11,1.11,0,0,1-1.1-1.1v-.8a37,37,0,0,0,.2-4.7A1.27,1.27,0,0,1,61.25,62.35Z"/><path class="cls-166" d="M61.25,62.35a.86.86,0,0,1,.8-.8.74.74,0,0,1,.8.8V63a24.67,24.67,0,0,0,.2,4.7,2,2,0,0,0,.1.8,1,1,0,0,1-1.1,1.1,1.11,1.11,0,0,1-1.1-1.1,2.2,2.2,0,0,1,.1-.8,37,37,0,0,0,.2-4.7A.64.64,0,0,1,61.25,62.35Z"/><path class="cls-167" d="M61.25,62.35a.8.8,0,0,1,1.6,0V63a23.29,23.29,0,0,0,.2,4.6c0,.2.1.6.1.8a1,1,0,0,1-1.1,1.1,1.11,1.11,0,0,1-1.1-1.1,2.2,2.2,0,0,1,.1-.8,36.18,36.18,0,0,0,.2-4.6A.63.63,0,0,1,61.25,62.35Z"/><path class="cls-168" d="M61.25,62.35a.8.8,0,0,1,1.6,0V63a23.29,23.29,0,0,0,.2,4.6c0,.2.1.6.1.8a1,1,0,0,1-1.1,1.1,1.11,1.11,0,0,1-1.1-1.1,2.2,2.2,0,0,1,.1-.8,36.18,36.18,0,0,0,.2-4.6C61.15,62.75,61.25,62.65,61.25,62.35Z"/><path class="cls-169" d="M61.25,62.35a.8.8,0,0,1,1.6,0V63a23.29,23.29,0,0,0,.2,4.6c0,.2.1.6.1.8a1,1,0,0,1-1.1,1.1,1.11,1.11,0,0,1-1.1-1.1,2.49,2.49,0,0,1,.1-.8,35.4,35.4,0,0,0,.2-4.6C61.15,62.85,61.25,62.65,61.25,62.35Z"/><path class="cls-170" d="M61.25,62.35a.74.74,0,0,1,.8-.8.79.79,0,0,1,.8.8V63a22,22,0,0,0,.2,4.5c0,.2.1.6.1.8a1,1,0,0,1-1.1,1.1,1.11,1.11,0,0,1-1.1-1.1c0-.2.1-.5.1-.8a34.64,34.64,0,0,0,.2-4.5Z"/><path class="cls-171" d="M61.25,62.45a.81.81,0,1,1,1.6,0v.6a22,22,0,0,0,.2,4.5c0,.2.1.6.1.8a1,1,0,0,1-1.1,1.1,1.11,1.11,0,0,1-1.1-1.1c0-.2.1-.5.1-.8a33.89,33.89,0,0,0,.2-4.5Z"/><path class="cls-125" d="M61.25,62.45a.82.82,0,0,1,.8-.9.77.77,0,0,1,.8.9v.6a22.29,22.29,0,0,0,.2,4.5c0,.2.1.6.1.8a1,1,0,0,1-1.1,1.1,1.18,1.18,0,0,1-1.1-1.1c0-.2.1-.5.1-.8a33.89,33.89,0,0,0,.2-4.5Z"/><path class="cls-126" d="M61.25,62.45a.82.82,0,0,1,.8-.9.77.77,0,0,1,.8.9v.6a22.29,22.29,0,0,0,.2,4.5c0,.2.1.6.1.8a1,1,0,0,1-1.1,1.1,1.18,1.18,0,0,1-1.1-1.1c0-.2.1-.5.1-.8a33.89,33.89,0,0,0,.2-4.5Z"/><path class="cls-127" d="M62.05,61.55h0a.77.77,0,0,0-.8.9,23.18,23.18,0,0,1-.2,5.9,1,1,0,0,0,1.1,1.1,1.18,1.18,0,0,0,1.1-1.1,29.13,29.13,0,0,1-.2-5.9A1.06,1.06,0,0,0,62.05,61.55Z"/></g><circle class="cls-172" cx="62.05" cy="62.25" r="1"/><path class="cls-173" d="M62.05,61.45h0a.9.9,0,0,0-.9,1.1,34.61,34.61,0,0,1,.2,7,.57.57,0,0,0,.6.59h0a.64.64,0,0,0,.6-.59,34.61,34.61,0,0,1,.2-7C63,61.85,62.55,61.45,62.05,61.45Z"/><g class="cls-89"><path class="cls-174" d="M62.05,61.65h0a.91.91,0,0,0-.8,1,41.63,41.63,0,0,1,.2,6.8.57.57,0,0,0,.6.59h0a.64.64,0,0,0,.6-.59,32.59,32.59,0,0,1,.2-6.8A.91.91,0,0,0,62.05,61.65Z"/><path class="cls-175" d="M61.25,62.65a.85.85,0,0,1,.8-1h0a.91.91,0,0,1,.8,1,39.81,39.81,0,0,0-.2,6.7v.2a.6.6,0,0,1-1.2,0v-.2A31.55,31.55,0,0,0,61.25,62.65Z"/><path class="cls-176" d="M61.25,62.65a.85.85,0,0,1,.8-1h0a.91.91,0,0,1,.8,1,39.81,39.81,0,0,0-.2,6.7v.2a.6.6,0,0,1-1.2,0v-.2A31.55,31.55,0,0,0,61.25,62.65Z"/><path class="cls-177" d="M61.25,62.65a.84.84,0,0,1,.7-1h0a.91.91,0,0,1,.8,1,39.81,39.81,0,0,0-.2,6.7v.2a.56.56,0,0,1-.5.59c-.3,0-.6-.3-.5-.59v-.2A41.77,41.77,0,0,0,61.25,62.65Z"/><path class="cls-178" d="M61.25,62.65a.84.84,0,0,1,.7-1h0c.5,0,.8.4.7,1a39.81,39.81,0,0,0-.2,6.7v.2a.56.56,0,0,1-.5.59.46.46,0,0,1-.5-.59v-.2A31.55,31.55,0,0,0,61.25,62.65Z"/><path class="cls-179" d="M61.25,62.65a.84.84,0,0,1,.7-1h0c.5,0,.8.4.7,1a40,40,0,0,0-.2,6.7v.2a.56.56,0,0,1-.5.59.46.46,0,0,1-.5-.59v-.2A31.55,31.55,0,0,0,61.25,62.65Z"/><path class="cls-180" d="M61.25,62.65a.84.84,0,0,1,.7-1h0c.5,0,.8.4.7,1a40,40,0,0,0-.2,6.7v.2a.56.56,0,0,1-.5.59c-.3,0-.5-.2-.5-.59v-.2A31.55,31.55,0,0,0,61.25,62.65Z"/><path class="cls-181" d="M61.25,62.65a.75.75,0,0,1,.7-.9h0a.7.7,0,0,1,.7.9,40,40,0,0,0-.2,6.7v.2a.56.56,0,0,1-.5.59c-.3,0-.5-.2-.5-.59v-.2A31.55,31.55,0,0,0,61.25,62.65Z"/><path class="cls-182" d="M61.25,62.65a.75.75,0,0,1,.7-.9h0a.75.75,0,0,1,.7.9,40,40,0,0,0-.2,6.7v.2a.51.51,0,1,1-1,0v-.2A31.66,31.66,0,0,0,61.25,62.65Z"/><path class="cls-183" d="M62.55,69.25v.2a.51.51,0,1,1-1,0v-.2a55.27,55.27,0,0,0-.2-6.7.75.75,0,0,1,.7-.9h0a.75.75,0,0,1,.7.9"/></g><polygon class="cls-184" points="103.11 106.21 87.83 110.6 87.83 17.8 103.11 21.39 103.11 106.21"/><g class="cls-15"><polygon class="cls-185" points="87.23 19.2 87.23 111 87.93 111.1 97.02 22.19 87.23 19.2"/></g><polygon class="cls-186" points="87.23 19.2 87.23 111 87.93 111.1 97.02 22.19 87.23 19.2"/><g class="cls-187"><path class="cls-188" d="M86.73,17v94.7L103,107.11V21.79Zm14.18,88.11-13.28,3.4-.3-87.92,13.58,3.6Z"/><g class="cls-189"><polygon class="cls-190" points="101.71 105.21 101.11 105.01 101.11 24.19 101.71 23.89 101.71 105.21"/><path class="cls-191" d="M101.41,24.79a.35.35,0,0,1-.1-.2v-.3c0-.1,0-.2.1-.2a.35.35,0,0,1,.1.2v.3C101.51,24.79,101.51,24.79,101.41,24.79Zm.1,79.22v-.6c0-.1,0-.2-.1-.2a.35.35,0,0,0-.1.2v.6c0,.1,0,.2.1.2S101.51,104.11,101.51,104Zm0-1.3v-.6c0-.1,0-.2-.1-.2a.35.35,0,0,0-.1.2v.6c0,.1,0,.2.1.2S101.51,102.81,101.51,102.71Zm0-1.2v-.6c0-.1,0-.2-.1-.2a.35.35,0,0,0-.1.2v.6c0,.1,0,.2.1.2S101.51,101.51,101.51,101.51Zm0-1.3v-.59c0-.1,0-.2-.1-.2a.35.35,0,0,0-.1.2v.59c0,.1,0,.2.1.2S101.51,100.21,101.51,100.21Zm0-1.29v-.6c0-.1,0-.2-.1-.2a.35.35,0,0,0-.1.2v.6c0,.1,0,.2.1.2S101.51,99,101.51,98.92Zm0-1.3V97c0-.1,0-.2-.1-.2a.35.35,0,0,0-.1.2v.6c0,.1,0,.2.1.2S101.51,97.72,101.51,97.62Zm0-1.2v-.6c0-.1,0-.2-.1-.2a.35.35,0,0,0-.1.2v.6c0,.1,0,.2.1.2S101.51,96.52,101.51,96.42Zm0-1.3v-.6c0-.1,0-.2-.1-.2a.35.35,0,0,0-.1.2v.6c0,.1,0,.2.1.2S101.51,95.22,101.51,95.12Zm0-1.2v-.6c0-.1,0-.2-.1-.2a.35.35,0,0,0-.1.2v.6c0,.1,0,.2.1.2S101.51,94,101.51,93.92Zm0-1.3V92c0-.1,0-.2-.1-.2a.35.35,0,0,0-.1.2v.6c0,.1,0,.2.1.2S101.51,92.72,101.51,92.62Zm0-1.2v-.6c0-.1,0-.2-.1-.2a.35.35,0,0,0-.1.2v.6c0,.1,0,.2.1.2S101.51,91.52,101.51,91.42Zm0-1.3v-.59c0-.1,0-.2-.1-.2a.35.35,0,0,0-.1.2v.59c0,.1,0,.2.1.2S101.51,90.22,101.51,90.12Zm0-1.19v-.6c0-.1,0-.2-.1-.2a.35.35,0,0,0-.1.2v.6s0,.1.2,0Zm0-1.3v-.7c0-.1,0-.2-.1-.2a.35.35,0,0,0-.1.2v.6c0,.1,0,.2.2.1Zm0-1.3v-.6c0-.1,0-.2-.1-.2a.35.35,0,0,0-.1.2v.6c0,.1,0,.2.1.2S101.51,86.43,101.51,86.33Zm0-1.2v-.6c0-.1,0-.2-.1-.2a.35.35,0,0,0-.1.2v.6c0,.1,0,.2.1.2S101.51,85.13,101.51,85.13Zm0-1.3v-.6c0-.1,0-.2-.1-.2a.35.35,0,0,0-.1.2v.6c0,.1,0,.2.1.2S101.51,83.93,101.51,83.83Zm0-1.3v-.6c0-.1,0-.2-.1-.2a.35.35,0,0,0-.1.2v.6c0,.1,0,.2.1.2S101.51,82.63,101.51,82.53Zm0-1.3v-.6c0-.1,0-.2-.1-.2a.35.35,0,0,0-.1.2v.6c0,.1,0,.2.1.2S101.51,81.33,101.51,81.23Zm0-1.2v-.59c0-.1,0-.2-.1-.2a.35.35,0,0,0-.1.2V80c0,.1,0,.2.1.2S101.51,80.13,101.51,80Zm0-1.29v-.6c0-.1,0-.2-.1-.2a.35.35,0,0,0-.1.2v.6c0,.1,0,.2.1.2S101.51,78.84,101.51,78.74Zm0-1.2v-.6c0-.1,0-.2-.1-.2a.35.35,0,0,0-.1.2v.6c0,.1,0,.2.1.2S101.51,77.64,101.51,77.54Zm0-1.3v-.6c0-.1,0-.2-.1-.2a.35.35,0,0,0-.1.2v.6c0,.1,0,.2.1.2S101.51,76.34,101.51,76.24Zm0-1.2v-.6c0-.1,0-.2-.1-.2a.35.35,0,0,0-.1.2V75c0,.1,0,.2.1.2S101.51,75.14,101.51,75Zm0-1.3v-.6c0-.1,0-.2-.1-.2a.35.35,0,0,0-.1.2v.6c0,.1,0,.2.1.2S101.51,73.84,101.51,73.74Zm0-1.2v-.6c0-.1,0-.2-.1-.2a.35.35,0,0,0-.1.2v.6c0,.1,0,.2.1.2S101.51,72.64,101.51,72.54Zm0-1.3v-.6c0-.1,0-.2-.1-.2a.35.35,0,0,0-.1.2v.6c0,.1,0,.2.1.2S101.51,71.34,101.51,71.24Zm0-1.2v-.59c0-.1,0-.2-.1-.2a.35.35,0,0,0-.1.2V70c0,.1,0,.2.1.2S101.51,70,101.51,70Zm0-1.29v-.6c0-.1,0-.2-.1-.2a.35.35,0,0,0-.1.2v.6c0,.1,0,.2.1.2A.31.31,0,0,0,101.51,68.75Zm0-1.3v-.6c0-.1,0-.2-.1-.2a.35.35,0,0,0-.1.2v.6c0,.1,0,.2.1.2S101.51,67.55,101.51,67.45Zm0-1.3v-.6c0-.1,0-.2-.1-.2a.35.35,0,0,0-.1.2v.6c0,.1,0,.2.1.2S101.51,66.25,101.51,66.15Zm0-1.2v-.6c0-.1,0-.2-.1-.2a.35.35,0,0,0-.1.2V65c0,.1,0,.2.1.2S101.51,65.05,101.51,65Zm0-1.3v-.6c0-.1,0-.2-.1-.2a.35.35,0,0,0-.1.2v.6c0,.1,0,.2.1.2S101.51,63.75,101.51,63.65Zm0-1.2v-.6c0-.1,0-.2-.1-.2a.35.35,0,0,0-.1.2v.6c0,.1,0,.2.1.2S101.51,62.55,101.51,62.45Zm0-1.3v-.6c0-.1,0-.2-.1-.2a.35.35,0,0,0-.1.2v.6c0,.1,0,.2.1.2S101.51,61.25,101.51,61.15Zm0-1.2v-.59c0-.1,0-.2-.1-.2a.35.35,0,0,0-.1.2V60c0,.1,0,.2.1.2S101.51,60.05,101.51,60Zm0-1.29V58c0-.1,0-.2-.1-.2a.35.35,0,0,0-.1.2v.6c0,.1,0,.2.2.1Zm0-1.2v-.6c0-.1,0-.2-.1-.2a.35.35,0,0,0-.1.2v.6c0,.1,0,.2.1.2S101.51,57.56,101.51,57.46Zm0-1.3v-.6c0-.1,0-.2-.1-.2a.35.35,0,0,0-.1.2v.6c0,.1,0,.2.1.2S101.51,56.26,101.51,56.16Zm0-1.3v-.6c0-.1,0-.2-.1-.2a.35.35,0,0,0-.1.2v.6c0,.1,0,.2.1.2S101.51,55,101.51,54.86Zm0-1.2V53c0-.1,0-.2-.1-.2a.35.35,0,0,0-.1.2v.6c0,.1,0,.2.2.1Zm0-1.3v-.6c0-.1,0-.2-.1-.2a.35.35,0,0,0-.1.2v.6c0,.1,0,.2.1.2S101.51,52.46,101.51,52.36Zm0-1.3v-.6c0-.1,0-.2-.1-.2a.35.35,0,0,0-.1.2v.6c0,.1,0,.2.1.2S101.51,51.16,101.51,51.06Zm0-1.3v-.59c0-.1,0-.2-.1-.2a.35.35,0,0,0-.1.2v.69c0,.1,0,.2.1.2A.37.37,0,0,0,101.51,49.76Zm0-1.19V48c0-.1,0-.2-.1-.2a.35.35,0,0,0-.1.2v.6c0,.1,0,.2.1.2S101.51,48.67,101.51,48.57Zm0-1.3v-.6c0-.1,0-.2-.1-.2a.35.35,0,0,0-.1.2v.6c0,.1,0,.2.1.2S101.51,47.37,101.51,47.27Zm0-1.2v-.6c0-.1,0-.2-.1-.2a.35.35,0,0,0-.1.2v.6c0,.1,0,.2.1.2S101.51,46.17,101.51,46.07Zm0-1.3v-.6c0-.1,0-.2-.1-.2a.35.35,0,0,0-.1.2v.6c0,.1,0,.2.1.2S101.51,44.87,101.51,44.77Zm0-1.2V43c0-.1,0-.2-.1-.2a.35.35,0,0,0-.1.2v.6c0,.1,0,.2.1.2S101.51,43.67,101.51,43.57Zm0-1.3v-.6c0-.1,0-.2-.1-.2a.35.35,0,0,0-.1.2v.6c0,.1,0,.2.1.2S101.51,42.37,101.51,42.27Zm0-1.2v-.6c0-.1,0-.2-.1-.2a.35.35,0,0,0-.1.2v.6c0,.1,0,.2.1.2S101.51,41.17,101.51,41.07Zm0-1.3v-.59c0-.1,0-.2-.1-.2a.35.35,0,0,0-.1.2v.59c0,.1,0,.2.1.2S101.51,39.87,101.51,39.77Zm0-1.19V38c0-.1,0-.2-.1-.2a.35.35,0,0,0-.1.2v.6c0,.1,0,.2.1.2S101.51,38.58,101.51,38.58Zm0-1.3v-.6c0-.1,0-.2-.1-.2a.35.35,0,0,0-.1.2v.6c0,.1,0,.2.1.2S101.51,37.28,101.51,37.28Zm0-1.3v-.6c0-.1,0-.2-.1-.2a.35.35,0,0,0-.1.2V36c0,.1,0,.2.1.2S101.51,36.08,101.51,36Zm0-1.3v-.6c0-.1,0-.2-.1-.2a.35.35,0,0,0-.1.2v.6c0,.1,0,.2.1.2S101.51,34.78,101.51,34.68Zm0-1.2v-.6c0-.1,0-.2-.1-.2a.35.35,0,0,0-.1.2v.6c0,.1,0,.2.1.2S101.51,33.58,101.51,33.48Zm0-1.3v-.6c0-.1,0-.2-.1-.2a.35.35,0,0,0-.1.2v.6c0,.1,0,.2.1.2S101.51,32.28,101.51,32.18Zm0-1.2v-.6c0-.1,0-.2-.1-.2a.35.35,0,0,0-.1.2V31c0,.1,0,.2.1.2S101.51,31.08,101.51,31Zm0-1.3v-.59c0-.1,0-.2-.1-.2a.35.35,0,0,0-.1.2v.59c0,.1,0,.2.1.2S101.51,29.78,101.51,29.68Zm0-1.19v-.6c0-.1,0-.2-.1-.2a.35.35,0,0,0-.1.2v.6c0,.1,0,.2.1.2S101.51,28.59,101.51,28.49Zm0-1.3v-.6c0-.1,0-.2-.1-.2a.35.35,0,0,0-.1.2v.6c0,.1,0,.2.1.2S101.51,27.29,101.51,27.19Zm0-1.2v-.6c0-.1,0-.2-.1-.2a.35.35,0,0,0-.1.2V26c0,.1,0,.2.1.2S101.51,26.09,101.51,26Zm0,78.92v-.3c0-.1,0-.2-.1-.2a.35.35,0,0,0-.1.2v.3c0,.1,0,.2.1.2S101.51,104.91,101.51,104.91Zm-.2,0v-.3c0-.1,0-.2-.1-.2a.35.35,0,0,0-.1.2v.3c0,.1,0,.2.1.2Zm0-1v-.6c0-.1,0-.2-.1-.2a.35.35,0,0,0-.1.2v.6c0,.1,0,.2.1.2S101.31,104,101.31,103.91Zm0-1.3v-.7c0-.1,0-.2-.1-.2a.35.35,0,0,0-.1.2v.6c0,.1,0,.2.2.1Zm0-1.2v-.6c0-.1,0-.2-.1-.2a.35.35,0,0,0-.1.2v.6c0,.1,0,.2.1.2S101.31,101.51,101.31,101.41Zm0-1.3v-.59c0-.1,0-.2-.1-.2a.35.35,0,0,0-.1.2v.59c0,.1,0,.2.1.2S101.31,100.21,101.31,100.11Zm0-1.19v-.6c0-.1,0-.2-.1-.2a.35.35,0,0,0-.1.2v.6c0,.1,0,.2.1.2S101.31,98.92,101.31,98.92Zm0-1.3V97c0-.1,0-.2-.1-.2a.35.35,0,0,0-.1.2v.6c0,.1,0,.2.1.2S101.31,97.72,101.31,97.62Zm0-1.3v-.6c0-.1,0-.2-.1-.2a.35.35,0,0,0-.1.2v.6c0,.1,0,.2.1.2S101.31,96.42,101.31,96.32Zm0-1.2v-.6c0-.1,0-.2-.1-.2a.35.35,0,0,0-.1.2v.6c0,.1,0,.2.1.2S101.31,95.22,101.31,95.12Zm0-1.3v-.6c0-.1,0-.2-.1-.2a.35.35,0,0,0-.1.2v.6c0,.1,0,.2.1.2S101.31,93.92,101.31,93.82Zm0-1.2V92c0-.1,0-.2-.1-.2a.35.35,0,0,0-.1.2v.6c0,.1,0,.2.1.2S101.31,92.72,101.31,92.62Zm0-1.3v-.6c0-.1,0-.2-.1-.2a.35.35,0,0,0-.1.2v.6c0,.1,0,.2.1.2S101.31,91.42,101.31,91.32Zm0-1.2v-.59c0-.1,0-.2-.1-.2a.35.35,0,0,0-.1.2v.59c0,.1,0,.2.1.2S101.31,90.22,101.31,90.12Zm0-1.29v-.6c0-.1,0-.2-.1-.2a.35.35,0,0,0-.1.2v.6c0,.1,0,.2.1.2S101.31,88.93,101.31,88.83Zm0-1.2v-.7c0-.1,0-.2-.1-.2a.35.35,0,0,0-.1.2v.6c0,.1,0,.2.2.1Zm0-1.3v-.6c0-.1,0-.2-.1-.2a.35.35,0,0,0-.1.2v.6c0,.1,0,.2.1.2S101.31,86.43,101.31,86.33Zm0-1.2v-.6c0-.1,0-.2-.1-.2a.35.35,0,0,0-.1.2v.6c0,.1,0,.2.1.2Zm0-1.3v-.6c0-.1,0-.2-.1-.2a.35.35,0,0,0-.1.2v.6c0,.1,0,.2.1.2S101.31,83.83,101.31,83.83Zm0-1.3v-.6c0-.1,0-.2-.1-.2a.35.35,0,0,0-.1.2v.6c0,.1,0,.2.1.2S101.31,82.63,101.31,82.53Zm0-1.3v-.6c0-.1,0-.2-.1-.2a.35.35,0,0,0-.1.2v.6c0,.1,0,.2.1.2S101.31,81.33,101.31,81.23Zm0-1.2v-.59c0-.1,0-.2-.1-.2a.35.35,0,0,0-.1.2V80c0,.1,0,.2.1.2S101.31,80.13,101.31,80Zm0-1.29v-.6c0-.1,0-.2-.1-.2a.35.35,0,0,0-.1.2v.6c0,.1,0,.2.1.2S101.31,78.84,101.31,78.74Zm0-1.2v-.6c0-.1,0-.2-.1-.2a.35.35,0,0,0-.1.2v.6s0,.1.2,0Zm0-1.3v-.6c0-.1,0-.2-.1-.2a.35.35,0,0,0-.1.2v.6c0,.1,0,.2.1.2S101.31,76.34,101.31,76.24Zm0-1.2v-.6c0-.1,0-.2-.1-.2a.35.35,0,0,0-.1.2V75c0,.1,0,.2.1.2S101.31,75.14,101.31,75Zm0-1.3v-.6c0-.1,0-.2-.1-.2a.35.35,0,0,0-.1.2v.6c0,.1,0,.2.1.2S101.31,73.84,101.31,73.74Zm0-1.2v-.6c0-.1,0-.2-.1-.2a.35.35,0,0,0-.1.2v.6c0,.1,0,.2.1.2S101.31,72.64,101.31,72.54Zm0-1.3v-.6c0-.1,0-.2-.1-.2a.35.35,0,0,0-.1.2v.6c0,.1,0,.2.1.2S101.31,71.34,101.31,71.24Zm0-1.2v-.59c0-.1,0-.2-.1-.2a.35.35,0,0,0-.1.2V70c0,.1,0,.2.1.2S101.31,70,101.31,70Zm0-1.29v-.6c0-.1,0-.2-.1-.2a.35.35,0,0,0-.1.2v.6c0,.1,0,.2.1.2A.31.31,0,0,0,101.31,68.75Zm0-1.3v-.6c0-.1,0-.2-.1-.2a.35.35,0,0,0-.1.2v.6c0,.1,0,.2.1.2S101.31,67.55,101.31,67.45Zm0-1.3v-.6c0-.1,0-.2-.1-.2a.35.35,0,0,0-.1.2v.6c0,.1,0,.2.1.2S101.31,66.25,101.31,66.15Zm0-1.2v-.6c0-.1,0-.2-.1-.2a.35.35,0,0,0-.1.2V65c0,.1,0,.2.1.2S101.31,65.05,101.31,65Zm0-1.3v-.6c0-.1,0-.2-.1-.2a.35.35,0,0,0-.1.2v.6c0,.1,0,.2.1.2S101.31,63.75,101.31,63.65Zm0-1.2v-.6c0-.1,0-.2-.1-.2a.35.35,0,0,0-.1.2v.6c0,.1,0,.2.1.2S101.31,62.55,101.31,62.45Zm0-1.3v-.6c0-.1,0-.2-.1-.2a.35.35,0,0,0-.1.2v.6c0,.1,0,.2.1.2S101.31,61.25,101.31,61.15Zm0-1.2v-.59c0-.1,0-.2-.1-.2a.35.35,0,0,0-.1.2V60c0,.1,0,.2.1.2S101.31,60.05,101.31,60Zm0-1.29V58c0-.1,0-.2-.1-.2a.35.35,0,0,0-.1.2v.6c0,.1,0,.2.2.1Zm0-1.2v-.6c0-.1,0-.2-.1-.2a.35.35,0,0,0-.1.2v.6c0,.1,0,.2.1.2S101.31,57.56,101.31,57.46Zm0-1.3v-.6c0-.1,0-.2-.1-.2a.35.35,0,0,0-.1.2v.6c0,.1,0,.2.1.2S101.31,56.26,101.31,56.16Zm0-1.2v-.6c0-.1,0-.2-.1-.2a.35.35,0,0,0-.1.2V55c0,.1,0,.2.1.2S101.31,55,101.31,55Zm0-1.3V53c0-.1,0-.2-.1-.2a.35.35,0,0,0-.1.2v.6c0,.1,0,.2.2.1Zm0-1.3v-.6c0-.1,0-.2-.1-.2a.35.35,0,0,0-.1.2v.6c0,.1,0,.2.1.2S101.31,52.46,101.31,52.36Zm0-1.3v-.6c0-.1,0-.2-.1-.2a.35.35,0,0,0-.1.2v.6c0,.1,0,.2.1.2S101.31,51.16,101.31,51.06Zm0-1.2v-.59c0-.1,0-.2-.1-.2a.35.35,0,0,0-.1.2v.59c0,.1,0,.2.1.2S101.31,50,101.31,49.86Zm0-1.29V48c0-.1,0-.2-.1-.2a.35.35,0,0,0-.1.2v.6c0,.1,0,.2.1.2S101.31,48.67,101.31,48.57Zm0-1.2v-.6c0-.1,0-.2-.1-.2a.35.35,0,0,0-.1.2v.6c0,.1,0,.2.1.2S101.31,47.47,101.31,47.37Zm0-1.3v-.6c0-.1,0-.2-.1-.2a.35.35,0,0,0-.1.2v.6c0,.1,0,.2.1.2S101.31,46.17,101.31,46.07Zm0-1.2v-.6c0-.1,0-.2-.1-.2a.35.35,0,0,0-.1.2v.6c0,.1,0,.2.1.2S101.31,45,101.31,44.87Zm0-1.3V43c0-.1,0-.2-.1-.2a.35.35,0,0,0-.1.2v.6c0,.1,0,.2.1.2S101.31,43.67,101.31,43.57Zm0-1.2v-.6c0-.1,0-.2-.1-.2a.35.35,0,0,0-.1.2v.6c0,.1,0,.2.1.2S101.31,42.47,101.31,42.37Zm0-1.3v-.6c0-.1,0-.2-.1-.2a.35.35,0,0,0-.1.2v.6c0,.1,0,.2.1.2S101.31,41.17,101.31,41.07Zm0-1.2v-.6c0-.09,0-.19-.1-.19a.35.35,0,0,0-.1.19v.6c0,.1,0,.2.1.2S101.31,39.87,101.31,39.87Zm0-1.29V38c0-.1,0-.2-.1-.2a.35.35,0,0,0-.1.2v.6c0,.1,0,.2.1.2S101.31,38.58,101.31,38.58Zm0-1.3v-.6c0-.1,0-.2-.1-.2a.35.35,0,0,0-.1.2v.6c0,.1,0,.2.1.2S101.31,37.38,101.31,37.28Zm0-1.3v-.6c0-.1,0-.2-.1-.2a.35.35,0,0,0-.1.2V36c0,.1,0,.2.1.2S101.31,36.08,101.31,36Zm0-1.2v-.6c0-.1,0-.2-.1-.2a.35.35,0,0,0-.1.2v.6c0,.1,0,.2.1.2S101.31,34.88,101.31,34.78Zm0-1.3v-.6c0-.1,0-.2-.1-.2a.35.35,0,0,0-.1.2v.6c0,.1,0,.2.1.2S101.31,33.58,101.31,33.48Zm0-1.2v-.6c0-.1,0-.2-.1-.2a.35.35,0,0,0-.1.2v.6c0,.1,0,.2.1.2S101.31,32.38,101.31,32.28Zm0-1.3v-.6c0-.1,0-.2-.1-.2a.35.35,0,0,0-.1.2V31c0,.1,0,.2.1.2S101.31,31.08,101.31,31Zm0-1.2v-.6c0-.09,0-.19-.1-.19a.35.35,0,0,0-.1.19v.6c0,.1,0,.2.1.2S101.31,29.88,101.31,29.78Zm0-1.29v-.6c0-.1,0-.2-.1-.2a.35.35,0,0,0-.1.2v.6c0,.1,0,.2.1.2S101.31,28.59,101.31,28.49Zm0-1.2v-.6c0-.1,0-.2-.1-.2a.35.35,0,0,0-.1.2v.6c0,.1,0,.2.1.2S101.31,27.39,101.31,27.29Zm0-1.3v-.6c0-.1,0-.2-.1-.2a.35.35,0,0,0-.1.2V26c0,.1,0,.2.1.2S101.31,26.09,101.31,26Zm0-1.2v-.3c0-.1,0-.2-.1-.2a.35.35,0,0,0-.1.2v.3c0,.1,0,.2.1.2S101.31,24.79,101.31,24.79Z"/></g></g><polygon class="cls-192" points="85.83 14.6 85.63 14.6 84.63 14.8 84.63 114 85.63 114.2 85.83 114.2 85.83 14.6"/><polygon class="cls-193" points="85.83 14.6 85.63 14.6 84.63 14.8 84.63 114 85.63 114.2 85.83 114.2 85.83 14.6"/><polygon class="cls-194" points="86.53 14 86.33 14 85.43 14.2 85.33 114.7 86.33 114.9 86.53 114.8 86.53 14"/><path class="cls-195" d="M87.63,16.7v95.4l16.28-4.69V21.49Zm14.08,88.61-13.28,3.4-.3-88.52,13.58,3.6Z"/><polygon class="cls-196" points="104.61 109.81 104.61 19.2 104.61 19.2 102.71 23.19 102.71 23.19 102.71 105.81 104.61 109.81"/><polygon class="cls-197" points="88.53 19.59 102.71 23.19 104.61 19.2 86.33 14 86.33 14 88.53 19.59"/><polygon class="cls-198" points="102.71 105.81 102.71 105.81 88.53 109.31 88.53 109.31 86.33 114.9 86.33 114.9 104.61 109.81 104.61 109.81 102.71 105.81"/><polygon class="cls-199" points="86.23 14 86.23 114.9 88.53 109.31 88.53 19.59 88.53 19.59 86.23 14"/><g class="cls-200"><g class="cls-23"><path class="cls-201" d="M103.71,107.71a15.57,15.57,0,0,1-.6-1.5,1.36,1.36,0,0,0-.3-.6l.3.6a4.71,4.71,0,0,0,.6,1.5c.2.6.5,1.1.6,1.5l.3.6-.3-.6C104.21,108.81,103.91,108.31,103.71,107.71Z"/><path class="cls-202" d="M87.43,112.1c-.3.7-.6,1.5-.8,2s-.3,1-.3,1,.2-.4.4-.9a12.84,12.84,0,0,1,.7-2.1c.3-.7.6-1.5.8-1.9l.3-.89a4.14,4.14,0,0,0-.4.89A16,16,0,0,1,87.43,112.1Z"/><path class="cls-203" d="M103.71,21.29c.2-.6.5-1.1.6-1.5l.3-.6-.3.6a5.71,5.71,0,0,0-.6,1.5,15.57,15.57,0,0,0-.6,1.5l-.3.6a1.36,1.36,0,0,0,.3-.6A9.38,9.38,0,0,1,103.71,21.29Z"/><path class="cls-204" d="M87.53,16.8c-.3-.7-.6-1.5-.8-2a4.11,4.11,0,0,0-.4-.9,8.41,8.41,0,0,1,.4,1,6,6,0,0,0,.8,1.9,13.77,13.77,0,0,0,.8,2,4.14,4.14,0,0,0,.4.89,4.14,4.14,0,0,1-.4-.89A20.75,20.75,0,0,1,87.53,16.8Z"/></g></g><g class="cls-200"><g class="cls-28"><path class="cls-205" d="M101.61,102.81l-11.69,2.8V23.39l11.79,2.8-.1,76.62ZM88,18.3v92.2l15.08-3.89V22.29Z"/><path class="cls-206" d="M89.92,105.51V23.39l11.79,2.8v76.62Zm-1.89,5V18.4l15.08,3.89v84.22Z"/><path class="cls-207" d="M89.82,105.61V23.39l11.79,2.8v76.72Zm-1.69,4.89V18.4l15.08,3.89v84.22Z"/><path class="cls-208" d="M89.82,105.61V23.29l11.79,2.8v76.72Zm-1.69,4.89V18.4l15,3.89v84.22Z"/><path class="cls-209" d="M89.82,105.61V23.29l11.79,2.8v76.82Zm-1.69,4.89V18.4l15,3.89v84.22Z"/><path class="cls-210" d="M89.82,105.61V23.29l11.89,2.8v76.82Zm-1.69,4.89v-92l15,3.89v84.22Z"/><path class="cls-211" d="M89.82,105.71V23.29l11.89,2.8v76.82Zm-1.69,4.79v-92l15,3.89v84.12Z"/><path class="cls-212" d="M89.82,105.71V23.29l11.89,2.8V103Zm-1.69,4.69V18.5l15,3.89v84.12Z"/><path class="cls-213" d="M89.82,105.71V23.19L101.71,26v76.92Zm-1.69,4.69V18.5l15,3.89v84.12Z"/><path class="cls-214" d="M89.82,105.71V23.19L101.71,26v76.92Zm-1.69,4.69V18.6L103,22.49v84Z"/><path class="cls-215" d="M89.82,105.81V23.19L101.71,26v76.92Zm-1.69,4.59V18.6L103,22.49v84Z"/><path class="cls-216" d="M89.82,105.81V23.19L101.71,26v76.92Zm-1.69,4.49V18.6L103,22.49v84Z"/><path class="cls-217" d="M89.72,105.81V23.09l11.89,2.8v76.92Zm-1.59,4.49V18.6L103,22.49v83.92Z"/><path class="cls-218" d="M89.72,105.81V23.09l11.89,2.8v77Zm-1.49,4.49V18.7l14.88,3.89v83.92Z"/><path class="cls-219" d="M89.72,105.81V23.09l11.89,2.8v77Zm-1.49,4.49V18.7l14.88,3.89v83.92Z"/><path class="cls-220" d="M89.72,105.81V23.09l11.89,2.8V103Zm-1.49,4.39V18.7l14.88,3.89v83.82Z"/><path class="cls-221" d="M89.72,105.81V23.09l12,2.8V103Zm-1.49,4.39V18.7l14.88,3.89v83.82Z"/><path class="cls-222" d="M89.72,105.81V23.09l12,2.8V103Zm-1.49,4.39V18.8l14.88,3.79v83.82Z"/><path class="cls-223" d="M89.72,105.91V23l12,2.8V103Zm-1.49,4.29V18.8l14.88,3.79v83.82Z"/><path class="cls-224" d="M89.72,105.91V23l12,2.8V103Zm-1.49,4.19V18.8l14.88,3.79v83.82Z"/><path class="cls-225" d="M89.72,105.91V23l12,2.8V103Zm-1.49,4.19V18.8L103,22.59v83.72Z"/><path class="cls-226" d="M89.72,105.91V23l12,2.8v77.32Zm-1.49,4.19V18.8L103,22.59v83.72Z"/><path class="cls-227" d="M89.72,105.91V23l12.09,2.8v77.32Zm-1.49,4.19V18.8L103,22.59v83.72Z"/><path class="cls-228" d="M89.72,106V23l12.09,2.8v77.32Zm-1.39,4.09V18.8l14.78,3.79v83.62Z"/><path class="cls-229" d="M89.72,106V22.89l12.09,2.8V103Zm-1.39,4.09V18.8l14.78,3.79v83.62Z"/><path class="cls-230" d="M89.72,106V22.89l12.09,2.8V103Zm-1.39,4.09V18.8l14.78,3.79v83.62Z"/><path class="cls-231" d="M89.72,106V22.89l12.09,2.8v77.42Zm-1.39,4.09V18.9L103,22.69v83.52Z"/><path class="cls-232" d="M89.72,106.11V22.89l12.09,2.9v77.42ZM88.33,110V18.9L103,22.69v83.52Z"/><path class="cls-233" d="M89.72,106.11V22.79l12.19,2.9v77.42ZM88.33,110V18.9L103,22.69v83.52Z"/><path class="cls-234" d="M89.72,106.11V22.79l12.19,2.9v77.52ZM88.33,110V18.9L103,22.69v83.42Z"/><path class="cls-235" d="M89.72,106.11V22.79l12.19,2.9v77.52ZM88.33,110V19L103,22.79v83.42Z"/><path class="cls-236" d="M89.72,106.21V22.79l12.19,2.9v77.52Zm-1.39,3.7V19l14.58,3.79v83.42Z"/><path class="cls-237" d="M89.72,106.21V22.79l12.19,2.9v77.62Zm-1.39,3.7V19l14.58,3.69v83.42Z"/><path class="cls-238" d="M89.62,106.21V22.69l12.29,2.9v77.62Zm-1.19,3.7V19L103,22.69v83.42Z"/><path class="cls-239" d="M89.62,106.21V22.69l12.29,2.9v77.62Zm-1.19,3.7V19.09L103,22.79v83.32Z"/><path class="cls-240" d="M89.62,106.21V22.69l12.29,2.9v77.72Zm-1.19,3.6V19.09L103,22.79v83.32Z"/><path class="cls-241" d="M89.62,106.21V22.69l12.29,2.9v77.72Zm-1.19,3.6V19.09L103,22.79v83.32Z"/><path class="cls-242" d="M89.62,106.21V22.59l12.29,2.9v77.72Zm-1.19,3.6V19.09l14.48,3.7V106Z"/><path class="cls-243" d="M89.62,106.21V22.59l12.29,2.9v77.72Zm-1.19,3.6V19.19l14.48,3.7v83.22Z"/><path class="cls-244" d="M89.62,106.31V22.59l12.29,2.9v77.72Zm-1.19,3.5V19.19l14.48,3.7v83.22Z"/><path class="cls-245" d="M89.62,106.31V22.59l12.29,2.9v77.82Zm-1.19,3.4V19.19l14.48,3.7V106Z"/><path class="cls-246" d="M89.62,106.31V22.59l12.29,2.9v77.82Zm-1.19,3.4V19.19l14.48,3.7V106Z"/><path class="cls-247" d="M89.62,106.31V22.59l12.29,2.9v77.82Zm-1.19,3.4V19.19l14.48,3.7V106Z"/><path class="cls-248" d="M89.62,106.41V22.59l12.29,2.9v77.92Zm-1.19,3.3V19.19l14.38,3.7v83Z"/><path class="cls-249" d="M89.52,106.41V22.59l12.39,3v77.82Zm-1.09,3.3V19.19l14.38,3.7v83Z"/><path class="cls-250" d="M89.52,106.41V22.49l12.39,3v77.92Zm-1.09,3.3V19.19l14.38,3.7v82.92Z"/><path class="cls-251" d="M89.52,106.41V22.49l12.39,3v78Zm-1.09,3.3V19.29L102.81,23v82.92Z"/><path class="cls-252" d="M89.52,106.41V22.49l12.39,3v78Zm-1.09,3.3V19.29L102.81,23v82.92Z"/><path class="cls-253" d="M89.52,106.51v-84l12.39,3v78.12Zm-1.09,3.1V19.29L102.81,23v82.92Z"/><path class="cls-254" d="M89.52,106.51V22.39l12.39,3v78.12Zm-1.09,3.1V19.29L102.81,23v82.92Z"/><path class="cls-255" d="M89.52,106.51V22.39l12.49,3v78.12Zm-1.09,3.1V19.39l14.38,3.7V106Z"/><path class="cls-80" d="M89.52,106.51l12.49-3V25.39l-12.49-3Zm-1.09,3.1V19.39l14.38,3.7v82.82Z"/></g></g><path class="cls-256" d="M88.43,62.55c0,.7-.2,1.3-.6,1.3s-.6-.6-.6-1.3.2-1.3.6-1.3S88.43,61.85,88.43,62.55Z"/><path id="SVGID" class="cls-257" d="M89.42,63.75c.7.2.9,1,1,1.7.2,1.9.2,4.49.2,6.49a.48.48,0,0,0,.9.2c.4-.8.6-8.59,0-9.59-.3-.5-1.5-1.2-3.69-1.1-.6,0-.6,2.4.1,2.4C88.43,63.85,89.13,63.75,89.42,63.75Z"/><g class="cls-258"><path class="cls-259" d="M91.52,72.74h-.2c-.7-.2-.7-1.4-.6-1.7v-.4c.1-1.59.2-2.89.2-4a11,11,0,0,0-.2-2.2c-.2-1.1-.3-1.2-.4-1.2a7.48,7.48,0,0,0-1.59-.3c-.5-.1-1.2-.1-1.5-.2s-.1-.6,0-1a1.5,1.5,0,0,1,.9-1h.5l.89.2c.5.1,1.1.2,1.5.3a2.76,2.76,0,0,1,1.4,1.2,1.49,1.49,0,0,1,.2.9,13.4,13.4,0,0,1,0,4,10.28,10.28,0,0,0-.1,1.8,16.35,16.35,0,0,1-.2,2.19c.2.4-.1,1.4-.8,1.4Z"/><path class="cls-260" d="M91.12,61.35a2,2,0,0,1,1.2,1,.31.31,0,0,1,.1.2,1.42,1.42,0,0,1,.2.6.37.37,0,0,0,.1.3,13.4,13.4,0,0,1,0,4,9.7,9.7,0,0,0-.1,1.7,16.35,16.35,0,0,1-.2,2.19,1.42,1.42,0,0,1-.2.6c-.2.4-.4.8-.8.8h-.2c-.3-.1-.5-.5-.6-.9a1.1,1.1,0,0,1,0-.8v-.4c.1-1.39.2-2.49.2-3.49v-.5a11,11,0,0,0-.2-2.2c-.2-1-.3-1.2-.4-1.2a1.48,1.48,0,0,0-1-.2,1.27,1.27,0,0,1-.6-.1c-.3,0-.7-.1-1.1-.1a.52.52,0,0,1-.4-.2A.62.62,0,0,1,87,62c0-.1,0-.2.1-.2a1.6,1.6,0,0,1,.7-.9h.7l.79.1h.1A3.06,3.06,0,0,1,91.12,61.35Z"/><path class="cls-261" d="M91.12,61.35a2,2,0,0,1,1.2,1,.35.35,0,0,0,.1.2,1.42,1.42,0,0,1,.2.6.37.37,0,0,0,.1.3,13.4,13.4,0,0,1,0,4,9.7,9.7,0,0,0-.1,1.7,16.35,16.35,0,0,1-.2,2.19,1.42,1.42,0,0,1-.2.6c-.2.4-.4.8-.8.8h-.2c-.3-.1-.5-.5-.6-.9a1.1,1.1,0,0,1,0-.8v-.4c.1-1.39.2-2.49.2-3.49v-.5a11,11,0,0,0-.2-2.2c-.2-1-.3-1.2-.4-1.2a1.48,1.48,0,0,0-1-.2,1.27,1.27,0,0,1-.6-.1c-.3,0-.7-.1-1.1-.1a.52.52,0,0,1-.4-.2A.59.59,0,0,1,87,62c0-.1,0-.2.1-.2a1.6,1.6,0,0,1,.7-.9h.7l.79.1h.1A3.06,3.06,0,0,1,91.12,61.35Z"/><path class="cls-262" d="M91.12,61.35a2,2,0,0,1,1.2,1,.35.35,0,0,0,.1.2,1.42,1.42,0,0,1,.2.6.37.37,0,0,0,.1.3,17.83,17.83,0,0,1,0,4,9.7,9.7,0,0,0-.1,1.7,16.35,16.35,0,0,1-.2,2.19,1.42,1.42,0,0,1-.2.6c-.2.4-.4.8-.8.8h-.2c-.3-.1-.5-.5-.6-.9a1.1,1.1,0,0,1,0-.8v-.4c.1-1.39.2-2.49.2-3.49v-.5a11,11,0,0,0-.2-2.2c-.2-1-.3-1.2-.4-1.2-.2-.2-.6-.2-1-.3-.2,0-.4-.1-.6-.1s-.7-.1-1.1-.1a.52.52,0,0,1-.4-.2.59.59,0,0,1-.1-.7v-.2a1.6,1.6,0,0,1,.7-.9h.7l.8.1h.09A4.28,4.28,0,0,1,91.12,61.35Z"/><path class="cls-263" d="M91.12,61.35a2,2,0,0,1,1.2,1,.35.35,0,0,0,.1.2,1.42,1.42,0,0,1,.2.6.37.37,0,0,0,.1.3,17.83,17.83,0,0,1,0,4,9.7,9.7,0,0,0-.1,1.7,16.35,16.35,0,0,1-.2,2.19,1.42,1.42,0,0,1-.2.6c-.2.4-.4.8-.8.8h-.2c-.4-.1-.5-.6-.6-.9a2.13,2.13,0,0,1,0-.8v-.4c.1-1.39.2-2.49.2-3.39v-.5a11,11,0,0,0-.2-2.2c-.2-1-.3-1.2-.4-1.2-.2-.2-.6-.2-1-.3-.2,0-.4-.1-.6-.1s-.7-.1-1.1-.1a.52.52,0,0,1-.4-.2.84.84,0,0,1-.2-.7v-.2a1.6,1.6,0,0,1,.7-.9h.7l.8.1h.1A6.86,6.86,0,0,1,91.12,61.35Z"/><path class="cls-264" d="M91.12,61.35a2,2,0,0,1,1.2,1,.35.35,0,0,0,.1.2,1.42,1.42,0,0,1,.2.6.37.37,0,0,0,.1.3,17.83,17.83,0,0,1,0,4,9.7,9.7,0,0,0-.1,1.7,16.35,16.35,0,0,1-.2,2.19,1.42,1.42,0,0,1-.2.6c-.2.4-.4.8-.8.8h-.2a1,1,0,0,1-.7-.9c0-.3.1-.6.1-.8v-.4c.1-1.39.2-2.49.2-3.39v-.5a11,11,0,0,0-.2-2.2c-.2-1-.3-1.1-.4-1.2s-.6-.2-.9-.3-.39-.1-.59-.1-.7-.1-1.1-.1a.52.52,0,0,1-.4-.2A.84.84,0,0,1,87,62v-.2c.1-.3.3-.8.7-.9h.7s.7.1.8.1h.09A6.91,6.91,0,0,1,91.12,61.35Z"/><path class="cls-265" d="M91.12,61.35a2,2,0,0,1,1.2,1,.35.35,0,0,0,.1.2,1.42,1.42,0,0,1,.2.6.37.37,0,0,0,.1.3,17.83,17.83,0,0,1,0,4,9.7,9.7,0,0,0-.1,1.7c0,.69-.1,1.49-.1,2.19a1.42,1.42,0,0,1-.2.6c-.2.4-.4.8-.8.8h-.2a1.8,1.8,0,0,1-.6-.9,2.13,2.13,0,0,1,0-.8v-.4c.1-1.29.2-2.39.2-3.39v-.4a11.8,11.8,0,0,0-.2-2.2c-.2-1-.3-1.1-.4-1.2s-.6-.2-.9-.3-.39-.1-.59-.1-.7-.1-1.1-.1a.52.52,0,0,1-.4-.2.73.73,0,0,1-.2-.6V62a1.07,1.07,0,0,1,.7-.9h.7s.7.1.79.1h.1A3.08,3.08,0,0,1,91.12,61.35Z"/><path class="cls-266" d="M91.12,61.35a2,2,0,0,1,1.2,1,.35.35,0,0,0,.1.2,1.42,1.42,0,0,1,.2.6.37.37,0,0,0,.1.3,17.81,17.81,0,0,1,0,4,9.7,9.7,0,0,0-.1,1.7c0,.69-.1,1.49-.1,2.19a1.42,1.42,0,0,1-.2.6c-.2.4-.4.8-.8.8h-.2a1.8,1.8,0,0,1-.6-.9,2.13,2.13,0,0,1,0-.8v-.4c.1-1.29.2-2.39.2-3.39v-.4a11.8,11.8,0,0,0-.2-2.2c-.2-.9-.3-1.1-.4-1.2s-.6-.2-.9-.3-.39-.1-.59-.1-.7-.1-1.1-.1a.52.52,0,0,1-.4-.2.73.73,0,0,1-.2-.6V62a1.07,1.07,0,0,1,.7-.9h.7s.7.1.79.1h.1A3.08,3.08,0,0,1,91.12,61.35Z"/><path class="cls-267" d="M91.12,61.45a2.41,2.41,0,0,1,1.2,1,.35.35,0,0,0,.1.2,1.42,1.42,0,0,1,.2.6.37.37,0,0,0,.1.3,17,17,0,0,1,0,3.9,9.7,9.7,0,0,0-.1,1.7c0,.69-.1,1.49-.1,2.09a1.42,1.42,0,0,1-.2.6c-.2.3-.4.8-.8.8h-.2c-.3-.2-.6-.5-.6-.8a3.08,3.08,0,0,1,.1-.9v-.4c.1-1.29.2-2.39.2-3.39v-.4a12.73,12.73,0,0,0-.2-2.2,4,4,0,0,0-.3-1.2c-.1-.2-.6-.3-.9-.4s-.39-.1-.59-.1-.7-.1-1-.1-.3,0-.4-.1a.73.73,0,0,1-.2-.6v-.2A1.15,1.15,0,0,1,88,61h.7c.1,0,.69.1.79.1h.1A8.33,8.33,0,0,1,91.12,61.45Z"/></g><g class="cls-268"><path class="cls-269" d="M106.11,103.51v2.2c0,.3-.9.2-.9,0v-2.2Z"/></g><path class="cls-270" d="M105.21,103.41v-2.2c0-.2.9-.2.9,0v2.2Z"/><g class="cls-268"><path class="cls-271" d="M22.69,103.51v2.2c0,.3-.9.2-.9,0v-2.2Z"/></g><path class="cls-272" d="M21.79,103.41v-2.2c0-.2.9-.2.9,0v2.2Z"/><g class="cls-268"><path class="cls-273" d="M106.11,25.19v2.2c0,.3-.9.2-.9,0v-2.2Z"/></g><path class="cls-274" d="M105.21,25.09v-2.2c0-.2.9-.2.9,0v2.2Z"/><g class="cls-268"><path class="cls-275" d="M22.69,25.19v2.2c0,.3-.9.2-.9,0v-2.2Z"/></g><path class="cls-276" d="M21.79,25.09v-2.2c0-.2.9-.2.9,0v2.2Z"/></svg>