<?xml version="1.0" encoding="UTF-8" standalone="no"?>
<svg
   xmlns:dc="http://purl.org/dc/elements/1.1/"
   xmlns:cc="http://creativecommons.org/ns#"
   xmlns:rdf="http://www.w3.org/1999/02/22-rdf-syntax-ns#"
   xmlns:svg="http://www.w3.org/2000/svg"
   xmlns="http://www.w3.org/2000/svg"
   xmlns:sodipodi="http://sodipodi.sourceforge.net/DTD/sodipodi-0.dtd"
   xmlns:inkscape="http://www.inkscape.org/namespaces/inkscape"
   id="Layer_1"
   enable-background="new 0 0 283.051 433.051"
   xml:space="preserve"
   viewBox="0 0 283.051 433.051"
   version="1.1"
   y="0px"
   x="0px"
   sodipodi:docname="film-1.svg"
   inkscape:version="1.0.2 (e86c870879, 2021-01-15)"><defs
   id="defs176" /><sodipodi:namedview
   pagecolor="#ffffff"
   bordercolor="#666666"
   borderopacity="1"
   objecttolerance="10"
   gridtolerance="10"
   guidetolerance="10"
   inkscape:pageopacity="0"
   inkscape:pageshadow="2"
   inkscape:window-width="956"
   inkscape:window-height="480"
   id="namedview174"
   showgrid="false"
   inkscape:zoom="1.8335023"
   inkscape:cx="141.5255"
   inkscape:cy="216.5255"
   inkscape:window-x="26"
   inkscape:window-y="23"
   inkscape:window-maximized="0"
   inkscape:current-layer="Layer_1" />
<g
   id="g169">
	<path
   d="m125.71 34.084c9.506-5.487 23.815-8.562 35.316-4.815 30.767 12.843 44.14 44.141 51.771 73.164 10.695 40.942 6.555 88.56-12.577 124.81 8.427 28.501 26.885 54.049 52.032 73.18 4.819 39.321 11.238 80.662 19.531 119.18l-1.869 0.943c-50.562-25.821-98.188-75.183-107.54-131.36-1.88-8.303-2.812-17.123-4.153-25.682-11.37 0.932-22.878-2.007-32.105-7.363-14.449 13.779-35.985 20.736-54.579 13.779-36.789-16.854-51.375-56.979-56.852-93.371-4.416-45.741 2.41-93.637 29.562-130.29 13.778-17.921 35.184-33.842 58.464-27.021 8.95 1.874 16.04 8.697 22.99 14.845z"
   id="path2" />
	<linearGradient
   id="SVGID_1_"
   y2="147.23"
   gradientUnits="userSpaceOnUse"
   x2="157.26"
   y1="147.23"
   x1="25.248">
		<stop
   style="stop-color:#FFFFFF"
   offset="0"
   id="stop4" />
		<stop
   style="stop-color:#58595B"
   offset="1"
   id="stop6" />
	</linearGradient>
	<path
   d="m129.32 51.742c21.94 32.237 29.836 71.703 27.562 111.69-3.075 30.103-10.303 58.995-31.437 82.14-11.907 12.572-29.028 19.8-45.884 15.113-26.619-9.224-39.462-38.394-47.219-63.001-14.308-48.29-6.276-98.051 17.925-138.98 10.705-16.185 28.362-29.566 49.238-25.687 11.37 2.545 21.66 9.227 29.82 18.729z"
   fill="url(#SVGID_1_)"
   id="path9" />
	<path
   d="m49.241 58.022c-25.596 43.282-32.009 92.995-18.075 140.01 7.166 22.743 19.939 54.087 47.991 63.813 16.17 4.498 33.777-1.276 47.181-15.43 23.25-25.462 29.182-57.652 31.765-82.859 2.464-43.306-7.135-82.194-27.767-112.5l-0.085-0.109c-8.566-9.973-19.1-16.586-30.484-19.135-18.513-3.433-37.381 6.362-50.515 26.216m30.655 201.48c-26.946-9.339-39.383-39.967-46.387-62.191-13.732-46.334-7.402-95.343 17.809-137.99 12.537-18.951 30.473-28.348 47.953-25.1 10.801 2.417 20.871 8.739 29.062 18.269 18.214 26.789 27.7 60.402 27.7 97.864 0 4.289-0.124 8.628-0.379 13.014-2.525 24.773-8.356 56.465-31.115 81.377-12.75 13.47-29.445 18.99-44.644 14.76z"
   fill="#FFFFFF"
   id="path11" />
	<linearGradient
   id="SVGID_2_"
   y2="127.45"
   gradientUnits="userSpaceOnUse"
   x2="210.99"
   y1="127.45"
   x1="133.47">
		<stop
   style="stop-color:#FFFFFF"
   offset="0"
   id="stop13" />
		<stop
   style="stop-color:#58595B"
   offset="1"
   id="stop15" />
	</linearGradient>
	<path
   d="m199.01 84.381c9.634 24.348 13.38 51.635 11.51 78.66-1.474 18.454-4.95 36.116-13.105 51.766-8.834-41.87-2.686-86.548-17.659-126.55-6.431-16.455-22.349-35.308-41.201-37.856l-5.089-6.683c13.38-6.83 30.239-3.485 41.472 5.747 11.5 9.367 19.26 21.672 24.07 34.913z"
   fill="url(#SVGID_2_)"
   id="path18" />
	<path
   d="m132.91 42.619l-1.304 0.673 6.273 8.264 0.508 0.065c17.843 2.406 33.748 20.477 40.219 37.083 8.708 23.242 10.251 48.653 11.752 73.226 1.074 17.549 2.181 35.698 5.855 53.131l0.702 3.349 1.582-3.036c7.31-14.027 11.514-30.625 13.247-52.238 0.32-4.529 0.467-9.05 0.467-13.547 0-23.08-4.1-45.529-12.055-65.643-5.32-14.642-13.542-26.56-24.444-35.431-12.46-10.222-29.66-12.589-42.81-5.887m41.25 7.797c10.558 8.593 18.536 20.16 23.702 34.383l0.013 0.035c7.843 19.831 11.888 41.982 11.888 64.749 0 4.443-0.151 8.898-0.456 13.369-1.553 19.402-5.253 34.553-11.297 47.505-3.002-16.018-4.215-32.569-5.197-48.677-1.513-24.75-3.067-50.351-11.904-73.949-6.485-16.603-22.235-35.566-41.63-38.51-0.375-0.479-2.607-3.434-3.82-5.023 11.95-5.341 27.6-3.006 38.71 6.118m26 33.532c0.008 0.004 0.008 0.007 0.008 0.016l-0.008-0.031v0.015z"
   fill="#FFFFFF"
   id="path20" />
	<path
   d="m137.36 106.32c0.8 5.225 2.139 11.247 2.542 15.655-6.687-24.611-11.912-48.561-30.234-68.357-6.424-5.615-14.047-9.498-22.744-8.698 8.16-2.803 16.985 0.538 23.412 5.759 16.18 14.972 20.99 35.84 27.02 55.636z"
   id="path22" />
	<path
   d="m86.255 52.272c6.148 10.31 5.216 27.287-1.609 36.92-2.939 1.207-6.555 3.48-10.298 1.616-8.033-6.427-8.83-17.526-6.699-27.291 0.952-5.754 3.752-12.978 9.908-14.451 3.477-0.542 6.555 0.534 8.698 3.206z"
   id="path24" />
	<path
   d="m65.786 52.272c-2.004 5.089-6.285 9.243-8.698 14.181-9.363 15.515-17.128 31.839-20.601 49.767 2.676-23.28 11.644-46.02 27.952-63.948h1.347z"
   id="path26" />
	<radialGradient
   id="SVGID_3_"
   gradientUnits="userSpaceOnUse"
   cy="70.042"
   cx="79.755"
   r="12.666">
		<stop
   style="stop-color:#7DA7D9"
   offset=".0056"
   id="stop28" />
		<stop
   style="stop-color:#58595B"
   offset="1"
   id="stop30" />
	</radialGradient>
	<path
   d="m84.378 56.823c3.608 8.562 2.936 19.661-0.66 27.964-1.617 2.537-4.692 1.868-6.694 0.661-4.412-3.608-3.616-8.554-4.285-13.907 1.207-6.559 0.804-14.85 7.49-17.928 2.274-0.397 3.21 1.606 4.149 3.21z"
   fill="url(#SVGID_3_)"
   id="path33" />
	<linearGradient
   id="SVGID_4_"
   y2="93.136"
   gradientUnits="userSpaceOnUse"
   x2="150.82"
   y1="403.87"
   x1="234.23">
		<stop
   style="stop-color:#B2804C"
   offset="0"
   id="stop35" />
		<stop
   style="stop-color:#000000"
   offset="1"
   id="stop37" />
	</linearGradient>
	<path
   d="m186.18 154.35c0.794 23.133 2.674 48.692 8.292 72.893 5.887 31.046 23.273 60.476 48.824 81.61 4.949 32.368 10.167 64.071 15.65 96.309-30.628-17.255-57.784-45.479-75.442-75.848-17.397-35.045-22.873-76.118-25.021-116.78 0.801-7.093-1.736-15.249 0.937-21.804l3.887 40.397 1.33 1.338c8.562-2.943 17.525-2.012 25.689-5.882-2.544-12.178-1.346-26.889-4.821-39.062-8.56 0.668-17.389 0.936-25.68 2.138-0.405 0.135 0.669-1.068 0.268-1.868 7.889-2.815 18.061-0.809 25.412-4.146l0.938-0.944c-1.47-8.698-0.938-18.865-2.939-27.693l-0.536-0.661-18.331 1.999v-1.999c5.221-1.745 11.778-1.613 16.992-2.553 1.339-0.928 2.943-1.864 2.27-3.469l-2.536-20.199-1.602-1.608-15.786 1.608c-0.668-0.402-0.266-1.071-0.266-1.608 5.615-0.94 11.233-0.805 16.987-2.676 0.265-7.359-2.142-14.312-4.552-21.134-2.413-2.541-5.749-0.673-8.964-0.275-2.4 0.275-4.68 0.673-7.088 0.943-0.137-0.402 0.271-1.071-0.268-1.342 4.955-0.928 10.431-0.391 14.715-2.808-1.604-6.148-2.942-12.704-8.294-16.988-4.281 1.075-7.89 1.473-12.179 1.207 3.619-1.478 8.032-0.94 11.512-2.808-0.271-4.281-4.686-6.69-7.358-10.303-2.677-1.469-4.547 1.068-6.821 1.605 0.401-1.605 4.551-1.875 3.882-4.814l-11.509-7.359-0.661-1.071c36.51 16.987 39.72 59.259 43.07 95.649z"
   fill="url(#SVGID_4_)"
   id="path40" />
	<linearGradient
   id="SVGID_5_"
   y2="66.256"
   gradientUnits="userSpaceOnUse"
   x2="151.4"
   y1="66.256"
   x1="145.65">
		<stop
   style="stop-color:#7EA6CF"
   offset=".0056"
   id="stop42" />
		<stop
   style="stop-color:#444B4C"
   offset="1"
   id="stop44" />
	</linearGradient>
	<path
   d="m151.4 67.393c-0.801 1.203-2.009 1.474-3.214 1.601l-2.537-5.476c2.13 0.669 4.01 2.405 5.75 3.875z"
   fill="url(#SVGID_5_)"
   id="path47" />
	<linearGradient
   id="SVGID_6_"
   y2="76.554"
   gradientUnits="userSpaceOnUse"
   x2="162.62"
   y1="76.554"
   x1="151.4">
		<stop
   style="stop-color:#7EA6CF"
   offset=".0056"
   id="stop49" />
		<stop
   style="stop-color:#444B4C"
   offset="1"
   id="stop51" />
	</linearGradient>
	<path
   d="m162.62 78.627c-3.062 0.406-6.411 1.608-9.884 1.608l-1.342-4.416 6.414-2.947 4.81 5.755z"
   fill="url(#SVGID_6_)"
   id="path54" />
	<linearGradient
   id="SVGID_7_"
   y2="92.145"
   gradientUnits="userSpaceOnUse"
   x2="171.73"
   y1="92.145"
   x1="155.68">
		<stop
   style="stop-color:#7EA6CF"
   offset=".0056"
   id="stop56" />
		<stop
   style="stop-color:#444B4C"
   offset="1"
   id="stop58" />
	</linearGradient>
	<path
   d="m171.73 96.954l-12.84 1.609-3.206-10.569c3.474-1.207 8.025-0.135 11.239-2.266 2.54 3.34 3.88 7.212 4.81 11.226z"
   fill="url(#SVGID_7_)"
   id="path61" />
	<polygon
   points="160.76 105.24 165.31 104.31 165.84 104.31"
   fill="#FFFFFF"
   id="polygon63" />
	<path
   d="m166.92 104.31h1.193-1.19z"
   fill="#FFFFFF"
   id="path65" />
	<linearGradient
   id="SVGID_8_"
   y2="113.94"
   gradientUnits="userSpaceOnUse"
   x2="178.41"
   y1="113.94"
   x1="161.03">
		<stop
   style="stop-color:#7EA6CF"
   offset=".0056"
   id="stop67" />
		<stop
   style="stop-color:#444B4C"
   offset="1"
   id="stop69" />
	</linearGradient>
	<path
   d="m178.42 121.04l-15.109 1.872c-0.806-4.949-0.933-10.031-2.278-14.71 4.28-1.609 9.1-2.146 13.512-3.214 2.28 4.94 3.61 10.69 3.88 16.05z"
   fill="url(#SVGID_8_)"
   id="path72" />
	<path
   d="m90.802 118.49c7.889 13.779 10.964 31.974 4.409 46.824 0 4.684-3.477 8.825-5.349 13.11-4.145 5.221-10.038 8.16-16.722 6.822-15.519-8.291-16.191-27.422-15.117-43.081 0.937-9.494 4.954-17.921 10.303-25.682 2.939-1.469 5.62-5.085 9.633-5.085 5.082 0.27 9.355 2.68 12.843 7.09z"
   id="path74" />
	<radialGradient
   id="SVGID_9_"
   gradientUnits="userSpaceOnUse"
   cy="149"
   cx="79.523"
   r="23.256">
		<stop
   style="stop-color:#7DA7D9"
   offset=".0056"
   id="stop76" />
		<stop
   style="stop-color:#58595B"
   offset="1"
   id="stop78" />
	</radialGradient>
	<path
   d="m91.069 132.27c4.417 14.854 2.671 32.771-7.093 44.551-2.679 1.067-5.484 2.808-8.557 1.604-12.844-6.423-9.236-24.483-9.363-35.59 0.66-9.629 4.006-20.597 14.172-23.671 6.556 0.27 8.83 8.03 10.841 13.11z"
   fill="url(#SVGID_9_)"
   id="path81" />
	<path
   d="m136.68 128.66c5.221 10.43 4.281 23.281 1.609 34.38-2.004 5.886-7.088 15.244-14.715 16.048-6.017-0.936-10.708-6.288-12.575-11.903h-0.667c-2.545-8.698-4.69-19.267-1.875-28.49 2.277-6.822 5.357-17.391 14.71-18.33 6.03-1.07 10.43 3.61 13.51 8.29z"
   id="path83" />
	<radialGradient
   id="SVGID_10_"
   gradientUnits="userSpaceOnUse"
   cy="149.44"
   cx="125.41"
   r="17.279">
		<stop
   style="stop-color:#7DA7D9"
   offset=".0056"
   id="stop85" />
		<stop
   style="stop-color:#58595B"
   offset="1"
   id="stop87" />
	</radialGradient>
	<path
   d="m134.81 142.16c1.208 10.036 0.128 22.616-8.433 29.573-1.466 0.263-3.338-0.135-4.812-0.943-7.22-9.223-6.153-22.469-5.484-32.767 1.206-4.146 2.274-10.171 7.753-10.972 8.16 0.4 8.83 9.51 10.97 15.11z"
   fill="url(#SVGID_10_)"
   id="path90" />
	<path
   d="m48.395 131.6c5.479 7.359 5.623 16.586 4.811 25.686-0.801 4.95-3.74 9.099-7.352 12.575-3.74 1.47-8.16 1.47-10.967-1.337-6.289-9.629-6.559-24.479-0.669-33.97 2.537-2.019 3.736-4.823 6.822-5.495 2.408-0.14 5.215 1.07 7.355 2.54z"
   id="path92" />
	<linearGradient
   id="SVGID_11_"
   y2="140.16"
   gradientUnits="userSpaceOnUse"
   x2="181.65"
   y1="140.16"
   x1="163.97">
		<stop
   style="stop-color:#7EA6CF"
   offset=".0056"
   id="stop94" />
		<stop
   style="stop-color:#444B4C"
   offset="1"
   id="stop96" />
	</linearGradient>
	<path
   d="m179.76 129.73c0.129 6.285 2.131 12.971 1.868 19.534l-0.933-0.673-16.06 1.999-0.662-18.056c5.48-0.4 10.02-2.8 15.78-2.8z"
   fill="url(#SVGID_11_)"
   id="path99" />
	<radialGradient
   id="SVGID_12_"
   gradientUnits="userSpaceOnUse"
   cy="149.54"
   cx="42.703"
   r="13.284">
		<stop
   style="stop-color:#7DA7D9"
   offset=".0056"
   id="stop101" />
		<stop
   style="stop-color:#58595B"
   offset="1"
   id="stop103" />
	</radialGradient>
	<path
   d="m48.131 135.08c3.206 8.829 5.344 22.34-2.011 29.959-1.875 2.548-5.082 0.672-7.351 0.274-6.83-7.491-4.688-20.469-0.94-28.896 1.736-4.81 7.495-4.53 10.302-1.33z"
   fill="url(#SVGID_12_)"
   id="path106" />
	<linearGradient
   id="SVGID_13_"
   y2="170.46"
   gradientUnits="userSpaceOnUse"
   x2="183.9"
   y1="170.46"
   x1="161.7">
		<stop
   style="stop-color:#7EA6CF"
   offset=".0056"
   id="stop108" />
		<stop
   style="stop-color:#444B4C"
   offset="1"
   id="stop110" />
	</linearGradient>
	<path
   d="m183.9 181.36l-22.201 1.338c0.804-6.69 2.277-15.782 2.545-22.202l17.649-2.278c1.48 7.36 1.21 15.92 2.01 23.14z"
   fill="url(#SVGID_13_)"
   id="path113" />
	<path
   d="m122.5 231.8c-8.822 11.771-21.397 21.397-36.92 18.59 27.164-0.264 41.606-28.359 49.233-49.76 2.14-8.024 6.017-15.38 6.687-24.078 1.334-0.804 0.128-2.544 0.939-3.476-0.94 20.47-9.23 40.8-19.94 58.73z"
   id="path115" />
	<path
   d="m38.499 178.15c0.402 23.68 12.301 43.479 24.606 62.603-13.775-12.839-21.393-31.572-26.216-49.763l-2.672-14.445c2.007-2.13 2.537 1.21 4.282 1.61z"
   id="path117" />
	<linearGradient
   id="SVGID_14_"
   y2="209.32"
   gradientUnits="userSpaceOnUse"
   x2="188.05"
   y1="209.32"
   x1="164.64">
		<stop
   style="stop-color:#7EA6CF"
   offset=".0056"
   id="stop119" />
		<stop
   style="stop-color:#444B4C"
   offset="1"
   id="stop121" />
	</linearGradient>
	<path
   d="m184.57 190.73c1.066 11.103 1.334 23.006 3.479 33.308-6.689 1.744-13.512 3.074-20.604 3.879-1.869-10.705-2.812-22.871-2.812-34.379 6.55-1.2 13.38-1.47 19.93-2.81z"
   fill="url(#SVGID_14_)"
   id="path124" />
	<path
   d="m87.859 211.2c4.416 10.167 6.013 24.615-2.544 33.447-2.274 2.669-5.218 2.939-8.698 2.267-6.953-2.939-9.901-10.972-10.303-18.319 0.402-9.367 2.684-20.206 12.31-23.416 3.341 0.4 7.356 2.4 9.235 6.02z"
   id="path126" />
	<radialGradient
   id="SVGID_15_"
   gradientUnits="userSpaceOnUse"
   cy="225.65"
   cx="79.517"
   r="13.784">
		<stop
   style="stop-color:#7DA7D9"
   offset=".0056"
   id="stop128" />
		<stop
   style="stop-color:#58595B"
   offset="1"
   id="stop130" />
	</radialGradient>
	<path
   d="m85.047 211.2c4.68 7.224 4.68 18.458 1.872 26.088-2.274 3.342-4.955 6.146-9.362 5.349-5.747-3.346-6.551-9.896-7.359-16.049 0.665-6.822 1.739-14.321 8.032-17.932 2.804-0.54 4.945 0.66 6.817 2.54z"
   fill="url(#SVGID_15_)"
   id="path133" />
	<linearGradient
   id="SVGID_16_"
   y2="227.25"
   gradientUnits="userSpaceOnUse"
   x2="155.01"
   y1="227.25"
   x1="139.9">
		<stop
   style="stop-color:#B2804C"
   offset="0"
   id="stop135" />
		<stop
   style="stop-color:#000000"
   offset="1"
   id="stop137" />
	</linearGradient>
	<path
   d="m155.01 232.06c-4.945 3.214-9.636 6.826-15.112 8.693 5.08-7.352 9.229-17.92 13.775-27.02l1.33 18.33z"
   fill="url(#SVGID_16_)"
   id="path140" />
	<path
   d="m192.19 231.13c3.341 12.572 7.761 25.679 12.847 37.589l-0.937 2.537c-8.426 6.957-18.466 11.509-27.286 18.335l-2.278-2.278c-5.486-16.323-8.961-33.041-9.903-50.433l0.672-0.939c8.98-1.61 17.67-4.69 26.89-4.82z"
   id="path142" />
	<linearGradient
   id="SVGID_17_"
   y2="258.21"
   gradientUnits="userSpaceOnUse"
   x2="201.56"
   y1="258.21"
   x1="168.78">
		<stop
   style="stop-color:#7EA6CF"
   offset=".0056"
   id="stop144" />
		<stop
   style="stop-color:#444B4C"
   offset="1"
   id="stop146" />
	</linearGradient>
	<path
   d="m189.66 233.67c3.743 11.771 7.763 23.813 11.899 35.048-7.22 5.353-14.842 9.766-22.473 14.046-6.28-13.241-8.828-28.223-10.298-43.606 6.82-2.15 13.91-3.48 20.87-5.49z"
   fill="url(#SVGID_17_)"
   id="path149" />
	<linearGradient
   id="SVGID_18_"
   y2="188.15"
   gradientUnits="userSpaceOnUse"
   x2="132.86"
   y1="73.28"
   x1="111.53">
		<stop
   style="stop-color:#FFFFFF"
   offset="0"
   id="stop151" />
		<stop
   style="stop-color:#58595B"
   offset="1"
   id="stop153" />
	</linearGradient>
	<path
   d="m156.61 255.88c-8.832 2.271-17.796-0.804-25.013-4.823 2.671-4.403 8.693-3.341 12.835-5.75l10.844-6.148 1.33 16.72z"
   fill="url(#SVGID_18_)"
   id="path156" />
	<path
   d="m207.97 274.74c7.228 13.771 18.2 27.148 29.84 37.983 2.943 22.608 5.48 46.419 8.956 69.297-0.665 1.868-2.938 0.533-4.149 0-31.561-19.804-55.907-52.71-66.075-87.353 9.633-8.028 20.338-13.787 30.769-19.928h0.66z"
   id="path158" />
	<linearGradient
   id="SVGID_19_"
   y2="327.1"
   gradientUnits="userSpaceOnUse"
   x2="241.69"
   y1="327.1"
   x1="181.89">
		<stop
   style="stop-color:#7EA6CF"
   offset=".0056"
   id="stop160" />
		<stop
   style="stop-color:#444B4C"
   offset="1"
   id="stop162" />
	</linearGradient>
	<path
   d="m235.27 314.6c2.548 20.207 3.743 41.07 6.424 61.265-28.892-18.585-50.162-48.418-59.8-79.591 7.901-5.48 16.062-12.975 24.75-17.922 7.9 12.84 18.73 24.87 28.63 36.25z"
   fill="url(#SVGID_19_)"
   id="path165" />
	<path
   d="m217.88 365.03l-0.669 0.93 0.67-0.93z"
   id="path167" />
</g>
<metadata
   id="metadata171"><rdf:RDF><cc:Work><dc:format>image/svg+xml</dc:format><dc:type
         rdf:resource="http://purl.org/dc/dcmitype/StillImage" /><cc:license
         rdf:resource="http://creativecommons.org/licenses/publicdomain/" /><dc:publisher><cc:Agent
           rdf:about="http://openclipart.org/"><dc:title>Openclipart</dc:title></cc:Agent></dc:publisher><dc:title></dc:title></cc:Work><cc:License
       rdf:about="http://creativecommons.org/licenses/publicdomain/"><cc:permits
         rdf:resource="http://creativecommons.org/ns#Reproduction" /><cc:permits
         rdf:resource="http://creativecommons.org/ns#Distribution" /><cc:permits
         rdf:resource="http://creativecommons.org/ns#DerivativeWorks" /></cc:License></rdf:RDF></metadata></svg>
