<?xml version="1.0" encoding="UTF-8" standalone="no"?>
<!-- Generator: Adobe Illustrator 19.0.0, SVG Export Plug-In . SVG Version: 6.00 Build 0)  -->

<svg
   version="1.1"
   id="Layer_1"
   x="0px"
   y="0px"
   viewBox="0 0 128 85.33342"
   xml:space="preserve"
   sodipodi:docname="moteur_2_source.svg"
   width="128"
   height="85.33342"
   inkscape:version="1.1 (c68e22c387, 2021-05-23)"
   xmlns:inkscape="http://www.inkscape.org/namespaces/inkscape"
   xmlns:sodipodi="http://sodipodi.sourceforge.net/DTD/sodipodi-0.dtd"
   xmlns="http://www.w3.org/2000/svg"
   xmlns:svg="http://www.w3.org/2000/svg"><defs
   id="defs69" /><sodipodi:namedview
   id="namedview67"
   pagecolor="#ffffff"
   bordercolor="#666666"
   borderopacity="1.0"
   inkscape:pageshadow="2"
   inkscape:pageopacity="0.0"
   inkscape:pagecheckerboard="0"
   showgrid="false"
   fit-margin-top="0"
   fit-margin-left="0"
   fit-margin-right="0"
   fit-margin-bottom="0"
   inkscape:zoom="1.515625"
   inkscape:cx="43.216495"
   inkscape:cy="42.886598"
   inkscape:window-width="1920"
   inkscape:window-height="979"
   inkscape:window-x="0"
   inkscape:window-y="0"
   inkscape:window-maximized="1"
   inkscape:current-layer="g34" />
<g
   transform="translate(-190.9995,-212.33379)"
   id="g34">
	<g
   id="g6"
   transform="matrix(0.25000049,0,0,0.25000049,191.2495,191.25025)"
   style="stroke-width:3.99999">
		<polygon
   style="fill:#ffdd09;stroke-width:3.99999"
   points="41.667,229.4 41.667,365.933 109.933,365.933 109.933,229.4 "
   id="polygon2" />
		<polygon
   style="fill:#000000;fill-opacity:1;stroke-width:3.99999"
   points="109.933,229.4 109.933,195.267 340.333,195.267 340.333,229.4 383,229.4 408.6,272.067 442.733,272.067 468.333,195.267 502.467,195.267 502.467,417.133 468.333,417.133 442.733,365.933 408.6,365.933 383,417.133 144.067,417.133 109.933,365.933 41.667,365.933 41.667,229.4 "
   id="polygon4" />
	</g>
	<polygon
   style="fill:#000000;fill-opacity:0.491627;stroke-width:3.99999"
   points="502.467,417.133 502.467,195.267 476.867,195.267 476.867,417.133 "
   id="polygon8"
   transform="matrix(0.25000049,0,0,0.25000049,191.2495,191.25025)" />
	<g
   id="g14"
   transform="matrix(0.25000049,0,0,0.25000049,191.2495,191.25025)"
   style="stroke-width:3.99999">
		<polygon
   style="fill:#000000;fill-opacity:1;stroke-width:3.99999"
   points="152.6,92.867 152.6,144.067 306.2,144.067 306.2,92.867 "
   id="polygon10" />
		<polygon
   style="fill:#000000;fill-opacity:1;stroke-width:3.99999"
   points="186.733,144.067 186.733,195.267 272.067,195.267 272.067,144.067 "
   id="polygon12" />
	</g>
	<polygon
   style="fill:#000000;fill-opacity:0.491026;stroke-width:3.99999"
   points="67.267,365.933 67.267,229.4 41.667,229.4 41.667,365.933 "
   id="polygon16"
   transform="matrix(0.25000049,0,0,0.25000049,191.2495,191.25025)" />
	<polygon
   style="fill:#000000;fill-opacity:1;stroke-width:3.99999"
   points="442.733,365.933 442.733,272.067 408.6,272.067 408.6,365.933 "
   id="polygon18"
   transform="matrix(0.25000049,0,0,0.25000049,191.2495,191.25025)" />
	<path
   d="m 502.467,425.667 h -34.133 c -3.413,0 -5.973,-1.707 -7.68,-5.12 l -23.04,-46.08 H 413.72 l -23.04,46.08 c -1.707,3.413 -4.267,5.12 -7.68,5.12 H 144.067 c -2.56,0 -5.12,-1.707 -6.827,-3.413 l -31.573,-47.787 h -64 c -5.12,0 -8.533,-3.413 -8.533,-8.533 V 229.4 c 0,-5.12 3.413,-8.533 8.533,-8.533 H 101.4 v -25.6 c 0,-2.56 0.853,-4.267 2.56,-5.973 1.707,-1.706 3.413,-2.56 5.973,-2.56 h 230.4 c 5.12,0 8.533,3.413 8.533,8.533 v 25.6 H 383 c 3.413,0 5.973,1.707 7.68,4.267 l 23.04,38.4 h 23.04 l 23.893,-70.827 c 0.853,-3.413 4.267,-5.973 7.68,-5.973 h 34.133 c 5.12,0 8.533,3.413 8.533,8.533 v 221.867 c 10e-4,5.119 -3.412,8.533 -8.532,8.533 z M 473.453,408.6 h 20.48 V 203.8 h -19.627 l -23.893,70.827 c -0.853,3.413 -4.267,5.973 -7.68,5.973 H 408.6 c -3.413,0 -5.973,-1.707 -7.68,-4.267 l -23.04,-38.4 h -37.547 c -5.12,0 -8.533,-3.413 -8.533,-8.533 V 203.8 H 118.467 v 25.6 c 0,2.56 -0.853,4.267 -2.56,5.973 -1.707,1.707 -3.413,2.56 -5.973,2.56 H 50.2 V 357.4 h 59.733 c 2.56,0 5.12,1.707 6.827,3.413 l 31.573,47.787 h 228.693 l 23.04,-46.08 c 1.707,-2.56 4.267,-5.12 7.68,-5.12 h 34.133 c 3.413,0 5.973,1.707 7.68,5.12 z"
   id="path20"
   transform="matrix(0.25000049,0,0,0.25000049,191.2495,191.25025)"
   style="stroke-width:3.99999" />
	<path
   d="M 41.667,297.667 H 7.533 c -5.12,0 -8.533,-3.413 -8.533,-8.533 0,-5.12 3.413,-8.533 8.533,-8.533 h 34.133 c 5.12,0 8.533,3.413 8.533,8.533 0,5.12 -3.412,8.533 -8.532,8.533 z"
   id="path22"
   transform="matrix(0.25000049,0,0,0.25000049,191.2495,191.25025)"
   style="stroke-width:3.99999" />
	<path
   d="M 7.533,331.8 C 2.413,331.8 -1,328.387 -1,323.267 V 255 c 0,-5.12 3.413,-8.533 8.533,-8.533 5.12,0 8.533,3.413 8.533,8.533 v 68.267 c 0.001,5.12 -3.413,8.533 -8.533,8.533 z"
   id="path24"
   transform="matrix(0.25000049,0,0,0.25000049,191.2495,191.25025)"
   style="stroke-width:3.99999" />
	<path
   d="M 306.2,152.6 H 152.6 c -5.12,0 -8.533,-3.413 -8.533,-8.533 v -51.2 c 0,-5.12 3.413,-8.533 8.533,-8.533 h 153.6 c 5.12,0 8.533,3.413 8.533,8.533 v 51.2 c 0,5.12 -3.413,8.533 -8.533,8.533 z M 161.133,135.533 H 297.666 V 101.4 H 161.133 Z"
   id="path26"
   transform="matrix(0.25000049,0,0,0.25000049,191.2495,191.25025)"
   style="stroke-width:3.99999" />
	<path
   d="m 272.067,203.8 h -85.333 c -5.12,0 -8.533,-3.413 -8.533,-8.533 v -51.2 c 0,-5.12 3.413,-8.533 8.533,-8.533 h 85.333 c 5.12,0 8.533,3.413 8.533,8.533 v 51.2 c 0,5.12 -3.413,8.533 -8.533,8.533 z m -76.8,-17.067 h 68.267 V 152.6 h -68.267 z"
   id="path28"
   transform="matrix(0.25000049,0,0,0.25000049,191.2495,191.25025)"
   style="stroke-width:3.99999" />
	<path
   d="M 109.933,374.467 H 41.667 c -5.12,0 -8.533,-3.413 -8.533,-8.533 V 229.4 c 0,-5.12 3.413,-8.533 8.533,-8.533 h 68.267 c 5.12,0 8.533,3.413 8.533,8.533 v 136.533 c 0,5.12 -3.414,8.534 -8.534,8.534 z M 50.2,357.4 h 51.2 V 237.933 H 50.2 Z"
   id="path30"
   transform="matrix(0.25000049,0,0,0.25000049,191.2495,191.25025)"
   style="stroke-width:3.99999" />
	<path
   d="M 442.733,374.467 H 408.6 c -5.12,0 -8.533,-3.413 -8.533,-8.533 v -93.867 c 0,-5.12 3.413,-8.533 8.533,-8.533 h 34.133 c 5.12,0 8.533,3.413 8.533,8.533 v 93.867 c 10e-4,5.119 -3.413,8.533 -8.533,8.533 z M 417.133,357.4 H 434.2 v -76.8 h -17.067 z"
   id="path32"
   transform="matrix(0.25000049,0,0,0.25000049,191.2495,191.25025)"
   style="stroke-width:3.99999" />
</g>
<g
   id="g36"
   transform="translate(-191.9995,-213.33379)">
</g>
<g
   id="g38"
   transform="translate(-191.9995,-213.33379)">
</g>
<g
   id="g40"
   transform="translate(-191.9995,-213.33379)">
</g>
<g
   id="g42"
   transform="translate(-191.9995,-213.33379)">
</g>
<g
   id="g44"
   transform="translate(-191.9995,-213.33379)">
</g>
<g
   id="g46"
   transform="translate(-191.9995,-213.33379)">
</g>
<g
   id="g48"
   transform="translate(-191.9995,-213.33379)">
</g>
<g
   id="g50"
   transform="translate(-191.9995,-213.33379)">
</g>
<g
   id="g52"
   transform="translate(-191.9995,-213.33379)">
</g>
<g
   id="g54"
   transform="translate(-191.9995,-213.33379)">
</g>
<g
   id="g56"
   transform="translate(-191.9995,-213.33379)">
</g>
<g
   id="g58"
   transform="translate(-191.9995,-213.33379)">
</g>
<g
   id="g60"
   transform="translate(-191.9995,-213.33379)">
</g>
<g
   id="g62"
   transform="translate(-191.9995,-213.33379)">
</g>
<g
   id="g64"
   transform="translate(-191.9995,-213.33379)">
</g>
</svg>
