<?xml version="1.0" encoding="UTF-8" standalone="no"?>
<!-- Generator: Adobe Illustrator 19.0.0, SVG Export Plug-In . SVG Version: 6.00 Build 0)  -->

<svg
   version="1.1"
   id="Layer_1"
   x="0px"
   y="0px"
   viewBox="0 0 128.00001 128.00001"
   xml:space="preserve"
   sodipodi:docname="arret_urgence_source.svg"
   width="128"
   height="128"
   inkscape:version="1.1 (c68e22c387, 2021-05-23)"
   xmlns:inkscape="http://www.inkscape.org/namespaces/inkscape"
   xmlns:sodipodi="http://sodipodi.sourceforge.net/DTD/sodipodi-0.dtd"
   xmlns="http://www.w3.org/2000/svg"
   xmlns:svg="http://www.w3.org/2000/svg"><defs
   id="defs49"><rect
     x="16.566013"
     y="37.046635"
     width="75.808192"
     height="51.981561"
     id="rect4631" /></defs><sodipodi:namedview
   id="namedview47"
   pagecolor="#ffffff"
   bordercolor="#666666"
   borderopacity="1.0"
   inkscape:pageshadow="2"
   inkscape:pageopacity="0.0"
   inkscape:pagecheckerboard="0"
   showgrid="false"
   fit-margin-top="0"
   fit-margin-left="0"
   fit-margin-right="0"
   fit-margin-bottom="0"
   inkscape:zoom="2.1434133"
   inkscape:cx="82.81184"
   inkscape:cy="69.515291"
   inkscape:window-width="1920"
   inkscape:window-height="979"
   inkscape:window-x="0"
   inkscape:window-y="0"
   inkscape:window-maximized="1"
   inkscape:current-layer="g14" />
<path
   style="fill:#ffffff;stroke-width:4.00001;fill-opacity:1"
   d="M 346.329,0 H 165.671 C 155.612,0 145.966,3.995 138.854,11.109 L 11.109,138.853 C 3.995,145.965 0,155.612 0,165.671 V 346.33 c 0,10.059 3.995,19.705 11.109,26.817 l 127.745,127.745 c 7.112,7.112 16.759,11.109 26.817,11.109 H 346.33 c 10.059,0 19.705,-3.995 26.817,-11.109 L 500.892,373.147 c 7.112,-7.112 11.109,-16.76 11.109,-26.817 V 165.671 c 0,-10.059 -3.995,-19.705 -11.109,-26.817 L 373.147,11.109 C 366.035,3.995 356.388,0 346.329,0 Z"
   id="path2"
   transform="scale(0.24999951)" />
<path
   style="fill:#000000;stroke-width:4.00001;fill-opacity:1;opacity:0.40011161"
   d="M 94.815,379.259 C 94.815,207.421 201.177,60.52 351.614,0.522 349.864,0.275 348.117,0 346.329,0 H 165.671 C 155.612,0 145.966,3.995 138.854,11.109 L 11.109,138.853 C 3.996,145.965 0,155.611 0,165.671 V 346.33 c 0,10.059 3.996,19.705 11.109,26.817 l 93.103,93.103 c -6.098,-28.041 -9.397,-57.124 -9.397,-86.991 z"
   id="path4"
   transform="scale(0.24999951)" />
<g
   id="g14"
   transform="scale(0.24999951)"
   style="stroke-width:4.00001">
	
	
	
	
<text
   xml:space="preserve"
   transform="matrix(4.0000078,0,0,4.0000078,45.533951,17.81247)"
   id="text4629"
   style="font-style:normal;font-variant:normal;font-weight:bold;font-stretch:normal;font-size:42.6667px;line-height:1.25;font-family:sans-serif;-inkscape-font-specification:'sans-serif Bold';text-align:center;letter-spacing:0px;word-spacing:0px;white-space:pre;shape-inside:url(#rect4631);fill:#ffffff;fill-opacity:1;stroke:none"
   x="28.187521"
   y="0"><tspan
     x="21.293595"
     y="74.796903"
     id="tspan21834">AU</tspan></text></g>
<g
   id="g16"
   transform="scale(0.24999951)"
   style="stroke-width:4.00001">
</g>
<g
   id="g18"
   transform="scale(0.24999951)"
   style="stroke-width:4.00001">
</g>
<g
   id="g20"
   transform="scale(0.24999951)"
   style="stroke-width:4.00001">
</g>
<g
   id="g22"
   transform="scale(0.24999951)"
   style="stroke-width:4.00001">
</g>
<g
   id="g24"
   transform="scale(0.24999951)"
   style="stroke-width:4.00001">
</g>
<g
   id="g26"
   transform="scale(0.24999951)"
   style="stroke-width:4.00001">
</g>
<g
   id="g28"
   transform="scale(0.24999951)"
   style="stroke-width:4.00001">
</g>
<g
   id="g30"
   transform="scale(0.24999951)"
   style="stroke-width:4.00001">
</g>
<g
   id="g32"
   transform="scale(0.24999951)"
   style="stroke-width:4.00001">
</g>
<g
   id="g34"
   transform="scale(0.24999951)"
   style="stroke-width:4.00001">
</g>
<g
   id="g36"
   transform="scale(0.24999951)"
   style="stroke-width:4.00001">
</g>
<g
   id="g38"
   transform="scale(0.24999951)"
   style="stroke-width:4.00001">
</g>
<g
   id="g40"
   transform="scale(0.24999951)"
   style="stroke-width:4.00001">
</g>
<g
   id="g42"
   transform="scale(0.24999951)"
   style="stroke-width:4.00001">
</g>
<g
   id="g44"
   transform="scale(0.24999951)"
   style="stroke-width:4.00001">
</g>
</svg>
