<?xml version="1.0" encoding="utf-8"?>
<!-- Generator: Adobe Illustrator 22.1.0, SVG Export Plug-In . SVG Version: 6.00 Build 0)  -->
<svg version="1.1" id="Calque_1" xmlns="http://www.w3.org/2000/svg" xmlns:xlink="http://www.w3.org/1999/xlink" x="0px" y="0px"
	 viewBox="0 0 128 128" style="enable-background:new 0 0 128 128;" xml:space="preserve">
<style type="text/css">
	.st0{fill:none;}
	.st1{fill:#455665;}
	.st2{opacity:0.58;fill:url(#SVGID_1_);enable-background:new    ;}
	.st3{fill:#C9C7B7;}
	.st4{fill:url(#SVGID_2_);}
	.st5{opacity:0.3;}
	.st6{fill:#FAD3A0;}
	.st7{opacity:0.6;}
	.st8{fill:#808080;}
	.st9{fill:#202629;}
	.st10{fill:#070809;}
	.st11{fill:#373F45;}
	.st12{fill:#666666;}
	.st13{fill:#3F3F3F;}
	.st14{fill:#D9F1F6;}
	.st15{fill:#E6F5F9;}
	.st16{fill:#FFFFFF;}
	.st17{fill:#8D4D0D;}
	.st18{fill:#3D9919;}
	.st19{fill:#007634;}
	.st20{fill:#A86736;}
	.st21{fill:#BF753F;}
	.st22{fill:url(#SVGID_3_);}
	.st23{fill:#1B681F;}
	.st24{fill:#114F12;}
	.st25{fill:#1E7224;}
	.st26{fill:#2B892F;}
	.st27{fill:#184655;}
	.st28{fill:#2A912F;}
	.st29{fill:url(#SVGID_4_);}
	.st30{fill:url(#SVGID_5_);}
	.st31{fill:url(#SVGID_6_);}
	.st32{fill:url(#SVGID_7_);}
	.st33{fill:url(#SVGID_9_);}
	.st34{fill:#B3B3B3;}
	.st35{fill:url(#SVGID_10_);}
	.st36{fill:url(#SVGID_11_);}
	.st37{fill:url(#SVGID_12_);}
	.st38{fill:url(#SVGID_13_);}
	.st39{fill:#5A5A5A;}
	.st40{fill:url(#SVGID_14_);}
	.st41{fill:url(#SVGID_15_);}
	.st42{fill:url(#SVGID_16_);}
	.st43{fill:url(#SVGID_17_);}
	.st44{fill:url(#SVGID_18_);}
	.st45{fill:url(#SVGID_19_);}
	.st46{fill:url(#SVGID_20_);}
	.st47{fill:url(#SVGID_21_);}
	.st48{fill:url(#SVGID_22_);}
	.st49{fill:url(#SVGID_23_);}
	.st50{fill:url(#SVGID_24_);}
	.st51{fill:url(#SVGID_25_);}
	.st52{fill:url(#SVGID_26_);}
	.st53{fill:url(#SVGID_27_);}
	.st54{fill:url(#SVGID_28_);}
	.st55{fill:url(#SVGID_29_);}
	.st56{fill:url(#SVGID_30_);}
	.st57{fill:url(#SVGID_31_);}
	.st58{fill:#4D4D4D;}
	.st59{fill:url(#SVGID_32_);}
</style>
<pattern  y="128" width="32.2" height="34.5" patternUnits="userSpaceOnUse" id="SVGID_8_" viewBox="0 -34.5 32.2 34.5" style="overflow:visible;">
	<g>
		<rect y="-34.5" class="st0" width="32.2" height="34.5"/>
		<g>
			<rect y="-34.5" class="st0" width="32.2" height="34.5"/>
			<rect y="-34.5" class="st1" width="32.2" height="34.5"/>
		</g>
	</g>
</pattern>
<linearGradient id="SVGID_1_" gradientUnits="userSpaceOnUse" x1="43.5062" y1="63.2533" x2="90" y2="63.2533" gradientTransform="matrix(1 0 0 -1 0 128)">
	<stop  offset="3.888600e-04" style="stop-color:#00E9DF;stop-opacity:0"/>
	<stop  offset="1" style="stop-color:#AFD5D5"/>
</linearGradient>
<path class="st2" d="M43.5,14c35.3,0,46.4,0,46.4,0L90,115.5H43.5V14z"/>
<path class="st0" d="M76,14c35.3,0,64,11.7,64,47s-28.7,64-64,64S12,96.3,12,61S40.7,14,76,14z"/>
<path class="st0" d="M76,14c35.3,0,64,11.7,64,47s-28.7,64-64,64S12,96.3,12,61S40.7,14,76,14z"/>
<path class="st0" d="M76,14c35.3,0,64,11.7,64,47s-28.7,64-64,64S12,96.3,12,61S40.7,14,76,14z"/>
<path class="st0" d="M76,14c35.3,0,64,11.7,64,47s-28.7,64-64,64S12,96.3,12,61S40.7,14,76,14z"/>
<path class="st3" d="M72.4,112.9c0,0.6-2.8,1-6.2,1c-3.4,0-6.2-0.5-6.2-1c0-0.6,2.8-1,6.2-1C69.6,111.9,72.4,112.3,72.4,112.9z"/>
<path class="st3" d="M58.5,108.2c0,0.6-2.8,1-6.2,1s-6.2-0.5-6.2-1c0-0.6,2.8-1,6.2-1S58.5,107.7,58.5,108.2z"/>
<path class="st3" d="M67.8,102.7c0,0.5-2.4,0.9-5.4,0.9c-3,0-5.4-0.4-5.4-0.9s2.4-0.9,5.4-0.9C65.4,101.8,67.8,102.2,67.8,102.7z"/>
<path class="st3" d="M61.8,97.1c0,0.5-2.4,0.9-5.4,0.9S51,97.6,51,97.1s2.4-0.9,5.4-0.9S61.8,96.6,61.8,97.1z"/>
<path class="st3" d="M64.6,88.6c0,0.5-2.4,0.9-5.4,0.9s-5.4-0.4-5.4-0.9s2.4-0.9,5.4-0.9C62.2,87.6,64.6,88.1,64.6,88.6z"/>
<g>
	
		<linearGradient id="SVGID_2_" gradientUnits="userSpaceOnUse" x1="42.4292" y1="83.714" x2="90.7415" y2="83.714" gradientTransform="matrix(1 0 0 -1 0 128)">
		<stop  offset="3.888600e-04" style="stop-color:#00E9DF;stop-opacity:0"/>
		<stop  offset="0.9996" style="stop-color:#00A3C8"/>
	</linearGradient>
	<path class="st4" d="M89.7,74.4c1.8-4.3-0.3-11.4-0.3-16.3s2-9.5,0.2-13.8s2.6-8-0.6-11.3c-3.2-3.3,4.7-15.1,0.4-16.9
		c-4.3-1.8-20-2.5-24.9-2.5s-14.8-1-19,0.8s1.5,15.4-1.7,18.6s2.2,7,0.4,11.3s-1.8,8.9-1.8,13.9l26.7,17"/>
	<path class="st3" d="M71.4,84.6c0,0.3-1.6,0.6-3.4,0.6c-1.9,0-3.4-0.3-3.4-0.6c0-0.3,1.6-0.6,3.4-0.6S71.4,84.3,71.4,84.6z"/>
	<path class="st3" d="M63.7,82c0,0.3-1.6,0.6-3.4,0.6s-3.4-0.3-3.4-0.6c0-0.3,1.6-0.6,3.4-0.6S63.7,81.7,63.7,82z"/>
	<path class="st3" d="M68.9,78.9c0,0.3-1.3,0.5-3,0.5c-1.7,0-3-0.2-3-0.5c0-0.3,1.3-0.5,3-0.5C67.6,78.4,68.9,78.7,68.9,78.9z"/>
	<path class="st3" d="M63.9,76.3c0,0.3-1.3,0.5-3,0.5c-1.7,0-3-0.2-3-0.5c0-0.3,1.3-0.5,3-0.5C62.6,75.8,63.9,76.1,63.9,76.3z"/>
	<path class="st3" d="M65.2,73.8c0,0.3-1.3,0.5-3,0.5c-1.7,0-3-0.2-3-0.5s1.3-0.5,3-0.5C63.9,73.2,65.2,73.5,65.2,73.8z"/>
	<g>
		<g>
			<g>
				<g class="st5">
					<path class="st6" d="M55.6,69.9C55.6,69.9,55.6,69.8,55.6,69.9C55.6,69.8,55.6,69.8,55.6,69.9C55.6,69.8,55.6,69.8,55.6,69.9
						l-0.1-0.1c-0.1,0-0.2,0-0.2,0.1c-0.1,0-0.1,0.1,0,0.1s0.1,0,0.1,0C55.5,69.9,55.6,69.9,55.6,69.9z"/>
					<path class="st6" d="M55.5,69.6c-0.1,0-0.1,0-0.1,0l0,0h-0.1c-0.1,0,0,0.1,0,0.1C55.4,69.6,55.6,69.6,55.5,69.6z"/>
				</g>
			</g>
			<g>
				<g class="st7">
					<path class="st6" d="M63.1,74.5C63.1,74.5,63,74.5,63.1,74.5L63.1,74.5L63.1,74.5c-0.1-0.1-0.1-0.1-0.2-0.1s-0.2,0.1-0.2,0.1
						s0,0.1,0.1,0.1c0.1,0,0.1,0,0.1,0C63,74.5,63.1,74.5,63.1,74.5z"/>
					<path class="st6" d="M62.7,74.2c-0.1,0-0.1,0-0.1,0l0,0c-0.1,0-0.1,0-0.1,0.1c0,0.1,0.1,0.1,0.1,0.1
						C62.6,74.3,62.8,74.3,62.7,74.2z"/>
				</g>
				<g class="st7">
					<path class="st6" d="M56.4,75.3c-0.1-0.1-0.1-0.1-0.2-0.1c-0.1,0-0.2,0-0.3,0.1c-0.1,0.1-0.1,0.1-0.2,0.2
						c-0.1,0.1-0.1,0.1,0.1,0.1c0.1,0,0.3-0.1,0.4-0.1c0.1-0.1,0.2-0.1,0.3-0.2C56.5,75.4,56.4,75.3,56.4,75.3z"/>
					<path class="st6" d="M57.4,75.7c-0.1-0.1-0.2-0.1-0.3-0.1c-0.1,0-0.1,0-0.1,0c-0.1,0-0.1,0.1-0.2,0.1c0,0-0.1,0.1,0,0.1
						c0.1,0,0.1,0,0.2,0.1c0.1,0,0.1,0,0.2,0C57.3,75.8,57.4,75.7,57.4,75.7z"/>
					<path class="st6" d="M55.2,76.3C55.2,76.3,55.1,76.3,55.2,76.3L55.2,76.3L55.2,76.3c-0.1-0.1-0.1-0.1-0.2-0.1s-0.2,0.1-0.2,0.1
						s0,0.1,0.1,0.1c0.1,0,0.1,0,0.1,0C55.1,76.4,55.2,76.3,55.2,76.3z"/>
					<path class="st6" d="M54.9,76.1c-0.1,0-0.1,0-0.1,0l0,0c-0.1,0-0.1,0-0.1,0.1s0.1,0.1,0.1,0.1C54.8,76.2,54.9,76.1,54.9,76.1z"
						/>
				</g>
				<g class="st7">
					<path class="st6" d="M64.1,76.9c-0.1-0.1-0.1-0.1-0.2-0.1c-0.1,0-0.2,0-0.3,0.1c-0.1,0.1-0.1,0.1-0.2,0.2
						c-0.1,0.1-0.1,0.1,0.1,0.1c0.1,0,0.3-0.1,0.4-0.1c0.1-0.1,0.2-0.1,0.3-0.2C64.2,77,64.2,76.9,64.1,76.9z"/>
					<path class="st6" d="M65.1,77.2c-0.1-0.1-0.2-0.1-0.3-0.1c-0.1,0-0.1,0-0.1,0s-0.1,0.1-0.2,0.1c0,0-0.1,0.1,0,0.1
						c0.1,0,0.1,0,0.2,0.1c0.1,0,0.1,0,0.2,0C65.1,77.4,65.2,77.3,65.1,77.2z"/>
					<path class="st6" d="M65.2,76.8c-0.1,0-0.1,0-0.2,0c-0.1,0-0.1,0-0.2,0c-0.1,0.1-0.1,0.1-0.1,0.1c-0.1,0-0.1,0.1,0,0.1
						c0.1,0,0.1,0,0.2,0c0.1,0,0.1,0,0.2-0.1C65.3,76.9,65.4,76.8,65.2,76.8z"/>
					<path class="st6" d="M63,77.9C63,77.9,62.9,77.9,63,77.9L63,77.9L63,77.9c-0.1-0.1-0.1-0.1-0.2-0.1c-0.1,0-0.2,0.1-0.2,0.1
						s0,0.1,0.1,0.1c0.1,0,0.1,0,0.1,0C62.9,77.9,63,77.9,63,77.9z"/>
					<path class="st6" d="M62.6,77.7c-0.1,0-0.1,0-0.1,0l0,0c-0.1,0-0.1,0-0.1,0.1c0,0.1,0.1,0.1,0.1,0.1
						C62.6,77.8,62.7,77.7,62.6,77.7z"/>
				</g>
				<g class="st7">
					<path class="st6" d="M56.7,78.1C56.6,78,56.5,78,56.4,78c-0.1,0-0.1,0-0.1,0c-0.1,0-0.1,0.1-0.2,0.1c0,0-0.1,0.1,0,0.1
						c0.1,0,0.1,0,0.2,0.1c0.1,0,0.1,0,0.2,0C56.6,78.2,56.8,78.1,56.7,78.1z"/>
					<path class="st6" d="M56.8,77.6c-0.1,0-0.1,0-0.2,0c-0.1,0-0.1,0-0.2,0c-0.1,0.1-0.1,0.1-0.1,0.1c-0.1,0-0.1,0.1,0,0.1
						c0.1,0,0.1,0,0.2,0c0.1,0,0.1,0,0.2-0.1C56.9,77.7,57,77.6,56.8,77.6z"/>
					<path class="st6" d="M54.5,78.7C54.5,78.7,54.5,78.7,54.5,78.7L54.5,78.7L54.5,78.7c-0.1-0.1-0.1-0.1-0.2-0.1
						c-0.1,0-0.2,0.1-0.2,0.1s0,0.1,0.1,0.1c0.1,0,0.1,0,0.1,0C54.5,78.8,54.5,78.7,54.5,78.7z"/>
					<path class="st6" d="M54.1,78.4c-0.1,0-0.1,0-0.1,0l0,0c-0.1,0-0.1,0-0.1,0.1c0,0.1,0.1,0.1,0.1,0.1
						C54.1,78.6,54.3,78.5,54.1,78.4z"/>
				</g>
				<g class="st5">
					<path class="st6" d="M57.6,72.6c0-0.1,0-0.1-0.1-0.1c-0.1-0.1-0.2-0.1-0.3,0c-0.1,0.1-0.2,0.1-0.4,0.1
						c-0.1,0.1-0.2,0.1-0.1,0.1c0.1,0.1,0.3,0.1,0.4,0.1c0.1,0,0.3,0,0.4-0.1C57.6,72.6,57.6,72.6,57.6,72.6z"/>
					<path class="st6" d="M58.1,73.1C58.2,73.1,58,73,58,73c-0.1,0-0.1,0-0.1,0s-0.2,0-0.2,0s-0.1,0.1-0.1,0.1
						c0,0.1,0.1,0.1,0.1,0.1c0.1,0,0.1,0.1,0.2,0.1C57.9,73.2,58.1,73.2,58.1,73.1z"/>
					<path class="st6" d="M58.7,72.7c-0.1-0.1-0.1-0.1-0.2-0.1c0,0-0.1-0.1-0.1,0c-0.1,0-0.2,0.1-0.2,0.1c-0.1,0-0.1,0.1-0.1,0.1
						c0.1,0,0.1,0.1,0.2,0.1c0.1,0,0.1,0,0.2,0C58.6,72.9,58.8,72.9,58.7,72.7z"/>
					<path class="st6" d="M55.6,73.1C55.6,73.1,55.6,73.1,55.6,73.1C55.6,73.1,55.6,73.1,55.6,73.1C55.6,73.1,55.6,73.1,55.6,73.1
						L55.5,73c-0.1,0-0.2,0-0.2,0.1c-0.1,0-0.1,0.1,0,0.1s0.1,0,0.1,0S55.6,73.1,55.6,73.1z"/>
					<path class="st6" d="M55.5,72.8c-0.1,0-0.1,0-0.1,0l0,0h-0.1c-0.1,0,0,0.1,0,0.1C55.4,72.9,55.6,72.9,55.5,72.8z"/>
				</g>
			</g>
		</g>
	</g>
	<path class="st6" d="M76.9,73c-0.1-0.1-0.1-0.1-0.2-0.1c-0.1,0-0.2,0-0.3,0.1c-0.1,0.1-0.1,0.1-0.2,0.2c-0.1,0.1-0.1,0.1,0.1,0.1
		c0.1,0,0.3-0.1,0.4-0.1c0.1-0.1,0.2-0.1,0.3-0.2C77,73,77,73,76.9,73z"/>
	<path class="st6" d="M75.8,74C75.8,74,75.7,74,75.8,74L75.8,74L75.8,74c-0.1-0.1-0.1-0.1-0.2-0.1c-0.1,0-0.2,0.1-0.2,0.1
		c0,0.1,0,0.1,0.1,0.1c0.1,0,0.1,0,0.1,0C75.7,74.1,75.8,74,75.8,74z"/>
	<path class="st6" d="M75.4,73.7c-0.1,0-0.1,0-0.1,0l0,0c-0.1,0-0.1,0-0.1,0.1s0.1,0.1,0.1,0.1C75.4,73.8,75.5,73.8,75.4,73.7z"/>
	<g class="st5">
		<path class="st6" d="M70.3,74.1c0-0.1,0-0.1-0.1-0.1S70.1,74,70,74c-0.1,0.1-0.2,0.1-0.4,0.1c-0.1,0.1-0.2,0.1-0.1,0.1
			c0.1,0.1,0.3,0.1,0.4,0.1c0.1,0,0.3,0,0.4-0.1C70.4,74.2,70.4,74.2,70.3,74.1z"/>
		<path class="st6" d="M70.9,74.7c0.1-0.1-0.1-0.1-0.2-0.1c-0.1,0-0.1,0-0.1,0c-0.1,0-0.2,0-0.2,0s-0.1,0.1-0.1,0.1
			c0,0.1,0.1,0.1,0.1,0.1s0.1,0.1,0.2,0.1C70.7,74.8,70.8,74.8,70.9,74.7z"/>
		<path class="st6" d="M71.4,74.3c-0.1-0.1-0.1-0.1-0.2-0.1c0,0-0.1-0.1-0.1,0c-0.1,0-0.2,0.1-0.2,0.1c-0.1,0-0.1,0.1-0.1,0.1
			c0.1,0,0.1,0.1,0.2,0.1c0.1,0,0.1,0,0.2,0C71.3,74.5,71.5,74.4,71.4,74.3z"/>
		<path class="st6" d="M68.3,74.7C68.3,74.7,68.3,74.6,68.3,74.7C68.3,74.6,68.3,74.6,68.3,74.7C68.3,74.6,68.3,74.6,68.3,74.7
			l-0.1-0.1c-0.1,0-0.2,0-0.2,0.1c-0.1,0-0.1,0.1,0,0.1s0.1,0,0.1,0C68.2,74.7,68.3,74.7,68.3,74.7z"/>
		<path class="st6" d="M68.2,74.4c-0.1,0-0.1,0-0.1,0l0,0H68c-0.1,0,0,0.1,0,0.1C68.1,74.5,68.3,74.4,68.2,74.4z"/>
	</g>
	<path class="st6" d="M75.8,79.3C75.8,79.3,75.7,79.3,75.8,79.3L75.8,79.3L75.8,79.3c-0.1-0.1-0.1-0.1-0.2-0.1
		c-0.1,0-0.2,0.1-0.2,0.1s0,0.1,0.1,0.1c0.1,0,0.1,0,0.1,0C75.7,79.3,75.8,79.3,75.8,79.3z"/>
	<path class="st6" d="M75.4,79.1c-0.1,0-0.1,0-0.1,0l0,0c-0.1,0-0.1,0-0.1,0.1s0.1,0.1,0.1,0.1C75.4,79.2,75.5,79.1,75.4,79.1z"/>
	<g class="st7">
		<path class="st6" d="M69.1,80.2c-0.1-0.1-0.1-0.1-0.2-0.1c-0.1,0-0.2,0-0.3,0.1c-0.1,0.1-0.1,0.1-0.2,0.2
			c-0.1,0.1-0.1,0.1,0.1,0.1c0.1,0,0.3-0.1,0.4-0.1c0.1-0.1,0.2-0.1,0.3-0.2C69.2,80.2,69.2,80.2,69.1,80.2z"/>
		<path class="st6" d="M70.1,80.5c-0.1-0.1-0.2-0.1-0.3-0.1c-0.1,0-0.1,0-0.1,0c-0.1,0-0.1,0.1-0.2,0.1c0,0-0.1,0.1,0,0.1
			c0.1,0,0.1,0,0.2,0.1c0.1,0,0.1,0,0.2,0C70.1,80.6,70.2,80.6,70.1,80.5z"/>
		<path class="st6" d="M68,81.2C68,81.2,67.9,81.2,68,81.2L68,81.2L68,81.2c-0.1-0.1-0.1-0.1-0.2-0.1s-0.2,0.1-0.2,0.1
			c0,0.1,0,0.1,0.1,0.1c0.1,0,0.1,0,0.1,0C67.9,81.2,68,81.2,68,81.2z"/>
		<path class="st6" d="M67.6,80.9c-0.1,0-0.1,0-0.1,0l0,0c-0.1,0-0.1,0-0.1,0.1s0.1,0.1,0.1,0.1C67.6,81.1,67.7,80.9,67.6,80.9z"/>
	</g>
	<path class="st6" d="M76.8,81.7c-0.1-0.1-0.1-0.1-0.2-0.1c-0.1,0-0.2,0-0.3,0.1c-0.1,0.1-0.1,0.1-0.2,0.2c-0.1,0.1-0.1,0.1,0.1,0.1
		c0.1,0,0.3-0.1,0.4-0.1c0.1-0.1,0.2-0.1,0.3-0.2C76.9,81.8,76.9,81.7,76.8,81.7z"/>
	<path class="st6" d="M75.7,82.7C75.7,82.7,75.7,82.7,75.7,82.7L75.7,82.7L75.7,82.7c-0.1-0.1-0.1-0.1-0.2-0.1s-0.2,0.1-0.2,0.1
		c0,0.1,0,0.1,0.1,0.1c0.1,0,0.1,0,0.1,0C75.7,82.8,75.7,82.8,75.7,82.7z"/>
	<path class="st6" d="M75.3,82.5c-0.1,0-0.1,0-0.1,0l0,0c-0.1,0-0.1,0-0.1,0.1s0.1,0.1,0.1,0.1C75.3,82.6,75.4,82.5,75.3,82.5z"/>
	<g class="st7">
		<path class="st6" d="M69.4,82.9c-0.1-0.1-0.2-0.1-0.3-0.1c-0.1,0-0.1,0-0.1,0c-0.1,0-0.1,0.1-0.2,0.1c0,0-0.1,0.1,0,0.1
			c0.1,0,0.1,0,0.2,0.1c0.1,0,0.1,0,0.2,0C69.3,83,69.4,82.9,69.4,82.9z"/>
		<path class="st6" d="M69.5,82.4c-0.1,0-0.1,0-0.2,0c-0.1,0-0.1,0-0.2,0c-0.1,0.1-0.1,0.1-0.1,0.1c-0.1,0-0.1,0.1,0,0.1
			c0.1,0,0.1,0,0.2,0c0.1,0,0.1,0,0.2-0.1C69.6,82.6,69.7,82.4,69.5,82.4z"/>
		<path class="st6" d="M67.2,83.5C67.2,83.5,67.2,83.5,67.2,83.5L67.2,83.5L67.2,83.5c-0.1-0.1-0.1-0.1-0.2-0.1s-0.2,0.1-0.2,0.1
			s0,0.1,0.1,0.1c0.1,0,0.1,0,0.1,0C67.2,83.6,67.3,83.5,67.2,83.5z"/>
		<path class="st6" d="M66.9,83.3c-0.1,0-0.1,0-0.1,0l0,0c-0.1,0-0.1,0-0.1,0.1s0.1,0.1,0.1,0.1C66.8,83.4,67,83.3,66.9,83.3z"/>
	</g>
	<g class="st5">
		<path class="st6" d="M70.3,77.4c0-0.1,0-0.1-0.1-0.1s-0.2-0.1-0.3,0c-0.1,0.1-0.2,0.1-0.4,0.1c-0.1,0.1-0.2,0.1-0.1,0.1
			c0.1,0.1,0.3,0.1,0.4,0.1c0.1,0,0.3,0,0.4-0.1C70.4,77.5,70.4,77.5,70.3,77.4z"/>
		<path class="st6" d="M70.9,77.9c0.1-0.1-0.1-0.1-0.2-0.1c-0.1,0-0.1,0-0.1,0c-0.1,0-0.2,0-0.2,0s-0.1,0.1-0.1,0.1
			c0,0.1,0.1,0.1,0.1,0.1s0.1,0.1,0.2,0.1C70.7,78.1,70.8,78,70.9,77.9z"/>
		<path class="st6" d="M71.4,77.6c-0.1,0-0.1,0-0.2,0c0,0-0.1-0.1-0.1,0c-0.1,0-0.2,0.1-0.2,0.1s-0.1,0.1-0.1,0.1s0.1,0.1,0.2,0.1
			c0.1,0,0.1,0,0.2,0C71.3,77.7,71.5,77.7,71.4,77.6z"/>
		<path class="st6" d="M68.3,77.9C68.3,77.9,68.3,77.9,68.3,77.9C68.3,77.9,68.3,77.9,68.3,77.9C68.3,77.9,68.3,77.9,68.3,77.9
			l-0.1-0.1c-0.1,0-0.2,0-0.2,0.1c-0.1,0-0.1,0.1,0,0.1s0.1,0,0.1,0C68.2,77.9,68.3,77.9,68.3,77.9z"/>
		<path class="st6" d="M68.2,77.6c-0.1,0-0.1,0-0.1,0l0,0H68c-0.1,0,0,0.1,0,0.1C68.1,77.7,68.3,77.7,68.2,77.6z"/>
	</g>
	<g>
		<g>
			<g class="st7">
				<path class="st6" d="M75.7,71C75.7,71,75.7,71,75.7,71L75.7,71L75.7,71C75.7,71,75.6,71,75.5,71s-0.2,0.1-0.2,0.1s0,0.1,0.1,0.1
					c0.1,0,0.1,0,0.1,0C75.7,71.1,75.7,71.1,75.7,71z"/>
				<path class="st6" d="M75.3,70.8c-0.1,0-0.1,0-0.1,0l0,0c-0.1,0-0.1,0-0.1,0.1s0.1,0.1,0.1,0.1C75.3,71,75.4,70.9,75.3,70.8z"/>
			</g>
			<g class="st7">
				<path class="st6" d="M69.4,71.2c-0.1-0.1-0.2-0.1-0.3-0.1c-0.1,0-0.1,0-0.1,0c-0.1,0-0.1,0.1-0.2,0.1c0,0-0.1,0.1,0,0.1
					c0.1,0,0.1,0,0.2,0.1c0.1,0,0.1,0,0.2,0C69.3,71.4,69.4,71.2,69.4,71.2z"/>
				<path class="st6" d="M69.5,70.7c-0.1,0-0.1,0-0.2,0c-0.1,0-0.1,0-0.2,0c-0.1,0.1-0.1,0.1-0.1,0.1c-0.1,0-0.1,0.1,0,0.1
					c0.1,0,0.1,0,0.2,0c0.1,0,0.1,0,0.2-0.1C69.6,70.9,69.7,70.8,69.5,70.7z"/>
			</g>
		</g>
	</g>
	<g>
		<g>
			<g>
				<g class="st7">
					<path class="st6" d="M54,75.9c-0.1-0.1-0.1-0.1-0.2-0.1c-0.1,0-0.2,0-0.3,0.1c-0.1,0.1-0.1,0.1-0.2,0.2
						c-0.1,0.1-0.1,0.1,0.1,0.1c0.1,0,0.3-0.1,0.4-0.1c0.1-0.1,0.2-0.1,0.3-0.2C54.1,76,54.1,75.9,54,75.9z"/>
					<path class="st6" d="M55.1,76.2c-0.1-0.1-0.2-0.1-0.3-0.1c-0.1,0-0.1,0-0.1,0c-0.1,0-0.1,0.1-0.2,0.1c0,0-0.1,0.1,0,0.1
						c0.1,0,0.1,0,0.2,0.1c0.1,0,0.1,0,0.2,0C55,76.3,55.1,76.3,55.1,76.2z"/>
					<path class="st6" d="M55.1,75.8c-0.1,0-0.1,0-0.2,0c-0.1,0-0.1,0-0.2,0c-0.1,0.1-0.1,0.1-0.1,0.1c-0.1,0-0.1,0.1,0,0.1
						c0.1,0,0.1,0,0.2,0c0.1,0,0.1,0,0.2-0.1C55.2,75.9,55.3,75.8,55.1,75.8z"/>
					<path class="st6" d="M52.9,76.9C52.9,76.9,52.8,76.9,52.9,76.9L52.9,76.9L52.9,76.9c-0.1-0.1-0.1-0.1-0.2-0.1
						c-0.1,0-0.2,0.1-0.2,0.1s0,0.1,0.1,0.1c0.1,0,0.1,0,0.1,0C52.8,77,52.9,76.9,52.9,76.9z"/>
					<path class="st6" d="M52.5,76.7c-0.1,0-0.1,0-0.1,0l0,0c-0.1,0-0.1,0-0.1,0.1c0,0.1,0.1,0.1,0.1,0.1
						C52.5,76.8,52.6,76.7,52.5,76.7z"/>
				</g>
				<g class="st5">
					<path class="st6" d="M47.4,77c0-0.1,0-0.1-0.1-0.1c-0.1-0.1-0.2-0.1-0.3,0C47,77,46.9,77,46.7,77c-0.1,0.1-0.2,0.1-0.1,0.1
						c0.1,0.1,0.3,0.1,0.4,0.1c0.1,0,0.3,0,0.4-0.1C47.5,77.1,47.5,77.1,47.4,77z"/>
					<path class="st6" d="M48,77.6c0.1-0.1-0.1-0.1-0.2-0.1c-0.1,0-0.1,0-0.1,0c-0.1,0-0.2,0-0.2,0c-0.1,0-0.1,0.1-0.1,0.1
						c0,0.1,0.1,0.1,0.1,0.1s0.1,0.1,0.2,0.1C47.8,77.7,47.9,77.7,48,77.6z"/>
					<path class="st6" d="M48.6,77.2c-0.1-0.1-0.1-0.1-0.2-0.1c0,0-0.1-0.1-0.1,0c-0.1,0-0.2,0.1-0.2,0.1c-0.1,0-0.1,0.1-0.1,0.1
						c0.1,0,0.1,0.1,0.2,0.1c0.1,0,0.1,0,0.2,0C48.4,77.3,48.6,77.3,48.6,77.2z"/>
					<path class="st6" d="M45.4,77.6L45.4,77.6C45.4,77.5,45.4,77.5,45.4,77.6C45.4,77.5,45.4,77.5,45.4,77.6l-0.1-0.1
						c-0.1,0-0.2,0-0.2,0.1c-0.1,0-0.1,0.1,0,0.1c0.1,0,0.1,0,0.1,0C45.3,77.6,45.4,77.6,45.4,77.6z"/>
					<path class="st6" d="M45.3,77.3c-0.1,0-0.1,0-0.1,0l0,0h-0.1c-0.1,0,0,0.1,0,0.1C45.2,77.4,45.4,77.3,45.3,77.3z"/>
				</g>
			</g>
			<g>
				<g class="st7">
					<path class="st6" d="M55.1,81.6c-0.1-0.1-0.2-0.1-0.3-0.1c-0.1,0-0.1,0-0.1,0c-0.1,0-0.1,0.1-0.2,0.1c0,0-0.1,0.1,0,0.1
						c0.1,0,0.1,0,0.2,0.1c0.1,0,0.1,0,0.2,0C55,81.7,55.1,81.6,55.1,81.6z"/>
					<path class="st6" d="M55.1,81.1c-0.1,0-0.1,0-0.2,0c-0.1,0-0.1,0-0.2,0c-0.1,0.1-0.1,0.1-0.1,0.1c-0.1,0-0.1,0.1,0,0.1
						c0.1,0,0.1,0,0.2,0c0.1,0,0.1,0,0.2-0.1C55.2,81.2,55.3,81.1,55.1,81.1z"/>
					<path class="st6" d="M52.9,82.2C52.9,82.2,52.8,82.2,52.9,82.2L52.9,82.2L52.9,82.2c-0.1-0.1-0.1-0.1-0.2-0.1
						c-0.1,0-0.2,0.1-0.2,0.1s0,0.1,0.1,0.1c0.1,0,0.1,0,0.1,0C52.8,82.3,52.9,82.2,52.9,82.2z"/>
					<path class="st6" d="M52.5,81.9c-0.1,0-0.1,0-0.1,0l0,0c-0.1,0-0.1,0-0.1,0.1c0,0.1,0.1,0.1,0.1,0.1
						C52.5,82.1,52.6,82,52.5,81.9z"/>
				</g>
				<g class="st7">
					<path class="st6" d="M46.2,83C46.2,83,46.1,83,46.1,83c-0.1,0-0.2,0-0.3,0.1c-0.1,0.1-0.1,0.1-0.2,0.2
						c-0.1,0.1-0.1,0.1,0.1,0.1c0.1,0,0.3-0.1,0.4-0.1c0.1-0.1,0.2-0.1,0.3-0.2C46.3,83.1,46.3,83,46.2,83z"/>
					<path class="st6" d="M47.2,83.4c-0.1-0.1-0.2-0.1-0.3-0.1c-0.1,0-0.1,0-0.1,0c-0.1,0-0.1,0.1-0.2,0.1c0,0-0.1,0.1,0,0.1
						c0.1,0,0.1,0,0.2,0.1c0.1,0,0.1,0,0.2,0C47.2,83.5,47.3,83.4,47.2,83.4z"/>
					<path class="st6" d="M45.1,84C45.1,84,45,84,45.1,84L45.1,84L45.1,84C45,84,44.9,84,44.9,84s-0.2,0.1-0.2,0.1
						c0,0.1,0,0.1,0.1,0.1c0.1,0,0.1,0,0.1,0C45,84.1,45.1,84,45.1,84z"/>
					<path class="st6" d="M44.7,83.8c-0.1,0-0.1,0-0.1,0l0,0c-0.1,0-0.1,0-0.1,0.1c0,0.1,0.1,0.1,0.1,0.1
						C44.7,83.9,44.8,83.8,44.7,83.8z"/>
				</g>
				<g class="st7">
					<path class="st6" d="M53.9,84.6c-0.1-0.1-0.1-0.1-0.2-0.1c-0.1,0-0.2,0-0.3,0.1c-0.1,0.1-0.1,0.1-0.2,0.2
						c-0.1,0.1-0.1,0.1,0.1,0.1c0.1,0,0.3-0.1,0.4-0.1c0.1-0.1,0.2-0.1,0.3-0.2C54,84.7,54,84.7,53.9,84.6z"/>
					<path class="st6" d="M55,85c-0.1-0.1-0.2-0.1-0.3-0.1c-0.1,0-0.1,0-0.1,0c-0.1,0-0.1,0.1-0.2,0.1c0,0-0.1,0.1,0,0.1
						c0.1,0,0.1,0,0.2,0.1c0.1,0,0.1,0,0.2,0C54.9,85.1,55,85,55,85z"/>
					<path class="st6" d="M55.1,84.5c-0.1,0-0.1,0-0.2,0c-0.1,0-0.1,0-0.2,0c-0.1,0.1-0.1,0.1-0.1,0.1c-0.1,0-0.1,0.1,0,0.1
						c0.1,0,0.1,0,0.2,0c0.1,0,0.1,0,0.2-0.1C55.1,84.7,55.2,84.5,55.1,84.5z"/>
					<path class="st6" d="M52.8,85.6C52.8,85.6,52.8,85.6,52.8,85.6L52.8,85.6L52.8,85.6c-0.1-0.1-0.1-0.1-0.2-0.1s-0.2,0.1-0.2,0.1
						s0,0.1,0.1,0.1c0.1,0,0.1,0,0.1,0C52.8,85.7,52.8,85.7,52.8,85.6z"/>
					<path class="st6" d="M52.4,85.4c-0.1,0-0.1,0-0.1,0l0,0c-0.1,0-0.1,0-0.1,0.1c0,0.1,0.1,0.1,0.1,0.1
						C52.4,85.5,52.5,85.4,52.4,85.4z"/>
				</g>
				<g class="st7">
					<path class="st6" d="M46.6,85.8c-0.1-0.1-0.2-0.1-0.3-0.1c-0.1,0-0.1,0-0.1,0s-0.1,0.1-0.2,0.1c0,0-0.1,0.1,0,0.1
						c0.1,0,0.1,0,0.2,0.1c0.1,0,0.1,0,0.2,0C46.4,85.9,46.6,85.8,46.6,85.8z"/>
					<path class="st6" d="M46.6,85.3c-0.1,0-0.1,0-0.2,0c-0.1,0-0.1,0-0.2,0c-0.1,0.1-0.1,0.1-0.1,0.1c-0.1,0-0.1,0.1,0,0.1
						c0.1,0,0.1,0,0.2,0s0.1,0,0.2-0.1C46.7,85.4,46.8,85.3,46.6,85.3z"/>
					<path class="st6" d="M44.3,86.4C44.3,86.4,44.3,86.4,44.3,86.4L44.3,86.4L44.3,86.4c-0.1-0.1-0.1-0.1-0.2-0.1S44,86.4,44,86.5
						c0,0.1,0,0.1,0.1,0.1c0.1,0,0.1,0,0.1,0C44.3,86.5,44.4,86.4,44.3,86.4z"/>
					<path class="st6" d="M44,86.2c-0.1,0-0.1,0-0.1,0l0,0c-0.1,0-0.1,0-0.1,0.1s0.1,0.1,0.1,0.1C43.9,86.3,44.1,86.2,44,86.2z"/>
				</g>
				<g class="st5">
					<path class="st6" d="M47.4,80.3c0-0.1,0-0.1-0.1-0.1c-0.1-0.1-0.2-0.1-0.3,0c-0.1,0.1-0.2,0.1-0.4,0.1
						c-0.1,0.1-0.2,0.1-0.1,0.1c0.1,0.1,0.3,0.1,0.4,0.1c0.1,0,0.3,0,0.4-0.1C47.5,80.4,47.5,80.3,47.4,80.3z"/>
					<path class="st6" d="M48,80.8c0.1-0.1-0.1-0.1-0.2-0.1c-0.1,0-0.1,0-0.1,0c-0.1,0-0.2,0-0.2,0c-0.1,0-0.1,0.1-0.1,0.1
						c0,0.1,0.1,0.1,0.1,0.1s0.1,0.1,0.2,0.1C47.8,80.9,47.9,80.9,48,80.8z"/>
					<path class="st6" d="M48.6,80.5c-0.1-0.1-0.1-0.1-0.2-0.1c0,0-0.1-0.1-0.1,0c-0.1,0-0.2,0.1-0.2,0.1c-0.1,0-0.1,0.1-0.1,0.1
						c0.1,0,0.1,0.1,0.2,0.1c0.1,0,0.1,0,0.2,0C48.4,80.6,48.6,80.6,48.6,80.5z"/>
					<path class="st6" d="M45.4,80.8C45.4,80.8,45.4,80.8,45.4,80.8C45.4,80.8,45.4,80.8,45.4,80.8C45.4,80.8,45.4,80.8,45.4,80.8
						l-0.1-0.1c-0.1,0-0.2,0-0.2,0.1c-0.1,0-0.1,0.1,0,0.1c0.1,0,0.1,0,0.1,0C45.3,80.9,45.4,80.8,45.4,80.8z"/>
					<path class="st6" d="M45.3,80.6c-0.1,0-0.1,0-0.1,0l0,0h-0.1c-0.1,0,0,0.1,0,0.1C45.2,80.6,45.4,80.6,45.3,80.6z"/>
				</g>
			</g>
		</g>
		<g>
			<g>
				<g class="st7">
					<path class="st6" d="M52.8,74C52.8,74,52.8,74,52.8,74L52.8,74L52.8,74c-0.1-0.1-0.1-0.1-0.2-0.1S52.5,74,52.5,74
						c0,0.1,0,0.1,0.1,0.1c0.1,0,0.1,0,0.1,0C52.8,74,52.8,74,52.8,74z"/>
					<path class="st6" d="M52.4,73.7c-0.1,0-0.1,0-0.1,0l0,0c-0.1,0-0.1,0-0.1,0.1s0.1,0.1,0.1,0.1C52.4,73.8,52.5,73.7,52.4,73.7z"
						/>
				</g>
				<g class="st7">
					<path class="st6" d="M46.6,74.1c-0.1-0.1-0.2-0.1-0.3-0.1c-0.1,0-0.1,0-0.1,0s-0.1,0.1-0.2,0.1c0,0-0.1,0.1,0,0.1
						c0.1,0,0.1,0,0.2,0.1c0.1,0,0.1,0,0.2,0C46.4,74.2,46.6,74.2,46.6,74.1z"/>
					<path class="st6" d="M46.6,73.6c-0.1,0-0.1,0-0.2,0c-0.1,0-0.1,0-0.2,0c-0.1,0.1-0.1,0.1-0.1,0.1c-0.1,0-0.1,0.1,0,0.1
						c0.1,0,0.1,0,0.2,0s0.1,0,0.2-0.1C46.7,73.7,46.8,73.7,46.6,73.6z"/>
					<path class="st6" d="M44.3,74.7C44.3,74.7,44.3,74.7,44.3,74.7L44.3,74.7L44.3,74.7c-0.1-0.1-0.1-0.1-0.2-0.1S44,74.7,44,74.8
						c0,0.1,0,0.1,0.1,0.1c0.1,0,0.1,0,0.1,0C44.3,74.8,44.4,74.8,44.3,74.7z"/>
					<path class="st6" d="M44,74.5c-0.1,0-0.1,0-0.1,0l0,0c-0.1,0-0.1,0-0.1,0.1s0.1,0.1,0.1,0.1C43.9,74.6,44.1,74.5,44,74.5z"/>
				</g>
			</g>
		</g>
	</g>
	<rect x="41.9" y="114.9" class="st8" width="49.2" height="1.1"/>
	<g>
		<g>
			<path class="st9" d="M43.2,90.7c0-0.2,0.2-0.3,0.3-0.3h10c0.2,0,0.3,0.2,0.3,0.3l0,0c0,0.2-0.2,0.3-0.3,0.3h-10
				C43.4,91.1,43.2,90.9,43.2,90.7L43.2,90.7z"/>
			<path class="st10" d="M43.5,90.3h10c0.2,0,0.4,0.2,0.4,0.4s-0.2,0.4-0.4,0.4h-10c-0.2,0-0.4-0.2-0.4-0.4
				C43.2,90.5,43.4,90.3,43.5,90.3z M53.6,91c0.2,0,0.2-0.2,0.2-0.2c0-0.2-0.2-0.2-0.2-0.2h-10c-0.2,0-0.2,0.2-0.2,0.2
				c0,0.2,0.2,0.2,0.2,0.2H53.6z"/>
		</g>
		<g>
			<path class="st9" d="M43.2,82.4c0-0.2,0.2-0.3,0.3-0.3h10c0.2,0,0.3,0.2,0.3,0.3l0,0c0,0.2-0.2,0.3-0.3,0.3h-10
				C43.4,82.7,43.2,82.5,43.2,82.4L43.2,82.4z"/>
			<path class="st10" d="M43.5,82h10c0.2,0,0.4,0.2,0.4,0.4s-0.2,0.4-0.4,0.4h-10c-0.2,0-0.4-0.2-0.4-0.4C43.2,82.1,43.4,82,43.5,82
				z M53.6,82.6c0.2,0,0.2-0.2,0.2-0.2c0-0.2-0.2-0.2-0.2-0.2h-10c-0.2,0-0.2,0.2-0.2,0.2c0,0.2,0.2,0.2,0.2,0.2H53.6z"/>
		</g>
		<g>
			<path class="st9" d="M43.2,74.6c0-0.2,0.2-0.3,0.3-0.3h10c0.2,0,0.3,0.2,0.3,0.3l0,0c0,0.2-0.2,0.3-0.3,0.3h-10
				C43.4,74.9,43.2,74.7,43.2,74.6L43.2,74.6z"/>
			<path class="st10" d="M43.5,74.2h10c0.2,0,0.4,0.2,0.4,0.4c0,0.2-0.2,0.4-0.4,0.4h-10c-0.2,0-0.4-0.2-0.4-0.4
				C43.2,74.4,43.4,74.2,43.5,74.2z M53.6,74.9c0.2,0,0.2-0.2,0.2-0.2c0-0.2-0.2-0.3-0.2-0.3h-10c-0.2,0-0.2,0.2-0.2,0.3
				c0,0.2,0.2,0.2,0.2,0.2H53.6z"/>
		</g>
		<g>
			<g>
				<g>
					<path class="st11" d="M51.8,72.5c0.2,0,0.2,0.2,0.2,0.4v19.7c0,0.2-0.2,0.4-0.2,0.4c-0.2,0-0.2-0.2-0.2-0.4V72.9
						C51.5,72.6,51.6,72.5,51.8,72.5z"/>
					<path class="st10" d="M51.8,72.4L51.8,72.4c0.2,0,0.3,0.2,0.3,0.5v19.7c0,0.2-0.2,0.5-0.3,0.5c-0.1,0-0.2,0-0.2-0.1
						c-0.1-0.1-0.2-0.2-0.2-0.4V72.9c0-0.2,0.1-0.3,0.2-0.4C51.7,72.5,51.7,72.4,51.8,72.4z M51.8,93c0.2,0,0.2-0.2,0.2-0.4V72.9
						c0-0.2-0.1-0.4-0.2-0.4l0,0c-0.1,0-0.1,0-0.1,0.1c-0.1,0.1-0.1,0.2-0.1,0.3v19.7C51.6,92.8,51.6,92.8,51.8,93
						C51.7,93,51.8,93,51.8,93z"/>
				</g>
				<g>
					<path class="st11" d="M48,72.5c0.2,0,0.2,0.2,0.2,0.4v19.7c0,0.2-0.2,0.4-0.2,0.4c-0.2,0-0.2-0.2-0.2-0.4V72.9
						C47.7,72.6,47.9,72.5,48,72.5z"/>
					<path class="st10" d="M48,72.5L48,72.5c0.2,0,0.3,0.2,0.3,0.5v19.7c0,0.2-0.2,0.5-0.3,0.5s-0.3-0.2-0.3-0.5V72.9
						C47.7,72.6,47.8,72.5,48,72.5z M48,93c0.2,0,0.2-0.2,0.2-0.4V72.9c0-0.2-0.1-0.4-0.2-0.4v-0.1v0.2c-0.1,0-0.2,0.2-0.2,0.4v19.7
						C47.8,92.8,47.9,93,48,93z"/>
				</g>
				<g>
					<path class="st11" d="M44.2,72.4c0.2,0,0.2,0.2,0.2,0.4v19.7c0,0.2-0.1,0.4-0.2,0.4S44,92.8,44,92.5V72.8
						C44,72.5,44,72.4,44.2,72.4z"/>
					<path class="st10" d="M44.2,72.3L44.2,72.3c0.2,0,0.3,0.2,0.3,0.5v19.7c0,0.2-0.2,0.5-0.3,0.5s-0.3-0.2-0.3-0.5V72.8
						C43.9,72.5,44,72.3,44.2,72.3L44.2,72.3z M44.2,92.9c0.2,0,0.2-0.2,0.2-0.4V72.8c0-0.2-0.1-0.4-0.2-0.4S44,72.5,44,72.8v19.7
						C44,92.8,44.1,92.9,44.2,92.9z"/>
				</g>
			</g>
			<g>
				<path class="st11" d="M51.3,92.6c0-0.2,0.2-0.5,0.5-0.5c0.3,0,0.5,0.2,0.6,0.5c0,0.2-0.2,0.5-0.5,0.5
					C51.5,93.2,51.3,92.9,51.3,92.6z"/>
				<path class="st10" d="M51.8,92.1c0.3,0,0.6,0.2,0.6,0.6c0,0.3-0.2,0.6-0.6,0.6s-0.6-0.2-0.6-0.6S51.5,92.1,51.8,92.1z
					 M51.8,93.1c0.2,0,0.5-0.2,0.5-0.5s-0.2-0.5-0.5-0.5s-0.5,0.2-0.5,0.5S51.6,93.1,51.8,93.1z"/>
			</g>
			<g>
				<path class="st11" d="M47.5,92.6c0-0.2,0.2-0.5,0.5-0.5c0.3,0,0.5,0.2,0.5,0.5s-0.2,0.5-0.5,0.5C47.8,93.2,47.5,92.9,47.5,92.6z
					"/>
				<path class="st10" d="M48,92.1c0.3,0,0.6,0.2,0.6,0.6c0,0.3-0.2,0.6-0.6,0.6s-0.6-0.2-0.6-0.6C47.4,92.4,47.8,92.1,48,92.1
					L48,92.1z M48,93.1c0.2,0,0.5-0.2,0.5-0.5s-0.2-0.5-0.5-0.5V92v0.1c-0.2,0-0.5,0.2-0.5,0.5C47.6,92.9,47.8,93.1,48,93.1z"/>
			</g>
			<g>
				<path class="st11" d="M43.7,92.6c0-0.2,0.2-0.5,0.5-0.5c0.3,0,0.5,0.2,0.5,0.5s-0.2,0.5-0.5,0.5C44,93.2,43.7,92.9,43.7,92.6z"
					/>
				<path class="st10" d="M44.3,92.1c0.3,0,0.6,0.2,0.6,0.6c0,0.2-0.1,0.2-0.2,0.4c-0.1,0.1-0.2,0.2-0.4,0.2c-0.3,0-0.6-0.2-0.6-0.6
					S44,92.1,44.3,92.1L44.3,92.1z M44.3,93.1c0.2,0,0.2-0.1,0.3-0.2c0.1-0.1,0.2-0.2,0.2-0.3c0-0.2-0.2-0.5-0.5-0.5V92v0.1
					c-0.2,0-0.5,0.2-0.5,0.5C43.8,92.9,44,93.1,44.3,93.1z"/>
			</g>
			<g>
				<path class="st11" d="M51.3,72.9c0-0.2,0.2-0.5,0.5-0.5c0.3,0,0.5,0.2,0.6,0.5c0,0.2-0.2,0.5-0.5,0.5
					C51.5,73.3,51.3,73.2,51.3,72.9z"/>
				<path class="st10" d="M51.8,72.3c0.3,0,0.6,0.2,0.6,0.6c0,0.2-0.1,0.2-0.2,0.4c-0.1,0.1-0.2,0.2-0.4,0.2c-0.3,0-0.6-0.2-0.6-0.6
					c0-0.2,0.1-0.2,0.2-0.4C51.5,72.4,51.7,72.3,51.8,72.3L51.8,72.3z M51.8,73.3c0.2,0,0.2-0.1,0.3-0.2c0.1-0.1,0.2-0.2,0.2-0.3
					c0-0.2-0.2-0.5-0.5-0.5v-0.1v0.1c-0.2,0-0.2,0.1-0.3,0.2c-0.1,0.1-0.2,0.2-0.2,0.3C51.3,73.1,51.5,73.3,51.8,73.3z"/>
			</g>
			<g>
				<path class="st11" d="M47.5,72.9c0-0.2,0.2-0.5,0.5-0.5c0.3,0,0.5,0.2,0.6,0.5c0,0.2-0.2,0.5-0.5,0.5
					C47.8,73.4,47.5,73.2,47.5,72.9z"/>
				<path class="st10" d="M48,72.4L48,72.4c0.3,0,0.6,0.2,0.6,0.6s-0.2,0.6-0.6,0.6s-0.6-0.2-0.6-0.6c0-0.2,0.1-0.2,0.2-0.4
					C47.7,72.4,47.9,72.4,48,72.4z M48,73.3c0.2,0,0.5-0.2,0.5-0.5c0-0.2-0.2-0.5-0.5-0.5l0,0c-0.2,0-0.2,0.1-0.3,0.2
					c-0.1,0.1-0.2,0.2-0.2,0.3C47.5,73.1,47.8,73.3,48,73.3z"/>
			</g>
			<g>
				<path class="st11" d="M43.7,72.9c0-0.2,0.2-0.5,0.5-0.5c0.3,0,0.5,0.2,0.5,0.5c0,0.2-0.2,0.5-0.5,0.5
					C44,73.4,43.7,73.2,43.7,72.9z"/>
				<path class="st10" d="M44.3,72.4c0.3,0,0.6,0.2,0.6,0.6s-0.2,0.6-0.6,0.6s-0.6-0.2-0.6-0.6S44,72.4,44.3,72.4L44.3,72.4z
					 M44.3,73.3c0.2,0,0.5-0.2,0.5-0.5c0-0.2-0.2-0.5-0.5-0.5c-0.2,0-0.5,0.2-0.5,0.5C43.8,73.2,44,73.3,44.3,73.3z"/>
			</g>
		</g>
	</g>
	<g>
		<g>
			<g>
				<g>
					<path class="st12" d="M42.2,47.1c0.6,0,0.1,0.2,0.5,0.6c0.7,0.7,0.8,1.7,0.9,2.3c0,0.3,0,0.4,0,0.5v1.8c0,0.3,0.2,0.4,0.4,0.4
						l0,0l0,0c0.3,0,0.4-0.2,0.4-0.4v-1.8c0-0.1,0-0.2,0-0.5c0.1-0.6,0.2-1.7,0.9-2.3c0.4-0.4,0.9-0.6,1.5-0.6h2
						c0.6,0,1.1,0.2,1.5,0.6c0.9,1,0.9,2.8,0.9,2.8l0,0v4.9c0,0.3,0.2,0.4,0.4,0.4c0.3,0,0.4-0.2,0.4-0.4v-4.9
						c0.3-0.2,0.3-2.2-0.8-3.4c-0.5-0.5-1.2-0.8-1.9-0.9c-0.1,0-0.1,0-0.1,0H49h-2h-0.2c-0.1,0-0.1,0-0.1,0
						c-0.8,0.1-1.4,0.3-1.9,0.9c-0.3,0.3-0.5,0.7-0.7,1c-0.2-0.4-0.4-0.7-0.7-1c-0.5-0.5-0.2-0.8-0.9-0.9c-0.1,0-0.1,0-0.1,0h-0.2"
						/>
					<path class="st13" d="M42.3,46.2c0.1,0,0.1,0,0.1,0c0.8,0.1,0.4,0.3,1,0.9c0.2,0.2,0.4,0.5,0.6,0.8c0.2-0.3,0.3-0.6,0.6-0.8
						c0.5-0.6,1.2-0.8,2-0.9c0,0,0.1,0,0.1,0h2.3c0.1,0,0.1,0,0.1,0c0.8,0.1,1.4,0.3,2,0.9c1.2,1.3,1.2,3.3,1.2,3.5v4.9
						c0.3,0.3,0.1,0.6-0.3,0.6s-0.6-0.3-0.6-0.6v-4.9c0-0.1,0.1-1.8-0.8-2.7c-0.4-0.4-0.8-0.6-1.4-0.6h-2c-0.6,0-1.1,0.2-1.4,0.6
						c-0.6,0.6-0.8,1.7-0.8,2.3c0,0.3,0,0.4,0,0.5v1.8c0,0.3-0.3,0.6-0.6,0.6l0,0l0,0c-0.3,0-0.6-0.3-0.6-0.6v-1.8
						c0-0.1,0-0.2,0-0.5c-0.1-0.6-0.2-1.6-0.8-2.2c-0.4-0.4,0.2-0.6-0.4-0.6 M42.6,47.1c0.7,0,0.2,0.2,0.6,0.6
						c0.7,0.7,0.8,1.8,0.9,2.4c0,0.3,0,0.5,0,0.5v1.8c0,0.2,0.2,0.3,0.3,0.3h0.1c0.2,0,0.3-0.2,0.3-0.3v-1.8c0-0.1,0-0.2,0-0.5
						c0.1-0.6,0.2-1.7,0.9-2.4c0.3-0.4,0.8-0.6,1.4-0.6h2c0.7,0,1.2,0.2,1.6,0.6c1,1,0.9,2.9,0.9,2.9v4.9c0,0.2,0.2,0.3,0.3,0.3
						s0.3-0.2,0.3-0.3v-4.9c0-0.1,0.1-2.2-1.1-3.4c-0.5-0.5-1.1-0.8-1.8-0.8c-0.1,0-0.1,0-0.1,0H47h-0.1c-0.8,0.1-1.4,0.3-1.8,0.8
						c-0.3,0.3-0.5,0.6-0.7,1c-0.1,0.1-0.2,0.1-0.2,0c-0.2-0.4-0.4-0.7-0.7-1c-0.5-0.5-0.1-0.8-0.8-0.8c-0.1,0-0.1,0-0.1,0"/>
				</g>
				<path class="st12" d="M42.4,47.1c0.6,0,0.1,0.2,0.5,0.6c0.7,0.7,0.8,1.7,0.9,2.3c0,0.3,0,0.4,0,0.5v1.8c0,0.3,0.2,0.4,0.4,0.4
					l0,0l0,0c0.3,0,0.4-0.2,0.4-0.4v-1.8c0-0.1,0-0.2,0-0.5c0.1-0.6,0.2-1.7,0.9-2.3c0.4-0.4,0.9-0.6,1.5-0.6h2
					c0.6,0,1.1,0.2,1.5,0.6c0.9,1,0.9,2.8,0.9,2.8l0,0v4.9c0,0.3,0.2,0.4,0.4,0.4c0.3,0,0.4-0.2,0.4-0.4v-4.9
					c0.1-0.2,0.1-2.2-1.1-3.4c-0.2-0.2-0.4-0.4-0.7-0.5c-0.2,0.2-0.4,0.3-0.7,0.3c-0.8-0.1-1.6-0.1-2.4-0.1c-0.6,0-1.3,0.1-1.8,0.4
					c-0.6,0.3-0.9,0.9-1.2,1.4c-0.1,0.1-0.1,0.1-0.2,0c-0.1-0.2-0.1-0.3-0.1-0.6c-0.2-0.3-0.4-0.7-0.7-1c-0.3-0.3-0.6-0.5-0.9-0.6
					c-0.1,0.3,0.3,0.4,0,0.3"/>
				<g>
					<g>
						<path class="st14" d="M55.8,52.9c0,2.1-1.7,3.7-3.7,3.7c-2.1,0-3.7-1.7-3.7-3.7c0-2.1,1.7-3.7,3.7-3.7S55.8,50.9,55.8,52.9z"
							/>
					</g>
					<path class="st15" d="M52.1,49.2c-1.3,0-2.5,0.7-3.2,1.8c0.2-0.1,0.4-0.1,0.6-0.2c0.5-0.1,1,0,1.4,0.1c0.9,0.2,1.7,0.6,2.3,1.3
						c0.6,0.7,0.9,1.4,1,2.3c0.1,0.4,0,0.9-0.1,1.3c1-0.7,1.6-1.8,1.6-3C55.8,50.9,54.1,49.2,52.1,49.2z"/>
					<g>
						<path class="st12" d="M54.9,50.5c-0.7-0.8-1.7-1.3-2.8-1.3c-1.2,0-2.2,0.5-2.8,1.3H54.9z"/>
						<path class="st13" d="M54.9,50.7h-5.7c-0.1,0-0.1-0.1-0.1-0.1c0-0.1,0-0.1,0-0.1c0.7-0.9,1.8-1.4,2.9-1.4
							c1.1,0,2.2,0.5,2.9,1.4c0.1,0.1,0.1,0.1,0,0.1C55,50.7,55,50.7,54.9,50.7z M49.5,50.4h5.1c-0.7-0.7-1.6-1.1-2.5-1.1
							C51.1,49.3,50.2,49.7,49.5,50.4z"/>
					</g>
					<path class="st12" d="M52,49.5c0.3,0.2,0.5,0.6,0.6,1h2.3c-0.7-0.8-1.7-1.3-2.8-1.3c-0.3,0-0.5,0.1-0.8,0.1
						C51.5,49.3,51.8,49.4,52,49.5z"/>
					<g>
						<path class="st16" d="M50.1,55.4c0.2-0.2,0.4-0.3,0.6-0.5c-0.6-0.6-1-1.4-1-2.3c0-0.6,0.2-1.1,0.4-1.6h-0.7
							c-0.4,0.6-0.7,1.2-0.7,1.9C48.9,53.9,49.3,54.8,50.1,55.4z"/>
						<path class="st16" d="M52.9,55.8c-0.6,0-1.2-0.2-1.7-0.4c-0.2,0.2-0.3,0.3-0.4,0.5c0.4,0.2,0.8,0.3,1.3,0.3
							c0.6,0,1.1-0.2,1.6-0.4C53.4,55.8,53.2,55.8,52.9,55.8z"/>
					</g>
				</g>
			</g>
			<g>
				<g>
					<g>
						<g>
							<g>
								<rect x="43.7" y="52.9" class="st12" width="1.3" height="47.2"/>
								<path class="st13" d="M44.9,100.2h-1.3c-0.1,0-0.1-0.1-0.1-0.1V52.9c0-0.1,0.1-0.1,0.1-0.1h1.3c0.1,0,0.1,0.1,0.1,0.1V100
									C45,100.1,44.9,100.2,44.9,100.2z M43.8,99.9h1V53h-1V99.9z"/>
							</g>
							<rect x="44.4" y="52.9" class="st12" width="0.5" height="47.2"/>
						</g>
						<g>
							<path class="st17" d="M43.6,52.8h1.5l0.1-0.1c0-0.1,0-0.1-0.1-0.1h-1.5C43.6,52.6,43.5,52.7,43.6,52.8
								C43.5,52.8,43.5,52.8,43.6,52.8z"/>
						</g>
						<g>
							<path class="st13" d="M43.6,52.8h1.5l0.1-0.1c0-0.1,0-0.1-0.1-0.1h-1.5C43.6,52.6,43.5,52.7,43.6,52.8
								C43.5,52.8,43.5,52.8,43.6,52.8z"/>
						</g>
						<g>
							<path class="st17" d="M43.6,52.4h1.5c0,0,0.1-0.1,0.1-0.1c0-0.1-0.1-0.1-0.1-0.1h-1.6c0,0-0.1,0.1-0.1,0.1
								C43.5,52.3,43.5,52.3,43.6,52.4z"/>
						</g>
						<g>
							<path class="st13" d="M43.6,52.4h1.5c0,0,0.1-0.1,0.1-0.1c0-0.1-0.1-0.1-0.1-0.1h-1.6c0,0-0.1,0.1-0.1,0.1
								C43.5,52.3,43.5,52.3,43.6,52.4z"/>
						</g>
					</g>
				</g>
			</g>
		</g>
	</g>
	<g>
		<g>
			<path class="st18" d="M54.2,92.8h1.2c0.2-0.3,0.5-0.3,0.5-0.3c-0.2-0.1-0.3-0.2-0.3-0.2c0.2-0.1,0.3-0.1,0.3-0.1
				c-0.4-0.2-0.7-0.1-0.7-0.1c0.2-0.3,0.4-0.5,0.4-0.5c-0.6-0.1-0.8,0.4-0.8,0.4c-0.1-0.3,0.2-0.6,0.2-0.6c-0.4,0.2-0.4,0.7-0.4,0.7
				c-0.2-0.3-0.4-0.3-0.4-0.3c0.3,0.3,0.2,0.5,0.2,0.5c-0.3-0.3-0.6-0.1-0.6-0.1c0.2,0,0.4,0.2,0.4,0.2c-0.2-0.1-0.4,0.3-0.4,0.3
				C53.9,92.7,54.2,92.8,54.2,92.8L54.2,92.8z"/>
			<path class="st18" d="M54.2,92.8h1.2c0.2-0.3,0.5-0.3,0.5-0.3c-0.2-0.1-0.3-0.2-0.3-0.2c0.2-0.1,0.3-0.1,0.3-0.1
				c-0.4-0.2-0.7-0.1-0.7-0.1c0.2-0.3,0.4-0.5,0.4-0.5c-0.6-0.1-0.8,0.4-0.8,0.4c-0.1-0.3,0.2-0.6,0.2-0.6c-0.4,0.2-0.4,0.7-0.4,0.7
				c-0.2-0.3-0.4-0.3-0.4-0.3c0.3,0.3,0.2,0.5,0.2,0.5c-0.3-0.3-0.6-0.1-0.6-0.1c0.2,0,0.4,0.2,0.4,0.2c-0.2-0.1-0.4,0.3-0.4,0.3
				C53.9,92.7,54.2,92.8,54.2,92.8L54.2,92.8z"/>
			<path class="st19" d="M55.3,92.8c0.1-0.2,0.4-0.3,0.4-0.3c-0.2-0.1-0.4,0-0.4,0c0.2-0.2,0.5-0.2,0.5-0.2
				c-0.3-0.1-0.8,0.3-0.8,0.3c0.1-0.3,0.6-0.8,0.6-0.8c-0.6,0-0.8,0.7-0.8,0.7c-0.1-0.3,0.1-0.7,0.1-0.7c-0.2,0.2-0.2,0.7-0.2,0.7
				c-0.1-0.2-0.2-0.3-0.2-0.3c0.2,0.3,0.3,0.6,0.3,0.6c-0.3-0.3-0.6-0.4-0.6-0.4c0.3,0.1,0.5,0.5,0.5,0.5c-0.4-0.4-0.8-0.2-0.8-0.2
				c0.3-0.1,0.5,0.1,0.6,0.2C54.4,92.8,55.3,92.8,55.3,92.8z"/>
		</g>
		<g>
			<path class="st20" d="M55.3,92.9c0.1,0,0.2-0.1,0.2-0.1c0-0.1,0-0.1,0-0.1c-0.1-0.1-0.2-0.1-0.3-0.1c-0.1,0-0.2,0-0.2,0.1
				c-0.1,0.1-0.1,0.1-0.1,0.2C55,93,55.2,93,55.3,92.9z"/>
			<path class="st21" d="M55.1,92.8c0.1,0,0.1,0,0.1-0.1v-0.1c-0.1-0.1-0.1-0.1-0.2-0.1c-0.1,0-0.1,0-0.1,0.1
				c-0.1,0-0.1,0.1-0.1,0.1C55,92.8,55.1,92.8,55.1,92.8z"/>
		</g>
		<g>
			<path class="st20" d="M54.7,93c0.1,0,0.1,0,0.2-0.1v-0.1c-0.1-0.1-0.1-0.1-0.2-0.1c-0.1,0-0.1,0-0.2,0.1c-0.1,0-0.1,0.1-0.1,0.1
				C54.5,93,54.6,93,54.7,93z"/>
			<path class="st21" d="M54.6,92.9c0,0,0.1,0,0.1-0.1c0,0,0,0,0-0.1c0,0-0.1-0.1-0.1-0.1h-0.1l-0.1,0.1
				C54.5,92.9,54.6,92.9,54.6,92.9z"/>
		</g>
	</g>
	<g>
		<g>
			<path class="st18" d="M57.2,100.7h1.2c0.2-0.3,0.5-0.3,0.5-0.3c-0.2-0.1-0.3-0.2-0.3-0.2c0.2-0.1,0.3-0.1,0.3-0.1
				c-0.4-0.2-0.7-0.1-0.7-0.1c0.2-0.3,0.4-0.5,0.4-0.5c-0.6-0.1-0.8,0.4-0.8,0.4c-0.1-0.3,0.2-0.6,0.2-0.6c-0.4,0.2-0.4,0.7-0.4,0.7
				c-0.2-0.3-0.4-0.3-0.4-0.3c0.3,0.3,0.2,0.5,0.2,0.5c-0.3-0.3-0.6-0.1-0.6-0.1c0.2,0,0.4,0.2,0.4,0.2c-0.2-0.1-0.4,0.3-0.4,0.3
				C56.9,100.4,57.1,100.7,57.2,100.7L57.2,100.7z"/>
			<path class="st18" d="M57.2,100.7h1.2c0.2-0.3,0.5-0.3,0.5-0.3c-0.2-0.1-0.3-0.2-0.3-0.2c0.2-0.1,0.3-0.1,0.3-0.1
				c-0.4-0.2-0.7-0.1-0.7-0.1c0.2-0.3,0.4-0.5,0.4-0.5c-0.6-0.1-0.8,0.4-0.8,0.4c-0.1-0.3,0.2-0.6,0.2-0.6c-0.4,0.2-0.4,0.7-0.4,0.7
				c-0.2-0.3-0.4-0.3-0.4-0.3c0.3,0.3,0.2,0.5,0.2,0.5c-0.3-0.3-0.6-0.1-0.6-0.1c0.2,0,0.4,0.2,0.4,0.2c-0.2-0.1-0.4,0.3-0.4,0.3
				C56.9,100.4,57.1,100.7,57.2,100.7L57.2,100.7z"/>
			<path class="st19" d="M58.3,100.7c0.1-0.2,0.4-0.3,0.4-0.3c-0.2-0.1-0.4,0-0.4,0c0.2-0.2,0.5-0.2,0.5-0.2
				c-0.3-0.1-0.8,0.3-0.8,0.3c0.1-0.3,0.6-0.8,0.6-0.8c-0.6,0-0.8,0.7-0.8,0.7c-0.1-0.3,0.1-0.7,0.1-0.7c-0.2,0.2-0.2,0.7-0.2,0.7
				c-0.1-0.2-0.2-0.3-0.2-0.3c0.2,0.3,0.3,0.6,0.3,0.6c-0.3-0.3-0.6-0.4-0.6-0.4c0.3,0.1,0.5,0.5,0.5,0.5c-0.3-0.3-0.8-0.1-0.8-0.1
				c0.3-0.1,0.5,0.1,0.6,0.2h0.9V100.7z"/>
		</g>
		<g>
			<path class="st20" d="M58.2,100.7c0.1,0,0.2-0.1,0.2-0.1c0-0.1,0-0.1,0-0.1c-0.1-0.1-0.2-0.1-0.3-0.1c-0.1,0-0.2,0-0.2,0.1
				c-0.1,0.1-0.1,0.1-0.1,0.2C57.9,100.8,58.2,100.7,58.2,100.7z"/>
			<path class="st21" d="M58.1,100.7c0.1,0,0.1,0,0.1-0.1v-0.1c-0.1-0.1-0.1-0.1-0.2-0.1s-0.1,0-0.1,0.1c-0.1,0-0.1,0.1-0.1,0.1
				C58,100.7,58.1,100.7,58.1,100.7z"/>
		</g>
		<g>
			<path class="st20" d="M57.7,100.7c0.1,0,0.1,0,0.2-0.1v-0.1c-0.1-0.1-0.1-0.1-0.2-0.1c-0.1,0-0.1,0-0.2,0.1
				c-0.1,0-0.1,0.1-0.1,0.1C57.5,100.7,57.6,100.7,57.7,100.7z"/>
			<path class="st21" d="M57.6,100.7c0,0,0.1,0,0.1-0.1c0,0,0,0,0-0.1c0,0-0.1-0.1-0.1-0.1h-0.1l-0.1,0.1
				C57.5,100.7,57.5,100.7,57.6,100.7z"/>
		</g>
	</g>
	<g>
		<g>
			<path class="st18" d="M48.2,102.3h-1c-0.2-0.2-0.4-0.2-0.4-0.2c0.1-0.1,0.3-0.1,0.3-0.1c-0.1-0.1-0.3-0.1-0.3-0.1
				c0.3-0.2,0.6-0.1,0.6-0.1c-0.1-0.2-0.3-0.4-0.3-0.4c0.4-0.1,0.7,0.3,0.7,0.3c0.1-0.2-0.2-0.5-0.2-0.5c0.3,0.2,0.3,0.5,0.3,0.5
				c0.1-0.2,0.3-0.3,0.3-0.3c-0.2,0.2-0.2,0.4-0.2,0.4c0.2-0.2,0.5-0.1,0.5-0.1c-0.2,0-0.3,0.2-0.3,0.2c0.2-0.1,0.4,0.3,0.4,0.3
				C48.4,102.1,48.2,102.3,48.2,102.3L48.2,102.3z"/>
			<path class="st18" d="M48.2,102.3h-1c-0.2-0.2-0.4-0.2-0.4-0.2c0.1-0.1,0.3-0.1,0.3-0.1c-0.1-0.1-0.3-0.1-0.3-0.1
				c0.3-0.2,0.6-0.1,0.6-0.1c-0.1-0.2-0.3-0.4-0.3-0.4c0.4-0.1,0.7,0.3,0.7,0.3c0.1-0.2-0.2-0.5-0.2-0.5c0.3,0.2,0.3,0.5,0.3,0.5
				c0.1-0.2,0.3-0.3,0.3-0.3c-0.2,0.2-0.2,0.4-0.2,0.4c0.2-0.2,0.5-0.1,0.5-0.1c-0.2,0-0.3,0.2-0.3,0.2c0.2-0.1,0.4,0.3,0.4,0.3
				C48.4,102.1,48.2,102.3,48.2,102.3L48.2,102.3z"/>
			<path class="st19" d="M47.2,102.3c-0.1-0.2-0.3-0.3-0.3-0.3c0.1-0.1,0.3,0,0.3,0c-0.2-0.2-0.4-0.2-0.4-0.2
				c0.3-0.1,0.7,0.2,0.7,0.2c-0.1-0.3-0.4-0.7-0.4-0.7c0.4,0,0.6,0.6,0.6,0.6c0.1-0.3-0.1-0.6-0.1-0.6c0.1,0.2,0.2,0.6,0.2,0.6
				c0.1-0.2,0.2-0.2,0.2-0.2c-0.1,0.2-0.2,0.5-0.2,0.5c0.2-0.3,0.5-0.3,0.5-0.3c-0.3,0.1-0.4,0.4-0.4,0.4c0.3-0.2,0.6-0.1,0.6-0.1
				c-0.2-0.1-0.4,0.1-0.4,0.1H47.2z"/>
		</g>
		<g>
			<path class="st20" d="M47.3,102.3c-0.1,0-0.1-0.1-0.2-0.1c0,0,0-0.1,0-0.1c0.1-0.1,0.2-0.1,0.2-0.1s0.1,0,0.2,0.1
				c0.1,0.1,0.1,0.1,0.1,0.2C47.6,102.3,47.4,102.3,47.3,102.3z"/>
			<path class="st21" d="M47.4,102.3c-0.1,0-0.1,0-0.1-0.1v-0.1c0,0,0.1-0.1,0.1-0.1c0.1,0,0.1,0,0.1,0l0.1,0.1
				C47.5,102.3,47.4,102.3,47.4,102.3z"/>
		</g>
		<g>
			<path class="st20" d="M47.8,102.3c-0.1,0-0.1,0-0.1-0.1v-0.1c0.1-0.1,0.1-0.1,0.2-0.1c0.1,0,0.1,0,0.1,0.1c0.1,0,0.1,0.1,0.1,0.1
				C47.9,102.3,47.8,102.3,47.8,102.3z"/>
			<path class="st21" d="M47.8,102.3L47.8,102.3C47.8,102.3,47.8,102.3,47.8,102.3L47.8,102.3L47.8,102.3
				C47.9,102.2,47.9,102.3,47.8,102.3C47.9,102.3,47.8,102.3,47.8,102.3z"/>
		</g>
	</g>
	<g>
		<pattern  id="SVGID_3_" xlink:href="#SVGID_8_" patternTransform="matrix(0.7358 0 0 -0.736 -711.8574 -15854.8174)">
		</pattern>
		<path class="st22" d="M49.1,96.2C49.1,96.2,49.1,96.2,49.1,96.2l-2.9,0.1c0,0-0.1,0-0.1-0.1l-0.4-4c0-0.1,0-0.1,0.1-0.1h3.8
			c0.1,0,0.1,0,0.1,0.1L49.1,96.2z"/>
		<path class="st23" d="M46.6,84c-0.3-1.4-0.2-3.3,0.3-3.5c0.6-0.1,1.5,1.6,1.8,3c0.3,1.4-0.1,2.1-0.6,2.3
			C47.5,85.9,46.9,85.4,46.6,84z"/>
		<path class="st24" d="M48.1,92L48.1,92C48,92,47.9,92,48,91.9c0.3-1.6,0.4-3.3,0.3-4.9c-0.1-1.7-0.5-3.3-1.1-4.8
			c0-0.1,0-0.1,0.1-0.1c0.1,0,0.1,0,0.1,0.1c0.6,1.6,1,3.2,1.1,4.9c0.1,1.7,0.1,3.4-0.3,5C48.2,92,48.1,92,48.1,92z"/>
		<path class="st25" d="M44.6,84.3c-0.6-1.4-0.8-3.3-0.3-3.5c0.6-0.2,1.7,1.3,2.3,2.6c0.6,1.4,0.3,2.1-0.2,2.3
			C45.8,86,45.2,85.6,44.6,84.3z"/>
		<path class="st25" d="M44.5,87.5c-0.7-0.9-1.3-2.3-0.9-2.6c0.4-0.3,1.6,0.6,2.3,1.6c0.7,0.9,0.7,1.6,0.3,1.8
			C45.8,88.5,45.2,88.4,44.5,87.5z"/>
		<path class="st25" d="M51.5,87.5c0.9-0.8,1.8-2.2,1.4-2.5c-0.3-0.4-1.8,0.4-2.7,1.2c-0.9,0.8-1,1.5-0.6,1.8
			C49.9,88.4,50.6,88.3,51.5,87.5z"/>
		<path class="st26" d="M49.8,84.8c0.4-1.4,0.5-3.3-0.1-3.5c-0.6-0.2-1.6,1.4-2,2.8c-0.4,1.4-0.1,2.1,0.4,2.3
			C48.7,86.6,49.4,86.1,49.8,84.8z"/>
		<path class="st24" d="M48.2,92L48.2,92c-0.1,0-0.1-0.1-0.1-0.1c0.1-1.2,0.4-2.4,1.1-3.5c0.7-1.1,1.5-2,2.5-2.7
			c0.1-0.1,0.1,0,0.1,0c0.1,0.1,0,0.1,0,0.1c-1,0.7-1.8,1.6-2.4,2.6c-0.6,1.1-1,2.2-1.1,3.4C48.3,92,48.3,92,48.2,92z"/>
		<path class="st24" d="M47.5,92L47.5,92c-0.1,0-0.1-0.1-0.1-0.1c0.1-1.7-0.2-3.3-0.6-4.9c-0.4-1.6-1.1-3.2-2-4.5
			c0-0.1,0-0.1,0.1-0.1c0.1,0,0.1,0,0.1,0.1c0.9,1.4,1.6,3,2,4.6c0.4,1.7,0.6,3.3,0.6,5C47.6,91.9,47.6,92,47.5,92z"/>
		<path class="st24" d="M47.7,92L47.7,92c-0.1,0-0.1-0.1-0.1-0.1l0.4-4.1c0.1-1.4,0.3-2.9,0.7-4.3c0-0.1,0.1-0.1,0.1-0.1
			c0.1,0,0.1,0.1,0.1,0.1c-0.5,1.4-0.6,2.8-0.7,4.3L47.7,92C47.8,91.9,47.8,92,47.7,92z"/>
		<path class="st24" d="M47.4,92.1c-0.1,0-0.1-0.1-0.1-0.1c-0.1-2.1-1.1-4.1-2.5-5.5c-0.1-0.1-0.1-0.1,0-0.1c0.1-0.1,0.1-0.1,0.1,0
			C46.3,87.8,47.3,89.9,47.4,92.1C47.5,92,47.4,92.1,47.4,92.1L47.4,92.1z"/>
		<path class="st27" d="M49.7,92.2C49.7,92.2,49.7,92.3,49.7,92.2l-4,0.1c0,0-0.1,0-0.1-0.1v-0.7c0,0,0-0.1,0.1-0.1h4
			c0,0,0.1,0,0.1,0.1L49.7,92.2L49.7,92.2z"/>
		<path class="st28" d="M43.7,89.6c-0.4,1.1-0.5,2.7,0,2.8c0.6,0.2,1.5-1,1.9-2.1C46.1,89.3,44.2,88.5,43.7,89.6z"/>
		<path class="st23" d="M44,91.5l0.1-0.2c0.2-0.6,0.4-1.1,0.6-1.4c0.2-0.4,0.4-0.6,0.6-0.7c0.2-0.1,0.4-0.1,0.7,0.1
			c0.4,0.2,0.8,0.7,1,1.3c0.1,0.3,0.2,0.7,0.2,1h-0.2c-0.1-0.8-0.4-1.8-1.1-2.2c-0.2-0.1-0.4-0.1-0.6-0.1c-0.4,0.2-0.6,0.9-1.1,2.1
			l-0.1,0.2C44.1,91.5,44.1,91.5,44,91.5C44,91.6,44,91.5,44,91.5z"/>
	</g>
</g>
<title>Plan de travail 1</title>
<g>
	<g id="Calque_1_1_">
		
			<linearGradient id="SVGID_4_" gradientUnits="userSpaceOnUse" x1="41.9163" y1="63.605" x2="45.18" y2="63.605" gradientTransform="matrix(1 0 0 -1 0 128)">
			<stop  offset="0" style="stop-color:#5A5A5A"/>
			<stop  offset="9.000000e-02" style="stop-color:#585858"/>
			<stop  offset="0.13" style="stop-color:#515151"/>
			<stop  offset="0.15" style="stop-color:#464646"/>
			<stop  offset="0.16" style="stop-color:#414141"/>
			<stop  offset="0.23" style="stop-color:#343434"/>
			<stop  offset="0.86" style="stop-color:#373737"/>
			<stop  offset="0.86" style="stop-color:#333333"/>
			<stop  offset="0.88" style="stop-color:#202020"/>
			<stop  offset="0.91" style="stop-color:#131313"/>
			<stop  offset="0.94" style="stop-color:#0B0B0B"/>
			<stop  offset="1" style="stop-color:#090909"/>
		</linearGradient>
		<polygon class="st29" points="41.9,116.1 45.2,116.1 45.2,16.2 41.9,12.7 		"/>
		
			<linearGradient id="SVGID_5_" gradientUnits="userSpaceOnUse" x1="87.73" y1="63.605" x2="91.16" y2="63.605" gradientTransform="matrix(1 0 0 -1 0 128)">
			<stop  offset="0" style="stop-color:#5A5A5A"/>
			<stop  offset="9.000000e-02" style="stop-color:#585858"/>
			<stop  offset="0.13" style="stop-color:#515151"/>
			<stop  offset="0.15" style="stop-color:#464646"/>
			<stop  offset="0.16" style="stop-color:#414141"/>
			<stop  offset="0.23" style="stop-color:#343434"/>
			<stop  offset="0.86" style="stop-color:#373737"/>
			<stop  offset="0.86" style="stop-color:#333333"/>
			<stop  offset="0.88" style="stop-color:#202020"/>
			<stop  offset="0.91" style="stop-color:#131313"/>
			<stop  offset="0.94" style="stop-color:#0B0B0B"/>
			<stop  offset="1" style="stop-color:#090909"/>
		</linearGradient>
		<polygon class="st30" points="87.7,16.2 87.7,116.1 91.2,116.1 91.2,12.7 		"/>
		
			<linearGradient id="SVGID_6_" gradientUnits="userSpaceOnUse" x1="66.455" y1="115.26" x2="66.455" y2="111.83" gradientTransform="matrix(1 0 0 -1 0 128)">
			<stop  offset="0" style="stop-color:#5A5A5A"/>
			<stop  offset="9.000000e-02" style="stop-color:#585858"/>
			<stop  offset="0.13" style="stop-color:#515151"/>
			<stop  offset="0.15" style="stop-color:#464646"/>
			<stop  offset="0.16" style="stop-color:#414141"/>
			<stop  offset="0.23" style="stop-color:#343434"/>
			<stop  offset="0.86" style="stop-color:#373737"/>
			<stop  offset="0.86" style="stop-color:#333333"/>
			<stop  offset="0.88" style="stop-color:#202020"/>
			<stop  offset="0.91" style="stop-color:#131313"/>
			<stop  offset="0.94" style="stop-color:#0B0B0B"/>
			<stop  offset="1" style="stop-color:#090909"/>
		</linearGradient>
		<polygon class="st31" points="87.7,16.2 91.2,12.7 41.8,12.7 45.2,16.2 		"/>
		
			<linearGradient id="SVGID_7_" gradientUnits="userSpaceOnUse" x1="85.17" y1="61.89" x2="87.81" y2="61.89" gradientTransform="matrix(1 0 0 -1 0 128)">
			<stop  offset="0" style="stop-color:#303030"/>
			<stop  offset="0.19" style="stop-color:#2B2B2B"/>
			<stop  offset="1" style="stop-color:#1A1A1A"/>
		</linearGradient>
		<rect x="85.2" y="16.2" class="st32" width="2.6" height="99.9"/>
		
			<linearGradient id="SVGID_9_" gradientUnits="userSpaceOnUse" x1="87.1499" y1="97.485" x2="87.81" y2="97.485" gradientTransform="matrix(1 0 0 -1 0 128)">
			<stop  offset="0" style="stop-color:#999999"/>
			<stop  offset="7.000000e-02" style="stop-color:#A6A6A6"/>
			<stop  offset="0.19" style="stop-color:#CACACA"/>
			<stop  offset="0.31" style="stop-color:#F2F2F2"/>
			<stop  offset="0.48" style="stop-color:#F0F0F0"/>
			<stop  offset="0.54" style="stop-color:#E9E9E9"/>
			<stop  offset="0.59" style="stop-color:#DEDEDE"/>
			<stop  offset="0.62" style="stop-color:#D1D1D1"/>
			<stop  offset="0.63" style="stop-color:#CACACA"/>
			<stop  offset="0.75" style="stop-color:#9F9F9F"/>
			<stop  offset="0.85" style="stop-color:#808080"/>
			<stop  offset="0.94" style="stop-color:#6D6D6D"/>
			<stop  offset="1" style="stop-color:#666666"/>
		</linearGradient>
		<path class="st33" d="M87.8,34.1L87.8,34.1c-0.4,0-0.7-0.3-0.7-0.6c0,0,0,0,0,0v-5.8c0-0.4,0.3-0.7,0.6-0.7c0,0,0,0,0,0l0,0V34.1z
			"/>
		<rect x="87.2" y="30.4" class="st34" width="0.7" height="0.3"/>
		
			<linearGradient id="SVGID_10_" gradientUnits="userSpaceOnUse" x1="87.15" y1="26.29" x2="87.81" y2="26.29" gradientTransform="matrix(1 0 0 -1 0 128)">
			<stop  offset="0" style="stop-color:#999999"/>
			<stop  offset="7.000000e-02" style="stop-color:#A6A6A6"/>
			<stop  offset="0.19" style="stop-color:#CACACA"/>
			<stop  offset="0.31" style="stop-color:#F2F2F2"/>
			<stop  offset="0.48" style="stop-color:#F0F0F0"/>
			<stop  offset="0.54" style="stop-color:#E9E9E9"/>
			<stop  offset="0.59" style="stop-color:#DEDEDE"/>
			<stop  offset="0.62" style="stop-color:#D1D1D1"/>
			<stop  offset="0.63" style="stop-color:#CACACA"/>
			<stop  offset="0.75" style="stop-color:#9F9F9F"/>
			<stop  offset="0.85" style="stop-color:#808080"/>
			<stop  offset="0.94" style="stop-color:#6D6D6D"/>
			<stop  offset="1" style="stop-color:#666666"/>
		</linearGradient>
		<path class="st35" d="M87.8,105.3L87.8,105.3c-0.4,0-0.7-0.3-0.7-0.7v0v-5.8c0-0.4,0.3-0.7,0.7-0.7h0l0,0V105.3z"/>
		<rect x="87.2" y="101.6" class="st34" width="0.7" height="0.3"/>
		
			<linearGradient id="SVGID_11_" gradientUnits="userSpaceOnUse" x1="80.3551" y1="11.1875" x2="64.9241" y2="108.6236" gradientTransform="matrix(1 0 0 -1 0 128)">
			<stop  offset="0" style="stop-color:#343434"/>
			<stop  offset="2.000000e-02" style="stop-color:#343434"/>
			<stop  offset="1" style="stop-color:#414141"/>
		</linearGradient>
		<polyline class="st36" points="85.2,16.2 85.2,116.1 58.8,111.5 58.8,20.7 85.2,16.2 		"/>
		
			<linearGradient id="SVGID_12_" gradientUnits="userSpaceOnUse" x1="64.0849" y1="15.8715" x2="57.6648" y2="107.6223" gradientTransform="matrix(1 0 0 -1 0 128)">
			<stop  offset="0" style="stop-color:#343434"/>
			<stop  offset="2.000000e-02" style="stop-color:#343434"/>
			<stop  offset="1" style="stop-color:#414141"/>
		</linearGradient>
		<polyline class="st37" points="62.9,20 62.9,112.2 58.8,111.5 58.8,20.7 62.9,20 		"/>
		
			<linearGradient id="SVGID_13_" gradientUnits="userSpaceOnUse" x1="86.2462" y1="12.0253" x2="79.296" y2="111.4193" gradientTransform="matrix(1 0 0 -1 0 128)">
			<stop  offset="0" style="stop-color:#343434"/>
			<stop  offset="2.000000e-02" style="stop-color:#343434"/>
			<stop  offset="1" style="stop-color:#414141"/>
		</linearGradient>
		<polyline class="st38" points="85.2,16.2 85.2,116.1 80.3,115.2 80.3,17 85.2,16.2 		"/>
		<g>
			<polyline class="st39" points="62.9,20 62.9,112.2 62.8,112.2 62.8,20 62.9,20 			"/>
		</g>
		<g>
			<polyline class="st39" points="80.4,17 80.4,115.2 80.3,115.2 80.3,17 80.4,17 			"/>
		</g>
		
			<linearGradient id="SVGID_14_" gradientUnits="userSpaceOnUse" x1="71.605" y1="24.77" x2="71.605" y2="29.1" gradientTransform="matrix(1 0 0 -1 0 128)">
			<stop  offset="0" style="stop-color:#B3B3B3"/>
			<stop  offset="1" style="stop-color:#E1E1E1"/>
		</linearGradient>
		<polygon class="st40" points="80.3,103.2 62.9,101 62.9,98.9 80.3,101 		"/>
		
			<linearGradient id="SVGID_15_" gradientUnits="userSpaceOnUse" x1="62.92" y1="26.94" x2="80.29" y2="26.94" gradientTransform="matrix(1 0 0 -1 0 128)">
			<stop  offset="0" style="stop-color:#A2B7B8"/>
			<stop  offset="1" style="stop-color:#738687"/>
		</linearGradient>
		<polygon class="st41" points="80.3,103 62.9,100.8 62.9,99.1 80.3,101.2 		"/>
		
			<linearGradient id="SVGID_16_" gradientUnits="userSpaceOnUse" x1="71.605" y1="39.17" x2="71.605" y2="42.63" gradientTransform="matrix(1 0 0 -1 0 128)">
			<stop  offset="0" style="stop-color:#B3B3B3"/>
			<stop  offset="1" style="stop-color:#E1E1E1"/>
		</linearGradient>
		<polygon class="st42" points="80.3,88.8 62.9,87.4 62.9,85.4 80.3,86.6 		"/>
		
			<linearGradient id="SVGID_17_" gradientUnits="userSpaceOnUse" x1="62.92" y1="40.91" x2="80.29" y2="40.91" gradientTransform="matrix(1 0 0 -1 0 128)">
			<stop  offset="0" style="stop-color:#A2B7B8"/>
			<stop  offset="1" style="stop-color:#738687"/>
		</linearGradient>
		<polygon class="st43" points="80.3,88.6 62.9,87.2 62.9,85.6 80.3,86.8 		"/>
		
			<linearGradient id="SVGID_18_" gradientUnits="userSpaceOnUse" x1="71.605" y1="53.58" x2="71.605" y2="56.16" gradientTransform="matrix(1 0 0 -1 0 128)">
			<stop  offset="0" style="stop-color:#B3B3B3"/>
			<stop  offset="1" style="stop-color:#E1E1E1"/>
		</linearGradient>
		<polygon class="st44" points="80.3,74.4 62.9,73.9 62.9,71.8 80.3,72.2 		"/>
		
			<linearGradient id="SVGID_19_" gradientUnits="userSpaceOnUse" x1="62.92" y1="54.88" x2="80.29" y2="54.88" gradientTransform="matrix(1 0 0 -1 0 128)">
			<stop  offset="0" style="stop-color:#A2B7B8"/>
			<stop  offset="1" style="stop-color:#738687"/>
		</linearGradient>
		<polygon class="st45" points="80.3,74.2 62.9,73.7 62.9,72 80.3,72.4 		"/>
		
			<linearGradient id="SVGID_20_" gradientUnits="userSpaceOnUse" x1="71.605" y1="67.62" x2="71.605" y2="70.2" gradientTransform="matrix(1 0 0 -1 0 128)">
			<stop  offset="0" style="stop-color:#B3B3B3"/>
			<stop  offset="1" style="stop-color:#E1E1E1"/>
		</linearGradient>
		<polygon class="st46" points="80.3,60 62.9,60.4 62.9,58.3 80.3,57.8 		"/>
		
			<linearGradient id="SVGID_21_" gradientUnits="userSpaceOnUse" x1="62.92" y1="68.9" x2="80.29" y2="68.9" gradientTransform="matrix(1 0 0 -1 0 128)">
			<stop  offset="0" style="stop-color:#A2B7B8"/>
			<stop  offset="1" style="stop-color:#738687"/>
		</linearGradient>
		<polygon class="st47" points="80.3,59.8 62.9,60.2 62.9,58.5 80.3,58 		"/>
		
			<linearGradient id="SVGID_22_" gradientUnits="userSpaceOnUse" x1="71.605" y1="81.15" x2="71.605" y2="84.6" gradientTransform="matrix(1 0 0 -1 0 128)">
			<stop  offset="0" style="stop-color:#B3B3B3"/>
			<stop  offset="1" style="stop-color:#E1E1E1"/>
		</linearGradient>
		<polygon class="st48" points="80.3,45.6 62.9,46.8 62.9,44.8 80.3,43.4 		"/>
		
			<linearGradient id="SVGID_23_" gradientUnits="userSpaceOnUse" x1="62.92" y1="82.87" x2="80.29" y2="82.87" gradientTransform="matrix(1 0 0 -1 0 128)">
			<stop  offset="0" style="stop-color:#A2B7B8"/>
			<stop  offset="1" style="stop-color:#738687"/>
		</linearGradient>
		<polygon class="st49" points="80.3,45.4 62.9,46.7 62.9,45 80.3,43.6 		"/>
		
			<linearGradient id="SVGID_24_" gradientUnits="userSpaceOnUse" x1="71.605" y1="94.67" x2="71.605" y2="99.01" gradientTransform="matrix(1 0 0 -1 0 128)">
			<stop  offset="0" style="stop-color:#B3B3B3"/>
			<stop  offset="1" style="stop-color:#E1E1E1"/>
		</linearGradient>
		<polygon class="st50" points="80.3,31.2 62.9,33.3 62.9,31.2 80.3,29 		"/>
		
			<linearGradient id="SVGID_25_" gradientUnits="userSpaceOnUse" x1="62.92" y1="96.835" x2="80.29" y2="96.835" gradientTransform="matrix(1 0 0 -1 0 128)">
			<stop  offset="0" style="stop-color:#A2B7B8"/>
			<stop  offset="1" style="stop-color:#738687"/>
		</linearGradient>
		<polygon class="st51" points="80.3,31 62.9,33.1 62.9,31.5 80.3,29.2 		"/>
		
			<linearGradient id="SVGID_26_" gradientUnits="userSpaceOnUse" x1="60.9665" y1="64.06" x2="60.9665" y2="55.79" gradientTransform="matrix(1 0 0 -1 0 128)">
			<stop  offset="0" style="stop-color:#D9D9D9"/>
			<stop  offset="2.000000e-02" style="stop-color:#BBBBBB"/>
			<stop  offset="1" style="stop-color:#8E8E8E"/>
		</linearGradient>
		<path class="st52" d="M62,72.2h-2.1c0,0,0,0,0-0.1V64v-0.1H62c0,0,0,0,0,0.1V72.2C62,72.2,62,72.2,62,72.2z"/>
		
			<linearGradient id="SVGID_27_" gradientUnits="userSpaceOnUse" x1="58.2583" y1="62.227" x2="63.3683" y2="57.617" gradientTransform="matrix(1 0 0 -1 0 128)">
			<stop  offset="0" style="stop-color:#D0D0D0"/>
			<stop  offset="0.32" style="stop-color:#E6E6E6"/>
			<stop  offset="1" style="stop-color:#8E8E8E"/>
		</linearGradient>
		<path class="st53" d="M61.7,72.2h-1.8c0,0,0,0,0-0.1V64v-0.1h1.8c0,0,0,0,0,0.1V72.2C61.7,72.2,61.7,72.2,61.7,72.2z"/>
		
			<linearGradient id="SVGID_28_" gradientUnits="userSpaceOnUse" x1="64.575" y1="61.14" x2="64.575" y2="62.63" gradientTransform="matrix(1 0 0 -1 0 128)">
			<stop  offset="0" style="stop-color:#8F8F8F"/>
			<stop  offset="3.000000e-02" style="stop-color:#8D8D8D"/>
			<stop  offset="4.000000e-02" style="stop-color:#868686"/>
			<stop  offset="4.000000e-02" style="stop-color:#7D7D7D"/>
			<stop  offset="0.42" style="stop-color:#A6A6A6"/>
			<stop  offset="0.52" style="stop-color:#B0B0B0"/>
			<stop  offset="0.79" style="stop-color:#C8C8C8"/>
			<stop  offset="0.95" style="stop-color:#D1D1D1"/>
			<stop  offset="0.96" style="stop-color:#E1E1E1"/>
			<stop  offset="0.97" style="stop-color:#E7E7E7"/>
		</linearGradient>
		<path class="st54" d="M67,66.9h-4.8l0,0v-1.5H67l0,0V66.9L67,66.9z"/>
		
			<linearGradient id="SVGID_29_" gradientUnits="userSpaceOnUse" x1="63.565" y1="61.14" x2="63.565" y2="62.63" gradientTransform="matrix(1 0 0 -1 0 128)">
			<stop  offset="0" style="stop-color:#B9B9B9"/>
			<stop  offset="2.000000e-02" style="stop-color:#B7B7B7"/>
			<stop  offset="3.000000e-02" style="stop-color:#B0B0B0"/>
			<stop  offset="4.000000e-02" style="stop-color:#A5A5A5"/>
			<stop  offset="4.000000e-02" style="stop-color:#949494"/>
			<stop  offset="4.000000e-02" style="stop-color:#8D8D8D"/>
			<stop  offset="0.42" style="stop-color:#B9B9B9"/>
			<stop  offset="0.47" style="stop-color:#BDBDBD"/>
			<stop  offset="0.77" style="stop-color:#D5D5D5"/>
			<stop  offset="0.95" style="stop-color:#DEDEDE"/>
			<stop  offset="0.96" style="stop-color:#E1E1E1"/>
			<stop  offset="0.97" style="stop-color:#E7E7E7"/>
		</linearGradient>
		<path class="st55" d="M66.8,66.9h-6.4l0,0v-1.5h6.4l0,0V66.9L66.8,66.9z"/>
		
			<linearGradient id="SVGID_30_" gradientUnits="userSpaceOnUse" x1="60.805" y1="57.87" x2="60.805" y2="59.25" gradientTransform="matrix(1 0 0 -1 0 128)">
			<stop  offset="0.65" style="stop-color:#8E8E8E"/>
			<stop  offset="1" style="stop-color:#D0D0D0"/>
		</linearGradient>
		<path class="st56" d="M60.9,68.8h-0.1c-0.2,0-0.4,0.3-0.4,0.7s0.2,0.7,0.4,0.7h0.1c0.2,0,0.4-0.3,0.4-0.7S61.1,68.8,60.9,68.8z"/>
		
			<radialGradient id="SVGID_31_" cx="-944.29" cy="58.47" r="0.7" gradientTransform="matrix(0.62 0 0 -1 645.78 128.02)" gradientUnits="userSpaceOnUse">
			<stop  offset="0" style="stop-color:#D0D0D0"/>
			<stop  offset="0.88" style="stop-color:#E6E6E6"/>
			<stop  offset="1" style="stop-color:#CCCCCC"/>
		</radialGradient>
		<path class="st57" d="M61.2,69.4c0,0.4-0.2,0.7-0.4,0.7s-0.4-0.3-0.4-0.7s0.2-0.7,0.4-0.7S61.2,69.1,61.2,69.4z"/>
		<polygon class="st58" points="60.5,69.4 60.5,69.5 61,69.5 61,69.4 		"/>
	</g>
</g>
<linearGradient id="SVGID_32_" gradientUnits="userSpaceOnUse" x1="122" y1="119.625" x2="122" y2="119.625">
	<stop  offset="3.888600e-04" style="stop-color:#00E9DF;stop-opacity:0"/>
	<stop  offset="1" style="stop-color:#AFD5D5"/>
</linearGradient>
<path class="st59" d="M122,119.6"/>
</svg>
