<?xml version="1.0" encoding="UTF-8" standalone="no"?>
<!-- Generator: Adobe Illustrator 19.0.0, SVG Export Plug-In . SVG Version: 6.00 Build 0)  -->

<svg
   version="1.1"
   id="Layer_1"
   x="0px"
   y="0px"
   viewBox="0 0 128 105.143"
   xml:space="preserve"
   sodipodi:docname="radio.svg"
   width="128"
   height="105.143"
   inkscape:version="1.1.1 (3bf5ae0d25, 2021-09-20)"
   inkscape:export-filename="/home/sebastien/Essai/radio.png"
   inkscape:export-xdpi="96"
   inkscape:export-ydpi="96"
   xmlns:inkscape="http://www.inkscape.org/namespaces/inkscape"
   xmlns:sodipodi="http://sodipodi.sourceforge.net/DTD/sodipodi-0.dtd"
   xmlns="http://www.w3.org/2000/svg"
   xmlns:svg="http://www.w3.org/2000/svg"><defs
   id="defs131" /><sodipodi:namedview
   id="namedview129"
   pagecolor="#ffffff"
   bordercolor="#666666"
   borderopacity="1.0"
   inkscape:pageshadow="2"
   inkscape:pageopacity="0.0"
   inkscape:pagecheckerboard="0"
   showgrid="false"
   fit-margin-top="0"
   fit-margin-left="0"
   fit-margin-right="0"
   fit-margin-bottom="0"
   showguides="false"
   inkscape:zoom="1.515625"
   inkscape:cx="-10.226804"
   inkscape:cy="52.783505"
   inkscape:window-width="1920"
   inkscape:window-height="979"
   inkscape:window-x="0"
   inkscape:window-y="0"
   inkscape:window-maximized="1"
   inkscape:current-layer="Layer_1" />
<rect
   x="7.8369999"
   y="155.429"
   style="fill:#79cae8;stroke-width:4"
   width="496.327"
   height="73.142998"
   id="rect2"
   transform="matrix(0.25,0,0,0.25,0,-11.4285)" />
<g
   id="g18"
   transform="matrix(0.25,0,0,0.25,0,-11.4285)"
   style="stroke-width:4">
	<rect
   x="7.8369999"
   y="228.571"
   style="fill:#4b92b9;stroke-width:16"
   width="496.327"
   height="229.87801"
   id="rect4" />
	<rect
   x="103.361"
   y="131.396"
   style="fill:#4b92b9;stroke-width:16"
   width="24.033001"
   height="24.033001"
   id="rect6" />
	<rect
   x="159.608"
   y="131.396"
   style="fill:#4b92b9;stroke-width:16"
   width="24.033001"
   height="24.033001"
   id="rect8" />
	<rect
   x="215.855"
   y="131.396"
   style="fill:#4b92b9;stroke-width:16"
   width="24.033001"
   height="24.033001"
   id="rect10" />
	<rect
   x="272.112"
   y="131.396"
   style="fill:#4b92b9;stroke-width:16"
   width="24.033001"
   height="24.033001"
   id="rect12" />
	<rect
   x="328.35901"
   y="131.396"
   style="fill:#4b92b9;stroke-width:16"
   width="24.033001"
   height="24.033001"
   id="rect14" />
	<rect
   x="384.60599"
   y="131.396"
   style="fill:#4b92b9;stroke-width:16"
   width="24.033001"
   height="24.033001"
   id="rect16" />
</g>
<rect
   x="203.755"
   y="265.14301"
   style="fill:#caf9f4;stroke-width:4"
   width="104.49"
   height="73.142998"
   id="rect20"
   transform="matrix(0.25,0,0,0.25,0,-11.4285)" />
<rect
   x="203.755"
   y="288.65302"
   style="fill:#79cae8;stroke-width:4"
   width="104.49"
   height="26.122"
   id="rect22"
   transform="matrix(0.25,0,0,0.25,0,-11.4285)" />
<circle
   style="fill:#caf9f4;stroke-width:4"
   cx="102.902"
   cy="343.51001"
   r="67.917999"
   id="circle24"
   transform="matrix(0.25,0,0,0.25,0,-11.4285)" />
<circle
   style="fill:#79cae8;stroke-width:4"
   cx="102.902"
   cy="343.51001"
   r="47.02"
   id="circle26"
   transform="matrix(0.25,0,0,0.25,0,-11.4285)" />
<circle
   style="fill:#4b92b9;stroke-width:4"
   cx="102.902"
   cy="343.51001"
   r="15.673"
   id="circle28"
   transform="matrix(0.25,0,0,0.25,0,-11.4285)" />
<circle
   cx="45.43"
   cy="286.04099"
   r="10.449"
   id="circle30"
   transform="matrix(0.25,0,0,0.25,0,-11.4285)"
   style="stroke-width:4" />
<circle
   cx="160.371"
   cy="286.04099"
   r="10.449"
   id="circle32"
   transform="matrix(0.25,0,0,0.25,0,-11.4285)"
   style="stroke-width:4" />
<circle
   cx="45.43"
   cy="400.98001"
   r="10.449"
   id="circle34"
   transform="matrix(0.25,0,0,0.25,0,-11.4285)"
   style="stroke-width:4" />
<circle
   cx="160.371"
   cy="400.98001"
   r="10.449"
   id="circle36"
   transform="matrix(0.25,0,0,0.25,0,-11.4285)"
   style="stroke-width:4" />
<circle
   style="fill:#caf9f4;stroke-width:4"
   cx="409.09799"
   cy="343.51001"
   r="67.917999"
   id="circle38"
   transform="matrix(0.25,0,0,0.25,0,-11.4285)" />
<circle
   style="fill:#79cae8;stroke-width:4"
   cx="409.09799"
   cy="343.51001"
   r="47.02"
   id="circle40"
   transform="matrix(0.25,0,0,0.25,0,-11.4285)" />
<circle
   style="fill:#4b92b9;stroke-width:4"
   cx="409.09799"
   cy="343.51001"
   r="15.673"
   id="circle42"
   transform="matrix(0.25,0,0,0.25,0,-11.4285)" />
<circle
   cx="351.629"
   cy="286.04099"
   r="10.449"
   id="circle44"
   transform="matrix(0.25,0,0,0.25,0,-11.4285)"
   style="stroke-width:4" />
<circle
   cx="466.56799"
   cy="286.04099"
   r="10.449"
   id="circle46"
   transform="matrix(0.25,0,0,0.25,0,-11.4285)"
   style="stroke-width:4" />
<circle
   cx="351.629"
   cy="400.98001"
   r="10.449"
   id="circle48"
   transform="matrix(0.25,0,0,0.25,0,-11.4285)"
   style="stroke-width:4" />
<circle
   cx="466.56799"
   cy="400.98001"
   r="10.449"
   id="circle50"
   transform="matrix(0.25,0,0,0.25,0,-11.4285)"
   style="stroke-width:4" />
<rect
   x="203.755"
   y="369.633"
   style="fill:#79cae8;stroke-width:4"
   width="104.49"
   height="52.244999"
   id="rect52"
   transform="matrix(0.25,0,0,0.25,0,-11.4285)" />
<g
   id="g58"
   transform="matrix(0.25,0,0,0.25,0,-11.4285)"
   style="stroke-width:4">
	<circle
   style="fill:#ffffff;stroke-width:16"
   cx="216.81599"
   cy="301.71399"
   r="13.061"
   id="circle54" />
	<circle
   style="fill:#ffffff;stroke-width:16"
   cx="295.18399"
   cy="301.71399"
   r="13.061"
   id="circle56" />
</g>
<rect
   x="151.50999"
   y="178.939"
   style="fill:#caf9f4;stroke-width:4"
   width="208.98"
   height="26.122"
   id="rect60"
   transform="matrix(0.25,0,0,0.25,0,-11.4285)" />
<rect
   x="180.94501"
   y="189.388"
   style="fill:#ff503d;stroke-width:4"
   width="15.673"
   height="15.673"
   id="rect62"
   transform="matrix(0.25,0,0,0.25,0,-11.4285)" />
<g
   id="g68"
   transform="matrix(0.25,0,0,0.25,0,-11.4285)"
   style="stroke-width:4">
	<circle
   style="fill:#ffffff;stroke-width:16"
   cx="48.042"
   cy="192"
   r="13.061"
   id="circle64" />
	<circle
   style="fill:#ffffff;stroke-width:16"
   cx="463.95599"
   cy="192"
   r="13.061"
   id="circle66" />
</g>
<rect
   x="112.713"
   y="53.550999"
   style="fill:#4b92b9;stroke-width:4"
   width="292.57101"
   height="36.570999"
   id="rect70"
   transform="matrix(0.25,0,0,0.25,0,-11.4285)" />
<path
   d="m 416.479,147.592 v -24.033 h -39.706 v 24.033 h -16.544 v -24.033 h -39.706 v 24.033 h -16.544 v -24.033 h -39.706 v 24.033 h -16.545 v -24.033 h -39.706 v 24.033 h -16.544 v -24.033 h -39.706 v 24.033 H 135.228 V 123.559 H 95.521 v 24.033 H 0 V 466.286 H 512 V 147.592 Z m -24.033,-8.359 h 8.359 v 8.359 h -8.359 z m -56.25,0 h 8.359 v 8.359 h -8.359 z m -56.25,0 h 8.359 v 8.359 h -8.359 z m -56.251,0 h 8.359 v 8.359 h -8.359 z m -56.25,0 h 8.359 v 8.359 h -8.359 z m -56.251,0 h 8.359 v 8.359 h -8.359 z M 496.327,450.612 H 15.673 V 236.408 H 496.326 V 450.612 Z M 15.673,220.735 v -57.469 h 480.653 v 57.469 z"
   id="path72"
   transform="matrix(0.25,0,0,0.25,0,-11.4285)"
   style="stroke-width:4" />
<path
   d="m 102.9,419.265 c 41.772,0 75.755,-33.983 75.755,-75.755 0,-41.772 -33.983,-75.755 -75.755,-75.755 -41.772,0 -75.755,33.983 -75.755,75.755 0,41.772 33.984,75.755 75.755,75.755 z m 0,-135.836 c 33.13,0 60.082,26.952 60.082,60.082 0,33.13 -26.952,60.082 -60.082,60.082 -33.13,0 -60.081,-26.953 -60.081,-60.083 0,-33.13 26.952,-60.081 60.081,-60.081 z"
   id="path74"
   transform="matrix(0.25,0,0,0.25,0,-11.4285)"
   style="stroke-width:4" />
<path
   d="m 102.9,398.367 c 30.249,0 54.857,-24.609 54.857,-54.857 0,-30.248 -24.608,-54.857 -54.857,-54.857 -30.249,0 -54.857,24.609 -54.857,54.857 0,30.248 24.609,54.857 54.857,54.857 z m 0,-94.04 c 21.606,0 39.184,17.577 39.184,39.184 0,21.607 -17.577,39.184 -39.184,39.184 -21.607,0 -39.184,-17.577 -39.184,-39.184 0,-21.607 17.578,-39.184 39.184,-39.184 z"
   id="path76"
   transform="matrix(0.25,0,0,0.25,0,-11.4285)"
   style="stroke-width:4" />
<path
   d="m 102.9,367.02 c 12.964,0 23.51,-10.547 23.51,-23.51 0,-12.963 -10.545,-23.51 -23.51,-23.51 -12.965,0 -23.51,10.547 -23.51,23.51 0,12.963 10.546,23.51 23.51,23.51 z m 0,-31.347 c 4.322,0 7.837,3.515 7.837,7.837 0,4.322 -3.515,7.837 -7.837,7.837 -4.322,0 -7.837,-3.515 -7.837,-7.837 0,-4.322 3.516,-7.837 7.837,-7.837 z"
   id="path78"
   transform="matrix(0.25,0,0,0.25,0,-11.4285)"
   style="stroke-width:4" />
<path
   d="m 409.101,419.265 c 41.771,0 75.755,-33.983 75.755,-75.755 0,-41.772 -33.984,-75.755 -75.755,-75.755 -41.772,0 -75.755,33.983 -75.755,75.755 0,41.772 33.983,75.755 75.755,75.755 z m 0,-135.836 c 33.13,0 60.082,26.952 60.082,60.082 0,33.13 -26.952,60.082 -60.082,60.082 -33.13,0 -60.082,-26.952 -60.082,-60.082 0,-33.13 26.951,-60.082 60.082,-60.082 z"
   id="path80"
   transform="matrix(0.25,0,0,0.25,0,-11.4285)"
   style="stroke-width:4" />
<path
   d="m 409.101,398.367 c 30.248,0 54.857,-24.609 54.857,-54.857 0,-30.248 -24.609,-54.857 -54.857,-54.857 -30.248,0 -54.857,24.609 -54.857,54.857 0,30.248 24.608,54.857 54.857,54.857 z m 0,-94.04 c 21.606,0 39.184,17.577 39.184,39.184 0,21.607 -17.577,39.184 -39.184,39.184 -21.607,0 -39.184,-17.577 -39.184,-39.184 0,-21.607 17.577,-39.184 39.184,-39.184 z"
   id="path82"
   transform="matrix(0.25,0,0,0.25,0,-11.4285)"
   style="stroke-width:4" />
<path
   d="m 409.101,367.02 c 12.963,0 23.51,-10.547 23.51,-23.51 0,-12.963 -10.547,-23.51 -23.51,-23.51 -12.963,0 -23.51,10.547 -23.51,23.51 0,12.963 10.545,23.51 23.51,23.51 z m 0,-31.347 c 4.322,0 7.837,3.515 7.837,7.837 0,4.322 -3.515,7.837 -7.837,7.837 -4.322,0 -7.837,-3.515 -7.837,-7.837 0,-4.322 3.515,-7.837 7.837,-7.837 z"
   id="path84"
   transform="matrix(0.25,0,0,0.25,0,-11.4285)"
   style="stroke-width:4" />
<path
   d="M 316.082,257.306 H 195.918 v 88.816 h 120.163 v -88.816 z m -104.49,44.408 c 0,-2.881 2.344,-5.224 5.224,-5.224 2.88,0 5.224,2.344 5.224,5.224 0,2.88 -2.344,5.224 -5.224,5.224 -2.88,0 -5.224,-2.343 -5.224,-5.224 z m 25.435,-5.224 h 37.947 c -0.433,1.674 -0.688,3.418 -0.688,5.224 0,1.807 0.255,3.551 0.688,5.224 h -37.947 c 0.433,-1.674 0.688,-3.418 0.688,-5.224 -0.001,-1.806 -0.256,-3.55 -0.688,-5.224 z m 52.932,5.224 c 0,-2.881 2.344,-5.224 5.224,-5.224 2.88,0 5.224,2.344 5.224,5.224 0,2.88 -2.344,5.224 -5.224,5.224 -2.88,0 -5.224,-2.343 -5.224,-5.224 z m 10.449,-28.734 v 7.837 h -88.816 v -7.837 z m -88.816,57.469 v -7.837 h 88.816 v 7.837 z"
   id="path86"
   transform="matrix(0.25,0,0,0.25,0,-11.4285)"
   style="stroke-width:4" />
<path
   d="M 316.082,361.796 H 195.918 v 67.918 h 120.163 v -67.918 z m -15.674,52.245 H 211.592 V 377.47 h 88.816 z"
   id="path88"
   transform="matrix(0.25,0,0,0.25,0,-11.4285)"
   style="stroke-width:4" />
<path
   d="M 143.673,212.898 H 368.326 V 171.102 H 143.673 Z m 15.674,-26.123 h 193.306 v 10.449 H 159.347 Z"
   id="path90"
   transform="matrix(0.25,0,0,0.25,0,-11.4285)"
   style="stroke-width:4" />
<path
   d="m 48.043,171.102 c -11.523,0 -20.898,9.375 -20.898,20.898 0,11.523 9.375,20.898 20.898,20.898 11.523,0 20.898,-9.375 20.898,-20.898 0,-11.523 -9.376,-20.898 -20.898,-20.898 z m 0,26.122 c -2.881,0 -5.224,-2.344 -5.224,-5.225 0,-2.881 2.344,-5.224 5.224,-5.224 2.88,0 5.224,2.344 5.224,5.224 10e-4,2.882 -2.344,5.225 -5.224,5.225 z"
   id="path92"
   transform="matrix(0.25,0,0,0.25,0,-11.4285)"
   style="stroke-width:4" />
<path
   d="m 463.958,171.102 c -11.523,0 -20.898,9.375 -20.898,20.898 0,11.523 9.375,20.898 20.898,20.898 11.523,0 20.898,-9.375 20.898,-20.898 0,-11.523 -9.375,-20.898 -20.898,-20.898 z m 0,26.122 c -2.881,0 -5.224,-2.344 -5.224,-5.225 0,-2.881 2.344,-5.224 5.224,-5.224 2.88,0 5.224,2.344 5.224,5.224 0,2.882 -2.345,5.225 -5.224,5.225 z"
   id="path94"
   transform="matrix(0.25,0,0,0.25,0,-11.4285)"
   style="stroke-width:4" />
<path
   d="m 70.531,79.673 h 34.351 V 97.959 H 413.127 V 79.673 h 28.343 v 54.857 h 15.673 V 64 H 413.127 V 45.714 H 104.882 V 64 H 54.857 v 70.531 H 70.53 V 79.673 Z M 120.555,61.388 H 397.453 V 82.286 H 120.555 Z"
   id="path96"
   transform="matrix(0.25,0,0,0.25,0,-11.4285)"
   style="stroke-width:4" />
<g
   id="g98"
   transform="matrix(0.25,0,0,0.25,0,-11.4285)"
   style="stroke-width:4">
</g>
<g
   id="g100"
   transform="matrix(0.25,0,0,0.25,0,-11.4285)"
   style="stroke-width:4">
</g>
<g
   id="g102"
   transform="matrix(0.25,0,0,0.25,0,-11.4285)"
   style="stroke-width:4">
</g>
<g
   id="g104"
   transform="matrix(0.25,0,0,0.25,0,-11.4285)"
   style="stroke-width:4">
</g>
<g
   id="g106"
   transform="matrix(0.25,0,0,0.25,0,-11.4285)"
   style="stroke-width:4">
</g>
<g
   id="g108"
   transform="matrix(0.25,0,0,0.25,0,-11.4285)"
   style="stroke-width:4">
</g>
<g
   id="g110"
   transform="matrix(0.25,0,0,0.25,0,-11.4285)"
   style="stroke-width:4">
</g>
<g
   id="g112"
   transform="matrix(0.25,0,0,0.25,0,-11.4285)"
   style="stroke-width:4">
</g>
<g
   id="g114"
   transform="matrix(0.25,0,0,0.25,0,-11.4285)"
   style="stroke-width:4">
</g>
<g
   id="g116"
   transform="matrix(0.25,0,0,0.25,0,-11.4285)"
   style="stroke-width:4">
</g>
<g
   id="g118"
   transform="matrix(0.25,0,0,0.25,0,-11.4285)"
   style="stroke-width:4">
</g>
<g
   id="g120"
   transform="matrix(0.25,0,0,0.25,0,-11.4285)"
   style="stroke-width:4">
</g>
<g
   id="g122"
   transform="matrix(0.25,0,0,0.25,0,-11.4285)"
   style="stroke-width:4">
</g>
<g
   id="g124"
   transform="matrix(0.25,0,0,0.25,0,-11.4285)"
   style="stroke-width:4">
</g>
<g
   id="g126"
   transform="matrix(0.25,0,0,0.25,0,-11.4285)"
   style="stroke-width:4">
</g>
</svg>
