<?xml version="1.0" encoding="utf-8"?>
<!-- Generator: Adobe Illustrator 22.1.0, SVG Export Plug-In . SVG Version: 6.00 Build 0)  -->
<svg version="1.1" id="Calque_3" xmlns="http://www.w3.org/2000/svg" xmlns:xlink="http://www.w3.org/1999/xlink" x="0px" y="0px"
	 viewBox="0 0 128 128" style="enable-background:new 0 0 128 128;" xml:space="preserve">
<style type="text/css">
	.st0{fill:url(#SVGID_1_);}
	.st1{fill:#C0C0C0;}
	.st2{fill:#0F5FAF;}
	.st3{fill:#4A666D;}
	.st4{fill:#629DCB;}
	.st5{fill:#CCCCCC;}
	.st6{fill:#D1132D;}
	.st7{fill:#223137;}
	.st8{fill:#DBDBDB;}
</style>
<radialGradient id="SVGID_1_" cx="65.5861" cy="65.511" r="72.1216" gradientUnits="userSpaceOnUse">
	<stop  offset="0" style="stop-color:#FFFFFF"/>
	<stop  offset="0.1519" style="stop-color:#FBFBFB"/>
	<stop  offset="0.3094" style="stop-color:#EEEEEE"/>
	<stop  offset="0.4694" style="stop-color:#DADADA"/>
	<stop  offset="0.6301" style="stop-color:#BDBDBD"/>
	<stop  offset="0.7467" style="stop-color:#A3A3A3"/>
	<stop  offset="0.9348" style="stop-color:#6C6C6C"/>
</radialGradient>
<path class="st0" d="M104.3,104.1c-1.8,6.4-6.6,7.9-10.9,7.9c-4.3,0-28.9,0-28.9,0s-24.5,0-28.9,0c-4.3,0-9.2-1.4-10.9-7.9
	c-1.8-6.4-0.6-47.2,7.7-66C40.3,20.3,57.5,19,64.5,19c7,0,24.2,1.3,32.1,19.1C104.9,57,106.1,97.7,104.3,104.1z M81.4,28.8
	C77.8,23.2,70.2,22,64.5,22c-5.7,0-13.3,1.2-16.9,6.8C43,36,86,36,81.4,28.8z"/>
<path class="st1" d="M96.6,38.1C88.8,20.3,71.5,19,64.5,19c-7,0-24.2,1.3-32.1,19.1c-8.3,18.9-9.5,59.6-7.7,66
	c1.8,6.4,6.6,7.9,10.9,7.9c0.2,0,0.5,0,0.9,0c0,0-7.5-3.1-8.5-16.8c-1-13.7,0.5-50.1,10.1-62.5c10-12.8,26.4-12.4,26.4-12.4
	s16.4-0.4,26.4,12.4c9.7,12.4,11.1,48.8,10.1,62.5c-1,13.7-8.5,16.8-8.5,16.8c0.3,0,0.6,0,0.9,0c4.3,0,9.2-1.4,10.9-7.9
	C106.1,97.7,104.9,57,96.6,38.1z"/>
<g>
	<g>
		<path class="st2" d="M41.7,92.1c0.3,0.4,0.3,0.9-0.1,1.2c-0.4,0.3-0.9,0.3-1.2-0.1c-0.3-0.4-0.3-0.9,0.1-1.2S41.4,91.7,41.7,92.1z
			"/>
		<path class="st2" d="M37.5,92.7c0.4,0.2,0.6,0.8,0.4,1.2c-0.2,0.4-0.8,0.6-1.2,0.4c-0.4-0.2-0.6-0.8-0.4-1.2
			C36.5,92.7,37.1,92.5,37.5,92.7z"/>
		<path class="st2" d="M33.9,94.9c0.5,0,0.9,0.5,0.8,1c0,0.5-0.5,0.9-1,0.8c-0.5,0-0.9-0.5-0.8-1C33,95.2,33.4,94.9,33.9,94.9z"/>
		<path class="st2" d="M31.5,98.3c0.5-0.2,1,0.1,1.1,0.6c0.2,0.5-0.1,1-0.6,1.1c-0.5,0.2-1-0.1-1.1-0.6C30.7,99,31,98.5,31.5,98.3z"
			/>
	</g>
	<path class="st3" d="M48.1,102.7c0,3.8-3.1,6.9-6.9,6.9c-3.8,0-6.9-3.1-6.9-6.9s3.1-6.9,6.9-6.9C45,95.8,48.1,98.9,48.1,102.7z"/>
	<path class="st4" d="M47.3,102.7c0,3.4-2.7,6.1-6.1,6.1c-3.4,0-6.1-2.7-6.1-6.1s2.7-6.1,6.1-6.1C44.6,96.6,47.3,99.4,47.3,102.7z"
		/>
	<polygon class="st5" points="36.7,105.6 37.3,106.2 37.9,106.8 46.2,100.2 44.7,98.8 43.3,97.3 	"/>
</g>
<g>
	<path class="st3" d="M93.6,102.7c0,3.8-3.1,6.9-6.9,6.9c-3.8,0-6.9-3.1-6.9-6.9s3.1-6.9,6.9-6.9C90.4,95.8,93.6,98.9,93.6,102.7z"
		/>
	<path class="st4" d="M92.7,102.7c0,3.4-2.7,6.1-6.1,6.1c-3.4,0-6.1-2.7-6.1-6.1s2.7-6.1,6.1-6.1C90,96.6,92.7,99.4,92.7,102.7z"/>
	<polygon class="st5" points="82.1,105.6 82.7,106.2 83.4,106.8 91.6,100.2 90.2,98.8 88.7,97.3 	"/>
	<g>
		<path class="st6" d="M77.5,100.7c0.6-2.2,1.8-3.9,3.3-5c-0.1-0.2-0.3-0.4-0.4-0.5C78.9,96.5,77.9,98.4,77.5,100.7z"/>
		<path class="st6" d="M81.3,94.4c0.1,0.2,0.3,0.4,0.4,0.7c1.4-0.8,3-1.3,4.6-1.3c0-0.4,0-0.9,0-1.3C84.4,92.7,82.7,93.4,81.3,94.4z
			"/>
		<path class="st6" d="M87.4,92.4c0,0.5-0.1,1-0.1,1.5c1.6,0.1,3.2,0.6,4.5,1.5c0.4-0.6,0.8-1.1,1.1-1.7
			C91.1,92.7,89.2,92.3,87.4,92.4z"/>
		<path class="st6" d="M98.2,99.9c-0.9-2.5-2.4-4.4-4.2-5.6c-0.5,0.6-0.9,1.1-1.4,1.7c1.3,1.1,2.4,2.7,2.9,4.7
			C96.4,100.4,97.3,100.2,98.2,99.9z"/>
	</g>
</g>
<path class="st7" d="M34.8,68.1c0,0.7,0.1,1.5,0.1,2.2h59.2c0.1-0.7,0.1-1.4,0.1-2.2c0-0.7-0.1-1.5-0.1-2.2H34.9
	C34.9,66.6,34.8,67.3,34.8,68.1z"/>
<path class="st7" d="M49,93.4H80c2-1.2,3.9-2.7,5.6-4.4H43.5C45.1,90.7,47,92.2,49,93.4z"/>
<path class="st7" d="M35.9,76h57.2c0.4-1.4,0.7-2.9,0.9-4.4H35C35.2,73.2,35.5,74.6,35.9,76z"/>
<path class="st7" d="M36.3,58.7h56.3c-0.5-1.5-1.1-3-1.8-4.4H38.2C37.5,55.7,36.9,57.2,36.3,58.7z"/>
<path class="st7" d="M64.5,97.8c4.6,0,9-1.1,12.8-3H51.7C55.6,96.7,59.9,97.8,64.5,97.8z"/>
<path class="st7" d="M42.2,87.6h44.7c1.2-1.3,2.2-2.8,3.2-4.4H39C39.9,84.8,41,86.3,42.2,87.6z"/>
<path class="st7" d="M38.2,81.8h52.6c0.7-1.4,1.3-2.8,1.8-4.4H36.3C36.9,79,37.5,80.4,38.2,81.8z"/>
<path class="st7" d="M35,64.5H94c-0.2-1.5-0.5-2.9-0.9-4.4H35.9C35.5,61.5,35.2,63,35,64.5z"/>
<path class="st7" d="M39,52.9h51c-0.9-1.5-2-3-3.2-4.4H42.2C41,49.9,39.9,51.4,39,52.9z"/>
<path class="st7" d="M64.5,38.4c-4.6,0-9,1.1-12.8,3h25.7C73.5,39.5,69.1,38.4,64.5,38.4z"/>
<path class="st7" d="M43.5,47.1h42.1C83.9,45.5,82,44,80,42.8H49C47,44,45.1,45.5,43.5,47.1z"/>
<path class="st8" d="M51.7,41.3c-0.9,0.4-1.8,0.9-2.6,1.4H80c-0.8-0.5-1.7-1-2.6-1.4H51.7z"/>
<path class="st8" d="M42.2,48.6h44.7c-0.4-0.5-0.8-1-1.3-1.4H43.5C43,47.6,42.6,48.1,42.2,48.6z"/>
<path class="st8" d="M38.2,54.3h52.6c-0.3-0.5-0.5-1-0.8-1.4H39C38.7,53.4,38.5,53.8,38.2,54.3z"/>
<path class="st8" d="M35.9,60.1h57.2c-0.1-0.5-0.3-1-0.4-1.4H36.3C36.2,59.2,36.1,59.6,35.9,60.1z"/>
<path class="st8" d="M34.9,65.9h59.2c0-0.5-0.1-1-0.1-1.4H35C35,64.9,35,65.4,34.9,65.9z"/>
<path class="st8" d="M35,71.7H94c0.1-0.5,0.1-1,0.1-1.4H34.9C35,70.7,35,71.2,35,71.7z"/>
<path class="st8" d="M36.3,77.5h56.3c0.2-0.5,0.3-0.9,0.4-1.4H35.9C36.1,76.5,36.2,77,36.3,77.5z"/>
<path class="st8" d="M39,83.3h51c0.3-0.5,0.6-0.9,0.8-1.4H38.2C38.5,82.3,38.7,82.8,39,83.3z"/>
<path class="st8" d="M43.5,89h42.1c0.5-0.5,0.9-0.9,1.3-1.4H42.2C42.6,88.1,43,88.6,43.5,89z"/>
<path class="st8" d="M51.7,94.8h25.7c0.9-0.4,1.8-0.9,2.6-1.4H49C49.9,93.9,50.8,94.4,51.7,94.8z"/>
</svg>
