<?xml version="1.0" encoding="UTF-8" standalone="no"?>
<!-- Generator: Adobe Illustrator 22.1.0, SVG Export Plug-In . SVG Version: 6.00 Build 0)  -->

<svg
   version="1.1"
   id="Calque_3"
   x="0px"
   y="0px"
   viewBox="0 0 128 128"
   style="enable-background:new 0 0 128 128;"
   xml:space="preserve"
   sodipodi:docname="souffleur-allume.svg"
   inkscape:version="1.1 (c68e22c387, 2021-05-23)"
   xmlns:inkscape="http://www.inkscape.org/namespaces/inkscape"
   xmlns:sodipodi="http://sodipodi.sourceforge.net/DTD/sodipodi-0.dtd"
   xmlns="http://www.w3.org/2000/svg"
   xmlns:svg="http://www.w3.org/2000/svg"><defs
   id="defs126" /><sodipodi:namedview
   id="namedview124"
   pagecolor="#ffffff"
   bordercolor="#666666"
   borderopacity="1.0"
   inkscape:pageshadow="2"
   inkscape:pageopacity="0.0"
   inkscape:pagecheckerboard="0"
   showgrid="false"
   inkscape:zoom="6.0625"
   inkscape:cx="64"
   inkscape:cy="64"
   inkscape:window-width="1920"
   inkscape:window-height="979"
   inkscape:window-x="0"
   inkscape:window-y="0"
   inkscape:window-maximized="1"
   inkscape:current-layer="g93" />
<style
   type="text/css"
   id="style2">
	.st0{fill:url(#SVGID_1_);}
	.st1{fill:#223137;}
	.st2{fill:#3C7EC4;}
	.st3{fill:#0F5FAF;}
	.st4{fill:#FFFFFF;}
	.st5{fill:#DBDBDB;}
	.st6{fill:#C0C0C0;}
	.st7{fill:#D1132D;}
	.st8{fill:#4A666D;}
	.st9{fill:#629DCB;}
	.st10{fill:#4DCBE8;}
</style>
<radialGradient
   id="SVGID_1_"
   cx="65.4891"
   cy="62.55"
   r="72.0018"
   gradientTransform="matrix(1 0 0 -1 0 128)"
   gradientUnits="userSpaceOnUse">
	<stop
   offset="0"
   style="stop-color:#FFFFFF"
   id="stop4" />
	<stop
   offset="0.1519"
   style="stop-color:#FBFBFB"
   id="stop6" />
	<stop
   offset="0.3094"
   style="stop-color:#EEEEEE"
   id="stop8" />
	<stop
   offset="0.4694"
   style="stop-color:#DADADA"
   id="stop10" />
	<stop
   offset="0.6301"
   style="stop-color:#BDBDBD"
   id="stop12" />
	<stop
   offset="0.7467"
   style="stop-color:#A3A3A3"
   id="stop14" />
	<stop
   offset="0.9348"
   style="stop-color:#6C6C6C"
   id="stop16" />
</radialGradient>
<path
   class="st0"
   d="M104.1,104c-1.8,6.4-6.6,7.9-10.9,7.9s-28.8,0-28.8,0s-24.5,0-28.8,0s-9.1-1.4-10.9-7.9s-0.6-47.1,7.7-65.9  c7.8-17.8,25-19.1,32-19.1s24.2,1.3,32,19.1C104.7,56.9,105.9,97.6,104.1,104z M81.3,28.8C77.7,23.2,70.1,22,64.4,22  s-13.2,1.2-16.9,6.8C42.9,36,85.9,36,81.3,28.8z"
   id="path19" />
<path
   class="st1"
   d="M34.8,68c0,0.7,0.1,1.5,0.1,2.2h59C94,69.4,94,68.7,94,68s-0.1-1.5-0.1-2.2h-59C34.8,66.5,34.8,67.2,34.8,68z"
   id="path21" />
<path
   class="st1"
   d="M49,93.2h30.9c2-1.2,3.9-2.7,5.5-4.3h-42C45.1,90.6,47,92,49,93.2z"
   id="path23" />
<path
   class="st1"
   d="M35.9,75.9h57c0.4-1.4,0.7-2.9,0.9-4.3H35C35.2,73.1,35.5,74.5,35.9,75.9z"
   id="path25" />
<path
   class="st1"
   d="M36.3,58.6h56.2c-0.5-1.5-1.1-3-1.8-4.3H38.2C37.4,55.6,36.8,57.1,36.3,58.6z"
   id="path27" />
<path
   class="st1"
   d="M64.4,97.6c4.6,0,8.9-1.1,12.8-2.9H51.6C55.5,96.5,59.8,97.6,64.4,97.6z"
   id="path29" />
<path
   class="st1"
   d="M42.1,87.5h44.6c1.2-1.3,2.2-2.8,3.2-4.3H39C39.9,84.7,40.9,86.1,42.1,87.5z"
   id="path31" />
<path
   class="st1"
   d="M38.2,81.7h52.5c0.7-1.4,1.3-2.8,1.8-4.3H36.3C36.8,78.9,37.4,80.3,38.2,81.7z"
   id="path33" />
<path
   class="st1"
   d="M35,64.4h58.8c-0.2-1.5-0.5-2.9-0.9-4.3h-57C35.5,61.4,35.2,62.9,35,64.4z"
   id="path35" />
<path
   class="st1"
   d="M39,52.8h50.9c-0.9-1.5-2-3-3.2-4.3H42.1C40.9,49.8,39.9,51.3,39,52.8z"
   id="path37" />
<path
   class="st1"
   d="M64.4,38.3c-4.6,0-8.9,1.1-12.8,2.9h25.6C73.3,39.4,69,38.3,64.4,38.3z"
   id="path39" />
<g
   id="g51">
	<path
   class="st2"
   d="M58,66c0,0-5.5-0.8-8.4-3.7c-3-3-4.4-10.5,3.4-14.9c7.9-4.4,16.5,0,17.8,2.8c1.2,2.8-3,3.4-4.8,6.5   c-1.5,2.6-1,6.4-1,6.4L58,66z"
   id="path41"
   style="fill:#e28f37;fill-opacity:1" />
	<path
   class="st2"
   d="M66.8,73.5c0,0,2.1,5.1,1,9.1c-1.1,4.1-6.9,9.1-14.6,4.5c-7.8-4.7-8.3-14.3-6.4-16.8c1.8-2.5,4.4,0.9,8,0.9   c3,0,6-2.3,6-2.3L66.8,73.5z"
   id="path43"
   style="fill:#e28f37;fill-opacity:1" />
	<path
   class="st2"
   d="M69,62.2c0,0,3.4-4.3,7.4-5.4c4.1-1.1,11.3,1.4,11.2,10.4c-0.2,9.1-8.3,14.3-11.3,14c-3.1-0.4-1.5-4.3-3.2-7.3   c-1.5-2.6-5-4.1-5-4.1L69,62.2z"
   id="path45"
   style="fill:#e28f37;fill-opacity:1" />
	<path
   class="st3"
   d="M71.9,67.2c0,4.1-3.3,7.4-7.4,7.4s-7.4-3.3-7.4-7.4s3.3-7.4,7.4-7.4S71.9,63.1,71.9,67.2z"
   id="path47" />
	<circle
   class="st4"
   cx="64.6"
   cy="67.2"
   r="5.9"
   id="circle49" />
</g>
<path
   class="st1"
   d="M43.4,47.1h42c-1.7-1.7-3.5-3.1-5.5-4.3H49C47,44,45.1,45.4,43.4,47.1z"
   id="path53" />
<path
   class="st5"
   d="M51.6,41.3c-0.9,0.4-1.8,0.9-2.6,1.4h30.9c-0.8-0.5-1.7-1-2.6-1.4H51.6z"
   id="path55" />
<path
   class="st5"
   d="M42.1,48.5h44.6c-0.4-0.5-0.8-1-1.3-1.4h-42C43,47.5,42.5,48,42.1,48.5z"
   id="path57" />
<path
   class="st5"
   d="M38.2,54.3h52.5c-0.3-0.5-0.5-1-0.8-1.4H39C38.7,53.3,38.4,53.8,38.2,54.3z"
   id="path59" />
<path
   class="st5"
   d="M35.9,60h57c-0.1-0.5-0.3-1-0.4-1.4H36.3C36.2,59.1,36,59.6,35.9,60z"
   id="path61" />
<path
   class="st5"
   d="M34.9,65.8h59c0-0.5-0.1-1-0.1-1.4H35C35,64.8,34.9,65.3,34.9,65.8z"
   id="path63" />
<path
   class="st5"
   d="M35,71.6h58.8c0.1-0.5,0.1-0.9,0.1-1.4h-59C34.9,70.6,35,71.1,35,71.6z"
   id="path65" />
<path
   class="st5"
   d="M36.3,77.3h56.2c0.2-0.5,0.3-0.9,0.4-1.4h-57C36,76.4,36.2,76.9,36.3,77.3z"
   id="path67" />
<path
   class="st5"
   d="M39,83.1h50.9c0.3-0.5,0.6-0.9,0.8-1.4H38.2C38.4,82.2,38.7,82.6,39,83.1z"
   id="path69" />
<path
   class="st5"
   d="M43.4,88.9h42c0.5-0.5,0.9-0.9,1.3-1.4H42.1C42.5,87.9,43,88.4,43.4,88.9z"
   id="path71" />
<path
   class="st5"
   d="M51.6,94.7h25.6c0.9-0.4,1.8-0.9,2.6-1.4H49C49.8,93.8,50.7,94.2,51.6,94.7z"
   id="path73" />
<path
   class="st6"
   d="M96.5,38.1c-7.8-17.8-25-19.1-32-19.1s-24.2,1.3-32,19.1C24.2,56.9,23,97.6,24.8,104s6.6,7.9,10.9,7.9  c0.2,0,0.5,0,0.9,0c0,0-7.5-3.1-8.5-16.8s0.5-50,10.1-62.4c10-12.8,26.3-12.3,26.3-12.3S80.8,20,90.8,32.7  c9.6,12.4,11.1,48.7,10.1,62.4s-8.5,16.8-8.5,16.8c0.3,0,0.6,0,0.9,0c4.3,0,9.1-1.4,10.9-7.9C105.9,97.6,104.7,56.9,96.5,38.1z"
   id="path75" />
<g
   id="g93">
	<g
   id="g85">
		<path
   class="st7"
   d="M41.7,91.9c0.3,0.4,0.3,0.9-0.1,1.2c-0.4,0.3-0.9,0.3-1.2-0.1s-0.3-0.9,0.1-1.2    C40.8,91.5,41.4,91.5,41.7,91.9z"
   id="path77" />
		<path
   class="st7"
   d="M37.5,92.6c0.4,0.2,0.6,0.8,0.4,1.2c-0.2,0.4-0.8,0.6-1.2,0.4s-0.6-0.8-0.4-1.2    C36.6,92.5,37.1,92.3,37.5,92.6z"
   id="path79" />
		<path
   class="st7"
   d="M34,94.8c0.5,0,0.9,0.5,0.8,0.9c0,0.5-0.5,0.9-0.9,0.8c-0.5,0-0.9-0.5-0.8-0.9C33,95.1,33.5,94.7,34,94.8z"
   id="path81" />
		<path
   class="st7"
   d="M31.5,98.2c0.5-0.2,1,0.1,1.1,0.6c0.2,0.5-0.1,1-0.6,1.1c-0.5,0.2-1-0.1-1.1-0.6C30.8,98.8,31,98.3,31.5,98.2    z"
   id="path83" />
	</g>
	<path
   class="st8"
   d="M48.1,102.6c0,3.8-3.1,6.9-6.9,6.9c-3.8,0-6.9-3.1-6.9-6.9s3.1-6.9,6.9-6.9C45,95.6,48.1,98.7,48.1,102.6z"
   id="path87" />
	<path
   class="st9"
   d="M47.3,102.6c0,3.4-2.7,6.1-6.1,6.1c-3.4,0-6.1-2.7-6.1-6.1s2.7-6.1,6.1-6.1S47.3,99.2,47.3,102.6z"
   id="path89" />
	<polygon
   class="st4"
   points="44.7,98.6 44.1,98 35.9,104.6 37.3,106 38.7,107.4 45.4,99.2 "
   id="polygon91"
   transform="translate(0.14175258,0.07345361)" />
</g>
<g
   id="g111">
	<path
   class="st8"
   d="M93.5,102.6c0,3.8-3.1,6.9-6.9,6.9s-6.9-3.1-6.9-6.9s3.1-6.9,6.9-6.9C90.4,95.6,93.5,98.7,93.5,102.6z"
   id="path95" />
	<path
   class="st9"
   d="M92.6,102.6c0,3.4-2.7,6.1-6.1,6.1s-6.1-2.7-6.1-6.1s2.7-6.1,6.1-6.1S92.6,99.2,92.6,102.6z"
   id="path97" />
	<polygon
   class="st4"
   points="90.7,99.2 90.1,98.6 89.5,98 81.2,104.6 82.7,106 84.1,107.4  "
   id="polygon99" />
	<g
   id="g109">
		<path
   class="st7"
   d="M77.4,100.5c0.6-2.2,1.8-3.9,3.3-5c-0.1-0.2-0.3-0.4-0.4-0.5C78.9,96.4,77.8,98.3,77.4,100.5z"
   id="path101" />
		<path
   class="st7"
   d="M81.2,94.3c0.1,0.2,0.3,0.4,0.4,0.7c1.4-0.8,3-1.2,4.6-1.3c0-0.4,0-0.9,0-1.3C84.3,92.5,82.6,93.2,81.2,94.3z    "
   id="path103" />
		<path
   class="st7"
   d="M87.3,92.2c0,0.5-0.1,1-0.1,1.5c1.6,0.1,3.1,0.6,4.5,1.5c0.4-0.6,0.8-1.1,1.1-1.7    C91.1,92.6,89.1,92.2,87.3,92.2z"
   id="path105" />
		<path
   class="st7"
   d="M98.1,99.8c-0.9-2.5-2.4-4.4-4.2-5.6c-0.5,0.6-0.9,1.1-1.4,1.7c1.3,1.1,2.4,2.7,2.9,4.7    C96.3,100.3,97.2,100,98.1,99.8z"
   id="path107" />
	</g>
</g>
<path
   class="st6"
   d="M96.6,38.1c-7.8-17.8-25-19.1-32-19.1s-24.2,1.3-32,19.1c-8.3,18.8-9.5,59.5-7.7,65.9s6.6,7.9,10.9,7.9  c0.2,0,0.5,0,0.9,0c0,0-7.5-3.1-8.5-16.8s0.5-50,10.1-62.4c10-12.8,26.3-12.3,26.3-12.3S80.9,20,90.9,32.7C100.5,45,102,81.4,101,95  c-1,13.7-8.5,16.8-8.5,16.8c0.3,0,0.6,0,0.9,0c4.3,0,9.1-1.4,10.9-7.9C106.1,97.6,104.9,56.9,96.6,38.1z"
   id="path113" />
<path
   class="st10"
   d="M31.4,10c-2.2,2.9-4.7,5.7-6.5,8.9c-2.5,4.3-4.5,8.6-6.3,13.3c-2.9,8.2-3.7,16.6-3.8,25.3  C12.3,48.7,12.1,39.8,15,31c2-4.8,4.3-9,7.5-13.1C25,14.6,28.3,12.2,31.4,10z"
   id="path115"
   style="fill:#e28f37;fill-opacity:1" />
<path
   class="st10"
   d="M114.2,58c0.2-5,0.2-9.9-0.6-14.9c-1-6.2-3.1-12.3-6-17.9c-4.8-9.3-12-16.5-20.5-22.4  C97.4,7,106,14.1,111.2,24.1c3,5.7,4.8,12.1,5,18.6C116.4,47.9,115.6,52.9,114.2,58z"
   id="path117"
   style="fill:#e28f37;fill-opacity:1" />
<path
   class="st10"
   d="M104.6,50.3c-1-7.6-3.2-14.7-7-21.4c-3.6-6.3-8.5-11.5-14.1-16.1c7.1,2.7,13.2,7.3,17.1,13.9  C104.9,33.9,106.2,42.2,104.6,50.3z"
   id="path119"
   style="fill:#e28f37;fill-opacity:1" />
<path
   class="st10"
   d="M48.7,11.4c-6.4,4.4-12.1,9.5-16.2,16.2c-4.6,7.3-6.8,15.2-7.8,23.8c-1.7-9.1-0.4-18.3,4.8-26.1  C34.1,18.4,40.9,13.8,48.7,11.4z"
   id="path121"
   style="fill:#e28f37;fill-opacity:1" />
</svg>
