<?xml version="1.0" encoding="UTF-8" standalone="no"?>
<svg
   version="1.1"
   id="Calque_3"
   x="0px"
   y="0px"
   viewBox="0 0 128 128"
   style="enable-background:new 0 0 128 128;"
   xml:space="preserve"
   sodipodi:docname="syn_energie.svg"
   inkscape:export-filename="/home/sebastien/SRC/trunk/Watchdogd/IHM/img/syn_energie.png"
   inkscape:export-xdpi="96"
   inkscape:export-ydpi="96"
   inkscape:version="1.1 (c68e22c387, 2021-05-23)"
   xmlns:inkscape="http://www.inkscape.org/namespaces/inkscape"
   xmlns:sodipodi="http://sodipodi.sourceforge.net/DTD/sodipodi-0.dtd"
   xmlns:xlink="http://www.w3.org/1999/xlink"
   xmlns="http://www.w3.org/2000/svg"
   xmlns:svg="http://www.w3.org/2000/svg"
   xmlns:rdf="http://www.w3.org/1999/02/22-rdf-syntax-ns#"
   xmlns:cc="http://creativecommons.org/ns#"
   xmlns:dc="http://purl.org/dc/elements/1.1/"><metadata
   id="metadata353"><rdf:RDF><cc:Work
       rdf:about=""><dc:format>image/svg+xml</dc:format><dc:type
         rdf:resource="http://purl.org/dc/dcmitype/StillImage" /></cc:Work></rdf:RDF></metadata><defs
   id="defs351" /><sodipodi:namedview
   pagecolor="#ffffff"
   bordercolor="#666666"
   borderopacity="1"
   objecttolerance="10"
   gridtolerance="10"
   guidetolerance="10"
   inkscape:pageopacity="0"
   inkscape:pageshadow="2"
   inkscape:window-width="1920"
   inkscape:window-height="979"
   id="namedview349"
   showgrid="false"
   inkscape:zoom="6.203125"
   inkscape:cx="45.783375"
   inkscape:cy="64"
   inkscape:window-x="0"
   inkscape:window-y="0"
   inkscape:window-maximized="1"
   inkscape:current-layer="g6"
   inkscape:pagecheckerboard="true" />
<style
   type="text/css"
   id="style2">
	.st0{opacity:10;}
	.st1{fill:#84E9D9;}
	.st2{fill:url(#SVGID_1_);}
	.st3{fill:url(#SVGID_2_);}
	.st4{opacity:0.55;}
	.st5{fill:url(#SVGID_3_);}
	.st6{clip-path:url(#SVGID_6_);}
	.st7{fill:url(#SVGID_7_);}
	.st8{fill:url(#SVGID_8_);}
	.st9{fill:url(#SVGID_9_);}
	.st10{clip-path:url(#SVGID_12_);}
	.st11{fill:url(#SVGID_13_);}
	.st12{fill:url(#SVGID_14_);}
	.st13{fill:url(#SVGID_15_);}
	.st14{fill:url(#SVGID_16_);}
	.st15{fill:#4D4D4D;}
	.st16{fill:url(#SVGID_17_);}
	.st17{fill:url(#SVGID_18_);}
	.st18{clip-path:url(#SVGID_21_);}
	.st19{fill:url(#SVGID_22_);}
	.st20{fill:url(#SVGID_23_);}
	.st21{fill:url(#SVGID_24_);}
	.st22{fill:url(#SVGID_25_);}
	.st23{fill:url(#SVGID_26_);}
	.st24{fill:url(#SVGID_27_);}
	.st25{fill:url(#SVGID_28_);}
	.st26{fill:#4ACCD4;}
	.st27{opacity:0.2;fill:#FFFFFF;}
	.st28{fill:#006482;}
	.st29{fill:#1A1A1A;}
	.st30{fill:#505050;}
	.st31{opacity:0.1;fill:#FFFFFF;}
	.st32{fill:#FFED00;}
	.st33{fill:#FBB03B;}
	.st34{fill:#29ABE2;}
	.st35{fill:#F15A24;}
	.st36{fill:#F1EB7B;}
</style>
<g
   id="g346">
	<g
   class="st0"
   id="g6">
		<path
   class="st1"
   d="M 128,64 C 128,99.3 99.3,128 64,128 28.7,128 0,99.3 0,64 0,28.7 28.7,0 64,0 c 35.3,0 64,28.7 64,64 z"
   id="path4"
   style="opacity:1" />
	</g>
	<g
   id="g15">
		<linearGradient
   id="SVGID_1_"
   gradientUnits="userSpaceOnUse"
   x1="131.26781"
   y1="90.180801"
   x2="62.9104"
   y2="70.650101">
			<stop
   offset="0"
   style="stop-color:#2A717E;stop-opacity:0"
   id="stop8" />
			<stop
   offset="0.9995"
   style="stop-color:#00A99D"
   id="stop10" />
		</linearGradient>
		<path
   class="st2"
   d="M 128,63.6 C 128,57.7 127.2,52 125.7,46.5 L 97,32.2 36.6,33.5 V 103 l 47.3,21.9 C 115.6,114.5 128,84.3 128,63.6 Z"
   id="path13" />
	</g>
	<g
   id="g344">
		<g
   id="g33">
			<linearGradient
   id="SVGID_2_"
   gradientUnits="userSpaceOnUse"
   x1="72.633301"
   y1="28.5676"
   x2="72.633301"
   y2="41.9547">
				<stop
   offset="0"
   style="stop-color:#3B3B3B"
   id="stop17" />
				<stop
   offset="1"
   style="stop-color:#121212"
   id="stop19" />
			</linearGradient>
			<path
   class="st3"
   d="M 98.5,40.9 H 46.8 c -2.3,0 -4.2,-2.6 -4.2,-5.9 0,-3.2 1.9,-5.9 4.2,-5.9 h 51.8 c 2.3,0 4.2,2.6 4.2,5.9 -0.1,3.2 -2,5.9 -4.3,5.9 z"
   id="path22" />
			<g
   class="st4"
   id="g24">
			</g>
			<linearGradient
   id="SVGID_3_"
   gradientUnits="userSpaceOnUse"
   x1="72.633301"
   y1="29.2243"
   x2="72.633301"
   y2="40.881802">
				<stop
   offset="0"
   style="stop-color:#A9A9A9"
   id="stop26" />
				<stop
   offset="1"
   style="stop-color:#2F2F2F"
   id="stop28" />
			</linearGradient>
			<path
   class="st5"
   d="M 98.5,29.1 H 46.8 c -2.3,0 -4.2,2.6 -4.2,5.9 0,3.2 1.9,5.9 4.2,5.9 h 51.8 c 2.3,0 4.2,-2.6 4.2,-5.9 -0.1,-3.3 -2,-5.9 -4.3,-5.9 z m 0,11.5 H 46.8 c -2.2,0 -4.1,-2.5 -4.1,-5.6 0,-3.1 1.8,-5.6 4.1,-5.6 h 51.8 c 2.2,0 4.1,2.5 4.1,5.6 -0.1,3.1 -2,5.6 -4.2,5.6 z"
   id="path31" />
		</g>
		<g
   id="g57">
			<defs
   id="defs36">
				<path
   id="SVGID_4_"
   d="M 97.3,37.7 H 47.9 c -1.1,0 -2,-1.2 -2,-2.8 0,-1.5 0.9,-2.8 2,-2.8 h 49.4 c 1.1,0 2,1.2 2,2.8 0,1.6 -0.9,2.8 -2,2.8 z" />
			</defs>
			<linearGradient
   id="SVGID_5_"
   gradientUnits="userSpaceOnUse"
   x1="72.633301"
   y1="32.4259"
   x2="72.633301"
   y2="37.392502">
				<stop
   offset="0"
   style="stop-color:#232323"
   id="stop38" />
				<stop
   offset="1"
   style="stop-color:#121212"
   id="stop40" />
			</linearGradient>
			<use
   xlink:href="#SVGID_4_"
   style="overflow:visible;fill:url(#SVGID_5_)"
   id="use43"
   x="0"
   y="0"
   width="100%"
   height="100%" />
			<clipPath
   id="SVGID_6_">
				<use
   xlink:href="#SVGID_4_"
   style="overflow:visible"
   id="use45"
   x="0"
   y="0"
   width="100%"
   height="100%" />
			</clipPath>
			<g
   class="st6"
   clip-path="url(#SVGID_6_)"
   id="g55">
				<linearGradient
   id="SVGID_7_"
   gradientUnits="userSpaceOnUse"
   x1="45.913601"
   y1="34.970699"
   x2="99.352997"
   y2="34.970699">
					<stop
   offset="0"
   style="stop-color:#ED1C24"
   id="stop48" />
					<stop
   offset="1"
   style="stop-color:#FBB03B"
   id="stop50" />
				</linearGradient>
				<rect
   x="45.900002"
   y="31.700001"
   class="st7"
   width="53.400002"
   height="6.5"
   id="rect53" />
			</g>
		</g>
		<g
   id="g101">
			<g
   id="g75">
				<linearGradient
   id="SVGID_8_"
   gradientUnits="userSpaceOnUse"
   x1="72.633301"
   y1="87.576797"
   x2="72.633301"
   y2="100.9638">
					<stop
   offset="0"
   style="stop-color:#3B3B3B"
   id="stop59" />
					<stop
   offset="1"
   style="stop-color:#121212"
   id="stop61" />
				</linearGradient>
				<path
   class="st8"
   d="M 98.5,99.9 H 46.8 c -2.3,0 -4.2,-2.6 -4.2,-5.9 0,-3.2 1.9,-5.9 4.2,-5.9 h 51.8 c 2.3,0 4.2,2.6 4.2,5.9 -0.1,3.2 -2,5.9 -4.3,5.9 z"
   id="path64" />
				<g
   class="st4"
   id="g66">
				</g>
				<linearGradient
   id="SVGID_9_"
   gradientUnits="userSpaceOnUse"
   x1="72.633301"
   y1="88.233498"
   x2="72.633301"
   y2="99.890999">
					<stop
   offset="0"
   style="stop-color:#A9A9A9"
   id="stop68" />
					<stop
   offset="1"
   style="stop-color:#2F2F2F"
   id="stop70" />
				</linearGradient>
				<path
   class="st9"
   d="M 98.5,88.1 H 46.8 c -2.3,0 -4.2,2.6 -4.2,5.9 0,3.2 1.9,5.9 4.2,5.9 h 51.8 c 2.3,0 4.2,-2.6 4.2,-5.9 -0.1,-3.3 -2,-5.9 -4.3,-5.9 z m 0,11.5 H 46.8 c -2.2,0 -4.1,-2.5 -4.1,-5.6 0,-3.1 1.8,-5.6 4.1,-5.6 h 51.8 c 2.2,0 4.1,2.5 4.1,5.6 -0.1,3.1 -2,5.6 -4.2,5.6 z"
   id="path73" />
			</g>
			<g
   id="g99">
				<defs
   id="defs78">
					<path
   id="SVGID_10_"
   d="M 97.3,96.8 H 47.9 c -1.1,0 -2,-1.2 -2,-2.8 0,-1.5 0.9,-2.8 2,-2.8 h 49.4 c 1.1,0 2,1.2 2,2.8 0,1.5 -0.9,2.8 -2,2.8 z" />
				</defs>
				<linearGradient
   id="SVGID_11_"
   gradientUnits="userSpaceOnUse"
   x1="72.633301"
   y1="91.434998"
   x2="72.633301"
   y2="96.401703">
					<stop
   offset="0"
   style="stop-color:#232323"
   id="stop80" />
					<stop
   offset="1"
   style="stop-color:#121212"
   id="stop82" />
				</linearGradient>
				<use
   xlink:href="#SVGID_10_"
   style="overflow:visible;fill:url(#SVGID_11_)"
   id="use85"
   x="0"
   y="0"
   width="100%"
   height="100%" />
				<clipPath
   id="SVGID_12_">
					<use
   xlink:href="#SVGID_10_"
   style="overflow:visible"
   id="use87"
   x="0"
   y="0"
   width="100%"
   height="100%" />
				</clipPath>
				<g
   class="st10"
   clip-path="url(#SVGID_12_)"
   id="g97">
					<linearGradient
   id="SVGID_13_"
   gradientUnits="userSpaceOnUse"
   x1="45.913601"
   y1="93.979797"
   x2="72.721802"
   y2="93.979797">
						<stop
   offset="0"
   style="stop-color:#759700"
   id="stop90" />
						<stop
   offset="1"
   style="stop-color:#CBEF29"
   id="stop92" />
					</linearGradient>
					<rect
   x="45.900002"
   y="90.699997"
   class="st11"
   width="26.799999"
   height="6.5"
   id="rect95" />
				</g>
			</g>
		</g>
		<g
   id="g140">
			<g
   id="g138">
				<g
   id="g136">
					<path
   d="m 48,85.6 c 3.9,5.9 2.4,13.9 -3.5,18 -5.9,4.1 -13.9,2.7 -18.1,-3 0.1,0.1 0.1,0.2 0.2,0.3 4.1,6 12.3,7.4 18.3,3.3 6,-4.1 7.4,-12.3 3.3,-18.3 -0.1,-0.2 -0.1,-0.3 -0.2,-0.3 z"
   id="path103" />
					
						<radialGradient
   id="SVGID_14_"
   cx="-1.7242"
   cy="-117.4192"
   r="15.6113"
   gradientTransform="matrix(0.8221,-0.5694,0.5694,0.8221,102.0209,177.7128)"
   gradientUnits="userSpaceOnUse">
						<stop
   offset="0"
   style="stop-color:#666666"
   id="stop105" />
						<stop
   offset="0.9249"
   style="stop-color:#373737"
   id="stop107" />
						<stop
   offset="1"
   style="stop-color:#333333"
   id="stop109" />
					</radialGradient>
					<path
   class="st12"
   d="m 29.5,82 c -6,4.1 -7.4,12.3 -3.3,18.3 4.1,6 12.3,7.4 18.3,3.3 6,-4.1 7.4,-12.3 3.3,-18.3 -4.1,-6 -12.3,-7.5 -18.3,-3.3 z m 13.3,19.2 c -4.6,3.2 -11,2.1 -14.2,-2.6 -3.2,-4.6 -2.1,-11 2.6,-14.2 4.6,-3.2 11,-2.1 14.2,2.6 3.2,4.6 2.1,10.9 -2.6,14.2 z"
   id="path112" />
					
						<radialGradient
   id="SVGID_15_"
   cx="-5.0661998"
   cy="128518.45"
   r="15.421"
   gradientTransform="matrix(0.8221,-0.5694,0.03342404,0.04825478,-4254.4282,-6111.7559)"
   gradientUnits="userSpaceOnUse">
						<stop
   offset="0"
   style="stop-color:#FFFFFF"
   id="stop114" />
						<stop
   offset="0.3041"
   style="stop-color:#EFD0EB"
   id="stop116" />
						<stop
   offset="0.9934"
   style="stop-color:#C659B8"
   id="stop118" />
						<stop
   offset="1"
   style="stop-color:#C658B7"
   id="stop120" />
					</radialGradient>
					<path
   class="st13"
   d="m 45.4,86.9 c 3.2,4.6 2.1,11 -2.6,14.2 -4.6,3.2 -11,2.1 -14.2,-2.6 -3.2,-4.6 -2.1,-11 2.6,-14.2 4.6,-3.2 11,-2 14.2,2.6 z"
   id="path123" />
					
						<linearGradient
   id="SVGID_16_"
   gradientUnits="userSpaceOnUse"
   x1="0.90710002"
   y1="-120.6432"
   x2="-10.4468"
   y2="-94.432701"
   gradientTransform="matrix(0.8221,-0.5694,0.5694,0.8221,102.0209,177.7128)">
						<stop
   offset="0"
   style="stop-color:#1C1B19"
   id="stop125" />
						<stop
   offset="0.9081"
   style="stop-color:#484848"
   id="stop127" />
						<stop
   offset="1"
   style="stop-color:#4D4D4D"
   id="stop129" />
					</linearGradient>
					<path
   class="st14"
   d="m 45.4,86.9 c 3.2,4.6 2.1,11 -2.6,14.2 -4.6,3.2 -11,2.1 -14.2,-2.6 -3.2,-4.6 -2.1,-11 2.6,-14.2 4.6,-3.2 11,-2 14.2,2.6 z"
   id="path132" />
					<path
   class="st15"
   d="m 31.8,85.2 c 4.5,-3.1 10.6,-2.1 13.9,2.2 -0.1,-0.1 -0.2,-0.3 -0.3,-0.4 -3.2,-4.6 -9.6,-5.8 -14.2,-2.6 -4.6,3.2 -5.8,9.6 -2.6,14.2 0.1,0.1 0.2,0.3 0.3,0.4 C 26,94.4 27.3,88.3 31.8,85.2 Z"
   id="path134" />
				</g>
			</g>
		</g>
		<g
   id="g184">
			<g
   id="g158">
				<linearGradient
   id="SVGID_17_"
   gradientUnits="userSpaceOnUse"
   x1="72.633301"
   y1="56.474499"
   x2="72.633301"
   y2="69.861504">
					<stop
   offset="0"
   style="stop-color:#3B3B3B"
   id="stop142" />
					<stop
   offset="1"
   style="stop-color:#121212"
   id="stop144" />
				</linearGradient>
				<path
   class="st16"
   d="M 98.5,68.8 H 46.8 c -2.3,0 -4.2,-2.6 -4.2,-5.9 0,-3.2 1.9,-5.9 4.2,-5.9 h 51.8 c 2.3,0 4.2,2.6 4.2,5.9 -0.1,3.2 -2,5.9 -4.3,5.9 z"
   id="path147" />
				<g
   class="st4"
   id="g149">
				</g>
				<linearGradient
   id="SVGID_18_"
   gradientUnits="userSpaceOnUse"
   x1="72.633301"
   y1="57.131199"
   x2="72.633301"
   y2="68.788696">
					<stop
   offset="0"
   style="stop-color:#A9A9A9"
   id="stop151" />
					<stop
   offset="1"
   style="stop-color:#2F2F2F"
   id="stop153" />
				</linearGradient>
				<path
   class="st17"
   d="M 98.5,57 H 46.8 c -2.3,0 -4.2,2.6 -4.2,5.9 0,3.2 1.9,5.9 4.2,5.9 h 51.8 c 2.3,0 4.2,-2.6 4.2,-5.9 -0.1,-3.3 -2,-5.9 -4.3,-5.9 z m 0,11.5 H 46.8 c -2.2,0 -4.1,-2.5 -4.1,-5.6 0,-3.1 1.8,-5.6 4.1,-5.6 h 51.8 c 2.2,0 4.1,2.5 4.1,5.6 -0.1,3.1 -2,5.6 -4.2,5.6 z"
   id="path156" />
			</g>
			<g
   id="g182">
				<defs
   id="defs161">
					<path
   id="SVGID_19_"
   d="M 97.3,65.6 H 47.9 c -1.1,0 -2,-1.2 -2,-2.8 0,-1.5 0.9,-2.8 2,-2.8 h 49.4 c 1.1,0 2,1.2 2,2.8 0,1.6 -0.9,2.8 -2,2.8 z" />
				</defs>
				<linearGradient
   id="SVGID_20_"
   gradientUnits="userSpaceOnUse"
   x1="72.633301"
   y1="60.332699"
   x2="72.633301"
   y2="65.2994">
					<stop
   offset="0"
   style="stop-color:#232323"
   id="stop163" />
					<stop
   offset="1"
   style="stop-color:#121212"
   id="stop165" />
				</linearGradient>
				<use
   xlink:href="#SVGID_19_"
   style="overflow:visible;fill:url(#SVGID_20_)"
   id="use168"
   x="0"
   y="0"
   width="100%"
   height="100%" />
				<clipPath
   id="SVGID_21_">
					<use
   xlink:href="#SVGID_19_"
   style="overflow:visible"
   id="use170"
   x="0"
   y="0"
   width="100%"
   height="100%" />
				</clipPath>
				<g
   class="st18"
   clip-path="url(#SVGID_21_)"
   id="g180">
					<linearGradient
   id="SVGID_22_"
   gradientUnits="userSpaceOnUse"
   x1="45.913601"
   y1="62.877499"
   x2="85.827103"
   y2="62.877499">
						<stop
   offset="0"
   style="stop-color:#0039B7"
   id="stop173" />
						<stop
   offset="1"
   style="stop-color:#0AD6F2"
   id="stop175" />
					</linearGradient>
					<rect
   x="45.900002"
   y="59.599998"
   class="st19"
   width="39.900002"
   height="6.5"
   id="rect178" />
				</g>
			</g>
		</g>
		<g
   id="g223">
			<g
   id="g221">
				<g
   id="g219">
					<path
   d="m 48,56.5 c 3.9,5.9 2.4,13.9 -3.5,18 -5.9,4.1 -13.9,2.7 -18.1,-3 0.1,0.1 0.1,0.2 0.2,0.3 4.1,6 12.3,7.4 18.3,3.3 6,-4.1 7.4,-12.3 3.3,-18.3 -0.1,-0.1 -0.1,-0.2 -0.2,-0.3 z"
   id="path186" />
					
						<radialGradient
   id="SVGID_23_"
   cx="14.8052"
   cy="-141.2829"
   r="15.6113"
   gradientTransform="matrix(0.8221,-0.5694,0.5694,0.8221,102.0209,177.7128)"
   gradientUnits="userSpaceOnUse">
						<stop
   offset="0"
   style="stop-color:#666666"
   id="stop188" />
						<stop
   offset="0.9249"
   style="stop-color:#373737"
   id="stop190" />
						<stop
   offset="1"
   style="stop-color:#333333"
   id="stop192" />
					</radialGradient>
					<path
   class="st20"
   d="m 29.5,52.9 c -6,4.1 -7.4,12.3 -3.3,18.3 4.1,6 12.3,7.4 18.3,3.3 6,-4.1 7.4,-12.3 3.3,-18.3 -4.1,-5.9 -12.3,-7.4 -18.3,-3.3 z m 13.3,19.2 c -4.6,3.2 -11,2.1 -14.2,-2.6 -3.2,-4.6 -2.1,-11 2.6,-14.2 4.6,-3.2 11,-2.1 14.2,2.6 3.2,4.6 2.1,11 -2.6,14.2 z"
   id="path195" />
					
						<radialGradient
   id="SVGID_24_"
   cx="11.4633"
   cy="128111.91"
   r="15.421"
   gradientTransform="matrix(0.8221,-0.5694,0.03342404,0.04825478,-4254.4282,-6111.7559)"
   gradientUnits="userSpaceOnUse">
						<stop
   offset="0"
   style="stop-color:#FFFFFF"
   id="stop197" />
						<stop
   offset="0.3041"
   style="stop-color:#EFD0EB"
   id="stop199" />
						<stop
   offset="0.9934"
   style="stop-color:#C659B8"
   id="stop201" />
						<stop
   offset="1"
   style="stop-color:#C658B7"
   id="stop203" />
					</radialGradient>
					<path
   class="st21"
   d="m 45.4,57.9 c 3.2,4.6 2.1,11 -2.6,14.2 -4.6,3.2 -11,2.1 -14.2,-2.6 -3.2,-4.6 -2.1,-11 2.6,-14.2 4.6,-3.2 11,-2 14.2,2.6 z"
   id="path206" />
					
						<linearGradient
   id="SVGID_25_"
   gradientUnits="userSpaceOnUse"
   x1="17.436501"
   y1="-144.507"
   x2="6.0826001"
   y2="-118.2965"
   gradientTransform="matrix(0.8221,-0.5694,0.5694,0.8221,102.0209,177.7128)">
						<stop
   offset="0"
   style="stop-color:#1C1B19"
   id="stop208" />
						<stop
   offset="0.9081"
   style="stop-color:#484848"
   id="stop210" />
						<stop
   offset="1"
   style="stop-color:#4D4D4D"
   id="stop212" />
					</linearGradient>
					<path
   class="st22"
   d="m 45.4,57.9 c 3.2,4.6 2.1,11 -2.6,14.2 -4.6,3.2 -11,2.1 -14.2,-2.6 -3.2,-4.6 -2.1,-11 2.6,-14.2 4.6,-3.2 11,-2 14.2,2.6 z"
   id="path215" />
					<path
   class="st15"
   d="m 31.8,56.2 c 4.5,-3.1 10.6,-2.1 13.9,2.2 -0.1,-0.1 -0.2,-0.3 -0.3,-0.4 -3.2,-4.6 -9.6,-5.8 -14.2,-2.6 -4.6,3.2 -5.8,9.6 -2.6,14.2 0.1,0.1 0.2,0.3 0.3,0.4 C 26,65.4 27.3,59.3 31.8,56.2 Z"
   id="path217" />
				</g>
			</g>
		</g>
		<g
   id="g262">
			<g
   id="g260">
				<g
   id="g258">
					<path
   d="m 48,27.5 c 3.9,5.9 2.4,13.9 -3.5,18 -5.9,4.1 -13.9,2.7 -18.1,-3 0.1,0.1 0.1,0.2 0.2,0.3 4.1,6 12.3,7.4 18.3,3.3 6,-4.1 7.4,-12.3 3.3,-18.3 -0.1,-0.1 -0.1,-0.2 -0.2,-0.3 z"
   id="path225" />
					
						<radialGradient
   id="SVGID_26_"
   cx="31.3346"
   cy="-165.1467"
   r="15.6113"
   gradientTransform="matrix(0.8221,-0.5694,0.5694,0.8221,102.0209,177.7128)"
   gradientUnits="userSpaceOnUse">
						<stop
   offset="0"
   style="stop-color:#666666"
   id="stop227" />
						<stop
   offset="0.9249"
   style="stop-color:#373737"
   id="stop229" />
						<stop
   offset="1"
   style="stop-color:#333333"
   id="stop231" />
					</radialGradient>
					<path
   class="st23"
   d="m 29.5,23.9 c -6,4.1 -7.4,12.3 -3.3,18.3 4.1,6 12.3,7.4 18.3,3.3 6,-4.1 7.4,-12.3 3.3,-18.3 -4.1,-5.9 -12.3,-7.4 -18.3,-3.3 z m 13.3,19.2 c -4.6,3.2 -11,2.1 -14.2,-2.6 -3.2,-4.6 -2.1,-11 2.6,-14.2 4.6,-3.2 11,-2.1 14.2,2.6 3.2,4.6 2.1,11 -2.6,14.2 z"
   id="path234" />
					
						<radialGradient
   id="SVGID_27_"
   cx="27.992701"
   cy="127705.37"
   r="15.421"
   gradientTransform="matrix(0.8221,-0.5694,0.03342404,0.04825478,-4254.4282,-6111.7559)"
   gradientUnits="userSpaceOnUse">
						<stop
   offset="0"
   style="stop-color:#FFFFFF"
   id="stop236" />
						<stop
   offset="0.3041"
   style="stop-color:#EFD0EB"
   id="stop238" />
						<stop
   offset="0.9934"
   style="stop-color:#C659B8"
   id="stop240" />
						<stop
   offset="1"
   style="stop-color:#C658B7"
   id="stop242" />
					</radialGradient>
					<path
   class="st24"
   d="m 45.4,28.9 c 3.2,4.6 2.1,11 -2.6,14.2 -4.6,3.2 -11,2.1 -14.2,-2.6 -3.2,-4.6 -2.1,-11 2.6,-14.2 4.6,-3.2 11,-2.1 14.2,2.6 z"
   id="path245" />
					
						<linearGradient
   id="SVGID_28_"
   gradientUnits="userSpaceOnUse"
   x1="33.9659"
   y1="-168.3708"
   x2="22.612"
   y2="-142.16029"
   gradientTransform="matrix(0.8221,-0.5694,0.5694,0.8221,102.0209,177.7128)">
						<stop
   offset="0"
   style="stop-color:#1C1B19"
   id="stop247" />
						<stop
   offset="0.9081"
   style="stop-color:#484848"
   id="stop249" />
						<stop
   offset="1"
   style="stop-color:#4D4D4D"
   id="stop251" />
					</linearGradient>
					<path
   class="st25"
   d="m 45.4,28.9 c 3.2,4.6 2.1,11 -2.6,14.2 -4.6,3.2 -11,2.1 -14.2,-2.6 -3.2,-4.6 -2.1,-11 2.6,-14.2 4.6,-3.2 11,-2.1 14.2,2.6 z"
   id="path254" />
					<path
   class="st15"
   d="M 31.8,27.1 C 36.3,24 42.4,25 45.7,29.3 45.6,29.2 45.5,29 45.4,28.9 42.2,24.3 35.8,23.1 31.2,26.3 c -4.6,3.2 -5.8,9.6 -2.6,14.2 0.1,0.1 0.2,0.3 0.3,0.4 C 26,36.3 27.3,30.2 31.8,27.1 Z"
   id="path256" />
				</g>
			</g>
		</g>
		<g
   id="g322">
			<polygon
   class="st26"
   points="30.1,98.3 31.1,90.1 42.5,90.1 43.4,98.3 "
   id="polygon264" />
			<polygon
   class="st27"
   points="31.6,90.7 42,90.7 42.8,97.8 30.8,97.8 "
   id="polygon266" />
			<g
   id="g292">
				<g
   id="g274">
					<rect
   x="36.700001"
   y="90.699997"
   class="st28"
   width="0.2"
   height="7.0999999"
   id="rect268" />
					
						<rect
   x="38.599998"
   y="90.699997"
   transform="matrix(0.9992,-0.03898234,0.03898234,0.9992,-3.644,1.5785)"
   class="st28"
   width="0.2"
   height="7.0999999"
   id="rect270" />
					
						<rect
   x="40.400002"
   y="90.699997"
   transform="matrix(0.997,-0.0777684,0.0777684,0.997,-7.2055,3.4365)"
   class="st28"
   width="0.2"
   height="7.0999999"
   id="rect272" />
				</g>
				<g
   id="g280">
					
						<rect
   x="31.4"
   y="94.099998"
   transform="matrix(0.03903982,-0.9992,0.9992,0.03903982,-60.5975,125.4502)"
   class="st28"
   width="7.0999999"
   height="0.2"
   id="rect276" />
					
						<rect
   x="29.5"
   y="94.099998"
   transform="matrix(0.07815756,-0.9969,0.9969,0.07815756,-63.4663,119.8248)"
   class="st28"
   width="7.0999999"
   height="0.2"
   id="rect278" />
				</g>
				<g
   id="g290">
					<rect
   x="31.4"
   y="92"
   class="st28"
   width="10.7"
   height="0.2"
   id="rect282" />
					<rect
   x="31.299999"
   y="93.400002"
   class="st28"
   width="11"
   height="0.2"
   id="rect284" />
					<rect
   x="31.1"
   y="94.800003"
   class="st28"
   width="11.4"
   height="0.2"
   id="rect286" />
					<rect
   x="30.9"
   y="96.300003"
   class="st28"
   width="11.7"
   height="0.2"
   id="rect288" />
				</g>
			</g>
			<rect
   x="35.799999"
   y="98.300003"
   class="st29"
   width="2"
   height="1.7"
   id="rect294" />
			<rect
   x="35.200001"
   y="99.599998"
   class="st30"
   width="3.3"
   height="0.80000001"
   id="rect296" />
			<polygon
   class="st31"
   points="42.5,90.1 36.8,90.1 36.8,100.4 38.4,100.4 38.4,99.6 37.8,99.6 37.8,98.3 43.4,98.3 "
   id="polygon298" />
			<g
   id="g320">
				<circle
   class="st32"
   cx="41.900002"
   cy="89"
   r="1.9"
   id="circle300" />
				<g
   id="g318">
					<path
   class="st32"
   d="m 41.9,86.9 c 0.2,0 0.3,0 0.5,0 0,0 0,0 0,0 -0.2,-0.4 -0.5,-1.3 -0.5,-1.7 0,0.4 -0.2,1.3 -0.5,1.7 0,0 0,0 0,0 0.2,0 0.3,0 0.5,0 z"
   id="path302" />
					<path
   class="st32"
   d="m 44.1,89 c 0,0.2 0,0.3 0,0.5 0,0 0,0 0,0 0.4,-0.2 1.3,-0.5 1.7,-0.5 -0.4,0 -1.3,-0.2 -1.7,-0.5 0,0 0,0 0,0 0,0.2 0,0.4 0,0.5 z"
   id="path304" />
					<path
   class="st32"
   d="m 41.9,91.2 c -0.2,0 -0.3,0 -0.5,0 0,0 0,0 0,0 0.2,0.4 0.5,1.3 0.5,1.7 0,-0.4 0.2,-1.3 0.5,-1.7 0,0 0,0 0,0 -0.2,0 -0.3,0 -0.5,0 z"
   id="path306" />
					<path
   class="st32"
   d="m 39.7,89 c 0,-0.2 0,-0.3 0,-0.5 0,0 0,0 0,0 -0.4,0.2 -1.3,0.5 -1.7,0.5 0.4,0 1.3,0.2 1.7,0.5 0,0 0,0 0,0 0,-0.1 0,-0.3 0,-0.5 z"
   id="path308" />
					<path
   class="st32"
   d="m 40.4,87.5 c 0.1,-0.1 0.2,-0.2 0.4,-0.3 0,0 0,0 0,0 -0.5,-0.1 -1.2,-0.6 -1.5,-0.9 0.3,0.3 0.7,1 0.9,1.5 0,0 0,0 0,0 0,-0.1 0,-0.2 0.2,-0.3 z"
   id="path310" />
					<path
   class="st32"
   d="m 43.4,87.5 c 0.1,0.1 0.2,0.2 0.3,0.4 0,0 0,0 0,0 0.1,-0.5 0.6,-1.2 0.9,-1.5 -0.3,0.3 -1,0.7 -1.5,0.9 0,0 0,0 0,0 0.1,0 0.2,0.1 0.3,0.2 z"
   id="path312" />
					<path
   class="st32"
   d="m 43.4,90.6 c -0.1,0.1 -0.2,0.2 -0.4,0.3 0,0 0,0 0,0 0.5,0.1 1.2,0.6 1.5,0.9 -0.3,-0.3 -0.7,-1 -0.9,-1.5 0,0 0,0 0,0 0,0.1 -0.1,0.2 -0.2,0.3 z"
   id="path314" />
					<path
   class="st32"
   d="m 40.4,90.6 c -0.1,-0.1 -0.2,-0.2 -0.3,-0.4 0,0 0,0 0,0 -0.1,0.5 -0.6,1.2 -0.9,1.5 0.3,-0.3 1,-0.7 1.5,-0.9 0,0 0,0 0,0 -0.1,0 -0.2,-0.1 -0.3,-0.2 z"
   id="path316" />
				</g>
			</g>
		</g>
		<path
   class="st33"
   d="m 40.5,27.5 c -0.1,0.1 -0.1,0.3 -0.2,0.4 -0.7,1.7 -1.4,3.3 -2.1,5 -0.1,0.3 -0.1,0.4 0.1,0.5 0.8,0.3 1.6,0.7 2.4,1 0.1,0 0.2,0.1 0.3,0.1 -2.7,2.8 -5.3,5.5 -7.9,8.2 0,0 0,0 -0.1,0 0.1,-0.1 0.1,-0.3 0.2,-0.4 0.8,-1.9 1.6,-3.7 2.4,-5.6 0.1,-0.3 0.1,-0.5 -0.1,-0.6 -0.7,-0.3 -1.5,-0.6 -2.2,-0.9 -0.1,0 -0.2,-0.1 -0.3,-0.1 2.5,-2.6 5,-5.1 7.5,-7.6 0,-0.1 0,-0.1 0,0 z"
   id="path324" />
		<ellipse
   class="st34"
   cx="36.299999"
   cy="68.199997"
   rx="3.7"
   ry="2.5999999"
   id="ellipse326" />
		<g
   id="g334">
			<g
   id="g332">
				<g
   id="g330">
					<path
   class="st35"
   d="M 35.3,69.7 C 34.8,69.5 34.4,68.9 34.2,68.2 34,67.5 34.1,66.7 34.6,66.1 l 0.2,-0.3 v 0.4 c 0,0.2 0,0.3 0,0.5 0,-0.2 0.1,-0.4 0.2,-0.5 0.1,-0.2 0.2,-0.5 0.1,-0.8 v -0.2 l 0.2,0.1 c 0.2,0.1 0.4,0.5 0.5,0.9 0,-0.1 0,-0.2 0,-0.3 0.1,-0.5 0.1,-1.2 0.9,-1.6 l 0.2,-0.1 -0.1,0.3 c -0.1,0.3 0,0.6 0.1,1 0.1,0.2 0.2,0.5 0.2,0.7 0.1,-0.3 0.1,-0.6 0.1,-0.9 V 65 l 0.2,0.3 c 0.4,0.6 0.5,1.3 0.5,1.8 C 38,67 38,66.8 38,66.7 v -0.3 l 0.2,0.2 c 0.3,0.7 0.3,1.6 0,2.3 -0.2,0.5 -0.6,0.8 -0.9,0.9 h -0.2 l 0.1,-0.2 c 0.1,-0.2 0.1,-0.4 0.1,-0.6 0,0.1 -0.1,0.2 -0.2,0.2 L 36.9,69.3 37,69 c 0.1,-0.1 0.1,-0.4 0,-0.7 0,0.1 -0.1,0.3 -0.1,0.4 l -0.2,0.2 v -0.3 c 0,-0.2 0,-0.4 -0.1,-0.6 0,-0.1 -0.1,-0.2 -0.1,-0.3 -0.1,0.2 -0.2,0.4 -0.2,0.6 0,0.1 0,0.3 -0.1,0.4 L 36,68.9 35.9,68.6 c 0,-0.1 -0.1,-0.2 -0.1,-0.3 0,0.1 0,0.1 -0.1,0.2 -0.1,0.2 -0.1,0.3 0,0.5 v 0.2 l -0.2,-0.1 c 0,0 -0.1,-0.1 -0.1,-0.3 -0.1,0.3 0,0.6 0,0.7 l 0.1,0.2 z"
   id="path328" />
				</g>
			</g>
		</g>
		<g
   id="g342">
			<g
   id="g340">
				<g
   id="g338">
					<path
   class="st36"
   d="m 34.1,70.2 c -1.1,-0.5 -2,-1.8 -2.4,-3.3 -0.4,-1.6 -0.1,-3.3 0.8,-4.6 l 0.4,-0.6 v 0.8 c 0,0.4 0,0.7 0.1,1.1 0.1,-0.4 0.2,-0.8 0.3,-1.2 0.2,-0.6 0.4,-1.1 0.3,-1.8 l -0.1,-0.4 0.3,0.1 c 0.4,0.2 0.9,1 1.2,1.9 0,-0.2 0.1,-0.5 0.1,-0.7 0.1,-1.2 0.3,-2.7 2,-3.6 l 0.5,-0.3 -0.2,0.6 c -0.2,0.6 0,1.4 0.3,2.2 0.2,0.5 0.4,1.1 0.4,1.7 0.2,-0.7 0.3,-1.3 0.3,-1.9 v -0.7 l 0.4,0.6 c 1,1.3 1.2,2.9 1,4 0.1,-0.3 0.2,-0.7 0.2,-0.9 l 0.1,-0.6 0.3,0.5 c 0.7,1.6 0.6,3.5 -0.1,5.2 -0.5,1.1 -1.2,1.9 -2.1,2.1 L 38,70.3 38.1,69.9 c 0.1,-0.4 0.2,-0.9 0.1,-1.3 -0.1,0.2 -0.2,0.3 -0.4,0.4 l -0.5,0.2 0.3,-0.6 c 0.1,-0.2 0.3,-0.8 0,-1.6 -0.1,0.3 -0.2,0.6 -0.3,0.9 l -0.4,0.5 V 67.8 C 37,67.4 36.8,67 36.7,66.6 c -0.1,-0.3 -0.2,-0.5 -0.2,-0.8 -0.3,0.3 -0.4,0.8 -0.4,1.2 0,0.3 -0.1,0.6 -0.2,0.8 l -0.3,0.5 -0.1,-0.6 c -0.1,-0.2 -0.1,-0.5 -0.2,-0.7 0,0.2 -0.1,0.3 -0.1,0.4 -0.1,0.3 -0.2,0.6 -0.1,1.1 V 69 l -0.4,-0.3 c 0,0 -0.2,-0.3 -0.3,-0.6 -0.2,0.6 -0.1,1.2 0.1,1.7 l 0.2,0.5 z"
   id="path336" />
				</g>
			</g>
		</g>
	</g>
</g>
</svg>
