<?xml version="1.0" encoding="UTF-8" standalone="no"?>
<svg
   version="1.1"
   id="Calque_3"
   x="0px"
   y="0px"
   viewBox="0 0 128 128"
   xml:space="preserve"
   sodipodi:docname="syn_tele.svg"
   width="128"
   height="128"
   inkscape:version="1.1 (c68e22c387, 2021-05-23)"
   inkscape:export-filename="/home/sebastien/SRC/trunk/Watchdogd/IHM/img/syn_reseau.png"
   inkscape:export-xdpi="96"
   inkscape:export-ydpi="96"
   xmlns:inkscape="http://www.inkscape.org/namespaces/inkscape"
   xmlns:sodipodi="http://sodipodi.sourceforge.net/DTD/sodipodi-0.dtd"
   xmlns:xlink="http://www.w3.org/1999/xlink"
   xmlns="http://www.w3.org/2000/svg"
   xmlns:svg="http://www.w3.org/2000/svg"
   xmlns:rdf="http://www.w3.org/1999/02/22-rdf-syntax-ns#"
   xmlns:cc="http://creativecommons.org/ns#"
   xmlns:dc="http://purl.org/dc/elements/1.1/"><metadata
   id="metadata129"><rdf:RDF><cc:Work
       rdf:about=""><dc:format>image/svg+xml</dc:format><dc:type
         rdf:resource="http://purl.org/dc/dcmitype/StillImage" /></cc:Work></rdf:RDF></metadata><defs
   id="defs127"><linearGradient
     id="SVGID_2_"
     gradientUnits="userSpaceOnUse"
     x1="31.351801"
     y1="81.147903"
     x2="127.9604"
     y2="81.147903"><stop
       offset="0"
       style="stop-color:#000000;stop-opacity:0.52636904"
       id="stop22" /><stop
       offset="1"
       style="stop-color:#000000;stop-opacity:0.11220315"
       id="stop24" /></linearGradient><linearGradient
     inkscape:collect="always"
     xlink:href="#SVGID_2_"
     id="linearGradient2489"
     x1="41.382881"
     y1="56.517323"
     x2="123.75993"
     y2="93.652893"
     gradientUnits="userSpaceOnUse" /></defs><sodipodi:namedview
   pagecolor="#ffffff"
   bordercolor="#666666"
   borderopacity="1"
   objecttolerance="10"
   gridtolerance="10"
   guidetolerance="10"
   inkscape:pageopacity="0"
   inkscape:pageshadow="2"
   inkscape:window-width="1920"
   inkscape:window-height="979"
   id="namedview125"
   showgrid="false"
   inkscape:zoom="4.3862718"
   inkscape:cx="63.949525"
   inkscape:cy="67.02731"
   inkscape:window-x="0"
   inkscape:window-y="0"
   inkscape:window-maximized="1"
   inkscape:current-layer="g122"
   inkscape:document-rotation="0"
   inkscape:pagecheckerboard="0" />
<style
   type="text/css"
   id="style2">
	.st0{fill:#EC9D40;}
	.st1{fill:#C9802A;}
	.st2{fill:#666666;}
	.st3{fill:#FBB03B;stroke:#998675;stroke-miterlimit:10;}
	.st4{fill:#C7B299;stroke:#F6ECCB;stroke-miterlimit:10;}
	.st5{fill:#1D2C36;}
	.st6{fill:#ECF0F1;}
	.st7{fill:#D6DBDB;}
	.st8{fill:#B7C3C3;}
	.st9{fill:#363838;}
	.st10{fill:#4F4F4F;}
</style>
<g
   id="g122">
	<path
   class="st1"
   d="m 127.9,64 c 0,-11.1 -1.8,-22.3 -9.5,-33.6 l -26.2,-15.9 -9.7,14.2 6.6,2.4 v 5.3 L 74.5,35.8 73.8,44.2 32.9,88.4 89,123.2 c 19.5,-8.5 39,-29.6 38.9,-59.2 z"
   id="path10"
   style="fill:#007ab9;fill-opacity:0.698039" /><circle
   class="st0"
   cx="64"
   cy="64"
   id="circle4"
   style="fill:#007ab9;fill-opacity:1"
   r="64" />
	<g
   id="g8">
		<path
   class="st0"
   d="M 57.6,127.8"
   id="path6" />
	</g>
	
	
	
	
	
	
	
	
	
	
	
	<path
   class="st4"
   d="M 95.036776,121.0233 C 129.18846,100.31088 130.89607,67.25002 123.90061,41.00856 L 104.11698,30.035122 C 55.932062,30.155983 24.433704,64.705874 24.234276,87.708874 Z"
   id="path27"
   style="fill:url(#linearGradient2489);fill-opacity:1;stroke:none"
   transform="translate(-0.0046629,-0.86338655)"
   sodipodi:nodetypes="ccccc" /><g
   id="g120"
   transform="matrix(1.2774433,0,0,1.2774433,-17.756371,-24.654565)"
   style="stroke-width:0.782814">
		<g
   id="g118"
   style="stroke-width:0.782814">
			<g
   id="g110"
   style="stroke-width:0.782814">
				<g
   id="g104"
   style="stroke-width:0.782814">
					<path
   class="st5"
   d="m 96.7,45.1 c 0,-2.2 -1.6,-4 -3.5,-4 H 34.9 c -2,0 -3.5,1.8 -3.5,4 v 33.8 h 65.3 z"
   id="path100"
   style="stroke-width:0.782814" />
					<path
   class="st6"
   d="m 31.3,78.9 v 5.2 c 0,2.2 1.6,4 3.5,4 H 93 c 2,0 3.5,-1.8 3.5,-4 v -5.2 z"
   id="path102"
   style="stroke-width:0.782814" />
				</g>
				<path
   class="st7"
   d="M 72.1,96.7 C 69.7,95.3 69.8,92.4 69.8,92.4 V 88 H 64 58.2 v 4.5 c 0,0 0.1,2.9 -2.3,4.3 h -0.7 v 0.9 h 8.8 8.8 v -0.9 h -0.7 z"
   id="path106"
   style="stroke-width:0.782814" />
				<rect
   x="55.200001"
   y="96.699997"
   class="st8"
   width="17.6"
   height="0.89999998"
   id="rect108"
   style="stroke-width:0.782814" />
			</g>
			<g
   id="g116"
   style="stroke-width:0.782814">
				<polygon
   class="st9"
   points="34.6,75.7 46.3,75.7 70.6,44.9 34.6,44.9 "
   id="polygon112"
   style="stroke-width:0.782814" />
				<polygon
   class="st10"
   points="70.6,44.9 46.3,75.7 93.4,75.7 93.4,44.9 "
   id="polygon114"
   style="stroke-width:0.782814" />
			</g>
		</g>
	</g>
</g>
</svg>
