<?xml version="1.0" encoding="utf-8"?>
<!-- Generator: Adobe Illustrator 22.1.0, SVG Export Plug-In . SVG Version: 6.00 Build 0)  -->
<svg version="1.1" id="Calque_3" xmlns="http://www.w3.org/2000/svg" xmlns:xlink="http://www.w3.org/1999/xlink" x="0px" y="0px"
	 viewBox="0 0 128 128" style="enable-background:new 0 0 128 128;" xml:space="preserve">
<style type="text/css">
	.st0{clip-path:url(#SVGID_2_);}
	.st1{fill:#210B2F;}
	.st2{opacity:0.29;fill:url(#SVGID_3_);}
	.st3{opacity:0.79;fill:url(#SVGID_4_);}
	.st4{opacity:0.29;fill:url(#SVGID_5_);}
	.st5{opacity:0.55;fill:url(#SVGID_6_);}
	.st6{opacity:0.79;fill:url(#SVGID_7_);}
	.st7{fill:#EEDA80;}
	.st8{fill:#403888;}
	.st9{opacity:7.000000e-02;}
	.st10{fill:none;stroke:#F9F9FF;stroke-width:0.2584;stroke-miterlimit:10;}
	.st11{fill:url(#SVGID_8_);}
	.st12{fill:url(#SVGID_9_);}
	.st13{fill:#FFFFFF;}
	.st14{fill:url(#SVGID_10_);}
	.st15{fill:url(#SVGID_11_);}
	.st16{fill:url(#SVGID_12_);}
	.st17{fill:url(#SVGID_13_);}
	.st18{fill:url(#SVGID_14_);}
	.st19{fill:url(#SVGID_15_);}
	.st20{fill:url(#SVGID_16_);}
	.st21{fill:url(#SVGID_17_);}
	.st22{fill:url(#SVGID_18_);}
	.st23{fill:url(#SVGID_19_);}
	.st24{fill:url(#SVGID_20_);}
	.st25{fill:url(#SVGID_21_);}
	.st26{fill:url(#SVGID_22_);}
	.st27{fill:url(#SVGID_23_);}
</style>
<g>
	<g>
		<defs>
			<circle id="SVGID_1_" cx="64" cy="64" r="64"/>
		</defs>
		<clipPath id="SVGID_2_">
			<use xlink:href="#SVGID_1_"  style="overflow:visible;"/>
		</clipPath>
		<g class="st0">
			<circle class="st1" cx="63.7" cy="64" r="64"/>
			<g>
				<g>
					<g>
						
							<linearGradient id="SVGID_3_" gradientUnits="userSpaceOnUse" x1="9.0052" y1="234.9354" x2="120.0034" y2="234.9354" gradientTransform="matrix(7.612576e-02 1.0008 -0.4563 3.468566e-02 167.4536 17.3761)">
							<stop  offset="1.422280e-03" style="stop-color:#FFFFFF"/>
							<stop  offset="0.9967" style="stop-color:#FFFFFF;stop-opacity:0"/>
						</linearGradient>
						<polygon class="st2" points="65.1,145.9 58.9,34.7 62.9,34.4 73.7,145.3 						"/>
						
							<linearGradient id="SVGID_4_" gradientUnits="userSpaceOnUse" x1="30.5511" y1="157.4514" x2="141.5458" y2="157.4514" gradientTransform="matrix(-0.2799 0.9639 -0.4395 -0.1276 137.2609 25.1879)">
							<stop  offset="1.422280e-03" style="stop-color:#FFFFFF"/>
							<stop  offset="0.9967" style="stop-color:#FFFFFF;stop-opacity:0"/>
						</linearGradient>
						<polygon class="st3" points="24.3,140.3 57.5,34 61.4,35.1 32.5,142.7 						"/>
						
							<linearGradient id="SVGID_5_" gradientUnits="userSpaceOnUse" x1="-4.6122" y1="172.2483" x2="106.3861" y2="172.2483" gradientTransform="matrix(0.8464 0.5395 0.246 -0.3859 23.4391 103.6267)">
							<stop  offset="1.422280e-03" style="stop-color:#FFFFFF"/>
							<stop  offset="0.9967" style="stop-color:#FFFFFF;stop-opacity:0"/>
						</linearGradient>
						<polygon class="st4" points="158.1,90.9 63.1,32.9 60.8,36.4 153.5,98.2 						"/>
						
							<linearGradient id="SVGID_6_" gradientUnits="userSpaceOnUse" x1="38.5223" y1="66.209" x2="149.5184" y2="66.209" gradientTransform="matrix(0.9657 0.2735 0.1247 -0.4403 16.6714 51.9177)">
							<stop  offset="1.422280e-03" style="stop-color:#FFFFFF"/>
							<stop  offset="0.9967" style="stop-color:#FFFFFF;stop-opacity:0"/>
						</linearGradient>
						<polygon class="st5" points="170.5,59.5 62.7,31.3 61.6,35.2 168.2,67.8 						"/>
						
							<linearGradient id="SVGID_7_" gradientUnits="userSpaceOnUse" x1="-38.8458" y1="368.5749" x2="72.1479" y2="368.5749" gradientTransform="matrix(0.5541 0.8369 -0.3816 0.2527 222.1644 -26.8724)">
							<stop  offset="1.422280e-03" style="stop-color:#FFFFFF"/>
							<stop  offset="0.9967" style="stop-color:#FFFFFF;stop-opacity:0"/>
						</linearGradient>
						<polygon class="st6" points="117.9,129 58.3,34.9 61.7,32.6 125.1,124.3 						"/>
					</g>
					<g>
						<g>
							<g>
								<g>
									<polygon class="st7" points="65.9,33.3 56.9,38.7 56.1,38.2 65.9,32.4 									"/>
									<path class="st8" d="M68.1,31L54,39.5c-0.2,0.1-0.4,0.1-0.5-0.1l0,0c-0.1-0.2-0.1-0.4,0.1-0.5l14.1-8.5
										c0.2-0.1,0.4-0.1,0.5,0.1l0,0C68.4,30.7,68.3,30.9,68.1,31z"/>
									<path class="st7" d="M67.1,32.5l-11.4,6.8c-0.6,0.3-1.2,0.4-1.8,0.2l0,0L68.2,31l0,0C68.1,31.6,67.7,32.2,67.1,32.5z"/>
									<g>
										<path class="st7" d="M60.2,37.1l-4.6,2.7c-0.2,0.1-0.4,0-0.5-0.1l0,0c-0.1-0.2,0-0.4,0.1-0.5l4.6-2.7
											c0.2-0.1,0.4,0,0.5,0.1l0,0C60.4,36.8,60.3,37,60.2,37.1z"/>
										<path class="st7" d="M64.1,35.3L59.5,38c-0.2,0.1-0.4,0-0.5-0.1l0,0c-0.1-0.2,0-0.4,0.1-0.5l4.6-2.7
											c0.2-0.1,0.4,0,0.5,0.1l0,0C64.3,35,64.2,35.2,64.1,35.3z"/>
										<path class="st7" d="M63.8,34.9l-4.6,2.7c-0.2,0.1-0.4,0-0.5-0.1l0,0c-0.1-0.2,0-0.4,0.1-0.5l4.6-2.7
											c0.2-0.1,0.4,0,0.5,0.1l0,0C64,34.6,64,34.8,63.8,34.9z"/>
										<path class="st7" d="M67.8,32.5l-4.6,2.7c-0.2,0.1-0.4,0-0.5-0.1l0,0c-0.1-0.2,0-0.4,0.1-0.5l4.6-2.7
											c0.2-0.1,0.4,0,0.5,0.1l0,0C68,32.2,67.9,32.4,67.8,32.5z"/>
									</g>
									<path class="st8" d="M68.1,31L54,39.5c-0.2,0.1-0.4,0.1-0.5-0.1l0,0c-0.1-0.2-0.1-0.4,0.1-0.5l14.1-8.5
										c0.2-0.1,0.4-0.1,0.5,0.1l0,0C68.4,30.7,68.3,30.9,68.1,31z"/>
								</g>
							</g>
							<g>
								<g class="st9">
									<g>
										<line class="st10" x1="43.4" y1="41.7" x2="58.4" y2="36.8"/>
										<line class="st10" x1="45.7" y1="40.3" x2="60.7" y2="35.4"/>
										<line class="st10" x1="47.9" y1="38.9" x2="62.9" y2="34"/>
										<line class="st10" x1="50.1" y1="37.5" x2="65.2" y2="32.6"/>
										<line class="st10" x1="52.4" y1="36.1" x2="67.4" y2="31.2"/>
										<line class="st10" x1="54.6" y1="34.7" x2="69.6" y2="29.8"/>
										<line class="st10" x1="56.9" y1="33.3" x2="71.9" y2="28.4"/>
									</g>
								</g>
							</g>
						</g>
					</g>
				</g>
			</g>
		</g>
		<g class="st0">
			<g>
				
					<linearGradient id="SVGID_8_" gradientUnits="userSpaceOnUse" x1="-36.9557" y1="-7268.5596" x2="-36.9557" y2="-7299.3809" gradientTransform="matrix(0.9982 5.990000e-02 -5.990000e-02 0.9982 -340.4115 7296.5054)">
					<stop  offset="0.1122" style="stop-color:#000100"/>
					<stop  offset="0.1664" style="stop-color:#030402"/>
					<stop  offset="0.2063" style="stop-color:#0C0D0A"/>
					<stop  offset="0.2417" style="stop-color:#1C1C16"/>
					<stop  offset="0.2742" style="stop-color:#333128"/>
					<stop  offset="0.2805" style="stop-color:#38362C"/>
					<stop  offset="0.3012" style="stop-color:#2E2C24"/>
					<stop  offset="0.3524" style="stop-color:#1A1914"/>
					<stop  offset="0.4115" style="stop-color:#0C0C09"/>
					<stop  offset="0.485" style="stop-color:#040402"/>
					<stop  offset="0.6171" style="stop-color:#020200"/>
					<stop  offset="1" style="stop-color:#232323"/>
				</linearGradient>
				<path class="st11" d="M59.9,8L59.9,8c1,0.1,1.7,0.9,1.6,1.8L59.9,37c-0.1,1-0.9,1.7-1.8,1.6l0,0c-1-0.1-1.7-0.9-1.6-1.8
					l1.6-27.2C58.1,8.8,59,8,59.9,8z"/>
				
					<linearGradient id="SVGID_9_" gradientUnits="userSpaceOnUse" x1="-37.1711" y1="-7268.5596" x2="-37.1711" y2="-7299.3809" gradientTransform="matrix(0.9982 5.990000e-02 -5.990000e-02 0.9982 -340.4115 7296.5054)">
					<stop  offset="0.1122" style="stop-color:#10100E"/>
					<stop  offset="0.168" style="stop-color:#131310"/>
					<stop  offset="0.2091" style="stop-color:#1C1C18"/>
					<stop  offset="0.2453" style="stop-color:#2C2B25"/>
					<stop  offset="0.2788" style="stop-color:#434137"/>
					<stop  offset="0.2805" style="stop-color:#444238"/>
					<stop  offset="0.2958" style="stop-color:#3D3B32"/>
					<stop  offset="0.3478" style="stop-color:#292822"/>
					<stop  offset="0.408" style="stop-color:#1B1B17"/>
					<stop  offset="0.4828" style="stop-color:#131311"/>
					<stop  offset="0.6171" style="stop-color:#11110F"/>
				</linearGradient>
				<path class="st12" d="M59.7,8L59.7,8c1,0.1,1.7,0.9,1.6,1.8L59.7,37c-0.1,1-0.9,1.7-1.8,1.6l0,0c-1-0.1-1.7-0.9-1.6-1.8
					l1.6-27.2C57.9,8.8,58.7,8,59.7,8z"/>
				<g>
					
						<ellipse transform="matrix(0.758 -0.6523 0.6523 0.758 -15.0952 52.8019)" class="st13" cx="63.6" cy="46.7" rx="15.5" ry="9.7"/>
					
						<linearGradient id="SVGID_10_" gradientUnits="userSpaceOnUse" x1="5405.8271" y1="-5119.5869" x2="5405.8271" y2="-5145.1294" gradientTransform="matrix(0.6523 0.758 -0.758 0.6523 -7368.2036 -720.7697)">
						<stop  offset="0" style="stop-color:#5E5D53"/>
						<stop  offset="8.260568e-03" style="stop-color:#53534A"/>
						<stop  offset="3.511417e-02" style="stop-color:#363630"/>
						<stop  offset="6.168868e-02" style="stop-color:#21211D"/>
						<stop  offset="8.763044e-02" style="stop-color:#141412"/>
						<stop  offset="0.1122" style="stop-color:#10100E"/>
						<stop  offset="0.168" style="stop-color:#131310"/>
						<stop  offset="0.2091" style="stop-color:#1C1C18"/>
						<stop  offset="0.2453" style="stop-color:#2C2B25"/>
						<stop  offset="0.2788" style="stop-color:#434137"/>
						<stop  offset="0.2805" style="stop-color:#444238"/>
						<stop  offset="0.2958" style="stop-color:#3D3B32"/>
						<stop  offset="0.3478" style="stop-color:#292822"/>
						<stop  offset="0.408" style="stop-color:#1B1B17"/>
						<stop  offset="0.4828" style="stop-color:#131311"/>
						<stop  offset="0.6171" style="stop-color:#11110F"/>
						<stop  offset="0.7976" style="stop-color:#303030"/>
						<stop  offset="0.8823" style="stop-color:#323232"/>
						<stop  offset="0.9128" style="stop-color:#393937"/>
						<stop  offset="0.9346" style="stop-color:#444441"/>
						<stop  offset="0.9522" style="stop-color:#555550"/>
						<stop  offset="0.9672" style="stop-color:#6B6B62"/>
						<stop  offset="0.9806" style="stop-color:#878579"/>
						<stop  offset="0.9924" style="stop-color:#A6A494"/>
						<stop  offset="1" style="stop-color:#BFBDA9"/>
					</linearGradient>
					<path class="st14" d="M49,45c-0.3,1.4-2.2,1.9-3.1,0.9L35.3,33.7c-2.9-3.3-0.9-9.8,4.4-14.4c5.4-4.6,12-5.6,14.9-2.3l10.6,12.2
						c1,1.1,0.2,2.8-1.3,2.9c-2.9,0.2-6.4,1.6-9.4,4.2C51.6,38.9,49.7,42.1,49,45z"/>
					
						<linearGradient id="SVGID_11_" gradientUnits="userSpaceOnUse" x1="5396.5293" y1="-5119.5908" x2="5396.5293" y2="-5145.1157" gradientTransform="matrix(0.6523 0.758 -0.758 0.6523 -7368.2036 -720.7697)">
						<stop  offset="0" style="stop-color:#1A1914"/>
						<stop  offset="5.832366e-02" style="stop-color:#1D1C17"/>
						<stop  offset="0.1013" style="stop-color:#262520"/>
						<stop  offset="0.1394" style="stop-color:#363530"/>
						<stop  offset="0.1747" style="stop-color:#4C4B47"/>
						<stop  offset="0.208" style="stop-color:#686864"/>
						<stop  offset="0.2398" style="stop-color:#8B8B88"/>
						<stop  offset="0.2705" style="stop-color:#B5B4B3"/>
						<stop  offset="0.2995" style="stop-color:#E4E3E3"/>
						<stop  offset="0.3146" style="stop-color:#FFFFFF"/>
						<stop  offset="0.3162" style="stop-color:#FBFBFB"/>
						<stop  offset="0.3365" style="stop-color:#CDCDCC"/>
						<stop  offset="0.3584" style="stop-color:#A4A3A1"/>
						<stop  offset="0.3817" style="stop-color:#807F7C"/>
						<stop  offset="0.4067" style="stop-color:#61615C"/>
						<stop  offset="0.4337" style="stop-color:#494843"/>
						<stop  offset="0.4636" style="stop-color:#36352F"/>
						<stop  offset="0.4979" style="stop-color:#282721"/>
						<stop  offset="0.5405" style="stop-color:#201F19"/>
						<stop  offset="0.6171" style="stop-color:#1E1D17"/>
						<stop  offset="0.739" style="stop-color:#848484"/>
						<stop  offset="0.7766" style="stop-color:#8C8C8B"/>
						<stop  offset="0.8356" style="stop-color:#A3A29F"/>
						<stop  offset="0.9088" style="stop-color:#C8C7C0"/>
						<stop  offset="0.9925" style="stop-color:#FAF9EE"/>
						<stop  offset="1" style="stop-color:#FFFEF2"/>
					</linearGradient>
					<path class="st15" d="M35.3,33.6c0-0.1-0.1-0.1-0.1-0.2c-2.8-3.8-1-10.3,4.2-14.7s11.9-5.3,15.1-1.9c0.1,0.1,0.1,0.1,0.2,0.2
						c-3-3.2-9.5-2.2-14.8,2.4C34.8,23.9,32.7,30.1,35.3,33.6z"/>
					
						<linearGradient id="SVGID_12_" gradientUnits="userSpaceOnUse" x1="5410.3975" y1="-5116.8438" x2="5410.3975" y2="-5147.8643" gradientTransform="matrix(0.6523 0.758 -0.758 0.6523 -7368.2036 -720.7697)">
						<stop  offset="0" style="stop-color:#5E5D53"/>
						<stop  offset="8.260568e-03" style="stop-color:#53534A"/>
						<stop  offset="3.511417e-02" style="stop-color:#363630"/>
						<stop  offset="6.168868e-02" style="stop-color:#21211D"/>
						<stop  offset="8.763044e-02" style="stop-color:#141412"/>
						<stop  offset="0.1122" style="stop-color:#10100E"/>
						<stop  offset="0.168" style="stop-color:#131310"/>
						<stop  offset="0.2091" style="stop-color:#1C1C18"/>
						<stop  offset="0.2453" style="stop-color:#2C2B25"/>
						<stop  offset="0.2788" style="stop-color:#434137"/>
						<stop  offset="0.2805" style="stop-color:#444238"/>
						<stop  offset="0.2958" style="stop-color:#3D3B32"/>
						<stop  offset="0.3478" style="stop-color:#292822"/>
						<stop  offset="0.408" style="stop-color:#1B1B17"/>
						<stop  offset="0.4828" style="stop-color:#131311"/>
						<stop  offset="0.6171" style="stop-color:#11110F"/>
						<stop  offset="0.7976" style="stop-color:#303030"/>
						<stop  offset="0.8823" style="stop-color:#323232"/>
						<stop  offset="0.9128" style="stop-color:#393937"/>
						<stop  offset="0.9346" style="stop-color:#444441"/>
						<stop  offset="0.9522" style="stop-color:#555550"/>
						<stop  offset="0.9672" style="stop-color:#6B6B62"/>
						<stop  offset="0.9806" style="stop-color:#878579"/>
						<stop  offset="0.9924" style="stop-color:#A6A494"/>
						<stop  offset="1" style="stop-color:#BFBDA9"/>
					</linearGradient>
					<path class="st16" d="M50.3,50.6c-0.2,1.5-2.2,2.1-3.1,0.9L37.1,39.7c-3.5-4.1-1.1-11.9,5.4-17.5s14.6-6.8,18.1-2.8l10.1,11.8
						c1,1.2,0.2,2.9-1.3,2.9c-3.8,0-8.2,1.8-12.2,5.2C53.4,42.7,50.9,47,50.3,50.6z"/>
					
						<linearGradient id="SVGID_13_" gradientUnits="userSpaceOnUse" x1="5423.3394" y1="-5116.8496" x2="5423.3394" y2="-5147.8535" gradientTransform="matrix(0.6523 0.758 -0.758 0.6523 -7368.2036 -720.7697)">
						<stop  offset="0" style="stop-color:#1A1914"/>
						<stop  offset="5.832366e-02" style="stop-color:#1D1C17"/>
						<stop  offset="0.1013" style="stop-color:#262520"/>
						<stop  offset="0.1394" style="stop-color:#363530"/>
						<stop  offset="0.1747" style="stop-color:#4C4B47"/>
						<stop  offset="0.208" style="stop-color:#686864"/>
						<stop  offset="0.2398" style="stop-color:#8B8B88"/>
						<stop  offset="0.2705" style="stop-color:#B5B4B3"/>
						<stop  offset="0.2995" style="stop-color:#E4E3E3"/>
						<stop  offset="0.3146" style="stop-color:#FFFFFF"/>
						<stop  offset="0.3162" style="stop-color:#FBFBFB"/>
						<stop  offset="0.3365" style="stop-color:#CDCDCC"/>
						<stop  offset="0.3584" style="stop-color:#A4A3A1"/>
						<stop  offset="0.3817" style="stop-color:#807F7C"/>
						<stop  offset="0.4067" style="stop-color:#61615C"/>
						<stop  offset="0.4337" style="stop-color:#494843"/>
						<stop  offset="0.4636" style="stop-color:#36352F"/>
						<stop  offset="0.4979" style="stop-color:#282721"/>
						<stop  offset="0.5405" style="stop-color:#201F19"/>
						<stop  offset="0.6171" style="stop-color:#1E1D17"/>
						<stop  offset="0.739" style="stop-color:#848484"/>
						<stop  offset="0.7766" style="stop-color:#8C8C8B"/>
						<stop  offset="0.8356" style="stop-color:#A3A29F"/>
						<stop  offset="0.9088" style="stop-color:#C8C7C0"/>
						<stop  offset="0.9925" style="stop-color:#FAF9EE"/>
						<stop  offset="1" style="stop-color:#FFFEF2"/>
					</linearGradient>
					<path class="st17" d="M51.6,56.7c-0.1-0.1-0.1-0.1-0.2-0.2c-3.6-4.9-1.6-12.8,4.6-18.3c6.3-5.4,14.6-6.3,18.8-1.9
						c0.1,0.1,0.1,0.1,0.2,0.2c-3.6-3.8-11.5-2.5-17.9,3C50.9,44.9,48.5,52.6,51.6,56.7z"/>
					
						<linearGradient id="SVGID_14_" gradientUnits="userSpaceOnUse" x1="5423.6436" y1="-5116.8496" x2="5423.6436" y2="-5147.8594" gradientTransform="matrix(0.6523 0.758 -0.758 0.6523 -7368.2036 -720.7697)">
						<stop  offset="0" style="stop-color:#000000"/>
						<stop  offset="5.651803e-02" style="stop-color:#030303"/>
						<stop  offset="9.819396e-02" style="stop-color:#0C0C0C"/>
						<stop  offset="0.1351" style="stop-color:#1C1C1C"/>
						<stop  offset="0.1693" style="stop-color:#333333"/>
						<stop  offset="0.2016" style="stop-color:#505050"/>
						<stop  offset="0.2324" style="stop-color:#747474"/>
						<stop  offset="0.2622" style="stop-color:#9F9F9F"/>
						<stop  offset="0.2903" style="stop-color:#CFCFCF"/>
						<stop  offset="0.3146" style="stop-color:#FFFFFF"/>
						<stop  offset="0.3244" style="stop-color:#E5E5E5"/>
						<stop  offset="0.3441" style="stop-color:#B5B5B5"/>
						<stop  offset="0.3656" style="stop-color:#8A8A8A"/>
						<stop  offset="0.3883" style="stop-color:#656565"/>
						<stop  offset="0.4125" style="stop-color:#454545"/>
						<stop  offset="0.4388" style="stop-color:#2C2C2C"/>
						<stop  offset="0.4678" style="stop-color:#181818"/>
						<stop  offset="0.5012" style="stop-color:#0A0A0A"/>
						<stop  offset="0.5426" style="stop-color:#020202"/>
						<stop  offset="0.6171" style="stop-color:#000000"/>
						<stop  offset="0.739" style="stop-color:#2E2E2E"/>
						<stop  offset="0.7647" style="stop-color:#363635"/>
						<stop  offset="0.8051" style="stop-color:#4D4D4A"/>
						<stop  offset="0.8552" style="stop-color:#72716B"/>
						<stop  offset="0.9131" style="stop-color:#A5A498"/>
						<stop  offset="0.9767" style="stop-color:#E5E5D2"/>
						<stop  offset="1" style="stop-color:#FFFEE9"/>
					</linearGradient>
					<path class="st18" d="M51.6,56.7c-0.1-0.1-0.1-0.1-0.2-0.2c-3.3-4.6-1.2-12.4,5.1-17.9c6.3-5.4,14.4-6.4,18.5-2.4
						c0.1,0.1,0.1,0.1,0.2,0.2c-3.6-3.8-11.5-2.5-17.9,3S48.5,52.6,51.6,56.7z"/>
					
						<linearGradient id="SVGID_15_" gradientUnits="userSpaceOnUse" x1="5401.3003" y1="-5116.8491" x2="5401.3003" y2="-5147.8589" gradientTransform="matrix(0.6523 0.758 -0.758 0.6523 -7368.2036 -720.7697)">
						<stop  offset="0" style="stop-color:#1A1914"/>
						<stop  offset="5.832366e-02" style="stop-color:#1D1C17"/>
						<stop  offset="0.1013" style="stop-color:#262520"/>
						<stop  offset="0.1394" style="stop-color:#363530"/>
						<stop  offset="0.1747" style="stop-color:#4C4B47"/>
						<stop  offset="0.208" style="stop-color:#686864"/>
						<stop  offset="0.2398" style="stop-color:#8B8B88"/>
						<stop  offset="0.2705" style="stop-color:#B5B4B3"/>
						<stop  offset="0.2995" style="stop-color:#E4E3E3"/>
						<stop  offset="0.3146" style="stop-color:#FFFFFF"/>
						<stop  offset="0.3162" style="stop-color:#FBFBFB"/>
						<stop  offset="0.3365" style="stop-color:#CDCDCC"/>
						<stop  offset="0.3584" style="stop-color:#A4A3A1"/>
						<stop  offset="0.3817" style="stop-color:#807F7C"/>
						<stop  offset="0.4067" style="stop-color:#61615C"/>
						<stop  offset="0.4337" style="stop-color:#494843"/>
						<stop  offset="0.4636" style="stop-color:#36352F"/>
						<stop  offset="0.4979" style="stop-color:#282721"/>
						<stop  offset="0.5405" style="stop-color:#201F19"/>
						<stop  offset="0.6171" style="stop-color:#1E1D17"/>
						<stop  offset="0.739" style="stop-color:#848484"/>
						<stop  offset="0.7766" style="stop-color:#8C8C8B"/>
						<stop  offset="0.8356" style="stop-color:#A3A29F"/>
						<stop  offset="0.9088" style="stop-color:#C8C7C0"/>
						<stop  offset="0.9925" style="stop-color:#FAF9EE"/>
						<stop  offset="1" style="stop-color:#FFFEF2"/>
					</linearGradient>
					<path class="st19" d="M37.1,39.7c-0.1-0.1-0.1-0.1-0.2-0.2c-3.3-4.6-1.2-12.4,5.1-17.9c6.3-5.4,14.4-6.4,18.5-2.4
						c0.1,0.1,0.1,0.1,0.2,0.2C57,15.7,49,17,42.7,22.5S33.8,35.5,37.1,39.7z"/>
				</g>
				
					<linearGradient id="SVGID_16_" gradientUnits="userSpaceOnUse" x1="-42.1564" y1="-7302.6748" x2="-40.6795" y2="-7302.6748" gradientTransform="matrix(0.9982 5.990000e-02 -5.990000e-02 0.9982 -340.4115 7296.5054)">
					<stop  offset="0" style="stop-color:#BFBDA9"/>
					<stop  offset="7.646465e-03" style="stop-color:#A6A494"/>
					<stop  offset="1.942067e-02" style="stop-color:#878579"/>
					<stop  offset="3.276167e-02" style="stop-color:#6B6B62"/>
					<stop  offset="4.782892e-02" style="stop-color:#555550"/>
					<stop  offset="6.542706e-02" style="stop-color:#444441"/>
					<stop  offset="8.717738e-02" style="stop-color:#393937"/>
					<stop  offset="0.1177" style="stop-color:#323232"/>
					<stop  offset="0.2024" style="stop-color:#303030"/>
					<stop  offset="0.3829" style="stop-color:#11110F"/>
					<stop  offset="0.5172" style="stop-color:#131311"/>
					<stop  offset="0.592" style="stop-color:#1B1B17"/>
					<stop  offset="0.6522" style="stop-color:#292822"/>
					<stop  offset="0.7042" style="stop-color:#3D3B32"/>
					<stop  offset="0.7195" style="stop-color:#444238"/>
					<stop  offset="0.7212" style="stop-color:#434137"/>
					<stop  offset="0.7547" style="stop-color:#2C2B25"/>
					<stop  offset="0.7909" style="stop-color:#1C1C18"/>
					<stop  offset="0.832" style="stop-color:#131310"/>
					<stop  offset="0.8878" style="stop-color:#10100E"/>
					<stop  offset="0.9124" style="stop-color:#141412"/>
					<stop  offset="0.9383" style="stop-color:#21211D"/>
					<stop  offset="0.9649" style="stop-color:#363630"/>
					<stop  offset="0.9917" style="stop-color:#53534A"/>
					<stop  offset="1" style="stop-color:#5E5D53"/>
				</linearGradient>
				<polygon class="st20" points="55.8,1.2 56.6,1.2 55.5,7.8 54.8,7.8 				"/>
				
					<radialGradient id="SVGID_17_" cx="-14318.4189" cy="538.3674" r="2.2527" gradientTransform="matrix(-0.9982 -5.990000e-02 5.990000e-02 -0.9982 -14268.7295 -313.0506)" gradientUnits="userSpaceOnUse">
					<stop  offset="0" style="stop-color:#000000"/>
					<stop  offset="3.270639e-03" style="stop-color:#000000"/>
					<stop  offset="0.1115" style="stop-color:#060703"/>
					<stop  offset="0.4122" style="stop-color:#080904"/>
					<stop  offset="0.5598" style="stop-color:#0C0D08"/>
					<stop  offset="0.7157" style="stop-color:#191914"/>
					<stop  offset="0.8747" style="stop-color:#2E2E29"/>
					<stop  offset="1" style="stop-color:#44433E"/>
				</radialGradient>
				<path class="st21" d="M55.2,6.2L55.2,6.2c0.6,0,1.1,0.5,1.1,1.2v0.1L54,7.4V7.2C54,6.6,54.5,6.1,55.2,6.2z"/>
				
					<radialGradient id="SVGID_18_" cx="-14275.0664" cy="491.3058" r="1.9605" gradientTransform="matrix(-1 1.213395e-03 -1.213395e-03 -1 -14217.5713 510.1878)" gradientUnits="userSpaceOnUse">
					<stop  offset="0" style="stop-color:#000000"/>
					<stop  offset="2.070763e-03" style="stop-color:#000000"/>
					<stop  offset="7.057360e-02" style="stop-color:#060703"/>
					<stop  offset="0.261" style="stop-color:#080904"/>
					<stop  offset="0.4466" style="stop-color:#0C0D08"/>
					<stop  offset="0.6425" style="stop-color:#191914"/>
					<stop  offset="0.8425" style="stop-color:#2E2E29"/>
					<stop  offset="1" style="stop-color:#44433E"/>
				</radialGradient>
				<path class="st22" d="M56.3,2.1L56.3,2.1c0.6,0,1.1-0.5,1.1-1.2V0.6l-2.3,0.2v0.1C55.1,1.6,55.6,2.1,56.3,2.1z"/>
				
					<linearGradient id="SVGID_19_" gradientUnits="userSpaceOnUse" x1="-46.3534" y1="-7268.5601" x2="-46.3534" y2="-7299.3716" gradientTransform="matrix(0.9982 5.990000e-02 -5.990000e-02 0.9982 -340.4115 7296.5054)">
					<stop  offset="0.1122" style="stop-color:#000100"/>
					<stop  offset="0.1664" style="stop-color:#030402"/>
					<stop  offset="0.2063" style="stop-color:#0C0D0A"/>
					<stop  offset="0.2417" style="stop-color:#1C1C16"/>
					<stop  offset="0.2742" style="stop-color:#333128"/>
					<stop  offset="0.2805" style="stop-color:#38362C"/>
					<stop  offset="0.3012" style="stop-color:#2E2C24"/>
					<stop  offset="0.3524" style="stop-color:#1A1914"/>
					<stop  offset="0.4115" style="stop-color:#0C0C09"/>
					<stop  offset="0.485" style="stop-color:#040402"/>
					<stop  offset="0.6171" style="stop-color:#020200"/>
					<stop  offset="1" style="stop-color:#232323"/>
				</linearGradient>
				<path class="st23" d="M50.5,7.5L50.5,7.5c1,0.1,1.7,0.9,1.6,1.8l-1.6,27.3c-0.1,1-0.9,1.7-1.8,1.6l0,0c-1-0.1-1.7-0.9-1.6-1.8
					l1.6-27.2C48.7,8.2,49.5,7.5,50.5,7.5z"/>
				
					<linearGradient id="SVGID_20_" gradientUnits="userSpaceOnUse" x1="-46.5786" y1="-7268.5815" x2="-46.5786" y2="-7299.3862" gradientTransform="matrix(0.9982 5.990000e-02 -5.990000e-02 0.9982 -340.4115 7296.5054)">
					<stop  offset="0.1122" style="stop-color:#10100E"/>
					<stop  offset="0.168" style="stop-color:#131310"/>
					<stop  offset="0.2091" style="stop-color:#1C1C18"/>
					<stop  offset="0.2453" style="stop-color:#2C2B25"/>
					<stop  offset="0.2788" style="stop-color:#434137"/>
					<stop  offset="0.2805" style="stop-color:#444238"/>
					<stop  offset="0.2958" style="stop-color:#3D3B32"/>
					<stop  offset="0.3478" style="stop-color:#292822"/>
					<stop  offset="0.408" style="stop-color:#1B1B17"/>
					<stop  offset="0.4828" style="stop-color:#131311"/>
					<stop  offset="0.6171" style="stop-color:#11110F"/>
					<stop  offset="1" style="stop-color:#303030"/>
				</linearGradient>
				<path class="st24" d="M50.2,7.5L50.2,7.5c1,0.1,1.7,0.9,1.6,1.8l-1.5,27.3c-0.1,1-0.9,1.7-1.8,1.6l0,0c-1-0.1-1.7-0.9-1.6-1.8
					l1.6-27.2C48.4,8.1,49.3,7.5,50.2,7.5z"/>
				
					<linearGradient id="SVGID_21_" gradientUnits="userSpaceOnUse" x1="-5417.2788" y1="1082.5483" x2="-5417.2788" y2="1069.3151" gradientTransform="matrix(5.990000e-02 -0.9982 0.9982 5.990000e-02 -694.3895 -5464.4951)">
					<stop  offset="0" style="stop-color:#737165"/>
					<stop  offset="2.972122e-02" style="stop-color:#6A685C"/>
					<stop  offset="0.116" style="stop-color:#555348"/>
					<stop  offset="0.2005" style="stop-color:#48463C"/>
					<stop  offset="0.2805" style="stop-color:#444238"/>
					<stop  offset="0.2891" style="stop-color:#3D3B32"/>
					<stop  offset="0.3186" style="stop-color:#292822"/>
					<stop  offset="0.3525" style="stop-color:#1B1B17"/>
					<stop  offset="0.3948" style="stop-color:#131311"/>
					<stop  offset="0.4707" style="stop-color:#11110F"/>
					<stop  offset="0.5634" style="stop-color:#303030"/>
					<stop  offset="0.6251" style="stop-color:#303030"/>
					<stop  offset="1" style="stop-color:#303030"/>
				</linearGradient>
				<polygon class="st25" points="48.5,7.4 48.5,6.8 61.8,7.7 61.7,8.1 				"/>
				
					<linearGradient id="SVGID_22_" gradientUnits="userSpaceOnUse" x1="-5417.4424" y1="1082.5483" x2="-5417.4424" y2="1072.8673" gradientTransform="matrix(5.990000e-02 -0.9982 0.9982 5.990000e-02 -694.3895 -5464.4951)">
					<stop  offset="0.1122" style="stop-color:#202020"/>
					<stop  offset="0.1873" style="stop-color:#232321"/>
					<stop  offset="0.2426" style="stop-color:#2C2B26"/>
					<stop  offset="0.2805" style="stop-color:#38362C"/>
					<stop  offset="0.3012" style="stop-color:#2E2C24"/>
					<stop  offset="0.3524" style="stop-color:#1A1914"/>
					<stop  offset="0.4115" style="stop-color:#0C0C09"/>
					<stop  offset="0.485" style="stop-color:#040402"/>
					<stop  offset="0.6171" style="stop-color:#020200"/>
					<stop  offset="1" style="stop-color:#232323"/>
				</linearGradient>
				<polygon class="st26" points="52.1,7.6 52.1,7.4 61.7,8 61.7,8.1 				"/>
				
					<radialGradient id="SVGID_23_" cx="-47.0736" cy="-7270.7417" r="2.3889" gradientTransform="matrix(0.9982 5.990000e-02 -5.990000e-02 0.9982 -340.4115 7296.5054)" gradientUnits="userSpaceOnUse">
					<stop  offset="0" style="stop-color:#625F54"/>
					<stop  offset="0.1123" style="stop-color:#545146"/>
					<stop  offset="0.3279" style="stop-color:#3F3D31"/>
					<stop  offset="0.539" style="stop-color:#323024"/>
					<stop  offset="0.739" style="stop-color:#2E2C20"/>
					<stop  offset="0.8967" style="stop-color:#2C2A1F"/>
					<stop  offset="0.9534" style="stop-color:#25241B"/>
					<stop  offset="0.9938" style="stop-color:#1A1914"/>
					<stop  offset="1" style="stop-color:#171712"/>
				</radialGradient>
				<path class="st27" d="M47.3,36.2c0-0.8,0.6-1.3,1.4-1.2c0.8,0,1.3,0.6,1.2,1.4c0,0.8-0.6,1.3-1.4,1.2
					C47.7,37.5,47.2,36.8,47.3,36.2z"/>
			</g>
		</g>
	</g>
</g>
</svg>
