<?xml version="1.0" encoding="UTF-8" standalone="no"?>
<!-- Generator: Adobe Illustrator 19.0.0, SVG Export Plug-In . SVG Version: 6.00 Build 0)  -->

<svg
   version="1.1"
   id="Layer_1"
   x="0px"
   y="0px"
   viewBox="0 0 512.00001 512.00001"
   xml:space="preserve"
   sodipodi:docname="syn_vmc.svg"
   inkscape:version="1.1 (c68e22c387, 2021-05-23)"
   width="512"
   height="512"
   xmlns:inkscape="http://www.inkscape.org/namespaces/inkscape"
   xmlns:sodipodi="http://sodipodi.sourceforge.net/DTD/sodipodi-0.dtd"
   xmlns="http://www.w3.org/2000/svg"
   xmlns:svg="http://www.w3.org/2000/svg"><defs
   id="defs81"><linearGradient
     id="SVGID_1_"
     gradientUnits="userSpaceOnUse"
     x1="174.39598"
     y1="32.899994"
     x2="-166.89905"
     y2="133.02028"
     gradientTransform="matrix(1,0,0,-1,0,128)"><stop
       offset="0"
       style="stop-color:#736357;stop-opacity:0"
       id="stop6" /><stop
       offset="1"
       style="stop-color:#000000"
       id="stop8" /></linearGradient></defs><sodipodi:namedview
   id="namedview79"
   pagecolor="#ffffff"
   bordercolor="#666666"
   borderopacity="1.0"
   inkscape:pageshadow="2"
   inkscape:pageopacity="0.0"
   inkscape:pagecheckerboard="0"
   showgrid="false"
   inkscape:zoom="1.062802"
   inkscape:cx="167.01135"
   inkscape:cy="277.56816"
   inkscape:window-width="1920"
   inkscape:window-height="979"
   inkscape:window-x="0"
   inkscape:window-y="0"
   inkscape:window-maximized="1"
   inkscape:current-layer="Layer_1"
   fit-margin-top="0"
   fit-margin-left="0"
   fit-margin-right="0"
   fit-margin-bottom="0" />
<circle
   style="opacity:1;fill:#84e9d9;stroke-width:1.99999;-inkscape-stroke:none;stop-color:#000000"
   id="path909"
   cx="-930.31647"
   cy="-394.04242"
   r="512"
   transform="matrix(0.5,0,0,0.5,721.15823,453.02121)" /><path
   class="st1"
   d="M 81.371709,131.73121 C 114.28551,113.99812 146.10654,76.034086 120.88416,24.756566 L 87.401789,12.058074 51.3,43.7 -16.569065,106.83429 Z"
   id="path11"
   style="fill:url(#SVGID_1_);stroke-width:0.345187"
   transform="matrix(2.701192,0,0,3.1069644,160.63582,71.235185)"
   sodipodi:nodetypes="cccccc" /><path
   style="fill:#363f3e;stroke-width:1.65804"
   d="m 496,467.2 c 0,16 -12.8,28.8 -28.8,28.8 H 28.8 C 12.8,496 0,483.2 0,467.2 V 28.8 C 0,12.8 12.8,0 28.8,0 H 468 c 16,0 28.8,12.8 28.8,28.8 v 438.4 z"
   id="path2"
   transform="matrix(0.60312057,0,0,0.60312057,106.18485,106.18485)" />
<path
   style="fill:#151918;stroke-width:1.65804"
   d="M 0,28.8 C 0,12.8 12.8,0 28.8,0 H 468 c 16,0 28.8,12.8 28.8,28.8 V 468 c 0,16 -12.8,28.8 -28.8,28.8"
   id="path4"
   transform="matrix(0.60312057,0,0,0.60312057,106.18485,106.18485)" />
<g
   id="g22"
   transform="matrix(0.60312057,0,0,0.60312057,106.18485,106.18485)"
   style="stroke-width:1.65804">
	<path
   style="fill:#b6b7b7;stroke-width:2.36864"
   d="m 44,51.2 c -5.6,8 -5.6,19.2 1.6,26.4 7.2,7.2 18.4,8 26.4,1.6 z"
   id="path6" />
	<path
   style="fill:#b6b7b7;stroke-width:2.36864"
   d="m 48,47.2 28,28 C 81.6,67.2 81.6,56 74.4,48.8 67.2,41.6 56,40.8 48,47.2 Z"
   id="path8" />
	<path
   style="fill:#b6b7b7;stroke-width:2.36864"
   d="m 452,51.2 c 5.6,8 5.6,19.2 -1.6,26.4 -7.2,7.2 -18.4,8 -26.4,1.6 z"
   id="path10" />
	<path
   style="fill:#b6b7b7;stroke-width:2.36864"
   d="m 448,47.2 -28,28 c -5.6,-8 -5.6,-19.2 1.6,-26.4 7.2,-7.2 18.4,-8 26.4,-1.6 z"
   id="path12" />
	<path
   style="fill:#b6b7b7;stroke-width:2.36864"
   d="m 452,444.8 c 5.6,-8 5.6,-19.2 -1.6,-26.4 -7.2,-7.2 -18.4,-8 -26.4,-1.6 z"
   id="path14" />
	<path
   style="fill:#b6b7b7;stroke-width:2.36864"
   d="m 448,448.8 -28,-28 c -5.6,8 -5.6,19.2 1.6,26.4 7.2,7.2 18.4,8 26.4,1.6 z"
   id="path16" />
	<path
   style="fill:#b6b7b7;stroke-width:2.36864"
   d="m 44,444.8 c -5.6,-8 -5.6,-19.2 1.6,-26.4 7.2,-7.2 18.4,-8 26.4,-1.6 z"
   id="path18" />
	<path
   style="fill:#b6b7b7;stroke-width:2.36864"
   d="m 48,448.8 28,-28 c 5.6,8 5.6,19.2 -1.6,26.4 -7.2,7.2 -18.4,8 -26.4,1.6 z"
   id="path20" />
</g>
<circle
   style="opacity:0.965502;fill:#dddddd;stroke-width:1.65804"
   cx="248"
   cy="248"
   r="182.39999"
   id="circle24"
   transform="matrix(0.60312057,0,0,0.60312057,106.18485,106.18485)" />
<path
   style="opacity:0.2;fill:#dddddd;fill-opacity:1;stroke-width:1.65804"
   d="m 119.2,119.2 c 71.2,-71.2 186.4,-71.2 257.6,0 71.2,71.2 71.2,186.4 0,257.6"
   id="path26"
   transform="matrix(0.60312057,0,0,0.60312057,106.18485,106.18485)" />
<path
   style="fill:#ffcc00;fill-opacity:1;stroke-width:1.65804"
   d="m 320.8,132 c 0,42.4 -58.4,107.2 -81.6,107.2 -24,0 -51.2,-65.6 -51.2,-107.2 0,-42.4 19.2,-53.6 43.2,-53.6 23.2,0 89.6,11.2 89.6,53.6 z"
   id="path28"
   transform="matrix(0.60312057,0,0,0.60312057,106.18485,106.18485)" />
<path
   style="opacity:0.2;fill:#000000;fill-opacity:1;stroke-width:1.65804"
   d="M 314.4,111.2 C 304,112 292,118.4 277.6,132 c -27.2,27.2 -52,83.2 -44,106.4 1.6,0.8 3.2,0.8 4.8,0.8 24,0 81.6,-65.6 81.6,-107.2 0.8,-8 -1.6,-14.4 -5.6,-20.8 z"
   id="path30"
   transform="matrix(0.60312057,0,0,0.60312057,106.18485,106.18485)" />
<path
   style="fill:#ffcc00;fill-opacity:1;stroke-width:1.65804"
   d="m 175.2,364 c 0,-42.4 58.4,-107.2 81.6,-107.2 23.2,0 51.2,65.6 51.2,107.2 0,42.4 -19.2,53.6 -43.2,53.6 -23.2,0 -89.6,-11.2 -89.6,-53.6 z"
   id="path32"
   transform="matrix(0.60312057,0,0,0.60312057,106.18485,106.18485)" />
<path
   style="opacity:0.2;fill:#000000;fill-opacity:1;stroke-width:1.65804"
   d="m 181.6,384 c 10.4,-0.8 22.4,-7.2 36.8,-20.8 27.2,-27.2 52,-83.2 44,-106.4 -1.6,-0.8 -3.2,-0.8 -4.8,-0.8 -24,0 -81.6,65.6 -81.6,107.2 -0.8,8.8 1.6,15.2 5.6,20.8 z"
   id="path34"
   transform="matrix(0.60312057,0,0,0.60312057,106.18485,106.18485)" />
<path
   style="fill:#ffcc00;fill-opacity:1;stroke-width:1.65804"
   d="m 364,320.8 c -42.4,0 -107.2,-58.4 -107.2,-81.6 0,-24 65.6,-51.2 107.2,-51.2 42.4,0 53.6,19.2 53.6,43.2 0,23.2 -11.2,89.6 -53.6,89.6 z"
   id="path36"
   transform="matrix(0.60312057,0,0,0.60312057,106.18485,105.70236)" />
<path
   style="opacity:0.199553;fill:#000000;fill-opacity:1;stroke-width:1.65804"
   d="M 384.8,314.4 C 384,304 377.6,292 364,277.6 c -27.2,-27.2 -83.2,-52 -106.4,-44 -0.8,1.6 -0.8,3.2 -0.8,4.8 0,24 65.6,81.6 107.2,81.6 8,0.8 14.4,-1.6 20.8,-5.6 z"
   id="path38"
   transform="matrix(0.60312057,0,0,0.60312057,106.18485,106.18485)" />
<path
   style="fill:#ffcc00;fill-opacity:1;stroke-width:1.65804"
   d="m 132,175.2 c 42.4,0 107.2,58.4 107.2,81.6 0,24 -65.6,51.2 -107.2,51.2 -42.4,0 -53.6,-19.2 -53.6,-43.2 0,-24 11.2,-89.6 53.6,-89.6 z"
   id="path40"
   transform="matrix(0.60312057,0,0,0.60312057,106.18485,106.18485)" />
<path
   style="opacity:0.198921;fill:#000000;fill-opacity:1;stroke-width:1.65804"
   d="m 111.2,181.6 c 0.8,10.4 7.2,22.4 20.8,36.8 27.2,27.2 83.2,52 106.4,44 0.8,-1.6 0.8,-3.2 0.8,-4.8 0,-24 -65.6,-81.6 -107.2,-81.6 -8,-0.8 -14.4,1.6 -20.8,5.6 z"
   id="path42"
   transform="matrix(0.60312057,0,0,0.60312057,106.18485,106.18485)" />
<circle
   style="fill:#ffcc00;fill-opacity:1;stroke-width:1.65804"
   cx="248"
   cy="248"
   r="32.799999"
   id="circle44"
   transform="matrix(0.60312057,0,0,0.60312057,106.18485,106.18485)" />
<path
   style="opacity:0.2;fill:#000000;fill-opacity:1;stroke-width:1.65804"
   d="m 224.8,224.8 c 12.8,-12.8 33.6,-12.8 47.2,0 12.8,12.8 12.8,33.6 0,47.2"
   id="path46"
   transform="matrix(0.60312057,0,0,0.60312057,106.18485,106.18485)" />
<g
   id="g48"
   transform="translate(7.6000036,7.6000097)">
</g>
<g
   id="g50"
   transform="translate(7.6000036,7.6000097)">
</g>
<g
   id="g52"
   transform="translate(7.6000036,7.6000097)">
</g>
<g
   id="g54"
   transform="translate(7.6000036,7.6000097)">
</g>
<g
   id="g56"
   transform="translate(7.6000036,7.6000097)">
</g>
<g
   id="g58"
   transform="translate(7.6000036,7.6000097)">
</g>
<g
   id="g60"
   transform="translate(7.6000036,7.6000097)">
</g>
<g
   id="g62"
   transform="translate(7.6000036,7.6000097)">
</g>
<g
   id="g64"
   transform="translate(7.6000036,7.6000097)">
</g>
<g
   id="g66"
   transform="translate(7.6000036,7.6000097)">
</g>
<g
   id="g68"
   transform="translate(7.6000036,7.6000097)">
</g>
<g
   id="g70"
   transform="translate(7.6000036,7.6000097)">
</g>
<g
   id="g72"
   transform="translate(7.6000036,7.6000097)">
</g>
<g
   id="g74"
   transform="translate(7.6000036,7.6000097)">
</g>
<g
   id="g76"
   transform="translate(7.6000036,7.6000097)">
</g>
</svg>
