<?xml version="1.0" encoding="UTF-8" standalone="no"?>
<svg
   xmlns:dc="http://purl.org/dc/elements/1.1/"
   xmlns:cc="http://creativecommons.org/ns#"
   xmlns:rdf="http://www.w3.org/1999/02/22-rdf-syntax-ns#"
   xmlns:svg="http://www.w3.org/2000/svg"
   xmlns="http://www.w3.org/2000/svg"
   xmlns:sodipodi="http://sodipodi.sourceforge.net/DTD/sodipodi-0.dtd"
   xmlns:inkscape="http://www.inkscape.org/namespaces/inkscape"
   version="1.1"
   id="Calque_3"
   x="0px"
   y="0px"
   viewBox="0 0 128.01509 128"
   xml:space="preserve"
   sodipodi:docname="syn_parametres.svg"
   width="128.01509"
   height="128"
   inkscape:export-filename="/home/sebastien/SRC/trunk/Watchdogd/IHM/img/syn_parametres.png"
   inkscape:export-xdpi="96"
   inkscape:export-ydpi="96"
   inkscape:version="1.0.2 (e86c870879, 2021-01-15)"><metadata
   id="metadata1217"><rdf:RDF><cc:Work
       rdf:about=""><dc:format>image/svg+xml</dc:format><dc:type
         rdf:resource="http://purl.org/dc/dcmitype/StillImage" /><dc:title></dc:title></cc:Work></rdf:RDF></metadata><defs
   id="defs1215" /><sodipodi:namedview
   pagecolor="#ffffff"
   bordercolor="#666666"
   borderopacity="1"
   objecttolerance="10"
   gridtolerance="10"
   guidetolerance="10"
   inkscape:pageopacity="0"
   inkscape:pageshadow="2"
   inkscape:window-width="1920"
   inkscape:window-height="979"
   id="namedview1213"
   showgrid="false"
   inkscape:zoom="4.3862718"
   inkscape:cx="64.664679"
   inkscape:cy="66.219441"
   inkscape:window-x="0"
   inkscape:window-y="0"
   inkscape:window-maximized="1"
   inkscape:current-layer="Calque_3" />
<style
   type="text/css"
   id="style1128">
	.st0{fill:#13375B;}
	.st1{fill:url(#SVGID_1_);}
	.st2{fill:url(#SVGID_2_);}
	.st3{fill:url(#SVGID_3_);}
	.st4{fill:url(#SVGID_4_);}
</style>
<g
   id="g1210"
   transform="translate(1.6,0.6)">
	<path
   class="st0"
   d="m 126.4,63.4 c 0,35.3 -28.7,64 -64,64 -35.3,0 -64,-28.7 -64,-64 0,-35.3 28.7,-64 64,-64 35.4,0 64,28.6 64,64 z"
   id="path1130" />
	<g
   id="g1139">
		<linearGradient
   id="SVGID_1_"
   gradientUnits="userSpaceOnUse"
   x1="130.903"
   y1="85.878998"
   x2="62.852402"
   y2="66.435898">
			<stop
   offset="0"
   style="stop-color:#1C1B19;stop-opacity:0"
   id="stop1132" />
			<stop
   offset="1"
   style="stop-color:#13375B"
   id="stop1134" />
		</linearGradient>
		<path
   class="st1"
   d="M 29.9,86.3 25,70.4 l 6.8,-12.1 13,-7.7 9.8,2.8 23.5,6.6 -2.7,-22.8 19.8,-10.6 9.6,12.6 20.3,11.1 c 0.8,4.1 1.2,8.4 1.3,12.7 0.5,19.9 -11.4,47.6 -39.3,59.3 l -57.2,-36"
   id="path1137"
   style="fill:url(#SVGID_1_)" />
	</g>
	<path
   d="m 109.7,43.8 v -2.6 l -3.5,-0.7 c -0.1,-1 -0.4,-1.9 -0.7,-2.8 l 2.7,-2.4 -1.3,-2.2 -3.5,1.1 c -0.6,-0.7 -1.3,-1.4 -2,-2 l 1.2,-3.5 -2.2,-1.3 -2.5,2.8 C 97.1,29.9 96.2,29.7 95.3,29.6 L 94.5,25.8 H 91.9 L 91,29.6 c -0.8,0.2 -1.6,0.4 -2.4,0.7 l -2.8,-3.1 -2.2,1.3 1.3,4 c -0.6,0.5 -1.1,1.1 -1.6,1.7 l -4.1,-1.3 -1.3,2.2 3.2,2.9 c -0.2,0.7 -0.4,1.4 -0.6,2.1 L 76.3,41 v 2.6 l 4.3,0.9 c 0.1,0.7 0.3,1.4 0.5,2.1 l -3.3,3 1.3,2.2 4.1,-1.3 c 0.5,0.6 1,1.1 1.5,1.6 l -1.3,4.1 2.2,1.3 2.8,-3.1 c 0.7,0.3 1.5,0.5 2.3,0.7 l 0.9,4.1 h 2.6 L 95,55.3 c 0.9,-0.1 1.7,-0.3 2.5,-0.6 l 2.6,2.9 2.2,-1.3 -1.2,-3.6 c 0.7,-0.6 1.4,-1.2 2,-1.9 l 3.6,1.2 1.3,-2.2 -2.7,-2.4 c 0.4,-0.9 0.6,-1.8 0.8,-2.7 z"
   id="path1141" />
	<path
   d="m 86.7,76.6 v -5.3 l -6,-1.2 c -0.3,-2.4 -0.9,-4.7 -1.8,-6.9 l 4.6,-4.1 -2.7,-4.6 -5.8,1.9 c -1.5,-1.9 -3.1,-3.6 -5,-5 l 1.9,-5.9 -4.6,-2.7 -4.3,4.5 c -2.1,-0.9 -4.4,-1.5 -6.8,-1.8 l -1.3,-6.2 h -5.3 l -1.3,6.2 c -2.3,0.3 -4.6,1 -6.7,1.8 l -4.3,-4.8 -4.6,2.7 2,6.1 c -1.8,1.4 -3.4,3 -4.8,4.8 l -6.2,-2 -2.7,4.8 4.8,4.3 C 25,65.3 24.4,67.5 24,69.8 l -6.4,1.4 v 5.3 l 6.4,1.3 c 0.3,2.3 0.9,4.5 1.7,6.5 l -4.9,4.4 2.7,4.6 6.2,-2 c 1.4,1.8 3,3.4 4.8,4.8 l -2,6.2 4.6,2.7 4.3,-4.8 c 2.1,0.9 4.3,1.5 6.6,1.8 l 1.4,6.3 h 5.3 l 1.3,-6.2 c 2.4,-0.3 4.6,-0.9 6.8,-1.7 l 4.2,4.7 4.6,-2.7 -1.9,-5.9 c 1.9,-1.4 3.6,-3.1 5,-5 l 5.9,1.9 2.7,-4.6 -4.6,-4.1 c 0.9,-2.2 1.5,-4.5 1.9,-6.9 z M 76.3,73.8 c 0,13.2 -10.6,23.9 -23.8,24 -13.2,0 -23.9,-10.6 -24,-23.8 0,-13.2 10.6,-23.9 23.8,-24 13.1,-0.1 23.9,10.6 24,23.8 z"
   id="path1143" />
	<g
   id="g1164">
		<linearGradient
   id="SVGID_2_"
   gradientUnits="userSpaceOnUse"
   x1="73.082603"
   y1="40.467201"
   x2="106.214"
   y2="40.467201">
			<stop
   offset="0"
   style="stop-color:#FFFFFF"
   id="stop1145" />
			<stop
   offset="0.2336"
   style="stop-color:#E7E7E7"
   id="stop1147" />
			<stop
   offset="0.522"
   style="stop-color:#C4C4C4"
   id="stop1149" />
			<stop
   offset="0.5238"
   style="stop-color:#D7D7D7"
   id="stop1151" />
			<stop
   offset="0.5262"
   style="stop-color:#E9E9E9"
   id="stop1153" />
			<stop
   offset="0.5279"
   style="stop-color:#EFEFEF"
   id="stop1155" />
			<stop
   offset="0.734"
   style="stop-color:#F8F8F8"
   id="stop1157" />
			<stop
   offset="1"
   style="stop-color:#FFFFFF"
   id="stop1159" />
		</linearGradient>
		<path
   class="st2"
   d="m 107.1,41.9 v -2.6 l -3.5,-0.7 c -0.1,-1 -0.4,-1.9 -0.7,-2.8 l 2.7,-2.4 -1.3,-2.2 -3.5,1.1 c -0.6,-0.7 -1.3,-1.4 -2,-2 l 1.2,-3.5 -2.2,-1.3 -2.5,2.8 C 94.5,28 93.6,27.8 92.7,27.7 l -0.8,-3.8 h -2.6 l -0.8,3.9 c -0.8,0.2 -1.6,0.4 -2.4,0.7 l -2.8,-3.1 -2.2,1.3 1.3,4 c -0.6,0.5 -1.1,1.1 -1.6,1.7 l -4.1,-1.3 -1.3,2.2 3.2,2.9 c -0.2,0.7 -0.4,1.4 -0.6,2.1 l -4.3,0.9 v 2.6 l 4.3,0.9 c 0.1,0.7 0.3,1.4 0.5,2.1 l -3.3,3 1.3,2.2 4.1,-1.3 c 0.5,0.6 1,1.1 1.5,1.6 l -1.3,4.1 2.2,1.3 2.8,-3.1 c 0.7,0.3 1.5,0.5 2.3,0.7 l 0.9,4.1 h 2.6 l 0.8,-3.9 c 0.9,-0.1 1.7,-0.3 2.5,-0.6 l 2.6,2.9 2.2,-1.3 -1.2,-3.6 c 0.7,-0.6 1.4,-1.2 2,-1.9 l 3.6,1.2 1.3,-2.2 -2.7,-2.4 c 0.4,-0.9 0.6,-1.8 0.8,-2.7 z M 82.9,40.4 c 0,-4.3 3.5,-7.8 7.8,-7.8 4.3,0 7.8,3.5 7.8,7.8 0,4.3 -3.5,7.8 -7.8,7.8 -4.3,0 -7.8,-3.5 -7.8,-7.8 z"
   id="path1162"
   style="fill:url(#SVGID_2_)" />
	</g>
	<g
   id="g1208">
		<g
   id="g1206">
			<linearGradient
   id="SVGID_3_"
   gradientUnits="userSpaceOnUse"
   x1="18.9916"
   y1="71.948799"
   x2="76.871201"
   y2="71.948799">
				<stop
   offset="0"
   style="stop-color:#FFFFFF"
   id="stop1166" />
				<stop
   offset="0.2336"
   style="stop-color:#E7E7E7"
   id="stop1168" />
				<stop
   offset="0.522"
   style="stop-color:#C4C4C4"
   id="stop1170" />
				<stop
   offset="0.5238"
   style="stop-color:#D7D7D7"
   id="stop1172" />
				<stop
   offset="0.5262"
   style="stop-color:#E9E9E9"
   id="stop1174" />
				<stop
   offset="0.5279"
   style="stop-color:#EFEFEF"
   id="stop1176" />
				<stop
   offset="0.734"
   style="stop-color:#F8F8F8"
   id="stop1178" />
				<stop
   offset="1"
   style="stop-color:#FFFFFF"
   id="stop1180" />
			</linearGradient>
			<path
   class="st3"
   d="m 84,74.7 v -5.3 l -6,-1.2 c -0.3,-2.4 -0.9,-4.7 -1.8,-6.9 l 4.6,-4.1 -2.7,-4.6 -5.8,1.9 c -1.5,-1.9 -3.1,-3.6 -5,-5 l 1.9,-5.9 -4.6,-2.7 -4.1,4.6 C 58.4,44.6 56.1,44 53.7,43.7 l -1.3,-6.2 h -5.3 l -1.3,6.2 c -2.3,0.3 -4.6,1 -6.7,1.8 l -4.3,-4.8 -4.8,2.7 2,6.1 c -1.8,1.4 -3.4,3 -4.8,4.8 l -6.2,-2 -2.7,4.6 4.8,4.3 c -0.8,2.1 -1.4,4.3 -1.8,6.6 L 15,69.2 v 5.3 l 6.4,1.3 c 0.3,2.3 0.9,4.5 1.7,6.5 l -4.9,4.4 2.7,4.6 6.2,-2 c 1.4,1.8 3,3.4 4.8,4.8 l -2,6.2 4.6,2.7 4.3,-4.8 c 2.1,0.9 4.3,1.5 6.6,1.8 l 1.4,6.3 h 5.3 l 1.3,-6.2 c 2.4,-0.3 4.6,-0.9 6.8,-1.7 l 4.2,4.7 4.6,-2.7 -1.9,-5.9 c 1.9,-1.4 3.6,-3.1 5,-5 l 5.9,1.9 2.7,-4.6 -4.6,-4.1 C 77,80.5 77.6,78.2 78,75.8 Z M 73.6,71.8 C 73.6,85 63,95.7 49.8,95.8 36.6,95.8 25.9,85.2 25.8,72 c 0,-13.2 10.6,-23.9 23.8,-24 13.2,0 24,10.7 24,23.8 z"
   id="path1183"
   style="fill:url(#SVGID_3_)" />
			<g
   id="g1204">
				<linearGradient
   id="SVGID_4_"
   gradientUnits="userSpaceOnUse"
   x1="18.9916"
   y1="71.917603"
   x2="76.871101"
   y2="71.917603">
					<stop
   offset="0"
   style="stop-color:#FFFFFF"
   id="stop1185" />
					<stop
   offset="0.2336"
   style="stop-color:#E7E7E7"
   id="stop1187" />
					<stop
   offset="0.522"
   style="stop-color:#C4C4C4"
   id="stop1189" />
					<stop
   offset="0.5238"
   style="stop-color:#D7D7D7"
   id="stop1191" />
					<stop
   offset="0.5262"
   style="stop-color:#E9E9E9"
   id="stop1193" />
					<stop
   offset="0.5279"
   style="stop-color:#EFEFEF"
   id="stop1195" />
					<stop
   offset="0.734"
   style="stop-color:#F8F8F8"
   id="stop1197" />
					<stop
   offset="1"
   style="stop-color:#FFFFFF"
   id="stop1199" />
				</linearGradient>
				<path
   class="st4"
   d="m 49.7,54 c 9.9,0 17.9,8 18,17.9 0,9.9 -8,18 -17.9,18 h -0.1 c -9.9,0 -17.9,-8 -18,-17.9 0,-4.8 1.8,-9.3 5.2,-12.7 3.4,-3.4 7.9,-5.3 12.8,-5.3 v 0 m 0,-2 c 0,0 0,0 0,0 -11.1,0 -20,9 -19.9,20 0,11 9,19.8 19.9,19.8 0,0 0,0 0.1,0 11,0 19.9,-9 19.8,-20 C 69.6,60.9 60.7,52 49.7,52 Z"
   id="path1202"
   style="fill:url(#SVGID_4_)" />
			</g>
		</g>
	</g>
</g>
</svg>
