<?xml version="1.0" encoding="UTF-8" standalone="no"?>
<!-- Generator: Adobe Illustrator 22.1.0, SVG Export Plug-In . SVG Version: 6.00 Build 0)  -->

<svg
   version="1.1"
   id="Calque_1"
   x="0px"
   y="0px"
   viewBox="0 0 128 128"
   style="enable-background:new 0 0 128 128;"
   xml:space="preserve"
   sodipodi:docname="syn_electricite.svg"
   inkscape:version="1.1 (c68e22c387, 2021-05-23)"
   xmlns:inkscape="http://www.inkscape.org/namespaces/inkscape"
   xmlns:sodipodi="http://sodipodi.sourceforge.net/DTD/sodipodi-0.dtd"
   xmlns:xlink="http://www.w3.org/1999/xlink"
   xmlns="http://www.w3.org/2000/svg"
   xmlns:svg="http://www.w3.org/2000/svg"><defs
   id="defs214" /><sodipodi:namedview
   id="namedview212"
   pagecolor="#ffffff"
   bordercolor="#666666"
   borderopacity="1.0"
   inkscape:pageshadow="2"
   inkscape:pageopacity="0.0"
   inkscape:pagecheckerboard="0"
   showgrid="false"
   inkscape:zoom="4.1986485"
   inkscape:cx="63.94915"
   inkscape:cy="64.068236"
   inkscape:window-width="1366"
   inkscape:window-height="713"
   inkscape:window-x="0"
   inkscape:window-y="31"
   inkscape:window-maximized="1"
   inkscape:current-layer="g200" />
<style
   type="text/css"
   id="style2">
	.st0{fill:none;}
	.st1{fill:#ED746F;}
	.st2{fill:url(#SVGID_1_);}
	.st3{clip-path:url(#SVGID_3_);}
	.st4{fill:url(#SVGID_4_);}
	.st5{fill:url(#SVGID_5_);}
	.st6{clip-path:url(#SVGID_17_);}
	.st7{fill:url(#SVGID_18_);}
	.st8{fill:url(#SVGID_19_);}
	.st9{clip-path:url(#SVGID_21_);}
	.st10{fill:url(#SVGID_22_);}
	.st11{fill:url(#SVGID_23_);}
	.st12{clip-path:url(#SVGID_25_);}
	.st13{fill:url(#SVGID_26_);}
	.st14{fill:url(#SVGID_27_);}
	.st15{fill:#FBB03B;}
	.st16{fill:url(#SVGID_28_);}
	.st17{fill:#F7D419;}
	.st18{opacity:0.3;fill:#FFFFFF;enable-background:new    ;}
	.st19{fill:#45363D;}
	.st20{fill:#A3A8AD;}
	.st21{fill:#C6CDD3;}
	.st22{fill:#F7931E;}
	.st23{fill:#FFFFFF;}
</style>
<pattern
   y="128"
   width="32.2"
   height="34.5"
   patternUnits="userSpaceOnUse"
   id="SVGID_10_"
   viewBox="0 -34.5 32.2 34.5"
   style="overflow:visible;">
	<g
   id="g12">
		<rect
   y="-34.5"
   class="st0"
   width="32.2"
   height="34.5"
   id="rect4" />
		<g
   id="g10">
			<rect
   y="-34.5"
   class="st0"
   width="32.2"
   height="34.5"
   id="rect6" />
			<rect
   y="-34.5"
   class="st1"
   width="32.2"
   height="34.5"
   id="rect8" />
		</g>
	</g>
</pattern>
<pattern
   y="128"
   width="32.2"
   height="34.5"
   patternUnits="userSpaceOnUse"
   id="SVGID_11_"
   viewBox="0 -34.5 32.2 34.5"
   style="overflow:visible;">
	<g
   id="g23">
		<rect
   y="-34.5"
   class="st0"
   width="32.2"
   height="34.5"
   id="rect15" />
		<g
   id="g21">
			<rect
   y="-34.5"
   class="st0"
   width="32.2"
   height="34.5"
   id="rect17" />
			<rect
   y="-34.5"
   class="st1"
   width="32.2"
   height="34.5"
   id="rect19" />
		</g>
	</g>
</pattern>
<pattern
   y="128"
   width="32.2"
   height="34.5"
   patternUnits="userSpaceOnUse"
   id="SVGID_12_"
   viewBox="0 -34.5 32.2 34.5"
   style="overflow:visible;">
	<g
   id="g34">
		<rect
   y="-34.5"
   class="st0"
   width="32.2"
   height="34.5"
   id="rect26" />
		<g
   id="g32">
			<rect
   y="-34.5"
   class="st0"
   width="32.2"
   height="34.5"
   id="rect28" />
			<rect
   y="-34.5"
   class="st1"
   width="32.2"
   height="34.5"
   id="rect30" />
		</g>
	</g>
</pattern>
<pattern
   y="128"
   width="32.2"
   height="34.5"
   patternUnits="userSpaceOnUse"
   id="SVGID_13_"
   viewBox="0 -34.5 32.2 34.5"
   style="overflow:visible;">
	<g
   id="g45">
		<rect
   y="-34.5"
   class="st0"
   width="32.2"
   height="34.5"
   id="rect37" />
		<g
   id="g43">
			<rect
   y="-34.5"
   class="st0"
   width="32.2"
   height="34.5"
   id="rect39" />
			<rect
   y="-34.5"
   class="st1"
   width="32.2"
   height="34.5"
   id="rect41" />
		</g>
	</g>
</pattern>
<pattern
   y="128"
   width="32.2"
   height="34.5"
   patternUnits="userSpaceOnUse"
   id="SVGID_14_"
   viewBox="0 -34.5 32.2 34.5"
   style="overflow:visible;">
	<g
   id="g56">
		<rect
   y="-34.5"
   class="st0"
   width="32.2"
   height="34.5"
   id="rect48" />
		<g
   id="g54">
			<rect
   y="-34.5"
   class="st0"
   width="32.2"
   height="34.5"
   id="rect50" />
			<rect
   y="-34.5"
   class="st1"
   width="32.2"
   height="34.5"
   id="rect52" />
		</g>
	</g>
</pattern>
<pattern
   y="128"
   width="32.2"
   height="34.5"
   patternUnits="userSpaceOnUse"
   id="SVGID_15_"
   viewBox="0 -34.5 32.2 34.5"
   style="overflow:visible;">
	<g
   id="g67">
		<rect
   y="-34.5"
   class="st0"
   width="32.2"
   height="34.5"
   id="rect59" />
		<g
   id="g65">
			<rect
   y="-34.5"
   class="st0"
   width="32.2"
   height="34.5"
   id="rect61" />
			<rect
   y="-34.5"
   class="st1"
   width="32.2"
   height="34.5"
   id="rect63" />
		</g>
	</g>
</pattern>
<pattern
   y="128"
   width="32.2"
   height="34.5"
   patternUnits="userSpaceOnUse"
   id="SVGID_16_"
   viewBox="0 -34.5 32.2 34.5"
   style="overflow:visible;">
	<g
   id="g78">
		<rect
   y="-34.5"
   class="st0"
   width="32.2"
   height="34.5"
   id="rect70" />
		<g
   id="g76">
			<rect
   y="-34.5"
   class="st0"
   width="32.2"
   height="34.5"
   id="rect72" />
			<rect
   y="-34.5"
   class="st1"
   width="32.2"
   height="34.5"
   id="rect74" />
		</g>
	</g>
</pattern>
<pattern
   y="128"
   width="32.2"
   height="34.5"
   patternUnits="userSpaceOnUse"
   id="SVGID_7_"
   viewBox="0 -34.5 32.2 34.5"
   style="overflow:visible;">
	<g
   id="g89">
		<rect
   y="-34.5"
   class="st0"
   width="32.2"
   height="34.5"
   id="rect81" />
		<g
   id="g87">
			<rect
   y="-34.5"
   class="st0"
   width="32.2"
   height="34.5"
   id="rect83" />
			<rect
   y="-34.5"
   class="st1"
   width="32.2"
   height="34.5"
   id="rect85" />
		</g>
	</g>
</pattern>
<pattern
   y="128"
   width="32.2"
   height="34.5"
   patternUnits="userSpaceOnUse"
   id="SVGID_9_"
   viewBox="0 -34.5 32.2 34.5"
   style="overflow:visible;">
	<g
   id="g100">
		<rect
   y="-34.5"
   class="st0"
   width="32.2"
   height="34.5"
   id="rect92" />
		<g
   id="g98">
			<rect
   y="-34.5"
   class="st0"
   width="32.2"
   height="34.5"
   id="rect94" />
			<rect
   y="-34.5"
   class="st1"
   width="32.2"
   height="34.5"
   id="rect96" />
		</g>
	</g>
</pattern>
<g
   id="Calque_3">
	<g
   id="g208">
		<g
   id="g200">
			<g
   id="g175">
				<g
   id="g171">
					<g
   id="g105">
						<pattern
   id="SVGID_1_"
   xlink:href="#SVGID_7_"
   patternTransform="matrix(1.1995 0 0 -1.1995 3201.9346 -19814.3594)">
						</pattern>
						<path
   id="SVGID_6_"
   class="st2"
   d="M125.2,64c0,33.8-27.4,61.2-61.2,61.2S2.8,97.8,2.8,64S30.2,2.8,64,2.8        S125.2,30.2,125.2,64z" />
					</g>
					<g
   id="g121">
						<defs
   id="defs108">
							<circle
   id="SVGID_2_"
   cx="64"
   cy="64"
   r="61.2" />
						</defs>
						<clipPath
   id="SVGID_3_">
							<use
   xlink:href="#SVGID_2_"
   style="overflow:visible;"
   id="use110" />
						</clipPath>
						<g
   class="st3"
   clip-path="url(#SVGID_3_)"
   id="g119">
							<pattern
   id="SVGID_4_"
   xlink:href="#SVGID_9_"
   patternTransform="matrix(1.1995 0 0 -1.1995 3201.9346 -19814.3594)">
							</pattern>
							<rect
   x="35.5"
   y="-21.2"
   class="st4"
   width="90.1"
   height="96.3"
   id="rect114" />
							<pattern
   id="SVGID_5_"
   xlink:href="#SVGID_10_"
   patternTransform="matrix(1.1995 0 0 -1.1995 3201.9346 -19814.3594)">
							</pattern>
							<rect
   x="35.5"
   y="-21.2"
   class="st5"
   width="90.1"
   height="96.3"
   id="rect117" />
						</g>
					</g>
					<g
   id="g137">
						<defs
   id="defs124">
							<circle
   id="SVGID_8_"
   cx="64"
   cy="64"
   r="61.2" />
						</defs>
						<clipPath
   id="SVGID_17_">
							<use
   xlink:href="#SVGID_8_"
   style="overflow:visible;"
   id="use126" />
						</clipPath>
						<g
   class="st6"
   clip-path="url(#SVGID_17_)"
   id="g135">
							<pattern
   id="SVGID_18_"
   xlink:href="#SVGID_11_"
   patternTransform="matrix(1.1995 0 0 -1.1995 3201.9346 -19814.3594)">
							</pattern>
							<rect
   x="35.5"
   y="75.1"
   class="st7"
   width="90.1"
   height="96.3"
   id="rect130" />
							<pattern
   id="SVGID_19_"
   xlink:href="#SVGID_12_"
   patternTransform="matrix(1.1995 0 0 -1.1995 3201.9346 -19814.3594)">
							</pattern>
							<rect
   x="35.5"
   y="75.1"
   class="st8"
   width="90.1"
   height="96.3"
   id="rect133" />
						</g>
					</g>
					<g
   id="g153">
						<defs
   id="defs140">
							<circle
   id="SVGID_20_"
   cx="64"
   cy="64"
   r="61.2" />
						</defs>
						<clipPath
   id="SVGID_21_">
							<use
   xlink:href="#SVGID_20_"
   style="overflow:visible;"
   id="use142" />
						</clipPath>
						<g
   class="st9"
   clip-path="url(#SVGID_21_)"
   id="g151">
							<pattern
   id="SVGID_22_"
   xlink:href="#SVGID_13_"
   patternTransform="matrix(1.1995 0 0 -1.1995 3201.9346 -19814.3594)">
							</pattern>
							<rect
   x="-54.5"
   y="-21.2"
   class="st10"
   width="90.1"
   height="96.3"
   id="rect146" />
							<pattern
   id="SVGID_23_"
   xlink:href="#SVGID_14_"
   patternTransform="matrix(1.1995 0 0 -1.1995 3201.9346 -19814.3594)">
							</pattern>
							<rect
   x="-54.5"
   y="-21.2"
   class="st11"
   width="90.1"
   height="96.3"
   id="rect149" />
						</g>
					</g>
					<g
   id="g169">
						<defs
   id="defs156">
							<circle
   id="SVGID_24_"
   cx="64"
   cy="64"
   r="61.2" />
						</defs>
						<clipPath
   id="SVGID_25_">
							<use
   xlink:href="#SVGID_24_"
   style="overflow:visible;"
   id="use158" />
						</clipPath>
						<g
   class="st12"
   clip-path="url(#SVGID_25_)"
   id="g167">
							<pattern
   id="SVGID_26_"
   xlink:href="#SVGID_15_"
   patternTransform="matrix(1.1995 0 0 -1.1995 3201.9346 -19814.3594)">
							</pattern>
							<rect
   x="-54.5"
   y="75.1"
   class="st13"
   width="90.1"
   height="96.3"
   id="rect162" />
							<pattern
   id="SVGID_27_"
   xlink:href="#SVGID_16_"
   patternTransform="matrix(1.1995 0 0 -1.1995 3201.9346 -19814.3594)">
							</pattern>
							<rect
   x="-54.5"
   y="75.1"
   class="st14"
   width="90.1"
   height="96.3"
   id="rect165" />
						</g>
					</g>
				</g>
				<path
   class="st15"
   d="M64,128C28.7,128,0,99.3,0,64S28.7,0,64,0s64,28.7,64,64S99.3,128,64,128z"
   id="path173"
   style="fill:#84e9d9;fill-opacity:1" />
			</g>
			
				<linearGradient
   id="SVGID_28_"
   gradientUnits="userSpaceOnUse"
   x1="106.99409"
   y1="44.774391"
   x2="26.605335"
   y2="81.21402"
   gradientTransform="matrix(1 0 0 -1 0 128)">
				<stop
   offset="0"
   style="stop-color:#000000;stop-opacity:0"
   id="stop177" />
				<stop
   offset="1"
   style="stop-color:#000000;stop-opacity:0.93725491"
   id="stop179" />
			</linearGradient>
			<path
   class="st16"
   d="m 52.9,105.1 39.060218,16.32429 C 121.98626,89.847738 122.12791,89.953267 126.41084,49.28068 L 76.546383,27.415655"
   id="path182"
   style="fill:url(#SVGID_28_)"
   sodipodi:nodetypes="cccc" />
			<g
   id="g194">
				<path
   class="st17"
   d="M91.3,49.2c0-12.2-9.8-22.4-22.7-24.7C66.9,24.2,65,24,63.2,24c-15.5,0-28.1,11.2-28.1,25.1      c0,5.3,1.8,10.2,5,14.2c0,0,1.8,2.1,2.6,2.9c7.6,8.1,7,15.3,8.8,23.5H75c1.8-8.1,1.2-15.4,8.8-23.5c0.8-0.8,2.6-2.9,2.6-2.9      c2.9-3.8,4.7-8.3,5-13.2C91.3,49.9,91.3,49.5,91.3,49.2z"
   id="path184" />
				<path
   class="st18"
   d="M51.8,63.4c-0.5-1-1.8-3.5-1.7-3.5c-1.9-4.7-2.4-10.1-0.9-15.4c2.4-8.8,9.2-15.4,17.7-18.4      C66.2,26,65.5,26,64.8,26c-14.6,0-26.5,10.6-26.5,23.6c0,5,1.7,9.6,4.7,13.4c0,0,1.8,2,2.5,2.7c6.8,7.2,7.9,13.4,9.4,20.8      C55.4,78.6,56.5,72.2,51.8,63.4z"
   id="path186" />
				<polygon
   class="st19"
   points="68.4,108.8 57.9,108.8 52.9,105.1 73.5,105.1     "
   id="polygon188" />
				<polygon
   class="st20"
   points="73.5,92.2 52.9,92.2 51.5,89.8 74.9,89.8     "
   id="polygon190" />
				<rect
   x="52.9"
   y="92.2"
   class="st21"
   width="20.6"
   height="12.8"
   id="rect192" />
			</g>
			<path
   class="st22"
   d="M78.4,33.6c-0.1,0.4-0.3,0.8-0.4,1.2c-1.7,4.9-3.4,9.9-5.1,14.8c-0.3,0.9-0.3,1.2,0.3,1.4     c2.4,0.8,4.8,1.6,7.2,2.5c0.2,0.1,0.5,0.2,0.8,0.3C74.1,62.3,67.1,70.6,60,79c-0.1,0-0.1-0.1-0.2-0.1c0.1-0.4,0.3-0.7,0.4-1.1     c1.9-5.5,3.8-11,5.7-16.5c0.4-1,0.3-1.4-0.4-1.6c-2.2-0.7-4.3-1.5-6.5-2.2c-0.2-0.1-0.5-0.2-0.9-0.3c6.8-8,13.5-15.7,20.1-23.5     C78.3,33.6,78.4,33.6,78.4,33.6z"
   id="path196" />
			<path
   class="st23"
   d="M73.9,35.4c-0.1,0.4-0.3,0.8-0.4,1.2c-1.7,4.9-3.4,9.9-5.1,14.8c-0.3,0.9-0.3,1.2,0.3,1.4     c2.4,0.8,4.8,1.6,7.2,2.5c0.2,0.1,0.5,0.2,0.8,0.3C69.6,64,62.5,72.3,55.5,80.7c-0.1,0-0.1-0.1-0.2-0.1c0.1-0.4,0.3-0.7,0.4-1.1     c1.9-5.5,3.8-11,5.7-16.5c0.4-1,0.3-1.4-0.4-1.6c-2.2-0.7-4.3-1.5-6.5-2.2c-0.2-0.1-0.5-0.2-0.9-0.3c6.8-8,13.5-15.7,20.1-23.5     C73.8,35.3,73.8,35.3,73.9,35.4z"
   id="path198" />
		</g>
		<path
   class="st20"
   d="M54.6,95.7c-0.3-0.1-0.6-0.2-0.8-0.3c-0.5-0.4-0.6-0.8-0.4-1.3c0.2-0.5,0.8-0.8,1.6-0.8c1.8,0,3.7,0,5.5,0    c3.5,0,7,0,10.5,0c1.2,0,1.8,0.3,2,0.9c0.2,0.7-0.1,1.2-1.2,1.6C66.1,95.7,60.4,95.7,54.6,95.7z M55.7,94.5c0-0.2,0.1-0.5-0.3-0.7    c-0.3-0.1-0.6-0.1-0.8,0.1c-0.3,0.3-0.3,0.7,0,1.1c0.1,0.2,0.4,0.2,0.7,0.1C55.7,95,55.7,94.8,55.7,94.5z"
   id="path202" />
		<path
   class="st20"
   d="M54.7,103.2c-1.2-0.3-1.7-1.1-1.2-1.8c0.4-0.5,1-0.6,1.7-0.6c5.3,0,10.6,0,15.9,0c1.2,0,1.9,0.3,2,1    c0.1,0.8-0.3,1.2-1.6,1.5c-0.1,0-0.3,0-0.4,0C65.6,103.2,60.1,103.2,54.7,103.2z M55.7,102c0-0.2,0-0.4-0.1-0.5    c-0.2-0.2-0.4-0.2-0.7-0.2c-0.5,0.1-0.5,0.4-0.5,0.6c0,0.3-0.1,0.6,0.5,0.7c0.3,0.1,0.5,0,0.7-0.2C55.7,102.4,55.7,102.2,55.7,102    z"
   id="path204" />
		<path
   class="st20"
   d="M54.7,99.4c-1.2-0.3-1.7-1.1-1.2-1.8c0.4-0.5,1-0.6,1.7-0.6c5.3,0,10.6,0,15.9,0c1.2,0,1.9,0.3,2,1    c0.1,0.8-0.3,1.2-1.6,1.5c-0.1,0-0.3,0-0.4,0C65.6,99.4,60.1,99.4,54.7,99.4z M55.7,98.2c0-0.2,0-0.4-0.1-0.5    c-0.2-0.2-0.4-0.2-0.7-0.2c-0.5,0.1-0.5,0.4-0.5,0.6c0,0.3-0.1,0.6,0.5,0.7c0.3,0.1,0.5,0,0.7-0.2C55.7,98.6,55.7,98.4,55.7,98.2z    "
   id="path206" />
	</g>
</g>
</svg>
