<?xml version="1.0" encoding="UTF-8" standalone="no"?>
<svg
   version="1.1"
   id="Calque_2_1_"
   x="0px"
   y="0px"
   viewBox="0 0 128 128"
   xml:space="preserve"
   sodipodi:docname="syn_salon.svg"
   inkscape:export-filename="/home/sebastien/SRC/trunk/Watchdogd/IHM/img/syn_salon.png"
   inkscape:export-xdpi="96"
   inkscape:export-ydpi="96"
   inkscape:version="1.1 (c68e22c387, 2021-05-23)"
   width="128"
   height="128"
   xmlns:inkscape="http://www.inkscape.org/namespaces/inkscape"
   xmlns:sodipodi="http://sodipodi.sourceforge.net/DTD/sodipodi-0.dtd"
   xmlns:xlink="http://www.w3.org/1999/xlink"
   xmlns="http://www.w3.org/2000/svg"
   xmlns:svg="http://www.w3.org/2000/svg"
   xmlns:rdf="http://www.w3.org/1999/02/22-rdf-syntax-ns#"
   xmlns:cc="http://creativecommons.org/ns#"
   xmlns:dc="http://purl.org/dc/elements/1.1/"><metadata
   id="metadata265"><rdf:RDF><cc:Work
       rdf:about=""><dc:format>image/svg+xml</dc:format><dc:type
         rdf:resource="http://purl.org/dc/dcmitype/StillImage" /><dc:title /></cc:Work></rdf:RDF></metadata><defs
   id="defs263" /><sodipodi:namedview
   pagecolor="#ffffff"
   bordercolor="#666666"
   borderopacity="1"
   objecttolerance="10"
   gridtolerance="10"
   guidetolerance="10"
   inkscape:pageopacity="0"
   inkscape:pageshadow="2"
   inkscape:window-width="1920"
   inkscape:window-height="979"
   id="namedview261"
   showgrid="false"
   inkscape:pagecheckerboard="true"
   inkscape:zoom="4.3862718"
   inkscape:cx="48.788587"
   inkscape:cy="67.255295"
   inkscape:window-x="0"
   inkscape:window-y="0"
   inkscape:window-maximized="1"
   inkscape:current-layer="g258"
   inkscape:document-rotation="0" />
<style
   type="text/css"
   id="style2">
	.st0{fill:none;}
	.st1{fill:#28313B;}
	.st2{fill:#E49B4C;}
	.st3{fill:url(#SVGID_1_);}
	.st4{fill:url(#SVGID_2_);}
	.st5{fill:url(#SVGID_3_);}
	.st6{fill:url(#SVGID_4_);}
	.st7{fill:#FFFDF7;}
	.st8{fill:url(#SVGID_5_);}
	.st9{fill:url(#SVGID_6_);}
	.st10{fill:#603813;}
	.st11{fill:url(#SVGID_7_);}
	.st12{fill:url(#SVGID_8_);}
	.st13{fill:url(#SVGID_9_);}
	.st14{fill:url(#SVGID_10_);}
	.st15{fill:#736F3E;}
	.st16{fill:#89864D;}
	.st17{fill:#9EA450;}
	.st18{fill:#F7BAAB;}
	.st19{fill:#D2BC57;}
	.st20{fill:#566100;}
	.st21{fill:#534741;}
	.st22{fill:#FFB34C;}
	.st23{fill:#A67C52;}
	.st24{fill:#998675;}
	.st25{fill:#FBB03B;}
	.st26{fill:#9DBF5C;}
	.st27{fill:#75462F;}
	.st28{fill:#138784;}
	.st29{fill:#555E00;}
	.st30{fill:#736357;}
	.st31{fill:#C69C6D;}
	.st32{fill:#67850C;}
	.st33{fill:url(#SVGID_11_);}
	.st34{fill:#C9BE81;}
	.st35{fill:#D4C888;}
	.st36{fill:#9C9364;}
</style>
<pattern
   y="128"
   width="32.2"
   height="34.5"
   patternUnits="userSpaceOnUse"
   id="Nouvelle_nuance_de_motif_2"
   viewBox="0 -34.5 32.2 34.5"
   style="overflow:visible">
	<g
   id="g8">
		<rect
   y="-34.5"
   class="st0"
   width="32.2"
   height="34.5"
   id="rect4" />
		<rect
   y="-34.5"
   class="st1"
   width="32.2"
   height="34.5"
   id="rect6" />
	</g>
</pattern>
<g
   id="g258">
	<g
   id="g13">
		<circle
   class="st2"
   cx="64"
   cy="64"
   r="64"
   id="circle11"
   style="fill:#4c86e4;fill-opacity:1" />
	</g>
	<linearGradient
   id="SVGID_1_"
   gradientUnits="userSpaceOnUse"
   x1="117.67464"
   y1="88.780464"
   x2="38.872494"
   y2="58.029198">
		<stop
   offset="0"
   style="stop-color:#000000;stop-opacity:0.15450732"
   id="stop15" />
		<stop
   offset="1"
   style="stop-color:#000000;stop-opacity:0.48432332"
   id="stop17" />
	</linearGradient>
	<path
   class="st3"
   d="m 100.3,116.9 c 17,-11.5 27.6,-31 27.6,-53.1 0,-3.1 -0.1,-3.6 -0.3,-6.3 L 91.4,45.4 51.6,45.5 29,91.7 Z"
   id="path20"
   style="fill:url(#SVGID_1_)"
   sodipodi:nodetypes="csccccc" />
	<linearGradient
   id="SVGID_2_"
   gradientUnits="userSpaceOnUse"
   x1="31.351801"
   y1="81.147903"
   x2="127.9604"
   y2="81.147903">
		<stop
   offset="0"
   style="stop-color:#000000;stop-opacity:0"
   id="stop22" />
		<stop
   offset="1"
   style="stop-color:#000000;stop-opacity:0"
   id="stop24" />
	</linearGradient>
	
	<g
   id="g99">
		<g
   id="g38">
			<linearGradient
   id="SVGID_3_"
   gradientUnits="userSpaceOnUse"
   x1="112.6263"
   y1="58.432899"
   x2="105.9654"
   y2="58.358101">
				<stop
   offset="0"
   style="stop-color:#8C6239"
   id="stop29" />
				<stop
   offset="0.5401"
   style="stop-color:#754C24"
   id="stop31" />
				<stop
   offset="1"
   style="stop-color:#8C6239"
   id="stop33" />
			</linearGradient>
			<path
   class="st5"
   d="m 109.2,57.3 h -0.2 -0.3 c 0,0 -2.9,1.9 -4,2.1 h 4.2 4.1 c -0.9,-0.1 -3.8,-2.1 -3.8,-2.1 z"
   id="path36"
   style="fill:url(#SVGID_3_)" />
		</g>
		<linearGradient
   id="SVGID_4_"
   gradientUnits="userSpaceOnUse"
   x1="109.9999"
   y1="50.595798"
   x2="107.9484"
   y2="50.5728">
			<stop
   offset="0"
   style="stop-color:#42210B"
   id="stop40" />
			<stop
   offset="0.5294"
   style="stop-color:#603813"
   id="stop42" />
			<stop
   offset="0.697"
   style="stop-color:#5B3412"
   id="stop44" />
			<stop
   offset="0.9006"
   style="stop-color:#4C290E"
   id="stop46" />
			<stop
   offset="1"
   style="stop-color:#42210B"
   id="stop48" />
		</linearGradient>
		<path
   class="st6"
   d="m 110.2,43.5 h -1.2 -1.3 c 0,0 1.6,6.5 0.5,14.3 h 0.8 0.8 c -1.2,-7.8 0.4,-14.3 0.4,-14.3 z"
   id="path51"
   style="fill:url(#SVGID_4_)" />
		<g
   id="g97">
			<path
   class="st7"
   d="m 117.1,43.8 c 0,0.4 -3.7,0.8 -8.2,0.8 -4.5,0 -8.2,-0.3 -8.2,-0.8 0,-0.4 3.7,-0.8 8.2,-0.8 4.6,0.1 8.2,0.4 8.2,0.8 z"
   id="path53" />
			<linearGradient
   id="SVGID_5_"
   gradientUnits="userSpaceOnUse"
   x1="100.3638"
   y1="40.620998"
   x2="117.5249"
   y2="40.620998">
				<stop
   offset="4.407051e-04"
   style="stop-color:#C7B299"
   id="stop55" />
				<stop
   offset="2.600399e-02"
   style="stop-color:#C7AC8D"
   id="stop57" />
				<stop
   offset="8.913453e-02"
   style="stop-color:#C6A076"
   id="stop59" />
				<stop
   offset="0.1283"
   style="stop-color:#C69C6D"
   id="stop61" />
				<stop
   offset="0.3904"
   style="stop-color:#A67C52"
   id="stop63" />
				<stop
   offset="0.5492"
   style="stop-color:#A2784E"
   id="stop65" />
				<stop
   offset="0.7113"
   style="stop-color:#966C42"
   id="stop67" />
				<stop
   offset="0.7968"
   style="stop-color:#8C6239"
   id="stop69" />
				<stop
   offset="1"
   style="stop-color:#664E51"
   id="stop71" />
			</linearGradient>
			<path
   class="st8"
   d="m 117.6,43.8 c 0.1,0.5 -6.3,0.9 -8.6,0.9 -2.3,0 -8.6,-0.4 -8.6,-1 0,-0.5 0.5,-7 0.5,-7 0,0 7.6,-0.2 8.1,-0.2 8.1,0 8.1,0.2 8.1,0.2 0,0 0.4,6.6 0.5,7.1 z"
   id="path74"
   style="fill:url(#SVGID_5_)" />
			<linearGradient
   id="SVGID_6_"
   gradientUnits="userSpaceOnUse"
   x1="100.895"
   y1="36.6376"
   x2="116.988"
   y2="36.6376">
				<stop
   offset="0"
   style="stop-color:#998675"
   id="stop76" />
				<stop
   offset="2.893467e-02"
   style="stop-color:#A79380"
   id="stop78" />
				<stop
   offset="9.025549e-02"
   style="stop-color:#BEAA92"
   id="stop80" />
				<stop
   offset="0.1283"
   style="stop-color:#C7B299"
   id="stop82" />
				<stop
   offset="0.3904"
   style="stop-color:#998675"
   id="stop84" />
				<stop
   offset="0.5718"
   style="stop-color:#958375"
   id="stop86" />
				<stop
   offset="0.7572"
   style="stop-color:#897874"
   id="stop88" />
				<stop
   offset="0.7968"
   style="stop-color:#857574"
   id="stop90" />
				<stop
   offset="1"
   style="stop-color:#664E51"
   id="stop92" />
			</linearGradient>
			<path
   class="st9"
   d="m 100.9,36.7 c 0,0 0,-0.2 8.1,-0.2 8.1,0 8.1,0.2 8.1,0.2"
   id="path95"
   style="fill:url(#SVGID_6_)" />
		</g>
	</g>
	<path
   class="st10"
   d="m 128,60.8 h -24.8 v -1.4 h 24.7 c 0,0 0.1,0.5 0.1,0.6 -0.1,0.2 0,0.8 0,0.8 z"
   id="path101" />
	<g
   id="g147">
		<g
   id="g115">
			
				<pattern
   id="SVGID_7_"
   xlink:href="#Nouvelle_nuance_de_motif_2"
   patternTransform="matrix(0.3863 0 0 0.3863 -4971.1523 -5101.5845)">
			</pattern>
			<polygon
   class="st11"
   points="36.8,87.6 31.4,87.6 29,91.7 31.4,91.7 "
   id="polygon104" />
			
				<pattern
   id="SVGID_8_"
   xlink:href="#Nouvelle_nuance_de_motif_2"
   patternTransform="matrix(0.3863 0 0 0.3863 -4971.1523 -5101.5845)">
			</pattern>
			<polygon
   class="st12"
   points="64,84.7 28.2,84.7 31.4,87.6 64,87.6 "
   id="polygon107" />
			
				<pattern
   id="SVGID_9_"
   xlink:href="#Nouvelle_nuance_de_motif_2"
   patternTransform="matrix(0.3863 0 0 0.3863 -4971.1523 -5101.5845)">
			</pattern>
			<polygon
   class="st13"
   points="91.2,87.6 96.6,87.6 99,91.7 96.6,91.7 "
   id="polygon110" />
			
				<pattern
   id="SVGID_10_"
   xlink:href="#Nouvelle_nuance_de_motif_2"
   patternTransform="matrix(0.3863 0 0 0.3863 -4971.1523 -5101.5845)">
			</pattern>
			<polygon
   class="st14"
   points="64,84.7 99.8,84.7 96.6,87.6 64,87.6 "
   id="polygon113" />
		</g>
		<g
   id="g145">
			<path
   class="st15"
   d="m 24.8,74.1 v 9.1 c 0,1.6 1.5,2.8 3.4,2.8 h 71.6 c 1.9,0 3.4,-1.3 3.4,-2.8 v -9.1 z"
   id="path117" />
			<g
   id="g131">
				<path
   class="st16"
   d="m 91.4,45.2 c 3.7,0 5.5,3.2 5.5,5.2 V 66.7 H 31 V 50.4 c 0,-2 2.4,-5.2 5.5,-5.2 1.9,0 53.4,0 54.9,0 z"
   id="path119" />
				<path
   class="st17"
   d="m 39.4,49.5 c -2,0.3 -3.6,2 -3.6,3.6 V 66.6 H 92.2 V 53.2 c 0,-1.7 -1.7,-3.4 -3.6,-3.6 H 39.4 Z"
   id="path121" />
				<g
   id="g129">
					<path
   class="st18"
   d="M 96.2,65.4 H 32 c -2.5,1.4 -7.3,8.5 -7.3,8.5 0,0.7 0.8,1.3 1.7,1.3 h 75.2 c 0.9,0 1.7,-0.6 1.7,-1.3 -0.1,0 -4.7,-7.1 -7.1,-8.5 z"
   id="path123" />
					<path
   class="st19"
   d="M 96.2,65.4 H 32 c -2.5,1.4 -7.3,8.5 -7.3,8.5 0,0.7 0.8,1.3 1.7,1.3 h 75.2 c 0.9,0 1.7,-0.6 1.7,-1.3 -0.1,0 -4.7,-7.1 -7.1,-8.5 z"
   id="path125" />
					<path
   class="st17"
   d="m 103.2,74.4 c 0,1.3 -1.3,2.4 -2.9,2.4 H 27.7 c -1.6,0 -2.9,-1.1 -2.9,-2.4 v 0 c 0,-1.3 1.3,-2.4 2.9,-2.4 h 72.7 c 1.5,0 2.8,1.1 2.8,2.4 z"
   id="path127" />
				</g>
			</g>
			<g
   id="g137">
				<path
   class="st15"
   d="m 109,66 c 0,0 -7.9,-5.6 -10.9,-6.9 -0.4,-0.2 -1.5,-0.2 -1.9,0.2 -1,0.9 -2.1,3.2 -2.1,6.1 0,0 3.8,1.1 7.5,6.1 0.4,0.5 0.4,1 0.4,1 z"
   id="path133" />
				<path
   class="st15"
   d="m 98.2,86 c 0,0 9.3,1.4 12.3,-15.8 0.2,-1.3 0.1,-4.1 -2.6,-4.6 -2.3,-0.5 -4.2,-0.2 -5.1,3.3 0,0 -4,14.9 -4.6,17.1 z"
   id="path135" />
			</g>
			<g
   id="g143">
				<path
   class="st15"
   d="m 19,66 c 0,0 7.9,-5.6 10.9,-6.9 0.4,-0.2 1.5,-0.2 1.9,0.2 1,0.9 2.1,3.2 2.1,6.1 0,0 -3.8,1.1 -7.5,6.1 -0.4,0.5 -0.4,1 -0.4,1 z"
   id="path139" />
				<path
   class="st15"
   d="m 29.8,86 c 0,0 -9.3,1.4 -12.3,-15.8 -0.2,-1.3 -0.1,-4.1 2.6,-4.6 2.3,-0.5 4.2,-0.2 5.1,3.3 0,0 4,14.9 4.6,17.1 z"
   id="path141" />
			</g>
		</g>
	</g>
	<g
   id="g215"
   transform="translate(0.09591467,-0.08875157)">
		<g
   id="g153">
			<rect
   x="9.3999996"
   y="45.200001"
   class="st10"
   width="19.700001"
   height="1.8"
   id="rect149" />
			<rect
   x="9.3999996"
   y="38.200001"
   class="st10"
   width="1.8"
   height="8.8000002"
   id="rect151" />
		</g>
		<g
   id="g165"
   transform="translate(0.07480727,-0.11048543)">
			<rect
   x="11.1"
   y="33.099998"
   class="st20"
   width="4.3000002"
   height="12.2"
   id="rect155" />
			<rect
   x="11.1"
   y="34.799999"
   class="st21"
   width="4.3000002"
   height="2.7"
   id="rect157" />
			<g
   id="g163">
				<rect
   x="11.1"
   y="37.599998"
   class="st21"
   width="4.3000002"
   height="0.2"
   id="rect159" />
				<rect
   x="11.1"
   y="34.400002"
   class="st21"
   width="4.3000002"
   height="0.2"
   id="rect161" />
			</g>
		</g>
		<g
   id="g171">
			<rect
   x="15.6"
   y="31.200001"
   class="st22"
   width="2.3"
   height="14.1"
   id="rect167"
   style="fill:#dad91b;fill-opacity:1"
   transform="translate(0.03873948,-0.10163547)" />
			<path
   class="st23"
   d="m 17.4,39 c 0,0.1 -0.1,0.1 -0.1,0.1 h -1 c -0.1,0 -0.1,0 -0.1,-0.1 v -7 c 0,-0.1 0.1,-0.1 0.1,-0.1 h 1 c 0.1,0 0.1,0 0.1,0.1 z"
   id="path169" />
		</g>
		<g
   id="g183"
   transform="translate(0.37028653,0.00273859)">
			<rect
   x="20.6"
   y="31.5"
   class="st24"
   width="3.0999999"
   height="13.7"
   id="rect173" />
			<g
   id="g181">
				<rect
   x="20.6"
   y="34.299999"
   class="st25"
   width="3.0999999"
   height="0.30000001"
   id="rect175" />
				<rect
   x="20.6"
   y="34.799999"
   class="st25"
   width="3.0999999"
   height="0.30000001"
   id="rect177" />
				<rect
   x="20.6"
   y="35.200001"
   class="st25"
   width="3.0999999"
   height="0.30000001"
   id="rect179" />
			</g>
		</g>
		<g
   id="g191">
			<rect
   x="18.200001"
   y="32.099998"
   class="st26"
   width="1"
   height="13.1"
   id="rect185" />
			<rect
   x="18.200001"
   y="32.099998"
   class="st27"
   width="1"
   height="1.4"
   id="rect187" />
			<path
   class="st28"
   d="m 18.9,32.8 c 0,0.2 -0.1,0.3 -0.3,0.3 -0.2,0 -0.3,-0.1 -0.3,-0.3 0,-0.2 0.1,-0.3 0.3,-0.3 0.2,0 0.3,0.1 0.3,0.3 z"
   id="path189" />
		</g>
		<g
   id="g199"
   transform="translate(0.23399535,-0.00445281)">
			<rect
   x="19.299999"
   y="32.099998"
   class="st29"
   width="1"
   height="13.1"
   id="rect193" />
			<rect
   x="19.299999"
   y="32.099998"
   class="st22"
   width="1"
   height="1.4"
   id="rect195" />
			<path
   class="st27"
   d="m 20.1,32.8 c 0,0.2 -0.1,0.3 -0.3,0.3 -0.2,0 -0.3,-0.1 -0.3,-0.3 0,-0.2 0.1,-0.3 0.3,-0.3 0.2,0 0.3,0.1 0.3,0.3 z"
   id="path197" />
		</g>
		<g
   id="g213"
   transform="translate(0.6946389,0.00600901)">
			<rect
   x="23.799999"
   y="31.5"
   class="st30"
   width="2.7"
   height="13.7"
   id="rect201" />
			<rect
   x="23.799999"
   y="32.900002"
   class="st23"
   width="2.7"
   height="3.5999999"
   id="rect203" />
			<rect
   x="23.799999"
   y="37.200001"
   class="st23"
   width="2.7"
   height="0.5"
   id="rect205" />
			<rect
   x="23.799999"
   y="34.400002"
   class="st26"
   width="2.7"
   height="0.60000002"
   id="rect207" />
			
				<circle
   transform="matrix(0.00148122,-1,1,0.00148122,-9.564,59.8803)"
   class="st26"
   cx="25.200001"
   cy="34.700001"
   id="ellipse209"
   r="0.69999999" />
			
				<circle
   transform="matrix(0.00197303,-1,1,0.00197303,-9.5764,59.8632)"
   class="st31"
   cx="25.200001"
   cy="34.700001"
   id="ellipse211"
   r="0.5" />
		</g>
	</g>
	<g
   id="g248">
		<rect
   x="115.7"
   y="58.299999"
   class="st20"
   width="8"
   height="1.1"
   id="rect217" />
		<polygon
   class="st32"
   points="122.7,58 116,58 115.7,58.3 123.7,58.3 "
   id="polygon219" />
		<rect
   x="116.3"
   y="58.299999"
   class="st32"
   width="0.5"
   height="1.1"
   id="rect221" />
		<rect
   x="117.1"
   y="58.299999"
   class="st32"
   width="0.2"
   height="1.1"
   id="rect223" />
		
			<linearGradient
   id="SVGID_11_"
   gradientUnits="userSpaceOnUse"
   x1="740.46332"
   y1="230.9035"
   x2="741.59747"
   y2="230.9035"
   gradientTransform="rotate(90,516.4108,-165.7889)">
			<stop
   offset="0"
   style="stop-color:#CCCCCC"
   id="stop225" />
			<stop
   offset="3.067073e-02"
   style="stop-color:#DADADA"
   id="stop227" />
			<stop
   offset="8.375368e-02"
   style="stop-color:#EBEBEB"
   id="stop229" />
			<stop
   offset="0.1498"
   style="stop-color:#F6F6F6"
   id="stop231" />
			<stop
   offset="0.2426"
   style="stop-color:#FDFDFD"
   id="stop233" />
			<stop
   offset="0.5"
   style="stop-color:#FFFFFF"
   id="stop235" />
			<stop
   offset="0.6619"
   style="stop-color:#FCFCFC"
   id="stop237" />
			<stop
   offset="0.7872"
   style="stop-color:#F2F2F2"
   id="stop239" />
			<stop
   offset="0.8999"
   style="stop-color:#E2E2E2"
   id="stop241" />
			<stop
   offset="1"
   style="stop-color:#CCCCCC"
   id="stop243" />
		</linearGradient>
		<rect
   x="115.7"
   y="58.299999"
   class="st33"
   width="8"
   height="1.1"
   id="rect246"
   style="fill:url(#SVGID_11_)" />
	</g>
	<g
   id="g256">
		<path
   class="st34"
   d="m 116.9,58.2 c 0.4,0 0.9,0 1.4,0 0.1,0 0.2,0 0.3,-0.1 0.5,-0.3 0.8,-0.9 0.8,-1.5 0,-0.4 -0.1,-0.8 -0.4,-1.1 h -2.8 c -0.2,0.3 -0.4,0.7 -0.4,1.1 0,0.6 0.3,1.2 0.8,1.5 0.2,0 0.2,0.1 0.3,0.1 z"
   id="path250" />
		<path
   class="st35"
   d="m 116.3,55.6 c -0.1,0.2 -0.2,0.4 -0.2,0.6 0,0.6 0.5,1 1.1,1 0.6,0 1.1,-0.5 1.1,-1 0,-0.2 -0.1,-0.5 -0.2,-0.6 z"
   id="path252" />
		<path
   class="st36"
   d="m 119,55.6 c 0,0.1 -0.6,0.1 -1.4,0.1 -0.8,0 -1.4,-0.1 -1.4,-0.1 0,-0.1 0.6,-0.1 1.4,-0.1 0.8,0 1.4,0 1.4,0.1 z"
   id="path254" />
	</g>
</g>
</svg>
