<?xml version="1.0" encoding="UTF-8" standalone="no"?>
<svg
   xmlns:dc="http://purl.org/dc/elements/1.1/"
   xmlns:cc="http://creativecommons.org/ns#"
   xmlns:rdf="http://www.w3.org/1999/02/22-rdf-syntax-ns#"
   xmlns:svg="http://www.w3.org/2000/svg"
   xmlns="http://www.w3.org/2000/svg"
   xmlns:xlink="http://www.w3.org/1999/xlink"
   xmlns:sodipodi="http://sodipodi.sourceforge.net/DTD/sodipodi-0.dtd"
   xmlns:inkscape="http://www.inkscape.org/namespaces/inkscape"
   version="1.1"
   id="Calque_3"
   x="0px"
   y="0px"
   viewBox="0 0 128 128"
   style="enable-background:new 0 0 128 128;"
   xml:space="preserve"
   sodipodi:docname="syn_jeux.svg"
   inkscape:export-filename="/home/sebastien/SRC/trunk/Watchdogd/IHM/img/syn_jeux.png"
   inkscape:export-xdpi="96"
   inkscape:export-ydpi="96"
   inkscape:version="1.0.2 (e86c870879, 2021-01-15)"><metadata
   id="metadata160"><rdf:RDF><cc:Work
       rdf:about=""><dc:format>image/svg+xml</dc:format><dc:type
         rdf:resource="http://purl.org/dc/dcmitype/StillImage" /></cc:Work></rdf:RDF></metadata><defs
   id="defs158" /><sodipodi:namedview
   pagecolor="#ffffff"
   bordercolor="#666666"
   borderopacity="1"
   objecttolerance="10"
   gridtolerance="10"
   guidetolerance="10"
   inkscape:pageopacity="0"
   inkscape:pageshadow="2"
   inkscape:window-width="1920"
   inkscape:window-height="983"
   id="namedview156"
   showgrid="false"
   inkscape:zoom="6.203125"
   inkscape:cx="64"
   inkscape:cy="64"
   inkscape:window-x="0"
   inkscape:window-y="0"
   inkscape:window-maximized="1"
   inkscape:current-layer="Calque_3" />
<style
   type="text/css"
   id="style2">
	.st0{fill:none;}
	.st1{fill:#E54445;}
	.st2{fill:#455665;}
	.st3{fill:url(#SVGID_1_);}
	.st4{fill:url(#SVGID_2_);}
	.st5{fill:#CCCCCC;}
	.st6{fill:#999999;}
	.st7{fill:#D9D9D9;}
	.st8{fill:#4D4D4D;}
	.st9{opacity:0.1;}
	.st10{fill:#FFFFFF;}
	.st11{fill:#466EB6;}
	.st12{fill:url(#SVGID_3_);}
	.st13{fill:#3C8F7C;}
	.st14{fill:#FBB03B;}
	.st15{opacity:0.2;}
</style>
<pattern
   y="128"
   width="32.2"
   height="34.5"
   patternUnits="userSpaceOnUse"
   id="Nouvelle_nuance_de_motif_1"
   viewBox="0 -34.5 32.2 34.5"
   style="overflow:visible;">
	<g
   id="g8">
		<rect
   y="-34.5"
   class="st0"
   width="32.2"
   height="34.5"
   id="rect4" />
		<rect
   y="-34.5"
   class="st1"
   width="32.2"
   height="34.5"
   id="rect6" />
	</g>
</pattern>
<pattern
   y="128"
   width="32.2"
   height="34.5"
   patternUnits="userSpaceOnUse"
   id="Nouvelle_nuance_de_motif_20"
   viewBox="0 -34.5 32.2 34.5"
   style="overflow:visible;">
	<g
   id="g15">
		<rect
   y="-34.5"
   class="st0"
   width="32.2"
   height="34.5"
   id="rect11" />
		<rect
   y="-34.5"
   class="st2"
   width="32.2"
   height="34.5"
   id="rect13" />
	</g>
</pattern>
<g
   id="g153">
	
		<pattern
   id="SVGID_1_"
   xlink:href="#Nouvelle_nuance_de_motif_20"
   patternTransform="matrix(1.3281 0 0 1.3281 2615.9692 2704.8962)">
	</pattern>
	<path
   class="st3"
   d="M128,64c0,35.3-28.7,64-64,64C28.7,128,0,99.3,0,64C0,28.7,28.7,0,64,0C99.3,0,128,28.7,128,64z"
   id="path19" />
	<linearGradient
   id="SVGID_2_"
   gradientUnits="userSpaceOnUse"
   x1="135.3062"
   y1="93.4805"
   x2="48.3924"
   y2="58.1718">
		<stop
   offset="0"
   style="stop-color:#1C1B19;stop-opacity:0"
   id="stop21" />
		<stop
   offset="1"
   style="stop-color:#33322D"
   id="stop23" />
	</linearGradient>
	<path
   class="st4"
   d="M99.7,117.5c17-11.5,28.2-31,28.2-53.1c0-3.1,0.2-3.2-1-12.4L97.3,39.6l-48,27.3L31.4,89.5L99.7,117.5z"
   id="path26" />
	<g
   id="g151">
		<g
   id="g149">
			<g
   id="g147">
				<g
   id="g145">
					<g
   id="g30">
						<path
   class="st5"
   d="M58.5,52.6c-0.1,9.5-7.8,17.2-17.4,17.2c-9.5-0.1-17.2-7.8-17.2-17.4c0.1-9.5,7.8-17.2,17.4-17.2        C50.9,35.3,58.6,43.1,58.5,52.6"
   id="path28" />
					</g>
					<g
   id="g34">
						<path
   class="st5"
   d="M53.2,67.7l-14.7,20c-7.3,9.9-22.9,2.8-20.3-9.2l5.7-26.1L53.2,67.7z"
   id="path32" />
					</g>
					<g
   id="g38">
						<path
   class="st5"
   d="M69.8,52.7C69.8,62.2,77.5,70,87,70.1c9.5,0.1,17.3-7.6,17.4-17.2c0.1-9.5-7.6-17.3-17.2-17.4        C77.7,35.4,69.9,43.1,69.8,52.7"
   id="path36" />
					</g>
					<g
   id="g42">
						<path
   class="st5"
   d="M75,67.8L89.4,88c7.2,10,22.9,3.1,20.4-8.9l-5.4-26.2L75,67.8z"
   id="path40" />
					</g>
					<g
   id="g46">
						
							<rect
   x="51.2"
   y="31.9"
   transform="matrix(5.915909e-03 -1 1 5.915909e-03 8.9469 118.6626)"
   class="st5"
   width="25.9"
   height="45.9"
   id="rect44" />
					</g>
					<g
   id="g50">
						<path
   class="st6"
   d="M41.7,40.1c7.1,0,12.9,5.9,12.9,13c0,7.1-5.9,12.9-13,12.9c-7.1,0-12.9-5.9-12.9-13        C28.8,45.9,34.6,40.1,41.7,40.1"
   id="path48" />
					</g>
					<g
   id="g54">
						<path
   class="st6"
   d="M87.7,40.4c7.1,0,12.9,5.9,12.9,13c0,7.1-5.9,12.9-13,12.9c-7.1,0-12.9-5.9-12.9-13        C74.7,46.1,80.5,40.4,87.7,40.4"
   id="path52" />
					</g>
					<g
   id="g58">
						<path
   class="st7"
   d="M41.3,39.6c7.1,0,12.9,5.9,12.9,13c0,7.1-5.9,12.9-13,12.9c-7.1,0-12.9-5.9-12.9-13        C28.3,45.3,34.2,39.5,41.3,39.6"
   id="path56" />
					</g>
					<g
   id="g74">
						<g
   id="g62">
							<path
   class="st8"
   d="M43,60.1l-3.7,0c-0.5,0-0.9-0.4-0.9-0.9l0.1-13.2c0-0.5,0.4-0.9,0.9-0.9l3.7,0c0.5,0,0.9,0.4,0.9,0.9         l-0.1,13.2C43.9,59.7,43.5,60.1,43,60.1"
   id="path60" />
						</g>
						<g
   id="g66">
							<path
   class="st8"
   d="M47.8,55.3l-13.2-0.1c-0.5,0-0.9-0.4-0.9-0.9l0-3.7c0-0.5,0.4-0.9,0.9-0.9l13.2,0.1         c0.5,0,0.9,0.4,0.9,0.9l0,3.7C48.7,54.9,48.3,55.3,47.8,55.3"
   id="path64" />
						</g>
						<g
   class="st9"
   id="g72">
							<polygon
   class="st10"
   points="39.7,58.8 40.4,58.8 40.4,46.3 39.8,46.3 39.7,49.7 39.7,51 38.4,51 35,51 34.9,54 38.4,54          39.7,54 39.7,55.3        "
   id="polygon68" />
							<path
   class="st10"
   d="M39.4,59.5c-0.1,0-0.2-0.1-0.3-0.2c-0.1-0.2-0.2-0.4-0.2-0.6l0-4l-4,0c-0.2,0-0.4-0.1-0.6-0.2         s-0.2-0.4-0.2-0.6l0-3c0-0.4,0.4-0.8,0.8-0.8l4,0l0-4c0-0.4,0.4-0.8,0.8-0.8l0.7,0c0.2,0,0.4,0.1,0.6,0.2         c0.1,0.2,0.2,0.4,0.2,0.6l-0.1,12.5c0,0.4-0.4,0.8-0.8,0.8l-0.7,0C39.6,59.6,39.5,59.5,39.4,59.5z M35.8,51.8l0,1.4l3.8,0         l0-1.4L35.8,51.8z"
   id="path70" />
						</g>
					</g>
					<g
   id="g78">
						<path
   class="st7"
   d="M87.2,39.9c7.1,0,12.9,5.9,12.9,13c0,7.1-5.9,12.9-13,12.9c-7.1,0-12.9-5.9-12.9-13        C74.2,45.6,80.1,39.8,87.2,39.9"
   id="path76" />
					</g>
					<g
   id="g121">
						<g
   id="g82">
							<path
   class="st11"
   d="M83.3,52.8c0,1.8-1.5,3.2-3.2,3.2c-1.8,0-3.2-1.5-3.2-3.2c0-1.8,1.5-3.2,3.2-3.2         C81.9,49.6,83.3,51,83.3,52.8"
   id="path80" />
						</g>
						<g
   id="g87">
							
								<pattern
   id="SVGID_3_"
   xlink:href="#Nouvelle_nuance_de_motif_1"
   patternTransform="matrix(1.3281 0 0 1.3281 2615.9692 2704.8962)">
							</pattern>
							<path
   class="st12"
   d="M97.4,52.8c0,1.8-1.5,3.2-3.2,3.2c-1.8,0-3.2-1.5-3.2-3.2c0-1.8,1.4-3.2,3.2-3.2         C95.9,49.6,97.4,51.1,97.4,52.8"
   id="path85" />
						</g>
						<g
   id="g91">
							<path
   class="st13"
   d="M90.3,59.8c0,1.8-1.4,3.2-3.2,3.2c-1.8,0-3.2-1.4-3.2-3.2c0-1.8,1.5-3.2,3.2-3.2         C88.9,56.6,90.3,58.1,90.3,59.8"
   id="path89" />
						</g>
						<g
   id="g95">
							<path
   class="st14"
   d="M90.4,45.8c0,1.8-1.5,3.2-3.2,3.2c-1.8,0-3.2-1.4-3.2-3.2c0-1.8,1.5-3.2,3.2-3.2         C89,42.6,90.4,44,90.4,45.8"
   id="path93" />
						</g>
						<g
   class="st15"
   id="g101">
							<path
   class="st10"
   d="M80.1,50.8c-1.1,0-1.9,0.8-1.9,1.9c0,1.1,0.8,1.9,1.9,1.9L80.1,50.8z"
   id="path97" />
							<path
   class="st10"
   d="M79.2,55.3c-1-0.4-1.8-1.4-1.8-2.6c0-1.5,1.2-2.7,2.7-2.7c0.2,0,0.4,0.1,0.6,0.2         c0.1,0.2,0.2,0.4,0.2,0.6l0,3.8c0,0.2-0.1,0.4-0.2,0.6c-0.2,0.1-0.4,0.2-0.6,0.2C79.8,55.5,79.4,55.4,79.2,55.3z M79.3,52         c-0.2,0.2-0.3,0.5-0.3,0.8c0,0.3,0.1,0.6,0.3,0.8L79.3,52z"
   id="path99" />
						</g>
						<g
   class="st15"
   id="g107">
							<path
   class="st10"
   d="M87.2,43.8L87.2,43.8c-1.1,0-1.9,0.8-1.9,1.9c0,1.1,0.8,1.9,1.9,1.9l0,0L87.2,43.8z"
   id="path103" />
							<path
   class="st10"
   d="M86.2,48.3c-0.4-0.1-0.7-0.4-1-0.6c-0.5-0.5-0.8-1.2-0.8-1.9c0-0.7,0.3-1.4,0.8-1.9         c0.5-0.5,1.2-0.8,1.9-0.8c0.4,0,0.8,0.4,0.8,0.8l0,3.8c0,0.2-0.1,0.4-0.2,0.6c-0.2,0.1-0.4,0.2-0.6,0.2         C86.8,48.5,86.5,48.4,86.2,48.3z M86.4,45c-0.2,0.2-0.3,0.5-0.3,0.8c0,0.3,0.1,0.6,0.3,0.8L86.4,45z"
   id="path105" />
						</g>
						<g
   class="st15"
   id="g113">
							<path
   class="st10"
   d="M87.1,57.9c-1.1,0-1.9,0.8-1.9,1.9c0,1.1,0.8,1.9,1.9,1.9L87.1,57.9z"
   id="path109" />
							<path
   class="st10"
   d="M86.1,62.4c-0.4-0.1-0.7-0.4-1-0.6c-0.5-0.5-0.8-1.2-0.8-1.9c0-1.5,1.2-2.7,2.7-2.7         c0.4,0,0.8,0.4,0.8,0.8l0,3.8c0,0.2-0.1,0.4-0.2,0.6c-0.2,0.1-0.4,0.2-0.6,0.2C86.8,62.5,86.4,62.5,86.1,62.4z M86.3,59         c-0.2,0.2-0.3,0.5-0.3,0.8c0,0.3,0.1,0.6,0.3,0.8L86.3,59z"
   id="path111" />
						</g>
						<g
   class="st15"
   id="g119">
							<path
   class="st10"
   d="M94.2,50.9c-1.1,0-1.9,0.8-1.9,1.9c0,1.1,0.8,1.9,1.9,1.9L94.2,50.9z"
   id="path115" />
							<path
   class="st10"
   d="M93.2,55.4c-1-0.4-1.8-1.4-1.8-2.6c0-0.7,0.3-1.4,0.8-1.9c0.5-0.5,1.2-0.8,1.9-0.8         c0.2,0,0.4,0.1,0.6,0.2c0.1,0.2,0.2,0.4,0.2,0.6l0,3.8c0,0.2-0.1,0.4-0.2,0.6c-0.2,0.1-0.4,0.2-0.6,0.2         C93.8,55.5,93.5,55.5,93.2,55.4z M93.4,52.1c-0.2,0.2-0.3,0.5-0.3,0.8c0,0.3,0.1,0.6,0.3,0.8L93.4,52.1z"
   id="path117" />
						</g>
					</g>
					<g
   id="g131">
						<g
   id="g125">
							
								<rect
   x="58.2"
   y="50.9"
   transform="matrix(5.900212e-03 -1 1 5.900212e-03 6.4224 112.6468)"
   class="st8"
   width="3.4"
   height="4.3"
   id="rect123" />
						</g>
						<g
   id="g129">
							
								<rect
   x="66.7"
   y="51"
   transform="matrix(5.970431e-03 -1 1 5.970431e-03 14.8915 121.2683)"
   class="st8"
   width="3.4"
   height="4.3"
   id="rect127" />
						</g>
					</g>
					<g
   class="st9"
   id="g137">
						
							<rect
   x="59"
   y="52.7"
   transform="matrix(6.134270e-03 -1 1 6.134270e-03 5.9827 112.2007)"
   class="st10"
   width="0.9"
   height="0.9"
   id="rect133" />
						<path
   class="st10"
   d="M58.7,54.3c-0.1,0-0.2-0.1-0.3-0.2c-0.1-0.2-0.2-0.4-0.2-0.6l0-0.9c0-0.2,0.1-0.4,0.2-0.6        c0.2-0.1,0.4-0.2,0.6-0.2l0.9,0c0.4,0,0.8,0.4,0.8,0.8l0,0.9c0,0.4-0.4,0.8-0.8,0.8l-0.9,0C58.9,54.3,58.8,54.3,58.7,54.3z"
   id="path135" />
					</g>
					<g
   class="st9"
   id="g143">
						
							<rect
   x="67.6"
   y="52.7"
   transform="matrix(6.031045e-03 -1 1 6.031045e-03 14.4614 120.8314)"
   class="st10"
   width="0.9"
   height="0.9"
   id="rect139" />
						<path
   class="st10"
   d="M67.3,54.3c-0.3-0.1-0.5-0.4-0.5-0.8l0-0.9c0-0.2,0.1-0.4,0.2-0.6c0.2-0.1,0.4-0.2,0.6-0.2l0.9,0        c0.4,0,0.8,0.4,0.8,0.8l0,0.9c0,0.2-0.1,0.4-0.2,0.6c-0.2,0.1-0.4,0.2-0.6,0.2l-0.9,0C67.5,54.4,67.4,54.4,67.3,54.3z"
   id="path141" />
					</g>
				</g>
			</g>
		</g>
	</g>
</g>
</svg>
