<?xml version="1.0" encoding="UTF-8" standalone="no"?>
<svg
   xmlns:dc="http://purl.org/dc/elements/1.1/"
   xmlns:cc="http://creativecommons.org/ns#"
   xmlns:rdf="http://www.w3.org/1999/02/22-rdf-syntax-ns#"
   xmlns:svg="http://www.w3.org/2000/svg"
   xmlns="http://www.w3.org/2000/svg"
   xmlns:sodipodi="http://sodipodi.sourceforge.net/DTD/sodipodi-0.dtd"
   xmlns:inkscape="http://www.inkscape.org/namespaces/inkscape"
   version="1.1"
   id="Calque_2"
   x="0px"
   y="0px"
   viewBox="0 0 128 128"
   style="enable-background:new 0 0 128 128;"
   xml:space="preserve"
   sodipodi:docname="syn_camera.svg"
   inkscape:export-filename="/home/sebastien/SRC/trunk/Watchdogd/IHM/img/syn_camera.png"
   inkscape:export-xdpi="96"
   inkscape:export-ydpi="96"
   inkscape:version="1.0.2 (e86c870879, 2021-01-15)"><metadata
   id="metadata52"><rdf:RDF><cc:Work
       rdf:about=""><dc:format>image/svg+xml</dc:format><dc:type
         rdf:resource="http://purl.org/dc/dcmitype/StillImage" /></cc:Work></rdf:RDF></metadata><defs
   id="defs50" /><sodipodi:namedview
   pagecolor="#ffffff"
   bordercolor="#666666"
   borderopacity="1"
   objecttolerance="10"
   gridtolerance="10"
   guidetolerance="10"
   inkscape:pageopacity="0"
   inkscape:pageshadow="2"
   inkscape:window-width="1920"
   inkscape:window-height="983"
   id="namedview48"
   showgrid="false"
   inkscape:zoom="6.203125"
   inkscape:cx="64"
   inkscape:cy="64"
   inkscape:window-x="0"
   inkscape:window-y="0"
   inkscape:window-maximized="1"
   inkscape:current-layer="Calque_2" />
<style
   type="text/css"
   id="style2">
	.st0{fill:#184655;}
	.st1{fill:url(#SVGID_1_);}
	.st2{fill-rule:evenodd;clip-rule:evenodd;fill:#4D4D4D;}
	.st3{fill:#666666;}
	.st4{fill-rule:evenodd;clip-rule:evenodd;fill:#575A6C;}
	.st5{fill-rule:evenodd;clip-rule:evenodd;fill:#D7D8D8;}
	.st6{fill-rule:evenodd;clip-rule:evenodd;fill:#C2C3C3;}
	.st7{fill-rule:evenodd;clip-rule:evenodd;fill:#C1272D;}
	.st8{fill-rule:evenodd;clip-rule:evenodd;fill:#EAEBEB;}
	.st9{fill-rule:evenodd;clip-rule:evenodd;fill:#FEFEFE;}
	.st10{fill-rule:evenodd;clip-rule:evenodd;fill:#808080;}
	.st11{fill:#FFFFFF;}
	.st12{fill:#CDCAC3;}
</style>
<g
   id="g45">
	<g
   id="g41">
		<path
   class="st0"
   d="M45,2.9C15,12.2-3.2,41.6,0.5,71.7c5.6-0.1,10.9,3.5,12.6,9.1c1.7,5.5-0.5,11.3-4.9,14.4    c14.4,25.8,45.4,38.9,74.8,29.8c33.7-10.5,52.6-46.3,42.1-80.1C114.6,11.3,78.8-7.6,45,2.9z"
   id="path4" />
		<linearGradient
   id="SVGID_1_"
   gradientUnits="userSpaceOnUse"
   x1="106.6969"
   y1="77.9463"
   x2="-0.7618"
   y2="53.5559">
			<stop
   offset="0"
   style="stop-color:#1C1B19;stop-opacity:0"
   id="stop6" />
			<stop
   offset="1"
   style="stop-color:#33322D"
   id="stop8" />
		</linearGradient>
		<path
   class="st1"
   d="M103.5,114.3c12.1-8.6,25-29.2,24.5-49.7c-0.1-3.1,0-7.6-2.9-19.6L35.6,27.9L40.7,50l-2.8,22.9L10.7,85.1    l-4.1,7.2l7.1-3L103.5,114.3z"
   id="path11" />
		<path
   class="st2"
   d="M26.8,76.6l-15,2.7c-0.8,1.1-0.2,5.6,1,5.6l15.1-2.8L26.8,76.6z"
   id="path13" />
		<g
   id="g17">
			<path
   class="st2"
   d="M27.8,78.3l13.1-13.6c1.5-0.2,5,2.7,4.2,3.9L31.9,82.3L27.8,78.3z"
   id="path15" />
		</g>
		<circle
   class="st3"
   cx="29.7"
   cy="79.3"
   r="5.5"
   id="circle19" />
		<g
   id="g39">
			<path
   class="st4"
   d="M43.4,64.6c0.4,0.1,0.6,0.5,0.5,0.9c-0.1,0.4-0.5,0.6-0.9,0.5c-0.4-0.1-0.6-0.5-0.5-0.9     C42.7,64.7,43.1,64.5,43.4,64.6L43.4,64.6z"
   id="path21" />
			<path
   class="st5"
   d="M36.3,33.3l57.6,16.9l-5.4,18.4L52.3,58l-2.8,9.4c-1,3.5-4.8,5.6-8.3,4.5l0,0c-3.5-1-5.6-4.7-4.5-8.3     l2.7-9.4l-8.6-2.5L36.3,33.3z"
   id="path23" />
			<path
   class="st6"
   d="M36.3,33.3l57.6,16.9l-2,6.7l-17.3-5.1c-3.7-1.1-7.8,1.2-9.1,5.2l-0.3,0.8L32,48L36.3,33.3z"
   id="path25" />
			<path
   class="st7"
   d="M91.7,57.5c1.2,1,1.8,2.7,1.3,4.3c-0.5,1.6-1.8,2.7-3.4,3L91.7,57.5z"
   id="path27" />
			<path
   class="st8"
   d="M35.6,27.9l64.1,18.7l-5.9,8.9l-18.7-5.5c-6-1.8-13.9-0.3-15.2,3.8l-29.4-8.6L35.6,27.9z"
   id="path29" />
			<path
   class="st9"
   d="M55.3,38.9c2.3,0.7,3.5,3,2.9,5.3c-0.7,2.3-3,3.5-5.3,2.9c-2.2-0.7-3.5-3-2.9-5.3     C50.7,39.5,53,38.2,55.3,38.9L55.3,38.9z"
   id="path31" />
			<path
   class="st2"
   d="M55,39.8c1.8,0.5,2.7,2.3,2.2,4c-0.5,1.8-2.3,2.7-4,2.2c-1.7-0.5-2.7-2.3-2.2-4C51.4,40.3,53.3,39.3,55,39.8     L55,39.8z"
   id="path33" />
			<path
   class="st10"
   d="M44.2,62.2c1.7,0.5,2.7,2.3,2.2,4c-0.5,1.8-2.3,2.7-4.1,2.3c-1.7-0.5-2.7-2.3-2.2-4.1     C40.6,62.7,42.4,61.7,44.2,62.2L44.2,62.2z"
   id="path35" />
			<path
   class="st11"
   d="M92.3,60.3c0.1,0.3-0.1,0.6-0.4,0.6c-0.3,0.1-0.6-0.1-0.6-0.4c-0.1-0.3,0.1-0.6,0.4-0.6     C92,59.8,92.3,60,92.3,60.3z"
   id="path37" />
		</g>
	</g>
	<path
   class="st12"
   d="M13.1,80.9c-1.8-5.6-7-9.2-12.6-9.1c0.5,3.7,1.3,7.5,2.4,11.2c1.4,4.4,3.1,8.5,5.3,12.3   C12.6,92.2,14.8,86.4,13.1,80.9z"
   id="path43" />
</g>
</svg>
