/* XPM */
static char * boule_orange_xpm[] = {
"20 20 5 1",
" 	c None",
".	c #150517",
"+	c #FFB200",
"@	c #FFFFFF",
"#	c #996800",
"                    ",
"                    ",
"                    ",
"                    ",
"                    ",
"        ....        ",
"      ........      ",
"      .+@....#      ",
"     ..@+...##.     ",
"     .......##.     ",
"     ......#+#.     ",
"     .....#++#.     ",
"      ..##++#.      ",
"      .#####..      ",
"        ....        ",
"                    ",
"                    ",
"                    ",
"                    ",
"                    "};
