<?xml version="1.0" encoding="utf-8"?>
<!-- Generator: Adobe Illustrator 22.0.1, SVG Export Plug-In . SVG Version: 6.00 Build 0)  -->
<svg version="1.1" id="Calque_1" xmlns="http://www.w3.org/2000/svg" xmlns:xlink="http://www.w3.org/1999/xlink" x="0px" y="0px"
	 viewBox="0 0 1190.6 841.9" style="enable-background:new 0 0 1190.6 841.9;" xml:space="preserve">
<style type="text/css">
	.st0{fill:#1E1C38;}
	.st1{fill:#1C6F6F;}
	.st2{fill:#1F1C38;}
	.st3{fill:#322F52;}
	.st4{fill:#EFF6F7;}
	.st5{fill:#F0F7F8;}
	.st6{fill:#929898;}
	.st7{fill:#F8E722;}
	.st8{fill:#978D1D;}
	.st9{fill:#968C1E;}
	.st10{fill:#F4E610;}
	.st11{fill:#53518C;}
	.st12{fill:#F8E82D;}
	.st13{fill:#4F4D85;}
	.st14{fill:#F1E019;}
	.st15{fill:#EFDE27;}
	.st16{fill:#343253;}
	.st17{fill:#51497C;}
	.st18{fill:#E7D617;}
	.st19{fill:#C7B817;}
	.st20{fill:#9D9121;}
	.st21{fill:#A79C29;}
	.st22{fill:#875C8C;}
	.st23{fill:#939A9A;}
	.st24{fill:#211C39;}
	.st25{fill:#312D58;}
	.st26{fill:#28264C;}
	.st27{fill:#4F5182;}
	.st28{fill:#57528E;}
	.st29{fill:#211D38;}
	.st30{fill:none;}
	.st31{fill:#F1F8F9;}
	.st32{font-family:'Exo2-Regular';}
	.st33{font-size:117.2265px;}
	.st34{opacity:0.35;}
	.st35{fill:#F5E82F;}
	.st36{opacity:0.63;}
	.st37{opacity:0.79;}
</style>
<rect x="257" y="114.5" class="st0" width="654.8" height="654.8"/>
<path class="st1" d="M551.1,382.9c-3-1.3-6.1-2.6-9.2-3.8c-8.2-3.2-16.3-6.3-24.5-9.4c-4.4-1.7-8.7-3.4-13-5.1c1.5-4,3-7.9,4.5-11.9
	c1.4-3.9,1-8.1,1.9-12c0.1-0.6-0.1-1.2-0.1-1.8c-0.2-1.5-0.5-3-0.7-4.5c-0.5-4-1.8-7.5-4.4-10.7c-1.5-1.8-3-3.3-5.1-4.2
	c-2.5-1.1-4.9-2.3-7.4-3.4c-1.3-0.6-2.7-1.1-4-1.7c-1.3-0.6-2.9-0.7-3.9-2c1.5-1.7,3-3.4,4.5-5.2c2.6-1.1,3.6-3.6,5.2-5.6
	c4.5-5.7,7.2-12.2,8.7-19.3c0.8-4.2,0.7-8.5,0-12.6c-0.7-3.7-2.3-7.1-5.3-9.9c-2.7-2.6-5.9-3.5-9.2-4.6c-0.8-0.2-1.6-0.4-2.3-0.5
	c-1.1-1-2.5-1.3-4-1.4c-2.7-0.9-5.4-2-8.2-2.8c-10-3.1-20.1-6.1-30.1-9.3c-2.9-0.9-5.7-2-8.6-3c-0.2-12-0.3-24-0.5-36
	c0-3.3,0-6.7,0-10c-0.1-22.4-0.2-44.7-0.4-67.1c-0.2-27.2-0.5-54.5-0.7-81.7c-0.1-5.9-0.1-11.9-0.1-17.8c0-1.5-0.4-3.1,0.6-4.4
	c1.9,0.4,3.8,0.9,5.8,1.2c9.8,1.5,19.5,3,29.3,4.5c7.3,1.2,14.7,2.5,22,3.6c9.3,1.5,18.6,2.9,27.9,4.3c8.9,1.4,17.7,2.8,26.5,4.3
	c5.2,0.9,10.4,1.9,15.7,2.9c-0.1,1.5-0.2,3-0.2,4.6c-0.3,13.4-0.5,26.8-0.8,40.2c-0.3,15.2-0.6,30.5-0.9,45.7
	c-0.3,14.8-0.6,29.5-0.9,44.3c-0.4,17.2-0.7,34.4-1.1,51.6c-0.3,13.3-0.5,26.5-0.8,39.8c-0.4,19.5-0.8,39-1.2,58.5
	c-0.4,19-0.8,38.1-1.2,57.1c0,0,0,0,0,0c-0.3,0-0.6,0-0.8,0.2c0,0-0.1,0-0.1,0C552.8,383.5,552,383.2,551.1,382.9z"/>
<path class="st2" d="M200.9,478c-0.8,0.5-1.4,0.1-2.1-0.3c-7.6-4.4-15.3-8.8-22.9-13.3c-9.1-5.3-18.1-10.6-27.2-15.9
	c-1-0.6-2-1.3-3.1-2.1c0.4-1.3,0.6-2.4,1-3.5c18.7-55.7,37.5-111.4,56.3-167c0.4-1.3,0.2-3.2,2.2-3.7c2.2,0.9,4.3,1.8,6.5,2.8
	c3.3,1.4,6.6,2.9,10,4.3c10.1,4.1,20.3,8.1,30.5,12.2c3.4,1.4,6.6,3,10,4.4c-0.2,0.4-0.4,0.8-0.5,1.3c-16,47.9-32.1,95.7-48.1,143.6
	C209.1,453.2,205,465.6,200.9,478z"/>
<path class="st3" d="M397.3,427.7c-5.9-2.8-11.8-5.6-17.7-8.4c-5.5-2.6-11-5.1-16.5-7.7c-0.5-0.2-1.2-0.3-1.7-0.5
	c-0.5-0.8-1.1-1.5-1.5-2.3c-7.1-13.4-14.3-26.8-21.4-40.3c-7.2-13.6-14.3-27.2-21.5-40.7c-2.1-4-4.4-7.9-6.7-11.9
	c-1.6-3.2-3.2-6.5-4.8-9.7c-0.8-1.6-1.5-3.3-2.2-4.9c-0.2-7-0.3-14-0.6-21c-0.4-11.2-0.9-22.5-1.4-33.7c0-0.7-0.1-1.5,0.1-2.2
	c0.1-0.3,0.7-0.4,1.1-0.6c2.1,0.9,4.1,1.9,6.2,2.6c10,3.5,19.9,7,29.9,10.5c4,1.4,8,2.7,12,4c4.1,1.5,8.2,3.1,12.3,4.6
	c11.4,4,22.8,8,34.2,12c0.4,19.9,0.7,39.9,1.1,59.8c0.4,22.7,0.8,45.4,1.2,68c0.1,7.5,0.4,14.9,0.6,22.4c0,0,0,0.1,0,0.1
	C399.2,427.8,398.3,427.7,397.3,427.7z"/>
<path class="st4" d="M400.2,427.7c-0.2-7.5-0.5-14.9-0.6-22.4c-0.4-22.7-0.8-45.4-1.2-68c-0.4-19.9-0.7-39.9-1.1-59.8
	c9.4-3,18.8-6,28.2-9c6.8-2.2,13.6-4.3,20.4-6.5c0.5,0,0.9,0,1.3-0.1c6.8-2,13.6-4.1,20.5-5.9c2.5-0.7,5.1-0.8,7.6-1
	c2.1-0.2,4.2-0.2,6.4-0.2c1.6,0,3.2,0,4.8,0c0.8,0.2,1.6,0.4,2.3,0.5c0.1,1.8,0.3,3.6,0.3,5.5c0,13.9-0.1,27.7-0.1,41.6
	c0,1.7,0.3,3.3,0.4,5c-1.5,1.7-3,3.4-4.5,5.2c-1.4,0.6-2.4,1.4-2.9,3.3c2.5,0.2,4.6,0.4,6.8,0.5c0,8.4,0.1,16.8,0.1,25.1
	c0,0.7-0.4,1.4-0.7,2.1c-0.2-1.2-0.6-2.4-0.7-3.6c-0.3-2.7-1.9-4.6-4-5.7c-2.4-1.1-5.2-2.2-7.8-2.1c-4.5,0.2-9.1,0.5-13.5,1.9
	c-11.7,3.7-23.2,8-34.7,12.3c-1.8,0.7-3.6,1.4-5.3,2.1c0,4.4,0,8.5,0,12.6c-0.2,0.3-0.2,0.6,0,0.8c0,6.1,0.1,12.2,0.1,18.4
	c0,0.3,0.1,0.6,0.1,0.8c0,0.6,0.1,1.2,0.1,1.8c-0.1,2.1-0.2,4.2-0.2,6.4c0,2.3,0.1,4.6,0.2,6.8c0.1,2.1-0.2,4.2,0.5,6.2
	c0.7-0.1,1.2-0.1,1.6-0.2c12.9-5,25.4-10.8,38-16.5c0.8-0.4,1.4-1.1,2-1.7c3.1-1.4,6-3,8.5-5.4c0.5-0.5,0.8-1.2,1.1-1.8
	c2.3-0.9,4-2.5,5.3-4.5c1.3-1.9,2.6-3.7,4-5.4c2-2.5,3.6-5.2,4.4-8.3c1.1,0.9,0.8,2.2,0.8,3.4c0,6,0,12,0,18.1c0,1.1-0.4,2.5,1,3.2
	c-4.1,3.5-8.1,7.2-12.6,10.3c-5.1,3.6-10.3,6.9-16,9.4c-4.4,2-8.7,4.1-13.2,6.1c-4.1,1.8-8.4,3.5-12.5,5.2c-2.9,1.2-5.9,2.5-8.8,3.7
	c-5.9,2.4-11.7,4.9-17.6,7.3c-0.7,0.3-1.4,0.5-2,0.9C405,427.1,402.7,427.8,400.2,427.7z M464.2,315.2c0.5-0.3,1.2-0.4,1.6-0.8
	c1.7-1.6,3.5-3.1,5.6-4.3c0.1-0.1,0.1-0.3,0.2-0.4c2.5-1.6,4.3-3.9,5.9-6.2c1.2-1.9,2.3-4,2.8-6.2c1.4-6.1,2.5-12.2,0.1-18.4
	c-0.1-0.3-0.3-0.5-0.4-0.9c-1.3-0.9-2.7-1.8-4.1-2.7c-1.3-0.9-2.7-1.2-4.3-1.2c-5.5,0.1-10.8,0.6-16.2,2.5
	c-10.1,3.4-20.3,6.4-30.4,9.6c-1.3,0.4-2.4,1.1-3.7,1.6c0,5.4-0.1,10.6,0,15.7c0.1,4.3,0.3,8.5,0.5,12.8c-0.4,6.2-0.2,12.3,0.6,15.3
	c0.4-0.1,0.9-0.1,1.3-0.2c10.1-3.7,20.2-7.3,30.2-11.3C457.5,318.6,461.2,317.6,464.2,315.2z"/>
<path class="st5" d="M554.7,383.7c0.4-19,0.8-38.1,1.2-57.1c0.4-19.5,0.8-39,1.2-58.5c0.3-13.3,0.5-26.5,0.8-39.8
	c0.3-17.2,0.7-34.4,1.1-51.6c0.3-14.8,0.6-29.5,0.9-44.3c0.3-15.2,0.6-30.5,0.9-45.7c0.3-13.4,0.5-26.8,0.8-40.2
	c0-1.5,0.1-3,0.2-4.6c1.3-0.4,2.5-0.9,3.8-1.2c5.2-1,10.4-1.9,15.5-2.9c0.9,0.5,1.1,1.4,1.1,2.3c0,4.4,0.5,8.9-0.1,13.3
	c-1.6,11.4-0.4,22.8-0.8,34.2c-0.1,2.7,0.2,5.5-0.7,8.1c-0.4,1.1-0.2,2.4-0.2,3.6c0,8.7,0,17.4,0,26.1c0,1.8-0.4,3.6-0.6,5.4
	c-0.1,1.4-0.3,2.7-0.3,4.1c0,9.6,0,19.2,0,28.8c0,1.8-0.4,3.6-0.6,5.4c-0.1,1.5-0.3,3-0.3,4.5c0,8.7,0,17.4,0,26.1
	c0,1.7-0.4,3.3-0.5,5c-0.1,1.5-0.3,3-0.3,4.5c0,10.7,0,21.3,0,32c0,2,0,3.9-0.6,5.9c-0.4,1.3-0.3,2.7-0.3,4.1c0,7.8,0,15.6,0,23.3
	c0,1.8-0.4,3.6-0.6,5.4c-0.1,1.5-0.3,3-0.3,4.5c0,9.9,0,19.8,0,29.7c-0.2,1-0.5,2.1-0.5,3.1c-0.2,5-0.3,10-0.3,14.9
	c-0.1,5-0.1,10-0.1,14.9c-0.7,3.8-0.8,7.6-0.4,11.9c1.3-0.4,2.3-0.5,3.2-0.9c5-2.1,10-4.2,15-6.3c2.1-0.9,4.1-1.9,6.1-2.8
	c0.4,0,0.7,0,1.1-0.1c-0.6,1.7-1.2,3.4-1.9,5c-1.8,4.3-3.6,8.5-5.4,12.8c0.2,0.2,0.5,0.5,0.7,0.7c-8.9,3.8-17.7,7.5-26.6,11.3
	c-2.5,1.1-4.8,2.4-7.3,3.5C557.9,382.9,556.2,383.2,554.7,383.7z"/>
<path class="st6" d="M592.6,366.7c1.8-4.3,3.6-8.5,5.4-12.8c0.7-1.6,1.2-3.3,1.9-5c3.8-1.6,7.5-3.2,11.3-4.8c3.9-1.7,7.9-3.2,11.7-5
	c3.7-1.7,7.7-2.6,11.4-5.3c-2.7-1-4.9-1.8-7.2-2.6c-8.3-2.8-16.7-5.6-25-8.4c-0.9-0.8-1.7-1.8-2.6-2.4c-4.6-3.1-9.3-6.2-14.1-9.4
	c-0.1-0.6-0.3-1.2-0.3-1.7c0.1-5.6,0.2-11.2,0.3-16.8c0-1.1-0.2-2.5,1.5-2.9c0.3,0.5,0.6,1.1,1,1.5c4.8,4.7,9.3,9.6,14.7,13.6
	c8.8,6.6,18,12.4,28.5,16.1c2.3,0.8,4.6,1.7,6.9,2.3c2.2,0.6,4.5,0.9,6.6,1.6c4.3,1.2,8.6,1.2,13.1,0.8c3.4-0.3,6-1.7,8.8-3.3
	c1.8-1,2.8-2.6,3.6-4.5c1.7-3.9,2.3-7.9,0.8-12c-1.3-4.3-3.2-8.1-6.5-11.3c-3.9-3.9-8.6-6.8-13.4-9.4c-6.7-3.6-13.6-6.9-20.4-10.3
	c-0.7-1.1-1.8-0.8-2.8-1c-1.8-1.1-3.6-2.2-5.4-3.3c-3-1.8-5.9-3.7-9-5.4c-3.8-2.1-6.7-5.2-10-7.8c-5.5-4.4-8.8-10.4-12-16.4
	c-1-1.9-1.2-4.3-1.7-6.6c-0.4-1.9-0.7-3.9-0.9-5.8c-0.7-7,1-13.2,5.7-18.6c3.3-3.8,7.3-6.3,12-7.9c2.7-0.9,5.3-2.2,8.3-2.4
	c1.5-0.1,3,0.1,4.5-0.3c1.7-0.4,3.2-0.3,4.9,0c1.8,0.3,3.6,0.2,5.4,0.3c1.8,0.1,3.6,0.2,5.4,0.4c1.9,0.2,3.9,0.5,5.8,0.7
	c6.9,2.4,13.8,4.7,20.7,7.1c0.4,0.1,0.9,0.1,1.4,0.1c0.5,0.3,1,0.6,1.6,0.8c2.7,1.1,5.5,1.8,8.1,3.1c7.2,3.7,14.2,7.6,21.3,11.5
	c0,1.2-0.1,2.4-0.1,3.6c-0.2,6-0.4,12-0.6,18c-0.6,0-1.3,0.2-1.7,0c-1.2-0.7-2.3-1.5-3.3-2.4c-3.3-3.1-6.8-6.1-10.6-8.7
	c-5.5-3.9-11.1-7.5-17.3-10.1c-2.2-1-4.4-2.1-6.6-3c-6.1-2.5-12.4-4.1-18.9-4.6c-1.5-0.1-3-0.7-4.5-0.6c-2.6,0.1-5.1,0.5-7.7,0.9
	c-3.9,0.7-7.5,2.6-9.6,5.8c-3.1,4.8-3.2,10.3-1.3,15.8c2.1,6,6.7,10.2,11.7,13.6c4.2,2.9,8.9,5.3,13.5,7.7c5.7,3,11.4,5.8,17.2,8.6
	c2.9,1.4,5.8,2.7,8.7,4c4.5,2.9,8.9,5.8,13.4,8.7c4.3,3.4,7.9,7.6,11.7,11.5c0.7,0.7,1.3,1.7,1.7,2.7c1.8,3.7,3.6,7.4,5.4,11.1
	c0.3,4,0.7,7.9,1,11.9c-0.4,2.2-0.9,4.3-1.3,6.5c-1.1,2.1-2.2,4.2-3.3,6.3c-2.1,2.1-4.1,4.3-6.2,6.4c-1.5,0.8-2.8,1.8-4.4,2.3
	c-8.6,3.2-17.4,3.9-26.5,2.7c-5.3-0.7-10.3-2.4-15.5-3.6c-0.9-0.2-1.7-0.3-2.8-0.6c-1.3,3.8-0.1,7.7-1.6,11.7
	c-4.3,1.9-8.9,3.9-13.5,5.9c-7.4,3.2-14.8,6.4-22.2,9.6c-0.8,0.4-1.6,0.9-2.4,1.3C594.8,366.5,593.7,366.6,592.6,366.7z"/>
<path class="st7" d="M303.4,301.3c0.7,1.7,1.4,3.3,2.2,4.9c1.6,3.3,3.2,6.5,4.8,9.7c-1.2,1.1-2.5,2.2-3.6,3.4
	c-5.2,5.3-10.3,10.6-15.5,15.9c-0.6-1-1.4-2-1.9-3c-2.9-5.5-5.8-11-8.7-16.5c-0.5-0.9-1.1-1.6-1.9-2.7c-0.5,1.2-0.9,2-1.2,2.9
	c-3.8,11.8-7.7,23.6-11.5,35.4c-0.3,1-0.4,2.1-0.7,3.1c-0.4,1-0.9,1.9-1.2,2.9c-3,9.4-6.1,18.7-9.1,28.1c-0.2,0.7-0.3,1.5-0.4,2.2
	c-2.3,5.5-2.5,6.4-2.3,8.8c0.3,0,0.6,0.1,0.9,0c5.2-1.9,10.5-3.7,15.7-5.7c4.4-1.6,8.7-3.4,13-5c0.8-0.3,1.6-0.5,2.4-0.8
	c0.4,0,0.8,0,1.1,0c0.1,2.4,0.1,4.8,0.3,7.2c0.2,3.1,0.1,6.3,1.4,9.3c-14.1,5.2-28.1,10.5-42.4,15.8c-5.4,16.7-10.8,33.4-16.2,50.1
	c-4.7,1.9-9.2,3.7-13.7,5.5c-4.1,1.6-8.2,3.2-12.3,4.8c-0.6,0.2-1.2,0.3-1.7,0.4c4.1-12.4,8.2-24.8,12.4-37.2
	c16-47.9,32.1-95.7,48.1-143.6c0.1-0.4,0.3-0.9,0.5-1.3c5.9-1.8,11.8-3.6,17.7-5.6c4.7-1.5,9.6-2.5,14.1-4.8c1.3,0,1.7,1.1,2.2,2
	c1.8,3.3,3.5,6.6,5.3,9.9C301.8,298.8,302.6,300,303.4,301.3z"/>
<path class="st8" d="M350.9,260.9c-4-1.3-8-2.6-12-4c-10-3.5-20-7-29.9-10.5c-2.1-0.8-4.2-1.7-6.2-2.6c1.4-0.6,2.8-1.3,4.2-1.7
	c8.2-2.3,16.4-4.4,24.6-6.7c4.7-1.3,9.3-2.7,14-4c5.7-1.5,11.5-2.8,17.3-4.2c0.4-0.1,0.9-0.1,1.3-0.3c8.5-3.2,17.4-2.5,26.2-2.4
	c1.8,0,3.6,0.6,5.3,1.1c11,3.4,22,7,33,10.4c2.3,0.7,4.7,1.3,7,2c2.9,1,5.7,2.1,8.6,3c10,3.1,20,6.1,30.1,9.3
	c2.8,0.9,5.5,1.9,8.2,2.8c-0.3,0.2-0.7,0.5-1,0.7c-4.8-0.4-9.6-0.6-14.4-1.3c-4.5-0.7-9-0.6-13.5-0.4c-2.6,0.1-5.1,0.5-7.6,0.8
	c-3.3,0-6.6,0-9.8,0.1c-0.7,0-1.4,0.5-2,0.7c-2.5,0.1-5.1,0.1-7.6,0.2c-0.9,0.1-1.7,0.4-2.5,0.7c-1.4,0-2.7-0.1-4.1,0
	c-4.4,0.3-8.8,0.6-13.2,1c-4.8,0.4-9.7,0.8-14.5,1.2c-5.1,0.5-10.3,1-15.4,1.5c-5,0.4-10,0.8-15,1.2c-2.9,0.2-5.7,0.5-8.6,0.8
	C352.3,260.4,351.6,260.7,350.9,260.9z"/>
<path class="st9" d="M291.3,335.2c5.1-5.3,10.3-10.6,15.5-15.9c1.2-1.2,2.4-2.3,3.6-3.4c2.2,4,4.5,7.9,6.7,11.9
	c7.2,13.6,14.3,27.2,21.5,40.7c7.1,13.4,14.2,26.9,21.4,40.3c0.4,0.8,1,1.5,1.5,2.3c0.3,0.8,0.5,1.7,0.8,2.7c-0.8,0.4-1.5,1-2.3,1.3
	c-7.1,2.9-14.2,5.7-21.4,8.5c-0.4,0.1-0.9,0-1.3,0c-0.3-0.7-0.5-1.4-0.9-2.1c-5.2-10-10.4-20-15.6-30c-0.3-0.6-0.8-1.2-1.3-2
	c-4.7,1.7-9.3,3.4-13.8,5.1c-5.4,2-10.8,4.1-16.2,6.2c-0.7,0.2-1.4,0.4-2.1,0.6c-1.3-3-1.2-6.2-1.4-9.3c-0.2-2.4-0.2-4.8-0.3-7.2
	c0.4-0.2,0.7-0.5,1.2-0.7c6.2-2.3,12.4-4.4,18.6-6.7c2-0.8,4.4-1,5.9-2.8c-0.2-0.7-0.3-1.5-0.6-2.1c-4.3-8.2-8.7-16.4-13-24.7
	C295.5,343.6,293.4,339.4,291.3,335.2z"/>
<path class="st10" d="M694.6,306c-1.8-3.7-3.5-7.4-5.4-11.1c-0.5-0.9-1-1.9-1.7-2.7c-3.8-3.9-7.3-8.1-11.7-11.5
	c7.4-4,15.4-6.3,23.1-9.5c8.4-3.4,16.9-6.5,25.4-9.8c6.6-2.6,13.3-5.1,19.9-7.8c2.5-1,5.2-1.8,7.3-3.5c2.3,0.9,4.3,2.2,5.9,4.1
	c0.7,0.8,1.4,1.6,2.3,2.2c5,3.9,7.6,9.4,10.3,14.9c0.5,1.1,0.9,2.2,0.7,3.5c-0.2,0-0.3,0-0.5,0.1c-7.2,3.2-14.4,6.5-21.6,9.6
	c-6.6,2.8-13.2,5.4-19.8,8.1c-5.6,2.3-11.2,4.7-16.8,7c-4.3,1.8-8.7,3.6-13,5.6C697.5,305.9,696.1,306,694.6,306z"/>
<path class="st3" d="M670.9,305.9c1.5,4.1,0.9,8-0.8,12c-0.8,1.9-1.9,3.4-3.6,4.5c-2.7,1.6-5.4,3.1-8.8,3.3
	c-4.5,0.3-8.8,0.4-13.1-0.8c-2.2-0.6-4.5-0.9-6.6-1.6c-2.3-0.7-4.6-1.5-6.9-2.3c-10.4-3.7-19.7-9.5-28.5-16.1
	c-5.4-4.1-9.9-9-14.7-13.6c-0.4-0.4-0.7-1-1-1.5c5.8-2.2,11.6-4.4,17.5-6.6c7.5-2.8,15.1-5.6,22.6-8.3c0.9,0.1,1.8,0.2,2.6,0.3
	c2.2,4,4.5,7.9,6.7,11.9c0.1,0.3,0.3,0.5,0.6,0.7c4,4.1,7.8,8.5,13,11.4c4.6,2.5,9.2,4.8,14.3,5.7
	C666.4,305.1,668.7,305.5,670.9,305.9z"/>
<path class="st11" d="M693.6,223.6c-7.1-3.8-14.1-7.8-21.3-11.5c-2.5-1.3-5.4-2.1-8.1-3.1c-0.5-0.2-1.1-0.5-1.6-0.8
	c0.9-1.9,2.7-2.3,4.4-2.9c6.3-2.1,12.6-4.3,19-6.3c4.5-1.5,9-2.8,13.4-4.2c3.7-1.2,7.4-2.7,11.1-3.9c6.9-2.3,13.8-4.4,20.7-6.6
	c0.7-0.2,1.4-0.6,2-1c0.4-0.4,0.5-1,0.8-1.6c0.9,0,1.9,0,2.8,0c5.7,1.4,11.3,3.2,16.5,5.9c5.1,2.6,10.2,5.2,15.3,7.7
	c0.8,0.4,1.6,0.8,1.8,1.8c-4.5,1.4-9,2.8-13.4,4.3c-12.5,4.3-24.9,8.7-37.4,13.1C711.1,217.5,702.3,220.5,693.6,223.6z"/>
<path class="st12" d="M751.5,250.2c-2.2,1.7-4.8,2.5-7.3,3.5c-6.6,2.7-13.2,5.2-19.9,7.8c-8.5,3.3-17,6.4-25.4,9.8
	c-7.7,3.1-15.7,5.5-23.1,9.5c-4.5-2.9-8.9-5.8-13.4-8.7c0.8-0.4,1.6-0.9,2.4-1.2c9.2-3.5,18.5-7,27.7-10.5c3.4-1.3,6.8-2.6,10.7-4.1
	c-1.1-0.7-1.7-1.1-2.4-1.3c-7.8-2.5-15.6-5-23.4-7.6c-3.2-1.1-6.3-2.2-9.3-3.7c-2.6-1.3-4.9-3.1-7.2-4.8c-0.7-0.5-1.3-1.3-1.7-2.1
	c-2.6-5.2-2.5-6.6,0.2-12c0.1-0.3,0.3-0.5,0.5-0.8c6.2,2.7,11.8,6.3,17.3,10.1c3.8,2.6,7.2,5.5,10.6,8.7c1,0.9,2.1,1.7,3.3,2.4
	c0.4,0.3,1.1,0,1.7,0c5.1-1.8,10.2-3.6,15.3-5.4c4-1.4,8-2.8,11.9-4.3c1.4-0.5,2.6-0.5,3.9,0c4.2,2,8.4,4.1,12.7,6.1
	C741.9,243.9,746.9,246.7,751.5,250.2z"/>
<path class="st5" d="M724,235.4c-1.3-0.4-2.5-0.5-3.9,0c-3.9,1.5-7.9,2.9-11.9,4.3c-5.1,1.8-10.2,3.6-15.3,5.4c0.2-6,0.4-12,0.6-18
	c0-1.2,0.1-2.4,0.1-3.6c8.7-3,17.4-6.1,26.2-9.1c12.5-4.4,24.9-8.8,37.4-13.1c4.4-1.5,8.9-2.9,13.4-4.3c1.1,0.7,1.3,1.8,0.9,2.8
	c-0.8,1.9-0.8,3.9-0.7,5.8c0.2,3.4-0.4,6.6-0.9,9.9c-0.2,1.1-0.7,2-1.7,2.5c-0.7,0.3-1.4,0.7-2.1,0.9c-5.7,2-11.5,3.9-17.2,6
	c-7.8,2.9-15.6,5.8-23.4,8.7C724.5,234,724.2,234.6,724,235.4z"/>
<path class="st8" d="M602.1,322.9c8.3,2.8,16.7,5.6,25,8.4c2.3,0.8,4.5,1.6,7.2,2.6c-3.6,2.7-7.7,3.6-11.4,5.3
	c-3.9,1.8-7.8,3.3-11.7,5c-3.8,1.6-7.5,3.2-11.3,4.8c-0.4,0-0.7,0-1.1,0.1c-1.2-0.1-2.4-0.1-3.6-0.2c-6.8-0.5-13.5-1-20.3-1.6
	c0-5,0-10,0.1-14.9c0.1-5,0.2-10,0.3-14.9c0-1,0.3-2.1,0.5-3.1c7.6,2.5,15.2,5,22.8,7.5C599.8,322.1,600.9,322.5,602.1,322.9z"/>
<path class="st13" d="M734.1,181.6c-0.2,0.5-0.4,1.2-0.8,1.6c-0.6,0.5-1.3,0.8-2,1c-6.9,2.2-13.8,4.4-20.7,6.6
	c-3.7,1.2-7.4,2.7-11.1,3.9c-4.4,1.5-8.9,2.8-13.4,4.2c-6.3,2.1-12.6,4.2-19,6.3c-1.7,0.6-3.5,1-4.4,2.9c-0.5,0-0.9,0-1.4-0.1
	c-6.9-2.3-13.8-4.7-20.7-7.1c0.1-1,0.5-1.8,1.4-2.2c1-0.4,2-0.8,3-1.1c7.2-2.2,14.5-4.4,21.7-6.7c9-2.8,17.9-5.7,26.9-8.6
	c2.2-0.7,4.4-1.1,6.5-1.9c3-1.1,6.2-1.6,8.9-3.5c0.8-0.6,2-0.7,3-0.9c1.2-0.1,2.4,0,3.6,0c2.1,0.3,4.3,0.6,6.4,0.9
	c0.7,1,1.7,1.1,2.8,0.9l0,0c0.9,1.2,2.3,0.9,3.5,1l0.1,0c0.7,1,1.7,0.9,2.7,0.8c0,0,0.1,0,0.1,0c0.6,1,1.6,1,2.6,0.9
	c0,0,0.1,0,0.1,0C734,181,734,181.3,734.1,181.6z"/>
<path class="st6" d="M488.2,343.4c0.2-0.7,0.7-1.4,0.7-2.1c0-8.4,0-16.8-0.1-25.1c1.4-0.1,2.7-0.1,4.1-0.2c2.5,1.1,4.9,2.3,7.4,3.4
	c2.1,0.9,3.6,2.4,5.1,4.2c2.6,3.2,3.9,6.7,4.4,10.7c0.2,1.5,0.5,3,0.7,4.5c0.1,0.6,0.3,1.2,0.1,1.8c-0.8,4-0.4,8.2-1.9,12
	c-1.5,4-3,7.9-4.5,11.9c-1.7,2.5-3.3,5.1-5.2,7.4c-3,3.7-6.3,7.3-9.4,11c-1.4-0.8-1-2.1-1-3.2c0-6,0-12,0-18.1
	c0-1.2,0.3-2.4-0.8-3.4c1.1-4.8,1.8-9.6,0-14.4C488.1,343.7,488.2,343.6,488.2,343.4z"/>
<path class="st14" d="M293.6,285.6c-4.5,2.3-9.4,3.2-14.1,4.8c-5.9,1.9-11.8,3.7-17.7,5.6c-3.3-1.5-6.6-3.1-10-4.4
	c-10.1-4.1-20.3-8.1-30.5-12.2c-3.4-1.4-6.7-2.9-10-4.3c0.9-1.1,2.2-0.9,3.4-1c2.7-0.2,5.5-0.2,8.2-0.5c3.8-0.4,7.5-1,11.3-1.3
	c5.6-0.5,11.2-0.8,16.8-1.1c1.1-0.1,2.1-0.1,2.9-1c3.4,1.2,6.8,2.4,10.2,3.7c8.9,3.4,17.8,6.8,26.7,10.3
	C291.8,284.5,292.7,285.1,293.6,285.6z"/>
<path class="st15" d="M581.1,37.8c-5.2,1-10.4,1.9-15.5,2.9c-1.3,0.3-2.6,0.8-3.8,1.2c-5.2-1-10.4-2-15.7-2.9
	c-8.8-1.5-17.7-2.9-26.5-4.3c-9.3-1.5-18.6-2.8-27.9-4.3c-7.3-1.2-14.7-2.5-22-3.6c-9.7-1.5-19.5-3-29.3-4.5
	c-1.9-0.3-3.9-0.8-5.8-1.2c4.2-0.7,8.4-1.4,12.6-2.1c1.4-0.2,2.7-0.4,4-0.7c2.3-0.5,4.5-0.4,6.8-0.1c11.1,1.8,22.2,3.4,33.3,5.2
	c8.3,1.3,16.5,2.7,24.8,4c9.5,1.5,18.9,2.8,28.4,4.3c4.4,0.7,8.7,1.4,13.1,2.1c7.2,1.1,14.4,2.2,21.6,3.3
	C579.7,37.2,580.4,37.6,581.1,37.8z"/>
<path class="st12" d="M694.6,306c1.5,0,3-0.1,4.4-0.8c4.3-1.9,8.6-3.8,13-5.6c5.6-2.4,11.2-4.7,16.8-7c6.6-2.7,13.2-5.3,19.8-8.1
	c7.2-3.1,14.4-6.4,21.6-9.6c0.1-0.1,0.3,0,0.5-0.1c0.4,2.7,0.8,5.3,1.1,8c0.2,1.6,0.2,3.3-0.8,4.8c-1.3,0.2-2.8,0.2-4,0.7
	c-2.8,1.1-5.6,2.4-8.3,3.6c-5,2.2-10,4.4-15,6.5c-7.4,3.1-14.8,6.2-22.2,9.4c-7.2,3.1-14.4,6.3-21.7,9.4c-1.2,0.5-2.6,0.5-4,0.7
	C695.3,313.9,694.9,310,694.6,306z"/>
<path class="st16" d="M289.4,400.8c5.4-2.1,10.8-4.1,16.2-6.2c4.5-1.7,9.1-3.3,13.8-5.1c0.5,0.8,1,1.3,1.3,2c5.2,10,10.4,20,15.6,30
	c0.3,0.7,0.6,1.4,0.9,2.1c-6-2.8-12.1-5.5-18.1-8.4c-9.1-4.4-18.3-8.8-27.4-13.2C290.9,401.7,290.2,401.3,289.4,400.8z"/>
<path class="st17" d="M715.7,176.1c-1.2,0-2.4-0.1-3.6,0c-1,0.1-2.2,0.3-3,0.9c-2.7,1.9-5.9,2.4-8.9,3.5c-2.1,0.8-4.4,1.2-6.5,1.9
	c-9,2.8-17.9,5.7-26.9,8.6c-7.2,2.3-14.5,4.5-21.7,6.7c-1,0.3-2,0.7-3,1.1c-1,0.4-1.3,1.2-1.4,2.2c-1.9-0.2-3.9-0.5-5.8-0.7
	c-1.8-0.2-3.6-0.3-5.4-0.4c-1.8-0.1-3.6,0-5.4-0.3c-1.7-0.3-3.2-0.4-4.9,0c-1.4,0.3-3,0.2-4.5,0.3c1.7-0.6,3.3-1.4,5.1-1.9
	c10.2-3.2,20.3-6.3,30.5-9.4c10.9-3.4,21.8-6.8,32.6-10.2c0.9-0.3,1.8-0.3,2.6-0.7c4.5-2.1,9.4-2.5,14.3-2.7
	c4.5-0.2,9.1,0.3,13.7,0.6C714.3,175.5,715,175.9,715.7,176.1z"/>
<path class="st18" d="M695.6,317.9c1.3-0.2,2.8-0.2,4-0.7c7.3-3.1,14.5-6.3,21.7-9.4c7.4-3.2,14.8-6.2,22.2-9.4c5-2.1,10-4.3,15-6.5
	c2.8-1.2,5.5-2.5,8.3-3.6c1.2-0.5,2.7-0.5,4-0.7c0.1,2.4-0.6,4.6-2.3,6.4c-2.2-0.4-3.7,1-5.5,1.8c-5.2,2.2-10.3,4.3-15.5,6.6
	c-5.3,2.3-10.5,4.7-15.8,6.9c-8.5,3.7-17,7.4-25.5,10.9c-3.9,1.6-7.6,3.8-12,4.1C694.8,322.2,695.2,320.1,695.6,317.9z"/>
<path class="st19" d="M694.3,324.4c4.4-0.3,8.1-2.5,12-4.1c8.5-3.6,17-7.3,25.5-10.9c5.3-2.3,10.5-4.7,15.8-6.9
	c5.1-2.2,10.3-4.4,15.5-6.6c1.8-0.8,3.3-2.2,5.5-1.8c-0.8,2.3-1.9,4.3-4.1,5.5c-4.9,1.1-9.4,3.4-13.9,5.6c-5,2.5-10.2,4.6-15.4,6.9
	c-7.2,3.1-14.4,6.4-21.7,9.3c-6.9,2.7-13.5,6-20.3,9c-0.7,0.3-1.5,0.2-2.2,0.3C692.1,328.6,693.2,326.5,694.3,324.4z"/>
<path class="st20" d="M254,270.2c-0.8,0.9-1.8,0.9-2.9,1c-5.6,0.3-11.2,0.6-16.8,1.1c-3.8,0.3-7.5,1-11.3,1.3
	c-2.7,0.3-5.4,0.3-8.2,0.5c-1.2,0.1-2.5-0.1-3.4,1c-2.2-0.9-4.3-1.8-6.5-2.8c2.9-0.9,5.7-1.9,8.6-2.7c7-2,14-3.8,21-5.8
	c1.4-0.4,2.6-0.4,3.9,0.1c4.8,1.9,9.6,3.7,14.4,5.6C253.3,269.6,253.6,269.9,254,270.2z"/>
<path class="st21" d="M691,330.7c0.8-0.1,1.6,0,2.2-0.3c6.8-3,13.4-6.3,20.3-9c7.3-2.9,14.5-6.2,21.7-9.3c5.1-2.2,10.3-4.3,15.4-6.9
	c4.4-2.2,9-4.5,13.9-5.6c-2.2,3.8-6.2,5.3-9.8,7c-8.3,3.9-16.9,7.5-25.3,11.2c-13.7,6-27.4,12.1-41.1,18.1c-1.1,0.5-2.3,0.8-3.4,1.2
	C686.9,335,688.9,332.8,691,330.7z"/>
<path class="st22" d="M728.4,178.9c-1.2,0-2.6,0.2-3.5-1C726.1,178.3,727.2,178.6,728.4,178.9z"/>
<path class="st4" d="M592.6,366.7c1.1-0.1,2.2-0.2,3.3-0.3c-0.6,1-1.7,0.9-2.7,1C593.1,367.2,592.8,367,592.6,366.7z"/>
<path class="st22" d="M629.6,275c-0.9-0.1-1.8-0.2-2.6-0.3c0.3-0.3,0.6-0.5,0.9-0.8c1,0.2,2.2-0.1,2.8,1
	C630.3,274.9,629.9,275,629.6,275z"/>
<path class="st4" d="M397.3,427.7c0.9,0,1.9,0,2.8,0.1c0,0.8-0.3,1.4-1.2,1.1C398.4,428.6,397.9,428.1,397.3,427.7z"/>
<path class="st22" d="M724.9,178c-1.1,0.1-2.1,0.1-2.8-0.9C723,177.3,724,177.6,724.9,178z"/>
<path class="st22" d="M731.2,179.8c-1,0.1-2,0.1-2.7-0.8C729.6,178.8,730.5,179.1,731.2,179.8z"/>
<path class="st22" d="M733.9,180.8c-1,0.1-2,0.1-2.6-0.9C732.2,180.1,733.1,180.5,733.9,180.8z"/>
<path class="st4" d="M551.1,382.9c0.9,0.3,1.8,0.6,2.6,0.9C552.7,383.8,551.7,383.9,551.1,382.9z"/>
<path class="st22" d="M734.1,181.6c0-0.3-0.1-0.5-0.1-0.8c0.9,0.3,1.9,0.5,2.8,0.8C735.9,181.6,735,181.6,734.1,181.6z"/>
<path class="st5" d="M553.9,383.8c0.3-0.1,0.5-0.2,0.8-0.2C554.5,384.3,554.3,384.5,553.9,383.8z"/>
<path class="st23" d="M489.4,307.2c-0.2-1.7-0.4-3.3-0.4-5c0-13.9,0.1-27.7,0.1-41.6c0-1.8-0.2-3.6-0.3-5.5c3.3,1.1,6.6,2,9.2,4.6
	c2.9,2.8,4.6,6.2,5.3,9.9c0.8,4.1,0.9,8.4,0,12.6c-1.4,7.1-4.1,13.6-8.7,19.3C493,303.6,492,306.1,489.4,307.2z"/>
<path class="st21" d="M492.9,316c-1.4,0.1-2.7,0.1-4.1,0.2c-2.2-0.2-4.3-0.3-6.8-0.5c0.5-1.9,1.6-2.7,2.9-3.3c1,1.3,2.6,1.4,3.9,2
	C490.2,314.9,491.5,315.4,492.9,316z"/>
<path class="st21" d="M481.4,254c0.3-0.2,0.7-0.5,1-0.7c1.5,0.1,2.9,0.4,4,1.4c-1.6,0-3.2,0-4.8,0
	C481.6,254.4,481.5,254.2,481.4,254z"/>
<path class="st14" d="M350.9,260.9c0.7-0.2,1.4-0.5,2.2-0.6c2.9-0.3,5.7-0.6,8.6-0.8c5-0.4,10-0.7,15-1.2c5.1-0.5,10.3-1,15.4-1.5
	c4.8-0.4,9.7-0.8,14.5-1.2c4.4-0.3,8.8-0.7,13.2-1c1.4-0.1,2.7,0,4.1,0c0.3,0,0.6,0,0.9,0c4.7-0.2,9.3,0.1,13.6,2.2
	c1.7,0.9,3.7,1.3,5.5,1.9c1.5,0.5,2.1,1.6,2,3.1c-6.8,2.2-13.6,4.3-20.4,6.5c-9.4,3-18.8,6-28.2,9c-11.4-4-22.8-8-34.2-12
	C359,264,355,262.4,350.9,260.9z"/>
<path class="st2" d="M488.2,343.4c0,0.1-0.1,0.3-0.1,0.4c1.7,4.8,1.1,9.6,0,14.4c-0.8,3.1-2.4,5.8-4.4,8.3c-1.4,1.8-2.7,3.6-4,5.4
	c-1.4,2-3,3.7-5.3,4.5c-1.9-1.2-4.1-1.1-6.2-0.8c-3.7,0.5-7.4,1.2-11.2,1.9c-0.4,0.1-0.7,0.5-1.1,0.8c-5.4,0.7-10.8,1.4-16.2,2.2
	c-3.9,0.5-7.8,1-11.7,1.8c-1.8,0.4-3.6,0.6-5.4,0.5c0-0.6-0.1-1.2-0.1-1.8c0.1-0.1,0.3-0.2,0.3-0.3c-0.1-0.2-0.2-0.4-0.3-0.6
	c0-6.1-0.1-12.2-0.1-18.4c0.1-0.1,0.3-0.2,0.3-0.2c-0.1-0.2-0.2-0.4-0.3-0.6c0-4.1,0-8.2,0-12.6c1.7-0.7,3.5-1.4,5.3-2.1
	c11.5-4.3,23-8.5,34.7-12.3c4.4-1.4,9-1.8,13.5-1.9c2.6-0.1,5.4,1,7.8,2.1c2.2,1,3.8,3,4,5.7C487.6,341.1,488,342.2,488.2,343.4z"/>
<path class="st24" d="M421.9,316.1c-0.2-4.3-0.5-8.5-0.5-12.8c-0.1-5.2,0-10.3,0-15.7c1.2-0.5,2.4-1.2,3.7-1.6
	c10.1-3.2,20.4-6.1,30.4-9.6c5.3-1.8,10.7-2.3,16.2-2.5c1.6,0,3,0.3,4.3,1.2c1.3,1,2.8,1.9,4.1,2.7c0.2,0.4,0.3,0.6,0.4,0.9
	c2.4,6.1,1.3,12.3-0.1,18.4c-0.5,2.2-1.6,4.3-2.8,6.2c-1.6,2.4-3.4,4.7-5.9,6.2c-4.2-0.7-8.3-0.2-12.1,1.8c-1.2,0.2-2.4,0.3-3.6,0.5
	c-1.9,0.4-3.8,1-5.7,1.2c-4,0.4-8.1,0.7-12.1,1c-0.5,0-0.9,0.1-1.4,0.1C431.8,315.3,426.9,316.1,421.9,316.1z"/>
<path class="st25" d="M422.7,382.8c1.8,0.1,3.6-0.1,5.4-0.5c3.8-0.8,7.8-1.3,11.7-1.8c5.4-0.8,10.8-1.5,16.2-2.2
	c0.1,1,0.6,1.7,1.5,2.1c2.5,1.1,4.9,2.2,7.4,3.3c-0.7,0.6-1.3,1.3-2,1.7c-12.6,5.7-25.1,11.5-38,16.5c-0.4,0.2-0.9,0.1-1.6,0.2
	c-0.7-2-0.5-4.1-0.5-6.2c-0.1-2.3-0.2-4.6-0.2-6.8C422.5,387,422.6,384.9,422.7,382.8z"/>
<path class="st25" d="M421.9,316.1c5-0.1,9.9-0.8,14.8-1.7c0.4-0.1,0.9-0.1,1.4-0.1c4-0.3,8.1-0.6,12.1-1c1.9-0.2,3.8-0.9,5.7-1.2
	c1.2-0.2,2.4-0.4,3.6-0.5c1.1,0.6,2.2,1,3.2,1.7c0.7,0.5,1.1,1.3,1.7,2c-3,2.4-6.7,3.4-10.2,4.8c-10,3.9-20.1,7.5-30.2,11.3
	c-0.4,0.2-0.9,0.1-1.3,0.2C421.8,328.5,421.5,322.4,421.9,316.1z"/>
<path class="st12" d="M445.9,262c0.2-1.6-0.5-2.6-2-3.1c-1.8-0.6-3.8-1.1-5.5-1.9c-4.3-2.1-8.9-2.4-13.6-2.2c-0.3,0-0.6,0-0.9,0
	c0.8-0.2,1.7-0.6,2.5-0.7c2.5-0.1,5.1-0.2,7.6-0.2c3.1,0,6.3,0.1,9.4,0c0.8,0,1.6-0.5,2.5-0.8c2.5-0.3,5.1-0.7,7.6-0.8
	c4.5-0.2,9-0.4,13.5,0.4c4.7,0.8,9.6,0.9,14.4,1.3c0.1,0.2,0.2,0.5,0.3,0.7c-2.1,0.1-4.2,0.1-6.4,0.2c-2.6,0.2-5.2,0.4-7.6,1
	c-6.9,1.8-13.7,3.9-20.5,5.9C446.8,262,446.3,261.9,445.9,262z"/>
<path class="st26" d="M464.8,383.7c-2.5-1.1-4.9-2.2-7.4-3.3c-0.9-0.4-1.4-1.1-1.5-2.1c0.4-0.3,0.7-0.7,1.1-0.8
	c3.7-0.7,7.4-1.3,11.2-1.9c2.1-0.3,4.3-0.3,6.2,0.8c-0.4,0.6-0.6,1.3-1.1,1.8C470.8,380.7,467.9,382.3,464.8,383.7z"/>
<path class="st27" d="M464.2,315.2c-0.5-0.7-1-1.5-1.7-2c-1-0.7-2.1-1.2-3.2-1.7c3.8-2,7.9-2.5,12.1-1.8c-0.1,0.1-0.1,0.3-0.2,0.4
	c-2.1,1.2-3.8,2.7-5.6,4.3C465.4,314.8,464.8,314.9,464.2,315.2z"/>
<path class="st25" d="M422.3,360.9c0.1,0.2,0.2,0.4,0.3,0.6c0,0-0.2,0.2-0.3,0.2C422.1,361.5,422.1,361.2,422.3,360.9z"/>
<path class="st25" d="M422.5,380.1c0.1,0.2,0.3,0.4,0.3,0.6c0,0-0.2,0.2-0.3,0.3C422.5,380.7,422.5,380.4,422.5,380.1z"/>
<path class="st15" d="M574.9,347.2c6.8,0.5,13.5,1,20.3,1.6c1.2,0.1,2.4,0.1,3.6,0.2c-2,1-4,2-6.1,2.8c-5,2.1-10,4.2-15,6.3
	c-0.9,0.4-1.9,0.6-3.2,0.9C574.1,354.9,574.1,351,574.9,347.2z"/>
<path class="st8" d="M660,223.9c-0.2,0.3-0.4,0.5-0.5,0.8c-2.7,5.4-2.8,6.8-0.2,12c0.4,0.8,1,1.6,1.7,2.1c2.3,1.7,4.6,3.5,7.2,4.8
	c3,1.5,6.1,2.7,9.3,3.7c7.8,2.6,15.6,5,23.4,7.6c0.6,0.2,1.2,0.7,2.4,1.3c-3.9,1.5-7.3,2.9-10.7,4.1c-9.2,3.5-18.5,7-27.7,10.5
	c-0.8,0.3-1.6,0.8-2.4,1.2c-2.9-1.3-5.8-2.6-8.7-4c-5.7-2.8-11.5-5.6-17.2-8.6c-4.6-2.4-9.2-4.7-13.5-7.7c-5-3.5-9.6-7.6-11.7-13.6
	c-1.9-5.4-1.9-11,1.3-15.8c2.1-3.2,5.7-5.1,9.6-5.8c2.5-0.5,5.1-0.8,7.7-0.9c1.5-0.1,3,0.5,4.5,0.6c6.6,0.5,12.9,2.1,18.9,4.6
	C655.6,221.8,657.8,222.9,660,223.9z"/>
<path class="st28" d="M629.6,275c0.4,0,0.7-0.1,1.1-0.1c6.8,3.4,13.7,6.7,20.4,10.3c4.8,2.6,9.5,5.5,13.4,9.4
	c3.2,3.2,5.2,7.1,6.5,11.3c-2.2-0.4-4.5-0.8-6.7-1.2c-5.2-0.9-9.7-3.3-14.3-5.7c-5.2-2.8-9-7.2-13-11.4c-0.2-0.2-0.4-0.5-0.6-0.7
	C634,283,631.8,279,629.6,275z"/>
<path class="st29" d="M291.3,335.2c2.1,4.2,4.2,8.4,6.4,12.6c4.3,8.2,8.7,16.4,13,24.7c0.3,0.6,0.4,1.4,0.6,2.1
	c-4.3-1.9-8.6-3.6-12.8-5.6c-7.4-3.3-14.8-6.8-22.2-10.1c-3.6-1.6-7.2-3-10.8-4.5c0.2-1,0.3-2.1,0.7-3.1
	c3.8-11.8,7.6-23.6,11.5-35.4c0.3-0.9,0.7-1.7,1.2-2.9c0.7,1.1,1.4,1.8,1.9,2.7c2.9,5.5,5.8,11,8.7,16.5
	C290,333.2,290.7,334.2,291.3,335.2z"/>
<path class="st3" d="M265.4,354.4c3.6,1.5,7.2,2.9,10.8,4.5c7.4,3.3,14.8,6.8,22.2,10.1c4.2,1.9,8.5,3.7,12.8,5.6
	c-1.6,1.8-3.9,2-5.9,2.8c-6.2,2.3-12.4,4.5-18.6,6.7c-0.4,0.2-0.8,0.5-1.2,0.7c-0.4,0-0.8,0-1.1,0c-1.1-0.1-2.3-0.5-3.1,0.6
	c-2.7,0.1-5.5,0-8.2,0.3c-6.1,0.8-12.3,1.6-18.5,1.8c0.1-0.7,0.2-1.5,0.4-2.2c3-9.4,6-18.7,9.1-28.1
	C264.5,356.3,265,355.4,265.4,354.4z"/>
<path class="st27" d="M254.7,387.6c6.2-0.2,12.3-1,18.5-1.8c2.7-0.3,5.4-0.2,8.2-0.3c0.2,0.1,0.5,0.1,0.7,0.2c-4.3,1.7-8.7,3.4-13,5
	c-5.2,1.9-10.5,3.8-15.7,5.7c-0.3,0.1-0.6,0-0.9,0C252.1,394,252.4,393.1,254.7,387.6z"/>
<path class="st17" d="M282,385.7c-0.2-0.1-0.5-0.1-0.7-0.2c0.9-1.1,2-0.7,3.1-0.6C283.6,385.1,282.8,385.4,282,385.7z"/>
<path class="st18" d="M445.9,253c-0.8,0.3-1.6,0.8-2.5,0.8c-3.1,0.1-6.3,0-9.4,0c0.7-0.2,1.4-0.7,2-0.7
	C439.3,253,442.6,253,445.9,253z"/>
<rect x="506.3" y="655.6" class="st30" width="564.8" height="94.6"/>
<text transform="matrix(1 0 0 1 506.2714 737.6715)" class="st31 st32 st33">Habitat</text>
<g class="st34">
	<path class="st35" d="M352.6,591.4c12.9,1.6,25.9,2.8,38.9,3.8c13,1,26,1.7,39,2.2c26,1,52,1.1,78,0c25.9-1,51.8-3,77.4-6.4
		c25.6-3.4,51-8,75.8-14.6c24.8-6.5,48.9-15.4,71.6-26.6l8.5-4.3l8.3-4.5c1.4-0.7,2.8-1.5,4.1-2.3l4.1-2.4c1.3-0.8,2.7-1.6,4-2.4
		l4-2.5c10.6-6.7,20.8-13.9,30.3-21.9l7-6.1c1.2-1,2.3-2.1,3.4-3.2l3.4-3.2c2.3-2.1,4.4-4.4,6.5-6.7l3.2-3.4l3-3.6
		c8.1-9.5,15.6-19.6,21.9-30.5c6.4-10.8,11.9-22.3,16.7-34.2c4.7-11.9,8.3-24.3,11.7-37l0,0c0.2-0.6,0.7-0.9,1.3-0.7
		c0.5,0.1,0.8,0.6,0.8,1c-0.3,13.2-1.9,26.4-4.6,39.5c-3,13-7.2,25.9-12.7,38.3c-11.1,24.8-27.8,47.1-47.9,65.6
		c-20.2,18.4-43.7,32.8-68.4,43.4c-24.8,10.6-50.4,18.2-76.3,24c-25.9,5.9-52.1,9.7-78.3,12.2c-26.3,2.3-52.6,3.2-78.8,3
		c-26.3-0.3-52.5-1.6-78.5-4c-26.1-2.4-52.1-5.6-77.8-10.4c-0.6-0.1-0.9-0.7-0.8-1.2C351.5,591.7,352.1,591.3,352.6,591.4
		L352.6,591.4z"/>
</g>
<g class="st36">
	<path class="st35" d="M422.4,525.5c35.8,1.5,71.6,0.7,107.1-2.4c17.8-1.5,35.5-3.7,53-6.7c8.8-1.5,17.5-3.2,26.1-5.1
		c8.6-1.9,17.2-4.1,25.6-6.6c8.5-2.5,16.8-5.3,24.9-8.6c8.1-3.2,16.1-6.8,23.7-10.9c3.8-2,7.6-4.1,11.3-6.3l2.8-1.6l2.7-1.7l2.7-1.7
		c0.9-0.6,1.8-1.2,2.6-1.8c7-4.8,13.7-10,19.8-15.8l4.5-4.4l4.2-4.7c1.4-1.6,2.6-3.2,4-4.9c0.7-0.8,1.2-1.7,1.9-2.5l1.8-2.6
		c4.7-6.9,8.6-14.4,11.6-22.4c3-8,5.1-16.3,6.4-25c1.3-8.7,1.7-17.5,1.8-26.5l0,0c0-0.4,0.4-0.8,0.8-0.8c0.4,0,0.7,0.3,0.8,0.6
		c2.3,8.8,3.6,17.9,3.9,27.1c0.3,9.3-0.7,18.6-2.9,27.8c-2.2,9.2-5.7,18.2-10.3,26.5l-1.8,3.1c-0.6,1-1.2,2.1-1.9,3
		c-1.4,2-2.7,4-4.1,5.9c-1.5,1.9-3,3.8-4.5,5.6l-4.8,5.3c-6.6,6.9-14,12.9-21.8,18.2c-1.9,1.4-3.9,2.6-5.9,3.8l-3,1.8l-3.1,1.7
		c-4.1,2.3-8.3,4.3-12.5,6.3c-8.5,3.9-17.1,7.1-25.8,10c-2.2,0.7-4.4,1.4-6.6,2.1c-2.2,0.6-4.4,1.3-6.6,2l-6.6,1.8l-6.6,1.7
		c-8.9,2.2-17.8,4.1-26.7,5.7c-8.9,1.6-17.9,3-26.9,4.1c-18,2.2-36,3.5-54,4.2c-18,0.6-36,0.5-54-0.1c-9-0.3-18-0.8-26.9-1.4
		c-9-0.7-17.9-1.4-26.8-2.5c-0.4-0.1-0.8-0.4-0.7-0.9C421.6,525.7,421.9,525.4,422.4,525.5L422.4,525.5z"/>
</g>
<g class="st37">
	<path class="st35" d="M498.2,468.9c19.9,0.1,39.9-1,59.5-3.4c9.8-1.2,19.6-2.8,29.3-4.8c9.7-2,19.2-4.5,28.5-7.6
		c9.2-3.1,18.2-7.1,26.4-12.1c8.2-4.9,15.7-10.6,21.9-17.4c3.1-3.4,5.8-7.1,8-11.2c2.2-4,3.9-8.4,5.1-12.9c1.2-4.6,1.9-9.3,2.2-14.2
		c0.3-4.9,0-9.8-0.3-14.8l0,0c0-0.3,0.2-0.5,0.5-0.5c0.2,0,0.4,0.1,0.5,0.3c1.8,4.7,3.1,9.7,3.9,14.8c0.7,5.1,0.8,10.4,0.2,15.7
		c-0.6,5.3-2,10.5-4.1,15.5c-2.1,5-5,9.6-8.3,13.8c-6.7,8.4-15.5,14.8-24.7,19.6c-9.3,4.8-19,8.2-28.8,11
		c-9.8,2.8-19.7,4.9-29.7,6.5c-10,1.5-20,2.6-30,3.2c-10,0.6-20.1,0.9-30.1,0.8c-10-0.1-20-0.4-30-1.3c-0.3,0-0.5-0.3-0.5-0.5
		C497.7,469.1,497.9,468.9,498.2,468.9L498.2,468.9z"/>
</g>
<g>
	<path class="st35" d="M524.1,422.9c10.5-0.9,20.9-2.2,31.2-3.9c5.2-0.8,10.3-1.8,15.4-2.9c5.1-1.1,10.1-2.4,15-3.9
		c4.9-1.5,9.6-3.4,14-5.7c4.3-2.3,8.4-4.7,11.7-7.5c3.2-2.8,5.3-6.1,5.7-10.4c0.2-2.2,0-4.5-0.6-7c-0.5-2.4-1.3-4.9-2.2-7.5l0,0
		c-0.1-0.3,0.1-0.6,0.3-0.7c0.2-0.1,0.4,0,0.5,0.1c2.1,1.8,4,3.9,5.6,6.2c1.6,2.4,2.8,5.2,3.4,8.2c0.6,3.1,0.4,6.5-0.7,9.7
		c-1,3.2-2.9,6-5,8.3c-4.3,4.6-9.5,7.5-14.8,9.5c-5.3,2-10.6,3.2-15.9,4.4c-5.3,1.2-10.6,2-15.9,2.7c-5.3,0.6-10.6,1.1-15.9,1.4
		c-10.6,0.5-21.2,0.6-31.8-0.1c-0.3,0-0.5-0.3-0.5-0.5C523.7,423.1,523.9,422.9,524.1,422.9L524.1,422.9z"/>
</g>
</svg>
