<svg id="Layer_5" enable-background="new 0 0 64 64" height="512" viewBox="0 0 64 64" width="512" xmlns="http://www.w3.org/2000/svg"><path d="m41 16c-8.822 0-16 7.178-16 16s7.178 16 16 16 16-7.178 16-16-7.178-16-16-16zm0 29.586-2.741-2.741 1.748-2.913c.326.04.656.068.993.068zm0-7.586c-3.309 0-6-2.691-6-6s2.691-6 6-6 6 2.691 6 6-2.691 6-6 6zm-5.654-11.654-3.953-3.952h3.876l.825 3.301c-.261.203-.514.417-.748.651zm-2.346 5.654h-5.586l2.741-2.741 2.913 1.748c-.04.326-.068.656-.068.993zm2.346 5.654-3.952 3.952v-3.876l3.301-.825c.203.262.417.515.651.749zm5.654-19.24 2.741 2.741-1.748 2.913c-.326-.04-.656-.068-.993-.068zm5.654 19.24 3.952 3.952h-3.876l-.825-3.301c.262-.203.515-.417.749-.651zm2.346-5.654h5.586l-2.741 2.741-2.913-1.748c.04-.326.068-.656.068-.993zm-2.346-5.654 3.952-3.953v3.876l-3.301.825c-.203-.261-.417-.514-.651-.748zm-1.598-1.23c-.334-.198-.682-.375-1.045-.523l2.249-3.748-2.582-2.581c2.105.41 4.035 1.299 5.691 2.54zm-6.056-.853c-.38.098-.754.215-1.11.366l-1.059-4.236h-3.652c1.709-1.155 3.691-1.927 5.821-2.234zm-4.884 3.681c-.198.334-.375.682-.523 1.045l-3.748-2.249-2.581 2.582c.41-2.105 1.299-4.035 2.54-5.691zm-.853 6.056c.098.38.215.754.366 1.11l-4.236 1.059v3.652c-1.155-1.709-1.926-3.691-2.233-5.821zm3.681 4.884c.334.198.682.375 1.045.523l-2.249 3.748 2.582 2.581c-2.105-.41-4.036-1.299-5.691-2.54zm6.056.853c.38-.098.754-.215 1.11-.366l1.059 4.236h3.652c-1.709 1.155-3.691 1.926-5.821 2.233zm4.884-3.681c.198-.334.375-.682.523-1.045l3.748 2.249 2.581-2.582c-.41 2.105-1.299 4.036-2.54 5.691zm.853-6.056c-.098-.38-.215-.754-.366-1.11l4.236-1.059v-3.652c1.155 1.709 1.927 3.691 2.234 5.821z"/><path d="m41 28c-2.206 0-4 1.794-4 4s1.794 4 4 4 4-1.794 4-4-1.794-4-4-4zm0 6c-1.103 0-2-.897-2-2s.897-2 2-2 2 .897 2 2-.897 2-2 2z"/><path d="m21 48c-1.654 0-3 1.346-3 3s1.346 3 3 3 3-1.346 3-3-1.346-3-3-3zm0 4c-.551 0-1-.449-1-1s.449-1 1-1 1 .449 1 1-.449 1-1 1z"/><path d="m63 11c0-3.86-3.14-7-7-7h-18c-3.86 0-7 3.14-7 7v1.414c-.232.119-.462.24-.689.367-.727-1.087-1.959-1.781-3.311-1.781-2.206 0-4 1.794-4 4 0 1.086.442 2.091 1.192 2.828-.816.967-1.549 2.005-2.192 3.103v-1.931c0-1.654-1.346-3-3-3h-2c-1.654 0-3 1.346-3 3v3h-2v-7c0-1.654-1.346-3-3-3h-2c-1.654 0-3 1.346-3 3v7c-1.654 0-3 1.346-3 3v14c0 1.654 1.346 3 3 3v9c0 1.654 1.346 3 3 3h2c1.654 0 3-1.346 3-3v-9h2v9c0 3.86 3.14 7 7 7h13.184c.414 1.161 1.514 2 2.816 2h2c1.654 0 3-1.346 3-3v-3.025c11.668-.525 21-10.179 21-21.975 0-.335-.01-.668-.025-1h.025zm-36 2c.649 0 1.24.324 1.607.834-1.092.747-2.113 1.59-3.051 2.516-.345-.362-.556-.834-.556-1.35 0-1.103.897-2 2-2zm-7.905 17h-2.095v2h2c0 1.366.132 2.702.371 4h-12.371v-8h12.371c-.121.657-.215 1.324-.276 2zm-3.095-11c0-.551.449-1 1-1h2c.551 0 1 .449 1 1v3h-4zm-10-4c0-.551.449-1 1-1h2c.551 0 1 .449 1 1v7h-4zm-3 24v-14c0-.551.449-1 1-1h16.512c-.256.652-.481 1.319-.674 2h-12.838c-1.103 0-2 .897-2 2v8c0 1.103.897 2 2 2h12.839c.193.681.418 1.348.674 2h-16.513c-.551 0-1-.449-1-1zm7 12c0 .551-.449 1-1 1h-2c-.551 0-1-.449-1-1v-9h4zm6 0v-9h5.414c2.602 5.075 7.115 9.01 12.586 10.852v3.148h-13c-2.757 0-5-2.243-5-5zm23 7h-2c-.551 0-1-.449-1-1v-3.58c1.294.302 2.63.493 4 .555v3.025c0 .551-.449 1-1 1zm2-6c-11.028 0-20-8.972-20-20s8.972-20 20-20 20 8.972 20 20-8.972 20-20 20zm0-42c-2.822 0-5.519.54-8 1.512v-.512c0-2.757 2.243-5 5-5h18c2.757 0 5 2.243 5 5v11.852c-3.479-7.576-11.133-12.852-20-12.852z"/><path d="m57 8c-1.654 0-3 1.346-3 3s1.346 3 3 3 3-1.346 3-3-1.346-3-3-3zm0 4c-.551 0-1-.449-1-1s.449-1 1-1 1 .449 1 1-.449 1-1 1z"/><path d="m9 30h2v2h-2z"/><path d="m13 30h2v2h-2z"/></svg>