<?xml version="1.0" encoding="UTF-8" standalone="no"?>
<svg
   xmlns:dc="http://purl.org/dc/elements/1.1/"
   xmlns:cc="http://creativecommons.org/ns#"
   xmlns:rdf="http://www.w3.org/1999/02/22-rdf-syntax-ns#"
   xmlns:svg="http://www.w3.org/2000/svg"
   xmlns="http://www.w3.org/2000/svg"
   xmlns:sodipodi="http://sodipodi.sourceforge.net/DTD/sodipodi-0.dtd"
   xmlns:inkscape="http://www.inkscape.org/namespaces/inkscape"
   inkscape:export-ydpi="16.6"
   inkscape:export-xdpi="16.6"
   inkscape:export-filename="/home/sebastien/Cloud/PROJETS WATCHDOG/Prestations/logo_Simple_ABLSHabitat_revu.png"
   version="1.1"
   id="Calque_1"
   x="0px"
   y="0px"
   viewBox="0 0 838.50002 753.2371"
   xml:space="preserve"
   sodipodi:docname="logo_Simple_ABLSHabitat_revu.svg"
   inkscape:version="1.0 (4035a4fb49, 2020-05-01)"><metadata
   id="metadata145"><rdf:RDF><cc:Work
       rdf:about=""><dc:format>image/svg+xml</dc:format><dc:type
         rdf:resource="http://purl.org/dc/dcmitype/StillImage" /><dc:title></dc:title></cc:Work></rdf:RDF></metadata><defs
   id="defs143"><marker
     inkscape:isstock="true"
     style="overflow:visible"
     id="Arrow1Lstart"
     refX="0"
     refY="0"
     orient="auto"
     inkscape:stockid="Arrow1Lstart"><path
       transform="matrix(0.8,0,0,0.8,10,0)"
       style="fill-rule:evenodd;stroke:#000000;stroke-width:1pt"
       d="M 0,0 5,-5 -12.5,0 5,5 Z"
       id="path898" /></marker></defs><sodipodi:namedview
   inkscape:document-rotation="0"
   pagecolor="#ffffff"
   bordercolor="#666666"
   borderopacity="1"
   objecttolerance="10"
   gridtolerance="10"
   guidetolerance="10"
   inkscape:pageopacity="0"
   inkscape:pageshadow="2"
   inkscape:window-width="1920"
   inkscape:window-height="983"
   id="namedview141"
   showgrid="false"
   fit-margin-top="0"
   fit-margin-left="0"
   fit-margin-right="0"
   fit-margin-bottom="0"
   inkscape:zoom="0.94310485"
   inkscape:cx="405.20924"
   inkscape:cy="393.70439"
   inkscape:window-x="0"
   inkscape:window-y="0"
   inkscape:window-maximized="1"
   inkscape:current-layer="Calque_1" />
<style
   type="text/css"
   id="style2">
	.st0{fill:#1E1C38;}
	.st1{fill:#1C6F6F;}
	.st2{fill:#1F1C38;}
	.st3{fill:#322F52;}
	.st4{fill:#EFF6F7;}
	.st5{fill:#F0F7F8;}
	.st6{fill:#929898;}
	.st7{fill:#F8E722;}
	.st8{fill:#978D1D;}
	.st9{fill:#968C1E;}
	.st10{fill:#F4E610;}
	.st11{fill:#53518C;}
	.st12{fill:#F8E82D;}
	.st13{fill:#4F4D85;}
	.st14{fill:#F1E019;}
	.st15{fill:#EFDE27;}
	.st16{fill:#343253;}
	.st17{fill:#51497C;}
	.st18{fill:#E7D617;}
	.st19{fill:#C7B817;}
	.st20{fill:#9D9121;}
	.st21{fill:#A79C29;}
	.st22{fill:#875C8C;}
	.st23{fill:#939A9A;}
	.st24{fill:#211C39;}
	.st25{fill:#312D58;}
	.st26{fill:#28264C;}
	.st27{fill:#4F5182;}
	.st28{fill:#57528E;}
	.st29{fill:#211D38;}
	.st30{fill:none;}
	.st31{fill:#F1F8F9;}
	.st32{font-family:'Exo2-Regular';}
	.st33{font-size:117.2265px;}
	.st34{opacity:0.35;}
	.st35{fill:#F5E82F;}
	.st36{opacity:0.63;}
	.st37{opacity:0.79;}
</style>
<rect
   style="fill:#1e1c38;fill-opacity:1;stroke:#1d1b36;stroke-width:138.027;stroke-linejoin:round;stroke-miterlimit:4;stroke-dasharray:none;stroke-opacity:1"
   inkscape:export-ydpi="16.596434"
   inkscape:export-xdpi="16.596434"
   x="257"
   y="114.5"
   class="st0"
   width="654.79999"
   height="654.79999"
   id="rect4"
   transform="matrix(0.95534643,0,0,0.85849318,-99.495324,32.735057)" />
<path
   class="st1"
   d="m 551.1,382.9 c -3,-1.3 -6.1,-2.6 -9.2,-3.8 -8.2,-3.2 -16.3,-6.3 -24.5,-9.4 -4.4,-1.7 -8.7,-3.4 -13,-5.1 1.5,-4 3,-7.9 4.5,-11.9 1.4,-3.9 1,-8.1 1.9,-12 0.1,-0.6 -0.1,-1.2 -0.1,-1.8 -0.2,-1.5 -0.5,-3 -0.7,-4.5 -0.5,-4 -1.8,-7.5 -4.4,-10.7 -1.5,-1.8 -3,-3.3 -5.1,-4.2 -2.5,-1.1 -4.9,-2.3 -7.4,-3.4 -1.3,-0.6 -2.7,-1.1 -4,-1.7 -1.3,-0.6 -2.9,-0.7 -3.9,-2 1.5,-1.7 3,-3.4 4.5,-5.2 2.6,-1.1 3.6,-3.6 5.2,-5.6 4.5,-5.7 7.2,-12.2 8.7,-19.3 0.8,-4.2 0.7,-8.5 0,-12.6 -0.7,-3.7 -2.3,-7.1 -5.3,-9.9 -2.7,-2.6 -5.9,-3.5 -9.2,-4.6 -0.8,-0.2 -1.6,-0.4 -2.3,-0.5 -1.1,-1 -2.5,-1.3 -4,-1.4 -2.7,-0.9 -5.4,-2 -8.2,-2.8 -10,-3.1 -20.1,-6.1 -30.1,-9.3 -2.9,-0.9 -5.7,-2 -8.6,-3 -0.2,-12 -0.3,-24 -0.5,-36 0,-3.3 0,-6.7 0,-10 -0.1,-22.4 -0.2,-44.7 -0.4,-67.1 -0.2,-27.2 -0.5,-54.5 -0.7,-81.7 -0.1,-5.9 -0.1,-11.9 -0.1,-17.8 0,-1.5 -0.4,-3.1 0.6,-4.4 1.9,0.4 3.8,0.9 5.8,1.2 9.8,1.5 19.5,3 29.3,4.5 7.3,1.2 14.7,2.5 22,3.6 9.3,1.5 18.6,2.9 27.9,4.3 8.9,1.4 17.7,2.8 26.5,4.3 5.2,0.9 10.4,1.9 15.7,2.9 -0.1,1.5 -0.2,3 -0.2,4.6 -0.3,13.4 -0.5,26.8 -0.8,40.2 -0.3,15.2 -0.6,30.5 -0.9,45.7 -0.3,14.8 -0.6,29.5 -0.9,44.3 -0.4,17.2 -0.7,34.4 -1.1,51.6 -0.3,13.3 -0.5,26.5 -0.8,39.8 -0.4,19.5 -0.8,39 -1.2,58.5 -0.4,19 -0.8,38.1 -1.2,57.1 0,0 0,0 0,0 -0.3,0 -0.6,0 -0.8,0.2 0,0 -0.1,0 -0.1,0 -1.2,-0.5 -2,-0.8 -2.9,-1.1 z"
   id="path6"
   transform="translate(-145.6,-17.95)" />
<path
   class="st2"
   d="m 200.9,478 c -0.8,0.5 -1.4,0.1 -2.1,-0.3 -7.6,-4.4 -15.3,-8.8 -22.9,-13.3 -9.1,-5.3 -18.1,-10.6 -27.2,-15.9 -1,-0.6 -2,-1.3 -3.1,-2.1 0.4,-1.3 0.6,-2.4 1,-3.5 18.7,-55.7 37.5,-111.4 56.3,-167 0.4,-1.3 0.2,-3.2 2.2,-3.7 2.2,0.9 4.3,1.8 6.5,2.8 3.3,1.4 6.6,2.9 10,4.3 10.1,4.1 20.3,8.1 30.5,12.2 3.4,1.4 6.6,3 10,4.4 -0.2,0.4 -0.4,0.8 -0.5,1.3 -16,47.9 -32.1,95.7 -48.1,143.6 -4.4,12.4 -8.5,24.8 -12.6,37.2 z"
   id="path8"
   transform="translate(-145.6,-17.95)" />
<path
   class="st3"
   d="m 397.3,427.7 c -5.9,-2.8 -11.8,-5.6 -17.7,-8.4 -5.5,-2.6 -11,-5.1 -16.5,-7.7 -0.5,-0.2 -1.2,-0.3 -1.7,-0.5 -0.5,-0.8 -1.1,-1.5 -1.5,-2.3 -7.1,-13.4 -14.3,-26.8 -21.4,-40.3 -7.2,-13.6 -14.3,-27.2 -21.5,-40.7 -2.1,-4 -4.4,-7.9 -6.7,-11.9 -1.6,-3.2 -3.2,-6.5 -4.8,-9.7 -0.8,-1.6 -1.5,-3.3 -2.2,-4.9 -0.2,-7 -0.3,-14 -0.6,-21 -0.4,-11.2 -0.9,-22.5 -1.4,-33.7 0,-0.7 -0.1,-1.5 0.1,-2.2 0.1,-0.3 0.7,-0.4 1.1,-0.6 2.1,0.9 4.1,1.9 6.2,2.6 10,3.5 19.9,7 29.9,10.5 4,1.4 8,2.7 12,4 4.1,1.5 8.2,3.1 12.3,4.6 11.4,4 22.8,8 34.2,12 0.4,19.9 0.7,39.9 1.1,59.8 0.4,22.7 0.8,45.4 1.2,68 0.1,7.5 0.4,14.9 0.6,22.4 0,0 0,0.1 0,0.1 -0.8,0 -1.7,-0.1 -2.7,-0.1 z"
   id="path10"
   transform="translate(-145.6,-17.95)" />
<path
   class="st4"
   d="m 400.2,427.7 c -0.2,-7.5 -0.5,-14.9 -0.6,-22.4 -0.4,-22.7 -0.8,-45.4 -1.2,-68 -0.4,-19.9 -0.7,-39.9 -1.1,-59.8 9.4,-3 18.8,-6 28.2,-9 6.8,-2.2 13.6,-4.3 20.4,-6.5 0.5,0 0.9,0 1.3,-0.1 6.8,-2 13.6,-4.1 20.5,-5.9 2.5,-0.7 5.1,-0.8 7.6,-1 2.1,-0.2 4.2,-0.2 6.4,-0.2 1.6,0 3.2,0 4.8,0 0.8,0.2 1.6,0.4 2.3,0.5 0.1,1.8 0.3,3.6 0.3,5.5 0,13.9 -0.1,27.7 -0.1,41.6 0,1.7 0.3,3.3 0.4,5 -1.5,1.7 -3,3.4 -4.5,5.2 -1.4,0.6 -2.4,1.4 -2.9,3.3 2.5,0.2 4.6,0.4 6.8,0.5 0,8.4 0.1,16.8 0.1,25.1 0,0.7 -0.4,1.4 -0.7,2.1 -0.2,-1.2 -0.6,-2.4 -0.7,-3.6 -0.3,-2.7 -1.9,-4.6 -4,-5.7 -2.4,-1.1 -5.2,-2.2 -7.8,-2.1 -4.5,0.2 -9.1,0.5 -13.5,1.9 -11.7,3.7 -23.2,8 -34.7,12.3 -1.8,0.7 -3.6,1.4 -5.3,2.1 0,4.4 0,8.5 0,12.6 -0.2,0.3 -0.2,0.6 0,0.8 0,6.1 0.1,12.2 0.1,18.4 0,0.3 0.1,0.6 0.1,0.8 0,0.6 0.1,1.2 0.1,1.8 -0.1,2.1 -0.2,4.2 -0.2,6.4 0,2.3 0.1,4.6 0.2,6.8 0.1,2.1 -0.2,4.2 0.5,6.2 0.7,-0.1 1.2,-0.1 1.6,-0.2 12.9,-5 25.4,-10.8 38,-16.5 0.8,-0.4 1.4,-1.1 2,-1.7 3.1,-1.4 6,-3 8.5,-5.4 0.5,-0.5 0.8,-1.2 1.1,-1.8 2.3,-0.9 4,-2.5 5.3,-4.5 1.3,-1.9 2.6,-3.7 4,-5.4 2,-2.5 3.6,-5.2 4.4,-8.3 1.1,0.9 0.8,2.2 0.8,3.4 0,6 0,12 0,18.1 0,1.1 -0.4,2.5 1,3.2 -4.1,3.5 -8.1,7.2 -12.6,10.3 -5.1,3.6 -10.3,6.9 -16,9.4 -4.4,2 -8.7,4.1 -13.2,6.1 -4.1,1.8 -8.4,3.5 -12.5,5.2 -2.9,1.2 -5.9,2.5 -8.8,3.7 -5.9,2.4 -11.7,4.9 -17.6,7.3 -0.7,0.3 -1.4,0.5 -2,0.9 -2,1 -4.3,1.7 -6.8,1.6 z m 64,-112.5 c 0.5,-0.3 1.2,-0.4 1.6,-0.8 1.7,-1.6 3.5,-3.1 5.6,-4.3 0.1,-0.1 0.1,-0.3 0.2,-0.4 2.5,-1.6 4.3,-3.9 5.9,-6.2 1.2,-1.9 2.3,-4 2.8,-6.2 1.4,-6.1 2.5,-12.2 0.1,-18.4 -0.1,-0.3 -0.3,-0.5 -0.4,-0.9 -1.3,-0.9 -2.7,-1.8 -4.1,-2.7 -1.3,-0.9 -2.7,-1.2 -4.3,-1.2 -5.5,0.1 -10.8,0.6 -16.2,2.5 -10.1,3.4 -20.3,6.4 -30.4,9.6 -1.3,0.4 -2.4,1.1 -3.7,1.6 0,5.4 -0.1,10.6 0,15.7 0.1,4.3 0.3,8.5 0.5,12.8 -0.4,6.2 -0.2,12.3 0.6,15.3 0.4,-0.1 0.9,-0.1 1.3,-0.2 10.1,-3.7 20.2,-7.3 30.2,-11.3 3.6,-1.5 7.3,-2.5 10.3,-4.9 z"
   id="path12"
   transform="translate(-145.6,-17.95)" />
<path
   class="st5"
   d="m 554.7,383.7 c 0.4,-19 0.8,-38.1 1.2,-57.1 0.4,-19.5 0.8,-39 1.2,-58.5 0.3,-13.3 0.5,-26.5 0.8,-39.8 0.3,-17.2 0.7,-34.4 1.1,-51.6 0.3,-14.8 0.6,-29.5 0.9,-44.3 0.3,-15.2 0.6,-30.5 0.9,-45.7 0.3,-13.4 0.5,-26.8 0.8,-40.2 0,-1.5 0.1,-3 0.2,-4.6 1.3,-0.4 2.5,-0.9 3.8,-1.2 5.2,-1 10.4,-1.9 15.5,-2.9 0.9,0.5 1.1,1.4 1.1,2.3 0,4.4 0.5,8.9 -0.1,13.3 -1.6,11.4 -0.4,22.8 -0.8,34.2 -0.1,2.7 0.2,5.5 -0.7,8.1 -0.4,1.1 -0.2,2.4 -0.2,3.6 0,8.7 0,17.4 0,26.1 0,1.8 -0.4,3.6 -0.6,5.4 -0.1,1.4 -0.3,2.7 -0.3,4.1 0,9.6 0,19.2 0,28.8 0,1.8 -0.4,3.6 -0.6,5.4 -0.1,1.5 -0.3,3 -0.3,4.5 0,8.7 0,17.4 0,26.1 0,1.7 -0.4,3.3 -0.5,5 -0.1,1.5 -0.3,3 -0.3,4.5 0,10.7 0,21.3 0,32 0,2 0,3.9 -0.6,5.9 -0.4,1.3 -0.3,2.7 -0.3,4.1 0,7.8 0,15.6 0,23.3 0,1.8 -0.4,3.6 -0.6,5.4 -0.1,1.5 -0.3,3 -0.3,4.5 0,9.9 0,19.8 0,29.7 -0.2,1 -0.5,2.1 -0.5,3.1 -0.2,5 -0.3,10 -0.3,14.9 -0.1,5 -0.1,10 -0.1,14.9 -0.7,3.8 -0.8,7.6 -0.4,11.9 1.3,-0.4 2.3,-0.5 3.2,-0.9 5,-2.1 10,-4.2 15,-6.3 2.1,-0.9 4.1,-1.9 6.1,-2.8 0.4,0 0.7,0 1.1,-0.1 -0.6,1.7 -1.2,3.4 -1.9,5 -1.8,4.3 -3.6,8.5 -5.4,12.8 0.2,0.2 0.5,0.5 0.7,0.7 -8.9,3.8 -17.7,7.5 -26.6,11.3 -2.5,1.1 -4.8,2.4 -7.3,3.5 -1.7,0.8 -3.4,1.1 -4.9,1.6 z"
   id="path14"
   transform="translate(-145.6,-17.95)" />
<path
   class="st6"
   d="m 592.6,366.7 c 1.8,-4.3 3.6,-8.5 5.4,-12.8 0.7,-1.6 1.2,-3.3 1.9,-5 3.8,-1.6 7.5,-3.2 11.3,-4.8 3.9,-1.7 7.9,-3.2 11.7,-5 3.7,-1.7 7.7,-2.6 11.4,-5.3 -2.7,-1 -4.9,-1.8 -7.2,-2.6 -8.3,-2.8 -16.7,-5.6 -25,-8.4 -0.9,-0.8 -1.7,-1.8 -2.6,-2.4 -4.6,-3.1 -9.3,-6.2 -14.1,-9.4 -0.1,-0.6 -0.3,-1.2 -0.3,-1.7 0.1,-5.6 0.2,-11.2 0.3,-16.8 0,-1.1 -0.2,-2.5 1.5,-2.9 0.3,0.5 0.6,1.1 1,1.5 4.8,4.7 9.3,9.6 14.7,13.6 8.8,6.6 18,12.4 28.5,16.1 2.3,0.8 4.6,1.7 6.9,2.3 2.2,0.6 4.5,0.9 6.6,1.6 4.3,1.2 8.6,1.2 13.1,0.8 3.4,-0.3 6,-1.7 8.8,-3.3 1.8,-1 2.8,-2.6 3.6,-4.5 1.7,-3.9 2.3,-7.9 0.8,-12 -1.3,-4.3 -3.2,-8.1 -6.5,-11.3 -3.9,-3.9 -8.6,-6.8 -13.4,-9.4 -6.7,-3.6 -13.6,-6.9 -20.4,-10.3 -0.7,-1.1 -1.8,-0.8 -2.8,-1 -1.8,-1.1 -3.6,-2.2 -5.4,-3.3 -3,-1.8 -5.9,-3.7 -9,-5.4 -3.8,-2.1 -6.7,-5.2 -10,-7.8 -5.5,-4.4 -8.8,-10.4 -12,-16.4 -1,-1.9 -1.2,-4.3 -1.7,-6.6 -0.4,-1.9 -0.7,-3.9 -0.9,-5.8 -0.7,-7 1,-13.2 5.7,-18.6 3.3,-3.8 7.3,-6.3 12,-7.9 2.7,-0.9 5.3,-2.2 8.3,-2.4 1.5,-0.1 3,0.1 4.5,-0.3 1.7,-0.4 3.2,-0.3 4.9,0 1.8,0.3 3.6,0.2 5.4,0.3 1.8,0.1 3.6,0.2 5.4,0.4 1.9,0.2 3.9,0.5 5.8,0.7 6.9,2.4 13.8,4.7 20.7,7.1 0.4,0.1 0.9,0.1 1.4,0.1 0.5,0.3 1,0.6 1.6,0.8 2.7,1.1 5.5,1.8 8.1,3.1 7.2,3.7 14.2,7.6 21.3,11.5 0,1.2 -0.1,2.4 -0.1,3.6 -0.2,6 -0.4,12 -0.6,18 -0.6,0 -1.3,0.2 -1.7,0 -1.2,-0.7 -2.3,-1.5 -3.3,-2.4 -3.3,-3.1 -6.8,-6.1 -10.6,-8.7 -5.5,-3.9 -11.1,-7.5 -17.3,-10.1 -2.2,-1 -4.4,-2.1 -6.6,-3 -6.1,-2.5 -12.4,-4.1 -18.9,-4.6 -1.5,-0.1 -3,-0.7 -4.5,-0.6 -2.6,0.1 -5.1,0.5 -7.7,0.9 -3.9,0.7 -7.5,2.6 -9.6,5.8 -3.1,4.8 -3.2,10.3 -1.3,15.8 2.1,6 6.7,10.2 11.7,13.6 4.2,2.9 8.9,5.3 13.5,7.7 5.7,3 11.4,5.8 17.2,8.6 2.9,1.4 5.8,2.7 8.7,4 4.5,2.9 8.9,5.8 13.4,8.7 4.3,3.4 7.9,7.6 11.7,11.5 0.7,0.7 1.3,1.7 1.7,2.7 1.8,3.7 3.6,7.4 5.4,11.1 0.3,4 0.7,7.9 1,11.9 -0.4,2.2 -0.9,4.3 -1.3,6.5 -1.1,2.1 -2.2,4.2 -3.3,6.3 -2.1,2.1 -4.1,4.3 -6.2,6.4 -1.5,0.8 -2.8,1.8 -4.4,2.3 -8.6,3.2 -17.4,3.9 -26.5,2.7 -5.3,-0.7 -10.3,-2.4 -15.5,-3.6 -0.9,-0.2 -1.7,-0.3 -2.8,-0.6 -1.3,3.8 -0.1,7.7 -1.6,11.7 -4.3,1.9 -8.9,3.9 -13.5,5.9 -7.4,3.2 -14.8,6.4 -22.2,9.6 -0.8,0.4 -1.6,0.9 -2.4,1.3 -1.5,0.3 -2.6,0.4 -3.7,0.5 z"
   id="path16"
   transform="translate(-145.6,-17.95)" />
<path
   class="st7"
   d="m 303.4,301.3 c 0.7,1.7 1.4,3.3 2.2,4.9 1.6,3.3 3.2,6.5 4.8,9.7 -1.2,1.1 -2.5,2.2 -3.6,3.4 -5.2,5.3 -10.3,10.6 -15.5,15.9 -0.6,-1 -1.4,-2 -1.9,-3 -2.9,-5.5 -5.8,-11 -8.7,-16.5 -0.5,-0.9 -1.1,-1.6 -1.9,-2.7 -0.5,1.2 -0.9,2 -1.2,2.9 -3.8,11.8 -7.7,23.6 -11.5,35.4 -0.3,1 -0.4,2.1 -0.7,3.1 -0.4,1 -0.9,1.9 -1.2,2.9 -3,9.4 -6.1,18.7 -9.1,28.1 -0.2,0.7 -0.3,1.5 -0.4,2.2 -2.3,5.5 -2.5,6.4 -2.3,8.8 0.3,0 0.6,0.1 0.9,0 5.2,-1.9 10.5,-3.7 15.7,-5.7 4.4,-1.6 8.7,-3.4 13,-5 0.8,-0.3 1.6,-0.5 2.4,-0.8 0.4,0 0.8,0 1.1,0 0.1,2.4 0.1,4.8 0.3,7.2 0.2,3.1 0.1,6.3 1.4,9.3 -14.1,5.2 -28.1,10.5 -42.4,15.8 -5.4,16.7 -10.8,33.4 -16.2,50.1 -4.7,1.9 -9.2,3.7 -13.7,5.5 -4.1,1.6 -8.2,3.2 -12.3,4.8 -0.6,0.2 -1.2,0.3 -1.7,0.4 4.1,-12.4 8.2,-24.8 12.4,-37.2 16,-47.9 32.1,-95.7 48.1,-143.6 0.1,-0.4 0.3,-0.9 0.5,-1.3 5.9,-1.8 11.8,-3.6 17.7,-5.6 4.7,-1.5 9.6,-2.5 14.1,-4.8 1.3,0 1.7,1.1 2.2,2 1.8,3.3 3.5,6.6 5.3,9.9 0.6,1.4 1.4,2.6 2.2,3.9 z"
   id="path18"
   transform="translate(-145.6,-17.95)" />
<path
   class="st8"
   d="m 350.9,260.9 c -4,-1.3 -8,-2.6 -12,-4 -10,-3.5 -20,-7 -29.9,-10.5 -2.1,-0.8 -4.2,-1.7 -6.2,-2.6 1.4,-0.6 2.8,-1.3 4.2,-1.7 8.2,-2.3 16.4,-4.4 24.6,-6.7 4.7,-1.3 9.3,-2.7 14,-4 5.7,-1.5 11.5,-2.8 17.3,-4.2 0.4,-0.1 0.9,-0.1 1.3,-0.3 8.5,-3.2 17.4,-2.5 26.2,-2.4 1.8,0 3.6,0.6 5.3,1.1 11,3.4 22,7 33,10.4 2.3,0.7 4.7,1.3 7,2 2.9,1 5.7,2.1 8.6,3 10,3.1 20,6.1 30.1,9.3 2.8,0.9 5.5,1.9 8.2,2.8 -0.3,0.2 -0.7,0.5 -1,0.7 -4.8,-0.4 -9.6,-0.6 -14.4,-1.3 -4.5,-0.7 -9,-0.6 -13.5,-0.4 -2.6,0.1 -5.1,0.5 -7.6,0.8 -3.3,0 -6.6,0 -9.8,0.1 -0.7,0 -1.4,0.5 -2,0.7 -2.5,0.1 -5.1,0.1 -7.6,0.2 -0.9,0.1 -1.7,0.4 -2.5,0.7 -1.4,0 -2.7,-0.1 -4.1,0 -4.4,0.3 -8.8,0.6 -13.2,1 -4.8,0.4 -9.7,0.8 -14.5,1.2 -5.1,0.5 -10.3,1 -15.4,1.5 -5,0.4 -10,0.8 -15,1.2 -2.9,0.2 -5.7,0.5 -8.6,0.8 -1.1,0.1 -1.8,0.4 -2.5,0.6 z"
   id="path20"
   transform="translate(-145.6,-17.95)" />
<path
   class="st9"
   d="m 291.3,335.2 c 5.1,-5.3 10.3,-10.6 15.5,-15.9 1.2,-1.2 2.4,-2.3 3.6,-3.4 2.2,4 4.5,7.9 6.7,11.9 7.2,13.6 14.3,27.2 21.5,40.7 7.1,13.4 14.2,26.9 21.4,40.3 0.4,0.8 1,1.5 1.5,2.3 0.3,0.8 0.5,1.7 0.8,2.7 -0.8,0.4 -1.5,1 -2.3,1.3 -7.1,2.9 -14.2,5.7 -21.4,8.5 -0.4,0.1 -0.9,0 -1.3,0 -0.3,-0.7 -0.5,-1.4 -0.9,-2.1 -5.2,-10 -10.4,-20 -15.6,-30 -0.3,-0.6 -0.8,-1.2 -1.3,-2 -4.7,1.7 -9.3,3.4 -13.8,5.1 -5.4,2 -10.8,4.1 -16.2,6.2 -0.7,0.2 -1.4,0.4 -2.1,0.6 -1.3,-3 -1.2,-6.2 -1.4,-9.3 -0.2,-2.4 -0.2,-4.8 -0.3,-7.2 0.4,-0.2 0.7,-0.5 1.2,-0.7 6.2,-2.3 12.4,-4.4 18.6,-6.7 2,-0.8 4.4,-1 5.9,-2.8 -0.2,-0.7 -0.3,-1.5 -0.6,-2.1 -4.3,-8.2 -8.7,-16.4 -13,-24.7 -2.3,-4.3 -4.4,-8.5 -6.5,-12.7 z"
   id="path22"
   transform="translate(-145.6,-17.95)" />
<path
   class="st10"
   d="m 694.6,306 c -1.8,-3.7 -3.5,-7.4 -5.4,-11.1 -0.5,-0.9 -1,-1.9 -1.7,-2.7 -3.8,-3.9 -7.3,-8.1 -11.7,-11.5 7.4,-4 15.4,-6.3 23.1,-9.5 8.4,-3.4 16.9,-6.5 25.4,-9.8 6.6,-2.6 13.3,-5.1 19.9,-7.8 2.5,-1 5.2,-1.8 7.3,-3.5 2.3,0.9 4.3,2.2 5.9,4.1 0.7,0.8 1.4,1.6 2.3,2.2 5,3.9 7.6,9.4 10.3,14.9 0.5,1.1 0.9,2.2 0.7,3.5 -0.2,0 -0.3,0 -0.5,0.1 -7.2,3.2 -14.4,6.5 -21.6,9.6 -6.6,2.8 -13.2,5.4 -19.8,8.1 -5.6,2.3 -11.2,4.7 -16.8,7 -4.3,1.8 -8.7,3.6 -13,5.6 -1.5,0.7 -2.9,0.8 -4.4,0.8 z"
   id="path24"
   transform="translate(-145.6,-17.95)" />
<path
   class="st3"
   d="m 670.9,305.9 c 1.5,4.1 0.9,8 -0.8,12 -0.8,1.9 -1.9,3.4 -3.6,4.5 -2.7,1.6 -5.4,3.1 -8.8,3.3 -4.5,0.3 -8.8,0.4 -13.1,-0.8 -2.2,-0.6 -4.5,-0.9 -6.6,-1.6 -2.3,-0.7 -4.6,-1.5 -6.9,-2.3 -10.4,-3.7 -19.7,-9.5 -28.5,-16.1 -5.4,-4.1 -9.9,-9 -14.7,-13.6 -0.4,-0.4 -0.7,-1 -1,-1.5 5.8,-2.2 11.6,-4.4 17.5,-6.6 7.5,-2.8 15.1,-5.6 22.6,-8.3 0.9,0.1 1.8,0.2 2.6,0.3 2.2,4 4.5,7.9 6.7,11.9 0.1,0.3 0.3,0.5 0.6,0.7 4,4.1 7.8,8.5 13,11.4 4.6,2.5 9.2,4.8 14.3,5.7 2.2,0.2 4.5,0.6 6.7,1 z"
   id="path26"
   transform="translate(-145.6,-17.95)" />
<path
   class="st11"
   d="m 693.6,223.6 c -7.1,-3.8 -14.1,-7.8 -21.3,-11.5 -2.5,-1.3 -5.4,-2.1 -8.1,-3.1 -0.5,-0.2 -1.1,-0.5 -1.6,-0.8 0.9,-1.9 2.7,-2.3 4.4,-2.9 6.3,-2.1 12.6,-4.3 19,-6.3 4.5,-1.5 9,-2.8 13.4,-4.2 3.7,-1.2 7.4,-2.7 11.1,-3.9 6.9,-2.3 13.8,-4.4 20.7,-6.6 0.7,-0.2 1.4,-0.6 2,-1 0.4,-0.4 0.5,-1 0.8,-1.6 0.9,0 1.9,0 2.8,0 5.7,1.4 11.3,3.2 16.5,5.9 5.1,2.6 10.2,5.2 15.3,7.7 0.8,0.4 1.6,0.8 1.8,1.8 -4.5,1.4 -9,2.8 -13.4,4.3 -12.5,4.3 -24.9,8.7 -37.4,13.1 -8.5,3 -17.3,6 -26,9.1 z"
   id="path28"
   transform="translate(-145.6,-17.95)" />
<path
   class="st12"
   d="m 751.5,250.2 c -2.2,1.7 -4.8,2.5 -7.3,3.5 -6.6,2.7 -13.2,5.2 -19.9,7.8 -8.5,3.3 -17,6.4 -25.4,9.8 -7.7,3.1 -15.7,5.5 -23.1,9.5 -4.5,-2.9 -8.9,-5.8 -13.4,-8.7 0.8,-0.4 1.6,-0.9 2.4,-1.2 9.2,-3.5 18.5,-7 27.7,-10.5 3.4,-1.3 6.8,-2.6 10.7,-4.1 -1.1,-0.7 -1.7,-1.1 -2.4,-1.3 -7.8,-2.5 -15.6,-5 -23.4,-7.6 -3.2,-1.1 -6.3,-2.2 -9.3,-3.7 -2.6,-1.3 -4.9,-3.1 -7.2,-4.8 -0.7,-0.5 -1.3,-1.3 -1.7,-2.1 -2.6,-5.2 -2.5,-6.6 0.2,-12 0.1,-0.3 0.3,-0.5 0.5,-0.8 6.2,2.7 11.8,6.3 17.3,10.1 3.8,2.6 7.2,5.5 10.6,8.7 1,0.9 2.1,1.7 3.3,2.4 0.4,0.3 1.1,0 1.7,0 5.1,-1.8 10.2,-3.6 15.3,-5.4 4,-1.4 8,-2.8 11.9,-4.3 1.4,-0.5 2.6,-0.5 3.9,0 4.2,2 8.4,4.1 12.7,6.1 5.3,2.3 10.3,5.1 14.9,8.6 z"
   id="path30"
   transform="translate(-145.6,-17.95)" />
<path
   class="st5"
   d="m 724,235.4 c -1.3,-0.4 -2.5,-0.5 -3.9,0 -3.9,1.5 -7.9,2.9 -11.9,4.3 -5.1,1.8 -10.2,3.6 -15.3,5.4 0.2,-6 0.4,-12 0.6,-18 0,-1.2 0.1,-2.4 0.1,-3.6 8.7,-3 17.4,-6.1 26.2,-9.1 12.5,-4.4 24.9,-8.8 37.4,-13.1 4.4,-1.5 8.9,-2.9 13.4,-4.3 1.1,0.7 1.3,1.8 0.9,2.8 -0.8,1.9 -0.8,3.9 -0.7,5.8 0.2,3.4 -0.4,6.6 -0.9,9.9 -0.2,1.1 -0.7,2 -1.7,2.5 -0.7,0.3 -1.4,0.7 -2.1,0.9 -5.7,2 -11.5,3.9 -17.2,6 -7.8,2.9 -15.6,5.8 -23.4,8.7 -1,0.4 -1.3,1 -1.5,1.8 z"
   id="path32"
   transform="translate(-145.6,-17.95)" />
<path
   class="st8"
   d="m 602.1,322.9 c 8.3,2.8 16.7,5.6 25,8.4 2.3,0.8 4.5,1.6 7.2,2.6 -3.6,2.7 -7.7,3.6 -11.4,5.3 -3.9,1.8 -7.8,3.3 -11.7,5 -3.8,1.6 -7.5,3.2 -11.3,4.8 -0.4,0 -0.7,0 -1.1,0.1 -1.2,-0.1 -2.4,-0.1 -3.6,-0.2 -6.8,-0.5 -13.5,-1 -20.3,-1.6 0,-5 0,-10 0.1,-14.9 0.1,-5 0.2,-10 0.3,-14.9 0,-1 0.3,-2.1 0.5,-3.1 7.6,2.5 15.2,5 22.8,7.5 1.2,0.2 2.3,0.6 3.5,1 z"
   id="path34"
   transform="translate(-145.6,-17.95)" />
<path
   class="st13"
   d="m 734.1,181.6 c -0.2,0.5 -0.4,1.2 -0.8,1.6 -0.6,0.5 -1.3,0.8 -2,1 -6.9,2.2 -13.8,4.4 -20.7,6.6 -3.7,1.2 -7.4,2.7 -11.1,3.9 -4.4,1.5 -8.9,2.8 -13.4,4.2 -6.3,2.1 -12.6,4.2 -19,6.3 -1.7,0.6 -3.5,1 -4.4,2.9 -0.5,0 -0.9,0 -1.4,-0.1 -6.9,-2.3 -13.8,-4.7 -20.7,-7.1 0.1,-1 0.5,-1.8 1.4,-2.2 1,-0.4 2,-0.8 3,-1.1 7.2,-2.2 14.5,-4.4 21.7,-6.7 9,-2.8 17.9,-5.7 26.9,-8.6 2.2,-0.7 4.4,-1.1 6.5,-1.9 3,-1.1 6.2,-1.6 8.9,-3.5 0.8,-0.6 2,-0.7 3,-0.9 1.2,-0.1 2.4,0 3.6,0 2.1,0.3 4.3,0.6 6.4,0.9 0.7,1 1.7,1.1 2.8,0.9 v 0 c 0.9,1.2 2.3,0.9 3.5,1 h 0.1 c 0.7,1 1.7,0.9 2.7,0.8 0,0 0.1,0 0.1,0 0.6,1 1.6,1 2.6,0.9 0,0 0.1,0 0.1,0 0.1,0.5 0.1,0.8 0.2,1.1 z"
   id="path36"
   transform="translate(-145.6,-17.95)" />
<path
   class="st6"
   d="m 488.2,343.4 c 0.2,-0.7 0.7,-1.4 0.7,-2.1 0,-8.4 0,-16.8 -0.1,-25.1 1.4,-0.1 2.7,-0.1 4.1,-0.2 2.5,1.1 4.9,2.3 7.4,3.4 2.1,0.9 3.6,2.4 5.1,4.2 2.6,3.2 3.9,6.7 4.4,10.7 0.2,1.5 0.5,3 0.7,4.5 0.1,0.6 0.3,1.2 0.1,1.8 -0.8,4 -0.4,8.2 -1.9,12 -1.5,4 -3,7.9 -4.5,11.9 -1.7,2.5 -3.3,5.1 -5.2,7.4 -3,3.7 -6.3,7.3 -9.4,11 -1.4,-0.8 -1,-2.1 -1,-3.2 0,-6 0,-12 0,-18.1 0,-1.2 0.3,-2.4 -0.8,-3.4 1.1,-4.8 1.8,-9.6 0,-14.4 0.3,-0.1 0.4,-0.2 0.4,-0.4 z"
   id="path38"
   transform="translate(-145.6,-17.95)" />
<path
   class="st14"
   d="m 293.6,285.6 c -4.5,2.3 -9.4,3.2 -14.1,4.8 -5.9,1.9 -11.8,3.7 -17.7,5.6 -3.3,-1.5 -6.6,-3.1 -10,-4.4 -10.1,-4.1 -20.3,-8.1 -30.5,-12.2 -3.4,-1.4 -6.7,-2.9 -10,-4.3 0.9,-1.1 2.2,-0.9 3.4,-1 2.7,-0.2 5.5,-0.2 8.2,-0.5 3.8,-0.4 7.5,-1 11.3,-1.3 5.6,-0.5 11.2,-0.8 16.8,-1.1 1.1,-0.1 2.1,-0.1 2.9,-1 3.4,1.2 6.8,2.4 10.2,3.7 8.9,3.4 17.8,6.8 26.7,10.3 1,0.3 1.9,0.9 2.8,1.4 z"
   id="path40"
   transform="translate(-145.6,-17.95)" />
<path
   class="st15"
   d="m 581.1,37.8 c -5.2,1 -10.4,1.9 -15.5,2.9 -1.3,0.3 -2.6,0.8 -3.8,1.2 -5.2,-1 -10.4,-2 -15.7,-2.9 -8.8,-1.5 -17.7,-2.9 -26.5,-4.3 -9.3,-1.5 -18.6,-2.8 -27.9,-4.3 -7.3,-1.2 -14.7,-2.5 -22,-3.6 -9.7,-1.5 -19.5,-3 -29.3,-4.5 -1.9,-0.3 -3.9,-0.8 -5.8,-1.2 4.2,-0.7 8.4,-1.4 12.6,-2.1 1.4,-0.2 2.7,-0.4 4,-0.7 2.3,-0.5 4.5,-0.4 6.8,-0.1 11.1,1.8 22.2,3.4 33.3,5.2 8.3,1.3 16.5,2.7 24.8,4 9.5,1.5 18.9,2.8 28.4,4.3 4.4,0.7 8.7,1.4 13.1,2.1 7.2,1.1 14.4,2.2 21.6,3.3 0.5,0.1 1.2,0.5 1.9,0.7 z"
   id="path42"
   transform="translate(-145.6,-17.95)" />
<path
   class="st12"
   d="m 694.6,306 c 1.5,0 3,-0.1 4.4,-0.8 4.3,-1.9 8.6,-3.8 13,-5.6 5.6,-2.4 11.2,-4.7 16.8,-7 6.6,-2.7 13.2,-5.3 19.8,-8.1 7.2,-3.1 14.4,-6.4 21.6,-9.6 0.1,-0.1 0.3,0 0.5,-0.1 0.4,2.7 0.8,5.3 1.1,8 0.2,1.6 0.2,3.3 -0.8,4.8 -1.3,0.2 -2.8,0.2 -4,0.7 -2.8,1.1 -5.6,2.4 -8.3,3.6 -5,2.2 -10,4.4 -15,6.5 -7.4,3.1 -14.8,6.2 -22.2,9.4 -7.2,3.1 -14.4,6.3 -21.7,9.4 -1.2,0.5 -2.6,0.5 -4,0.7 -0.5,-4 -0.9,-7.9 -1.2,-11.9 z"
   id="path44"
   transform="translate(-145.6,-17.95)" />
<path
   class="st16"
   d="m 289.4,400.8 c 5.4,-2.1 10.8,-4.1 16.2,-6.2 4.5,-1.7 9.1,-3.3 13.8,-5.1 0.5,0.8 1,1.3 1.3,2 5.2,10 10.4,20 15.6,30 0.3,0.7 0.6,1.4 0.9,2.1 -6,-2.8 -12.1,-5.5 -18.1,-8.4 -9.1,-4.4 -18.3,-8.8 -27.4,-13.2 -0.8,-0.3 -1.5,-0.7 -2.3,-1.2 z"
   id="path46"
   transform="translate(-145.6,-17.95)" />
<path
   class="st17"
   d="m 715.7,176.1 c -1.2,0 -2.4,-0.1 -3.6,0 -1,0.1 -2.2,0.3 -3,0.9 -2.7,1.9 -5.9,2.4 -8.9,3.5 -2.1,0.8 -4.4,1.2 -6.5,1.9 -9,2.8 -17.9,5.7 -26.9,8.6 -7.2,2.3 -14.5,4.5 -21.7,6.7 -1,0.3 -2,0.7 -3,1.1 -1,0.4 -1.3,1.2 -1.4,2.2 -1.9,-0.2 -3.9,-0.5 -5.8,-0.7 -1.8,-0.2 -3.6,-0.3 -5.4,-0.4 -1.8,-0.1 -3.6,0 -5.4,-0.3 -1.7,-0.3 -3.2,-0.4 -4.9,0 -1.4,0.3 -3,0.2 -4.5,0.3 1.7,-0.6 3.3,-1.4 5.1,-1.9 10.2,-3.2 20.3,-6.3 30.5,-9.4 10.9,-3.4 21.8,-6.8 32.6,-10.2 0.9,-0.3 1.8,-0.3 2.6,-0.7 4.5,-2.1 9.4,-2.5 14.3,-2.7 4.5,-0.2 9.1,0.3 13.7,0.6 0.8,-0.1 1.5,0.3 2.2,0.5 z"
   id="path48"
   transform="translate(-145.6,-17.95)" />
<path
   class="st18"
   d="m 695.6,317.9 c 1.3,-0.2 2.8,-0.2 4,-0.7 7.3,-3.1 14.5,-6.3 21.7,-9.4 7.4,-3.2 14.8,-6.2 22.2,-9.4 5,-2.1 10,-4.3 15,-6.5 2.8,-1.2 5.5,-2.5 8.3,-3.6 1.2,-0.5 2.7,-0.5 4,-0.7 0.1,2.4 -0.6,4.6 -2.3,6.4 -2.2,-0.4 -3.7,1 -5.5,1.8 -5.2,2.2 -10.3,4.3 -15.5,6.6 -5.3,2.3 -10.5,4.7 -15.8,6.9 -8.5,3.7 -17,7.4 -25.5,10.9 -3.9,1.6 -7.6,3.8 -12,4.1 0.6,-2.1 1,-4.2 1.4,-6.4 z"
   id="path50"
   transform="translate(-145.6,-17.95)" />
<path
   class="st19"
   d="m 694.3,324.4 c 4.4,-0.3 8.1,-2.5 12,-4.1 8.5,-3.6 17,-7.3 25.5,-10.9 5.3,-2.3 10.5,-4.7 15.8,-6.9 5.1,-2.2 10.3,-4.4 15.5,-6.6 1.8,-0.8 3.3,-2.2 5.5,-1.8 -0.8,2.3 -1.9,4.3 -4.1,5.5 -4.9,1.1 -9.4,3.4 -13.9,5.6 -5,2.5 -10.2,4.6 -15.4,6.9 -7.2,3.1 -14.4,6.4 -21.7,9.3 -6.9,2.7 -13.5,6 -20.3,9 -0.7,0.3 -1.5,0.2 -2.2,0.3 1.1,-2.1 2.2,-4.2 3.3,-6.3 z"
   id="path52"
   transform="translate(-145.6,-17.95)" />
<path
   class="st20"
   d="m 254,270.2 c -0.8,0.9 -1.8,0.9 -2.9,1 -5.6,0.3 -11.2,0.6 -16.8,1.1 -3.8,0.3 -7.5,1 -11.3,1.3 -2.7,0.3 -5.4,0.3 -8.2,0.5 -1.2,0.1 -2.5,-0.1 -3.4,1 -2.2,-0.9 -4.3,-1.8 -6.5,-2.8 2.9,-0.9 5.7,-1.9 8.6,-2.7 7,-2 14,-3.8 21,-5.8 1.4,-0.4 2.6,-0.4 3.9,0.1 4.8,1.9 9.6,3.7 14.4,5.6 0.5,0.1 0.8,0.4 1.2,0.7 z"
   id="path54"
   transform="translate(-145.6,-17.95)" />
<path
   class="st21"
   d="m 691,330.7 c 0.8,-0.1 1.6,0 2.2,-0.3 6.8,-3 13.4,-6.3 20.3,-9 7.3,-2.9 14.5,-6.2 21.7,-9.3 5.1,-2.2 10.3,-4.3 15.4,-6.9 4.4,-2.2 9,-4.5 13.9,-5.6 -2.2,3.8 -6.2,5.3 -9.8,7 -8.3,3.9 -16.9,7.5 -25.3,11.2 -13.7,6 -27.4,12.1 -41.1,18.1 -1.1,0.5 -2.3,0.8 -3.4,1.2 2,-2.1 4,-4.3 6.1,-6.4 z"
   id="path56"
   transform="translate(-145.6,-17.95)" />
<path
   class="st22"
   d="m 728.4,178.9 c -1.2,0 -2.6,0.2 -3.5,-1 1.2,0.4 2.3,0.7 3.5,1 z"
   id="path58"
   transform="translate(-145.6,-17.95)" />
<path
   class="st4"
   d="m 592.6,366.7 c 1.1,-0.1 2.2,-0.2 3.3,-0.3 -0.6,1 -1.7,0.9 -2.7,1 -0.1,-0.2 -0.4,-0.4 -0.6,-0.7 z"
   id="path60"
   transform="translate(-145.6,-17.95)" />
<path
   class="st22"
   d="m 629.6,275 c -0.9,-0.1 -1.8,-0.2 -2.6,-0.3 0.3,-0.3 0.6,-0.5 0.9,-0.8 1,0.2 2.2,-0.1 2.8,1 -0.4,0 -0.8,0.1 -1.1,0.1 z"
   id="path62"
   transform="translate(-145.6,-17.95)" />
<path
   class="st4"
   d="m 397.3,427.7 c 0.9,0 1.9,0 2.8,0.1 0,0.8 -0.3,1.4 -1.2,1.1 -0.5,-0.3 -1,-0.8 -1.6,-1.2 z"
   id="path64"
   transform="translate(-145.6,-17.95)" />
<path
   class="st22"
   d="m 724.9,178 c -1.1,0.1 -2.1,0.1 -2.8,-0.9 0.9,0.2 1.9,0.5 2.8,0.9 z"
   id="path66"
   transform="translate(-145.6,-17.95)" />
<path
   class="st22"
   d="m 731.2,179.8 c -1,0.1 -2,0.1 -2.7,-0.8 1.1,-0.2 2,0.1 2.7,0.8 z"
   id="path68"
   transform="translate(-145.6,-17.95)" />
<path
   class="st22"
   d="m 733.9,180.8 c -1,0.1 -2,0.1 -2.6,-0.9 0.9,0.2 1.8,0.6 2.6,0.9 z"
   id="path70"
   transform="translate(-145.6,-17.95)" />
<path
   class="st4"
   d="m 551.1,382.9 c 0.9,0.3 1.8,0.6 2.6,0.9 -1,0 -2,0.1 -2.6,-0.9 z"
   id="path72"
   transform="translate(-145.6,-17.95)" />
<path
   class="st22"
   d="m 734.1,181.6 c 0,-0.3 -0.1,-0.5 -0.1,-0.8 0.9,0.3 1.9,0.5 2.8,0.8 -0.9,0 -1.8,0 -2.7,0 z"
   id="path74"
   transform="translate(-145.6,-17.95)" />
<path
   class="st5"
   d="m 553.9,383.8 c 0.3,-0.1 0.5,-0.2 0.8,-0.2 -0.2,0.7 -0.4,0.9 -0.8,0.2 z"
   id="path76"
   transform="translate(-145.6,-17.95)" />
<path
   class="st23"
   d="m 489.4,307.2 c -0.2,-1.7 -0.4,-3.3 -0.4,-5 0,-13.9 0.1,-27.7 0.1,-41.6 0,-1.8 -0.2,-3.6 -0.3,-5.5 3.3,1.1 6.6,2 9.2,4.6 2.9,2.8 4.6,6.2 5.3,9.9 0.8,4.1 0.9,8.4 0,12.6 -1.4,7.1 -4.1,13.6 -8.7,19.3 -1.6,2.1 -2.6,4.6 -5.2,5.7 z"
   id="path78"
   transform="translate(-145.6,-17.95)" />
<path
   class="st21"
   d="m 492.9,316 c -1.4,0.1 -2.7,0.1 -4.1,0.2 -2.2,-0.2 -4.3,-0.3 -6.8,-0.5 0.5,-1.9 1.6,-2.7 2.9,-3.3 1,1.3 2.6,1.4 3.9,2 1.4,0.5 2.7,1 4.1,1.6 z"
   id="path80"
   transform="translate(-145.6,-17.95)" />
<path
   class="st21"
   d="m 481.4,254 c 0.3,-0.2 0.7,-0.5 1,-0.7 1.5,0.1 2.9,0.4 4,1.4 -1.6,0 -3.2,0 -4.8,0 0,-0.3 -0.1,-0.5 -0.2,-0.7 z"
   id="path82"
   transform="translate(-145.6,-17.95)" />
<path
   class="st14"
   d="m 350.9,260.9 c 0.7,-0.2 1.4,-0.5 2.2,-0.6 2.9,-0.3 5.7,-0.6 8.6,-0.8 5,-0.4 10,-0.7 15,-1.2 5.1,-0.5 10.3,-1 15.4,-1.5 4.8,-0.4 9.7,-0.8 14.5,-1.2 4.4,-0.3 8.8,-0.7 13.2,-1 1.4,-0.1 2.7,0 4.1,0 0.3,0 0.6,0 0.9,0 4.7,-0.2 9.3,0.1 13.6,2.2 1.7,0.9 3.7,1.3 5.5,1.9 1.5,0.5 2.1,1.6 2,3.1 -6.8,2.2 -13.6,4.3 -20.4,6.5 -9.4,3 -18.8,6 -28.2,9 -11.4,-4 -22.8,-8 -34.2,-12 -4.1,-1.3 -8.1,-2.9 -12.2,-4.4 z"
   id="path84"
   transform="translate(-145.6,-17.95)" />
<path
   class="st2"
   d="m 488.2,343.4 c 0,0.1 -0.1,0.3 -0.1,0.4 1.7,4.8 1.1,9.6 0,14.4 -0.8,3.1 -2.4,5.8 -4.4,8.3 -1.4,1.8 -2.7,3.6 -4,5.4 -1.4,2 -3,3.7 -5.3,4.5 -1.9,-1.2 -4.1,-1.1 -6.2,-0.8 -3.7,0.5 -7.4,1.2 -11.2,1.9 -0.4,0.1 -0.7,0.5 -1.1,0.8 -5.4,0.7 -10.8,1.4 -16.2,2.2 -3.9,0.5 -7.8,1 -11.7,1.8 -1.8,0.4 -3.6,0.6 -5.4,0.5 0,-0.6 -0.1,-1.2 -0.1,-1.8 0.1,-0.1 0.3,-0.2 0.3,-0.3 -0.1,-0.2 -0.2,-0.4 -0.3,-0.6 0,-6.1 -0.1,-12.2 -0.1,-18.4 0.1,-0.1 0.3,-0.2 0.3,-0.2 -0.1,-0.2 -0.2,-0.4 -0.3,-0.6 0,-4.1 0,-8.2 0,-12.6 1.7,-0.7 3.5,-1.4 5.3,-2.1 11.5,-4.3 23,-8.5 34.7,-12.3 4.4,-1.4 9,-1.8 13.5,-1.9 2.6,-0.1 5.4,1 7.8,2.1 2.2,1 3.8,3 4,5.7 -0.1,1.3 0.3,2.4 0.5,3.6 z"
   id="path86"
   transform="translate(-145.6,-17.95)" />
<path
   class="st24"
   d="m 421.9,316.1 c -0.2,-4.3 -0.5,-8.5 -0.5,-12.8 -0.1,-5.2 0,-10.3 0,-15.7 1.2,-0.5 2.4,-1.2 3.7,-1.6 10.1,-3.2 20.4,-6.1 30.4,-9.6 5.3,-1.8 10.7,-2.3 16.2,-2.5 1.6,0 3,0.3 4.3,1.2 1.3,1 2.8,1.9 4.1,2.7 0.2,0.4 0.3,0.6 0.4,0.9 2.4,6.1 1.3,12.3 -0.1,18.4 -0.5,2.2 -1.6,4.3 -2.8,6.2 -1.6,2.4 -3.4,4.7 -5.9,6.2 -4.2,-0.7 -8.3,-0.2 -12.1,1.8 -1.2,0.2 -2.4,0.3 -3.6,0.5 -1.9,0.4 -3.8,1 -5.7,1.2 -4,0.4 -8.1,0.7 -12.1,1 -0.5,0 -0.9,0.1 -1.4,0.1 -5,1.2 -9.9,2 -14.9,2 z"
   id="path88"
   transform="translate(-145.6,-17.95)" />
<path
   class="st25"
   d="m 422.7,382.8 c 1.8,0.1 3.6,-0.1 5.4,-0.5 3.8,-0.8 7.8,-1.3 11.7,-1.8 5.4,-0.8 10.8,-1.5 16.2,-2.2 0.1,1 0.6,1.7 1.5,2.1 2.5,1.1 4.9,2.2 7.4,3.3 -0.7,0.6 -1.3,1.3 -2,1.7 -12.6,5.7 -25.1,11.5 -38,16.5 -0.4,0.2 -0.9,0.1 -1.6,0.2 -0.7,-2 -0.5,-4.1 -0.5,-6.2 -0.1,-2.3 -0.2,-4.6 -0.2,-6.8 -0.1,-2.1 0,-4.2 0.1,-6.3 z"
   id="path90"
   transform="translate(-145.6,-17.95)" />
<path
   class="st25"
   d="m 421.9,316.1 c 5,-0.1 9.9,-0.8 14.8,-1.7 0.4,-0.1 0.9,-0.1 1.4,-0.1 4,-0.3 8.1,-0.6 12.1,-1 1.9,-0.2 3.8,-0.9 5.7,-1.2 1.2,-0.2 2.4,-0.4 3.6,-0.5 1.1,0.6 2.2,1 3.2,1.7 0.7,0.5 1.1,1.3 1.7,2 -3,2.4 -6.7,3.4 -10.2,4.8 -10,3.9 -20.1,7.5 -30.2,11.3 -0.4,0.2 -0.9,0.1 -1.3,0.2 -0.9,-3.1 -1.2,-9.2 -0.8,-15.5 z"
   id="path92"
   transform="translate(-145.6,-17.95)" />
<path
   class="st12"
   d="m 445.9,262 c 0.2,-1.6 -0.5,-2.6 -2,-3.1 -1.8,-0.6 -3.8,-1.1 -5.5,-1.9 -4.3,-2.1 -8.9,-2.4 -13.6,-2.2 -0.3,0 -0.6,0 -0.9,0 0.8,-0.2 1.7,-0.6 2.5,-0.7 2.5,-0.1 5.1,-0.2 7.6,-0.2 3.1,0 6.3,0.1 9.4,0 0.8,0 1.6,-0.5 2.5,-0.8 2.5,-0.3 5.1,-0.7 7.6,-0.8 4.5,-0.2 9,-0.4 13.5,0.4 4.7,0.8 9.6,0.9 14.4,1.3 0.1,0.2 0.2,0.5 0.3,0.7 -2.1,0.1 -4.2,0.1 -6.4,0.2 -2.6,0.2 -5.2,0.4 -7.6,1 -6.9,1.8 -13.7,3.9 -20.5,5.9 -0.4,0.2 -0.9,0.1 -1.3,0.2 z"
   id="path94"
   transform="translate(-145.6,-17.95)" />
<path
   class="st26"
   d="m 464.8,383.7 c -2.5,-1.1 -4.9,-2.2 -7.4,-3.3 -0.9,-0.4 -1.4,-1.1 -1.5,-2.1 0.4,-0.3 0.7,-0.7 1.1,-0.8 3.7,-0.7 7.4,-1.3 11.2,-1.9 2.1,-0.3 4.3,-0.3 6.2,0.8 -0.4,0.6 -0.6,1.3 -1.1,1.8 -2.5,2.5 -5.4,4.1 -8.5,5.5 z"
   id="path96"
   transform="translate(-145.6,-17.95)" />
<path
   class="st27"
   d="m 464.2,315.2 c -0.5,-0.7 -1,-1.5 -1.7,-2 -1,-0.7 -2.1,-1.2 -3.2,-1.7 3.8,-2 7.9,-2.5 12.1,-1.8 -0.1,0.1 -0.1,0.3 -0.2,0.4 -2.1,1.2 -3.8,2.7 -5.6,4.3 -0.2,0.4 -0.8,0.5 -1.4,0.8 z"
   id="path98"
   transform="translate(-145.6,-17.95)" />
<path
   class="st25"
   d="m 422.3,360.9 c 0.1,0.2 0.2,0.4 0.3,0.6 0,0 -0.2,0.2 -0.3,0.2 -0.2,-0.2 -0.2,-0.5 0,-0.8 z"
   id="path100"
   transform="translate(-145.6,-17.95)" />
<path
   class="st25"
   d="m 422.5,380.1 c 0.1,0.2 0.3,0.4 0.3,0.6 0,0 -0.2,0.2 -0.3,0.3 0,-0.3 0,-0.6 0,-0.9 z"
   id="path102"
   transform="translate(-145.6,-17.95)" />
<path
   class="st15"
   d="m 574.9,347.2 c 6.8,0.5 13.5,1 20.3,1.6 1.2,0.1 2.4,0.1 3.6,0.2 -2,1 -4,2 -6.1,2.8 -5,2.1 -10,4.2 -15,6.3 -0.9,0.4 -1.9,0.6 -3.2,0.9 -0.4,-4.1 -0.4,-8 0.4,-11.8 z"
   id="path104"
   transform="translate(-145.6,-17.95)" />
<path
   class="st8"
   d="m 660,223.9 c -0.2,0.3 -0.4,0.5 -0.5,0.8 -2.7,5.4 -2.8,6.8 -0.2,12 0.4,0.8 1,1.6 1.7,2.1 2.3,1.7 4.6,3.5 7.2,4.8 3,1.5 6.1,2.7 9.3,3.7 7.8,2.6 15.6,5 23.4,7.6 0.6,0.2 1.2,0.7 2.4,1.3 -3.9,1.5 -7.3,2.9 -10.7,4.1 -9.2,3.5 -18.5,7 -27.7,10.5 -0.8,0.3 -1.6,0.8 -2.4,1.2 -2.9,-1.3 -5.8,-2.6 -8.7,-4 -5.7,-2.8 -11.5,-5.6 -17.2,-8.6 -4.6,-2.4 -9.2,-4.7 -13.5,-7.7 -5,-3.5 -9.6,-7.6 -11.7,-13.6 -1.9,-5.4 -1.9,-11 1.3,-15.8 2.1,-3.2 5.7,-5.1 9.6,-5.8 2.5,-0.5 5.1,-0.8 7.7,-0.9 1.5,-0.1 3,0.5 4.5,0.6 6.6,0.5 12.9,2.1 18.9,4.6 2.2,1 4.4,2.1 6.6,3.1 z"
   id="path106"
   transform="translate(-145.6,-17.95)" />
<path
   class="st28"
   d="m 629.6,275 c 0.4,0 0.7,-0.1 1.1,-0.1 6.8,3.4 13.7,6.7 20.4,10.3 4.8,2.6 9.5,5.5 13.4,9.4 3.2,3.2 5.2,7.1 6.5,11.3 -2.2,-0.4 -4.5,-0.8 -6.7,-1.2 -5.2,-0.9 -9.7,-3.3 -14.3,-5.7 -5.2,-2.8 -9,-7.2 -13,-11.4 -0.2,-0.2 -0.4,-0.5 -0.6,-0.7 C 634,283 631.8,279 629.6,275 Z"
   id="path108"
   transform="translate(-145.6,-17.95)" />
<path
   class="st29"
   d="m 291.3,335.2 c 2.1,4.2 4.2,8.4 6.4,12.6 4.3,8.2 8.7,16.4 13,24.7 0.3,0.6 0.4,1.4 0.6,2.1 -4.3,-1.9 -8.6,-3.6 -12.8,-5.6 -7.4,-3.3 -14.8,-6.8 -22.2,-10.1 -3.6,-1.6 -7.2,-3 -10.8,-4.5 0.2,-1 0.3,-2.1 0.7,-3.1 3.8,-11.8 7.6,-23.6 11.5,-35.4 0.3,-0.9 0.7,-1.7 1.2,-2.9 0.7,1.1 1.4,1.8 1.9,2.7 2.9,5.5 5.8,11 8.7,16.5 0.5,1 1.2,2 1.8,3 z"
   id="path110"
   transform="translate(-145.6,-17.95)" />
<path
   class="st3"
   d="m 265.4,354.4 c 3.6,1.5 7.2,2.9 10.8,4.5 7.4,3.3 14.8,6.8 22.2,10.1 4.2,1.9 8.5,3.7 12.8,5.6 -1.6,1.8 -3.9,2 -5.9,2.8 -6.2,2.3 -12.4,4.5 -18.6,6.7 -0.4,0.2 -0.8,0.5 -1.2,0.7 -0.4,0 -0.8,0 -1.1,0 -1.1,-0.1 -2.3,-0.5 -3.1,0.6 -2.7,0.1 -5.5,0 -8.2,0.3 -6.1,0.8 -12.3,1.6 -18.5,1.8 0.1,-0.7 0.2,-1.5 0.4,-2.2 3,-9.4 6,-18.7 9.1,-28.1 0.4,-0.9 0.9,-1.8 1.3,-2.8 z"
   id="path112"
   transform="translate(-145.6,-17.95)" />
<path
   class="st27"
   d="m 254.7,387.6 c 6.2,-0.2 12.3,-1 18.5,-1.8 2.7,-0.3 5.4,-0.2 8.2,-0.3 0.2,0.1 0.5,0.1 0.7,0.2 -4.3,1.7 -8.7,3.4 -13,5 -5.2,1.9 -10.5,3.8 -15.7,5.7 -0.3,0.1 -0.6,0 -0.9,0 -0.4,-2.4 -0.1,-3.3 2.2,-8.8 z"
   id="path114"
   transform="translate(-145.6,-17.95)" />
<path
   class="st17"
   d="m 282,385.7 c -0.2,-0.1 -0.5,-0.1 -0.7,-0.2 0.9,-1.1 2,-0.7 3.1,-0.6 -0.8,0.2 -1.6,0.5 -2.4,0.8 z"
   id="path116"
   transform="translate(-145.6,-17.95)" />
<path
   class="st18"
   d="m 445.9,253 c -0.8,0.3 -1.6,0.8 -2.5,0.8 -3.1,0.1 -6.3,0 -9.4,0 0.7,-0.2 1.4,-0.7 2,-0.7 3.3,-0.1 6.6,-0.1 9.9,-0.1 z"
   id="path118"
   transform="translate(-145.6,-17.95)" />
<rect
   x="506.29999"
   y="655.59998"
   class="st30"
   width="564.79999"
   height="94.599998"
   id="rect120"
   transform="translate(-145.6,-17.95)" />
<text
   transform="translate(360.6714,719.7215)"
   class="st31 st32 st33"
   id="text122">Habitat</text>
<g
   class="st34"
   id="g126"
   transform="translate(-145.6,-17.95)">
	<path
   class="st35"
   d="m 352.6,591.4 c 12.9,1.6 25.9,2.8 38.9,3.8 13,1 26,1.7 39,2.2 26,1 52,1.1 78,0 25.9,-1 51.8,-3 77.4,-6.4 25.6,-3.4 51,-8 75.8,-14.6 24.8,-6.5 48.9,-15.4 71.6,-26.6 l 8.5,-4.3 8.3,-4.5 c 1.4,-0.7 2.8,-1.5 4.1,-2.3 l 4.1,-2.4 c 1.3,-0.8 2.7,-1.6 4,-2.4 l 4,-2.5 c 10.6,-6.7 20.8,-13.9 30.3,-21.9 l 7,-6.1 c 1.2,-1 2.3,-2.1 3.4,-3.2 l 3.4,-3.2 c 2.3,-2.1 4.4,-4.4 6.5,-6.7 l 3.2,-3.4 3,-3.6 c 8.1,-9.5 15.6,-19.6 21.9,-30.5 6.4,-10.8 11.9,-22.3 16.7,-34.2 4.7,-11.9 8.3,-24.3 11.7,-37 v 0 c 0.2,-0.6 0.7,-0.9 1.3,-0.7 0.5,0.1 0.8,0.6 0.8,1 -0.3,13.2 -1.9,26.4 -4.6,39.5 -3,13 -7.2,25.9 -12.7,38.3 -11.1,24.8 -27.8,47.1 -47.9,65.6 -20.2,18.4 -43.7,32.8 -68.4,43.4 -24.8,10.6 -50.4,18.2 -76.3,24 -25.9,5.9 -52.1,9.7 -78.3,12.2 -26.3,2.3 -52.6,3.2 -78.8,3 -26.3,-0.3 -52.5,-1.6 -78.5,-4 -26.1,-2.4 -52.1,-5.6 -77.8,-10.4 -0.6,-0.1 -0.9,-0.7 -0.8,-1.2 0.1,-0.6 0.7,-1 1.2,-0.9 z"
   id="path124" />
</g>
<g
   class="st36"
   id="g130"
   transform="translate(-145.6,-17.95)">
	<path
   class="st35"
   d="m 422.4,525.5 c 35.8,1.5 71.6,0.7 107.1,-2.4 17.8,-1.5 35.5,-3.7 53,-6.7 8.8,-1.5 17.5,-3.2 26.1,-5.1 8.6,-1.9 17.2,-4.1 25.6,-6.6 8.5,-2.5 16.8,-5.3 24.9,-8.6 8.1,-3.2 16.1,-6.8 23.7,-10.9 3.8,-2 7.6,-4.1 11.3,-6.3 l 2.8,-1.6 2.7,-1.7 2.7,-1.7 c 0.9,-0.6 1.8,-1.2 2.6,-1.8 7,-4.8 13.7,-10 19.8,-15.8 l 4.5,-4.4 4.2,-4.7 c 1.4,-1.6 2.6,-3.2 4,-4.9 0.7,-0.8 1.2,-1.7 1.9,-2.5 l 1.8,-2.6 c 4.7,-6.9 8.6,-14.4 11.6,-22.4 3,-8 5.1,-16.3 6.4,-25 1.3,-8.7 1.7,-17.5 1.8,-26.5 v 0 c 0,-0.4 0.4,-0.8 0.8,-0.8 0.4,0 0.7,0.3 0.8,0.6 2.3,8.8 3.6,17.9 3.9,27.1 0.3,9.3 -0.7,18.6 -2.9,27.8 -2.2,9.2 -5.7,18.2 -10.3,26.5 l -1.8,3.1 c -0.6,1 -1.2,2.1 -1.9,3 -1.4,2 -2.7,4 -4.1,5.9 -1.5,1.9 -3,3.8 -4.5,5.6 l -4.8,5.3 c -6.6,6.9 -14,12.9 -21.8,18.2 -1.9,1.4 -3.9,2.6 -5.9,3.8 l -3,1.8 -3.1,1.7 c -4.1,2.3 -8.3,4.3 -12.5,6.3 -8.5,3.9 -17.1,7.1 -25.8,10 -2.2,0.7 -4.4,1.4 -6.6,2.1 -2.2,0.6 -4.4,1.3 -6.6,2 l -6.6,1.8 -6.6,1.7 c -8.9,2.2 -17.8,4.1 -26.7,5.7 -8.9,1.6 -17.9,3 -26.9,4.1 -18,2.2 -36,3.5 -54,4.2 -18,0.6 -36,0.5 -54,-0.1 -9,-0.3 -18,-0.8 -26.9,-1.4 -9,-0.7 -17.9,-1.4 -26.8,-2.5 -0.4,-0.1 -0.8,-0.4 -0.7,-0.9 0,-0.2 0.3,-0.5 0.8,-0.4 z"
   id="path128" />
</g>
<g
   class="st37"
   id="g134"
   transform="translate(-145.6,-17.95)">
	<path
   class="st35"
   d="m 498.2,468.9 c 19.9,0.1 39.9,-1 59.5,-3.4 9.8,-1.2 19.6,-2.8 29.3,-4.8 9.7,-2 19.2,-4.5 28.5,-7.6 9.2,-3.1 18.2,-7.1 26.4,-12.1 8.2,-4.9 15.7,-10.6 21.9,-17.4 3.1,-3.4 5.8,-7.1 8,-11.2 2.2,-4 3.9,-8.4 5.1,-12.9 1.2,-4.6 1.9,-9.3 2.2,-14.2 0.3,-4.9 0,-9.8 -0.3,-14.8 v 0 c 0,-0.3 0.2,-0.5 0.5,-0.5 0.2,0 0.4,0.1 0.5,0.3 1.8,4.7 3.1,9.7 3.9,14.8 0.7,5.1 0.8,10.4 0.2,15.7 -0.6,5.3 -2,10.5 -4.1,15.5 -2.1,5 -5,9.6 -8.3,13.8 -6.7,8.4 -15.5,14.8 -24.7,19.6 -9.3,4.8 -19,8.2 -28.8,11 -9.8,2.8 -19.7,4.9 -29.7,6.5 -10,1.5 -20,2.6 -30,3.2 -10,0.6 -20.1,0.9 -30.1,0.8 -10,-0.1 -20,-0.4 -30,-1.3 -0.3,0 -0.5,-0.3 -0.5,-0.5 0,-0.3 0.2,-0.5 0.5,-0.5 z"
   id="path132" />
</g>
<g
   id="g138"
   transform="translate(-145.6,-17.95)">
	<path
   class="st35"
   d="m 524.1,422.9 c 10.5,-0.9 20.9,-2.2 31.2,-3.9 5.2,-0.8 10.3,-1.8 15.4,-2.9 5.1,-1.1 10.1,-2.4 15,-3.9 4.9,-1.5 9.6,-3.4 14,-5.7 4.3,-2.3 8.4,-4.7 11.7,-7.5 3.2,-2.8 5.3,-6.1 5.7,-10.4 0.2,-2.2 0,-4.5 -0.6,-7 -0.5,-2.4 -1.3,-4.9 -2.2,-7.5 v 0 c -0.1,-0.3 0.1,-0.6 0.3,-0.7 0.2,-0.1 0.4,0 0.5,0.1 2.1,1.8 4,3.9 5.6,6.2 1.6,2.4 2.8,5.2 3.4,8.2 0.6,3.1 0.4,6.5 -0.7,9.7 -1,3.2 -2.9,6 -5,8.3 -4.3,4.6 -9.5,7.5 -14.8,9.5 -5.3,2 -10.6,3.2 -15.9,4.4 -5.3,1.2 -10.6,2 -15.9,2.7 -5.3,0.6 -10.6,1.1 -15.9,1.4 -10.6,0.5 -21.2,0.6 -31.8,-0.1 -0.3,0 -0.5,-0.3 -0.5,-0.5 0.1,-0.2 0.3,-0.4 0.5,-0.4 z"
   id="path136" />
</g>
</svg>
