<?xml version="1.0" encoding="UTF-8" standalone="no"?>
<svg
   xmlns:dc="http://purl.org/dc/elements/1.1/"
   xmlns:cc="http://creativecommons.org/ns#"
   xmlns:rdf="http://www.w3.org/1999/02/22-rdf-syntax-ns#"
   xmlns:svg="http://www.w3.org/2000/svg"
   xmlns="http://www.w3.org/2000/svg"
   xmlns:xlink="http://www.w3.org/1999/xlink"
   xmlns:sodipodi="http://sodipodi.sourceforge.net/DTD/sodipodi-0.dtd"
   xmlns:inkscape="http://www.inkscape.org/namespaces/inkscape"
   id="svg38"
   enable-background="new 0 0 500 500"
   version="1.1"
   viewBox="0 0 1600 1600"
   width="128"
   height="128"
   xml:space="preserve"
   sodipodi:docname="auto_manu_maintenance.svg"
   inkscape:version="1.0.2 (e86c870879, 2021-01-15)">
  <metadata
   id="metadata9">
    <rdf:RDF>
      <cc:Work
   rdf:about="">
        <dc:format>image/svg+xml</dc:format>
        <dc:type
   rdf:resource="http://purl.org/dc/dcmitype/StillImage" />
        <dc:title />
      </cc:Work>
    </rdf:RDF>
  </metadata>
  <defs
   id="defs7">

    

  <linearGradient
   id="SVGID_3_"
   gradientUnits="userSpaceOnUse"
   x1="-106.4556"
   y1="558.61499"
   x2="-111.3906"
   y2="544.22113"
   gradientTransform="matrix(-0.7193,-0.6946,-0.6946,0.7193,408.8325,-428.8361)"><stop
     offset="1.733100e-03"
     style="stop-color:#A6A6A6"
     id="stop31" /><stop
     offset="1"
     style="stop-color:#BFBFBF"
     id="stop33" /></linearGradient><linearGradient
   id="SVGID_4_"
   gradientUnits="userSpaceOnUse"
   x1="126.1564"
   y1="-573.41052"
   x2="130.8887"
   y2="-573.41052"
   gradientTransform="matrix(-0.928,0.3724,0.3724,0.928,421.6721,532.429)"><stop
     offset="0"
     style="stop-color:#4D4D4D"
     id="stop46" /><stop
     offset="4.800854e-02"
     style="stop-color:#696969"
     id="stop48" /><stop
     offset="0.1226"
     style="stop-color:#8E8E8E"
     id="stop50" /><stop
     offset="0.1919"
     style="stop-color:#A9A9A9"
     id="stop52" /><stop
     offset="0.2532"
     style="stop-color:#B9B9B9"
     id="stop54" /><stop
     offset="0.3"
     style="stop-color:#BFBFBF"
     id="stop56" /><stop
     offset="0.7"
     style="stop-color:#BFBFBF"
     id="stop58" /><stop
     offset="0.7468"
     style="stop-color:#B9B9B9"
     id="stop60" /><stop
     offset="0.8081"
     style="stop-color:#A9A9A9"
     id="stop62" /><stop
     offset="0.8774"
     style="stop-color:#8E8E8E"
     id="stop64" /><stop
     offset="0.952"
     style="stop-color:#696969"
     id="stop66" /><stop
     offset="1"
     style="stop-color:#4D4D4D"
     id="stop68" /></linearGradient><linearGradient
   id="SVGID_5_"
   gradientUnits="userSpaceOnUse"
   x1="125.0814"
   y1="-575.80579"
   x2="131.98241"
   y2="-575.80579"
   gradientTransform="matrix(-0.928,0.3724,0.3724,0.928,421.6721,532.429)"><stop
     offset="0"
     style="stop-color:#4D4D4D"
     id="stop75" /><stop
     offset="7.062650e-03"
     style="stop-color:#525252"
     id="stop77" /><stop
     offset="7.697048e-02"
     style="stop-color:#828282"
     id="stop79" /><stop
     offset="0.1434"
     style="stop-color:#A7A7A7"
     id="stop81" /><stop
     offset="0.2046"
     style="stop-color:#C3C3C3"
     id="stop83" /><stop
     offset="0.2587"
     style="stop-color:#D3D3D3"
     id="stop85" /><stop
     offset="0.3"
     style="stop-color:#D9D9D9"
     id="stop87" /><stop
     offset="0.7"
     style="stop-color:#D9D9D9"
     id="stop89" /><stop
     offset="0.7413"
     style="stop-color:#D3D3D3"
     id="stop91" /><stop
     offset="0.7954"
     style="stop-color:#C3C3C3"
     id="stop93" /><stop
     offset="0.8566"
     style="stop-color:#A7A7A7"
     id="stop95" /><stop
     offset="0.923"
     style="stop-color:#828282"
     id="stop97" /><stop
     offset="0.9929"
     style="stop-color:#525252"
     id="stop99" /><stop
     offset="1"
     style="stop-color:#4D4D4D"
     id="stop101" /></linearGradient><linearGradient
   id="SVGID_6_"
   gradientUnits="userSpaceOnUse"
   x1="125.0812"
   y1="-573.7984"
   x2="131.9821"
   y2="-573.7984"
   gradientTransform="matrix(-0.928,0.3724,0.3724,0.928,421.6721,532.429)"><stop
     offset="0"
     style="stop-color:#4D4D4D"
     id="stop110" /><stop
     offset="7.062650e-03"
     style="stop-color:#525252"
     id="stop112" /><stop
     offset="7.697048e-02"
     style="stop-color:#828282"
     id="stop114" /><stop
     offset="0.1434"
     style="stop-color:#A7A7A7"
     id="stop116" /><stop
     offset="0.2046"
     style="stop-color:#C3C3C3"
     id="stop118" /><stop
     offset="0.2587"
     style="stop-color:#D3D3D3"
     id="stop120" /><stop
     offset="0.3"
     style="stop-color:#D9D9D9"
     id="stop122" /><stop
     offset="0.7"
     style="stop-color:#D9D9D9"
     id="stop124" /><stop
     offset="0.7413"
     style="stop-color:#D3D3D3"
     id="stop126" /><stop
     offset="0.7954"
     style="stop-color:#C3C3C3"
     id="stop128" /><stop
     offset="0.8566"
     style="stop-color:#A7A7A7"
     id="stop130" /><stop
     offset="0.923"
     style="stop-color:#828282"
     id="stop132" /><stop
     offset="0.9929"
     style="stop-color:#525252"
     id="stop134" /><stop
     offset="1"
     style="stop-color:#4D4D4D"
     id="stop136" /></linearGradient><linearGradient
   id="SVGID_7_"
   gradientUnits="userSpaceOnUse"
   x1="125.0808"
   y1="-571.79102"
   x2="131.9821"
   y2="-571.79102"
   gradientTransform="matrix(-0.928,0.3724,0.3724,0.928,421.6721,532.429)"><stop
     offset="0"
     style="stop-color:#4D4D4D"
     id="stop145" /><stop
     offset="7.062650e-03"
     style="stop-color:#525252"
     id="stop147" /><stop
     offset="7.697048e-02"
     style="stop-color:#828282"
     id="stop149" /><stop
     offset="0.1434"
     style="stop-color:#A7A7A7"
     id="stop151" /><stop
     offset="0.2046"
     style="stop-color:#C3C3C3"
     id="stop153" /><stop
     offset="0.2587"
     style="stop-color:#D3D3D3"
     id="stop155" /><stop
     offset="0.3"
     style="stop-color:#D9D9D9"
     id="stop157" /><stop
     offset="0.7"
     style="stop-color:#D9D9D9"
     id="stop159" /><stop
     offset="0.7413"
     style="stop-color:#D3D3D3"
     id="stop161" /><stop
     offset="0.7954"
     style="stop-color:#C3C3C3"
     id="stop163" /><stop
     offset="0.8566"
     style="stop-color:#A7A7A7"
     id="stop165" /><stop
     offset="0.923"
     style="stop-color:#828282"
     id="stop167" /><stop
     offset="0.9929"
     style="stop-color:#525252"
     id="stop169" /><stop
     offset="1"
     style="stop-color:#4D4D4D"
     id="stop171" /></linearGradient><linearGradient
   id="SVGID_8_"
   gradientUnits="userSpaceOnUse"
   x1="123.0964"
   y1="-569.80072"
   x2="131.9821"
   y2="-569.80072"
   gradientTransform="matrix(-0.928,0.3724,0.3724,0.928,421.6721,532.429)"><stop
     offset="0"
     style="stop-color:#4D4D4D"
     id="stop180" /><stop
     offset="4.800854e-02"
     style="stop-color:#696969"
     id="stop182" /><stop
     offset="0.1226"
     style="stop-color:#8E8E8E"
     id="stop184" /><stop
     offset="0.1919"
     style="stop-color:#A9A9A9"
     id="stop186" /><stop
     offset="0.2532"
     style="stop-color:#B9B9B9"
     id="stop188" /><stop
     offset="0.3"
     style="stop-color:#BFBFBF"
     id="stop190" /><stop
     offset="0.7"
     style="stop-color:#BFBFBF"
     id="stop192" /><stop
     offset="0.7468"
     style="stop-color:#B9B9B9"
     id="stop194" /><stop
     offset="0.8081"
     style="stop-color:#A9A9A9"
     id="stop196" /><stop
     offset="0.8774"
     style="stop-color:#8E8E8E"
     id="stop198" /><stop
     offset="0.952"
     style="stop-color:#696969"
     id="stop200" /><stop
     offset="1"
     style="stop-color:#4D4D4D"
     id="stop202" /></linearGradient><linearGradient
   id="SVGID_9_"
   gradientUnits="userSpaceOnUse"
   x1="123.7504"
   y1="-573.23712"
   x2="125.909"
   y2="-573.23712"
   gradientTransform="matrix(-0.928,0.3724,0.3724,0.928,421.6721,532.429)"><stop
     offset="0"
     style="stop-color:#4D4D4D"
     id="stop211" /><stop
     offset="7.376400e-02"
     style="stop-color:#515151"
     id="stop213" /><stop
     offset="0.1493"
     style="stop-color:#5D5D5D"
     id="stop215" /><stop
     offset="0.2255"
     style="stop-color:#717171"
     id="stop217" /><stop
     offset="0.3024"
     style="stop-color:#8E8E8E"
     id="stop219" /><stop
     offset="0.379"
     style="stop-color:#B3B3B3"
     id="stop221" /><stop
     offset="0.4021"
     style="stop-color:#BFBFBF"
     id="stop223" /><stop
     offset="0.695"
     style="stop-color:#BFBFBF"
     id="stop225" /><stop
     offset="0.7462"
     style="stop-color:#BABABA"
     id="stop227" /><stop
     offset="0.8052"
     style="stop-color:#ADADAD"
     id="stop229" /><stop
     offset="0.8681"
     style="stop-color:#959595"
     id="stop231" /><stop
     offset="0.9336"
     style="stop-color:#757575"
     id="stop233" /><stop
     offset="1"
     style="stop-color:#4D4D4D"
     id="stop235" /></linearGradient><linearGradient
   id="SVGID_10_"
   gradientUnits="userSpaceOnUse"
   x1="124.8297"
   y1="-568.13489"
   x2="124.8297"
   y2="-578.33942"
   gradientTransform="matrix(-0.928,0.3724,0.3724,0.928,421.6721,532.429)"><stop
     offset="0"
     style="stop-color:#4D4D4D"
     id="stop240" /><stop
     offset="7.239036e-02"
     style="stop-color:#7F7F7F"
     id="stop242" /><stop
     offset="0.1786"
     style="stop-color:#C4C4C4"
     id="stop244" /><stop
     offset="0.2555"
     style="stop-color:#EFEFEF"
     id="stop246" /><stop
     offset="0.2946"
     style="stop-color:#FFFFFF"
     id="stop248" /><stop
     offset="0.695"
     style="stop-color:#FFFFFF"
     id="stop250" /><stop
     offset="0.7371"
     style="stop-color:#FBFBFB"
     id="stop252" /><stop
     offset="0.783"
     style="stop-color:#EDEDED"
     id="stop254" /><stop
     offset="0.8307"
     style="stop-color:#D8D8D8"
     id="stop256" /><stop
     offset="0.8798"
     style="stop-color:#B9B9B9"
     id="stop258" /><stop
     offset="0.9298"
     style="stop-color:#929292"
     id="stop260" /><stop
     offset="0.9799"
     style="stop-color:#626262"
     id="stop262" /><stop
     offset="1"
     style="stop-color:#4D4D4D"
     id="stop264" /></linearGradient><linearGradient
   id="SVGID_12_"
   gradientUnits="userSpaceOnUse"
   x1="-117.192"
   y1="547.13959"
   x2="-75.671303"
   y2="644.9563"
   gradientTransform="matrix(-0.7193,-0.6946,-0.6946,0.7193,408.8325,-428.8361)"><stop
     offset="0"
     style="stop-color:#CCCCCC"
     id="stop273" /><stop
     offset="9.164444e-02"
     style="stop-color:#B2B2B2"
     id="stop275" /><stop
     offset="0.1542"
     style="stop-color:#A6A6A6"
     id="stop277" /><stop
     offset="0.1696"
     style="stop-color:#A8A8A8"
     id="stop279" /><stop
     offset="0.1752"
     style="stop-color:#AEAEAE"
     id="stop281" /><stop
     offset="0.1791"
     style="stop-color:#BABABA"
     id="stop283" /><stop
     offset="0.1802"
     style="stop-color:#BFBFBF"
     id="stop285" /><stop
     offset="0.1812"
     style="stop-color:#B1B1B1"
     id="stop287" /><stop
     offset="0.1829"
     style="stop-color:#A1A1A1"
     id="stop289" /><stop
     offset="0.1849"
     style="stop-color:#959595"
     id="stop291" /><stop
     offset="0.1878"
     style="stop-color:#8E8E8E"
     id="stop293" /><stop
     offset="0.1958"
     style="stop-color:#8C8C8C"
     id="stop295" /><stop
     offset="0.2083"
     style="stop-color:#9E9E9E"
     id="stop297" /><stop
     offset="0.2288"
     style="stop-color:#B3B3B3"
     id="stop299" /><stop
     offset="0.2531"
     style="stop-color:#C4C4C4"
     id="stop301" /><stop
     offset="0.2831"
     style="stop-color:#D0D0D0"
     id="stop303" /><stop
     offset="0.3251"
     style="stop-color:#D7D7D7"
     id="stop305" /><stop
     offset="0.4419"
     style="stop-color:#D9D9D9"
     id="stop307" /><stop
     offset="1"
     style="stop-color:#BFBFBF"
     id="stop309" /></linearGradient><linearGradient
   id="SVGID_13_"
   gradientUnits="userSpaceOnUse"
   x1="-91.8563"
   y1="654.1922"
   x2="-91.8563"
   y2="538.96149"
   gradientTransform="matrix(-0.7193,-0.6946,-0.6946,0.7193,408.8325,-428.8361)"><stop
     offset="0.6967"
     style="stop-color:#808080"
     id="stop314" /><stop
     offset="0.7504"
     style="stop-color:#E6E6E6"
     id="stop316" /></linearGradient><linearGradient
   id="SVGID_14_"
   gradientUnits="userSpaceOnUse"
   x1="-103.2743"
   y1="653.60059"
   x2="-103.2743"
   y2="538.96143"
   gradientTransform="matrix(-0.7193,-0.6946,-0.6946,0.7193,408.8325,-428.8361)"><stop
     offset="0.6967"
     style="stop-color:#808080"
     id="stop321" /><stop
     offset="0.8423"
     style="stop-color:#D9D9D9"
     id="stop323" /></linearGradient><linearGradient
   id="SVGID_15_"
   gradientUnits="userSpaceOnUse"
   x1="-99.029404"
   y1="643.89478"
   x2="-99.029404"
   y2="651.91443"
   gradientTransform="matrix(-0.7193,-0.6946,-0.6946,0.7193,408.8325,-428.8361)"><stop
     offset="0"
     style="stop-color:#666666"
     id="stop328" /><stop
     offset="0.2802"
     style="stop-color:#919191"
     id="stop330" /><stop
     offset="0.7709"
     style="stop-color:#D7D7D7"
     id="stop332" /><stop
     offset="1"
     style="stop-color:#F2F2F2"
     id="stop334" /></linearGradient><linearGradient
   id="SVGID_16_"
   gradientUnits="userSpaceOnUse"
   x1="-99.189796"
   y1="642.28137"
   x2="-99.189796"
   y2="578.67822"
   gradientTransform="matrix(-0.7193,-0.6946,-0.6946,0.7193,408.8325,-428.8361)"><stop
     offset="0"
     style="stop-color:#D9D9D9"
     id="stop341" /><stop
     offset="1"
     style="stop-color:#BFBFBF"
     id="stop343" /></linearGradient><linearGradient
   id="SVGID_17_"
   gradientUnits="userSpaceOnUse"
   x1="-105.5562"
   y1="567.5592"
   x2="-97.079597"
   y2="563.60651"
   gradientTransform="matrix(-0.7193,-0.6946,-0.6946,0.7193,408.8325,-428.8361)"><stop
     offset="4.852690e-02"
     style="stop-color:#737373"
     id="stop348" /><stop
     offset="0.1508"
     style="stop-color:#E6E6E6"
     id="stop350" /><stop
     offset="0.8163"
     style="stop-color:#E6E6E6"
     id="stop352" /><stop
     offset="0.9133"
     style="stop-color:#737373"
     id="stop354" /></linearGradient><linearGradient
   id="SVGID_19_"
   gradientUnits="userSpaceOnUse"
   x1="290.25919"
   y1="-440.38721"
   x2="290.25919"
   y2="-499.13251"
   gradientTransform="matrix(0.768,-0.7643,0.754,0.7577,213.887,664.1198)"><stop
     offset="1.733100e-03"
     style="stop-color:#1A1A1A"
     id="stop382" /><stop
     offset="0.1379"
     style="stop-color:#1A1A1A"
     id="stop384" /><stop
     offset="0.9653"
     style="stop-color:#1A1A1A"
     id="stop386" /><stop
     offset="0.9743"
     style="stop-color:#202020"
     id="stop388" /><stop
     offset="0.986"
     style="stop-color:#303030"
     id="stop390" /><stop
     offset="0.9992"
     style="stop-color:#4B4B4B"
     id="stop392" /><stop
     offset="1"
     style="stop-color:#4D4D4D"
     id="stop394" /></linearGradient><linearGradient
   id="SVGID_20_"
   gradientUnits="userSpaceOnUse"
   x1="-43.8983"
   y1="373.65479"
   x2="-40.638"
   y2="373.65479"
   gradientTransform="matrix(-1.0713,1.0874,0.7124,0.7019,-268.1047,-169.1618)"><stop
     offset="0"
     style="stop-color:#808080"
     id="stop413" /><stop
     offset="4.669595e-02"
     style="stop-color:#8F8F8F"
     id="stop415" /><stop
     offset="0.1366"
     style="stop-color:#B6B6B6"
     id="stop417" /><stop
     offset="0.2305"
     style="stop-color:#E6E6E6"
     id="stop419" /><stop
     offset="0.3865"
     style="stop-color:#E6E6E6"
     id="stop421" /><stop
     offset="0.5615"
     style="stop-color:#B3B3B3"
     id="stop423" /><stop
     offset="0.5738"
     style="stop-color:#B7B7B7"
     id="stop425" /><stop
     offset="0.6928"
     style="stop-color:#D9D9D9"
     id="stop427" /><stop
     offset="0.7574"
     style="stop-color:#E6E6E6"
     id="stop429" /><stop
     offset="0.811"
     style="stop-color:#C8C8C8"
     id="stop431" /><stop
     offset="0.8937"
     style="stop-color:#A1A1A1"
     id="stop433" /><stop
     offset="0.9596"
     style="stop-color:#888888"
     id="stop435" /><stop
     offset="1"
     style="stop-color:#808080"
     id="stop437" /></linearGradient></defs>
  <sodipodi:namedview
   inkscape:pagecheckerboard="true"
   inkscape:current-layer="layer-Auto"
   pagecolor="#ffffff"
   bordercolor="#666666"
   inkscape:document-rotation="0"
   borderopacity="1"
   objecttolerance="10"
   gridtolerance="10"
   guidetolerance="10"
   inkscape:pageopacity="0"
   inkscape:pageshadow="2"
   inkscape:window-width="1920"
   inkscape:window-height="979"
   id="namedview5"
   showgrid="false"
   inkscape:zoom="5.82656"
   inkscape:cx="60.029237"
   inkscape:cy="63.057543"
   inkscape:window-x="0"
   inkscape:window-y="0"
   inkscape:window-maximized="1"
   units="px"
   width="128mm" />
  <circle
   transform="matrix(32.073652,0,0,32.073652,299.09829,-138.0357)"
   cy="29.246302"
   cx="15.617233"
   id="cercle"
   style="fill:none;fill-opacity:1;stroke:#ffc800;stroke-width:1.16918;stroke-miterlimit:4;stroke-dasharray:none;stroke-opacity:0.69803923"
   r="24.358" />

  <g
   style="display:inline"
   inkscape:groupmode="layer"
   id="layer-Auto"
   inkscape:label="Auto">

  <g
   id="g29"
   transform="matrix(12.5,0,0,12.5,429.99997,442.05932)"><pattern
     id="SVGID_1_"
     xlink:href="#SVGID_11_"
     patternTransform="matrix(1.3281 0 0 1.3281 2607.5029 2660.1726)" /><linearGradient
     id="SVGID_2_"
     gradientUnits="userSpaceOnUse"
     x1="24.151699"
     y1="50.205101"
     x2="127.5517"
     y2="50.205101"
     gradientTransform="matrix(1,0,0,-1,0,128)"><stop
       offset="0"
       style="stop-color:#42210B;stop-opacity:0"
       id="stop22" /><stop
       offset="1"
       style="stop-color:#42210B"
       id="stop24" /></linearGradient></g><g
   id="g450"
   transform="matrix(12.5,0,0,12.5,1001.9268,453.52556)"><linearGradient
     id="linearGradient1863"
     gradientUnits="userSpaceOnUse"
     x1="-43.8983"
     y1="373.65479"
     x2="-40.638"
     y2="373.65479"
     gradientTransform="matrix(-1.0713,1.0874,0.7124,0.7019,-268.1047,-169.1618)"><stop
       offset="0"
       style="stop-color:#808080"
       id="stop1837" /><stop
       offset="4.669595e-02"
       style="stop-color:#8F8F8F"
       id="stop1839" /><stop
       offset="0.1366"
       style="stop-color:#B6B6B6"
       id="stop1841" /><stop
       offset="0.2305"
       style="stop-color:#E6E6E6"
       id="stop1843" /><stop
       offset="0.3865"
       style="stop-color:#E6E6E6"
       id="stop1845" /><stop
       offset="0.5615"
       style="stop-color:#B3B3B3"
       id="stop1847" /><stop
       offset="0.5738"
       style="stop-color:#B7B7B7"
       id="stop1849" /><stop
       offset="0.6928"
       style="stop-color:#D9D9D9"
       id="stop1851" /><stop
       offset="0.7574"
       style="stop-color:#E6E6E6"
       id="stop1853" /><stop
       offset="0.811"
       style="stop-color:#C8C8C8"
       id="stop1855" /><stop
       offset="0.8937"
       style="stop-color:#A1A1A1"
       id="stop1857" /><stop
       offset="0.9596"
       style="stop-color:#888888"
       id="stop1859" /><stop
       offset="1"
       style="stop-color:#808080"
       id="stop1861" /></linearGradient><path
     class="st6"
     d="m 28.3,28.9 c 0,0 3.4,5 2.5,5.9 -0.8,0.9 -5.9,-2.4 -5.9,-2.4 l -1.5,-1.9 v 0 l 1.5,1.9 c 0,0 5.2,3.3 6,2.5 0.9,-1 -2.6,-6.1 -2.6,-6 l -1.9,-1.5 v 0 z"
     id="path448"
     transform="matrix(1.0204082,0,0,1,-0.47755102,0)"
     style="fill:#e6e6e6;fill-opacity:1;stroke:none;stroke-width:0.989949;stroke-opacity:0.7" /><g
     id="g26"
     transform="translate(-63.926257,-17.320147)"><g
       id="g22"><g
         id="g6"
         style="fill-opacity:1"><path
           d="m 54.757,48.167 c 8.668,4.767 16.16,2.768 22.474,-3.547 l 6.484,-6.49 c 5.699,-5.692 4.413,-12.274 1.06,-20.319 l -7.5,7.505 c -3.551,3.55 -7.595,5.266 -11.808,1.044 L 65.238,26.14 C 61.024,21.923 62.735,17.879 66.287,14.328 L 73.79,6.825 C 65.755,3.474 59.171,2.192 53.48,7.885 l -6.495,6.489 c -6.308,6.309 -9.09,14.234 -4.327,22.905 -0.834,0.311 -1.609,0.767 -2.257,1.416 L 9.942,69.15 C 7.08,72.013 7.523,77.1 10.928,80.5 l 0.173,0.174 c 3.412,3.407 8.477,3.849 11.353,0.975 L 42.837,61.264"
           fill="#e0f1f8"
           id="path2"
           style="fill-opacity:1" /><path
           d="m 17.672,86.04 c -2.912,0 -5.969,-1.214 -8.347,-3.588 L 9.146,82.271 C 7.087,80.215 5.819,77.574 5.582,74.84 5.33,71.943 6.248,69.291 8.166,67.373 L 38.624,36.918 c 0.234,-0.235 0.483,-0.456 0.748,-0.663 -3.421,-8.106 -1.396,-16.426 5.836,-23.658 l 6.496,-6.49 c 6.951,-6.956 15.188,-4.88 23.052,-1.602 0.773,0.323 1.336,1.01 1.498,1.832 0.162,0.822 -0.096,1.671 -0.688,2.264 l -7.503,7.503 c -3.861,3.861 -3.212,6.094 -1.048,8.259 l 0.189,0.182 c 1.854,1.855 3.159,1.874 3.983,1.731 1.263,-0.22 2.713,-1.141 4.311,-2.738 l 7.499,-7.504 c 0.592,-0.593 1.441,-0.852 2.265,-0.688 0.822,0.162 1.509,0.725 1.832,1.498 3.28,7.87 5.357,16.111 -1.604,23.063 l -6.482,6.488 c -7.587,7.588 -16.39,8.961 -25.462,3.973 -1.216,-0.668 -1.659,-2.196 -0.99,-3.412 0.668,-1.216 2.193,-1.661 3.412,-0.99 7.104,3.906 13.479,2.886 19.486,-3.122 l 6.483,-6.489 c 3.506,-3.502 4.105,-7.383 1.87,-14.021 l -4.756,4.759 c -2.377,2.376 -4.667,3.729 -7.002,4.135 -2.982,0.521 -5.795,-0.521 -8.361,-3.093 L 63.5,27.955 C 60.787,25.242 57.37,19.689 64.51,12.553 L 69.269,7.794 C 62.633,5.558 58.758,6.159 55.257,9.662 l -6.497,6.49 c -6.355,6.356 -7.668,13.059 -3.9,19.918 0.352,0.641 0.407,1.401 0.152,2.086 -0.254,0.684 -0.794,1.224 -1.478,1.479 -0.551,0.205 -1.006,0.486 -1.354,0.836 L 11.719,70.927 c -0.85,0.851 -1.252,2.086 -1.131,3.479 0.136,1.556 0.887,3.089 2.115,4.316 l 0.179,0.18 c 2.414,2.41 5.914,2.85 7.795,0.969 L 41.06,59.487 c 0.98,-0.982 2.572,-0.982 3.553,0 0.981,0.98 0.981,2.571 0,3.553 L 24.229,83.425 c -1.754,1.754 -4.104,2.614 -6.557,2.615 z"
           fill="#454b53"
           id="path4"
           style="fill-opacity:1" /></g><g
         id="g12"><path
           d="m 38.28,55.838 c 0.311,0.828 0.769,1.596 1.417,2.248 l 25.775,26.119 c 2.862,2.864 7.94,2.43 11.343,-0.975 l 0.173,-0.185 C 80.397,79.65 80.832,74.57 77.973,71.704 L 52.2,45.581 c -0.645,-0.654 -1.423,-1.102 -2.245,-1.415 z"
           fill="#7ba7c9"
           id="path8" /><path
           d="m 70.255,88.61 v 0 c -2.536,0 -4.865,-0.934 -6.56,-2.629 L 37.909,59.851 C 37.051,58.988 36.382,57.933 35.928,56.72 35.582,55.798 35.807,54.758 36.504,54.062 L 48.179,42.39 c 0.7,-0.701 1.745,-0.924 2.672,-0.571 1.243,0.474 2.3,1.146 3.14,1.999 L 79.762,69.94 c 1.906,1.911 2.823,4.562 2.572,7.453 -0.236,2.734 -1.505,5.374 -3.573,7.433 l -0.111,0.122 c -2.346,2.349 -5.385,3.662 -8.395,3.662 z M 41.419,56.253 c 0.02,0.021 0.04,0.041 0.061,0.062 L 67.261,82.44 c 0.944,0.944 2.15,1.146 2.994,1.146 v 0 c 1.687,0 3.43,-0.777 4.783,-2.132 l 0.116,-0.126 c 1.289,-1.285 2.04,-2.814 2.174,-4.367 0.12,-1.392 -0.282,-2.628 -1.134,-3.481 L 50.412,47.346 C 50.397,47.332 50.384,47.318 50.37,47.304 Z"
           fill="#454b53"
           id="path10" /></g><path
         d="m 43.96,52.352 c -0.643,0 -1.286,-0.245 -1.776,-0.736 L 14.205,23.639 c -0.981,-0.98 -0.981,-2.571 0,-3.553 0.98,-0.982 2.572,-0.982 3.553,0 l 27.979,27.977 c 0.981,0.98 0.981,2.571 0,3.553 -0.491,0.49 -1.134,0.736 -1.777,0.736 z"
         fill="#454b53"
         id="path14" /><g
         id="g20"><polygon
           fill="#fde497"
           points="20.602,17.238 7.434,8.588 2.927,13.103 11.578,26.272 "
           id="polygon16" /><path
           d="m 11.578,28.785 c -0.085,0 -0.17,-0.005 -0.255,-0.014 C 10.57,28.695 9.893,28.284 9.478,27.652 L 0.827,14.482 C 0.173,13.487 0.307,12.169 1.148,11.327 L 5.655,6.812 C 6.497,5.968 7.814,5.833 8.813,6.488 l 13.168,8.65 c 0.631,0.414 1.042,1.092 1.119,1.843 0.077,0.752 -0.188,1.498 -0.722,2.032 l -9.023,9.034 c -0.473,0.475 -1.114,0.738 -1.777,0.738 z m -5.43,-15.353 5.834,8.881 4.662,-4.668 -8.879,-5.833 z"
           fill="#454b53"
           id="path18" /></g></g></g></g></g>

  <script
   id="SetMode"
   type="text/javascript">
    { console.log(&quot;Appel au svg &quot;+this.motif.libelle+&quot; avec mode=&quot;+mode);
      if (mode==null)  mode=0;
    if (mode==0)
    { this.getElementById(&quot;layer-Auto&quot;).setAttribute(&quot;visibility&quot;, &quot;visible&quot; );
    this.getElementById(&quot;layer-Manu&quot;).setAttribute(&quot;visibility&quot;, &quot;hidden&quot; );
    this.getElementById(&quot;layer-Maintenance&quot;).setAttribute(&quot;visibility&quot;, &quot;hidden&quot; );
    }
    else if (mode==1)
    { this.getElementById(&quot;layer-Auto&quot;).setAttribute(&quot;visibility&quot;, &quot;hidden&quot; );
    this.getElementById(&quot;layer-Manu&quot;).setAttribute(&quot;visibility&quot;, &quot;visible&quot; );
    this.getElementById(&quot;layer-Maintenance&quot;).setAttribute(&quot;visibility&quot;, &quot;hidden&quot; );
    }
    else if (mode==2)
    { this.getElementById(&quot;layer-Auto&quot;).setAttribute(&quot;visibility&quot;, &quot;hidden&quot; );
    this.getElementById(&quot;layer-Manu&quot;).setAttribute(&quot;visibility&quot;, &quot;hidden&quot; );
    this.getElementById(&quot;layer-Maintenance&quot;).setAttribute(&quot;visibility&quot;, &quot;visible&quot; );
    }
    }
  </script>
</svg>
