<?xml version="1.0" encoding="UTF-8" standalone="no"?>
<!-- Generator: Adobe Illustrator 19.0.0, SVG Export Plug-In . SVG Version: 6.00 Build 0)  -->

<svg
   version="1.1"
   id="Layer_1"
   x="0px"
   y="0px"
   viewBox="0 0 128 128"
   xml:space="preserve"
   sodipodi:docname="check_checked.svg"
   width="128"
   height="128"
   inkscape:version="1.1 (c68e22c387, 2021-05-23)"
   xmlns:inkscape="http://www.inkscape.org/namespaces/inkscape"
   xmlns:sodipodi="http://sodipodi.sourceforge.net/DTD/sodipodi-0.dtd"
   xmlns="http://www.w3.org/2000/svg"
   xmlns:svg="http://www.w3.org/2000/svg"><defs
   id="defs45"><inkscape:perspective
     sodipodi:type="inkscape:persp3d"
     inkscape:vp_x="0 : -125.60001 : 1"
     inkscape:vp_y="0 : 1000 : 0"
     inkscape:vp_z="507.20001 : -125.60001 : 1"
     inkscape:persp3d-origin="253.60001 : -210.13334 : 1"
     id="perspective897" /></defs><sodipodi:namedview
   id="namedview43"
   pagecolor="#ffffff"
   bordercolor="#666666"
   borderopacity="1.0"
   inkscape:pageshadow="2"
   inkscape:pageopacity="0.0"
   inkscape:pagecheckerboard="0"
   showgrid="false"
   fit-margin-top="0"
   fit-margin-left="0"
   fit-margin-right="0"
   fit-margin-bottom="0"
   inkscape:zoom="1.5299684"
   inkscape:cx="61.765981"
   inkscape:cy="64.05361"
   inkscape:window-width="1920"
   inkscape:window-height="979"
   inkscape:window-x="0"
   inkscape:window-y="0"
   inkscape:window-maximized="1"
   inkscape:current-layer="Layer_1" />
<circle
   style="fill:#32ba7c;stroke-width:3.9625"
   cx="253.60001"
   cy="253.60001"
   r="253.60001"
   id="circle2"
   transform="scale(0.25236592)" />
<path
   style="fill:#0aa06e;stroke-width:3.9625"
   d="m 188.8,368 130.4,130.4 c 108,-28.8 188,-127.2 188,-244.8 0,-2.4 0,-4.8 0,-7.2 L 404.8,152 Z"
   id="path4"
   transform="scale(0.25236592)" />
<g
   id="g10"
   transform="scale(0.25236592)"
   style="stroke-width:3.9625">
	<path
   style="fill:#ffffff;stroke-width:3.9625"
   d="m 260,310.4 c 11.2,11.2 11.2,30.4 0,41.6 l -23.2,23.2 c -11.2,11.2 -30.4,11.2 -41.6,0 L 93.6,272.8 c -11.2,-11.2 -11.2,-30.4 0,-41.6 L 116.8,208 c 11.2,-11.2 30.4,-11.2 41.6,0 z"
   id="path6" />
	<path
   style="fill:#ffffff;stroke-width:3.9625"
   d="m 348.8,133.6 c 11.2,-11.2 30.4,-11.2 41.6,0 l 23.2,23.2 c 11.2,11.2 11.2,30.4 0,41.6 l -176,175.2 c -11.2,11.2 -30.4,11.2 -41.6,0 l -23.2,-23.2 c -11.2,-11.2 -11.2,-30.4 0,-41.6 z"
   id="path8" />
</g>
<g
   id="g12"
   transform="scale(0.25236592)"
   style="stroke-width:3.9625">
</g>
<g
   id="g14"
   transform="scale(0.25236592)"
   style="stroke-width:3.9625">
</g>
<g
   id="g16"
   transform="scale(0.25236592)"
   style="stroke-width:3.9625">
</g>
<g
   id="g18"
   transform="scale(0.25236592)"
   style="stroke-width:3.9625">
</g>
<g
   id="g20"
   transform="scale(0.25236592)"
   style="stroke-width:3.9625">
</g>
<g
   id="g22"
   transform="scale(0.25236592)"
   style="stroke-width:3.9625">
</g>
<g
   id="g24"
   transform="scale(0.25236592)"
   style="stroke-width:3.9625">
</g>
<g
   id="g26"
   transform="scale(0.25236592)"
   style="stroke-width:3.9625">
</g>
<g
   id="g28"
   transform="scale(0.25236592)"
   style="stroke-width:3.9625">
</g>
<g
   id="g30"
   transform="scale(0.25236592)"
   style="stroke-width:3.9625">
</g>
<g
   id="g32"
   transform="scale(0.25236592)"
   style="stroke-width:3.9625">
</g>
<g
   id="g34"
   transform="scale(0.25236592)"
   style="stroke-width:3.9625">
</g>
<g
   id="g36"
   transform="scale(0.25236592)"
   style="stroke-width:3.9625">
</g>
<g
   id="g38"
   transform="scale(0.25236592)"
   style="stroke-width:3.9625">
</g>
<g
   id="g40"
   transform="scale(0.25236592)"
   style="stroke-width:3.9625">
</g>
</svg>
