<?xml version="1.0" encoding="UTF-8" standalone="no"?>
<!-- Generator: Adobe Illustrator 19.0.0, SVG Export Plug-In . SVG Version: 6.00 Build 0)  -->

<svg
   version="1.1"
   id="Layer_1"
   x="0px"
   y="0px"
   viewBox="0 0 128 128"
   xml:space="preserve"
   sodipodi:docname="check_unchecked_but_ok.svg"
   inkscape:version="1.1 (c68e22c387, 2021-05-23)"
   width="128"
   height="128"
   xmlns:inkscape="http://www.inkscape.org/namespaces/inkscape"
   xmlns:sodipodi="http://sodipodi.sourceforge.net/DTD/sodipodi-0.dtd"
   xmlns="http://www.w3.org/2000/svg"
   xmlns:svg="http://www.w3.org/2000/svg"><defs
   id="defs49" /><sodipodi:namedview
   id="namedview47"
   pagecolor="#ffffff"
   bordercolor="#666666"
   borderopacity="1.0"
   inkscape:pageshadow="2"
   inkscape:pageopacity="0.0"
   inkscape:pagecheckerboard="0"
   showgrid="false"
   inkscape:zoom="2.6127946"
   inkscape:cx="62.576676"
   inkscape:cy="63.916237"
   inkscape:window-width="1920"
   inkscape:window-height="979"
   inkscape:window-x="0"
   inkscape:window-y="0"
   inkscape:window-maximized="1"
   inkscape:current-layer="g14"
   fit-margin-top="0"
   fit-margin-left="0"
   fit-margin-right="0"
   fit-margin-bottom="0" />
<g
   id="g14"
   transform="translate(-84.5,-84.5)">
	<g
   id="g8"
   transform="matrix(0.43097643,0,0,0.43097643,84.5,84.5)"
   style="stroke-width:2.32031">
		<g
   id="g6"
   style="stroke-width:2.32031">
			<g
   id="g4"
   style="stroke-width:2.32031">
				<circle
   style="fill:#c0952b;fill-opacity:1;stroke-width:2.32031"
   cx="148.5"
   cy="148.5"
   id="circle2"
   r="148.5" />
			</g>
		</g>
	</g>
	<path
   style="fill:#936315;fill-opacity:1;stroke-width:2.32031"
   d="m 223.53,86.581 -138.186,135.711 74.293,74.293 c 73.135,-5.423 131.525,-63.813 136.948,-136.948 z"
   id="path10"
   transform="matrix(0.43097643,0,0,0.43097643,84.5,84.5)" />
	<polygon
   style="fill:#ecf0f1;stroke-width:2.32031"
   points="118.802,148.5 65.177,202.125 94.875,231.823 148.5,178.198 202.125,231.823 231.823,202.125 178.198,148.5 231.823,94.875 202.125,65.177 148.5,118.802 94.875,65.177 65.177,94.875 "
   id="polygon12"
   transform="matrix(0.43097643,0,0,0.43097643,84.5,84.5)" />
</g>
<g
   id="g16"
   transform="translate(-84.5,-84.5)">
</g>
<g
   id="g18"
   transform="translate(-84.5,-84.5)">
</g>
<g
   id="g20"
   transform="translate(-84.5,-84.5)">
</g>
<g
   id="g22"
   transform="translate(-84.5,-84.5)">
</g>
<g
   id="g24"
   transform="translate(-84.5,-84.5)">
</g>
<g
   id="g26"
   transform="translate(-84.5,-84.5)">
</g>
<g
   id="g28"
   transform="translate(-84.5,-84.5)">
</g>
<g
   id="g30"
   transform="translate(-84.5,-84.5)">
</g>
<g
   id="g32"
   transform="translate(-84.5,-84.5)">
</g>
<g
   id="g34"
   transform="translate(-84.5,-84.5)">
</g>
<g
   id="g36"
   transform="translate(-84.5,-84.5)">
</g>
<g
   id="g38"
   transform="translate(-84.5,-84.5)">
</g>
<g
   id="g40"
   transform="translate(-84.5,-84.5)">
</g>
<g
   id="g42"
   transform="translate(-84.5,-84.5)">
</g>
<g
   id="g44"
   transform="translate(-84.5,-84.5)">
</g>
</svg>
