<?xml version="1.0" encoding="UTF-8" standalone="no"?>
<!-- Generator: Adobe Illustrator 19.0.0, SVG Export Plug-In . SVG Version: 6.00 Build 0)  -->

<svg
   version="1.1"
   id="Layer_1"
   x="0px"
   y="0px"
   viewBox="0 0 113.06617 128"
   xml:space="preserve"
   sodipodi:docname="clef_a_molette_1_source.svg"
   width="113.06616"
   height="128"
   inkscape:version="1.1 (c68e22c387, 2021-05-23)"
   xmlns:inkscape="http://www.inkscape.org/namespaces/inkscape"
   xmlns:sodipodi="http://sodipodi.sourceforge.net/DTD/sodipodi-0.dtd"
   xmlns="http://www.w3.org/2000/svg"
   xmlns:svg="http://www.w3.org/2000/svg"><defs
   id="defs53" /><sodipodi:namedview
   id="namedview51"
   pagecolor="#ffffff"
   bordercolor="#666666"
   borderopacity="1.0"
   inkscape:pageshadow="2"
   inkscape:pageopacity="0.0"
   inkscape:pagecheckerboard="0"
   showgrid="false"
   fit-margin-top="0"
   fit-margin-left="0"
   fit-margin-right="0"
   fit-margin-bottom="0"
   inkscape:zoom="1.515631"
   inkscape:cx="35.958621"
   inkscape:cy="63.999748"
   inkscape:window-width="1920"
   inkscape:window-height="979"
   inkscape:window-x="0"
   inkscape:window-y="0"
   inkscape:window-maximized="1"
   inkscape:current-layer="Layer_1" />
<polygon
   style="fill:#ff0000;fill-opacity:1;stroke-width:3.99999"
   points="139.181,91.479 53.87,176.778 39.14,162.037 83.34,71.301 145.372,9.27 183.381,47.267 174.076,56.584 174.064,56.572 139.168,91.467 "
   id="polygon2"
   transform="matrix(0.25000085,0,0,0.25000085,-7.466776,6.2500212e-5)" />
<g
   id="g10"
   transform="matrix(0.25000085,0,0,0.25000085,-7.466776,6.2500212e-5)"
   style="stroke-width:3.99999">
	<polygon
   style="fill:#e6e6e6;stroke-width:3.99999"
   points="324.52,188.406 350.111,213.997 318.651,245.445 293.06,219.854 "
   id="polygon4" />
	<path
   style="fill:#e6e6e6;stroke-width:3.99999"
   d="m 404.951,268.837 c 8.687,8.687 8.687,22.774 0,31.46 -4.337,4.337 -10.034,6.5 -15.73,6.5 -5.684,0 -11.368,-2.162 -15.718,-6.5 l -54.852,-54.852 31.46,-31.448 z"
   id="path6" />
	
		<rect
   x="156.37399"
   y="63.915001"
   transform="matrix(-0.7071,0.7071,-0.7071,-0.7071,378.6857,40.0515)"
   style="fill:#e6e6e6;stroke-width:3.99999"
   width="49.348999"
   height="69.079002"
   id="rect8" />
</g>
<path
   style="fill:#ff0000;fill-opacity:1;stroke-width:3.99999"
   d="m 461.001,433.454 c 7.921,7.933 11.875,18.313 11.875,28.692 0,10.392 -3.954,20.784 -11.875,28.705 -15.841,15.841 -41.544,15.841 -57.385,0 L 216.324,303.559 c -7.352,-7.352 -12.579,-16.558 -15.149,-26.641 l -12.357,-48.71 c -2.632,-10.38 -14.136,-15.718 -23.774,-11.035 l -47.586,23.194 -14.729,-14.742 85.299,-85.299 34.896,-34.896 9.305,-9.305 37.997,37.997 54.296,54.283 -31.46,31.448 -22.835,22.835 z m -17.831,38.775 c 6.413,-6.426 6.413,-16.83 0,-23.255 -6.426,-6.426 -16.842,-6.426 -23.268,0 -6.426,6.426 -6.426,16.83 0,23.255 6.426,6.426 16.843,6.426 23.268,0 z"
   id="path12"
   transform="matrix(0.25000085,0,0,0.25000085,-7.466776,6.2500212e-5)" />
<g
   id="g18"
   transform="matrix(0.25000085,0,0,0.25000085,-7.466776,6.2500212e-5)"
   style="stroke-width:3.99999">
	<path
   style="fill:#333333;stroke-width:3.99999"
   d="M 467.554,426.907 283.336,242.69 l 9.727,-9.727 73.881,73.881 h 10e-4 c 6.143,6.143 14.21,9.213 22.278,9.213 8.069,0 16.138,-3.071 22.279,-9.213 12.283,-12.285 12.283,-32.273 0,-44.557 L 238.785,89.569 c -3.621,-3.619 -9.488,-3.619 -13.107,0 l -2.752,2.752 -35.749,-35.748 2.753,-2.753 c 1.737,-1.737 2.714,-4.095 2.714,-6.553 0,-2.458 -0.976,-4.815 -2.714,-6.553 l -38,-38 c -3.621,-3.619 -9.488,-3.619 -13.107,0 l -62.04,62.039 c -0.727,0.727 -1.327,1.571 -1.777,2.494 l -44.203,90.732 c -1.731,3.555 -1.017,7.817 1.777,10.612 l 14.734,14.734 c 1.739,1.737 4.095,2.715 6.554,2.715 2.459,0 4.814,-0.976 6.554,-2.715 l 78.75,-78.75 35.749,35.748 -78.751,78.752 c -3.619,3.619 -3.619,9.486 0,13.106 l 14.734,14.734 c 2.798,2.796 7.058,3.511 10.613,1.778 l 47.59,-23.184 c 2.837,-1.383 5.322,-0.631 6.55,-0.062 1.228,0.57 3.407,1.983 4.183,5.043 l 12.358,48.703 c 2.967,11.694 9.044,22.386 17.576,30.918 l 187.287,187.287 c 9.415,9.415 21.932,14.6 35.245,14.6 13.314,0 25.832,-5.185 35.247,-14.6 19.436,-19.434 19.436,-51.056 10e-4,-70.491 z M 324.515,201.512 337,213.996 318.655,232.341 306.17,219.857 Z m 73.882,92.227 c -5.056,5.058 -13.287,5.058 -18.346,0 h 0.001 l -48.29,-48.29 18.345,-18.345 48.29,48.29 c 5.057,5.058 5.057,13.286 0,18.345 z M 53.868,163.667 50.359,160.158 90.989,76.762 145.376,22.375 170.27,47.268 Z m 98.411,-72.197 21.791,-21.791 35.749,35.748 -21.791,21.791 z m 302.168,392.823 c -5.913,5.914 -13.775,9.171 -22.14,9.171 -8.363,0 -16.226,-3.257 -22.138,-9.171 L 222.882,297.006 c -6.173,-6.173 -10.571,-13.909 -12.718,-22.371 l -12.358,-48.703 c -1.944,-7.665 -7.173,-13.969 -14.345,-17.298 -3.511,-1.629 -7.263,-2.442 -11.015,-2.442 -3.915,0 -7.827,0.886 -11.456,2.654 l -41.649,20.29 -3.509,-3.509 116.4,-116.4 79.177,79.176 -47.731,47.732 c -3.619,3.619 -3.619,9.486 0,13.106 l 190.768,190.772 c 12.21,12.208 12.21,32.072 10e-4,44.28 z"
   id="path14" />
	<path
   style="fill:#333333;stroke-width:3.99999"
   d="m 431.533,434.885 c -6.87,0 -13.328,2.675 -18.186,7.533 -4.859,4.857 -7.534,11.316 -7.534,18.186 0,6.87 2.675,13.328 7.533,18.186 4.859,4.857 11.316,7.533 18.187,7.533 6.87,0 13.327,-2.675 18.184,-7.533 0,0 0,0 0.001,-0.001 4.857,-4.857 7.533,-11.315 7.533,-18.186 0,-6.87 -2.675,-13.328 -7.533,-18.185 -4.857,-4.858 -11.315,-7.533 -18.185,-7.533 z m 5.078,30.796 c -10e-4,0 -10e-4,0 0,0 -1.358,1.357 -3.161,2.104 -5.079,2.104 -1.918,0 -3.723,-0.748 -5.08,-2.104 -1.357,-1.357 -2.103,-3.161 -2.103,-5.079 0,-1.918 0.746,-3.722 2.103,-5.079 1.358,-1.357 3.162,-2.104 5.08,-2.104 1.918,0 3.722,0.746 5.079,2.104 1.357,1.357 2.103,3.161 2.103,5.079 0.002,1.919 -0.746,3.723 -2.103,5.079 z"
   id="path16" />
</g>
<g
   id="g20"
   transform="matrix(0.25000085,0,0,0.25000085,-7.466776,6.2500212e-5)"
   style="stroke-width:3.99999">
</g>
<g
   id="g22"
   transform="matrix(0.25000085,0,0,0.25000085,-7.466776,6.2500212e-5)"
   style="stroke-width:3.99999">
</g>
<g
   id="g24"
   transform="matrix(0.25000085,0,0,0.25000085,-7.466776,6.2500212e-5)"
   style="stroke-width:3.99999">
</g>
<g
   id="g26"
   transform="matrix(0.25000085,0,0,0.25000085,-7.466776,6.2500212e-5)"
   style="stroke-width:3.99999">
</g>
<g
   id="g28"
   transform="matrix(0.25000085,0,0,0.25000085,-7.466776,6.2500212e-5)"
   style="stroke-width:3.99999">
</g>
<g
   id="g30"
   transform="matrix(0.25000085,0,0,0.25000085,-7.466776,6.2500212e-5)"
   style="stroke-width:3.99999">
</g>
<g
   id="g32"
   transform="matrix(0.25000085,0,0,0.25000085,-7.466776,6.2500212e-5)"
   style="stroke-width:3.99999">
</g>
<g
   id="g34"
   transform="matrix(0.25000085,0,0,0.25000085,-7.466776,6.2500212e-5)"
   style="stroke-width:3.99999">
</g>
<g
   id="g36"
   transform="matrix(0.25000085,0,0,0.25000085,-7.466776,6.2500212e-5)"
   style="stroke-width:3.99999">
</g>
<g
   id="g38"
   transform="matrix(0.25000085,0,0,0.25000085,-7.466776,6.2500212e-5)"
   style="stroke-width:3.99999">
</g>
<g
   id="g40"
   transform="matrix(0.25000085,0,0,0.25000085,-7.466776,6.2500212e-5)"
   style="stroke-width:3.99999">
</g>
<g
   id="g42"
   transform="matrix(0.25000085,0,0,0.25000085,-7.466776,6.2500212e-5)"
   style="stroke-width:3.99999">
</g>
<g
   id="g44"
   transform="matrix(0.25000085,0,0,0.25000085,-7.466776,6.2500212e-5)"
   style="stroke-width:3.99999">
</g>
<g
   id="g46"
   transform="matrix(0.25000085,0,0,0.25000085,-7.466776,6.2500212e-5)"
   style="stroke-width:3.99999">
</g>
<g
   id="g48"
   transform="matrix(0.25000085,0,0,0.25000085,-7.466776,6.2500212e-5)"
   style="stroke-width:3.99999">
</g>
</svg>
