<?xml version="1.0" encoding="UTF-8" standalone="no"?>
<svg
   version="1.0"
   width="97.619698pt"
   height="99.617249pt"
   viewBox="0 0 97.619698 99.617249"
   preserveAspectRatio="xMidYMid meet"
   id="svg8"
   sodipodi:docname="eclair_source.svg"
   inkscape:version="1.1 (c68e22c387, 2021-05-23)"
   xmlns:inkscape="http://www.inkscape.org/namespaces/inkscape"
   xmlns:sodipodi="http://sodipodi.sourceforge.net/DTD/sodipodi-0.dtd"
   xmlns="http://www.w3.org/2000/svg"
   xmlns:svg="http://www.w3.org/2000/svg"
   xmlns:rdf="http://www.w3.org/1999/02/22-rdf-syntax-ns#"
   xmlns:cc="http://creativecommons.org/ns#"
   xmlns:dc="http://purl.org/dc/elements/1.1/">
  <defs
     id="defs12" />
  <sodipodi:namedview
     pagecolor="#ffffff"
     bordercolor="#666666"
     inkscape:document-rotation="0"
     borderopacity="1"
     objecttolerance="10"
     gridtolerance="10"
     guidetolerance="10"
     inkscape:pageopacity="0"
     inkscape:pageshadow="2"
     inkscape:window-width="1920"
     inkscape:window-height="979"
     id="namedview10"
     showgrid="true"
     inkscape:zoom="2.6346983"
     inkscape:cx="26.378732"
     inkscape:cy="79.325971"
     inkscape:window-x="0"
     inkscape:window-y="0"
     inkscape:window-maximized="1"
     inkscape:current-layer="g6"
     inkscape:pagecheckerboard="0"
     inkscape:document-units="pt"
     fit-margin-top="0"
     fit-margin-left="0"
     fit-margin-right="0"
     fit-margin-bottom="0">
    <inkscape:grid
       type="xygrid"
       id="grid4295"
       originx="-0.10844143"
       originy="-1.0235121e-06" />
  </sodipodi:namedview>
  <metadata
     id="metadata2">
    <rdf:RDF>
      <cc:Work
         rdf:about="">
        <dc:format>
          image/svg+xml
        </dc:format>
        <dc:type
           rdf:resource="http://purl.org/dc/dcmitype/StillImage" />
      </cc:Work>
    </rdf:RDF>
  </metadata>
  <g
     transform="matrix(0.1,0,0,-0.1,-0.10844143,28.999999)"
     fill="#000000"
     stroke="none"
     id="g6">
    <path
       d="M 135,246 C 80,223 35,199 35,194 c 0,-5 24,-18 52,-29 29,-11 53,-23 53,-26 0,-3 -31,-29 -70,-58 C 3,31 -7,20 6,8 c 5,-6 257,112 271,126 4,3 -11,13 -33,21 -21,9 -49,20 -62,25 l -23,10 28,23 c 15,13 41,31 56,40 27,17 29,37 4,37 -7,0 -57,-20 -112,-44 z m 125,30 c 0,-2 -15,-13 -32,-25 -18,-11 -46,-30 -63,-41 l -29,-19 49,-21 c 28,-12 57,-24 66,-28 C 263,137 229,116 139,73 68,39 10,15 10,19 c 0,5 31,32 70,60 38,29 72,56 75,60 3,5 -22,20 -55,33 L 41.258043,195.8742 137,238 c 90,38 123,48 123,38 z"
       id="path4"
       inkscape:connector-curvature="0"
       inkscape:label="path4"
       style="display:inline;fill:#000000;fill-opacity:1;stroke:#000000;stroke-width:0;stroke-linejoin:round;stroke-miterlimit:4;stroke-dasharray:none;stroke-opacity:1"
       sodipodi:nodetypes="cscsccccccccscscccsccscccccs"
       transform="matrix(2.4557073,0,0,2.4557073,146.94235,-573.71518)" />
    <path
       style="fill:#ffbe00;fill-opacity:1;stroke:#000000;stroke-width:0.0546446"
       d="m 1.3866722,36.079354 c 0,-0.150691 0.4624272,-0.687934 1.2498011,-1.452006 1.5092811,-1.464613 4.0395785,-3.524549 7.0029593,-5.701166 2.8910274,-2.123474 8.3940474,-6.439149 10.3494984,-8.116467 0.60457,-0.518578 0.721278,-0.64973 0.721278,-0.810544 0,-0.530335 -1.47769,-1.576438 -3.925094,-2.778697 C 15.328022,16.504694 14.655792,16.222396 9.5862519,14.19737 6.7713081,13.072942 5.4459615,12.512953 5.5269676,12.482231 5.5931195,12.457144 8.485388,11.206812 11.954231,9.7037155 18.609238,6.820013 21.620486,5.5484058 24.531785,4.3923929 c 6.051206,-2.4028011 9.072014,-3.2838531 9.860733,-2.8759912 0.317566,0.16422 0.29815,0.319246 -0.08668,0.69205 -0.679058,0.6578446 -3.158271,2.4730462 -4.767223,3.4904099 -0.556474,0.3518671 -1.872273,1.2046701 -2.923996,1.895118 -1.051724,0.6904476 -3.378998,2.2177498 -5.17172,3.3940054 -1.792722,1.176254 -3.26613,2.164787 -3.27424,2.19674 -0.01443,0.05685 4.602827,2.05458 11.029141,4.771947 4.294486,1.815923 4.40428,1.864609 4.481673,1.987303 0.547097,0.867329 -4.266889,3.736246 -14.512467,8.648775 -7.646848,3.666493 -14.7120464,6.742005 -17.0352974,7.415539 -0.6615979,0.191804 -0.7450404,0.199763 -0.7450404,0.07107 z"
       id="path4293"
       inkscape:connector-curvature="0"
       transform="matrix(18.417805,0,0,-18.417805,146.94235,138.43995)"
       class="WTD-ActiveColor" />
  </g>
</svg>
