<?xml version="1.0" encoding="UTF-8" standalone="no"?>
<!-- Generator: Adobe Illustrator 19.0.0, SVG Export Plug-In . SVG Version: 6.00 Build 0)  -->

<svg
   version="1.1"
   id="Layer_1"
   x="0px"
   y="0px"
   viewBox="0 0 128 127.99771"
   xml:space="preserve"
   sodipodi:docname="fiche_branchee.svg"
   inkscape:version="1.1 (c68e22c387, 2021-05-23)"
   width="128"
   height="127.9977"
   xmlns:inkscape="http://www.inkscape.org/namespaces/inkscape"
   xmlns:sodipodi="http://sodipodi.sourceforge.net/DTD/sodipodi-0.dtd"
   xmlns="http://www.w3.org/2000/svg"
   xmlns:svg="http://www.w3.org/2000/svg"><defs
   id="defs49">
	
	
	
	
</defs><sodipodi:namedview
   id="namedview47"
   pagecolor="#353535"
   bordercolor="#666666"
   borderopacity="1.0"
   inkscape:pageshadow="2"
   inkscape:pageopacity="0"
   inkscape:pagecheckerboard="true"
   showgrid="false"
   inkscape:zoom="3.8013412"
   inkscape:cx="11.706395"
   inkscape:cy="63.924806"
   inkscape:window-width="1366"
   inkscape:window-height="713"
   inkscape:window-x="0"
   inkscape:window-y="31"
   inkscape:window-maximized="1"
   inkscape:current-layer="Layer_1"
   fit-margin-top="0"
   fit-margin-left="0"
   fit-margin-right="0"
   fit-margin-bottom="0" />
<path
   style="fill:#000000;fill-opacity:1;stroke-width:0.326026"
   d="m 45.2083,57.750273 -8.34627,8.34627 c -6.91306,6.91306 -7.14486,18.4208 0,25.038807 6.55476,6.06995 17.43034,8.0724 25.03881,0 l 8.34627,-8.346267 z"
   id="path2" />

<path
   style="fill:#194f82;stroke-width:0.326026"
   d="M 85.10608,56.696554 69.657,72.145634 55.85208,58.340704 71.30115,42.891634 c 1.39115,-1.391161 1.39115,-3.62509 0,-5.03743 -1.39115,-1.391161 -3.62508,-1.391161 -5.03743,0 l -15.44907,15.47026 -7.35581,-7.37666 c -1.39115,-1.39116 -3.62508,-1.39116 -5.03743,0 -1.39115,1.39115 -1.39115,3.62508 0,5.03743 l 1.72827,1.72826 -8.34627,8.34627 c -8.80988,8.80988 -9.56854,22.67838 -2.31837,32.373416 L 2.1103015,121.93962 c -1.39116004,1.39115 -1.39116004,3.62508 0,5.03743 1.39115,1.39115 3.62508,1.39115 5.03743,0 L 34.54366,98.49148 c 11.23388,8.64132 25.16531,4.95298 32.37342,-2.31838 l 8.34627,-8.346266 1.72826,1.72827 c 2.21307,1.896816 4.34169,0.695406 5.03743,0 1.39115,-1.39115 1.39115,-3.62509 0,-5.03743 l -7.3558,-7.33461 15.47027,-15.47027 c 1.39115,-1.39115 1.39115,-3.62508 0,-5.03743 -1.41235,-1.36996 -3.64661,-1.36996 -5.03743,0.0212 z M 61.90084,91.13535 c -7.60847,8.0724 -18.48405,6.06995 -25.03881,0 -7.14486,-6.618006 -6.91306,-18.146936 0,-25.038807 l 8.34627,-8.34627 25.03881,25.038811 z"
   id="path6"
   sodipodi:nodetypes="cccccccccccscccccccccccscsccccccc" /><path
   style="fill:#194f82;stroke-width:0.326026"
   d="m 43.94364,82.388722 1.66502,1.66501 c 2.21307,1.918021 4.34169,0.695421 5.03743,0 1.39115,-1.39115 1.39115,-3.62508 0,-5.03743 l -1.66502,-1.66501 c -1.39115,-1.39116 -3.62508,-1.39116 -5.03743,0 -1.39115,1.391151 -1.39115,3.64627 0,5.03743 z"
   id="path10" /><g
   id="g3042"
   transform="translate(-9.739512,9.994348)"><path
     style="fill:#000000;fill-opacity:1;stroke-width:0.351727"
     d="m 102.25659,25.769023 c -7.07746,-6.542911 -18.8203,-8.70139 -27.03551,0 l -9.01184,8.99659 27.03552,26.989779 9.01183,-8.996589 c 7.44146,-7.42887 7.71463,-19.856111 0,-26.98978 z"
     id="path4" /><path
     style="fill:#194f82;stroke-width:0.326026"
     d="m 135.77127,-8.2680868 c -1.39115,-1.39115 -3.62508,-1.39115 -5.03743,0 L 103.45372,19.506223 c -11.23388,-8.641321 -25.1653,-4.95298 -32.37341,2.318379 l -8.34627,8.346271 -1.72827,-1.728271 c -2.21306,-1.896819 -4.34169,-0.69541 -5.03743,0 -1.39115,1.391151 -1.39115,3.62509 0,5.03743 l 38.56987,38.59106 c 1.39116,1.391161 3.62509,1.391161 5.03743,0 1.39116,-1.39115 1.39116,-3.62508 0,-5.03743 l -1.72826,-1.72826 8.34627,-8.34627 c 8.80988,-8.80988 9.56854,-22.67838 2.31837,-32.37342 l 27.28012,-27.7743088 c 1.37029,-1.43321 1.37029,-3.68833 -0.0209,-5.07949 z m -34.63592,60.1689198 -8.34627,8.34627 -25.03881,-25.0388 8.34627,-8.346271 c 7.60848,-8.072409 18.48406,-6.06996 25.03881,0 7.14486,6.618 6.89187,18.14694 0,25.038801 z"
     id="path8"
     sodipodi:nodetypes="ccccccccccccsccccsccccs" /><path
     style="fill:#194f82;stroke-width:0.326026"
     d="m 92.38872,33.943643 c -2.21306,-1.918011 -4.34169,-0.695411 -5.03743,0 -1.39115,1.39115 -1.39115,3.62509 0,5.03743 l 1.66502,1.66502 c 1.39115,1.39115 3.62508,1.39115 5.03743,0 1.39115,-1.391161 1.39115,-3.64628 0,-5.03743 z"
     id="path12" /></g>
<g
   id="g16"
   transform="matrix(0.32602615,0,0,0.32602615,8e-5,-0.0012175)">
</g>
<g
   id="g18"
   transform="matrix(0.32602615,0,0,0.32602615,8e-5,-0.0012175)">
</g>
<g
   id="g20"
   transform="matrix(0.32602615,0,0,0.32602615,8e-5,-0.0012175)">
</g>
<g
   id="g22"
   transform="matrix(0.32602615,0,0,0.32602615,8e-5,-0.0012175)">
</g>
<g
   id="g24"
   transform="matrix(0.32602615,0,0,0.32602615,8e-5,-0.0012175)">
</g>
<g
   id="g26"
   transform="matrix(0.32602615,0,0,0.32602615,8e-5,-0.0012175)">
</g>
<g
   id="g28"
   transform="matrix(0.32602615,0,0,0.32602615,8e-5,-0.0012175)">
</g>
<g
   id="g30"
   transform="matrix(0.32602615,0,0,0.32602615,8e-5,-0.0012175)">
</g>
<g
   id="g32"
   transform="matrix(0.32602615,0,0,0.32602615,8e-5,-0.0012175)">
</g>
<g
   id="g34"
   transform="matrix(0.32602615,0,0,0.32602615,8e-5,-0.0012175)">
</g>
<g
   id="g36"
   transform="matrix(0.32602615,0,0,0.32602615,8e-5,-0.0012175)">
</g>
<g
   id="g38"
   transform="matrix(0.32602615,0,0,0.32602615,8e-5,-0.0012175)">
</g>
<g
   id="g40"
   transform="matrix(0.32602615,0,0,0.32602615,8e-5,-0.0012175)">
</g>
<g
   id="g42"
   transform="matrix(0.32602615,0,0,0.32602615,8e-5,-0.0012175)">
</g>
<g
   id="g44"
   transform="matrix(0.32602615,0,0,0.32602615,8e-5,-0.0012175)">
</g>
</svg>
