<?xml version="1.0" encoding="UTF-8" standalone="no"?>
<!-- Generator: Adobe Illustrator 19.0.0, SVG Export Plug-In . SVG Version: 6.00 Build 0)  -->

<svg
   version="1.1"
   id="Layer_1"
   x="0px"
   y="0px"
   viewBox="0 0 392.66299 344.51042"
   xml:space="preserve"
   sodipodi:docname="haut_parleur_inactif_source.svg"
   width="130.88766"
   height="114.83681"
   inkscape:version="1.1 (c68e22c387, 2021-05-23)"
   xmlns:inkscape="http://www.inkscape.org/namespaces/inkscape"
   xmlns:sodipodi="http://sodipodi.sourceforge.net/DTD/sodipodi-0.dtd"
   xmlns="http://www.w3.org/2000/svg"
   xmlns:svg="http://www.w3.org/2000/svg"><defs
   id="defs53" /><sodipodi:namedview
   id="namedview51"
   pagecolor="#ffffff"
   bordercolor="#666666"
   borderopacity="1.0"
   inkscape:pageshadow="2"
   inkscape:pageopacity="0.0"
   inkscape:pagecheckerboard="0"
   showgrid="false"
   inkscape:zoom="3.9524988"
   inkscape:cx="71.220769"
   inkscape:cy="84.75651"
   inkscape:window-width="1920"
   inkscape:window-height="979"
   inkscape:window-x="0"
   inkscape:window-y="0"
   inkscape:window-maximized="1"
   inkscape:current-layer="g18"
   scale-x="3"
   fit-margin-top="0"
   fit-margin-left="0"
   fit-margin-right="0"
   fit-margin-bottom="0" />
<polyline
   style="fill:#ffffff"
   points="93.091,248.377 230.853,337.524 230.853,55.019 93.091,144.166 "
   id="polyline2"
   transform="translate(0,-24.076414)" />
<polygon
   style="fill:#00ff00"
   points="209.067,297.443 114.877,236.546 114.877,155.997 209.067,95.1 "
   id="polygon4"
   transform="translate(0,-24.076414)" />
<g
   id="g10"
   transform="translate(0,-24.076414)">
	<path
   style="fill:#00ff00"
   d="m 252.638,160.781 v 70.917 c 15.127,-4.655 26.182,-18.747 26.182,-35.491 0,-16.744 -10.99,-30.707 -26.182,-35.426 z"
   id="path6" />
	<rect
   x="21.851"
   y="149.144"
   style="fill:#00ff00;fill-opacity:1"
   width="49.389999"
   height="94.254997"
   id="rect8" />
</g>
<g
   id="g18"
   transform="translate(0,-24.076414)">
	<path
   style="fill:#194f82"
   d="M 252.768,138.413 V 34.979 c 0,-8.663 -9.568,-13.834 -16.873,-9.115 L 78.933,127.358 H 10.925 C 4.913,127.358 0,132.207 0,138.284 v 116.04 c 0,6.012 4.848,10.925 10.925,10.925 h 68.008 l 156.962,101.56 c 7.24,4.719 16.873,-0.517 16.873,-9.115 V 254.13 c 27.216,-5.172 47.968,-29.156 47.968,-57.859 0,-28.703 -20.688,-52.686 -47.968,-57.858 z M 71.24,243.399 H 21.85 V 149.144 H 71.24 Z M 230.853,337.524 93.091,248.377 v -19.394 h 21.786 c 6.012,0 10.925,-4.848 10.925,-10.925 0,-6.012 -4.848,-10.925 -10.925,-10.925 H 93.091 v -21.786 h 43.636 c 6.012,0 10.925,-4.848 10.925,-10.925 0,-6.012 -4.848,-10.925 -10.925,-10.925 H 93.091 V 144.103 L 230.853,54.956 Z M 252.638,231.762 V 160.78 c 15.127,4.655 26.182,18.747 26.182,35.491 0,16.744 -10.99,30.772 -26.182,35.491 z"
   id="path12" />
	
	
</g>
<g
   id="g20"
   transform="translate(0,-24.076414)">
</g>
<g
   id="g22"
   transform="translate(0,-24.076414)">
</g>
<g
   id="g24"
   transform="translate(0,-24.076414)">
</g>
<g
   id="g26"
   transform="translate(0,-24.076414)">
</g>
<g
   id="g28"
   transform="translate(0,-24.076414)">
</g>
<g
   id="g30"
   transform="translate(0,-24.076414)">
</g>
<g
   id="g32"
   transform="translate(0,-24.076414)">
</g>
<g
   id="g34"
   transform="translate(0,-24.076414)">
</g>
<g
   id="g36"
   transform="translate(0,-24.076414)">
</g>
<g
   id="g38"
   transform="translate(0,-24.076414)">
</g>
<g
   id="g40"
   transform="translate(0,-24.076414)">
</g>
<g
   id="g42"
   transform="translate(0,-24.076414)">
</g>
<g
   id="g44"
   transform="translate(0,-24.076414)">
</g>
<g
   id="g46"
   transform="translate(0,-24.076414)">
</g>
<g
   id="g48"
   transform="translate(0,-24.076414)">
</g>
</svg>
