<?xml version="1.0" encoding="UTF-8" standalone="no"?>
<!-- Generator: Adobe Illustrator 19.0.0, SVG Export Plug-In . SVG Version: 6.00 Build 0)  -->

<svg
   version="1.1"
   id="Layer_1"
   x="0px"
   y="0px"
   viewBox="0 0 128 113.57177"
   xml:space="preserve"
   sodipodi:docname="marteau_1_source.svg"
   width="128"
   height="113.57177"
   inkscape:version="1.1 (c68e22c387, 2021-05-23)"
   xmlns:inkscape="http://www.inkscape.org/namespaces/inkscape"
   xmlns:sodipodi="http://sodipodi.sourceforge.net/DTD/sodipodi-0.dtd"
   xmlns="http://www.w3.org/2000/svg"
   xmlns:svg="http://www.w3.org/2000/svg"><defs
   id="defs57" /><sodipodi:namedview
   id="namedview55"
   pagecolor="#ffffff"
   bordercolor="#666666"
   borderopacity="1.0"
   inkscape:pageshadow="2"
   inkscape:pageopacity="0.0"
   inkscape:pagecheckerboard="0"
   showgrid="false"
   fit-margin-top="0"
   fit-margin-left="0"
   fit-margin-right="0"
   fit-margin-bottom="0"
   inkscape:zoom="1.515628"
   inkscape:cx="43.876202"
   inkscape:cy="56.742156"
   inkscape:window-width="1920"
   inkscape:window-height="979"
   inkscape:window-x="0"
   inkscape:window-y="0"
   inkscape:window-maximized="1"
   inkscape:current-layer="Layer_1" />
<path
   style="fill:#ffd782;stroke-width:4"
   d="m 213.296,148.223 c 0,0 59.176,59.176 115.196,115.196 56.02,56.02 57.333,34.191 125.188,102.046 67.855,67.855 63.424,80.176 50.8,92.8 l -17.358,17.358 c -12.624,12.624 -24.945,17.055 -92.8,-50.8 C 326.467,356.968 348.295,355.654 292.276,299.635 236.257,243.616 177.081,184.44 177.081,184.44 Z"
   id="path2"
   transform="matrix(0.25000026,0,0,0.25000026,6.2500065e-5,-7.2139131)" />
<g
   id="g8"
   transform="matrix(0.25000026,0,0,0.25000026,6.2500065e-5,-7.2139131)"
   style="stroke-width:4">
	<path
   style="fill:#ff0000;fill-opacity:1;stroke-width:4"
   d="m 43.249,189.273 0.211,0.211 6.102,45.88 45.88,6.102 0.211,0.211 c 0,0 8.657,-35.279 45.846,-72.47 l -25.78,-25.78 c -37.191,37.189 -72.47,45.846 -72.47,45.846 z"
   id="path4" />
	<path
   style="fill:#ff0000;fill-opacity:1;stroke-width:4"
   d="m 208.203,107.916 c 0,0 44.414,-39.041 118.78,-59.138 6.436,-1.74 6.596,-10.825 0.205,-12.727 -31.835,-9.476 -93.724,-18.349 -139.467,34.385 z"
   id="path6" />
</g>
<path
   style="opacity:0.1;stroke-width:4;enable-background:new"
   d="m 213.296,148.223 -36.215,36.215 c 0,0 16.484,16.484 40.284,40.284 v 0 l 36.215,-36.215 c -23.8,-23.799 -40.284,-40.284 -40.284,-40.284 z"
   id="path10"
   transform="matrix(0.25000026,0,0,0.25000026,6.2500065e-5,-7.2139131)" />
<path
   style="fill:#ff0000;fill-opacity:1;stroke-width:4"
   d="m 127.212,157.714 43.34,43.34 c 6.39,6.39 16.752,6.39 23.142,0 l 36.215,-36.215 c 6.39,-6.39 6.39,-16.752 0,-23.142 l -43.34,-43.34 z"
   id="path12"
   transform="matrix(0.25000026,0,0,0.25000026,6.2500065e-5,-7.2139131)" />
<path
   style="opacity:0.1;stroke-width:4;enable-background:new"
   d="m 69.167,189.978 25.78,25.78 c 2.544,2.544 5.306,4.739 8.218,6.606 6.586,-13.706 18.326,-33.15 38.333,-53.157 l -25.78,-25.78 c -20.007,20.007 -39.451,31.748 -53.157,38.333 1.868,2.912 4.061,5.674 6.606,8.218 z"
   id="path14"
   transform="matrix(0.25000026,0,0,0.25000026,6.2500065e-5,-7.2139131)" />
<path
   style="opacity:0.1;stroke-width:4;enable-background:new"
   d="m 253.414,78.081 c -2.248,-4.318 -5.18,-8.371 -8.801,-11.991 L 221.497,42.975 c -11.742,6.361 -23.192,15.26 -33.778,27.463 l 20.482,37.478 c 0.002,0 16.132,-14.172 45.213,-29.835 z"
   id="path16"
   transform="matrix(0.25000026,0,0,0.25000026,6.2500065e-5,-7.2139131)" />
<g
   id="g22"
   transform="matrix(0.25000026,0,0,0.25000026,6.2500065e-5,-7.2139131)"
   style="stroke-width:4">
	<path
   style="fill:#65667a;stroke-width:4"
   d="m 173.202,63.981 -80.364,80.364 c -6.065,6.065 -6.065,15.897 0,21.962 l 25.78,25.78 c 6.065,6.065 15.897,6.065 21.962,0 l 80.364,-80.364 c 6.065,-6.065 6.065,-15.897 0,-21.962 l -25.78,-25.78 c -6.065,-6.065 -15.898,-6.065 -21.962,0 z"
   id="path18" />
	<path
   style="fill:#ff0000;fill-opacity:1;stroke-width:4"
   d="M 25.677,189.483 3.683,211.478 c -4.911,4.911 -4.911,12.872 0,17.783 l 51.982,51.982 c 4.911,4.911 12.872,4.911 17.783,0 l 21.995,-21.995 c 4.911,-4.911 4.911,-12.872 0,-17.783 L 43.461,189.483 c -4.912,-4.91 -12.873,-4.91 -17.784,0 z"
   id="path20" />
</g>
<g
   id="g24"
   transform="matrix(0.25000026,0,0,0.25000026,6.2500065e-5,-7.2139131)"
   style="stroke-width:4">
</g>
<g
   id="g26"
   transform="matrix(0.25000026,0,0,0.25000026,6.2500065e-5,-7.2139131)"
   style="stroke-width:4">
</g>
<g
   id="g28"
   transform="matrix(0.25000026,0,0,0.25000026,6.2500065e-5,-7.2139131)"
   style="stroke-width:4">
</g>
<g
   id="g30"
   transform="matrix(0.25000026,0,0,0.25000026,6.2500065e-5,-7.2139131)"
   style="stroke-width:4">
</g>
<g
   id="g32"
   transform="matrix(0.25000026,0,0,0.25000026,6.2500065e-5,-7.2139131)"
   style="stroke-width:4">
</g>
<g
   id="g34"
   transform="matrix(0.25000026,0,0,0.25000026,6.2500065e-5,-7.2139131)"
   style="stroke-width:4">
</g>
<g
   id="g36"
   transform="matrix(0.25000026,0,0,0.25000026,6.2500065e-5,-7.2139131)"
   style="stroke-width:4">
</g>
<g
   id="g38"
   transform="matrix(0.25000026,0,0,0.25000026,6.2500065e-5,-7.2139131)"
   style="stroke-width:4">
</g>
<g
   id="g40"
   transform="matrix(0.25000026,0,0,0.25000026,6.2500065e-5,-7.2139131)"
   style="stroke-width:4">
</g>
<g
   id="g42"
   transform="matrix(0.25000026,0,0,0.25000026,6.2500065e-5,-7.2139131)"
   style="stroke-width:4">
</g>
<g
   id="g44"
   transform="matrix(0.25000026,0,0,0.25000026,6.2500065e-5,-7.2139131)"
   style="stroke-width:4">
</g>
<g
   id="g46"
   transform="matrix(0.25000026,0,0,0.25000026,6.2500065e-5,-7.2139131)"
   style="stroke-width:4">
</g>
<g
   id="g48"
   transform="matrix(0.25000026,0,0,0.25000026,6.2500065e-5,-7.2139131)"
   style="stroke-width:4">
</g>
<g
   id="g50"
   transform="matrix(0.25000026,0,0,0.25000026,6.2500065e-5,-7.2139131)"
   style="stroke-width:4">
</g>
<g
   id="g52"
   transform="matrix(0.25000026,0,0,0.25000026,6.2500065e-5,-7.2139131)"
   style="stroke-width:4">
</g>
</svg>
