<?xml version="1.0" encoding="UTF-8" standalone="no"?>
<!-- Generator: Adobe Illustrator 19.0.0, SVG Export Plug-In . SVG Version: 6.00 Build 0)  -->

<svg
   version="1.1"
   id="Layer_1"
   x="0px"
   y="0px"
   viewBox="0 0 508 508"
   style="enable-background:new 0 0 508 508;"
   xml:space="preserve"
   sodipodi:docname="pile_en_charge.svg"
   inkscape:version="1.1 (c68e22c387, 2021-05-23)"
   xmlns:inkscape="http://www.inkscape.org/namespaces/inkscape"
   xmlns:sodipodi="http://sodipodi.sourceforge.net/DTD/sodipodi-0.dtd"
   xmlns="http://www.w3.org/2000/svg"
   xmlns:svg="http://www.w3.org/2000/svg"><defs
   id="defs55" /><sodipodi:namedview
   id="namedview53"
   pagecolor="#000000"
   bordercolor="#666666"
   borderopacity="1.0"
   inkscape:pageshadow="2"
   inkscape:pageopacity="0"
   inkscape:pagecheckerboard="true"
   showgrid="false"
   inkscape:zoom="1.0801474"
   inkscape:cx="232.37569"
   inkscape:cy="301.81066"
   inkscape:window-width="1920"
   inkscape:window-height="1043"
   inkscape:window-x="0"
   inkscape:window-y="0"
   inkscape:window-maximized="1"
   inkscape:current-layer="Layer_1" />

<path
   style="fill:#add8e6;fill-opacity:1"
   d="M270,90.4h-32c-2.4,0-4.4-2-4.4-4.4V73.6c0-2.4,2-4.4,4.4-4.4h32c2.4,0,4.4,2,4.4,4.4V86  C274,88.4,272,90.4,270,90.4z"
   id="path4" />
<path
   style="fill:#3ba1c0;fill-opacity:1"
   d="M318.4,108H189.6c-6.8,0-12.4-5.6-12.4-12.4l0,0c0-6.8,5.6-12.4,12.4-12.4h128.8  c6.8,0,12.4,5.6,12.4,12.4l0,0C330.8,102.4,325.2,108,318.4,108z"
   id="path6" />
<path
   style="fill:#add8e6;fill-opacity:1"
   d="M343.2,438.8H164.8c-9.6,0-17.6-8-17.6-17.6V112.8c0-9.6,8-17.6,17.6-17.6h178.4  c9.6,0,17.6,8,17.6,17.6v308.4C360.8,431.2,352.8,438.8,343.2,438.8z"
   id="path8" />
<rect
   x="163.6"
   y="126.4"
   style="fill:#324a5e;fill-opacity:1"
   width="180.4"
   height="285.2"
   id="rect10" />
<path
   style="fill:#4cdb83;fill-opacity:1"
   d="M330,144.4v32.4c0,2-1.6,3.6-3.6,3.6H181.6c-2,0-3.6-1.6-3.6-3.6v-32.4c0-2,1.6-3.6,3.6-3.6h144.8  C328.4,140.4,330,142,330,144.4z"
   id="path12" />
<path
   style="fill:#4cdb83"
   d="M330,198.4v32.4c0,2-1.6,3.6-3.6,3.6H181.6c-2,0-3.6-1.6-3.6-3.6v-32.4c0-2,1.6-3.6,3.6-3.6h144.8  C328.4,194.8,330,196.4,330,198.4z"
   id="path14" />
<path
   style="fill:#4cdb83;fill-opacity:1"
   d="M330,252.4v32.4c0,2-1.6,3.6-3.6,3.6H181.6c-2,0-3.6-1.6-3.6-3.6v-32.4c0-2,1.6-3.6,3.6-3.6h144.8  C328.4,248.8,330,250.4,330,252.4z"
   id="path16" />
<path
   style="fill:#4cdb83"
   d="M330,306.8v32.4c0,2-1.6,3.6-3.6,3.6H181.6c-2,0-3.6-1.6-3.6-3.6v-32.4c0-2,1.6-3.6,3.6-3.6h144.8  C328.4,303.2,330,304.8,330,306.8z"
   id="path18" />
<path
   style="fill:#4cdb83"
   d="M330,360.8v32.4c0,2-1.6,3.6-3.6,3.6H181.6c-2,0-3.6-1.6-3.6-3.6v-32.4c0-2,1.6-3.6,3.6-3.6h144.8  C328.4,357.2,330,358.8,330,360.8z"
   id="path20" />
<g
   id="g22">
</g>
<g
   id="g24">
</g>
<g
   id="g26">
</g>
<g
   id="g28">
</g>
<g
   id="g30">
</g>
<g
   id="g32">
</g>
<g
   id="g34">
</g>
<g
   id="g36">
</g>
<g
   id="g38">
</g>
<g
   id="g40">
</g>
<g
   id="g42">
</g>
<g
   id="g44">
</g>
<g
   id="g46">
</g>
<g
   id="g48">
</g>
<g
   id="g50">
</g>
<g
   id="g1073"
   transform="matrix(0.72429043,0,0,0.72429043,73.139283,75.834969)"
   style="stroke-width:1.38066"><path
     d="M 135,246 C 80,223 35,199 35,194 c 0,-5 24,-18 52,-29 29,-11 53,-23 53,-26 0,-3 -31,-29 -70,-58 C 3,31 -7,20 6,8 c 5,-6 257,112 271,126 4,3 -11,13 -33,21 -21,9 -49,20 -62,25 l -23,10 28,23 c 15,13 41,31 56,40 27,17 29,37 4,37 -7,0 -57,-20 -112,-44 z m 125,30 c 0,-2 -15,-13 -32,-25 -18,-11 -46,-30 -63,-41 l -29,-19 49,-21 c 28,-12 57,-24 66,-28 C 263,137 229,116 139,73 68,39 10,15 10,19 c 0,5 31,32 70,60 38,29 72,56 75,60 3,5 -22,20 -55,33 L 41.258043,195.8742 137,238 c 90,38 123,48 123,38 z"
     id="path4-3"
     inkscape:connector-curvature="0"
     inkscape:label="path4"
     style="display:inline;fill:#000000;fill-opacity:1;stroke:#000000;stroke-width:0;stroke-linejoin:round;stroke-miterlimit:4;stroke-dasharray:none;stroke-opacity:1"
     sodipodi:nodetypes="cscsccccccccscscccsccscccccs"
     transform="matrix(0.47063455,0,0,-0.47063455,186.32136,336.37732)" /><path
     style="fill:#ffff00;fill-opacity:1;stroke:#000000;stroke-width:0.0524888"
     d="m 1.3866722,36.079354 c 0,-0.150691 0.4624272,-0.687934 1.2498011,-1.452006 1.5092811,-1.464613 4.0395785,-3.524549 7.0029593,-5.701166 2.8910274,-2.123474 8.3940474,-6.439149 10.3494984,-8.116467 0.60457,-0.518578 0.721278,-0.64973 0.721278,-0.810544 0,-0.530335 -1.47769,-1.576438 -3.925094,-2.778697 C 15.328022,16.504694 14.655792,16.222396 9.5862519,14.19737 6.7713081,13.072942 5.4459615,12.512953 5.5269676,12.482231 5.5931195,12.457144 8.485388,11.206812 11.954231,9.7037155 18.609238,6.820013 21.620486,5.5484058 24.531785,4.3923929 c 6.051206,-2.4028011 9.072014,-3.2838531 9.860733,-2.8759912 0.317566,0.16422 0.29815,0.319246 -0.08668,0.69205 -0.679058,0.6578446 -3.158271,2.4730462 -4.767223,3.4904099 -0.556474,0.3518671 -1.872273,1.2046701 -2.923996,1.895118 -1.051724,0.6904476 -3.378998,2.2177498 -5.17172,3.3940054 -1.792722,1.176254 -3.26613,2.164787 -3.27424,2.19674 -0.01443,0.05685 4.602827,2.05458 11.029141,4.771947 4.294486,1.815923 4.40428,1.864609 4.481673,1.987303 0.547097,0.867329 -4.266889,3.736246 -14.512467,8.648775 -7.646848,3.666493 -14.7120464,6.742005 -17.0352974,7.415539 -0.6615979,0.191804 -0.7450404,0.199763 -0.7450404,0.07107 z"
     id="path4293"
     inkscape:connector-curvature="0"
     transform="matrix(3.5297591,0,0,3.5297591,186.32136,199.8933)"
     class="WTD-ActiveColor" /></g></svg>
