<svg xmlns="http://www.w3.org/2000/svg" xmlns:xlink="http://www.w3.org/1999/xlink" viewBox="0 0 128 128"><defs><style>.cls-1{isolation:isolate;}.cls-2{fill:url(#_467_1);}.cls-3{fill:url(#_466_1);}.cls-4{fill:url(#_465_1);}.cls-5{fill:url(#_461_1);}.cls-6{fill:url(#_460_1);}.cls-7{fill:url(#_459_1);}.cls-10,.cls-12,.cls-14,.cls-16,.cls-18,.cls-20,.cls-8{mix-blend-mode:multiply;}.cls-9{fill:#5a5a5a;}.cls-10{fill:url(#_376_1);}.cls-11{fill:url(#_593_1);}.cls-12{fill:url(#_376_1-2);}.cls-13{fill:url(#_593_1-2);}.cls-14{fill:url(#_376_1-3);}.cls-15{fill:url(#_593_1-3);}.cls-16{fill:url(#_376_1-4);}.cls-17{fill:url(#_593_1-4);}.cls-18{fill:url(#_376_1-5);}.cls-19{fill:url(#_593_1-5);}.cls-20{fill:url(#_376_1-6);}.cls-21{fill:url(#_593_1-6);}.cls-22{fill:url(#_3_1);}.cls-23{fill:url(#_1133_1);}.cls-24{fill:url(#_5_1);}.cls-25{fill:#4d4d4d;}</style><linearGradient id="_467_1" x1="41.68" y1="64.39" x2="45.12" y2="64.39" gradientUnits="userSpaceOnUse"><stop offset="0" stop-color="#5a5a5a"/><stop offset="0.09" stop-color="#585858"/><stop offset="0.13" stop-color="#515151"/><stop offset="0.15" stop-color="#464646"/><stop offset="0.16" stop-color="#414141"/><stop offset="0.23" stop-color="#343434"/><stop offset="0.86" stop-color="#373737"/><stop offset="0.86" stop-color="#333"/><stop offset="0.88" stop-color="#202020"/><stop offset="0.91" stop-color="#131313"/><stop offset="0.94" stop-color="#0b0b0b"/><stop offset="1" stop-color="#090909"/></linearGradient><linearGradient id="_466_1" x1="87.66" y1="64.39" x2="91.09" y2="64.39" xlink:href="#_467_1"/><linearGradient id="_465_1" x1="66.39" y1="12.74" x2="66.39" y2="16.17" xlink:href="#_467_1"/><linearGradient id="_461_1" x1="74.69" y1="118.12" x2="58.22" y2="14.1" gradientUnits="userSpaceOnUse"><stop offset="0" stop-color="#343434"/><stop offset="0.02" stop-color="#343434"/><stop offset="1" stop-color="#414141"/></linearGradient><linearGradient id="_460_1" x1="52.25" y1="116.06" x2="45.27" y2="16.16" xlink:href="#_461_1"/><linearGradient id="_459_1" x1="87.64" y1="116.06" x2="80.66" y2="16.16" xlink:href="#_461_1"/><linearGradient id="_376_1" x1="66.45" y1="103.87" x2="66.45" y2="101.62" gradientUnits="userSpaceOnUse"><stop offset="0" stop-color="#b3b3b3"/><stop offset="1" stop-color="#e1e1e1"/></linearGradient><linearGradient id="_593_1" x1="52.4" y1="102.74" x2="80.51" y2="102.74" gradientUnits="userSpaceOnUse"><stop offset="0" stop-color="#a2b7b8"/><stop offset="1" stop-color="#738687"/></linearGradient><linearGradient id="_376_1-2" x1="66.45" y1="89.21" x2="66.45" y2="86.97" xlink:href="#_376_1"/><linearGradient id="_593_1-2" x1="52.4" y1="88.09" x2="80.51" y2="88.09" xlink:href="#_593_1"/><linearGradient id="_376_1-3" x1="66.45" y1="74.56" x2="66.45" y2="72.31" xlink:href="#_376_1"/><linearGradient id="_593_1-3" x1="52.4" y1="73.44" x2="80.51" y2="73.44" xlink:href="#_593_1"/><linearGradient id="_376_1-4" x1="66.45" y1="59.91" x2="66.45" y2="57.66" xlink:href="#_376_1"/><linearGradient id="_593_1-4" x1="52.4" y1="58.78" x2="80.51" y2="58.78" xlink:href="#_593_1"/><linearGradient id="_376_1-5" x1="66.45" y1="45.25" x2="66.45" y2="43.01" xlink:href="#_376_1"/><linearGradient id="_593_1-5" x1="52.4" y1="44.13" x2="80.51" y2="44.13" xlink:href="#_593_1"/><linearGradient id="_376_1-6" x1="66.45" y1="30.6" x2="66.45" y2="28.35" xlink:href="#_376_1"/><linearGradient id="_593_1-6" x1="52.4" y1="29.48" x2="80.51" y2="29.48" xlink:href="#_593_1"/><linearGradient id="_3_1" x1="45.62" y1="65.44" x2="51.88" y2="71.08" gradientUnits="userSpaceOnUse"><stop offset="0" stop-color="#d0d0d0"/><stop offset="0.32" stop-color="#e6e6e6"/><stop offset="1" stop-color="#8e8e8e"/></linearGradient><linearGradient id="_1133_1" x1="53.47" y1="66.91" x2="53.47" y2="65.31" gradientUnits="userSpaceOnUse"><stop offset="0" stop-color="#b9b9b9"/><stop offset="0.02" stop-color="#b7b7b7"/><stop offset="0.03" stop-color="#b0b0b0"/><stop offset="0.04" stop-color="#a5a5a5"/><stop offset="0.04" stop-color="#949494"/><stop offset="0.04" stop-color="#8d8d8d"/><stop offset="0.42" stop-color="#b9b9b9"/><stop offset="0.47" stop-color="#bdbdbd"/><stop offset="0.77" stop-color="#d5d5d5"/><stop offset="0.95" stop-color="#dedede"/><stop offset="0.96" stop-color="#e1e1e1"/><stop offset="0.97" stop-color="#e7e7e7"/></linearGradient><radialGradient id="_5_1" cx="48.75" cy="69.76" r="0.76" gradientUnits="userSpaceOnUse"><stop offset="0" stop-color="#d0d0d0"/><stop offset="0.88" stop-color="#e6e6e6"/><stop offset="1" stop-color="#8e8e8e"/></radialGradient></defs><title>Plan de travail 1</title><g class="cls-1"><g id="Calque_3" data-name="Calque 3"><polygon class="cls-2" points="41.68 116.05 45.12 116.05 45.12 16.17 41.68 12.74 41.68 116.05"/><polygon class="cls-3" points="87.66 16.17 87.66 116.05 91.09 116.05 91.09 12.74 87.66 16.17"/><polygon class="cls-4" points="87.66 16.17 91.09 12.74 41.68 12.74 45.12 16.17 87.66 16.17"/><polyline class="cls-5" points="87.79 16.17 87.79 116.05 45.12 116.05 45.12 16.17"/><polyline class="cls-6" points="52.4 16.17 52.4 116.05 45.12 116.05 45.12 16.17 52.4 16.17"/><polyline class="cls-7" points="87.79 16.17 87.79 116.05 80.51 116.05 80.51 16.17 87.79 16.17"/><g class="cls-8"><polyline class="cls-9" points="52.4 16.17 52.4 116.05 52.2 116.05 52.2 16.17 52.4 16.17"/></g><g class="cls-8"><polyline class="cls-9" points="80.7 16.17 80.7 116.05 80.51 116.05 80.51 16.17 80.7 16.17"/></g><rect class="cls-10" x="52.4" y="101.62" width="28.11" height="2.24"/><rect class="cls-11" x="52.4" y="101.83" width="28.11" height="1.83"/><rect class="cls-12" x="52.4" y="86.97" width="28.11" height="2.24"/><rect class="cls-13" x="52.4" y="87.18" width="28.11" height="1.83"/><rect class="cls-14" x="52.4" y="72.31" width="28.11" height="2.24"/><rect class="cls-15" x="52.4" y="72.52" width="28.11" height="1.83"/><rect class="cls-16" x="52.4" y="57.66" width="28.11" height="2.24"/><rect class="cls-17" x="52.4" y="57.87" width="28.11" height="1.83"/><rect class="cls-18" x="52.4" y="43.01" width="28.11" height="2.24"/><rect class="cls-19" x="52.4" y="43.22" width="28.11" height="1.83"/><rect class="cls-20" x="52.4" y="28.35" width="28.11" height="2.24"/><rect class="cls-21" x="52.4" y="28.56" width="28.11" height="1.83"/><path class="cls-22" d="M50.34,72.78H47.16s0,0,0-.07V63.8s0-.07,0-.07h3.18s0,0,0,.07v8.91S50.36,72.78,50.34,72.78Z"/><rect class="cls-23" x="47.97" y="65.31" width="11.01" height="1.6" rx="0.03" ry="0.03"/><circle class="cls-24" cx="48.75" cy="69.76" r="0.76"/><rect class="cls-25" x="48.38" y="69.68" width="0.75" height="0.17"/></g></g></svg>