<svg xmlns="http://www.w3.org/2000/svg" xmlns:xlink="http://www.w3.org/1999/xlink" viewBox="0 0 128 128"><defs><style>.cls-1{isolation:isolate;}.cls-2{fill:url(#_467_1);}.cls-3{fill:url(#_466_1);}.cls-4{fill:url(#_465_1);}.cls-5{fill:url(#_1958_1);}.cls-6{fill:url(#_1658_1);}.cls-7{fill:#b3b3b3;}.cls-12,.cls-14,.cls-16,.cls-18,.cls-20,.cls-22,.cls-24,.cls-7{mix-blend-mode:multiply;}.cls-8{fill:url(#_1658_1-2);}.cls-9{fill:url(#_461_1);}.cls-10{fill:url(#_460_1);}.cls-11{fill:url(#_459_1);}.cls-13{fill:#5a5a5a;}.cls-14{fill:url(#_376_1);}.cls-15{fill:url(#_593_1);}.cls-16{fill:url(#_376_1-2);}.cls-17{fill:url(#_593_1-2);}.cls-18{fill:url(#_376_1-3);}.cls-19{fill:url(#_593_1-3);}.cls-20{fill:url(#_376_1-4);}.cls-21{fill:url(#_593_1-4);}.cls-22{fill:url(#_376_1-5);}.cls-23{fill:url(#_593_1-5);}.cls-24{fill:url(#_376_1-6);}.cls-25{fill:url(#_593_1-6);}.cls-26{fill:url(#_1629_1);}.cls-27{fill:url(#_3_1);}.cls-28{fill:url(#_1583_1);}.cls-29{fill:url(#_1133_1);}.cls-30{fill:url(#_1637_1);}.cls-31{fill:url(#_1639_1);}.cls-32{fill:#4d4d4d;}</style><linearGradient id="_467_1" x1="41.75" y1="64.4" x2="45.18" y2="64.4" gradientUnits="userSpaceOnUse"><stop offset="0" stop-color="#5a5a5a"/><stop offset="0.09" stop-color="#585858"/><stop offset="0.13" stop-color="#515151"/><stop offset="0.15" stop-color="#464646"/><stop offset="0.16" stop-color="#414141"/><stop offset="0.23" stop-color="#343434"/><stop offset="0.86" stop-color="#373737"/><stop offset="0.86" stop-color="#333"/><stop offset="0.88" stop-color="#202020"/><stop offset="0.91" stop-color="#131313"/><stop offset="0.94" stop-color="#0b0b0b"/><stop offset="1" stop-color="#090909"/></linearGradient><linearGradient id="_466_1" x1="87.73" y1="64.4" x2="91.16" y2="64.4" xlink:href="#_467_1"/><linearGradient id="_465_1" x1="66.46" y1="12.74" x2="66.46" y2="16.17" xlink:href="#_467_1"/><linearGradient id="_1958_1" x1="85.17" y1="66.11" x2="87.81" y2="66.11" gradientUnits="userSpaceOnUse"><stop offset="0" stop-color="#303030"/><stop offset="0.19" stop-color="#2b2b2b"/><stop offset="1" stop-color="#1a1a1a"/></linearGradient><linearGradient id="_1658_1" x1="87.15" y1="30.51" x2="87.81" y2="30.51" gradientUnits="userSpaceOnUse"><stop offset="0" stop-color="#999"/><stop offset="0.07" stop-color="#a6a6a6"/><stop offset="0.19" stop-color="#cacaca"/><stop offset="0.31" stop-color="#f2f2f2"/><stop offset="0.48" stop-color="#f0f0f0"/><stop offset="0.54" stop-color="#e9e9e9"/><stop offset="0.59" stop-color="#dedede"/><stop offset="0.62" stop-color="#d1d1d1"/><stop offset="0.63" stop-color="#cacaca"/><stop offset="0.75" stop-color="#9f9f9f"/><stop offset="0.85" stop-color="gray"/><stop offset="0.94" stop-color="#6d6d6d"/><stop offset="1" stop-color="#666"/></linearGradient><linearGradient id="_1658_1-2" x1="87.15" y1="101.71" x2="87.81" y2="101.71" xlink:href="#_1658_1"/><linearGradient id="_461_1" x1="80.36" y1="116.81" x2="64.93" y2="19.38" gradientUnits="userSpaceOnUse"><stop offset="0" stop-color="#343434"/><stop offset="0.02" stop-color="#343434"/><stop offset="1" stop-color="#414141"/></linearGradient><linearGradient id="_460_1" x1="64.09" y1="112.13" x2="57.67" y2="20.38" xlink:href="#_461_1"/><linearGradient id="_459_1" x1="86.25" y1="115.97" x2="79.3" y2="16.58" xlink:href="#_461_1"/><linearGradient id="_376_1" x1="71.61" y1="103.23" x2="71.61" y2="98.9" gradientUnits="userSpaceOnUse"><stop offset="0" stop-color="#b3b3b3"/><stop offset="1" stop-color="#e1e1e1"/></linearGradient><linearGradient id="_593_1" x1="62.92" y1="101.06" x2="80.29" y2="101.06" gradientUnits="userSpaceOnUse"><stop offset="0" stop-color="#a2b7b8"/><stop offset="1" stop-color="#738687"/></linearGradient><linearGradient id="_376_1-2" x1="71.61" y1="88.83" x2="71.61" y2="85.37" xlink:href="#_376_1"/><linearGradient id="_593_1-2" x1="62.92" y1="87.09" x2="80.29" y2="87.09" xlink:href="#_593_1"/><linearGradient id="_376_1-3" x1="71.61" y1="74.42" x2="71.61" y2="71.84" xlink:href="#_376_1"/><linearGradient id="_593_1-3" x1="62.92" y1="73.12" x2="80.29" y2="73.12" xlink:href="#_593_1"/><linearGradient id="_376_1-4" x1="71.61" y1="60.38" x2="71.61" y2="57.8" xlink:href="#_376_1"/><linearGradient id="_593_1-4" x1="62.92" y1="59.1" x2="80.29" y2="59.1" xlink:href="#_593_1"/><linearGradient id="_376_1-5" x1="71.61" y1="46.85" x2="71.61" y2="43.4" xlink:href="#_376_1"/><linearGradient id="_593_1-5" x1="62.92" y1="45.13" x2="80.29" y2="45.13" xlink:href="#_593_1"/><linearGradient id="_376_1-6" x1="71.61" y1="33.33" x2="71.61" y2="28.99" xlink:href="#_376_1"/><linearGradient id="_593_1-6" x1="62.92" y1="31.16" x2="80.29" y2="31.16" xlink:href="#_593_1"/><linearGradient id="_1629_1" x1="60.93" y1="63.94" x2="60.93" y2="72.21" gradientUnits="userSpaceOnUse"><stop offset="0" stop-color="#d9d9d9"/><stop offset="0.02" stop-color="#bbb"/><stop offset="1" stop-color="#8e8e8e"/></linearGradient><linearGradient id="_3_1" x1="58.27" y1="65.76" x2="63.38" y2="70.37" gradientUnits="userSpaceOnUse"><stop offset="0" stop-color="#d0d0d0"/><stop offset="0.32" stop-color="#e6e6e6"/><stop offset="1" stop-color="#8e8e8e"/></linearGradient><linearGradient id="_1583_1" x1="64.56" y1="66.86" x2="64.56" y2="65.37" gradientUnits="userSpaceOnUse"><stop offset="0" stop-color="#8f8f8f"/><stop offset="0.03" stop-color="#8d8d8d"/><stop offset="0.04" stop-color="#868686"/><stop offset="0.04" stop-color="#7d7d7d"/><stop offset="0.42" stop-color="#a6a6a6"/><stop offset="0.52" stop-color="#b0b0b0"/><stop offset="0.79" stop-color="#c8c8c8"/><stop offset="0.95" stop-color="#d1d1d1"/><stop offset="0.96" stop-color="#e1e1e1"/><stop offset="0.97" stop-color="#e7e7e7"/></linearGradient><linearGradient id="_1133_1" x1="63.57" y1="66.86" x2="63.57" y2="65.37" gradientUnits="userSpaceOnUse"><stop offset="0" stop-color="#b9b9b9"/><stop offset="0.02" stop-color="#b7b7b7"/><stop offset="0.03" stop-color="#b0b0b0"/><stop offset="0.04" stop-color="#a5a5a5"/><stop offset="0.04" stop-color="#949494"/><stop offset="0.04" stop-color="#8d8d8d"/><stop offset="0.42" stop-color="#b9b9b9"/><stop offset="0.47" stop-color="#bdbdbd"/><stop offset="0.77" stop-color="#d5d5d5"/><stop offset="0.95" stop-color="#dedede"/><stop offset="0.96" stop-color="#e1e1e1"/><stop offset="0.97" stop-color="#e7e7e7"/></linearGradient><linearGradient id="_1637_1" x1="60.81" y1="70.13" x2="60.81" y2="68.75" gradientUnits="userSpaceOnUse"><stop offset="0.65" stop-color="#8e8e8e"/><stop offset="1" stop-color="#d0d0d0"/></linearGradient><radialGradient id="_1639_1" cx="-944.29" cy="69.53" r="0.7" gradientTransform="translate(645.78 0.02) scale(0.62 1)" gradientUnits="userSpaceOnUse"><stop offset="0" stop-color="#d0d0d0"/><stop offset="0.88" stop-color="#e6e6e6"/><stop offset="1" stop-color="#ccc"/></radialGradient></defs><title>Plan de travail 1</title><g class="cls-1"><g id="Calque_1" data-name="Calque 1"><polygon class="cls-2" points="41.75 116.05 45.18 116.05 45.18 16.17 41.75 12.74 41.75 116.05"/><polygon class="cls-3" points="87.73 16.17 87.73 116.05 91.16 116.05 91.16 12.74 87.73 16.17"/><polygon class="cls-4" points="87.73 16.17 91.16 12.74 41.75 12.74 45.18 16.17 87.73 16.17"/><rect class="cls-5" x="85.17" y="16.17" width="2.64" height="99.88"/><path class="cls-6" d="M87.81,34.08h0a.65.65,0,0,1-.66-.66V27.61a.65.65,0,0,1,.66-.66h0Z"/><rect class="cls-7" x="87.15" y="30.36" width="0.66" height="0.3"/><path class="cls-8" d="M87.81,105.28h0a.66.66,0,0,1-.66-.66V98.8a.66.66,0,0,1,.66-.66h0Z"/><rect class="cls-7" x="87.15" y="101.56" width="0.66" height="0.3"/><polyline class="cls-9" points="85.17 16.17 85.17 116.05 58.76 111.5 58.76 20.73 85.17 16.17"/><polyline class="cls-10" points="62.92 20.01 62.92 112.21 58.76 111.5 58.76 20.73 62.92 20.01"/><polyline class="cls-11" points="85.17 16.17 85.17 116.05 80.29 115.21 80.29 17.01 85.17 16.17"/><g class="cls-12"><polyline class="cls-13" points="62.92 20.01 62.92 112.21 62.81 112.19 62.81 20.03 62.92 20.01"/></g><g class="cls-12"><polyline class="cls-13" points="80.42 16.99 80.42 115.23 80.29 115.21 80.29 17.01 80.42 16.99"/></g><polygon class="cls-14" points="80.29 103.23 62.92 100.97 62.92 98.9 80.29 101.03 80.29 103.23"/><polygon class="cls-15" points="80.29 103.03 62.92 100.78 62.92 99.09 80.29 101.23 80.29 103.03"/><polygon class="cls-16" points="80.29 88.83 62.92 87.44 62.92 85.37 80.29 86.62 80.29 88.83"/><polygon class="cls-17" points="80.29 88.62 62.92 87.25 62.92 85.56 80.29 86.83 80.29 88.62"/><polygon class="cls-18" points="80.29 74.42 62.92 73.91 62.92 71.84 80.29 72.21 80.29 74.42"/><polygon class="cls-19" points="80.29 74.21 62.92 73.72 62.92 72.03 80.29 72.42 80.29 74.21"/><polygon class="cls-20" points="80.29 60.01 62.92 60.38 62.92 58.31 80.29 57.8 80.29 60.01"/><polygon class="cls-21" points="80.29 59.8 62.92 60.19 62.92 58.5 80.29 58.01 80.29 59.8"/><polygon class="cls-22" points="80.29 45.6 62.92 46.85 62.92 44.78 80.29 43.4 80.29 45.6"/><polygon class="cls-23" points="80.29 45.4 62.92 46.66 62.92 44.98 80.29 43.6 80.29 45.4"/><polygon class="cls-24" points="80.29 31.2 62.92 33.33 62.92 31.25 80.29 28.99 80.29 31.2"/><polygon class="cls-25" points="80.29 30.99 62.92 33.13 62.92 31.45 80.29 29.2 80.29 30.99"/><path class="cls-26" d="M62,72.21l-2.07,0s0,0,0-.06V64s0-.06,0-.06H62A.15.15,0,0,1,62,64v8.15A.15.15,0,0,1,62,72.21Z"/><path class="cls-27" d="M61.72,72.21l-1.82,0s0,0,0-.06V64s0-.06,0-.06h1.82a.15.15,0,0,1,0,.06v8.15A.15.15,0,0,1,61.72,72.21Z"/><path class="cls-28" d="M67,66.86l-4.85,0a0,0,0,0,1,0,0V65.38H67a0,0,0,0,1,0,0v1.44A0,0,0,0,1,67,66.86Z"/><path class="cls-29" d="M66.76,66.86l-6.39,0a0,0,0,0,1,0,0V65.38h6.39a0,0,0,0,1,0,0v1.44A0,0,0,0,1,66.76,66.86Z"/><path class="cls-30" d="M60.87,68.75h-.13c-.24,0-.43.3-.43.68s.19.7.43.7h.13c.24,0,.43-.3.43-.69S61.11,68.75,60.87,68.75Z"/><path class="cls-31" d="M61.17,69.44c0,.39-.19.69-.43.69s-.43-.32-.43-.7.19-.69.43-.68S61.17,69.06,61.17,69.44Z"/><polygon class="cls-32" points="60.53 69.36 60.53 69.51 60.95 69.52 60.95 69.37 60.53 69.36"/></g></g></svg>