<?xml version="1.0" encoding="utf-8"?>
<!-- Generator: Adobe Illustrator 22.1.0, SVG Export Plug-In . SVG Version: 6.00 Build 0)  -->
<svg version="1.1" id="Calque_3" xmlns="http://www.w3.org/2000/svg" xmlns:xlink="http://www.w3.org/1999/xlink" x="0px" y="0px"
	 viewBox="0 0 128 128" style="enable-background:new 0 0 128 128;" xml:space="preserve">
<style type="text/css">
	.st0{fill:#13375B;}
	.st1{fill:url(#SVGID_1_);}
	.st2{fill:url(#SVGID_2_);}
	.st3{fill:url(#SVGID_3_);}
	.st4{fill:url(#SVGID_4_);}
</style>
<g>
	<path class="st0" d="M126.4,63.4c0,35.3-28.7,64-64,64c-35.3,0-64-28.7-64-64c0-35.3,28.7-64,64-64C97.8-0.6,126.4,28,126.4,63.4z"
		/>
	<g>
		<linearGradient id="SVGID_1_" gradientUnits="userSpaceOnUse" x1="130.903" y1="85.879" x2="62.8524" y2="66.4359">
			<stop  offset="0" style="stop-color:#1C1B19;stop-opacity:0"/>
			<stop  offset="1" style="stop-color:#13375B"/>
		</linearGradient>
		<path class="st1" d="M29.9,86.3L25,70.4l6.8-12.1l13-7.7l9.8,2.8L78.1,60l-2.7-22.8l19.8-10.6l9.6,12.6l20.3,11.1
			c0.8,4.1,1.2,8.4,1.3,12.7c0.5,19.9-11.4,47.6-39.3,59.3L29.9,86.3"/>
	</g>
	<path d="M109.7,43.8v-2.6l-3.5-0.7c-0.1-1-0.4-1.9-0.7-2.8l2.7-2.4l-1.3-2.2l-3.5,1.1c-0.6-0.7-1.3-1.4-2-2l1.2-3.5l-2.2-1.3
		l-2.5,2.8c-0.8-0.3-1.7-0.5-2.6-0.6l-0.8-3.8h-2.6L91,29.6c-0.8,0.2-1.6,0.4-2.4,0.7l-2.8-3.1l-2.2,1.3l1.3,4
		c-0.6,0.5-1.1,1.1-1.6,1.7l-4.1-1.3l-1.3,2.2l3.2,2.9c-0.2,0.7-0.4,1.4-0.6,2.1L76.3,41l0,2.6l4.3,0.9c0.1,0.7,0.3,1.4,0.5,2.1
		l-3.3,3l1.3,2.2l4.1-1.3c0.5,0.6,1,1.1,1.5,1.6l-1.3,4.1l2.2,1.3l2.8-3.1c0.7,0.3,1.5,0.5,2.3,0.7l0.9,4.1h2.6l0.8-3.9
		c0.9-0.1,1.7-0.3,2.5-0.6l2.6,2.9l2.2-1.3l-1.2-3.6c0.7-0.6,1.4-1.2,2-1.9l3.6,1.2l1.3-2.2l-2.7-2.4c0.4-0.9,0.6-1.8,0.8-2.7
		L109.7,43.8z"/>
	<path d="M86.7,76.6l0-5.3l-6-1.2c-0.3-2.4-0.9-4.7-1.8-6.9l4.6-4.1l-2.7-4.6l-5.8,1.9c-1.5-1.9-3.1-3.6-5-5l1.9-5.9l-4.6-2.7
		L63,47.3c-2.1-0.9-4.4-1.5-6.8-1.8l-1.3-6.2l-5.3,0l-1.3,6.2c-2.3,0.3-4.6,1-6.7,1.8l-4.3-4.8l-4.6,2.7l2,6.1
		c-1.8,1.4-3.4,3-4.8,4.8l-6.2-2L21,58.9l4.8,4.3c-0.8,2.1-1.4,4.3-1.8,6.6l-6.4,1.4l0,5.3l6.4,1.3c0.3,2.3,0.9,4.5,1.7,6.5
		l-4.9,4.4l2.7,4.6l6.2-2c1.4,1.8,3,3.4,4.8,4.8l-2,6.2l4.6,2.7l4.3-4.8c2.1,0.9,4.3,1.5,6.6,1.8l1.4,6.3l5.3,0l1.3-6.2
		c2.4-0.3,4.6-0.9,6.8-1.7l4.2,4.7l4.6-2.7l-1.9-5.9c1.9-1.4,3.6-3.1,5-5l5.9,1.9l2.7-4.6l-4.6-4.1c0.9-2.2,1.5-4.5,1.9-6.9
		L86.7,76.6z M76.3,73.8c0,13.2-10.6,23.9-23.8,24c-13.2,0-23.9-10.6-24-23.8c0-13.2,10.6-23.9,23.8-24
		C65.4,49.9,76.2,60.6,76.3,73.8z"/>
	<g>
		<linearGradient id="SVGID_2_" gradientUnits="userSpaceOnUse" x1="73.0826" y1="40.4672" x2="106.214" y2="40.4672">
			<stop  offset="0" style="stop-color:#FFFFFF"/>
			<stop  offset="0.2336" style="stop-color:#E7E7E7"/>
			<stop  offset="0.522" style="stop-color:#C4C4C4"/>
			<stop  offset="0.5238" style="stop-color:#D7D7D7"/>
			<stop  offset="0.5262" style="stop-color:#E9E9E9"/>
			<stop  offset="0.5279" style="stop-color:#EFEFEF"/>
			<stop  offset="0.734" style="stop-color:#F8F8F8"/>
			<stop  offset="1" style="stop-color:#FFFFFF"/>
		</linearGradient>
		<path class="st2" d="M107.1,41.9v-2.6l-3.5-0.7c-0.1-1-0.4-1.9-0.7-2.8l2.7-2.4l-1.3-2.2l-3.5,1.1c-0.6-0.7-1.3-1.4-2-2l1.2-3.5
			l-2.2-1.3l-2.5,2.8c-0.8-0.3-1.7-0.5-2.6-0.6l-0.8-3.8h-2.6l-0.8,3.9c-0.8,0.2-1.6,0.4-2.4,0.7l-2.8-3.1l-2.2,1.3l1.3,4
			c-0.6,0.5-1.1,1.1-1.6,1.7l-4.1-1.3l-1.3,2.2l3.2,2.9c-0.2,0.7-0.4,1.4-0.6,2.1l-4.3,0.9l0,2.6l4.3,0.9c0.1,0.7,0.3,1.4,0.5,2.1
			l-3.3,3l1.3,2.2l4.1-1.3c0.5,0.6,1,1.1,1.5,1.6l-1.3,4.1l2.2,1.3l2.8-3.1c0.7,0.3,1.5,0.5,2.3,0.7l0.9,4.1h2.6l0.8-3.9
			c0.9-0.1,1.7-0.3,2.5-0.6l2.6,2.9l2.2-1.3l-1.2-3.6c0.7-0.6,1.4-1.2,2-1.9l3.6,1.2l1.3-2.2l-2.7-2.4c0.4-0.9,0.6-1.8,0.8-2.7
			L107.1,41.9z M82.9,40.4c0-4.3,3.5-7.8,7.8-7.8c4.3,0,7.8,3.5,7.8,7.8c0,4.3-3.5,7.8-7.8,7.8C86.4,48.2,82.9,44.7,82.9,40.4z"/>
	</g>
	<g>
		<g>
			<linearGradient id="SVGID_3_" gradientUnits="userSpaceOnUse" x1="18.9916" y1="71.9488" x2="76.8712" y2="71.9488">
				<stop  offset="0" style="stop-color:#FFFFFF"/>
				<stop  offset="0.2336" style="stop-color:#E7E7E7"/>
				<stop  offset="0.522" style="stop-color:#C4C4C4"/>
				<stop  offset="0.5238" style="stop-color:#D7D7D7"/>
				<stop  offset="0.5262" style="stop-color:#E9E9E9"/>
				<stop  offset="0.5279" style="stop-color:#EFEFEF"/>
				<stop  offset="0.734" style="stop-color:#F8F8F8"/>
				<stop  offset="1" style="stop-color:#FFFFFF"/>
			</linearGradient>
			<path class="st3" d="M84,74.7l0-5.3l-6-1.2c-0.3-2.4-0.9-4.7-1.8-6.9l4.6-4.1l-2.7-4.6l-5.8,1.9c-1.5-1.9-3.1-3.6-5-5l1.9-5.9
				l-4.6-2.7l-4.1,4.6c-2.1-0.9-4.4-1.5-6.8-1.8l-1.3-6.2l-5.3,0l-1.3,6.2c-2.3,0.3-4.6,1-6.7,1.8l-4.3-4.8L30,43.4l2,6.1
				c-1.8,1.4-3.4,3-4.8,4.8l-6.2-2l-2.7,4.6l4.8,4.3c-0.8,2.1-1.4,4.3-1.8,6.6L15,69.2l0,5.3l6.4,1.3c0.3,2.3,0.9,4.5,1.7,6.5
				l-4.9,4.4l2.7,4.6l6.2-2c1.4,1.8,3,3.4,4.8,4.8l-2,6.2l4.6,2.7l4.3-4.8c2.1,0.9,4.3,1.5,6.6,1.8l1.4,6.3l5.3,0l1.3-6.2
				c2.4-0.3,4.6-0.9,6.8-1.7l4.2,4.7l4.6-2.7l-1.9-5.9c1.9-1.4,3.6-3.1,5-5l5.9,1.9l2.7-4.6l-4.6-4.1c0.9-2.2,1.5-4.5,1.9-6.9
				L84,74.7z M73.6,71.8c0,13.2-10.6,23.9-23.8,24c-13.2,0-23.9-10.6-24-23.8c0-13.2,10.6-23.9,23.8-24C62.8,48,73.6,58.7,73.6,71.8
				z"/>
			<g>
				<linearGradient id="SVGID_4_" gradientUnits="userSpaceOnUse" x1="18.9916" y1="71.9176" x2="76.8711" y2="71.9176">
					<stop  offset="0" style="stop-color:#FFFFFF"/>
					<stop  offset="0.2336" style="stop-color:#E7E7E7"/>
					<stop  offset="0.522" style="stop-color:#C4C4C4"/>
					<stop  offset="0.5238" style="stop-color:#D7D7D7"/>
					<stop  offset="0.5262" style="stop-color:#E9E9E9"/>
					<stop  offset="0.5279" style="stop-color:#EFEFEF"/>
					<stop  offset="0.734" style="stop-color:#F8F8F8"/>
					<stop  offset="1" style="stop-color:#FFFFFF"/>
				</linearGradient>
				<path class="st4" d="M49.7,54c9.9,0,17.9,8,18,17.9c0,9.9-8,18-17.9,18l-0.1,0c-9.9,0-17.9-8-18-17.9c0-4.8,1.8-9.3,5.2-12.7
					C40.3,55.9,44.8,54,49.7,54L49.7,54 M49.7,52C49.7,52,49.7,52,49.7,52c-11.1,0-20,9-19.9,20c0,11,9,19.8,19.9,19.8
					c0,0,0,0,0.1,0c11,0,19.9-9,19.8-20C69.6,60.9,60.7,52,49.7,52L49.7,52z"/>
			</g>
		</g>
	</g>
</g>
</svg>
