<?xml version="1.0" encoding="UTF-8" standalone="no"?>
<svg
   xmlns:dc="http://purl.org/dc/elements/1.1/"
   xmlns:cc="http://creativecommons.org/ns#"
   xmlns:rdf="http://www.w3.org/1999/02/22-rdf-syntax-ns#"
   xmlns:svg="http://www.w3.org/2000/svg"
   xmlns="http://www.w3.org/2000/svg"
   xmlns:sodipodi="http://sodipodi.sourceforge.net/DTD/sodipodi-0.dtd"
   xmlns:inkscape="http://www.inkscape.org/namespaces/inkscape"
   version="1.1"
   id="Calque_3"
   x="0px"
   y="0px"
   viewBox="0 0 128 128"
   xml:space="preserve"
   sodipodi:docname="syn_reseau.svg"
   width="128"
   height="128"
   inkscape:version="1.0.2 (e86c870879, 2021-01-15)"
   inkscape:export-filename="/home/sebastien/SRC/trunk/Watchdogd/IHM/img/syn_reseau.png"
   inkscape:export-xdpi="96"
   inkscape:export-ydpi="96"><metadata
   id="metadata129"><rdf:RDF><cc:Work
       rdf:about=""><dc:format>image/svg+xml</dc:format><dc:type
         rdf:resource="http://purl.org/dc/dcmitype/StillImage" /><dc:title /></cc:Work></rdf:RDF></metadata><defs
   id="defs127" /><sodipodi:namedview
   pagecolor="#ffffff"
   bordercolor="#666666"
   borderopacity="1"
   objecttolerance="10"
   gridtolerance="10"
   guidetolerance="10"
   inkscape:pageopacity="0"
   inkscape:pageshadow="2"
   inkscape:window-width="1920"
   inkscape:window-height="979"
   id="namedview125"
   showgrid="false"
   inkscape:zoom="6.203125"
   inkscape:cx="64"
   inkscape:cy="63.838791"
   inkscape:window-x="0"
   inkscape:window-y="0"
   inkscape:window-maximized="1"
   inkscape:current-layer="g122"
   inkscape:document-rotation="0" />
<style
   type="text/css"
   id="style2">
	.st0{fill:#EC9D40;}
	.st1{fill:#C9802A;}
	.st2{fill:#666666;}
	.st3{fill:#FBB03B;stroke:#998675;stroke-miterlimit:10;}
	.st4{fill:#C7B299;stroke:#F6ECCB;stroke-miterlimit:10;}
	.st5{fill:#1D2C36;}
	.st6{fill:#ECF0F1;}
	.st7{fill:#D6DBDB;}
	.st8{fill:#B7C3C3;}
	.st9{fill:#363838;}
	.st10{fill:#4F4F4F;}
</style>
<g
   id="g122">
	<circle
   class="st0"
   cx="64"
   cy="64"
   id="circle4"
   r="64"
   style="fill:#007ab9;fill-opacity:0.7" />
	<g
   id="g8">
		<path
   class="st0"
   d="M 57.6,127.8"
   id="path6" />
	</g>
	<path
   class="st1"
   d="m 127.9,64 c 0,-11.1 -1.8,-22.3 -9.5,-33.6 l -26.2,-15.9 -9.7,14.2 6.6,2.4 v 5.3 L 74.5,35.8 73.8,44.2 32.9,88.4 89,123.2 c 19.5,-8.5 39,-29.6 38.9,-59.2 z"
   id="path10"
   style="fill:#007ab9;fill-opacity:0.698039" />
	<g
   id="XMLID_199_">
		<g
   id="XMLID_200_">
			<g
   id="XMLID_209_">
				<g
   id="XMLID_215_">
					<g
   id="XMLID_216_">
						<path
   class="st2"
   d="m 39,106.8 c -0.4,0 -0.7,-0.3 -0.7,-0.7 V 93 c 0,-0.4 0.3,-0.7 0.7,-0.7 h 14.1 c 0,-10.7 -0.2,-10.7 0.7,-10.7 0.9,0 0.7,0.2 0.7,11.4 0,0.4 -0.3,0.7 -0.7,0.7 H 39.7 v 12.6 c 0,0.2 -0.3,0.5 -0.7,0.5 z"
   id="path12" />
					</g>
				</g>
				<g
   id="XMLID_210_">
					<g
   id="XMLID_211_">
						<g
   id="XMLID_212_">
							<g
   id="XMLID_213_">
								<g
   id="XMLID_214_">
									<path
   class="st3"
   d="m 47.4,107.1 c 0,4.6 -3.7,8.3 -8.3,8.3 -4.6,0 -8.3,-3.7 -8.3,-8.3 0,-4.6 3.7,-8.3 8.3,-8.3 4.5,0 8.3,3.7 8.3,8.3 z"
   id="path16" />
								</g>
							</g>
						</g>
					</g>
				</g>
			</g>
			<g
   id="XMLID_201_">
				<g
   id="XMLID_207_">
					<g
   id="XMLID_208_">
						<path
   class="st2"
   d="m 88.6,106.8 c -0.4,0 -0.7,-0.3 -0.7,-0.7 V 93.6 h -14 c -0.4,0 -0.7,-0.3 -0.7,-0.7 V 82.2 c 0,-0.9 1.3,-0.9 1.3,0 v 10.1 h 14.1 c 0.4,0 0.7,0.3 0.7,0.7 v 13.2 c 0,0.3 -0.3,0.6 -0.7,0.6 z"
   id="path24" />
					</g>
				</g>
				<g
   id="XMLID_202_">
					<g
   id="XMLID_203_">
						<g
   id="XMLID_204_">
							<g
   id="XMLID_205_">
								<g
   id="XMLID_206_">
									<path
   class="st3"
   d="m 80.3,107.1 c 0,4.6 3.7,8.3 8.3,8.3 4.6,0 8.3,-3.7 8.3,-8.3 0,-4.6 -3.7,-8.3 -8.3,-8.3 -4.6,0 -8.3,3.7 -8.3,8.3 z"
   id="path28" />
								</g>
							</g>
						</g>
					</g>
				</g>
			</g>
		</g>
	</g>
	<g
   id="XMLID_115_">
		<g
   id="XMLID_116_">
			<g
   id="XMLID_125_">
				<g
   id="XMLID_197_">
					<g
   id="XMLID_198_">
						<path
   class="st2"
   d="m 88.6,22.3 c 0.4,0 0.7,0.3 0.7,0.7 v 13.2 c 0,0.4 -0.3,0.7 -0.7,0.7 h -14 c 0,10.7 0.2,10.7 -0.7,10.7 -0.9,0 -0.7,-0.2 -0.7,-11.4 0,-0.4 0.3,-0.7 0.7,-0.7 H 88 V 23 c 0,-0.4 0.3,-0.7 0.6,-0.7 z"
   id="path38" />
					</g>
				</g>
				<g
   id="XMLID_126_">
					<g
   id="XMLID_127_">
						<g
   id="XMLID_149_">
							<g
   id="XMLID_150_">
								<g
   id="XMLID_151_">
									<path
   class="st3"
   d="m 80.3,22 c 0,-4.6 3.7,-8.3 8.3,-8.3 4.6,0 8.3,3.7 8.3,8.3 0,4.6 -3.7,8.3 -8.3,8.3 C 84,30.4 80.3,26.6 80.3,22 Z"
   id="path42" />
								</g>
							</g>
						</g>
					</g>
				</g>
			</g>
			<g
   id="XMLID_117_">
				<g
   id="XMLID_123_">
					<g
   id="XMLID_124_">
						<path
   class="st2"
   d="m 39,22.3 c 0.4,0 0.7,0.3 0.7,0.7 v 12.6 h 14.1 c 0.4,0 0.7,0.3 0.7,0.7 V 47 c 0,0.9 -1.3,0.9 -1.3,0 V 36.9 H 39 c -0.4,0 -0.7,-0.3 -0.7,-0.7 V 23 c 0.1,-0.4 0.4,-0.7 0.7,-0.7 z"
   id="path50" />
					</g>
				</g>
				<g
   id="XMLID_118_">
					<g
   id="XMLID_119_">
						<g
   id="XMLID_120_">
							<g
   id="XMLID_121_">
								<g
   id="XMLID_122_">
									<path
   class="st3"
   d="m 47.4,22 c 0,-4.6 -3.7,-8.3 -8.3,-8.3 -4.6,0 -8.3,3.7 -8.3,8.3 0,4.6 3.7,8.3 8.3,8.3 4.5,0.1 8.3,-3.7 8.3,-8.3 z"
   id="path54" />
								</g>
							</g>
						</g>
					</g>
				</g>
			</g>
		</g>
	</g>
	<g
   id="XMLID_107_">
		<g
   id="XMLID_113_">
			<g
   id="XMLID_114_">
				<path
   class="st2"
   d="m 88.8,60.5 c 0,-0.4 0.3,-0.7 0.7,-0.7 H 109 c 0.4,0 0.7,0.3 0.7,0.7 0,0.4 -0.3,0.7 -0.7,0.7 H 88.6"
   id="path64" />
			</g>
		</g>
		<g
   id="XMLID_108_">
			<g
   id="XMLID_109_">
				<g
   id="XMLID_110_">
					<g
   id="XMLID_111_">
						<g
   id="XMLID_112_">
							<path
   class="st3"
   d="m 109.9,68.9 c 4.6,0 8.3,-3.7 8.3,-8.3 0,-4.6 -3.7,-8.3 -8.3,-8.3 -4.6,0 -8.3,3.7 -8.3,8.3 0,4.5 3.7,8.3 8.3,8.3 z"
   id="path68" />
						</g>
					</g>
				</g>
			</g>
		</g>
	</g>
	<g
   id="XMLID_99_">
		<g
   id="XMLID_105_">
			<g
   id="XMLID_106_">
				<path
   class="st2"
   d="m 40.3,60.5 c 0,-0.4 -0.3,-0.7 -0.7,-0.7 H 19.4 c -0.4,0 -0.7,0.3 -0.7,0.7 0,0.4 0.3,0.7 0.7,0.7 h 21.1"
   id="path76" />
			</g>
		</g>
		<g
   id="XMLID_100_">
			<g
   id="XMLID_101_">
				<g
   id="XMLID_102_">
					<g
   id="XMLID_103_">
						<g
   id="XMLID_104_">
							<path
   class="st3"
   d="m 18.4,68.9 c -4.6,0 -8.3,-3.7 -8.3,-8.3 0,-4.6 3.7,-8.3 8.3,-8.3 4.6,0 8.3,3.7 8.3,8.3 0,4.5 -3.7,8.3 -8.3,8.3 z"
   id="path80" />
						</g>
					</g>
				</g>
			</g>
		</g>
	</g>
	<circle
   class="st4"
   cx="88.5"
   cy="22"
   r="3.7"
   id="circle88" />
	<circle
   class="st4"
   cx="39"
   cy="22"
   r="3.7"
   id="circle90" />
	<circle
   class="st4"
   cx="18.700001"
   cy="60.5"
   r="3.7"
   id="circle92" />
	<circle
   class="st4"
   cx="109.9"
   cy="60.5"
   r="3.7"
   id="circle94" />
	<circle
   class="st4"
   cx="88.5"
   cy="106.8"
   r="3.7"
   id="circle96" />
	<circle
   class="st4"
   cx="39"
   cy="106.8"
   r="3.7"
   id="circle98" />
	<g
   id="g120">
		<g
   id="g118">
			<g
   id="g110">
				<g
   id="g104">
					<path
   class="st5"
   d="m 96.7,45.1 c 0,-2.2 -1.6,-4 -3.5,-4 H 34.9 c -2,0 -3.5,1.8 -3.5,4 v 33.8 h 65.3 z"
   id="path100" />
					<path
   class="st6"
   d="m 31.3,78.9 v 5.2 c 0,2.2 1.6,4 3.5,4 H 93 c 2,0 3.5,-1.8 3.5,-4 v -5.2 z"
   id="path102" />
				</g>
				<path
   class="st7"
   d="M 72.1,96.7 C 69.7,95.3 69.8,92.4 69.8,92.4 V 88 H 64 58.2 v 4.5 c 0,0 0.1,2.9 -2.3,4.3 h -0.7 v 0.9 h 8.8 8.8 v -0.9 h -0.7 z"
   id="path106" />
				<rect
   x="55.200001"
   y="96.699997"
   class="st8"
   width="17.6"
   height="0.89999998"
   id="rect108" />
			</g>
			<g
   id="g116">
				<polygon
   class="st9"
   points="46.3,75.7 70.6,44.9 34.6,44.9 34.6,75.7 "
   id="polygon112" />
				<polygon
   class="st10"
   points="46.3,75.7 93.4,75.7 93.4,44.9 70.6,44.9 "
   id="polygon114" />
			</g>
		</g>
	</g>
</g>
</svg>
