<?xml version="1.0" encoding="utf-8"?>
<!-- Generator: Adobe Illustrator 22.1.0, SVG Export Plug-In . SVG Version: 6.00 Build 0)  -->
<svg version="1.1" id="Calque_2_1_" xmlns="http://www.w3.org/2000/svg" xmlns:xlink="http://www.w3.org/1999/xlink" x="0px"
	 y="0px" viewBox="0 0 128 128" style="enable-background:new 0 0 128 128;" xml:space="preserve">
<style type="text/css">
	.st0{fill:none;}
	.st1{fill:#28313B;}
	.st2{fill:#E49B4C;}
	.st3{fill:url(#SVGID_1_);}
	.st4{fill:url(#SVGID_2_);}
	.st5{fill:url(#SVGID_3_);}
	.st6{fill:url(#SVGID_4_);}
	.st7{fill:#FFFDF7;}
	.st8{fill:url(#SVGID_5_);}
	.st9{fill:url(#SVGID_6_);}
	.st10{fill:#603813;}
	.st11{fill:url(#SVGID_7_);}
	.st12{fill:url(#SVGID_8_);}
	.st13{fill:url(#SVGID_9_);}
	.st14{fill:url(#SVGID_10_);}
	.st15{fill:#736F3E;}
	.st16{fill:#89864D;}
	.st17{fill:#9EA450;}
	.st18{fill:#F7BAAB;}
	.st19{fill:#D2BC57;}
	.st20{fill:#566100;}
	.st21{fill:#534741;}
	.st22{fill:#FFB34C;}
	.st23{fill:#A67C52;}
	.st24{fill:#998675;}
	.st25{fill:#FBB03B;}
	.st26{fill:#9DBF5C;}
	.st27{fill:#75462F;}
	.st28{fill:#138784;}
	.st29{fill:#555E00;}
	.st30{fill:#736357;}
	.st31{fill:#C69C6D;}
	.st32{fill:#67850C;}
	.st33{fill:url(#SVGID_11_);}
	.st34{fill:#C9BE81;}
	.st35{fill:#D4C888;}
	.st36{fill:#9C9364;}
</style>
<pattern  y="128" width="32.2" height="34.5" patternUnits="userSpaceOnUse" id="Nouvelle_nuance_de_motif_2" viewBox="0 -34.5 32.2 34.5" style="overflow:visible;">
	<g>
		<rect y="-34.5" class="st0" width="32.2" height="34.5"/>
		<rect y="-34.5" class="st1" width="32.2" height="34.5"/>
	</g>
</pattern>
<g>
	<g>
		<circle class="st2" cx="64" cy="64" r="64"/>
	</g>
	<linearGradient id="SVGID_1_" gradientUnits="userSpaceOnUse" x1="31.3981" y1="81.1479" x2="127.9964" y2="81.1479">
		<stop  offset="0" style="stop-color:#BC823F;stop-opacity:0"/>
		<stop  offset="1" style="stop-color:#BC823F"/>
	</linearGradient>
	<path class="st3" d="M100.3,116.9c17-11.5,27.6-31,27.6-53.1c0-3.1-0.1-3.6-0.3-6.3L91.4,45.4l-39.8,0.1l-20.2,46L100.3,116.9z"/>
	<linearGradient id="SVGID_2_" gradientUnits="userSpaceOnUse" x1="31.3518" y1="81.1479" x2="127.9604" y2="81.1479">
		<stop  offset="0" style="stop-color:#BC823F;stop-opacity:0"/>
		<stop  offset="1" style="stop-color:#BC823F"/>
	</linearGradient>
	<path class="st4" d="M100.3,116.9c17-11.5,27.6-31,27.6-53.1c0-3.1,0.1-3.3-0.3-6.3L91.3,45.4l-39.8,0.1l-20.2,46L100.3,116.9z"/>
	<g>
		<g>
			<linearGradient id="SVGID_3_" gradientUnits="userSpaceOnUse" x1="112.6263" y1="58.4329" x2="105.9654" y2="58.3581">
				<stop  offset="0" style="stop-color:#8C6239"/>
				<stop  offset="0.5401" style="stop-color:#754C24"/>
				<stop  offset="1" style="stop-color:#8C6239"/>
			</linearGradient>
			<path class="st5" d="M109.2,57.3H109h-0.3c0,0-2.9,1.9-4,2.1h4.2h4.1C112.1,59.3,109.2,57.3,109.2,57.3z"/>
		</g>
		<linearGradient id="SVGID_4_" gradientUnits="userSpaceOnUse" x1="109.9999" y1="50.5958" x2="107.9484" y2="50.5728">
			<stop  offset="0" style="stop-color:#42210B"/>
			<stop  offset="0.5294" style="stop-color:#603813"/>
			<stop  offset="0.697" style="stop-color:#5B3412"/>
			<stop  offset="0.9006" style="stop-color:#4C290E"/>
			<stop  offset="1" style="stop-color:#42210B"/>
		</linearGradient>
		<path class="st6" d="M110.2,43.5H109h-1.3c0,0,1.6,6.5,0.5,14.3h0.8h0.8C108.6,50,110.2,43.5,110.2,43.5z"/>
		<g>
			<path class="st7" d="M117.1,43.8c0,0.4-3.7,0.8-8.2,0.8c-4.5,0-8.2-0.3-8.2-0.8c0-0.4,3.7-0.8,8.2-0.8
				C113.5,43.1,117.1,43.4,117.1,43.8z"/>
			<linearGradient id="SVGID_5_" gradientUnits="userSpaceOnUse" x1="100.3638" y1="40.621" x2="117.5249" y2="40.621">
				<stop  offset="4.407051e-04" style="stop-color:#C7B299"/>
				<stop  offset="2.600399e-02" style="stop-color:#C7AC8D"/>
				<stop  offset="8.913453e-02" style="stop-color:#C6A076"/>
				<stop  offset="0.1283" style="stop-color:#C69C6D"/>
				<stop  offset="0.3904" style="stop-color:#A67C52"/>
				<stop  offset="0.5492" style="stop-color:#A2784E"/>
				<stop  offset="0.7113" style="stop-color:#966C42"/>
				<stop  offset="0.7968" style="stop-color:#8C6239"/>
				<stop  offset="1" style="stop-color:#664E51"/>
			</linearGradient>
			<path class="st8" d="M117.6,43.8c0.1,0.5-6.3,0.9-8.6,0.9s-8.6-0.4-8.6-1c0-0.5,0.5-7,0.5-7s7.6-0.2,8.1-0.2
				c8.1,0,8.1,0.2,8.1,0.2S117.5,43.3,117.6,43.8z"/>
			<linearGradient id="SVGID_6_" gradientUnits="userSpaceOnUse" x1="100.895" y1="36.6376" x2="116.988" y2="36.6376">
				<stop  offset="0" style="stop-color:#998675"/>
				<stop  offset="2.893467e-02" style="stop-color:#A79380"/>
				<stop  offset="9.025549e-02" style="stop-color:#BEAA92"/>
				<stop  offset="0.1283" style="stop-color:#C7B299"/>
				<stop  offset="0.3904" style="stop-color:#998675"/>
				<stop  offset="0.5718" style="stop-color:#958375"/>
				<stop  offset="0.7572" style="stop-color:#897874"/>
				<stop  offset="0.7968" style="stop-color:#857574"/>
				<stop  offset="1" style="stop-color:#664E51"/>
			</linearGradient>
			<path class="st9" d="M100.9,36.7c0,0,0-0.2,8.1-0.2c8.1,0,8.1,0.2,8.1,0.2"/>
		</g>
	</g>
	<path class="st10" d="M128,60.8h-24.8v-1.4h24.7c0,0,0.1,0.5,0.1,0.6C127.9,60.2,128,60.8,128,60.8z"/>
	<g>
		<g>
			
				<pattern  id="SVGID_7_" xlink:href="#Nouvelle_nuance_de_motif_2" patternTransform="matrix(0.3863 0 0 0.3863 -4971.1523 -5101.5845)">
			</pattern>
			<polygon class="st11" points="31.4,87.6 29,91.7 31.4,91.7 36.8,87.6 			"/>
			
				<pattern  id="SVGID_8_" xlink:href="#Nouvelle_nuance_de_motif_2" patternTransform="matrix(0.3863 0 0 0.3863 -4971.1523 -5101.5845)">
			</pattern>
			<polygon class="st12" points="28.2,84.7 31.4,87.6 64,87.6 64,84.7 			"/>
			
				<pattern  id="SVGID_9_" xlink:href="#Nouvelle_nuance_de_motif_2" patternTransform="matrix(0.3863 0 0 0.3863 -4971.1523 -5101.5845)">
			</pattern>
			<polygon class="st13" points="96.6,87.6 99,91.7 96.6,91.7 91.2,87.6 			"/>
			
				<pattern  id="SVGID_10_" xlink:href="#Nouvelle_nuance_de_motif_2" patternTransform="matrix(0.3863 0 0 0.3863 -4971.1523 -5101.5845)">
			</pattern>
			<polygon class="st14" points="99.8,84.7 96.6,87.6 64,87.6 64,84.7 			"/>
		</g>
		<g>
			<path class="st15" d="M24.8,74.1v9.1c0,1.6,1.5,2.8,3.4,2.8h71.6c1.9,0,3.4-1.3,3.4-2.8v-9.1H24.8z"/>
			<g>
				<path class="st16" d="M91.4,45.2c3.7,0,5.5,3.2,5.5,5.2v16.3H31V50.4c0-2,2.4-5.2,5.5-5.2C38.4,45.2,89.9,45.2,91.4,45.2z"/>
				<path class="st17" d="M39.4,49.5c-2,0.3-3.6,2-3.6,3.6v13.5h56.4V53.2c0-1.7-1.7-3.4-3.6-3.6H39.4z"/>
				<g>
					<path class="st18" d="M96.2,65.4H32c-2.5,1.4-7.3,8.5-7.3,8.5c0,0.7,0.8,1.3,1.7,1.3h75.2c0.9,0,1.7-0.6,1.7-1.3
						C103.2,73.9,98.6,66.8,96.2,65.4z"/>
					<path class="st19" d="M96.2,65.4H32c-2.5,1.4-7.3,8.5-7.3,8.5c0,0.7,0.8,1.3,1.7,1.3h75.2c0.9,0,1.7-0.6,1.7-1.3
						C103.2,73.9,98.6,66.8,96.2,65.4z"/>
					<path class="st17" d="M103.2,74.4c0,1.3-1.3,2.4-2.9,2.4H27.7c-1.6,0-2.9-1.1-2.9-2.4l0,0c0-1.3,1.3-2.4,2.9-2.4h72.7
						C101.9,72,103.2,73.1,103.2,74.4L103.2,74.4z"/>
				</g>
			</g>
			<g>
				<path class="st15" d="M109,66c0,0-7.9-5.6-10.9-6.9c-0.4-0.2-1.5-0.2-1.9,0.2c-1,0.9-2.1,3.2-2.1,6.1c0,0,3.8,1.1,7.5,6.1
					c0.4,0.5,0.4,1,0.4,1L109,66z"/>
				<path class="st15" d="M98.2,86c0,0,9.3,1.4,12.3-15.8c0.2-1.3,0.1-4.1-2.6-4.6c-2.3-0.5-4.2-0.2-5.1,3.3
					C102.8,68.9,98.8,83.8,98.2,86z"/>
			</g>
			<g>
				<path class="st15" d="M19,66c0,0,7.9-5.6,10.9-6.9c0.4-0.2,1.5-0.2,1.9,0.2c1,0.9,2.1,3.2,2.1,6.1c0,0-3.8,1.1-7.5,6.1
					c-0.4,0.5-0.4,1-0.4,1L19,66z"/>
				<path class="st15" d="M29.8,86c0,0-9.3,1.4-12.3-15.8c-0.2-1.3-0.1-4.1,2.6-4.6c2.3-0.5,4.2-0.2,5.1,3.3
					C25.2,68.9,29.2,83.8,29.8,86z"/>
			</g>
		</g>
	</g>
	<g>
		<g>
			<rect x="9.4" y="45.2" class="st10" width="19.7" height="1.8"/>
			<rect x="9.4" y="38.2" class="st10" width="1.8" height="8.8"/>
		</g>
		<g>
			<rect x="11.1" y="33.1" class="st20" width="4.3" height="12.2"/>
			<rect x="11.1" y="34.8" class="st21" width="4.3" height="2.7"/>
			<g>
				<rect x="11.1" y="37.6" class="st21" width="4.3" height="0.2"/>
				<rect x="11.1" y="34.4" class="st21" width="4.3" height="0.2"/>
			</g>
		</g>
		<g>
			<rect x="15.6" y="31.2" class="st22" width="2.3" height="14.1"/>
			<path class="st23" d="M17.4,39c0,0.1-0.1,0.1-0.1,0.1h-1c-0.1,0-0.1,0-0.1-0.1v-7c0-0.1,0.1-0.1,0.1-0.1h1c0.1,0,0.1,0,0.1,0.1
				V39z"/>
		</g>
		<g>
			<rect x="20.6" y="31.5" class="st24" width="3.1" height="13.7"/>
			<g>
				<rect x="20.6" y="34.3" class="st25" width="3.1" height="0.3"/>
				<rect x="20.6" y="34.8" class="st25" width="3.1" height="0.3"/>
				<rect x="20.6" y="35.2" class="st25" width="3.1" height="0.3"/>
			</g>
		</g>
		<g>
			<rect x="18.2" y="32.1" class="st26" width="1" height="13.1"/>
			<rect x="18.2" y="32.1" class="st27" width="1" height="1.4"/>
			<path class="st28" d="M18.9,32.8c0,0.2-0.1,0.3-0.3,0.3c-0.2,0-0.3-0.1-0.3-0.3c0-0.2,0.1-0.3,0.3-0.3
				C18.8,32.5,18.9,32.6,18.9,32.8z"/>
		</g>
		<g>
			<rect x="19.3" y="32.1" class="st29" width="1" height="13.1"/>
			<rect x="19.3" y="32.1" class="st22" width="1" height="1.4"/>
			<path class="st27" d="M20.1,32.8c0,0.2-0.1,0.3-0.3,0.3c-0.2,0-0.3-0.1-0.3-0.3c0-0.2,0.1-0.3,0.3-0.3
				C20,32.5,20.1,32.6,20.1,32.8z"/>
		</g>
		<g>
			<rect x="23.8" y="31.5" class="st30" width="2.7" height="13.7"/>
			<rect x="23.8" y="32.9" class="st23" width="2.7" height="3.6"/>
			<rect x="23.8" y="37.2" class="st23" width="2.7" height="0.5"/>
			<rect x="23.8" y="34.4" class="st26" width="2.7" height="0.6"/>
			
				<ellipse transform="matrix(1.481219e-03 -1 1 1.481219e-03 -9.564 59.8803)" class="st26" cx="25.2" cy="34.7" rx="0.7" ry="0.7"/>
			
				<ellipse transform="matrix(1.973027e-03 -1 1 1.973027e-03 -9.5764 59.8632)" class="st31" cx="25.2" cy="34.7" rx="0.5" ry="0.5"/>
		</g>
	</g>
	<g>
		<rect x="115.7" y="58.3" class="st20" width="8" height="1.1"/>
		<polygon class="st32" points="116,58 115.7,58.3 123.7,58.3 122.7,58 		"/>
		<rect x="116.3" y="58.3" class="st32" width="0.5" height="1.1"/>
		<rect x="117.1" y="58.3" class="st32" width="0.2" height="1.1"/>
		
			<linearGradient id="SVGID_11_" gradientUnits="userSpaceOnUse" x1="740.4633" y1="230.9035" x2="741.5975" y2="230.9035" gradientTransform="matrix(0 1 -1 0 350.6219 -682.1997)">
			<stop  offset="0" style="stop-color:#CCCCCC"/>
			<stop  offset="3.067073e-02" style="stop-color:#DADADA"/>
			<stop  offset="8.375368e-02" style="stop-color:#EBEBEB"/>
			<stop  offset="0.1498" style="stop-color:#F6F6F6"/>
			<stop  offset="0.2426" style="stop-color:#FDFDFD"/>
			<stop  offset="0.5" style="stop-color:#FFFFFF"/>
			<stop  offset="0.6619" style="stop-color:#FCFCFC"/>
			<stop  offset="0.7872" style="stop-color:#F2F2F2"/>
			<stop  offset="0.8999" style="stop-color:#E2E2E2"/>
			<stop  offset="1" style="stop-color:#CCCCCC"/>
		</linearGradient>
		<rect x="115.7" y="58.3" class="st33" width="8" height="1.1"/>
	</g>
	<g>
		<path class="st34" d="M116.9,58.2c0.4,0,0.9,0,1.4,0c0.1,0,0.2,0,0.3-0.1c0.5-0.3,0.8-0.9,0.8-1.5c0-0.4-0.1-0.8-0.4-1.1h-2.8
			c-0.2,0.3-0.4,0.7-0.4,1.1c0,0.6,0.3,1.2,0.8,1.5C116.8,58.1,116.8,58.2,116.9,58.2z"/>
		<path class="st35" d="M116.3,55.6c-0.1,0.2-0.2,0.4-0.2,0.6c0,0.6,0.5,1,1.1,1c0.6,0,1.1-0.5,1.1-1c0-0.2-0.1-0.5-0.2-0.6H116.3z"
			/>
		<path class="st36" d="M119,55.6c0,0.1-0.6,0.1-1.4,0.1s-1.4-0.1-1.4-0.1c0-0.1,0.6-0.1,1.4-0.1S119,55.5,119,55.6z"/>
	</g>
</g>
</svg>
