<?xml version="1.0" encoding="UTF-8" standalone="no"?>
<svg
   xmlns:dc="http://purl.org/dc/elements/1.1/"
   xmlns:cc="http://creativecommons.org/ns#"
   xmlns:rdf="http://www.w3.org/1999/02/22-rdf-syntax-ns#"
   xmlns:svg="http://www.w3.org/2000/svg"
   xmlns="http://www.w3.org/2000/svg"
   xmlns:xlink="http://www.w3.org/1999/xlink"
   xmlns:sodipodi="http://sodipodi.sourceforge.net/DTD/sodipodi-0.dtd"
   xmlns:inkscape="http://www.inkscape.org/namespaces/inkscape"
   version="1.1"
   id="Calque_2"
   x="0px"
   y="0px"
   viewBox="0 0 128 128"
   style="enable-background:new 0 0 128 128;"
   xml:space="preserve"
   sodipodi:docname="syn_salon.svg"
   inkscape:export-filename="/home/sebastien/SRC/trunk/Watchdogd/IHM/img/syn_salon.png"
   inkscape:export-xdpi="96"
   inkscape:export-ydpi="96"
   inkscape:version="1.0.2 (e86c870879, 2021-01-15)"><metadata
   id="metadata708"><rdf:RDF><cc:Work
       rdf:about=""><dc:format>image/svg+xml</dc:format><dc:type
         rdf:resource="http://purl.org/dc/dcmitype/StillImage" /></cc:Work></rdf:RDF></metadata><defs
   id="defs706" /><sodipodi:namedview
   pagecolor="#ffffff"
   bordercolor="#666666"
   borderopacity="1"
   objecttolerance="10"
   gridtolerance="10"
   guidetolerance="10"
   inkscape:pageopacity="0"
   inkscape:pageshadow="2"
   inkscape:window-width="1920"
   inkscape:window-height="983"
   id="namedview704"
   showgrid="false"
   inkscape:zoom="4.3862718"
   inkscape:cx="55.853452"
   inkscape:cy="72.280098"
   inkscape:window-x="0"
   inkscape:window-y="0"
   inkscape:window-maximized="1"
   inkscape:current-layer="Calque_2" />
<style
   type="text/css"
   id="style628">
	.st0{fill:none;}
	.st1{fill:#28313B;}
	.st2{fill:#E49B4C;}
	.st3{fill:url(#SVGID_1_);}
	.st4{fill:url(#SVGID_2_);}
	.st5{fill:url(#SVGID_3_);}
	.st6{fill:url(#SVGID_4_);}
	.st7{fill:url(#SVGID_5_);}
	.st8{fill:url(#SVGID_6_);}
	.st9{fill:#736F3E;}
	.st10{fill:#89864D;}
	.st11{fill:#9EA450;}
	.st12{fill:#F7BAAB;}
	.st13{fill:#D2BC57;}
</style>
<pattern
   y="128"
   width="32.2"
   height="34.5"
   patternUnits="userSpaceOnUse"
   id="Nouvelle_nuance_de_motif_21"
   viewBox="0 -34.5 32.2 34.5"
   style="overflow:visible;">
	<g
   id="g634">
		<rect
   y="-34.5"
   class="st0"
   width="32.2"
   height="34.5"
   id="rect630" />
		<rect
   y="-34.5"
   class="st1"
   width="32.2"
   height="34.5"
   id="rect632" />
	</g>
</pattern>
<g
   id="g701">
	<g
   id="g646">
		<ellipse
   class="st2"
   cx="64"
   cy="64"
   rx="64"
   ry="64"
   id="ellipse637" />
		<linearGradient
   id="SVGID_1_"
   gradientUnits="userSpaceOnUse"
   x1="134.2588"
   y1="95.55"
   x2="47.3789"
   y2="60.2551">
			<stop
   offset="0"
   style="stop-color:#A67C52;stop-opacity:0"
   id="stop639" />
			<stop
   offset="0.9996"
   style="stop-color:#A67C52"
   id="stop641" />
		</linearGradient>
		<path
   class="st3"
   d="M99.7,117.1c17-11.5,28.2-31,28.2-53.1c0-3.1,0.2-3.2-0.2-6.2L91.4,42.6l-39.8,1.8L31.4,89L99.7,117.1z"
   id="path644" />
	</g>
	<linearGradient
   id="SVGID_2_"
   gradientUnits="userSpaceOnUse"
   x1="31.3021"
   y1="79.9071"
   x2="127.9128"
   y2="79.9071">
		<stop
   offset="0"
   style="stop-color:#BC823F;stop-opacity:0"
   id="stop648" />
		<stop
   offset="1"
   style="stop-color:#BC823F"
   id="stop650" />
	</linearGradient>
	<path
   class="st4"
   d="M99.6,117.2c17-11.5,28.2-31,28.2-53.1c0-3.1,0.2-3.2-0.2-6.2L91.3,42.6l-39.8,1.8L31.3,89.1L99.6,117.2z"
   id="path653" />
	<g
   id="g699">
		<g
   id="g667">
			
				<pattern
   id="SVGID_3_"
   xlink:href="#Nouvelle_nuance_de_motif_21"
   patternTransform="matrix(0.3861 0 0 0.3863 -5006.5752 -5077.6108)">
			</pattern>
			<polygon
   class="st5"
   points="31.4,85 29,89 31.4,89 36.8,85    "
   id="polygon656" />
			
				<pattern
   id="SVGID_4_"
   xlink:href="#Nouvelle_nuance_de_motif_21"
   patternTransform="matrix(0.3861 0 0 0.3863 -5006.5752 -5077.6108)">
			</pattern>
			<polygon
   class="st6"
   points="28.1,82 31.4,85 64,85 64,82    "
   id="polygon659" />
			
				<pattern
   id="SVGID_5_"
   xlink:href="#Nouvelle_nuance_de_motif_21"
   patternTransform="matrix(0.3861 0 0 0.3863 -5006.5752 -5077.6108)">
			</pattern>
			<polygon
   class="st7"
   points="96.6,85 98.9,89 96.6,89 91.2,85    "
   id="polygon662" />
			
				<pattern
   id="SVGID_6_"
   xlink:href="#Nouvelle_nuance_de_motif_21"
   patternTransform="matrix(0.3861 0 0 0.3863 -5006.5752 -5077.6108)">
			</pattern>
			<polygon
   class="st8"
   points="99.8,82 96.6,85 64,85 64,82    "
   id="polygon665" />
		</g>
		<g
   id="g697">
			<path
   class="st9"
   d="M24.8,71.4v9.1c0,1.6,1.5,2.8,3.4,2.8h71.6c1.9,0,3.4-1.3,3.4-2.8v-9.1H24.8z"
   id="path669" />
			<g
   id="g683">
				<path
   class="st10"
   d="M91.4,42.6c3.7,0,5.5,3.2,5.5,5.2V64H31V47.8c0-2,2.3-5.2,5.5-5.2C38.4,42.6,89.8,42.6,91.4,42.6z"
   id="path671" />
				<path
   class="st11"
   d="M39.4,46.9c-2,0.3-3.6,2-3.6,3.6V64h56.4V50.5c0-1.7-1.7-3.4-3.6-3.6H39.4z"
   id="path673" />
				<g
   id="g681">
					<path
   class="st12"
   d="M96.1,62.8H32c-2.5,1.4-7.3,8.5-7.3,8.5c0,0.7,0.8,1.3,1.7,1.3h75.2c0.9,0,1.7-0.6,1.7-1.3       C103.2,71.3,98.6,64.2,96.1,62.8z"
   id="path675" />
					<path
   class="st13"
   d="M96.1,62.8H32c-2.5,1.4-7.3,8.5-7.3,8.5c0,0.7,0.8,1.3,1.7,1.3h75.2c0.9,0,1.7-0.6,1.7-1.3       C103.2,71.3,98.6,64.2,96.1,62.8z"
   id="path677" />
					<path
   class="st11"
   d="M103.2,71.8c0,1.3-1.3,2.4-2.9,2.4H27.7c-1.6,0-2.9-1.1-2.9-2.4l0,0c0-1.3,1.3-2.4,2.9-2.4h72.6       C101.9,69.3,103.2,70.4,103.2,71.8L103.2,71.8z"
   id="path679" />
				</g>
			</g>
			<g
   id="g689">
				<path
   class="st9"
   d="M108.9,63.4c0,0-7.9-5.6-10.9-6.9c-0.4-0.2-1.5-0.2-1.9,0.2c-1,0.9-2.1,3.2-2.1,6.1c0,0,3.8,1.1,7.5,6.1      c0.4,0.5,0.4,1,0.4,1L108.9,63.4z"
   id="path685" />
				<path
   class="st9"
   d="M98.2,83.4c0,0,9.3,1.4,12.3-15.8c0.2-1.3,0.1-4.1-2.6-4.6c-2.3-0.5-4.2-0.2-5.1,3.3      C102.8,66.3,98.8,81.1,98.2,83.4z"
   id="path687" />
			</g>
			<g
   id="g695">
				<path
   class="st9"
   d="M19,63.4c0,0,7.9-5.6,10.9-6.9c0.4-0.2,1.5-0.2,1.9,0.2c1,0.9,2.1,3.2,2.1,6.1c0,0-3.8,1.1-7.5,6.1      c-0.4,0.5-0.4,1-0.4,1L19,63.4z"
   id="path691" />
				<path
   class="st9"
   d="M29.8,83.4c0,0-9.3,1.4-12.3-15.8c-0.2-1.3-0.1-4.1,2.6-4.6c2.3-0.5,4.2-0.2,5.1,3.3      C25.2,66.3,29.2,81.1,29.8,83.4z"
   id="path693" />
			</g>
		</g>
	</g>
</g>
</svg>
