<?xml version="1.0" encoding="utf-8"?>
<!-- Generator: Adobe Illustrator 22.1.0, SVG Export Plug-In . SVG Version: 6.00 Build 0)  -->
<svg version="1.1" id="Calque_1" xmlns="http://www.w3.org/2000/svg" xmlns:xlink="http://www.w3.org/1999/xlink" x="0px" y="0px"
	 viewBox="0 0 128 128" style="enable-background:new 0 0 128 128;" xml:space="preserve">
<style type="text/css">
	.st0{fill:none;}
	.st1{fill:#455665;}
	.st2{fill:url(#SVGID_1_);}
	.st3{fill:url(#SVGID_2_);}
	.st4{fill:#99938E;}
	.st5{fill:#707070;}
	.st6{fill:#292929;}
	.st7{fill:#E6E6E6;}
	.st8{fill:#C7C7C7;}
	.st9{fill:#CCCCCC;}
	.st10{fill:#FFFFFF;}
	.st11{fill:#BEF2F2;}
	.st12{fill:#84A1A7;}
	.st13{fill:#294650;}
	.st14{fill:#CCDBE4;}
	.st15{filter:url(#Adobe_OpacityMaskFilter);}
	.st16{filter:url(#Adobe_OpacityMaskFilter_1_);}
	.st17{mask:url(#SVGID_3_);fill:url(#SVGID_4_);}
	.st18{fill:url(#SVGID_5_);}
	.st19{fill:#758E93;}
	.st20{fill:#F7931E;}
	.st21{opacity:0.5;fill:#4D4D4D;}
	.st22{fill:#C7C8C8;}
	.st23{fill:#979898;}
	.st24{fill:#DADADA;}
	.st25{fill:#BDBCBC;}
	.st26{filter:url(#Adobe_OpacityMaskFilter_2_);}
	.st27{filter:url(#Adobe_OpacityMaskFilter_3_);}
	.st28{mask:url(#SVGID_6_);fill:url(#SVGID_7_);}
	.st29{fill:#FBB03B;}
	.st30{fill:#4D4D4D;}
	.st31{filter:url(#Adobe_OpacityMaskFilter_4_);}
	.st32{filter:url(#Adobe_OpacityMaskFilter_5_);}
	.st33{mask:url(#SVGID_8_);fill:url(#SVGID_9_);}
	.st34{fill:#666666;}
	.st35{fill:url(#SVGID_10_);}
	.st36{fill:#29ABE2;}
	.st37{fill:#767777;}
	.st38{filter:url(#Adobe_OpacityMaskFilter_6_);}
	.st39{filter:url(#Adobe_OpacityMaskFilter_7_);}
	.st40{mask:url(#SVGID_11_);fill:url(#SVGID_12_);}
	.st41{fill:#65C8D0;}
	.st42{fill:#9C9C9C;}
	.st43{fill:#333333;}
	.st44{fill:#808080;}
</style>
<pattern  y="128" width="32.2" height="34.5" patternUnits="userSpaceOnUse" id="Nouvelle_nuance_de_motif_20" viewBox="0 -34.5 32.2 34.5" style="overflow:visible;">
	<g>
		<rect y="-34.5" class="st0" width="32.2" height="34.5"/>
		<rect y="-34.5" class="st1" width="32.2" height="34.5"/>
	</g>
</pattern>
<g>
	<g>
		
			<pattern  id="SVGID_1_" xlink:href="#Nouvelle_nuance_de_motif_20" patternTransform="matrix(1.3276 0 0 1.3281 2585.2732 2625.8582)">
		</pattern>
		<ellipse class="st2" cx="64" cy="64" rx="64" ry="64"/>
		<linearGradient id="SVGID_2_" gradientUnits="userSpaceOnUse" x1="134.2425" y1="95.59" x2="47.3627" y2="60.2951">
			<stop  offset="0" style="stop-color:#1C1B19;stop-opacity:0"/>
			<stop  offset="1" style="stop-color:#33322D"/>
		</linearGradient>
		<path class="st3" d="M99.7,117.1c17-11.5,28.2-31,28.2-53.1c0-3.1,0.2-3.2-0.2-6.2L98.1,45.4l1.5,36.7L31.4,89L99.7,117.1z"/>
	</g>
	<g>
		<g>
			<path class="st4" d="M99.6,80.8h-1.5V34.3c0-1.3-1.1-2.4-2.4-2.4h-9.3c-1.3,0-2.4,1.1-2.4,2.4V37h-1.5v-2.7c0-2.2,1.8-4,4-4h9.3
				c2.2,0,4,1.8,4,4V80.8z"/>
			<polygon class="st5" points="87.1,40 79.1,40 82.3,37 83.9,37 			"/>
			<rect x="77.8" y="40" class="st6" width="10.6" height="0.7"/>
		</g>
		<g>
			<g>
				<path class="st7" d="M103.8,69.9c-10.2-0.7-25.3,1.8-40,3.5c-14.7-1.6-29.8-4.2-40-3.5c-0.1,1,0,6.7,0,6.7
					c0,10.4,8.4,18.8,18.8,18.8h21.1h0.2H85c10.4,0,18.8-8.4,18.8-18.8C103.8,76.6,103.9,70.9,103.8,69.9z"/>
				<g>
					<path class="st8" d="M23.8,73C23.8,73,23.8,73,23.8,73C23.8,73.4,23.8,73.3,23.8,73z"/>
					<path class="st8" d="M103.8,73C103.8,73,103.8,73,103.8,73C103.8,73.3,103.8,73.4,103.8,73z"/>
					<path class="st8" d="M103.8,69.9c-10.2-0.7-25.1,3.4-39.9,3.5c-14.7-1.6-29.8-4.2-40-3.5c0,0.2,0,2.3,0,3
						c12.6-0.2,26.6,4.1,39.9,4.1v0c0,0,0.1,0,0.1,0c0,0,0.1,0,0.1,0v0c13.3,0,27.3-4.3,39.9-4.1C103.8,72.2,103.8,70.2,103.8,69.9z
						"/>
				</g>
				<g>
					<path class="st9" d="M25.1,77.7c0-0.1,0-0.1,0-0.2C25.1,77.5,25.1,77.5,25.1,77.7z"/>
					<path class="st9" d="M63.8,93.5c-36.1-0.1-38.5-14-38.6-15.8c0.1,9.5,9.9,17.2,19.3,17.2h19.3h0.2h19.3
						c9.4,0,19.2-7.7,19.3-17.2C102.3,79.4,99.9,93.4,63.8,93.5z"/>
					<path class="st9" d="M102.4,77.7c0-0.1,0-0.2,0-0.2C102.4,77.5,102.4,77.6,102.4,77.7z"/>
				</g>
				<path class="st7" d="M102.9,71.8c0.8-0.2,1.8-0.8,1.8-1.8v0c0-1-0.8-2-1.8-1.8c-8.1-0.3-21.9,4-39.1,4c-17.1,0-31.2-4.3-39.2-4
					c-1-0.2-1.8,0.8-1.8,1.8v0c0,1,1,1.6,1.8,1.8c14,0.3,29.8,4,39.2,4C73.3,75.7,89,72,102.9,71.8z"/>
				<path class="st10" d="M103.2,68.8"/>
			</g>
		</g>
	</g>
	<g>
		<g>
			<path class="st11" d="M80.1,44.9c0-0.3-0.6-1.4-0.6-1.4s0,0.1-0.1,0.2c-0.2,0.3-0.5,0.9-0.5,1.2c0,0.3,0.2,0.6,0.5,0.6
				c0,0,0.1,0,0.1,0C79.8,45.5,80.1,45.2,80.1,44.9z"/>
			<path class="st11" d="M82.3,44.9c0-0.3-0.6-1.4-0.6-1.4s-0.6,1-0.6,1.4c0,0.3,0.3,0.6,0.6,0.6C82.1,45.5,82.3,45.2,82.3,44.9z"/>
			<path class="st11" d="M84,45.5c0.3,0,0.6-0.3,0.6-0.6c0-0.3-0.6-1.4-0.6-1.4s-0.6,1-0.6,1.4C83.4,45.2,83.6,45.5,84,45.5z"/>
			<path class="st11" d="M86.2,45.5c0.3,0,0.6-0.3,0.6-0.6c0-0.3-0.6-1.4-0.6-1.4s-0.6,1-0.6,1.4C85.6,45.2,85.9,45.5,86.2,45.5z"/>
			<path class="st11" d="M79.1,47.2c0-0.3-0.4-1.1-0.6-1.3c0,0,0-0.1,0-0.1s-0.6,1-0.6,1.4c0,0.3,0.2,0.5,0.5,0.6c0,0,0.1,0,0.1,0
				C78.8,47.8,79.1,47.5,79.1,47.2z"/>
			<path class="st11" d="M80.3,47.6c0.1,0.1,0.1,0.1,0.2,0.1c0.1,0,0.1,0,0.2,0c0.3,0,0.6-0.3,0.6-0.6c0-0.3-0.6-1.4-0.6-1.4
				s-0.2,0.3-0.4,0.7c-0.1,0.3-0.2,0.5-0.2,0.7C80.1,47.4,80.2,47.5,80.3,47.6C80.3,47.6,80.3,47.6,80.3,47.6z"/>
			<path class="st11" d="M82.4,47.2c0,0.3,0.3,0.6,0.6,0.6c0.3,0,0.6-0.3,0.6-0.6c0-0.3-0.6-1.4-0.6-1.4S82.4,46.9,82.4,47.2z"/>
			<path class="st11" d="M84.6,47.2c0,0.3,0.3,0.6,0.6,0.6c0.3,0,0.6-0.3,0.6-0.6c0-0.3-0.6-1.4-0.6-1.4S84.6,46.9,84.6,47.2z"/>
			<path class="st11" d="M86.9,47.2c0,0.3,0.3,0.6,0.6,0.6s0.6-0.3,0.6-0.6c0-0.3-0.6-1.4-0.6-1.4S86.9,46.9,86.9,47.2z"/>
			<path class="st11" d="M78.1,49.5c0-0.3-0.6-1.4-0.6-1.4s-0.6,1-0.6,1.4c0,0.3,0.2,0.5,0.4,0.6c0.1,0,0.1,0,0.2,0
				C77.9,50.1,78.1,49.8,78.1,49.5z"/>
			<path class="st11" d="M80.4,49.5c0-0.3-0.6-1.4-0.6-1.4s-0.2,0.3-0.4,0.7c-0.1,0.3-0.2,0.5-0.2,0.7c0,0.3,0.2,0.5,0.4,0.6
				c0.1,0,0.1,0,0.2,0C80.1,50.1,80.4,49.8,80.4,49.5z"/>
			<path class="st11" d="M81.4,49.5c0,0.3,0.3,0.6,0.6,0.6c0.3,0,0.6-0.3,0.6-0.6c0-0.3-0.6-1.4-0.6-1.4S81.4,49.1,81.4,49.5z"/>
			<path class="st11" d="M83.7,49.5c0,0.3,0.3,0.6,0.6,0.6c0.3,0,0.6-0.3,0.6-0.6c0-0.3-0.6-1.4-0.6-1.4S83.7,49.1,83.7,49.5z"/>
			<path class="st11" d="M85.9,49.5c0,0.3,0.3,0.6,0.6,0.6c0.3,0,0.6-0.3,0.6-0.6c0-0.3-0.6-1.4-0.6-1.4S85.9,49.1,85.9,49.5z"/>
			<path class="st11" d="M88.2,49.5c0,0.3,0.3,0.6,0.6,0.6c0.3,0,0.6-0.3,0.6-0.6c0-0.3-0.6-1.4-0.6-1.4S88.2,49.1,88.2,49.5z"/>
		</g>
		<g>
			<path class="st11" d="M86.2,43.5c0,0,0.6,1,0.6,1.4c0,0.3-0.3,0.6-0.6,0.6c-0.3,0-0.6-0.3-0.6-0.6C85.6,44.6,86.2,43.5,86.2,43.5
				z M84,43.5c0,0,0.6,1,0.6,1.4c0,0.3-0.3,0.6-0.6,0.6c-0.3,0-0.6-0.3-0.6-0.6C83.4,44.6,84,43.5,84,43.5z M81.1,44.9
				c0-0.3,0.6-1.4,0.6-1.4s0.6,1,0.6,1.4c0,0.3-0.3,0.6-0.6,0.6C81.4,45.5,81.1,45.2,81.1,44.9z M82,50.1c-0.3,0-0.6-0.3-0.6-0.6
				c0-0.3,0.6-1.4,0.6-1.4s0.6,1,0.6,1.4C82.6,49.8,82.4,50.1,82,50.1z M83,47.8c-0.3,0-0.6-0.3-0.6-0.6c0-0.3,0.6-1.4,0.6-1.4
				s0.6,1,0.6,1.4C83.6,47.5,83.3,47.8,83,47.8z M84.3,50.1c-0.3,0-0.6-0.3-0.6-0.6c0-0.3,0.6-1.4,0.6-1.4s0.6,1,0.6,1.4
				C84.9,49.8,84.6,50.1,84.3,50.1z M85.2,47.8c-0.3,0-0.6-0.3-0.6-0.6c0-0.3,0.6-1.4,0.6-1.4s0.6,1,0.6,1.4
				C85.9,47.5,85.6,47.8,85.2,47.8z M86.5,50.1c-0.3,0-0.6-0.3-0.6-0.6c0-0.3,0.6-1.4,0.6-1.4s0.6,1,0.6,1.4
				C87.1,49.8,86.9,50.1,86.5,50.1z M87.5,47.8c-0.3,0-0.6-0.3-0.6-0.6c0-0.3,0.6-1.4,0.6-1.4s0.6,1,0.6,1.4
				C88.1,47.5,87.8,47.8,87.5,47.8z M88.8,50.1c-0.3,0-0.6-0.3-0.6-0.6c0-0.3,0.6-1.4,0.6-1.4s0.6,1,0.6,1.4
				C89.4,49.8,89.1,50.1,88.8,50.1z"/>
		</g>
	</g>
	<g>
		<path class="st12" d="M45.3,60.5c10.5,0,18.9-7.2,18.9-16c0-8.8-8.5-16-18.9-16c-10.5,0-18.9,7.2-18.9,16
			C26.4,53.4,34.8,60.5,45.3,60.5z"/>
		<ellipse class="st13" cx="45.5" cy="44.5" rx="16.7" ry="14.1"/>
		<path class="st14" d="M45.5,58.2c8.9,0,16.1-6.1,16.1-13.7c0-7.5-7.2-13.7-16.1-13.7c-8.9,0-16.1,6.1-16.1,13.7
			C29.4,52.1,36.6,58.2,45.5,58.2z"/>
		<defs>
			<filter id="Adobe_OpacityMaskFilter" filterUnits="userSpaceOnUse" x="30.8" y="31.5" width="23.6" height="21.7">
				<feFlood  style="flood-color:white;flood-opacity:1" result="back"/>
				<feBlend  in="SourceGraphic" in2="back" mode="normal"/>
			</filter>
		</defs>
		<mask maskUnits="userSpaceOnUse" x="30.8" y="31.5" width="23.6" height="21.7" id="SVGID_3_">
			<g class="st15">
				<defs>
					<filter id="Adobe_OpacityMaskFilter_1_" filterUnits="userSpaceOnUse" x="30.8" y="31.5" width="23.6" height="21.7">
						<feFlood  style="flood-color:white;flood-opacity:1" result="back"/>
						<feBlend  in="SourceGraphic" in2="back" mode="normal"/>
					</filter>
				</defs>
				<mask maskUnits="userSpaceOnUse" x="30.8" y="31.5" width="23.6" height="21.7" id="SVGID_3_">
					<g class="st16">
					</g>
				</mask>
				
					<linearGradient id="SVGID_4_" gradientUnits="userSpaceOnUse" x1="-77.9158" y1="146.6982" x2="-68.7706" y2="157.2723" gradientTransform="matrix(0 1 1 0 -112.3923 112.3923)">
					<stop  offset="2.215490e-03" style="stop-color:#FFFFFF"/>
					<stop  offset="0.1645" style="stop-color:#FCFCFC"/>
					<stop  offset="0.2947" style="stop-color:#F2F2F2"/>
					<stop  offset="0.4138" style="stop-color:#E1E1E1"/>
					<stop  offset="0.5262" style="stop-color:#C9C9C9"/>
					<stop  offset="0.6342" style="stop-color:#AAAAAA"/>
					<stop  offset="0.7385" style="stop-color:#848484"/>
					<stop  offset="0.8402" style="stop-color:#585858"/>
					<stop  offset="0.9371" style="stop-color:#252525"/>
					<stop  offset="1" style="stop-color:#000000"/>
				</linearGradient>
				<path class="st17" d="M34.9,53.2c-2.5-2.3-4.1-5.4-4.1-8.8c0-7.1,6.8-12.9,15.2-12.9c3.1,0,6,0.8,8.4,2.1
					C47.9,40.2,41.4,46.7,34.9,53.2z"/>
			</g>
		</mask>
		
			<linearGradient id="SVGID_5_" gradientUnits="userSpaceOnUse" x1="-77.9158" y1="146.6982" x2="-68.7706" y2="157.2723" gradientTransform="matrix(0 1 1 0 -112.3923 112.3923)">
			<stop  offset="2.215490e-03" style="stop-color:#FFFFFF"/>
			<stop  offset="0.9102" style="stop-color:#FFFFFF"/>
			<stop  offset="1" style="stop-color:#FFFFFF"/>
		</linearGradient>
		<path class="st18" d="M34.9,53.2c-2.5-2.3-4.1-5.4-4.1-8.8c0-7.1,6.8-12.9,15.2-12.9c3.1,0,6,0.8,8.4,2.1
			C47.9,40.2,41.4,46.7,34.9,53.2z"/>
		<path class="st10" d="M26.8,44.2c0,0,0.1-0.6,0.4-1.6c0.1-0.3,0.2-0.5,0.3-0.8c0.1-0.3,0.2-0.6,0.4-1c0.1-0.3,0.3-0.7,0.5-1.1
			c0.2-0.4,0.4-0.7,0.6-1.1c0.3-0.4,0.5-0.8,0.8-1.2c0.3-0.4,0.6-0.8,0.9-1.2c0.2-0.2,0.3-0.4,0.5-0.6c0.2-0.2,0.4-0.4,0.6-0.6
			c0.2-0.2,0.4-0.4,0.6-0.6c0.2-0.2,0.4-0.4,0.6-0.6c0.9-0.7,1.8-1.4,2.9-2l0.2-0.1c0,0,0.1,0,0.1-0.1l0.1-0.1l0.4-0.2
			c0.3-0.1,0.5-0.3,0.8-0.4c0.1-0.1,0.3-0.1,0.4-0.2l0.4-0.2l0.8-0.3l0.9-0.3c0.3-0.1,0.6-0.2,0.9-0.2c0.3-0.1,0.6-0.1,0.9-0.2
			l0.4-0.1c0.1,0,0.3,0,0.4-0.1c0.6-0.1,1.2-0.2,1.8-0.2c0.3,0,0.6,0,0.9,0c0.3,0,0.6,0,0.9,0c0.3,0,0.6,0,0.8,0
			c0.3,0,0.6,0.1,0.8,0.1c0.1,0,0.3,0,0.4,0c0.1,0,0.3,0,0.4,0.1c0.3,0,0.5,0.1,0.8,0.1c0.5,0.1,1,0.2,1.5,0.3
			c0.5,0.1,0.9,0.3,1.4,0.4c0.4,0.2,0.8,0.3,1.2,0.5c0.4,0.2,0.7,0.3,1.1,0.5c0.7,0.3,1.2,0.7,1.7,1c0.2,0.2,0.4,0.3,0.6,0.4
			c0.2,0.1,0.3,0.2,0.4,0.3c0.2,0.2,0.3,0.3,0.3,0.3s-0.1-0.1-0.3-0.3c-0.1-0.1-0.2-0.2-0.4-0.4c-0.2-0.1-0.4-0.3-0.6-0.4
			c-0.4-0.3-1-0.7-1.6-1.1c-0.3-0.2-0.7-0.4-1.1-0.6c-0.4-0.2-0.8-0.4-1.2-0.5c-0.4-0.2-0.9-0.3-1.4-0.5c-0.2-0.1-0.5-0.1-0.7-0.2
			c-0.2-0.1-0.5-0.1-0.8-0.2c-0.3-0.1-0.5-0.1-0.8-0.2c-0.1,0-0.3-0.1-0.4-0.1c-0.1,0-0.3,0-0.4-0.1c-0.6-0.1-1.1-0.2-1.7-0.2
			c-0.3,0-0.6,0-0.9,0c-0.3,0-0.6,0-0.9,0c-0.6,0-1.2,0.1-1.8,0.1c-0.2,0-0.3,0-0.5,0.1l-0.5,0.1c-0.3,0.1-0.6,0.1-0.9,0.2
			c-0.3,0.1-0.6,0.2-0.9,0.2c-0.3,0.1-0.6,0.2-0.9,0.3l-0.9,0.3l-0.4,0.2c-0.1,0.1-0.3,0.1-0.4,0.2c-0.3,0.1-0.5,0.3-0.8,0.4
			L36,31.1l-0.1,0.1c-0.1,0-0.1,0-0.1,0.1l-0.2,0.1c-1.1,0.6-2,1.3-2.9,2.1c-0.2,0.2-0.4,0.4-0.6,0.6c-0.2,0.2-0.4,0.4-0.6,0.6
			c-0.2,0.2-0.4,0.4-0.6,0.6c-0.2,0.2-0.3,0.4-0.5,0.6c-0.2,0.2-0.3,0.4-0.5,0.6c-0.1,0.2-0.3,0.4-0.4,0.6c-0.3,0.4-0.5,0.8-0.7,1.2
			c-0.2,0.4-0.4,0.8-0.6,1.2c-0.2,0.4-0.3,0.7-0.5,1.1c-0.1,0.4-0.3,0.7-0.3,1c-0.1,0.3-0.2,0.6-0.3,0.9c-0.1,0.5-0.2,0.9-0.3,1.2
			C26.8,44,26.8,44.2,26.8,44.2z"/>
		<path class="st19" d="M64,44.8c0,0-0.1,0.6-0.4,1.6c-0.1,0.3-0.2,0.5-0.3,0.8c-0.1,0.3-0.2,0.6-0.4,1c-0.1,0.3-0.3,0.7-0.5,1.1
			c-0.2,0.4-0.4,0.7-0.6,1.1c-0.3,0.4-0.5,0.8-0.8,1.2c-0.3,0.4-0.6,0.8-0.9,1.2c-0.2,0.2-0.3,0.4-0.5,0.6c-0.2,0.2-0.4,0.4-0.6,0.6
			c-0.2,0.2-0.4,0.4-0.6,0.6c-0.2,0.2-0.4,0.4-0.6,0.6c-0.9,0.7-1.8,1.4-2.9,2l-0.2,0.1c0,0-0.1,0-0.1,0.1l-0.1,0l-0.4,0.2
			c-0.3,0.1-0.5,0.3-0.8,0.4c-0.1,0.1-0.3,0.1-0.4,0.2l-0.4,0.2l-0.8,0.3l-0.9,0.3c-0.3,0.1-0.6,0.2-0.9,0.2
			c-0.3,0.1-0.6,0.1-0.9,0.2l-0.4,0.1c-0.1,0-0.3,0-0.4,0.1c-0.6,0.1-1.2,0.2-1.8,0.2c-0.3,0-0.6,0-0.9,0c-0.3,0-0.6,0-0.9,0
			c-0.3,0-0.6,0-0.8,0c-0.3,0-0.6-0.1-0.8-0.1c-0.1,0-0.3,0-0.4,0c-0.1,0-0.3,0-0.4-0.1c-0.3,0-0.5-0.1-0.8-0.1
			c-0.5-0.1-1-0.2-1.5-0.3c-0.5-0.1-0.9-0.3-1.4-0.4c-0.4-0.2-0.8-0.3-1.2-0.5c-0.4-0.2-0.7-0.3-1.1-0.5c-0.7-0.3-1.2-0.7-1.7-1
			c-0.2-0.2-0.4-0.3-0.6-0.4c-0.2-0.1-0.3-0.2-0.4-0.3c-0.2-0.2-0.3-0.3-0.3-0.3s0.1,0.1,0.3,0.3c0.1,0.1,0.2,0.2,0.4,0.4
			c0.2,0.1,0.4,0.3,0.6,0.4c0.4,0.3,1,0.7,1.6,1.1c0.3,0.2,0.7,0.4,1.1,0.6c0.4,0.2,0.8,0.4,1.2,0.5c0.4,0.2,0.9,0.3,1.4,0.5
			c0.2,0.1,0.5,0.1,0.7,0.2c0.2,0.1,0.5,0.1,0.8,0.2c0.3,0.1,0.5,0.1,0.8,0.2c0.1,0,0.3,0.1,0.4,0.1c0.1,0,0.3,0,0.4,0.1
			c0.6,0.1,1.1,0.2,1.7,0.2c0.3,0,0.6,0,0.9,0c0.3,0,0.6,0,0.9,0c0.6,0,1.2-0.1,1.8-0.1c0.2,0,0.3,0,0.5-0.1l0.5-0.1
			c0.3-0.1,0.6-0.1,0.9-0.2c0.3-0.1,0.6-0.2,0.9-0.2c0.3-0.1,0.6-0.2,0.9-0.3l0.9-0.3l0.4-0.2c0.1-0.1,0.3-0.1,0.4-0.2
			c0.3-0.1,0.5-0.3,0.8-0.4l0.4-0.2l0.1-0.1c0.1,0,0.1,0,0.1-0.1l0.2-0.1c1.1-0.6,2-1.3,2.9-2.1c0.2-0.2,0.4-0.4,0.6-0.6
			c0.2-0.2,0.4-0.4,0.6-0.6c0.2-0.2,0.4-0.4,0.6-0.6c0.2-0.2,0.3-0.4,0.5-0.6c0.2-0.2,0.3-0.4,0.5-0.6c0.1-0.2,0.3-0.4,0.4-0.6
			c0.3-0.4,0.5-0.8,0.7-1.2c0.2-0.4,0.4-0.8,0.6-1.2c0.2-0.4,0.3-0.8,0.5-1.1c0.1-0.4,0.3-0.7,0.3-1c0.1-0.3,0.2-0.6,0.3-0.9
			c0.1-0.5,0.2-0.9,0.3-1.2C64,45,64,44.8,64,44.8z"/>
	</g>
	<g>
		<g>
			<g>
				<path class="st20" d="M43.5,53.5v-3.8c0-1.3-1.1-2.4-2.4-2.4c-1.3,0-2.4,1.1-2.4,2.4v3.8c0.1,0.1,0.1,0.2,0.3,0.2h4.2
					C43.3,53.7,43.4,53.6,43.5,53.5z"/>
				<path class="st21" d="M41.1,47.4c-0.2,0-0.4,0-0.6,0.1c0.3,0,0.6,0,0.8,0.1c0.5,0.2,0.7,0.7,0.7,1.3c0,0.8,0,1.7,0,2.5
					c0,0.8,0,1.6,0,2.4h1.2c0.1-0.1,0.2-0.1,0.2-0.2v-3.8C43.5,48.5,42.4,47.4,41.1,47.4z"/>
				<g>
					<path class="st22" d="M41.3,47.2v-1.3h-1.8c0,0-1,0-1,0.8h0.4c0,0,0-0.5,0.6-0.5c0.5,0,1.5,0,1.5,0v1H41.3z"/>
					<rect x="40.9" y="45.7" class="st22" width="0.5" height="1.6"/>
					<rect x="40.9" y="45.7" class="st23" width="0.5" height="0.9"/>
					<rect x="40.9" y="46.9" class="st23" width="0.5" height="0.3"/>
				</g>
				<rect x="40.2" y="45.6" class="st24" width="1.7" height="0.8"/>
				<rect x="40.3" y="46.9" class="st24" width="1.5" height="0.5"/>
				<rect x="40.2" y="45.6" class="st24" width="1.7" height="0.8"/>
				<rect x="40.3" y="46.9" class="st24" width="1.5" height="0.5"/>
				<rect x="41.1" y="45.6" class="st25" width="0.8" height="0.8"/>
				<rect x="41.1" y="46.9" class="st25" width="0.7" height="0.5"/>
				<defs>
					<filter id="Adobe_OpacityMaskFilter_2_" filterUnits="userSpaceOnUse" x="38.9" y="47.6" width="2.2" height="4.9">
						<feFlood  style="flood-color:white;flood-opacity:1" result="back"/>
						<feBlend  in="SourceGraphic" in2="back" mode="normal"/>
					</filter>
				</defs>
				<mask maskUnits="userSpaceOnUse" x="38.9" y="47.6" width="2.2" height="4.9" id="SVGID_6_">
					<g class="st26">
						<defs>
							<filter id="Adobe_OpacityMaskFilter_3_" filterUnits="userSpaceOnUse" x="38.9" y="47.6" width="2.2" height="4.9">
								<feFlood  style="flood-color:white;flood-opacity:1" result="back"/>
								<feBlend  in="SourceGraphic" in2="back" mode="normal"/>
							</filter>
						</defs>
						<mask maskUnits="userSpaceOnUse" x="38.9" y="47.6" width="2.2" height="4.9" id="SVGID_6_">
							<g class="st27">
							</g>
						</mask>
						
							<radialGradient id="SVGID_7_" cx="27.6829" cy="36.7561" r="3.7379" gradientTransform="matrix(1.3276 0 0 1.3281 0 0)" gradientUnits="userSpaceOnUse">
							<stop  offset="2.215490e-03" style="stop-color:#FFFFFF"/>
							<stop  offset="0.1645" style="stop-color:#FCFCFC"/>
							<stop  offset="0.2947" style="stop-color:#F2F2F2"/>
							<stop  offset="0.4138" style="stop-color:#E1E1E1"/>
							<stop  offset="0.5262" style="stop-color:#C9C9C9"/>
							<stop  offset="0.6342" style="stop-color:#AAAAAA"/>
							<stop  offset="0.7385" style="stop-color:#848484"/>
							<stop  offset="0.8402" style="stop-color:#585858"/>
							<stop  offset="0.9371" style="stop-color:#252525"/>
							<stop  offset="1" style="stop-color:#000000"/>
						</radialGradient>
						<path class="st28" d="M39.5,49.5c0.3-0.7,0.8-1.6,1.6-1.8c-0.2,0-0.4,0-0.7,0.1c0,0-1.4,0.5-1.5,2v2.9
							C39,51.5,39.1,50.4,39.5,49.5z"/>
					</g>
				</mask>
				<path class="st29" d="M39.5,49.5c0.3-0.7,0.8-1.6,1.6-1.8c-0.2,0-0.4,0-0.7,0.1c0,0-1.4,0.5-1.5,2v2.9
					C39,51.5,39.1,50.4,39.5,49.5z"/>
			</g>
			<g>
				<path class="st30" d="M48.1,53.6v-3c0-1.1-0.9-1.9-1.9-1.9c-1.1,0-1.9,0.9-1.9,1.9v3.1c0,0.1,0.1,0.1,0.2,0.2H48
					C48,53.7,48.1,53.6,48.1,53.6z"/>
				<path class="st21" d="M46.2,48.6c-0.4,0-0.8,0.1-1.2,0.4c0.6-0.3,1.5-0.3,1.7,0.4c0.1,0.3,0.1,0.7,0.1,1c0,0.4,0,2.6,0,3.3h1
					c0.1,0,0.2-0.1,0.2-0.2v-3C48.1,49.5,47.3,48.6,46.2,48.6z"/>
				<g>
					<path class="st22" d="M46.2,48.4v-1h1.1c0,0,0.6,0,0.6,0.6h-0.2c0,0,0-0.4-0.4-0.4c-0.3,0-0.9,0-0.9,0v0.8H46.2z"/>
					<rect x="46.1" y="47.2" class="st22" width="0.4" height="1.3"/>
					<rect x="46.1" y="47.2" class="st23" width="0.4" height="0.7"/>
					<rect x="46.1" y="48.2" class="st23" width="0.4" height="0.3"/>
				</g>
				<rect x="45.5" y="47.2" class="st24" width="1.3" height="0.7"/>
				<rect x="45.6" y="48.2" class="st24" width="1.2" height="0.4"/>
				<rect x="45.5" y="47.2" class="st24" width="1.3" height="0.7"/>
				<rect x="45.6" y="48.2" class="st24" width="1.2" height="0.4"/>
				<rect x="46.3" y="47.2" class="st25" width="0.6" height="0.7"/>
				<rect x="46.3" y="48.2" class="st25" width="0.5" height="0.4"/>
				<defs>
					<filter id="Adobe_OpacityMaskFilter_4_" filterUnits="userSpaceOnUse" x="44.5" y="48.8" width="1.6" height="3.8">
						<feFlood  style="flood-color:white;flood-opacity:1" result="back"/>
						<feBlend  in="SourceGraphic" in2="back" mode="normal"/>
					</filter>
				</defs>
				<mask maskUnits="userSpaceOnUse" x="44.5" y="48.8" width="1.6" height="3.8" id="SVGID_8_">
					<g class="st31">
						<defs>
							<filter id="Adobe_OpacityMaskFilter_5_" filterUnits="userSpaceOnUse" x="44.5" y="48.8" width="1.6" height="3.8">
								<feFlood  style="flood-color:white;flood-opacity:1" result="back"/>
								<feBlend  in="SourceGraphic" in2="back" mode="normal"/>
							</filter>
						</defs>
						<mask maskUnits="userSpaceOnUse" x="44.5" y="48.8" width="1.6" height="3.8" id="SVGID_8_">
							<g class="st32">
							</g>
						</mask>
						
							<radialGradient id="SVGID_9_" cx="32.1851" cy="37.4677" r="3.0206" gradientTransform="matrix(1.3276 0 0 1.3281 0 0)" gradientUnits="userSpaceOnUse">
							<stop  offset="2.215490e-03" style="stop-color:#FFFFFF"/>
							<stop  offset="0.1645" style="stop-color:#FCFCFC"/>
							<stop  offset="0.2947" style="stop-color:#F2F2F2"/>
							<stop  offset="0.4138" style="stop-color:#E1E1E1"/>
							<stop  offset="0.5262" style="stop-color:#C9C9C9"/>
							<stop  offset="0.6342" style="stop-color:#AAAAAA"/>
							<stop  offset="0.7385" style="stop-color:#848484"/>
							<stop  offset="0.8402" style="stop-color:#585858"/>
							<stop  offset="0.9371" style="stop-color:#252525"/>
							<stop  offset="1" style="stop-color:#000000"/>
						</radialGradient>
						<path class="st33" d="M44.8,50.8c0.1-0.5,0.3-1,0.6-1.4c0.2-0.2,0.4-0.4,0.7-0.6c-0.1,0-0.3,0-0.4,0.1c0,0-1.1,0.4-1.2,1.6
							v2.2C44.5,52,44.6,51.4,44.8,50.8z"/>
					</g>
				</mask>
				<path class="st34" d="M44.8,50.8c0.1-0.5,0.3-1,0.6-1.4c0.2-0.2,0.4-0.4,0.7-0.6c-0.1,0-0.3,0-0.4,0.1c0,0-1.1,0.4-1.2,1.6v2.2
					C44.5,52,44.6,51.4,44.8,50.8z"/>
			</g>
			<g>
				<g>
					<linearGradient id="SVGID_10_" gradientUnits="userSpaceOnUse" x1="50.7108" y1="48.7483" x2="50.7108" y2="47.6618">
						<stop  offset="0" style="stop-color:#00C8FF"/>
						<stop  offset="1" style="stop-color:#0065B1"/>
					</linearGradient>
					<rect x="50" y="47.2" class="st35" width="1.3" height="0.7"/>
					<path class="st36" d="M52.6,53.5v-3.6c0-1.3-0.9-2.3-1.9-2.3c-1.1,0-1.9,1-1.9,2.3v3.7c0,0.1,0.1,0.2,0.2,0.2h3.4
						C52.5,53.7,52.6,53.6,52.6,53.5z"/>
					<path class="st21" d="M50.7,47.6c-0.3,0-0.6,0.1-0.9,0.3c0,0,0,0,0,0c0.3-0.1,0.6-0.1,0.9,0c0.3,0.1,0.5,0.3,0.7,0.6
						c0.1,0.3,0.1,4.3,0.1,4.6c0,0.2,0,0.4,0,0.6h0.9c0.1-0.1,0.2-0.1,0.2-0.2v-3.6C52.6,48.6,51.8,47.6,50.7,47.6z"/>
					<g>
						<rect x="49.9" y="46.9" class="st24" width="1.5" height="0.6"/>
						<rect x="50.8" y="46.9" class="st25" width="0.7" height="0.6"/>
						<rect x="49.9" y="47.1" class="st37" width="1.5" height="0"/>
					</g>
				</g>
				<defs>
					<filter id="Adobe_OpacityMaskFilter_6_" filterUnits="userSpaceOnUse" x="48.9" y="47.8" width="1.9" height="2.8">
						<feFlood  style="flood-color:white;flood-opacity:1" result="back"/>
						<feBlend  in="SourceGraphic" in2="back" mode="normal"/>
					</filter>
				</defs>
				<mask maskUnits="userSpaceOnUse" x="48.9" y="47.8" width="1.9" height="2.8" id="SVGID_11_">
					<g class="st38">
						<defs>
							<filter id="Adobe_OpacityMaskFilter_7_" filterUnits="userSpaceOnUse" x="48.9" y="47.8" width="1.9" height="2.8">
								<feFlood  style="flood-color:white;flood-opacity:1" result="back"/>
								<feBlend  in="SourceGraphic" in2="back" mode="normal"/>
							</filter>
						</defs>
						<mask maskUnits="userSpaceOnUse" x="48.9" y="47.8" width="1.9" height="2.8" id="SVGID_11_">
							<g class="st39">
							</g>
						</mask>
						
							<radialGradient id="SVGID_12_" cx="35.5615" cy="36.715" r="3.0202" gradientTransform="matrix(1.3276 0 0 1.3281 0 0)" gradientUnits="userSpaceOnUse">
							<stop  offset="2.215490e-03" style="stop-color:#FFFFFF"/>
							<stop  offset="0.1645" style="stop-color:#FCFCFC"/>
							<stop  offset="0.2947" style="stop-color:#F2F2F2"/>
							<stop  offset="0.4138" style="stop-color:#E1E1E1"/>
							<stop  offset="0.5262" style="stop-color:#C9C9C9"/>
							<stop  offset="0.6342" style="stop-color:#AAAAAA"/>
							<stop  offset="0.7385" style="stop-color:#848484"/>
							<stop  offset="0.8402" style="stop-color:#585858"/>
							<stop  offset="0.9371" style="stop-color:#252525"/>
							<stop  offset="1" style="stop-color:#000000"/>
						</radialGradient>
						<path class="st40" d="M49.1,49.8c0.1-0.5,0.3-1,0.7-1.4c0.3-0.3,0.6-0.5,1-0.6c-0.2-0.1-0.4,0-0.7,0c0,0-1.1,0.4-1.2,1.6v1.2
							C49,50.3,49,50.1,49.1,49.8z"/>
					</g>
				</mask>
				<path class="st41" d="M49.1,49.8c0.1-0.5,0.3-1,0.7-1.4c0.3-0.3,0.6-0.5,1-0.6c-0.2-0.1-0.4,0-0.7,0c0,0-1.1,0.4-1.2,1.6v1.2
					C49,50.3,49,50.1,49.1,49.8z"/>
				<path class="st42" d="M50.4,47.1c0,0.1,0.2,0.2,0.3,0.2c0.2,0,0.3-0.1,0.3-0.2H50.4z"/>
			</g>
			<g>
				<rect x="38.1" y="53.7" class="st34" width="15.2" height="0.5"/>
				<rect x="38.1" y="54" class="st43" width="15.2" height="0.2"/>
			</g>
		</g>
		<path class="st43" d="M54.3,53.8c0,0.5-0.4,0.8-0.8,0.8l0,0c-0.5,0-0.8-0.4-0.8-0.8l0,0c0-0.5,0.4-0.8,0.8-0.8l0,0
			C53.9,53,54.3,53.4,54.3,53.8L54.3,53.8z"/>
		<path class="st44" d="M53.8,53.6c0,0.2-0.2,0.4-0.4,0.4l0,0c-0.2,0-0.4-0.2-0.4-0.4l0,0c0-0.2,0.2-0.4,0.4-0.4l0,0
			C53.6,53.2,53.8,53.4,53.8,53.6L53.8,53.6z"/>
		<path class="st43" d="M38.1,53.8c0,0.5-0.4,0.8-0.8,0.8l0,0c-0.5,0-0.8-0.4-0.8-0.8l0,0c0-0.5,0.4-0.8,0.8-0.8l0,0
			C37.7,53,38.1,53.4,38.1,53.8L38.1,53.8z"/>
		<path class="st44" d="M37.6,53.6c0,0.2-0.2,0.4-0.4,0.4l0,0c-0.2,0-0.4-0.2-0.4-0.4l0,0c0-0.2,0.2-0.4,0.4-0.4l0,0
			C37.4,53.2,37.6,53.4,37.6,53.6L37.6,53.6z"/>
	</g>
</g>
</svg>
