<?xml version="1.0" encoding="iso-8859-1"?>
<!-- Generator: Adobe Illustrator 19.0.0, SVG Export Plug-In . SVG Version: 6.00 Build 0)  -->
<svg version="1.1" id="Layer_1" xmlns="http://www.w3.org/2000/svg" xmlns:xlink="http://www.w3.org/1999/xlink" x="0px" y="0px"
	 viewBox="0 0 508 508" style="enable-background:new 0 0 508 508;" xml:space="preserve">
<circle style="fill:#FD8469;" cx="254" cy="254" r="254"/>
<path style="fill:#2B3B4E;" d="M389.6,370.8h8.4c3.2,0,6-2.8,6-6v-21.6c0-3.2-2.8-6-6-6h-8.4V370.8z"/>
<path style="fill:#324A5E;" d="M380.8,397.6H116.4c-6.8,0-12.4-5.6-12.4-12.4v-62.4c0-6.8,5.6-12.4,12.4-12.4h264.4
	c6.8,0,12.4,5.6,12.4,12.4v62.4C393.2,392,387.6,397.6,380.8,397.6z"/>
<path style="fill:#FFFFFF;" d="M110.8,385.2v-62.4c0-2.8,2.4-5.2,5.2-5.2h264.4c2.8,0,5.2,2.4,5.2,5.2v62.4c0,2.8-2.4,5.2-5.2,5.2
	h-264C113.2,390.4,110.8,388.4,110.8,385.2z"/>
<g>
	<polygon style="fill:#FF7058;" points="157.2,324.4 133.6,383.6 118,383.6 118,324.4 	"/>
	<polygon style="fill:#FF7058;" points="203.2,324.4 179.6,383.6 141.6,383.6 165.2,324.4 	"/>
</g>
<path style="fill:#2B3B4E;" d="M389.6,270.8h8.4c3.2,0,6-2.8,6-6v-21.6c0-3.2-2.8-6-6-6h-8.4V270.8z"/>
<path style="fill:#324A5E;" d="M380.8,297.6H116.4c-6.8,0-12.4-5.6-12.4-12.4v-62.4c0-6.8,5.6-12.4,12.4-12.4h264.4
	c6.8,0,12.4,5.6,12.4,12.4v62.4C393.2,292,387.6,297.6,380.8,297.6z"/>
<path style="fill:#FFFFFF;" d="M110.8,285.2v-62.4c0-2.8,2.4-5.2,5.2-5.2h264.4c2.8,0,5.2,2.4,5.2,5.2v62.4c0,2.8-2.4,5.2-5.2,5.2
	h-264C113.2,290.8,110.8,288.4,110.8,285.2z"/>
<g>
	<polygon style="fill:#84DBFF;" points="157.2,224.4 133.6,283.6 118,283.6 118,224.4 	"/>
	<polygon style="fill:#84DBFF;" points="203.2,224.4 179.6,283.6 141.6,283.6 165.2,224.4 	"/>
	<polygon style="fill:#84DBFF;" points="249.6,224.4 226,283.6 188,283.6 211.6,224.4 	"/>
</g>
<path style="fill:#2B3B4E;" d="M389.6,170.8h8.4c3.2,0,6-2.8,6-6v-21.6c0-3.2-2.8-6-6-6h-8.4V170.8z"/>
<path style="fill:#324A5E;" d="M380.8,197.6H116.4c-6.8,0-12.4-5.6-12.4-12.4v-62.4c0-6.8,5.6-12.4,12.4-12.4h264.4
	c6.8,0,12.4,5.6,12.4,12.4v62.4C393.2,192,387.6,197.6,380.8,197.6z"/>
<path style="fill:#FFFFFF;" d="M110.8,185.2v-62.4c0-2.8,2.4-5.2,5.2-5.2h264.4c2.8,0,5.2,2.4,5.2,5.2v62.4c0,2.8-2.4,5.2-5.2,5.2
	h-264C113.2,190.8,110.8,188.4,110.8,185.2z"/>
<g>
	<polygon style="fill:#4CDBC4;" points="157.2,124.4 133.6,183.6 118,183.6 118,124.4 	"/>
	<polygon style="fill:#4CDBC4;" points="203.2,124.4 179.6,183.6 141.6,183.6 165.2,124.4 	"/>
	<polygon style="fill:#4CDBC4;" points="249.6,124.4 226,183.6 188,183.6 211.6,124.4 	"/>
	<polygon style="fill:#4CDBC4;" points="342.8,124.4 319.2,183.6 281.2,183.6 304.8,124.4 	"/>
	<polygon style="fill:#4CDBC4;" points="296,124.4 272.4,183.6 234.4,183.6 258,124.4 	"/>
</g>
<g>
</g>
<g>
</g>
<g>
</g>
<g>
</g>
<g>
</g>
<g>
</g>
<g>
</g>
<g>
</g>
<g>
</g>
<g>
</g>
<g>
</g>
<g>
</g>
<g>
</g>
<g>
</g>
<g>
</g>
</svg>
