<?xml version="1.0" encoding="UTF-8" standalone="no"?>
<!-- Generator: Adobe Illustrator 22.1.0, SVG Export Plug-In . SVG Version: 6.00 Build 0)  -->

<svg
   version="1.1"
   id="Calque_3"
   x="0px"
   y="0px"
   viewBox="0 0 128 128"
   style="enable-background:new 0 0 128 128;"
   xml:space="preserve"
   sodipodi:docname="syn_chaudiere.svg"
   inkscape:version="1.1 (c68e22c387, 2021-05-23)"
   xmlns:inkscape="http://www.inkscape.org/namespaces/inkscape"
   xmlns:sodipodi="http://sodipodi.sourceforge.net/DTD/sodipodi-0.dtd"
   xmlns="http://www.w3.org/2000/svg"
   xmlns:svg="http://www.w3.org/2000/svg"><defs
   id="defs150"><linearGradient
     id="SVGID_1_-3"
     gradientUnits="userSpaceOnUse"
     x1="114.74525"
     y1="45.661564"
     x2="85.941223"
     y2="61.528023"
     gradientTransform="matrix(1,0,0,-1,0,128)"><stop
       offset="0"
       style="stop-color:#73716C;stop-opacity:0"
       id="stop6" /><stop
       offset="1"
       style="stop-color:#73716C"
       id="stop8" /></linearGradient></defs><sodipodi:namedview
   id="namedview148"
   pagecolor="#323232"
   bordercolor="#666666"
   borderopacity="1.0"
   inkscape:pageshadow="2"
   inkscape:pageopacity="0"
   inkscape:pagecheckerboard="0"
   showgrid="false"
   inkscape:zoom="3.03125"
   inkscape:cx="58.556701"
   inkscape:cy="85.113402"
   inkscape:window-width="1920"
   inkscape:window-height="979"
   inkscape:window-x="0"
   inkscape:window-y="0"
   inkscape:window-maximized="1"
   inkscape:current-layer="g98" />
<style
   type="text/css"
   id="style2">
	.st0{fill:#AFBBC5;}
	.st1{fill:#808080;}
	.st2{fill:#EB1C24;}
	.st3{fill:#E4E4E4;}
	.st4{fill:#CACACA;}
	.st5{fill:#B1B1B1;}
	.st6{fill:#FFFFFF;}
	.st7{fill:#F0F0F0;}
	.st8{fill:#666666;}
	.st9{fill:#979797;}
	.st10{fill:#262626;}
	.st11{fill:#020202;}
	.st12{opacity:0.3;fill:url(#SVGID_1_);enable-background:new    ;}
	.st13{fill:#29ABE2;}
	.st14{fill:#FCEE21;}
	.st15{fill:#F15A24;}
</style>
<g
   id="g100">
	<g
   id="g98">
		<path
   class="st0"
   d="m 127.9,64 c 0,35.3 -28.6,64 -64,64 C 28.5,128 0,99.3 0,64 0,28.7 28.6,0 64,0 c 35.4,0 63.9,28.7 63.9,64 z"
   id="path4"
   style="fill:#a9a9a9"
   transform="translate(0.05)" /><path
   class="st1"
   d="M 120.17552,33.384021 92.15,16 51.55,110.8 84,124.8 c 37.79444,-14.31362 52.37696,-54.159896 36.17552,-91.415979 z"
   id="path11"
   style="fill:url(#SVGID_1_-3)"
   transform="translate(-0.05,0.4)"
   sodipodi:nodetypes="ccccc" /><g
   id="g16">
			<rect
   x="77.300003"
   y="103.2"
   class="st0"
   width="5.3000002"
   height="2.5999999"
   id="rect4" />
			<rect
   x="74.900002"
   y="102.3"
   class="st1"
   width="3"
   height="4.1999998"
   id="rect6" />
			<g
   id="g12">
				<path
   class="st2"
   d="m 82.4,103.8 h -1.8 c -0.6,0 -1.2,-3.7 -1.2,-3.7 0,-0.3 0.5,-0.6 1.2,-0.6 0.3,0 0.6,0.2 0.9,0.2 0.3,0 0.5,-0.2 0.9,-0.2 0.6,0 1.1,0.3 1.1,0.6 0,0 -0.5,3.7 -1.1,3.7 z"
   id="path8" />
				<path
   class="st2"
   d="m 82.4,105.1 h -1.8 c -0.6,0 -1.2,3.7 -1.2,3.7 0,0.3 0.5,0.6 1.2,0.6 0.3,0 0.6,-0.2 0.9,-0.2 0.3,0 0.5,0.2 0.9,0.2 0.6,0 1.1,-0.3 1.1,-0.6 0,0 -0.5,-3.7 -1.1,-3.7 z"
   id="path10" />
			</g>
			<path
   class="st3"
   d="m 80.7,105.3 c -0.5,0 -0.9,-0.3 -0.9,-0.6 v -0.4 c 0,-0.3 0.4,-0.6 0.9,-0.6 h 1.5 c 0.5,0 0.9,0.3 0.9,0.6 v 0.4 c 0,0.3 -0.4,0.6 -0.9,0.6 z"
   id="path14" />
		</g>
		<rect
   x="51.5"
   y="93.900002"
   class="st4"
   width="4.1999998"
   height="17.299999"
   id="rect18"
   style="fill:#466eb6;fill-opacity:1" />
		<rect
   x="72.099998"
   y="94"
   class="st4"
   width="4.1999998"
   height="17.299999"
   id="rect20"
   style="fill:#eb1c24;fill-opacity:1" />
		<g
   id="g88">
			<path
   class="st4"
   d="M 92.2,92.6 Z"
   id="path22" />
			<path
   class="st4"
   d="M 63.8,92.6 H 64 c -0.1,-0.1 -0.1,-0.1 -0.2,0 z"
   id="path24" />
			<path
   class="st4"
   d="m 92.2,16.4 v 0 c -0.1,0 0,0 0,0 z"
   id="path26" />
			<path
   class="st4"
   d="m 35.6,16.4 v 0 c 0,0 0.1,0 0,0 z"
   id="path28" />
			<g
   id="g36">
				<path
   class="st5"
   d="m 63.9,13.6 c -10.4,0 -20.1,1 -28.2,2.8 H 92.1 C 84,14.6 74.3,13.6 63.9,13.6 Z"
   id="path30" />
				<path
   class="st5"
   d="m 63.9,95.3 c 10.4,0 20,-1 28.2,-2.8 H 35.7 c 8.2,1.8 17.8,2.8 28.2,2.8 z"
   id="path32" />
				<path
   class="st6"
   d="M 92.1,16.4 H 35.7 35.6 V 46.8 62.2 92.6 H 35.7 92 92.1 V 62.2 46.8 16.4 c 0.1,0 0,0 0,0 z"
   id="path34" />
			</g>
			<rect
   x="53.099998"
   y="93.900002"
   class="st7"
   width="21.6"
   height="9.6999998"
   id="rect38" />
			<g
   id="g76">
				<g
   id="g42">
					<path
   class="st8"
   d="m 65.6,99.5 c 0,0 0,-0.1 0.1,-0.3 0,-0.1 0,-0.3 0,-0.3 l 2,0.1 c 0,0 0,0.1 0,0.2 0,0.1 0,0.3 -0.1,0.4 -0.1,0.3 -0.2,0.6 -0.2,0.6 z"
   id="path40" />
				</g>
				<g
   id="g46">
					<path
   class="st8"
   d="m 64.8,100.4 c 0,0 0.1,0 0.2,-0.1 0.1,-0.1 0.2,-0.2 0.2,-0.2 l 1.4,1.4 c 0,0 -0.2,0.2 -0.4,0.4 -0.2,0.2 -0.5,0.3 -0.5,0.3 z"
   id="path44" />
				</g>
				<g
   id="g50">
					<path
   class="st8"
   d="m 63.6,100.6 c 0,0 0.1,0 0.3,0 0.1,0 0.3,0 0.3,0 l 0.2,2 c 0,0 -0.3,0.1 -0.6,0 -0.1,0 -0.3,0 -0.4,0 -0.1,0 -0.2,0 -0.2,0 z"
   id="path48" />
				</g>
				<g
   id="g54">
					<path
   class="st8"
   d="m 62.6,99.9 c 0,0 0.1,0.1 0.2,0.2 0.1,0.1 0.2,0.2 0.2,0.2 l -1.1,1.7 c 0,0 -0.2,-0.2 -0.5,-0.4 -0.1,-0.1 -0.2,-0.2 -0.3,-0.3 C 61,101.2 61,101.2 61,101.2 Z"
   id="path52" />
				</g>
				<g
   id="g58">
					<path
   class="st8"
   d="m 62.2,98.7 c 0,0 0,0.6 0.1,0.6 l -1.9,0.5 c -0.1,0 -0.2,-1.2 -0.1,-1.2 z"
   id="path56" />
				</g>
				<g
   id="g62">
					<path
   class="st8"
   d="m 62.6,97.6 c 0,0 -0.1,0.1 -0.2,0.2 -0.1,0.1 -0.1,0.2 -0.1,0.2 l -1.8,-0.8 c 0,0 0.1,-0.3 0.3,-0.5 0.2,-0.2 0.4,-0.5 0.4,-0.5 z"
   id="path60" />
				</g>
				<g
   id="g66">
					<path
   class="st8"
   d="m 63.7,97 c 0,0 -0.1,0 -0.3,0.1 -0.1,0 -0.1,0 -0.2,0.1 h -0.1 l -0.9,-1.8 c 0,-0.1 1.1,-0.4 1.1,-0.3 z"
   id="path64" />
				</g>
				<g
   id="g70">
					<path
   class="st8"
   d="m 64.9,97.3 c 0,0 -0.1,-0.1 -0.2,-0.1 -0.1,0 -0.3,-0.1 -0.3,-0.1 l 0.5,-1.9 c 0,0 0.3,0.1 0.6,0.2 0.3,0.1 0.5,0.3 0.5,0.3 z"
   id="path68" />
				</g>
				<g
   id="g74">
					<path
   class="st8"
   d="m 65.7,98.3 -0.2,-0.5 1.6,-1.2 c 0,0 0.2,0.2 0.3,0.5 0.1,0.1 0.1,0.3 0.2,0.4 0,0.1 0.1,0.2 0.1,0.2 z"
   id="path72" />
				</g>
			</g>
			<path
   class="st9"
   d="m 76.3,41.4 c 0,6.8 -5.5,12.4 -12.4,12.4 -6.9,0 -12.4,-5.5 -12.4,-12.4 0,-6.8 5.6,-12.4 12.4,-12.4 6.8,0 12.4,5.5 12.4,12.4 z"
   id="path78" />
			<path
   class="st3"
   d="m 63.9,52.5 c -6.1,0 -11.1,-5 -11.1,-11.1 0,-6.1 5,-11.1 11.1,-11.1 6.1,0 11.1,5 11.1,11.1 0,6.1 -5,11.1 -11.1,11.1 z"
   id="path80" />
			<path
   class="st2"
   d="m 57.6,46.2 c 0,0 -0.3,-0.4 -0.8,-1.1 -0.2,-0.4 -0.5,-0.8 -0.6,-1.4 -0.1,-0.3 -0.2,-0.6 -0.3,-0.9 -0.1,-0.3 -0.1,-0.7 -0.2,-1 0,-0.2 -0.1,-0.4 -0.1,-0.6 0,-0.2 0,-0.4 0,-0.6 0,-0.4 0,-0.8 0.1,-1.2 0.1,-0.8 0.4,-1.7 0.9,-2.5 0.4,-0.8 1.1,-1.6 1.8,-2.3 0.7,-0.7 1.6,-1.2 2.6,-1.6 1,-0.4 2,-0.6 3.1,-0.6 0.2,0 0.4,0 0.7,0 0.3,0 0.5,0.1 0.8,0.1 0.5,0.1 1,0.2 1.5,0.4 1,0.3 1.8,0.8 2.6,1.3 0.7,0.6 1.4,1.2 1.9,1.9 0.5,0.7 0.9,1.3 1.1,2 0.1,0.3 0.2,0.6 0.3,0.9 0.1,0.3 0.2,0.5 0.2,0.8 0.1,0.5 0.1,0.9 0.2,1.1 0,0.3 0,0.4 0,0.4 h -3.2 c 0,0 0,-0.1 0,-0.3 0,-0.2 0,-0.4 0,-0.8 0,-0.2 0,-0.4 -0.1,-0.5 0,-0.2 -0.1,-0.4 -0.1,-0.6 -0.1,-0.5 -0.3,-0.9 -0.6,-1.5 -0.3,-0.5 -0.7,-1 -1.2,-1.5 -0.5,-0.5 -1.1,-0.9 -1.8,-1.2 -0.3,-0.2 -0.7,-0.3 -1.1,-0.4 l -0.5,-0.1 c -0.2,0 -0.4,0 -0.7,-0.1 -0.8,-0.1 -1.6,0 -2.5,0.2 -1.6,0.4 -3.1,1.5 -4,2.9 -0.5,0.7 -0.8,1.4 -1,2.2 -0.1,0.2 -0.1,0.4 -0.1,0.5 0,0.2 -0.1,0.4 -0.1,0.5 0,0.2 0,0.4 -0.1,0.6 0,0.1 0,0.3 0,0.5 0,0.3 0,0.7 0.1,1 0.1,0.3 0.1,0.6 0.2,0.9 0.1,0.5 0.4,1 0.5,1.4 0.3,0.8 0.5,1.2 0.5,1.2 z"
   id="path82" />
			<path
   class="st8"
   d="m 66.3,41.4 c 0,1.3 -1,2.3 -2.3,2.3 -1.3,0 -2.3,-1 -2.3,-2.3 0,-1.3 1,-2.3 2.3,-2.3 1.3,0 2.3,1 2.3,2.3 z"
   id="path84" />
			<polygon
   class="st8"
   points="63.5,40.1 68,34.6 65.7,41.4 "
   id="polygon86" />
		</g>
		<rect
   x="51.299999"
   y="108.8"
   class="st1"
   width="4.5999999"
   height="2.4000001"
   id="rect90" />
		<rect
   x="50.900002"
   y="109.3"
   class="st3"
   width="5.3000002"
   height="2"
   id="rect92"
   style="fill:#466eb6;fill-opacity:1" />
		<rect
   x="71.900002"
   y="108.8"
   class="st1"
   width="4.5999999"
   height="2.4000001"
   id="rect94" />
		<rect
   x="71.5"
   y="109.3"
   class="st3"
   width="5.3000002"
   height="2"
   id="rect96"
   style="fill:#eb1c24;fill-opacity:1" />
	</g>
</g>
<g
   id="g125">
	<rect
   x="54.400002"
   y="66.800003"
   class="st10"
   width="18.5"
   height="17.799999"
   id="rect102"
   style="display:inline;fill:#bf7d00;fill-opacity:1;stroke-width:0.789515"
   transform="matrix(1.2666006,0,0,1.2666006,-17.192913,-22.675542)" />
	
	<linearGradient
   id="SVGID_1_"
   gradientUnits="userSpaceOnUse"
   x1="72.800102"
   y1="65.1334"
   x2="52.4259"
   y2="88.902702">
		<stop
   offset="0.2511"
   style="stop-color:#000000"
   id="stop106" />
		<stop
   offset="0.3564"
   style="stop-color:#020202"
   id="stop108" />
		<stop
   offset="0.3944"
   style="stop-color:#070809"
   id="stop110" />
		<stop
   offset="0.4214"
   style="stop-color:#121214"
   id="stop112" />
		<stop
   offset="0.4433"
   style="stop-color:#202125"
   id="stop114" />
		<stop
   offset="0.462"
   style="stop-color:#33343B"
   id="stop116" />
		<stop
   offset="0.4783"
   style="stop-color:#4A4C56"
   id="stop118" />
		<stop
   offset="0.4853"
   style="stop-color:#565864"
   id="stop120" />
	</linearGradient>
	<rect
   x="54.700001"
   y="67.199997"
   class="st12"
   width="18"
   height="17.1"
   id="rect123"
   style="display:inline;fill:url(#SVGID_1_);stroke-width:0.763306"
   transform="matrix(1.3017842,0,0,1.3184501,-19.497437,-26.666458)" />
</g>
<g
   id="g145">
	<path
   class="st13"
   d="M63.2,75.2c3,0,5.4,2.1,5.4,4.7c0,2.2-1.8,4.1-4.2,4.5c0,0-0.8,0-1.2,0c-0.4,0-1.1,0-1.3,0   c-2.4-0.4-4.1-2.3-4.1-4.5C57.8,77.3,60.2,75.2,63.2,75.2z"
   id="path127" />
	<g
   id="g135">
		<g
   id="g133">
			<g
   id="g131">
				<path
   class="st14"
   d="M60.2,84c-1.2-0.7-2.3-1.7-2.7-4.1c-0.5-2-0.1-4.1,0.9-5.8l0.6-0.8l-0.1,1.1c0,0.5,0,0.9,0.1,1.3      c0.1-0.6,0.2-1.1,0.5-1.4c0.2-0.7,0.5-1.4,0.4-2.4v-0.5l0.5,0.1c0.5,0.2,1.1,1.3,1.5,2.4c0-0.2,0.1-0.6,0.1-0.8      c0.2-1.5,0.4-3.4,2.5-4.5l0.7-0.4l-0.4,0.8c-0.2,0.7,0,1.8,0.4,2.7c0.2,0.7,0.5,1.4,0.6,2.1c0.2-0.8,0.4-1.7,0.4-2.4v-0.9      l0.5,0.7c1.2,1.7,1.4,3.7,1.3,5c0.1-0.4,0.2-0.8,0.2-1.2l0.1-0.7l0.5,0.6c0.8,2,0.8,4.5-0.1,6.5C68,82.8,67.1,83.5,66,84      l-0.9,0.3l0.7-0.8c0.2-0.6,0.2-1.1,0.2-1.7c-0.1,0.2-0.4,0.5-0.5,0.6l-0.7,0.2l0.4-0.7c0.1-0.2,0.4-1.1,0-2      c-0.1,0.4-0.2,0.7-0.4,1.1l-0.6,0.6v-0.8c0.1-0.5-0.1-1.1-0.2-1.5c-0.1-0.4-0.2-0.7-0.2-0.9c-0.4,0.5-0.5,0.9-0.6,1.5      c0,0.4-0.1,0.7-0.2,1.1l-0.4,0.7l-0.1-0.7c-0.1-0.2-0.2-0.6-0.4-0.8c0,0.2-0.1,0.4-0.2,0.6c-0.1,0.5-0.4,0.8-0.1,1.4v0.7      l-0.5-0.4c0,0-0.2-0.4-0.4-0.8c-0.2,0.7,0,1.4,0.3,2l0.7,0.8c0,0-0.7-0.1-1-0.1C60.7,84.2,60.2,84,60.2,84z"
   id="path129" />
			</g>
		</g>
	</g>
	<g
   id="g143">
		<g
   id="g141">
			<g
   id="g139">
				<path
   class="st15"
   d="M61.9,84.4c-0.7-0.3-1.3-1.4-1.5-2.6c-0.3-1.4-0.1-2.6,0.6-3.6l0.3-0.5v0.7c0,0.3,0,0.5,0,0.9      c0-0.3,0.1-0.7,0.3-0.9c0.1-0.5,0.3-0.9,0.1-1.6v-0.3l0.3,0.2c0.3,0.2,0.6,0.9,0.9,1.6c0-0.2,0-0.3,0-0.5c0.1-1,0.3-2.2,1.3-2.9      l0.4-0.2l-0.1,0.5c-0.1,0.5,0,1,0.1,1.7c0.1,0.3,0.3,0.9,0.3,1.4c0.1-0.5,0.1-1,0.1-1.6v-0.5l0.3,0.5c0.7,1,0.7,2.2,0.7,3.3      c0.1-0.2,0.1-0.5,0.1-0.7v-0.5l0.3,0.3c0.4,1.2,0.4,2.8,0,4.1C66,84,65.8,84,65.1,84.3l-0.5,0.1l0.2-0.1      c0.1-0.3,0.1-0.5,0.1-0.8c0,0.2-0.1,0.3-0.3,0.3L64.3,84l0.1-0.5c0.1-0.2,0.1-0.7,0-1.2c0,0.2-0.1,0.5-0.1,0.7L64,83.3v-0.5      c0-0.3,0-0.7-0.1-1c0-0.2-0.1-0.3-0.1-0.7c-0.1,0.3-0.3,0.7-0.3,1c0,0.2,0,0.5-0.1,0.7L62.9,83l-0.1-0.5c0-0.2-0.1-0.3-0.1-0.5      c0,0.2,0,0.2-0.1,0.3c-0.1,0.3-0.1,0.5,0,0.9v0.3l-0.3-0.3c0,0-0.1-0.2-0.1-0.5c-0.1,0.5,0,1,0,1.4l0.2,0.4L61.9,84.4z"
   id="path137" />
			</g>
		</g>
	</g>
</g>
</svg>
