<?xml version="1.0" encoding="UTF-8" standalone="no"?>
<svg
   xmlns:dc="http://purl.org/dc/elements/1.1/"
   xmlns:cc="http://creativecommons.org/ns#"
   xmlns:rdf="http://www.w3.org/1999/02/22-rdf-syntax-ns#"
   xmlns:svg="http://www.w3.org/2000/svg"
   xmlns="http://www.w3.org/2000/svg"
   xmlns:sodipodi="http://sodipodi.sourceforge.net/DTD/sodipodi-0.dtd"
   xmlns:inkscape="http://www.inkscape.org/namespaces/inkscape"
   version="1.1"
   id="Calque_1"
   x="0px"
   y="0px"
   viewBox="0 0 128 128"
   style="enable-background:new 0 0 128 128;"
   xml:space="preserve"
   sodipodi:docname="syn_confort.svg"
   inkscape:export-filename="/home/sebastien/SRC/trunk/Watchdogd/IHM/img/syn_confort.png"
   inkscape:export-xdpi="96"
   inkscape:export-ydpi="96"
   inkscape:version="1.0.2 (e86c870879, 2021-01-15)"><metadata
   id="metadata1622"><rdf:RDF><cc:Work
       rdf:about=""><dc:format>image/svg+xml</dc:format><dc:type
         rdf:resource="http://purl.org/dc/dcmitype/StillImage" /></cc:Work></rdf:RDF></metadata><defs
   id="defs1620" /><sodipodi:namedview
   pagecolor="#ffffff"
   bordercolor="#666666"
   borderopacity="1"
   objecttolerance="10"
   gridtolerance="10"
   guidetolerance="10"
   inkscape:pageopacity="0"
   inkscape:pageshadow="2"
   inkscape:window-width="1920"
   inkscape:window-height="983"
   id="namedview1618"
   showgrid="false"
   inkscape:zoom="6.203125"
   inkscape:cx="64"
   inkscape:cy="64"
   inkscape:window-x="0"
   inkscape:window-y="0"
   inkscape:window-maximized="1"
   inkscape:current-layer="Calque_1" />
<style
   type="text/css"
   id="style1471">
	.st0{fill:#A9A9A9;}
	.st1{fill:url(#SVGID_1_);}
	.st2{fill:url(#SVGID_2_);}
	.st3{fill:url(#SVGID_3_);}
	.st4{fill:#CCCBC8;}
	.st5{opacity:0.3;fill:#FFFFFF;enable-background:new    ;}
	.st6{fill:#9DD8DC;}
	.st7{fill:#F7931E;}
	.st8{fill:#4A4349;}
	.st9{fill:#A3A8AD;}
	.st10{opacity:0.3;}
	.st11{opacity:0.5;}
	.st12{fill:#FFFFFF;}
	.st13{fill:#FFF265;}
</style>
<g
   id="Calque_2_1_">
	<g
   id="g1614">
		<g
   id="g1576">
			<path
   class="st0"
   d="M127.9,64c0,35.3-28.6,64-64,64S0,99.3,0,64S28.6,0,64,0S127.9,28.7,127.9,64z"
   id="path1473" />
			<g
   id="g1482">
				
					<linearGradient
   id="SVGID_1_"
   gradientUnits="userSpaceOnUse"
   x1="129.1138"
   y1="40.3961"
   x2="83.9773"
   y2="53.2922"
   gradientTransform="matrix(1 0 0 -1 0 128)">
					<stop
   offset="0"
   style="stop-color:#73716C;stop-opacity:0"
   id="stop1475" />
					<stop
   offset="1"
   style="stop-color:#73716C"
   id="stop1477" />
				</linearGradient>
				<path
   class="st1"
   d="M128,63.6c0-5.9-0.8-11.6-2.3-17.1L85.3,25l-35.5,84L84,124.8C115.6,114.4,128,84.3,128,63.6z"
   id="path1480" />
			</g>
			
				<linearGradient
   id="SVGID_2_"
   gradientUnits="userSpaceOnUse"
   x1="22.3952"
   y1="83.5923"
   x2="45.8444"
   y2="70.7615"
   gradientTransform="matrix(1 0 0 -1 0 128)">
				<stop
   offset="0"
   style="stop-color:#73716C;stop-opacity:0"
   id="stop1484" />
				<stop
   offset="1"
   style="stop-color:#73716C"
   id="stop1486" />
			</linearGradient>
			<polygon
   class="st2"
   points="35.1,36 60.8,49 48.5,73.5 14.3,56.4    "
   id="polygon1489" />
			
				<linearGradient
   id="SVGID_3_"
   gradientUnits="userSpaceOnUse"
   x1="23.5774"
   y1="49.0737"
   x2="47.0266"
   y2="36.243"
   gradientTransform="matrix(1 0 0 -1 0 128)">
				<stop
   offset="0"
   style="stop-color:#73716C;stop-opacity:0"
   id="stop1491" />
				<stop
   offset="1"
   style="stop-color:#73716C"
   id="stop1493" />
			</linearGradient>
			<polygon
   class="st3"
   points="35.4,69.4 61.1,82.4 49.4,108.5 15.2,91.4    "
   id="polygon1496" />
			<g
   id="g1502">
				<path
   class="st4"
   d="M83.2,108.9H49.8c-1.2,0-2.2-1-2.2-2.2V25c0-1.2,1-2.2,2.2-2.2h33.4c1.2,0,2.1,1,2.1,2.2v81.8      C85.3,107.9,84.4,108.9,83.2,108.9z"
   id="path1498" />
				<path
   class="st5"
   d="M61.7,22.8h-9.5c-1,0-1.7,1-1.7,2.2v81.8c0,1.2,0.8,2.2,1.7,2.2h9.5V22.8z"
   id="path1500" />
			</g>
			<g
   id="g1574">
				<path
   class="st6"
   d="M66.5,101.7c-2.8,0-5-2.2-5-5V30c0-2.8,2.2-5,5-5c2.8,0,5,2.2,5,5v66.6C71.5,99.4,69.3,101.7,66.5,101.7z"
   id="path1504" />
				<path
   class="st7"
   d="M71.5,88V56h-10v32c-3,1.7-5,4.9-5,8.6c0,5.5,4.5,10,10,10s10-4.5,10-10C76.5,93,74.5,89.8,71.5,88z"
   id="path1506" />
				<g
   id="g1570">
					<rect
   x="62.3"
   y="31.1"
   class="st8"
   width="3.4"
   height="1.1"
   id="rect1508" />
					<rect
   x="62.3"
   y="33.1"
   class="st8"
   width="1.8"
   height="0.6"
   id="rect1510" />
					<rect
   x="62.3"
   y="35"
   class="st8"
   width="1.8"
   height="0.6"
   id="rect1512" />
					<rect
   x="62.3"
   y="36.8"
   class="st8"
   width="1.8"
   height="0.6"
   id="rect1514" />
					<rect
   x="62.3"
   y="38.7"
   class="st8"
   width="1.8"
   height="0.6"
   id="rect1516" />
					<rect
   x="62.3"
   y="40.5"
   class="st8"
   width="1.8"
   height="0.6"
   id="rect1518" />
					<rect
   x="62.3"
   y="42.1"
   class="st8"
   width="3.4"
   height="1.1"
   id="rect1520" />
					<rect
   x="62.3"
   y="44.2"
   class="st8"
   width="1.8"
   height="0.6"
   id="rect1522" />
					<rect
   x="62.3"
   y="46.1"
   class="st8"
   width="1.8"
   height="0.6"
   id="rect1524" />
					<rect
   x="62.3"
   y="47.9"
   class="st8"
   width="1.8"
   height="0.6"
   id="rect1526" />
					<rect
   x="62.3"
   y="49.8"
   class="st8"
   width="1.8"
   height="0.6"
   id="rect1528" />
					<rect
   x="62.3"
   y="51.6"
   class="st8"
   width="1.8"
   height="0.6"
   id="rect1530" />
					<rect
   x="62.3"
   y="53.2"
   class="st8"
   width="3.4"
   height="1.1"
   id="rect1532" />
					<rect
   x="62.3"
   y="55.3"
   class="st8"
   width="1.8"
   height="0.6"
   id="rect1534" />
					<rect
   x="62.3"
   y="57.2"
   class="st8"
   width="1.8"
   height="0.6"
   id="rect1536" />
					<rect
   x="62.3"
   y="59"
   class="st8"
   width="1.8"
   height="0.6"
   id="rect1538" />
					<rect
   x="62.3"
   y="60.9"
   class="st8"
   width="1.8"
   height="0.6"
   id="rect1540" />
					<rect
   x="62.3"
   y="62.7"
   class="st8"
   width="1.8"
   height="0.6"
   id="rect1542" />
					<rect
   x="62.3"
   y="64.3"
   class="st8"
   width="3.4"
   height="1.1"
   id="rect1544" />
					<rect
   x="62.3"
   y="66.4"
   class="st8"
   width="1.8"
   height="0.6"
   id="rect1546" />
					<rect
   x="62.3"
   y="68.2"
   class="st8"
   width="1.8"
   height="0.6"
   id="rect1548" />
					<rect
   x="62.3"
   y="70.1"
   class="st8"
   width="1.8"
   height="0.6"
   id="rect1550" />
					<rect
   x="62.3"
   y="71.9"
   class="st8"
   width="1.8"
   height="0.6"
   id="rect1552" />
					<rect
   x="62.3"
   y="73.8"
   class="st8"
   width="1.8"
   height="0.6"
   id="rect1554" />
					<rect
   x="62.3"
   y="75.4"
   class="st8"
   width="3.4"
   height="1.1"
   id="rect1556" />
					<rect
   x="62.3"
   y="86.5"
   class="st8"
   width="3.4"
   height="1.1"
   id="rect1558" />
					<rect
   x="62.3"
   y="77.5"
   class="st8"
   width="1.8"
   height="0.6"
   id="rect1560" />
					<rect
   x="62.3"
   y="79.3"
   class="st8"
   width="1.8"
   height="0.6"
   id="rect1562" />
					<rect
   x="62.3"
   y="81.2"
   class="st8"
   width="1.8"
   height="0.6"
   id="rect1564" />
					<rect
   x="62.3"
   y="83"
   class="st8"
   width="1.8"
   height="0.6"
   id="rect1566" />
					<rect
   x="62.3"
   y="84.9"
   class="st8"
   width="1.8"
   height="0.6"
   id="rect1568" />
				</g>
				<path
   class="st5"
   d="M62.9,31l-0.1,57.4c-2.9,1.3-4.9,4.9-4.9,8.3c0,4.2,3,7.6,7,8.3c-2.3-2.1-3.7-5-3.7-8.3s1.4-6.3,3.7-8.3      l0.2-60.7c0-0.5,0-0.9,0.1-1.3C63.9,27.1,62.9,28.9,62.9,31z"
   id="path1572" />
			</g>
		</g>
		<g
   id="g1594">
			<g
   id="g1590">
				<g
   id="g1580">
					<path
   class="st9"
   d="M36.6,58H16.7c-1.3,0-2.4-1.1-2.4-2.4V37.1c0-1.3,1.1-2.4,2.4-2.4h19.9c1.3,0,2.4,1.1,2.4,2.4v18.5       C39,56.9,37.9,58,36.6,58z"
   id="path1578" />
				</g>
				<g
   class="st10"
   id="g1584">
					<path
   d="M36.6,56.8H16.7c-1.3,0-2.4-1.1-2.4-2.4v1.2c0,1.3,1.1,2.4,2.4,2.4h19.9c1.3,0,2.4-1.1,2.4-2.4v-1.2       C39,55.7,37.9,56.8,36.6,56.8z"
   id="path1582" />
				</g>
				<g
   class="st11"
   id="g1588">
					<path
   class="st12"
   d="M36.6,34.7H16.7c-1.3,0-2.4,1.1-2.4,2.4v1.2c0-1.3,1.1-2.4,2.4-2.4h19.9c1.3,0,2.4,1.1,2.4,2.4v-1.2       C39,35.8,37.9,34.7,36.6,34.7z"
   id="path1586" />
				</g>
			</g>
			<path
   class="st12"
   d="M33.3,49.6l-1.8-1l0.9-0.3c0.3-0.1,0.5-0.4,0.4-0.7s-0.4-0.5-0.7-0.4l-2,0.5l-2.4-1.4l2.4-1.4l2,0.5     c0.1,0,0.1,0,0.2,0c0.3,0,0.5-0.2,0.6-0.4c0.1-0.3-0.1-0.6-0.4-0.7L31.6,44l1.8-1c0.3-0.2,0.4-0.5,0.2-0.8s-0.5-0.4-0.8-0.2     L31,43l0.3-0.9c0.1-0.3-0.1-0.6-0.4-0.7c-0.3-0.1-0.6,0.1-0.7,0.4l-0.6,2l-2.4,1.4v-2.7l1.5-1.5c0.2-0.2,0.2-0.6,0-0.8     s-0.6-0.2-0.8,0L27.2,41v-2c0-0.3-0.3-0.6-0.6-0.6c-0.3,0-0.6,0.3-0.6,0.6v2l-0.7-0.7c-0.2-0.2-0.6-0.2-0.8,0     c-0.2,0.2-0.2,0.6,0,0.8l1.5,1.5v2.7L23.7,44l-0.6-2c-0.1-0.3-0.4-0.5-0.7-0.4c-0.3,0.1-0.5,0.4-0.4,0.7l0.3,0.9l-1.8-1     c-0.3-0.2-0.6-0.1-0.8,0.2c-0.2,0.3-0.1,0.6,0.2,0.8l1.8,1l-0.9,0.3c-0.3,0.1-0.5,0.4-0.4,0.7s0.3,0.4,0.6,0.4c0.1,0,0.1,0,0.2,0     l2-0.5l2.4,1.4l-2.4,1.4l-2-0.5c-0.3-0.1-0.6,0.1-0.7,0.4c-0.1,0.3,0.1,0.6,0.4,0.7l0.9,0.3l-1.8,1c-0.3,0.2-0.4,0.5-0.2,0.8     c0.1,0.2,0.3,0.3,0.5,0.3c0.1,0,0.2,0,0.3-0.1l1.8-1L22,50.5c-0.1,0.3,0.1,0.6,0.4,0.7c0.1,0,0.1,0,0.2,0c0.3,0,0.5-0.2,0.6-0.4     l0.6-2l2.4-1.4v2.7l-1.5,1.5c-0.2,0.2-0.2,0.6,0,0.8c0.1,0.1,0.3,0.2,0.4,0.2c0.2,0,0.3-0.1,0.4-0.2l0.7-0.7v2     c0,0.3,0.3,0.6,0.6,0.6c0.3,0,0.6-0.3,0.6-0.6v-2l0.7,0.7c0.1,0.1,0.3,0.2,0.4,0.2c0.2,0,0.3-0.1,0.4-0.2c0.2-0.2,0.2-0.6,0-0.8     l-1.5-1.5v-2.7l2.4,1.4l0.6,2c0.1,0.3,0.3,0.4,0.6,0.4c0.1,0,0.1,0,0.2,0c0.3-0.1,0.5-0.4,0.4-0.7L31,49.6l1.8,1     c0.1,0.1,0.2,0.1,0.3,0.1c0.2,0,0.4-0.1,0.5-0.3C33.7,50.1,33.6,49.7,33.3,49.6z"
   id="path1592" />
		</g>
		<g
   id="g1608">
			<g
   id="g1598">
				<path
   class="st9"
   d="M36.6,92.1H16.7c-1.3,0-2.4-1.1-2.4-2.4V71.2c0-1.3,1.1-2.4,2.4-2.4h19.9c1.3,0,2.4,1.1,2.4,2.4v18.5      C39,91,37.9,92.1,36.6,92.1z"
   id="path1596" />
			</g>
			<g
   class="st10"
   id="g1602">
				<path
   d="M36.6,90.9H16.7c-1.3,0-2.4-1.1-2.4-2.4v1.2c0,1.3,1.1,2.4,2.4,2.4h19.9c1.3,0,2.4-1.1,2.4-2.4v-1.2      C39,89.8,37.9,90.9,36.6,90.9z"
   id="path1600" />
			</g>
			<g
   class="st11"
   id="g1606">
				<path
   class="st12"
   d="M36.6,68.8H16.7c-1.3,0-2.4,1.1-2.4,2.4v1.2c0-1.3,1.1-2.4,2.4-2.4h19.9c1.3,0,2.4,1.1,2.4,2.4v-1.2      C39,69.8,37.9,68.8,36.6,68.8z"
   id="path1604" />
			</g>
		</g>
		<g
   id="g1612">
			<path
   class="st13"
   d="M30.7,82c0.2-0.7,2.3-1.4,2.9-1.6c-0.6-0.2-2.7-0.9-2.9-1.6c-0.3-0.8,1.5-3.1,1.5-3.1s-2.7,1-3.4,0.5     c-0.7-0.5-0.6-3.4-0.6-3.4s-1.6,2.4-2.5,2.4s-2.5-2.4-2.5-2.4s0.1,2.9-0.6,3.4s-3.4-0.5-3.4-0.5s1.8,2.3,1.5,3.1     c-0.2,0.7-2.3,1.4-2.9,1.6c0.6,0.2,2.7,0.9,2.9,1.6c0.3,0.8-1.5,3.1-1.5,3.1s2.7-1,3.4-0.5c0.7,0.5,0.6,3.4,0.6,3.4     s1.6-2.4,2.5-2.4s2.5,2.4,2.5,2.4s-0.1-2.9,0.6-3.4s3.4,0.5,3.4,0.5S30.5,82.8,30.7,82z"
   id="path1610" />
		</g>
	</g>
</g>
</svg>
