<?xml version="1.0" encoding="UTF-8" standalone="no"?>
<svg
   xmlns:dc="http://purl.org/dc/elements/1.1/"
   xmlns:cc="http://creativecommons.org/ns#"
   xmlns:rdf="http://www.w3.org/1999/02/22-rdf-syntax-ns#"
   xmlns:svg="http://www.w3.org/2000/svg"
   xmlns="http://www.w3.org/2000/svg"
   xmlns:xlink="http://www.w3.org/1999/xlink"
   xmlns:sodipodi="http://sodipodi.sourceforge.net/DTD/sodipodi-0.dtd"
   xmlns:inkscape="http://www.inkscape.org/namespaces/inkscape"
   version="1.1"
   id="Calque_3"
   x="0px"
   y="0px"
   viewBox="0 0 128.01315 128"
   xml:space="preserve"
   sodipodi:docname="syn_sonorisation.svg"
   inkscape:version="1.0.2 (e86c870879, 2021-01-15)"
   width="128.01315"
   height="128"
   inkscape:export-filename="/home/sebastien/SRC/trunk/Watchdogd/IHM/img/syn_sonorisation.png"
   inkscape:export-xdpi="96"
   inkscape:export-ydpi="96"><metadata
   id="metadata258"><rdf:RDF><cc:Work
       rdf:about=""><dc:format>image/svg+xml</dc:format><dc:type
         rdf:resource="http://purl.org/dc/dcmitype/StillImage" /><dc:title></dc:title></cc:Work></rdf:RDF></metadata><defs
   id="defs256" /><sodipodi:namedview
   pagecolor="#ffffff"
   bordercolor="#666666"
   borderopacity="1"
   objecttolerance="10"
   gridtolerance="10"
   guidetolerance="10"
   inkscape:pageopacity="0"
   inkscape:pageshadow="2"
   inkscape:window-width="1920"
   inkscape:window-height="979"
   id="namedview254"
   showgrid="false"
   inkscape:zoom="6.203125"
   inkscape:cx="64.013149"
   inkscape:cy="64"
   inkscape:window-x="0"
   inkscape:window-y="0"
   inkscape:window-maximized="1"
   inkscape:current-layer="Calque_3" />
<style
   type="text/css"
   id="style2">
	.st0{fill:none;}
	.st1{fill:#455665;}
	.st2{fill:#E54445;}
	.st3{fill:#F7CC7F;}
	.st4{fill:url(#SVGID_1_);}
	.st5{opacity:0.17;fill-rule:evenodd;clip-rule:evenodd;fill:#C1272D;}
	.st6{opacity:0.32;fill-rule:evenodd;clip-rule:evenodd;fill:#3E2088;}
	.st7{opacity:0.4;fill-rule:evenodd;clip-rule:evenodd;fill:#FB888B;}
	.st8{opacity:0.4;fill-rule:evenodd;clip-rule:evenodd;fill:url(#SVGID_2_);}
	.st9{opacity:0.17;fill-rule:evenodd;clip-rule:evenodd;fill:#922D88;}
	.st10{opacity:0.17;fill-rule:evenodd;clip-rule:evenodd;fill:#FB888B;}
	.st11{fill:url(#SVGID_3_);}
	.st12{fill:#808080;}
	.st13{fill:url(#SVGID_4_);}
	.st14{fill:#E6E6E6;}
	.st15{fill:#4D4D4D;}
	.st16{fill:url(#SVGID_5_);}
	.st17{fill:url(#SVGID_6_);}
	.st18{fill:#1A1A1A;}
	.st19{fill:url(#SVGID_7_);}
	.st20{fill:url(#SVGID_9_);}
	.st21{fill:url(#SVGID_10_);}
	.st22{fill:url(#SVGID_11_);}
</style>
<pattern
   y="128"
   width="32.2"
   height="34.5"
   patternUnits="userSpaceOnUse"
   id="Nouvelle_nuance_de_motif_20"
   viewBox="0 -34.5 32.2 34.5"
   style="overflow:visible">
	<g
   id="g8">
		<rect
   y="-34.5"
   class="st0"
   width="32.2"
   height="34.5"
   id="rect4" />
		<rect
   y="-34.5"
   class="st1"
   width="32.2"
   height="34.5"
   id="rect6" />
	</g>
</pattern>
<pattern
   y="128"
   width="32.2"
   height="34.5"
   patternUnits="userSpaceOnUse"
   id="SVGID_8_"
   viewBox="0 -34.5 32.2 34.5"
   style="overflow:visible">
	<g
   id="g23">
		<rect
   y="-34.5"
   class="st0"
   width="32.2"
   height="34.5"
   id="rect11" />
		<g
   id="g21">
			<rect
   y="-34.5"
   class="st0"
   width="32.2"
   height="34.5"
   id="rect13" />
			<g
   id="g19">
				<rect
   y="-34.5"
   class="st0"
   width="32.2"
   height="34.5"
   id="rect15" />
				<rect
   y="-34.5"
   class="st2"
   width="32.2"
   height="34.5"
   id="rect17" />
			</g>
		</g>
	</g>
</pattern>
<g
   id="g251"
   transform="translate(0.01314901)">
	<path
   class="st3"
   d="M 128,64 C 128,99.3 99.3,128 64,128 28.7,128 0,99.3 0,64 0,28.7 28.7,0 64,0 c 35.3,0 64,28.7 64,64 z"
   id="path26" />
	<linearGradient
   id="SVGID_1_"
   gradientUnits="userSpaceOnUse"
   x1="125.3165"
   y1="89.772697"
   x2="63.292599"
   y2="64.283501">
		<stop
   offset="0"
   style="stop-color:#F7931E;stop-opacity:0"
   id="stop28" />
		<stop
   offset="1"
   style="stop-color:#F7931E"
   id="stop30" />
	</linearGradient>
	<path
   class="st4"
   d="m 128,63.7 c 0,-5.6 -2.7,-16.8 -4,-22 L 90.9,24.7 63.6,56.3 40.2,103.5 85.5,124.3 C 104.9,115.8 128,92 128,63.7 Z"
   id="path33"
   style="fill:url(#SVGID_1_)" />
	<g
   id="_x37__1_">
		<path
   class="st5"
   d="M 85.5,86.2 C 79.2,94.1 71.9,90.9 67.8,83 65.8,79.2 64.6,74.6 62.9,71.7 52.9,54.5 44.9,74.1 40.3,80.4 35.9,86.6 30.1,84 27,78.1 25.5,75.2 24.5,71.8 23.3,69.6 20.4,63.8 14.6,67 11.1,70.8 6.8,75.4 3.9,74.6 0.5,72 0.4,72.1 -0.1,67.3 0,62.7 h 20.2 2 26 c 3.5,0 7.1,0 10.7,0"
   id="path35" />
		<path
   class="st6"
   d="M 83.5,53.7 C 81.8,50.8 80.6,46.2 78.6,42.4 74.5,34.5 67.2,31.4 60.9,39.2 53.5,48.4 50.1,67.4 40.4,52.7 31.6,39.3 26.7,62.7 18.2,62.7 h 6.7"
   id="path37" />
		<path
   class="st7"
   d="M 74.4,46.4 C 72,51 67.9,67.2 60.8,56.4 59.6,54.6 59,52.2 58,50.4 55.3,45.6 50.5,43.6 46.6,48.5 44.1,51.7 40.4,60.4 36.6,60.2 33.6,60 31.3,55.4 29.3,52.3 26.8,48.2 22.3,46.6 18.4,50.7 15.1,54.1 9.1,62.5 6,62.7 h 4 23.6 1.3 2.1 0.8 26 2.2 1.2"
   id="path39" />
		<pattern
   id="SVGID_2_"
   xlink:href="#SVGID_8_"
   patternTransform="matrix(1.3281 0 0 1.3281 2610.5562 2710.1016)">
		</pattern>
		<path
   class="st8"
   d="m 79,56.3 c -1.2,-1.8 -1.8,-4.2 -2.8,-6 -2.7,-4.8 -7.5,-6.8 -11.4,-1.9 -2.2,2.8 -2.6,5.4 -4.6,7.9 C 53.6,65 52,42.2 41.2,40.1 36.3,39.1 32.3,45.3 30.3,50.3 28,56 25.2,63.1 20.1,54.5 17.9,50.7 12.4,50.6 9.2,53.2 6.3,55.5 2.6,61.6 0.1,62.6 H 1.9 23 23.8 25 27.3 55.2 55.3 56 v 0 h 26"
   id="path42" />
		<path
   class="st9"
   d="M 75.2,62.7 H 57.6 52.4 c 6.6,0 10.5,18.2 17.3,7.8 2.8,-4.3 5.7,-5.6 8.5,-1.4 1.2,1.8 1.8,4.2 2.8,6"
   id="path44" />
		<path
   class="st10"
   d="M 65.2,62.7 H 63 61.8 11.4 6 c 6.9,0 10.8,18.8 17.9,8 7.8,-11.9 10.6,3.4 16.5,10.9 5.1,6.3 10.9,3.8 14.2,-2.5 2.4,-4.6 6.5,-20.8 13.6,-10 1.2,1.8 1.8,4.2 2.8,6 2.7,4.8 7.5,6.8 11.4,1.9"
   id="path46" />
	</g>
	<g
   id="g249">
		<g
   id="g247">
			
				<pattern
   id="SVGID_3_"
   xlink:href="#Nouvelle_nuance_de_motif_20"
   patternTransform="matrix(1.4522 0 0 1.4522 3651.2273 3747.5005)">
			</pattern>
			<path
   class="st11"
   d="M 88.7,104.7 H 43.8 c -3.2,0 -5.8,-2.6 -5.8,-5.8 V 30.5 c 0,-3.2 2.6,-5.8 5.8,-5.8 h 44.9 c 3.2,0 5.8,2.6 5.8,5.8 V 99 c 0,3.1 -2.6,5.7 -5.8,5.7 z"
   id="path50" />
			<g
   id="g77">
				<path
   class="st12"
   d="M 66.2,101.4 C 53.1,101.4 42.4,90.7 42.4,77.6 42.4,64.5 53.1,53.8 66.2,53.8 79.3,53.8 90,64.5 90,77.6 90.1,90.7 79.4,101.4 66.2,101.4 Z"
   id="path52" />
				
					<radialGradient
   id="SVGID_4_"
   cx="66.240997"
   cy="-1860.0806"
   r="25.3468"
   gradientTransform="matrix(1,0,0,1.3091,0,2512.6899)"
   gradientUnits="userSpaceOnUse">
					<stop
   offset="0"
   style="stop-color:#9E9FA1"
   id="stop54" />
					<stop
   offset="5.342370e-02"
   style="stop-color:#848486"
   id="stop56" />
					<stop
   offset="0.1213"
   style="stop-color:#6A6A6B"
   id="stop58" />
					<stop
   offset="0.1993"
   style="stop-color:#545555"
   id="stop60" />
					<stop
   offset="0.2904"
   style="stop-color:#444444"
   id="stop62" />
					<stop
   offset="0.4031"
   style="stop-color:#383939"
   id="stop64" />
					<stop
   offset="0.5612"
   style="stop-color:#323232"
   id="stop66" />
					<stop
   offset="1"
   style="stop-color:#303030"
   id="stop68" />
				</radialGradient>
				<path
   class="st13"
   d="m 87.7,77.6 c 0,11.9 -9.6,21.5 -21.5,21.5 -11.9,0 -21.5,-9.6 -21.5,-21.5 0,-11.9 9.6,-21.5 21.5,-21.5 11.9,0 21.5,9.6 21.5,21.5 z"
   id="path71"
   style="fill:url(#SVGID_4_)" />
				<path
   class="st14"
   d="M 86,77.6 C 86,88.5 77.1,97.4 66.2,97.4 55.3,97.4 46.4,88.5 46.4,77.6 46.4,66.7 55.3,57.8 66.2,57.8 77.1,57.8 86,66.7 86,77.6 Z"
   id="path73" />
				<path
   class="st15"
   d="m 74.2,77.6 c 0,4.4 -3.6,8 -8,8 -4.4,0 -8,-3.6 -8,-8 0,-4.4 3.6,-8 8,-8 4.4,0 8,3.6 8,8 z"
   id="path75" />
			</g>
			<g
   id="g104">
				<path
   class="st12"
   d="m 77.6,55.4 c -7,0 -12.8,-5.7 -12.8,-12.8 0,-7 5.7,-12.8 12.8,-12.8 7,0 12.8,5.7 12.8,12.8 0,7.1 -5.8,12.8 -12.8,12.8 z"
   id="path79" />
				
					<radialGradient
   id="SVGID_5_"
   cx="77.593597"
   cy="-1886.7885"
   r="13.6823"
   gradientTransform="matrix(1,0,0,1.3091,0,2512.6899)"
   gradientUnits="userSpaceOnUse">
					<stop
   offset="0"
   style="stop-color:#9E9FA1"
   id="stop81" />
					<stop
   offset="5.342370e-02"
   style="stop-color:#848486"
   id="stop83" />
					<stop
   offset="0.1213"
   style="stop-color:#6A6A6B"
   id="stop85" />
					<stop
   offset="0.1993"
   style="stop-color:#545555"
   id="stop87" />
					<stop
   offset="0.2904"
   style="stop-color:#444444"
   id="stop89" />
					<stop
   offset="0.4031"
   style="stop-color:#383939"
   id="stop91" />
					<stop
   offset="0.5612"
   style="stop-color:#323232"
   id="stop93" />
					<stop
   offset="1"
   style="stop-color:#303030"
   id="stop95" />
				</radialGradient>
				<path
   class="st16"
   d="M 77.6,54.2 C 71.2,54.2 66,49 66,42.6 66,36.2 71.2,31 77.6,31 84,31 89.2,36.2 89.2,42.6 89.2,49 84,54.2 77.6,54.2 Z"
   id="path98"
   style="fill:url(#SVGID_5_)" />
				<path
   class="st14"
   d="m 87.6,42.6 c 0,5.5 -4.5,10 -10,10 -5.5,0 -10,-4.5 -10,-10 0,-5.5 4.5,-10 10,-10 5.5,0 10,4.5 10,10 z"
   id="path100" />
				<circle
   class="st15"
   cx="77.599998"
   cy="42.599998"
   r="4.9000001"
   id="circle102" />
			</g>
			<g
   id="g129">
				<path
   class="st12"
   d="m 57.3,45.4 c -5,0 -9.1,-4.1 -9.1,-9.1 0,-5 4.1,-9.1 9.1,-9.1 5,0 9.1,4.1 9.1,9.1 0,5 -4.1,9.1 -9.1,9.1 z"
   id="path106" />
				
					<radialGradient
   id="SVGID_6_"
   cx="57.313499"
   cy="-1891.6362"
   r="9.3439999"
   gradientTransform="matrix(1,0,0,1.3091,0,2512.6899)"
   gradientUnits="userSpaceOnUse">
					<stop
   offset="0"
   style="stop-color:#9E9FA1"
   id="stop108" />
					<stop
   offset="5.342370e-02"
   style="stop-color:#848486"
   id="stop110" />
					<stop
   offset="0.1213"
   style="stop-color:#6A6A6B"
   id="stop112" />
					<stop
   offset="0.1993"
   style="stop-color:#545555"
   id="stop114" />
					<stop
   offset="0.2904"
   style="stop-color:#444444"
   id="stop116" />
					<stop
   offset="0.4031"
   style="stop-color:#383939"
   id="stop118" />
					<stop
   offset="0.5612"
   style="stop-color:#323232"
   id="stop120" />
					<stop
   offset="1"
   style="stop-color:#303030"
   id="stop122" />
				</radialGradient>
				<path
   class="st17"
   d="m 57.3,44.2 c -4.4,0 -7.9,-3.6 -7.9,-7.9 0,-4.4 3.6,-7.9 7.9,-7.9 4.4,0 7.9,3.6 7.9,7.9 0,4.3 -3.5,7.9 -7.9,7.9 z"
   id="path125"
   style="fill:url(#SVGID_6_)" />
				<path
   class="st18"
   d="m 64.2,36.3 c 0,3.8 -3.1,6.8 -6.8,6.8 -3.8,0 -6.8,-3.1 -6.8,-6.8 0,-3.8 3.1,-6.8 6.8,-6.8 3.7,-0.1 6.8,3 6.8,6.8 z"
   id="path127" />
			</g>
			<radialGradient
   id="SVGID_7_"
   cx="44.748402"
   cy="30.5357"
   r="2.086"
   gradientUnits="userSpaceOnUse">
				<stop
   offset="0"
   style="stop-color:#303030"
   id="stop131" />
				<stop
   offset="4.901342e-02"
   style="stop-color:#3F3F3F"
   id="stop133" />
				<stop
   offset="0.1616"
   style="stop-color:#5B5C5C"
   id="stop135" />
				<stop
   offset="0.2734"
   style="stop-color:#707071"
   id="stop137" />
				<stop
   offset="0.3828"
   style="stop-color:#7C7D7E"
   id="stop139" />
				<stop
   offset="0.4873"
   style="stop-color:#808182"
   id="stop141" />
				<stop
   offset="0.5166"
   style="stop-color:#6D6E6E"
   id="stop143" />
				<stop
   offset="0.5762"
   style="stop-color:#4B4C4D"
   id="stop145" />
				<stop
   offset="0.6401"
   style="stop-color:#303031"
   id="stop147" />
				<stop
   offset="0.7087"
   style="stop-color:#1B1B1B"
   id="stop149" />
				<stop
   offset="0.7841"
   style="stop-color:#0C0C0C"
   id="stop151" />
				<stop
   offset="0.8717"
   style="stop-color:#030303"
   id="stop153" />
				<stop
   offset="1"
   style="stop-color:#000000"
   id="stop155" />
			</radialGradient>
			<path
   class="st19"
   d="m 46.2,30.5 c 0,0.8 -0.6,1.4 -1.4,1.4 -0.8,0 -1.4,-0.6 -1.4,-1.4 0,-0.8 0.6,-1.4 1.4,-1.4 0.7,0 1.4,0.6 1.4,1.4 z"
   id="path158"
   style="fill:url(#SVGID_7_)" />
			
				<radialGradient
   id="SVGID_9_"
   cx="244.9304"
   cy="30.5357"
   r="2.086"
   gradientTransform="matrix(-1,0,0,1,332.6641,0)"
   gradientUnits="userSpaceOnUse">
				<stop
   offset="0"
   style="stop-color:#303030"
   id="stop160" />
				<stop
   offset="4.901342e-02"
   style="stop-color:#3F3F3F"
   id="stop162" />
				<stop
   offset="0.1616"
   style="stop-color:#5B5C5C"
   id="stop164" />
				<stop
   offset="0.2734"
   style="stop-color:#707071"
   id="stop166" />
				<stop
   offset="0.3828"
   style="stop-color:#7C7D7E"
   id="stop168" />
				<stop
   offset="0.4873"
   style="stop-color:#808182"
   id="stop170" />
				<stop
   offset="0.5166"
   style="stop-color:#6D6E6E"
   id="stop172" />
				<stop
   offset="0.5762"
   style="stop-color:#4B4C4D"
   id="stop174" />
				<stop
   offset="0.6401"
   style="stop-color:#303031"
   id="stop176" />
				<stop
   offset="0.7087"
   style="stop-color:#1B1B1B"
   id="stop178" />
				<stop
   offset="0.7841"
   style="stop-color:#0C0C0C"
   id="stop180" />
				<stop
   offset="0.8717"
   style="stop-color:#030303"
   id="stop182" />
				<stop
   offset="1"
   style="stop-color:#000000"
   id="stop184" />
			</radialGradient>
			<path
   class="st20"
   d="m 86.3,30.5 c 0,0.8 0.6,1.4 1.4,1.4 0.8,0 1.4,-0.6 1.4,-1.4 0,-0.8 -0.6,-1.4 -1.4,-1.4 -0.8,0 -1.4,0.6 -1.4,1.4 z"
   id="path187"
   style="fill:url(#SVGID_9_)" />
			<radialGradient
   id="SVGID_10_"
   cx="44.748402"
   cy="98.8675"
   r="2.086"
   gradientUnits="userSpaceOnUse">
				<stop
   offset="0"
   style="stop-color:#303030"
   id="stop189" />
				<stop
   offset="4.901342e-02"
   style="stop-color:#3F3F3F"
   id="stop191" />
				<stop
   offset="0.1616"
   style="stop-color:#5B5C5C"
   id="stop193" />
				<stop
   offset="0.2734"
   style="stop-color:#707071"
   id="stop195" />
				<stop
   offset="0.3828"
   style="stop-color:#7C7D7E"
   id="stop197" />
				<stop
   offset="0.4873"
   style="stop-color:#808182"
   id="stop199" />
				<stop
   offset="0.5166"
   style="stop-color:#6D6E6E"
   id="stop201" />
				<stop
   offset="0.5762"
   style="stop-color:#4B4C4D"
   id="stop203" />
				<stop
   offset="0.6401"
   style="stop-color:#303031"
   id="stop205" />
				<stop
   offset="0.7087"
   style="stop-color:#1B1B1B"
   id="stop207" />
				<stop
   offset="0.7841"
   style="stop-color:#0C0C0C"
   id="stop209" />
				<stop
   offset="0.8717"
   style="stop-color:#030303"
   id="stop211" />
				<stop
   offset="1"
   style="stop-color:#000000"
   id="stop213" />
			</radialGradient>
			<path
   class="st21"
   d="m 46.2,98.9 c 0,0.8 -0.6,1.4 -1.4,1.4 -0.8,0 -1.4,-0.6 -1.4,-1.4 0,-0.8 0.6,-1.4 1.4,-1.4 0.7,-0.1 1.4,0.6 1.4,1.4 z"
   id="path216"
   style="fill:url(#SVGID_10_)" />
			
				<radialGradient
   id="SVGID_11_"
   cx="244.9304"
   cy="98.8675"
   r="2.086"
   gradientTransform="matrix(-1,0,0,1,332.6641,0)"
   gradientUnits="userSpaceOnUse">
				<stop
   offset="0"
   style="stop-color:#303030"
   id="stop218" />
				<stop
   offset="4.901342e-02"
   style="stop-color:#3F3F3F"
   id="stop220" />
				<stop
   offset="0.1616"
   style="stop-color:#5B5C5C"
   id="stop222" />
				<stop
   offset="0.2734"
   style="stop-color:#707071"
   id="stop224" />
				<stop
   offset="0.3828"
   style="stop-color:#7C7D7E"
   id="stop226" />
				<stop
   offset="0.4873"
   style="stop-color:#808182"
   id="stop228" />
				<stop
   offset="0.5166"
   style="stop-color:#6D6E6E"
   id="stop230" />
				<stop
   offset="0.5762"
   style="stop-color:#4B4C4D"
   id="stop232" />
				<stop
   offset="0.6401"
   style="stop-color:#303031"
   id="stop234" />
				<stop
   offset="0.7087"
   style="stop-color:#1B1B1B"
   id="stop236" />
				<stop
   offset="0.7841"
   style="stop-color:#0C0C0C"
   id="stop238" />
				<stop
   offset="0.8717"
   style="stop-color:#030303"
   id="stop240" />
				<stop
   offset="1"
   style="stop-color:#000000"
   id="stop242" />
			</radialGradient>
			<path
   class="st22"
   d="m 86.3,98.9 c 0,0.8 0.6,1.4 1.4,1.4 0.8,0 1.4,-0.6 1.4,-1.4 0,-0.8 -0.6,-1.4 -1.4,-1.4 -0.8,-0.1 -1.4,0.6 -1.4,1.4 z"
   id="path245"
   style="fill:url(#SVGID_11_)" />
		</g>
	</g>
</g>
</svg>
