<?xml version="1.0" encoding="UTF-8" standalone="no"?>
<!-- Generator: Adobe Illustrator 19.0.0, SVG Export Plug-In . SVG Version: 6.00 Build 0)  -->

<svg
   version="1.1"
   id="Layer_1"
   x="0px"
   y="0px"
   viewBox="0 0 496.8 496.8"
   style="enable-background:new 0 0 496.8 496.8;"
   xml:space="preserve"
   sodipodi:docname="vmv_source.svg"
   inkscape:version="1.1 (c68e22c387, 2021-05-23)"
   xmlns:inkscape="http://www.inkscape.org/namespaces/inkscape"
   xmlns:sodipodi="http://sodipodi.sourceforge.net/DTD/sodipodi-0.dtd"
   xmlns="http://www.w3.org/2000/svg"
   xmlns:svg="http://www.w3.org/2000/svg"><defs
   id="defs81" /><sodipodi:namedview
   id="namedview79"
   pagecolor="#ffffff"
   bordercolor="#666666"
   borderopacity="1.0"
   inkscape:pageshadow="2"
   inkscape:pageopacity="0.0"
   inkscape:pagecheckerboard="0"
   showgrid="false"
   inkscape:zoom="1.062802"
   inkscape:cx="63.511362"
   inkscape:cy="248.39999"
   inkscape:window-width="1366"
   inkscape:window-height="713"
   inkscape:window-x="0"
   inkscape:window-y="31"
   inkscape:window-maximized="1"
   inkscape:current-layer="Layer_1" />
<path
   style="fill:#363F3E;"
   d="M496,467.2c0,16-12.8,28.8-28.8,28.8H28.8C12.8,496,0,483.2,0,467.2V28.8C0,12.8,12.8,0,28.8,0H468  c16,0,28.8,12.8,28.8,28.8v438.4H496z"
   id="path2" />
<path
   style="fill:#151918;"
   d="M0,28.8C0,12.8,12.8,0,28.8,0H468c16,0,28.8,12.8,28.8,28.8V468c0,16-12.8,28.8-28.8,28.8"
   id="path4" />
<g
   id="g22">
	<path
   style="fill:#B6B7B7;"
   d="M44,51.2c-5.6,8-5.6,19.2,1.6,26.4s18.4,8,26.4,1.6L44,51.2z"
   id="path6" />
	<path
   style="fill:#B6B7B7;"
   d="M48,47.2l28,28c5.6-8,5.6-19.2-1.6-26.4C67.2,41.6,56,40.8,48,47.2z"
   id="path8" />
	<path
   style="fill:#B6B7B7;"
   d="M452,51.2c5.6,8,5.6,19.2-1.6,26.4s-18.4,8-26.4,1.6L452,51.2z"
   id="path10" />
	<path
   style="fill:#B6B7B7;"
   d="M448,47.2l-28,28c-5.6-8-5.6-19.2,1.6-26.4C428.8,41.6,440,40.8,448,47.2z"
   id="path12" />
	<path
   style="fill:#B6B7B7;"
   d="M452,444.8c5.6-8,5.6-19.2-1.6-26.4c-7.2-7.2-18.4-8-26.4-1.6L452,444.8z"
   id="path14" />
	<path
   style="fill:#B6B7B7;"
   d="M448,448.8l-28-28c-5.6,8-5.6,19.2,1.6,26.4C428.8,454.4,440,455.2,448,448.8z"
   id="path16" />
	<path
   style="fill:#B6B7B7;"
   d="M44,444.8c-5.6-8-5.6-19.2,1.6-26.4c7.2-7.2,18.4-8,26.4-1.6L44,444.8z"
   id="path18" />
	<path
   style="fill:#B6B7B7;"
   d="M48,448.8l28-28c5.6,8,5.6,19.2-1.6,26.4C67.2,454.4,56,455.2,48,448.8z"
   id="path20" />
</g>
<circle
   style="fill:#DDDDDD;"
   cx="248"
   cy="248"
   r="182.4"
   id="circle24" />
<path
   style="fill:#dddddd;fill-opacity:1;opacity:0.2"
   d="M119.2,119.2c71.2-71.2,186.4-71.2,257.6,0s71.2,186.4,0,257.6"
   id="path26" />
<path
   style="fill:#ffff00;fill-opacity:1"
   d="M320.8,132c0,42.4-58.4,107.2-81.6,107.2c-24,0-51.2-65.6-51.2-107.2c0-42.4,19.2-53.6,43.2-53.6  C254.4,78.4,320.8,89.6,320.8,132z"
   id="path28" />
<path
   style="fill:#000000;opacity:0.2;fill-opacity:1"
   d="M314.4,111.2C304,112,292,118.4,277.6,132c-27.2,27.2-52,83.2-44,106.4c1.6,0.8,3.2,0.8,4.8,0.8  c24,0,81.6-65.6,81.6-107.2C320.8,124,318.4,117.6,314.4,111.2z"
   id="path30" />
<path
   style="fill:#ffff00;fill-opacity:1"
   d="M175.2,364c0-42.4,58.4-107.2,81.6-107.2S308,322.4,308,364c0,42.4-19.2,53.6-43.2,53.6  C241.6,417.6,175.2,406.4,175.2,364z"
   id="path32" />
<path
   style="fill:#000000;fill-opacity:1;opacity:0.2"
   d="M181.6,384c10.4-0.8,22.4-7.2,36.8-20.8c27.2-27.2,52-83.2,44-106.4c-1.6-0.8-3.2-0.8-4.8-0.8  c-24,0-81.6,65.6-81.6,107.2C175.2,372,177.6,378.4,181.6,384z"
   id="path34" />
<path
   style="fill:#ffff00;fill-opacity:1"
   d="M364,320.8c-42.4,0-107.2-58.4-107.2-81.6c0-24,65.6-51.2,107.2-51.2c42.4,0,53.6,19.2,53.6,43.2  C417.6,254.4,406.4,320.8,364,320.8z"
   id="path36" />
<path
   style="fill:#000000;opacity:0.19955285;fill-opacity:1"
   d="M384.8,314.4C384,304,377.6,292,364,277.6c-27.2-27.2-83.2-52-106.4-44c-0.8,1.6-0.8,3.2-0.8,4.8  c0,24,65.6,81.6,107.2,81.6C372,320.8,378.4,318.4,384.8,314.4z"
   id="path38" />
<path
   style="fill:#ffff00;fill-opacity:1"
   d="M132,175.2c42.4,0,107.2,58.4,107.2,81.6c0,24-65.6,51.2-107.2,51.2c-42.4,0-53.6-19.2-53.6-43.2  S89.6,175.2,132,175.2z"
   id="path40" />
<path
   style="fill:#000000;fill-opacity:1;opacity:0.19892135"
   d="M111.2,181.6c0.8,10.4,7.2,22.4,20.8,36.8c27.2,27.2,83.2,52,106.4,44c0.8-1.6,0.8-3.2,0.8-4.8  c0-24-65.6-81.6-107.2-81.6C124,175.2,117.6,177.6,111.2,181.6z"
   id="path42" />
<circle
   style="fill:#ffff00;fill-opacity:1"
   cx="248"
   cy="248"
   r="32.8"
   id="circle44" />
<path
   style="fill:#000000;opacity:0.2;fill-opacity:1"
   d="M224.8,224.8c12.8-12.8,33.6-12.8,47.2,0c12.8,12.8,12.8,33.6,0,47.2"
   id="path46" />
<g
   id="g48">
</g>
<g
   id="g50">
</g>
<g
   id="g52">
</g>
<g
   id="g54">
</g>
<g
   id="g56">
</g>
<g
   id="g58">
</g>
<g
   id="g60">
</g>
<g
   id="g62">
</g>
<g
   id="g64">
</g>
<g
   id="g66">
</g>
<g
   id="g68">
</g>
<g
   id="g70">
</g>
<g
   id="g72">
</g>
<g
   id="g74">
</g>
<g
   id="g76">
</g>
</svg>
