<?xml version="1.0" encoding="UTF-8" standalone="no"?>
<svg
   xmlns:dc="http://purl.org/dc/elements/1.1/"
   xmlns:cc="http://creativecommons.org/ns#"
   xmlns:rdf="http://www.w3.org/1999/02/22-rdf-syntax-ns#"
   xmlns:svg="http://www.w3.org/2000/svg"
   xmlns="http://www.w3.org/2000/svg"
   id="svg4543"
   xml:space="preserve"
   enable-background="new 0 0 1000 1000"
   viewBox="0 0 1000 1000"
   y="0px"
   x="0px"
   version="1.1"><defs
   id="defs4547" />
<metadata
   id="metadata4537"> Svg Vector Icons : http://www.onlinewebfonts.com/icon <rdf:RDF><cc:Work
     rdf:about=""><dc:format>image/svg+xml</dc:format><dc:type
       rdf:resource="http://purl.org/dc/dcmitype/StillImage" /><dc:title></dc:title></cc:Work></rdf:RDF></metadata>
<g
   style="fill:#000000;fill-opacity:1"
   id="g4541"><path
     id="path4539"
     d="M374.8,873.2c-5.7-2-20.6-15.7-61.2-56.2l-53.7-53.6l-35.4-0.6c-34.3-0.6-35.7-0.8-44-5.7c-5.3-3.1-10.5-8.3-13.4-13.4c-4.6-8.1-4.8-9.6-5.4-50.9l-0.6-42.6h-18.8h-18.8l-0.7,42.6c-0.8,47.2-1.3,49.3-14,60.4c-9.3,8.1-13.2,8.9-44.1,8.9c-21.5,0-28-0.7-32.7-3.3c-9.7-5.3-17.4-15.6-19.7-26.3c-3-13.8-2.9-264,0.1-277.9c1.7-7.7,4-12,10-18c10.2-10.3,22.5-13,52-11.7c22,1,26.9,2.4,36,10.8c11.1,10.3,11.6,12.8,12.4,59.1l0.7,42.6h18.8H161l0.6-42.6c0.6-42.1,0.7-42.7,5.7-51.2c3.1-5.3,8.3-10.5,13.4-13.4c8-4.6,9.6-4.8,43.2-4.8l34.9,0l55-54.8c54.4-54.2,55.1-54.8,65.5-57c7.7-1.6,66.8-2.1,221-1.6l210.5,0.6l8.6,5.1c5.3,3.1,10.5,8.3,13.4,13.4l4.8,8.3l0.5,99l0.5,99h18.9h18.9l0.6-42.6c0.7-46.3,1.2-48.7,12.4-59.1c9-8.4,13.9-9.8,36-10.8c29.5-1.3,41.8,1.5,52,11.7c6,6,8.4,10.3,10,18c3,13.9,3,264.1,0.1,277.9c-2.3,10.8-10,21-19.7,26.3c-4.8,2.6-11.2,3.2-32.7,3.3c-30.9,0-34.8-0.8-44.1-8.9c-12.7-11.1-13.2-13.2-14-60.4l-0.7-42.6h-18.8h-18.8l-0.7,24.4c-0.6,21.1-1.2,25.3-4.9,31.1c-2.3,3.7-40.2,42.5-84.2,86.3c-74.5,74.1-80.6,79.8-89,81.8c-6.3,1.5-49.4,2.2-143.5,2.1C406.4,875.9,381,875.4,374.8,873.2L374.8,873.2z M534.5,678.9l82.8-104.3l-42.4-0.5c-23.3-0.3-42.4-0.9-42.4-1.3c0-0.4,20.2-34.1,45-74.8c24.7-40.7,45-74.3,45-74.8c0-0.4-22.5-0.6-50-0.3l-50,0.5L475,519.6l-47.4,96.2h39.1c21.5,0,39.1,0.4,39.1,0.8S492,655.9,475.1,703c-16.8,47.1-30.6,86.1-30.6,86.7C444.5,792,455,779.1,534.5,678.9L534.5,678.9z M500,254.2v-19l-43.7-0.6l-43.7-0.6l-7.9-5.3c-12.4-8.2-16.2-17.5-17.2-42.7c-1.4-34.8,4.4-50.7,21.4-58.4c7.5-3.4,15.2-3.6,147.6-3.6c132.4,0,140.1,0.2,147.6,3.6c17.1,7.8,22.7,22.7,21.5,57.2c-0.9,26.5-4,34.4-16.7,43.4l-8.1,5.7l-43.9,0.6l-43.9,0.6v19v19h-56.5H500V254.2L500,254.2z" /></g>
</svg>
