<?xml version="1.0" encoding="UTF-8" standalone="no"?>
<svg
   xmlns:dc="http://purl.org/dc/elements/1.1/"
   xmlns:cc="http://creativecommons.org/ns#"
   xmlns:rdf="http://www.w3.org/1999/02/22-rdf-syntax-ns#"
   xmlns:svg="http://www.w3.org/2000/svg"
   xmlns="http://www.w3.org/2000/svg"
   xmlns:sodipodi="http://sodipodi.sourceforge.net/DTD/sodipodi-0.dtd"
   xmlns:inkscape="http://www.inkscape.org/namespaces/inkscape"
   id="svg38"
   enable-background="new 0 0 500 500"
   version="1.1"
   viewBox="0 0 1600 1600"
   width="128"
   height="128"
   xml:space="preserve"
   sodipodi:docname="activite_manu.svg"
   inkscape:version="1.0.2 (e86c870879, 2021-01-15)">
  <metadata
   id="metadata9">
    <rdf:RDF>
      <cc:Work
   rdf:about="">
        <dc:format>image/svg+xml</dc:format>
        <dc:type
   rdf:resource="http://purl.org/dc/dcmitype/StillImage" />
        <dc:title />
      </cc:Work>
    </rdf:RDF>
  </metadata>
  <defs
   id="defs7">

    

  <filter
   inkscape:collect="always"
   style="color-interpolation-filters:sRGB"
   id="filter929"
   x="-0.00061885029"
   width="1.0012378"
   y="-0.00057464669"
   height="1.0011493"><feGaussianBlur
     inkscape:collect="always"
     stdDeviation="0.42906953"
     id="feGaussianBlur931" /></filter></defs>
  <sodipodi:namedview
   inkscape:pagecheckerboard="true"
   inkscape:current-layer="layer-Auto"
   pagecolor="#ffffff"
   bordercolor="#666666"
   inkscape:document-rotation="0"
   borderopacity="1"
   objecttolerance="10"
   gridtolerance="10"
   guidetolerance="10"
   inkscape:pageopacity="0"
   inkscape:pageshadow="2"
   inkscape:window-width="1920"
   inkscape:window-height="979"
   id="namedview5"
   showgrid="false"
   inkscape:zoom="4.1200001"
   inkscape:cx="53.430714"
   inkscape:cy="68.529081"
   inkscape:window-x="0"
   inkscape:window-y="0"
   inkscape:window-maximized="1"
   units="px"
   width="128mm" />
  <circle
   transform="matrix(32.073652,0,0,32.073652,299.09829,-138.0357)"
   cy="29.246302"
   cx="15.617233"
   id="cercle"
   style="fill:none;fill-opacity:1;stroke:#0000ff;stroke-width:1.16918;stroke-miterlimit:4;stroke-dasharray:none;stroke-opacity:0.7"
   r="24.358" />

  <g
   style="display:inline"
   inkscape:groupmode="layer"
   id="layer-Auto"
   inkscape:label="Auto"><path
   style="display:inline;mix-blend-mode:normal;fill:#ffc800;fill-opacity:1;fill-rule:nonzero;stroke:none;stroke-width:0;stroke-miterlimit:4;stroke-dasharray:none;stroke-opacity:0.978156;filter:url(#filter929)"
   transform="matrix(0.70591643,0,0,0.65676289,163.75457,168.36548)"
   inkscape:connector-curvature="0"
   id="path2"
   d="m 640,128 q -53,0 -90.5,37.5 Q 512,203 512,256 v 896 L 361,950 q -41,-54 -107,-54 -52,0 -89,38 -37,38 -37,90 0,43 26,77 l 384,512 q 38,51 102,51 h 718 q 22,0 39.5,-13.5 17.5,-13.5 22.5,-34.5 l 92,-368 q 24,-96 24,-194 V 837 q 0,-41 -28,-71 -28,-30 -68,-30 -40,0 -68,28 -28,28 -28,68 h -32 v -61 q 0,-48 -32,-81.5 -32,-33.5 -80,-33.5 -46,0 -79,33 -33,33 -33,79 v 64 h -32 v -90 q 0,-55 -37,-94.5 Q 982,608 928,608 875,608 837.5,645.5 800,683 800,736 v 96 H 768 V 262 Q 768,207 731,167.5 694,128 640,128 Z M 640,0 Q 747,0 821.5,77.5 896,155 896,262 v 220 q 22,-2 32,-2 99,0 173,69 47,-21 99,-21 113,0 184,87 27,-7 56,-7 94,0 159,67.5 65,67.5 65,161.5 v 217 q 0,116 -28,225 l -92,368 q -16,64 -68,104.5 -52,40.5 -118,40.5 H 640 q -60,0 -114.5,-27.5 Q 471,1737 435,1690 L 51,1178 Q 0,1110 0,1024 0,919 74.5,843.5 149,768 254,768 q 71,0 130,35 V 256 Q 384,150 459,75 534,0 640,0 Z m 128,1408 v -384 h -32 v 384 z m 256,0 v -384 h -32 v 384 z m 256,0 v -384 h -32 v 384 z" />
  </g>

  <script
   id="SetMode"
   type="text/javascript">
    { console.log(&quot;Appel au svg &quot;+this.motif.libelle+&quot; avec mode=&quot;+mode);
      if (mode==null)  mode=0;
    if (mode==0)
    { this.getElementById(&quot;layer-Auto&quot;).setAttribute(&quot;visibility&quot;, &quot;visible&quot; );
    this.getElementById(&quot;layer-Manu&quot;).setAttribute(&quot;visibility&quot;, &quot;hidden&quot; );
    this.getElementById(&quot;layer-Maintenance&quot;).setAttribute(&quot;visibility&quot;, &quot;hidden&quot; );
    }
    else if (mode==1)
    { this.getElementById(&quot;layer-Auto&quot;).setAttribute(&quot;visibility&quot;, &quot;hidden&quot; );
    this.getElementById(&quot;layer-Manu&quot;).setAttribute(&quot;visibility&quot;, &quot;visible&quot; );
    this.getElementById(&quot;layer-Maintenance&quot;).setAttribute(&quot;visibility&quot;, &quot;hidden&quot; );
    }
    else if (mode==2)
    { this.getElementById(&quot;layer-Auto&quot;).setAttribute(&quot;visibility&quot;, &quot;hidden&quot; );
    this.getElementById(&quot;layer-Manu&quot;).setAttribute(&quot;visibility&quot;, &quot;hidden&quot; );
    this.getElementById(&quot;layer-Maintenance&quot;).setAttribute(&quot;visibility&quot;, &quot;visible&quot; );
    }
    }
  </script>
</svg>
