<?xml version="1.0" encoding="UTF-8" standalone="no"?>
<svg
   xmlns:dc="http://purl.org/dc/elements/1.1/"
   xmlns:cc="http://creativecommons.org/ns#"
   xmlns:rdf="http://www.w3.org/1999/02/22-rdf-syntax-ns#"
   xmlns:svg="http://www.w3.org/2000/svg"
   xmlns="http://www.w3.org/2000/svg"
   xmlns:xlink="http://www.w3.org/1999/xlink"
   xmlns:sodipodi="http://sodipodi.sourceforge.net/DTD/sodipodi-0.dtd"
   xmlns:inkscape="http://www.inkscape.org/namespaces/inkscape"
   id="svg38"
   enable-background="new 0 0 500 500"
   version="1.1"
   viewBox="0 0 1600 1600"
   width="128"
   height="128"
   xml:space="preserve"
   sodipodi:docname="auto_manu_sauto.svg"
   inkscape:version="1.0.2 (e86c870879, 2021-01-15)">
  <metadata
   id="metadata9">
    <rdf:RDF>
      <cc:Work
   rdf:about="">
        <dc:format>image/svg+xml</dc:format>
        <dc:type
   rdf:resource="http://purl.org/dc/dcmitype/StillImage" />
        <dc:title></dc:title>
      </cc:Work>
    </rdf:RDF>
  </metadata>
  <defs
   id="defs7">

    

  <filter
   inkscape:collect="always"
   style="color-interpolation-filters:sRGB"
   id="filter929"
   x="-0.00061885029"
   width="1.0012378"
   y="-0.00057464669"
   height="1.0011493"><feGaussianBlur
     inkscape:collect="always"
     stdDeviation="0.42906953"
     id="feGaussianBlur931" /></filter></defs>
  <sodipodi:namedview
   inkscape:pagecheckerboard="true"
   inkscape:current-layer="layer-Auto"
   pagecolor="#ffffff"
   bordercolor="#666666"
   inkscape:document-rotation="0"
   borderopacity="1"
   objecttolerance="10"
   gridtolerance="10"
   guidetolerance="10"
   inkscape:pageopacity="0"
   inkscape:pageshadow="2"
   inkscape:window-width="1920"
   inkscape:window-height="979"
   id="namedview5"
   showgrid="false"
   inkscape:zoom="4.1200001"
   inkscape:cx="53.430714"
   inkscape:cy="68.529081"
   inkscape:window-x="0"
   inkscape:window-y="0"
   inkscape:window-maximized="1"
   units="px"
   width="128mm" />
  <circle
   transform="matrix(32.073652,0,0,32.073652,299.09829,-138.0357)"
   cy="29.246302"
   cx="15.617233"
   id="cercle"
   style="fill:none;fill-opacity:1;stroke:#0000ff;stroke-width:1.16918;stroke-miterlimit:4;stroke-dasharray:none;stroke-opacity:0.7"
   r="24.358" />

  <g
   style="display:inline"
   inkscape:groupmode="layer"
   id="layer-Auto"
   inkscape:label="Auto"><path
   style="display:inline;mix-blend-mode:normal;fill:#ffc800;fill-opacity:1;fill-rule:nonzero;stroke:none;stroke-width:0;stroke-miterlimit:4;stroke-dasharray:none;stroke-opacity:0.978156;filter:url(#filter929)"
   transform="matrix(0.64834698,0,0,0.60320858,163.75457,168.36549)"
   inkscape:connector-curvature="0"
   id="path2"
   d="m 640,128 q -53,0 -90.5,37.5 Q 512,203 512,256 v 896 L 361,950 q -41,-54 -107,-54 -52,0 -89,38 -37,38 -37,90 0,43 26,77 l 384,512 q 38,51 102,51 h 718 q 22,0 39.5,-13.5 17.5,-13.5 22.5,-34.5 l 92,-368 q 24,-96 24,-194 V 837 q 0,-41 -28,-71 -28,-30 -68,-30 -40,0 -68,28 -28,28 -28,68 h -32 v -61 q 0,-48 -32,-81.5 -32,-33.5 -80,-33.5 -46,0 -79,33 -33,33 -33,79 v 64 h -32 v -90 q 0,-55 -37,-94.5 Q 982,608 928,608 875,608 837.5,645.5 800,683 800,736 v 96 H 768 V 262 Q 768,207 731,167.5 694,128 640,128 Z M 640,0 Q 747,0 821.5,77.5 896,155 896,262 v 220 q 22,-2 32,-2 99,0 173,69 47,-21 99,-21 113,0 184,87 27,-7 56,-7 94,0 159,67.5 65,67.5 65,161.5 v 217 q 0,116 -28,225 l -92,368 q -16,64 -68,104.5 -52,40.5 -118,40.5 H 640 q -60,0 -114.5,-27.5 Q 471,1737 435,1690 L 51,1178 Q 0,1110 0,1024 0,919 74.5,843.5 149,768 254,768 q 71,0 130,35 V 256 Q 384,150 459,75 534,0 640,0 Z m 128,1408 v -384 h -32 v 384 z m 256,0 v -384 h -32 v 384 z m 256,0 v -384 h -32 v 384 z" />
  <g
   id="g134"
   transform="matrix(4.710589,0,0,4.710589,839.58193,866.0022)"
   style="stroke-width:2.6536">
	<pattern
   id="SVGID_1_"
   xlink:href="#SVGID_11_"
   patternTransform="matrix(1.3281 0 0 1.3281 2550.5457 2629.2908)">
	</pattern>
	
	
	<g
   id="g132"
   style="stroke-width:2.6536">
		<g
   id="g74"
   style="stroke-width:2.6536">
			<g
   class="st4"
   id="g31"
   style="stroke-width:2.6536">
			</g>
			<g
   id="g37"
   style="stroke-width:2.6536">
				<path
   class="st5"
   d="m 47.9,55.2 c -0.4,0 -0.7,-0.1 -1,-0.4 L 26.3,34.2 c -0.5,-0.5 -0.5,-1.4 0,-2 0.5,-0.5 1.4,-0.5 2,0 l 20.5,20.5 c 0.5,0.5 0.5,1.4 0,2 -0.2,0.3 -0.6,0.5 -0.9,0.5 z"
   id="path33"
   style="stroke-width:2.6536" />
				<path
   class="st6"
   d="m 49.9,31.2 -24.7,24.6 -3,-3 c -3.7,-3.7 -3.7,-9.6 0,-13.3 L 33.6,28.1 c 3.7,-3.7 9.6,-3.7 13.3,0 z"
   id="path35"
   style="stroke-width:2.6536" />
			</g>
			<g
   id="g43"
   style="stroke-width:2.6536">
				<path
   class="st5"
   d="m 80.2,55.2 c 0.4,0 0.7,-0.1 1,-0.4 l 20.5,-20.5 c 0.5,-0.5 0.5,-1.4 0,-2 -0.5,-0.5 -1.4,-0.5 -2,0 L 79.2,52.8 c -0.5,0.5 -0.5,1.4 0,2 0.2,0.2 0.6,0.4 1,0.4 z"
   id="path39"
   style="stroke-width:2.6536" />
				<path
   class="st6"
   d="m 78.1,31.2 24.7,24.7 3,-3 c 3.7,-3.7 3.7,-9.6 0,-13.3 L 94.4,28.1 c -3.7,-3.7 -9.6,-3.7 -13.3,0 z"
   id="path41"
   style="stroke-width:2.6536" />
			</g>
			<linearGradient
   id="SVGID_3_"
   gradientUnits="userSpaceOnUse"
   x1="64.300903"
   y1="36.785801"
   x2="63.7271"
   y2="104.3707">
				<stop
   offset="0"
   style="stop-color:#F43942"
   id="stop45" />
				<stop
   offset="0.5335"
   style="stop-color:#CE212E"
   id="stop47" />
				<stop
   offset="1"
   style="stop-color:#7D141C"
   id="stop49" />
			</linearGradient>
			<circle
   class="st7"
   cx="64"
   cy="70.800003"
   r="34.900002"
   id="circle52"
   style="fill:url(#SVGID_3_);stroke-width:2.6536" />
			<linearGradient
   id="SVGID_4_"
   gradientUnits="userSpaceOnUse"
   x1="64.185501"
   y1="100.9264"
   x2="63.8414"
   y2="41.258999">
				<stop
   offset="0"
   style="stop-color:#F43942"
   id="stop54" />
				<stop
   offset="0.5335"
   style="stop-color:#CE212E"
   id="stop56" />
				<stop
   offset="1"
   style="stop-color:#7D141C"
   id="stop58" />
			</linearGradient>
			<circle
   class="st8"
   cx="64"
   cy="70.800003"
   r="30.299999"
   id="circle61"
   style="fill:url(#SVGID_4_);stroke-width:2.6536" />
			<circle
   class="st9"
   cx="64"
   cy="70.800003"
   r="29.1"
   id="circle63"
   style="stroke-width:2.6536" />
			<circle
   cx="64"
   cy="70.800003"
   r="2"
   id="circle65"
   style="stroke-width:2.6536" />
			<linearGradient
   id="SVGID_5_"
   gradientUnits="userSpaceOnUse"
   x1="63.917702"
   y1="41.0569"
   x2="64.089798"
   y2="95.445999">
				<stop
   offset="0.3513"
   style="stop-color:#FFFFFF"
   id="stop67" />
				<stop
   offset="1"
   style="stop-color:#FFECCE"
   id="stop69" />
			</linearGradient>
			<circle
   class="st10"
   cx="64"
   cy="70.800003"
   r="29.1"
   id="circle72"
   style="fill:url(#SVGID_5_);stroke-width:2.6536" />
		</g>
		<g
   id="g124"
   style="stroke-width:2.6536">
			<g
   id="g108"
   style="stroke-width:2.6536">
				<rect
   x="63.200001"
   y="42.400002"
   class="st11"
   width="1.3"
   height="3.9000001"
   id="rect76"
   style="stroke-width:2.6536" />
				
					<rect
   x="80.699997"
   y="52"
   transform="matrix(0.707,-0.7072,0.7072,0.707,-12.7215,73.8123)"
   class="st11"
   width="4.0999999"
   height="0.5"
   id="rect78"
   style="stroke-width:2.6536" />
				
					<rect
   x="82.599998"
   y="88"
   transform="matrix(0.7072,-0.707,0.707,0.7072,-39.3729,84.8998)"
   class="st11"
   width="0.5"
   height="3.9000001"
   id="rect80"
   style="stroke-width:2.6536" />
				
					<rect
   x="43.099998"
   y="89.800003"
   transform="matrix(0.707,-0.7072,0.7072,0.707,-50.4766,58.208)"
   class="st11"
   width="3.9000001"
   height="0.5"
   id="rect82"
   style="stroke-width:2.6536" />
				
					<rect
   x="44.700001"
   y="50.299999"
   transform="matrix(0.707,-0.7072,0.7072,0.707,-23.738,47.1102)"
   class="st11"
   width="0.5"
   height="3.9000001"
   id="rect84"
   style="stroke-width:2.6536" />
				
					<rect
   x="53.599998"
   y="44.400002"
   transform="matrix(0.9267,-0.3758,0.3758,0.9267,-13.4614,23.6271)"
   class="st11"
   width="0.5"
   height="3.9000001"
   id="rect86"
   style="stroke-width:2.6536" />
				
					<rect
   x="38.900002"
   y="59.200001"
   transform="matrix(0.3712,-0.9286,0.9286,0.3712,-32.2337,74.801)"
   class="st11"
   width="0.5"
   height="4"
   id="rect88"
   style="stroke-width:2.6536" />
				
					<rect
   x="37.599998"
   y="82"
   transform="matrix(0.9106,-0.4134,0.4134,0.9106,-30.4397,23.6847)"
   class="st11"
   width="3.8"
   height="0.5"
   id="rect90"
   style="stroke-width:2.6536" />
				<rect
   x="51.299999"
   y="95.400002"
   transform="matrix(0.4,-0.9165,0.9165,0.4,-55.7132,106.1491)"
   class="st11"
   width="3.9000001"
   height="0.5"
   id="rect92"
   style="stroke-width:2.6536" />
				
					<rect
   x="74.5"
   y="93.699997"
   transform="matrix(0.9148,-0.4039,0.4039,0.9148,-32.2461,38.3373)"
   class="st11"
   width="0.5"
   height="3.8"
   id="rect94"
   style="stroke-width:2.6536" />
				
					<rect
   x="88.400002"
   y="79.599998"
   transform="matrix(0.3871,-0.922,0.922,0.3871,-20.7916,131.6163)"
   class="st11"
   width="0.5"
   height="3.8"
   id="rect96"
   style="stroke-width:2.6536" />
				
					<rect
   x="86.400002"
   y="60.299999"
   transform="matrix(0.9182,-0.3961,0.3961,0.9182,-16.7355,39.9658)"
   class="st11"
   width="4"
   height="0.5"
   id="rect98"
   style="stroke-width:2.6536" />
				
					<rect
   x="72.900002"
   y="46.5"
   transform="matrix(0.4101,-0.912,0.912,0.4101,1.5501,95.8174)"
   class="st11"
   width="3.9000001"
   height="0.5"
   id="rect100"
   style="stroke-width:2.6536" />
				<rect
   x="88.599998"
   y="70.300003"
   class="st11"
   width="4.0999999"
   height="1.4"
   id="rect102"
   style="stroke-width:2.6536" />
				<rect
   x="63.400002"
   y="95.599998"
   class="st11"
   width="1.4"
   height="4.3000002"
   id="rect104"
   style="stroke-width:2.6536" />
				<rect
   x="35.299999"
   y="70.599998"
   class="st11"
   width="3.9000001"
   height="1.3"
   id="rect106"
   style="stroke-width:2.6536" />
			</g>
			<rect
   x="40.599998"
   y="81.599998"
   transform="matrix(0.6598,-0.7515,0.7515,0.6598,-42.8599,69.0162)"
   width="28.4"
   height="0.40000001"
   id="rect110"
   style="stroke-width:2.6536" />
			<g
   id="g116"
   style="stroke-width:2.6536">
				<path
   class="st12"
   d="m 63.5,69.5 -11,-9.7 10,10.7 c -0.3,0.7 -0.1,1.5 0.4,2 0.7,0.7 1.9,0.7 2.6,0 0.7,-0.7 0.7,-1.9 0,-2.6 -0.6,-0.5 -1.4,-0.6 -2,-0.4 z"
   id="path112"
   style="stroke-width:2.6536" />
				<path
   class="st13"
   d="m 64.8,70.6 c 0.4,0.4 0.4,1 0,1.3 -0.4,0.4 -1,0.4 -1.3,0 -0.4,-0.4 -0.4,-1 0,-1.3 0.3,-0.3 0.9,-0.3 1.3,0 z"
   id="path114"
   style="stroke-width:2.6536" />
			</g>
			<g
   id="g122"
   style="stroke-width:2.6536">
				<path
   class="st14"
   d="m 66,71 20.8,-14.3 -21.6,13 c -0.6,-0.4 -1.4,-0.4 -2,0 -0.9,0.6 -1.1,1.7 -0.6,2.6 0.6,0.9 1.7,1.1 2.6,0.6 0.6,-0.5 0.9,-1.2 0.8,-1.9 z"
   id="path118"
   style="stroke-width:2.6536" />
				<path
   class="st13"
   d="m 64.6,72 c -0.4,0.3 -1,0.1 -1.3,-0.3 -0.3,-0.4 -0.1,-1 0.3,-1.3 0.4,-0.3 1,-0.1 1.3,0.3 0.3,0.5 0.2,1.1 -0.3,1.3 z"
   id="path120"
   style="stroke-width:2.6536" />
			</g>
		</g>
		<g
   id="g130"
   style="stroke-width:2.6536">
			<rect
   x="63.200001"
   y="30.4"
   class="st15"
   width="1.3"
   height="5.4000001"
   id="rect126"
   style="stroke-width:2.6536" />
			<path
   class="st16"
   d="m 66.3,29.2 h -4.8 c -1,0 -1.9,0.4 -1.9,0.9 v 0 c 0,0.5 0.8,0.9 1.9,0.9 h 4.8 c 1,0 1.9,-0.4 1.9,-0.9 v 0 c 0,-0.5 -0.8,-0.9 -1.9,-0.9 z"
   id="path128"
   style="stroke-width:2.6536" />
		</g>
	</g>
</g></g>

  <script
   id="SetMode"
   type="text/javascript">
    { console.log(&quot;Appel au svg &quot;+this.motif.libelle+&quot; avec mode=&quot;+mode);
      if (mode==null)  mode=0;
    if (mode==0)
    { this.getElementById(&quot;layer-Auto&quot;).setAttribute(&quot;visibility&quot;, &quot;visible&quot; );
    this.getElementById(&quot;layer-Manu&quot;).setAttribute(&quot;visibility&quot;, &quot;hidden&quot; );
    this.getElementById(&quot;layer-Maintenance&quot;).setAttribute(&quot;visibility&quot;, &quot;hidden&quot; );
    }
    else if (mode==1)
    { this.getElementById(&quot;layer-Auto&quot;).setAttribute(&quot;visibility&quot;, &quot;hidden&quot; );
    this.getElementById(&quot;layer-Manu&quot;).setAttribute(&quot;visibility&quot;, &quot;visible&quot; );
    this.getElementById(&quot;layer-Maintenance&quot;).setAttribute(&quot;visibility&quot;, &quot;hidden&quot; );
    }
    else if (mode==2)
    { this.getElementById(&quot;layer-Auto&quot;).setAttribute(&quot;visibility&quot;, &quot;hidden&quot; );
    this.getElementById(&quot;layer-Manu&quot;).setAttribute(&quot;visibility&quot;, &quot;hidden&quot; );
    this.getElementById(&quot;layer-Maintenance&quot;).setAttribute(&quot;visibility&quot;, &quot;visible&quot; );
    }
    }
  </script>
<style
   type="text/css"
   id="style2">
	.st0{fill:none;}
	.st1{fill:#572A2D;}
	.st2{fill:url(#SVGID_1_);}
	.st3{fill:url(#SVGID_2_);}
	.st4{opacity:0.7;}
	.st5{fill:#A40F1C;}
	.st6{fill:#C1272D;}
	.st7{fill:url(#SVGID_3_);}
	.st8{fill:url(#SVGID_4_);}
	.st9{fill:#FFF9F0;}
	.st10{fill:url(#SVGID_5_);}
	.st11{fill:#5C5C5C;}
	.st12{fill:#404040;}
	.st13{fill:#636363;}
	.st14{fill:#2E2E2E;}
	.st15{fill:#797979;}
	.st16{fill:#EEEBD9;}
</style></svg>
