<?xml version="1.0" encoding="UTF-8" standalone="no"?>
<!-- Generator: Adobe Illustrator 22.1.0, SVG Export Plug-In . SVG Version: 6.00 Build 0)  -->

<svg
   version="1.1"
   id="Calque_3"
   x="0px"
   y="0px"
   viewBox="0 0 128 128"
   style="enable-background:new 0 0 128 128;"
   xml:space="preserve"
   sodipodi:docname="chaudiere_gaz_off.svg"
   inkscape:version="1.1 (c68e22c387, 2021-05-23)"
   xmlns:inkscape="http://www.inkscape.org/namespaces/inkscape"
   xmlns:sodipodi="http://sodipodi.sourceforge.net/DTD/sodipodi-0.dtd"
   xmlns="http://www.w3.org/2000/svg"
   xmlns:svg="http://www.w3.org/2000/svg"><defs
   id="defs130"><linearGradient
     id="SVGID_1_"
     gradientUnits="userSpaceOnUse"
     x1="72.800102"
     y1="65.1334"
     x2="52.4259"
     y2="88.902702"><stop
       offset="0.2511"
       style="stop-color:#000000"
       id="stop106" /><stop
       offset="0.3564"
       style="stop-color:#020202"
       id="stop108" /><stop
       offset="0.3944"
       style="stop-color:#070809"
       id="stop110" /><stop
       offset="0.4214"
       style="stop-color:#121214"
       id="stop112" /><stop
       offset="0.4433"
       style="stop-color:#202125"
       id="stop114" /><stop
       offset="0.462"
       style="stop-color:#33343B"
       id="stop116" /><stop
       offset="0.4783"
       style="stop-color:#4A4C56"
       id="stop118" /><stop
       offset="0.4853"
       style="stop-color:#565864"
       id="stop120" /></linearGradient></defs><sodipodi:namedview
   id="namedview128"
   pagecolor="#161616"
   bordercolor="#666666"
   borderopacity="1.0"
   inkscape:pageshadow="2"
   inkscape:pageopacity="0"
   inkscape:pagecheckerboard="0"
   showgrid="false"
   inkscape:zoom="6.0625"
   inkscape:cx="36.041237"
   inkscape:cy="64"
   inkscape:window-width="1920"
   inkscape:window-height="1043"
   inkscape:window-x="0"
   inkscape:window-y="0"
   inkscape:window-maximized="1"
   inkscape:current-layer="g98" />
<style
   type="text/css"
   id="style2">
	.st0{fill:#AFBBC5;}
	.st1{fill:#808080;}
	.st2{fill:#466EB6;}
	.st3{fill:#E4E4E4;}
	.st4{fill:#CACACA;}
	.st5{fill:#B1B1B1;}
	.st6{fill:#FFFFFF;}
	.st7{fill:#F0F0F0;}
	.st8{fill:#666666;}
	.st9{fill:#979797;}
	.st10{fill:#262626;}
	.st11{fill:#020202;}
	.st12{opacity:0.3;fill:url(#SVGID_1_);enable-background:new    ;}
</style>
<g
   id="g100">
	<g
   id="g98">
		<g
   id="g16">
			<rect
   x="77.3"
   y="103.1"
   class="st0"
   width="5.3"
   height="2.6"
   id="rect4" />
			<rect
   x="74.9"
   y="102.3"
   class="st1"
   width="3"
   height="4.2"
   id="rect6" />
			<g
   id="g12">
				<path
   class="st2"
   d="M82.4,103.8h-1.8c-0.6,0-1.2-3.7-1.2-3.7c0-0.3,0.5-0.6,1.2-0.6c0.3,0,0.6,0.2,0.9,0.2s0.5-0.2,0.9-0.2      c0.6,0,1.1,0.3,1.1,0.6C83.5,100.1,83,103.8,82.4,103.8z"
   id="path8" />
				<path
   class="st2"
   d="M82.4,105.1h-1.8c-0.6,0-1.2,3.7-1.2,3.7c0,0.3,0.5,0.6,1.2,0.6c0.3,0,0.6-0.2,0.9-0.2s0.5,0.2,0.9,0.2      c0.6,0,1.1-0.3,1.1-0.6C83.5,108.7,83,105.1,82.4,105.1z"
   id="path10" />
			</g>
			<path
   class="st3"
   d="M80.7,105.3c-0.5,0-0.9-0.3-0.9-0.6v-0.4c0-0.3,0.4-0.6,0.9-0.6h1.5c0.5,0,0.9,0.3,0.9,0.6v0.4     c0,0.3-0.4,0.6-0.9,0.6H80.7z"
   id="path14" />
		</g>
		<rect
   x="51.5"
   y="93.9"
   class="st4"
   width="4.2"
   height="17.3"
   id="rect18"
   style="fill:#466eb6;fill-opacity:1" />
		<rect
   x="72.1"
   y="94"
   class="st4"
   width="4.2"
   height="17.3"
   id="rect20"
   style="fill:#466eb6;fill-opacity:1" />
		<g
   id="g88">
			<path
   class="st4"
   d="M92.2,92.5L92.2,92.5L92.2,92.5L92.2,92.5z"
   id="path22" />
			<path
   class="st4"
   d="M63.8,92.5H64C63.9,92.5,63.9,92.5,63.8,92.5L63.8,92.5z"
   id="path24" />
			<path
   class="st4"
   d="M92.2,16.4L92.2,16.4C92.1,16.4,92.2,16.4,92.2,16.4L92.2,16.4z"
   id="path26" />
			<path
   class="st4"
   d="M35.6,16.4L35.6,16.4C35.7,16.4,35.7,16.4,35.6,16.4L35.6,16.4z"
   id="path28" />
			<g
   id="g36">
				<path
   class="st5"
   d="M63.9,13.6c-10.4,0-20,1-28.2,2.8h56.4C84,14.6,74.3,13.6,63.9,13.6z"
   id="path30" />
				<path
   class="st5"
   d="M63.9,95.3c10.4,0,20-1,28.2-2.8H35.8C43.9,94.3,53.6,95.3,63.9,95.3z"
   id="path32" />
				<path
   class="st6"
   d="M92.1,16.4H35.7h-0.1v30.3v15.4v30.3h0.1H92h0.1V62.2V46.8V16.4C92.2,16.4,92.1,16.4,92.1,16.4z"
   id="path34" />
			</g>
			<rect
   x="53.1"
   y="93.9"
   class="st7"
   width="21.6"
   height="9.7"
   id="rect38" />
			<g
   id="g76">
				<g
   id="g42">
					<path
   class="st8"
   d="M65.6,99.5c0,0,0-0.1,0.1-0.3c0-0.1,0-0.3,0-0.3l2,0.1c0,0,0,0.1,0,0.2s0,0.3-0.1,0.4       c-0.1,0.3-0.2,0.6-0.2,0.6L65.6,99.5z"
   id="path40" />
				</g>
				<g
   id="g46">
					<path
   class="st8"
   d="M64.8,100.4c0,0,0.1,0,0.2-0.1s0.2-0.2,0.2-0.2l1.4,1.4c0,0-0.2,0.2-0.4,0.4c-0.2,0.2-0.5,0.3-0.5,0.3       L64.8,100.4z"
   id="path44" />
				</g>
				<g
   id="g50">
					<path
   class="st8"
   d="M63.6,100.6c0,0,0.1,0,0.3,0c0.1,0,0.3,0,0.3,0l0.2,2c0,0-0.3,0.1-0.6,0c-0.1,0-0.3,0-0.4,0       c-0.1,0-0.2,0-0.2,0L63.6,100.6z"
   id="path48" />
				</g>
				<g
   id="g54">
					<path
   class="st8"
   d="M62.6,99.9c0,0,0.1,0.1,0.2,0.2c0.1,0.1,0.2,0.2,0.2,0.2l-1.1,1.7c0,0-0.2-0.2-0.5-0.4       c-0.1-0.1-0.2-0.2-0.3-0.3c-0.1-0.1-0.1-0.1-0.1-0.1L62.6,99.9z"
   id="path52" />
				</g>
				<g
   id="g58">
					<path
   class="st8"
   d="M62.2,98.7c0,0,0,0.6,0.1,0.6l-1.9,0.5c-0.1,0-0.2-1.2-0.1-1.2L62.2,98.7z"
   id="path56" />
				</g>
				<g
   id="g62">
					<path
   class="st8"
   d="M62.6,97.6c0,0-0.1,0.1-0.2,0.2c-0.1,0.1-0.1,0.2-0.1,0.2l-1.8-0.8c0,0,0.1-0.3,0.3-0.5s0.4-0.5,0.4-0.5       L62.6,97.6z"
   id="path60" />
				</g>
				<g
   id="g66">
					<path
   class="st8"
   d="M63.7,97c0,0-0.1,0-0.3,0.1c-0.1,0-0.1,0-0.2,0.1h-0.1l-0.9-1.8c0-0.1,1.1-0.4,1.1-0.3L63.7,97z"
   id="path64" />
				</g>
				<g
   id="g70">
					<path
   class="st8"
   d="M64.9,97.3c0,0-0.1-0.1-0.2-0.1s-0.3-0.1-0.3-0.1l0.5-1.9c0,0,0.3,0.1,0.6,0.2c0.3,0.1,0.5,0.3,0.5,0.3       L64.9,97.3z"
   id="path68" />
				</g>
				<g
   id="g74">
					<path
   class="st8"
   d="M65.7,98.2l-0.2-0.5l1.6-1.2c0,0,0.2,0.2,0.3,0.5c0.1,0.1,0.1,0.3,0.2,0.4c0,0.1,0.1,0.2,0.1,0.2       L65.7,98.2z"
   id="path72" />
				</g>
			</g>
			<path
   class="st9"
   d="M76.3,41.4c0,6.8-5.5,12.4-12.4,12.4s-12.4-5.5-12.4-12.4C51.5,34.6,57,29,63.9,29S76.3,34.6,76.3,41.4z"
   id="path78" />
			<path
   class="st3"
   d="M63.9,52.5c-6.1,0-11.1-5-11.1-11.1s5-11.1,11.1-11.1S75,35.3,75,41.4S70,52.5,63.9,52.5z"
   id="path80" />
			<path
   class="st2"
   d="M57.6,46.2c0,0-0.3-0.4-0.8-1c-0.2-0.4-0.5-0.8-0.6-1.4c-0.1-0.3-0.2-0.6-0.3-0.9c-0.1-0.3-0.1-0.7-0.2-1     c0-0.2-0.1-0.4-0.1-0.6c0-0.2,0-0.4,0-0.6c0-0.4,0-0.8,0.1-1.2c0.1-0.8,0.4-1.7,0.9-2.5c0.4-0.8,1-1.6,1.8-2.3     c0.7-0.7,1.6-1.2,2.6-1.6c1-0.4,2-0.6,3.1-0.6c0.2,0,0.4,0,0.7,0c0.3,0,0.5,0.1,0.8,0.1c0.5,0.1,1,0.2,1.5,0.4     c1,0.3,1.8,0.8,2.6,1.3c0.7,0.6,1.4,1.2,1.9,1.9s0.9,1.3,1.1,2c0.1,0.3,0.2,0.6,0.3,0.9c0.1,0.3,0.2,0.5,0.2,0.8     c0.1,0.5,0.1,0.9,0.2,1.1c0,0.3,0,0.4,0,0.4h-3.2c0,0,0-0.1,0-0.3s0-0.4,0-0.8c0-0.2,0-0.4-0.1-0.5c0-0.2-0.1-0.4-0.1-0.6     c-0.1-0.5-0.3-0.9-0.6-1.5c-0.3-0.5-0.7-1-1.2-1.5s-1.1-0.9-1.8-1.2c-0.3-0.2-0.7-0.3-1.1-0.4l-0.5-0.1c-0.2,0-0.4,0-0.7-0.1     c-0.8-0.1-1.6,0-2.5,0.2c-1.6,0.4-3.1,1.5-4,2.9c-0.5,0.7-0.8,1.4-1,2.2c-0.1,0.2-0.1,0.4-0.1,0.5c0,0.2-0.1,0.4-0.1,0.5     c0,0.2,0,0.4-0.1,0.6c0,0.1,0,0.3,0,0.5c0,0.3,0,0.7,0.1,1s0.1,0.6,0.2,0.9c0.1,0.5,0.4,1,0.5,1.4C57.4,45.8,57.6,46.2,57.6,46.2     z"
   id="path82" />
			<path
   class="st8"
   d="M66.3,41.4c0,1.3-1,2.3-2.3,2.3c-1.3,0-2.3-1-2.3-2.3s1-2.3,2.3-2.3C65.3,39.1,66.3,40.1,66.3,41.4z"
   id="path84" />
			<polygon
   class="st8"
   points="64.6,42.6 57.9,45.2 63.2,40.4    "
   id="polygon86" />
		</g>
		<rect
   x="51.3"
   y="108.8"
   class="st1"
   width="4.6"
   height="2.4"
   id="rect90" />
		<rect
   x="51"
   y="109.2"
   class="st3"
   width="5.3"
   height="2"
   id="rect92"
   style="fill:#466eb6;fill-opacity:1" />
		<rect
   x="71.9"
   y="108.8"
   class="st1"
   width="4.6"
   height="2.4"
   id="rect94" />
		<rect
   x="71.6"
   y="109.2"
   class="st3"
   width="5.3"
   height="2"
   id="rect96"
   style="fill:#466eb6;fill-opacity:1" />
	</g>
</g>

<rect
   x="54.400002"
   y="66.800003"
   class="st10"
   width="18.5"
   height="17.799999"
   id="rect102"
   style="display:inline;fill:#575757;fill-opacity:1;stroke-width:0.789515"
   transform="matrix(1.2666006,0,0,1.2666006,-17.193075,-22.675924)" /><rect
   x="54.700001"
   y="67.199997"
   class="st12"
   width="18"
   height="17.1"
   id="rect123"
   style="display:inline;opacity:0.3;fill:url(#SVGID_1_);stroke-width:0.763306;enable-background:new"
   transform="matrix(1.3017842,0,0,1.3184501,-19.497597,-26.666843)" /></svg>
