<?xml version="1.0" encoding="utf-8"?>
<!-- Generator: Adobe Illustrator 22.1.0, SVG Export Plug-In . SVG Version: 6.00 Build 0)  -->
<svg version="1.1" id="Calque_3" xmlns="http://www.w3.org/2000/svg" xmlns:xlink="http://www.w3.org/1999/xlink" x="0px" y="0px"
	 viewBox="0 0 128 128" style="enable-background:new 0 0 128 128;" xml:space="preserve">
<style type="text/css">
	.st0{fill:#AFBBC5;}
	.st1{fill:#808080;}
	.st2{fill:#FF3000;}
	.st3{fill:#E4E4E4;}
	.st4{fill:#CACACA;}
	.st5{fill:#B1B1B1;}
	.st6{fill:#FFFFFF;}
	.st7{fill:#F0F0F0;}
	.st8{fill:#666666;}
	.st9{fill:#979797;}
	.st10{fill:#EB1C24;}
	.st11{fill:#262626;}
	.st12{fill:#020202;}
	.st13{opacity:0.3;fill:url(#SVGID_1_);}
	.st14{fill:#29ABE2;}
	.st15{fill:#FCEE21;}
	.st16{fill:#F15A24;}
</style>
<g>
	<g>
		<g>
			<g>
				<rect x="77.3" y="103.2" class="st0" width="5.3" height="2.6"/>
				<rect x="74.9" y="102.3" class="st1" width="3" height="4.2"/>
				<g>
					<path class="st2" d="M82.4,103.8h-1.8c-0.6,0-1.2-3.7-1.2-3.7c0-0.3,0.5-0.6,1.2-0.6c0.3,0,0.6,0.2,0.9,0.2
						c0.3,0,0.5-0.2,0.9-0.2c0.6,0,1.1,0.3,1.1,0.6C83.5,100.1,83,103.8,82.4,103.8z"/>
					<path class="st2" d="M82.4,105.1h-1.8c-0.6,0-1.2,3.7-1.2,3.7c0,0.3,0.5,0.6,1.2,0.6c0.3,0,0.6-0.2,0.9-0.2
						c0.3,0,0.5,0.2,0.9,0.2c0.6,0,1.1-0.3,1.1-0.6C83.5,108.8,83,105.1,82.4,105.1z"/>
				</g>
				<path class="st3" d="M80.7,105.3c-0.5,0-0.9-0.3-0.9-0.6v-0.4c0-0.3,0.4-0.6,0.9-0.6h1.5c0.5,0,0.9,0.3,0.9,0.6v0.4
					c0,0.3-0.4,0.6-0.9,0.6H80.7z"/>
			</g>
			<rect x="51.5" y="93.9" class="st4" width="4.2" height="17.3"/>
			<rect x="72.1" y="94" class="st4" width="4.2" height="17.3"/>
			<g>
				<path class="st4" d="M92.2,92.6L92.2,92.6c0,0-0.1,0-0.1,0H92.2z"/>
				<path class="st4" d="M63.8,92.6H64C63.9,92.5,63.9,92.5,63.8,92.6L63.8,92.6z"/>
				<path class="st4" d="M92.2,16.4L92.2,16.4C92.1,16.4,92.2,16.4,92.2,16.4L92.2,16.4z"/>
				<path class="st4" d="M35.6,16.4L35.6,16.4C35.6,16.4,35.7,16.4,35.6,16.4L35.6,16.4z"/>
				<g>
					<path class="st5" d="M63.9,13.6c-10.4,0-20.1,1-28.2,2.8h56.4C84,14.6,74.3,13.6,63.9,13.6z"/>
					<path class="st5" d="M63.9,95.3c10.4,0,20-1,28.2-2.8H35.7C43.9,94.3,53.5,95.3,63.9,95.3z"/>
					<path class="st6" d="M92.1,16.4H35.7c0,0-0.1,0-0.1,0v30.4v15.4v30.4c0,0,0.1,0,0.1,0h56.3c0,0,0.1,0,0.1,0V62.2V46.8
						L92.1,16.4C92.2,16.4,92.1,16.4,92.1,16.4z"/>
				</g>
				<rect x="53.1" y="93.9" class="st7" width="21.6" height="9.7"/>
				<g>
					<g>
						<path class="st8" d="M65.6,99.5c0,0,0-0.1,0.1-0.3c0-0.1,0-0.3,0-0.3l2,0.1c0,0,0,0.1,0,0.2c0,0.1,0,0.3-0.1,0.4
							c-0.1,0.3-0.2,0.6-0.2,0.6L65.6,99.5z"/>
					</g>
					<g>
						<path class="st8" d="M64.8,100.4c0,0,0.1,0,0.2-0.1c0.1-0.1,0.2-0.2,0.2-0.2l1.4,1.4c0,0-0.2,0.2-0.4,0.4
							c-0.2,0.2-0.5,0.3-0.5,0.3L64.8,100.4z"/>
					</g>
					<g>
						<path class="st8" d="M63.6,100.6c0,0,0.1,0,0.3,0c0.1,0,0.3,0,0.3,0l0.2,2c0,0-0.3,0.1-0.6,0c-0.1,0-0.3,0-0.4,0
							c-0.1,0-0.2,0-0.2,0L63.6,100.6z"/>
					</g>
					<g>
						<path class="st8" d="M62.6,99.9c0,0,0.1,0.1,0.2,0.2c0.1,0.1,0.2,0.2,0.2,0.2l-1.1,1.7c0,0-0.2-0.2-0.5-0.4
							c-0.1-0.1-0.2-0.2-0.3-0.3c-0.1-0.1-0.1-0.1-0.1-0.1L62.6,99.9z"/>
					</g>
					<g>
						<path class="st8" d="M62.2,98.7c0,0,0,0.6,0.1,0.6l-1.9,0.5c-0.1,0-0.2-1.2-0.1-1.2L62.2,98.7z"/>
					</g>
					<g>
						<path class="st8" d="M62.6,97.6c0,0-0.1,0.1-0.2,0.2c-0.1,0.1-0.1,0.2-0.1,0.2l-1.8-0.8c0,0,0.1-0.3,0.3-0.5
							c0.2-0.2,0.4-0.5,0.4-0.5L62.6,97.6z"/>
					</g>
					<g>
						<path class="st8" d="M63.7,97c0,0-0.1,0-0.3,0.1c-0.1,0-0.1,0-0.2,0.1c0,0-0.1,0-0.1,0l-0.9-1.8c0-0.1,1.1-0.4,1.1-0.3
							L63.7,97z"/>
					</g>
					<g>
						<path class="st8" d="M64.9,97.3c0,0-0.1-0.1-0.2-0.1c-0.1,0-0.3-0.1-0.3-0.1l0.5-1.9c0,0,0.3,0.1,0.6,0.2
							c0.3,0.1,0.5,0.3,0.5,0.3L64.9,97.3z"/>
					</g>
					<g>
						<path class="st8" d="M65.7,98.3c0,0-0.2-0.5-0.2-0.5l1.6-1.2c0,0,0.2,0.2,0.3,0.5c0.1,0.1,0.1,0.3,0.2,0.4
							c0,0.1,0.1,0.2,0.1,0.2L65.7,98.3z"/>
					</g>
				</g>
				<path class="st9" d="M76.3,41.4c0,6.8-5.5,12.4-12.4,12.4s-12.4-5.5-12.4-12.4c0-6.8,5.6-12.4,12.4-12.4S76.3,34.5,76.3,41.4z"
					/>
				<path class="st3" d="M63.9,52.5c-6.1,0-11.1-5-11.1-11.1c0-6.1,5-11.1,11.1-11.1c6.1,0,11.1,5,11.1,11.1
					C75,47.5,70,52.5,63.9,52.5z"/>
				<path class="st10" d="M57.6,46.2c0,0-0.3-0.4-0.8-1.1c-0.2-0.4-0.5-0.8-0.6-1.4c-0.1-0.3-0.2-0.6-0.3-0.9
					c-0.1-0.3-0.1-0.7-0.2-1c0-0.2-0.1-0.4-0.1-0.6c0-0.2,0-0.4,0-0.6c0-0.4,0-0.8,0.1-1.2c0.1-0.8,0.4-1.7,0.9-2.5
					c0.4-0.8,1.1-1.6,1.8-2.3c0.7-0.7,1.6-1.2,2.6-1.6c1-0.4,2-0.6,3.1-0.6c0.2,0,0.4,0,0.7,0c0.3,0,0.5,0.1,0.8,0.1
					c0.5,0.1,1,0.2,1.5,0.4c1,0.3,1.8,0.8,2.6,1.3c0.7,0.6,1.4,1.2,1.9,1.9c0.5,0.7,0.9,1.3,1.1,2c0.1,0.3,0.2,0.6,0.3,0.9
					c0.1,0.3,0.2,0.5,0.2,0.8c0.1,0.5,0.1,0.9,0.2,1.1c0,0.3,0,0.4,0,0.4h-3.2c0,0,0-0.1,0-0.3c0-0.2,0-0.4,0-0.8
					c0-0.2,0-0.4-0.1-0.5c0-0.2-0.1-0.4-0.1-0.6c-0.1-0.5-0.3-0.9-0.6-1.5c-0.3-0.5-0.7-1-1.2-1.5c-0.5-0.5-1.1-0.9-1.8-1.2
					c-0.3-0.2-0.7-0.3-1.1-0.4l-0.5-0.1c-0.2,0-0.4,0-0.7-0.1c-0.8-0.1-1.6,0-2.5,0.2c-1.6,0.4-3.1,1.5-4,2.9
					c-0.5,0.7-0.8,1.4-1,2.2c-0.1,0.2-0.1,0.4-0.1,0.5c0,0.2-0.1,0.4-0.1,0.5c0,0.2,0,0.4-0.1,0.6c0,0.1,0,0.3,0,0.5
					c0,0.3,0,0.7,0.1,1c0.1,0.3,0.1,0.6,0.2,0.9c0.1,0.5,0.4,1,0.5,1.4C57.4,45.8,57.6,46.2,57.6,46.2z"/>
				<path class="st8" d="M66.3,41.4c0,1.3-1,2.3-2.3,2.3c-1.3,0-2.3-1-2.3-2.3c0-1.3,1-2.3,2.3-2.3C65.3,39.1,66.3,40.1,66.3,41.4z"
					/>
				<polygon class="st8" points="63.5,40.1 68,34.6 65.7,41.4 				"/>
			</g>
			<rect x="51.3" y="108.8" class="st1" width="4.6" height="2.4"/>
			<rect x="50.9" y="109.3" class="st3" width="5.3" height="2"/>
			<rect x="71.9" y="108.8" class="st1" width="4.6" height="2.4"/>
			<rect x="71.5" y="109.3" class="st3" width="5.3" height="2"/>
		</g>
	</g>
	<g>
		<rect x="54.4" y="66.8" class="st11" width="18.5" height="17.8"/>
		<rect x="54.7" y="67.2" class="st12" width="18" height="17.1"/>
		<linearGradient id="SVGID_1_" gradientUnits="userSpaceOnUse" x1="72.7861" y1="65.1214" x2="52.4119" y2="88.8907">
			<stop  offset="0.2511" style="stop-color:#000000"/>
			<stop  offset="0.3564" style="stop-color:#020202"/>
			<stop  offset="0.3944" style="stop-color:#070809"/>
			<stop  offset="0.4214" style="stop-color:#121214"/>
			<stop  offset="0.4433" style="stop-color:#202125"/>
			<stop  offset="0.462" style="stop-color:#33343B"/>
			<stop  offset="0.4783" style="stop-color:#4A4C56"/>
			<stop  offset="0.4853" style="stop-color:#565864"/>
		</linearGradient>
		<rect x="54.7" y="67.2" class="st13" width="18" height="17.1"/>
	</g>
	<g>
		<ellipse class="st14" cx="63.2" cy="80.6" rx="3.8" ry="2.7"/>
		<g>
			<g>
				<g>
					<path class="st15" d="M61,82.7c-1.1-0.5-2.2-1.9-2.6-3.5c-0.4-1.7-0.1-3.5,0.8-4.9l0.5-0.7l-0.1,0.9c0,0.4,0,0.8,0.1,1.1
						c0.1-0.5,0.2-0.9,0.4-1.2c0.2-0.6,0.4-1.2,0.3-2L60.4,72l0.4,0.1c0.4,0.2,0.9,1.1,1.3,2c0-0.2,0.1-0.5,0.1-0.7
						c0.2-1.3,0.3-2.9,2.1-3.8l0.6-0.3L64.6,70c-0.2,0.6,0,1.5,0.3,2.3c0.2,0.6,0.4,1.2,0.5,1.8c0.2-0.7,0.3-1.4,0.3-2l0-0.8
						l0.4,0.6c1,1.4,1.2,3.1,1.1,4.2c0.1-0.3,0.2-0.7,0.2-1l0.1-0.6l0.4,0.5c0.7,1.7,0.7,3.8-0.1,5.5c-0.5,1.2-1.3,2-2.2,2.2
						l-0.4,0.1l0.2-0.5c0.2-0.5,0.2-0.9,0.2-1.4c-0.1,0.2-0.3,0.4-0.4,0.5l-0.6,0.2l0.3-0.6c0.1-0.2,0.3-0.9,0-1.7
						c-0.1,0.3-0.2,0.6-0.3,0.9l-0.5,0.5l0-0.7c0.1-0.4-0.1-0.9-0.2-1.3c-0.1-0.3-0.2-0.6-0.2-0.8c-0.3,0.4-0.4,0.8-0.5,1.3
						c0,0.3-0.1,0.6-0.2,0.9l-0.3,0.6l-0.1-0.6c-0.1-0.2-0.2-0.5-0.3-0.7c0,0.2-0.1,0.3-0.2,0.5c-0.1,0.4-0.3,0.7-0.1,1.2l0,0.6
						l-0.4-0.3c0,0-0.2-0.3-0.3-0.7c-0.2,0.6-0.1,1.3,0.1,1.8l0.2,0.6L61,82.7z"/>
				</g>
			</g>
		</g>
		<g>
			<g>
				<g>
					<path class="st16" d="M62.3,83.2c-0.5-0.2-0.9-0.8-1.1-1.5c-0.2-0.8-0.1-1.5,0.4-2.1l0.2-0.3l0,0.4c0,0.2,0,0.3,0,0.5
						c0-0.2,0.1-0.4,0.2-0.5c0.1-0.3,0.2-0.5,0.1-0.9l0-0.2l0.2,0.1c0.2,0.1,0.4,0.5,0.6,0.9c0-0.1,0-0.2,0-0.3
						c0.1-0.6,0.2-1.3,0.9-1.7l0.3-0.1l-0.1,0.3c-0.1,0.3,0,0.6,0.1,1c0.1,0.2,0.2,0.5,0.2,0.8c0.1-0.3,0.1-0.6,0.1-0.9l0-0.3
						l0.2,0.3c0.5,0.6,0.5,1.3,0.5,1.9c0.1-0.1,0.1-0.3,0.1-0.4l0-0.3l0.2,0.2c0.3,0.7,0.3,1.6,0,2.4c-0.2,0.5-0.6,0.9-1,1l-0.2,0
						l0.1-0.2c0.1-0.2,0.1-0.4,0.1-0.6c0,0.1-0.1,0.2-0.2,0.2l-0.2,0.1l0.1-0.3c0.1-0.1,0.1-0.4,0-0.7c0,0.1-0.1,0.3-0.1,0.4
						l-0.2,0.2l0-0.3c0-0.2,0-0.4-0.1-0.6c0-0.1-0.1-0.2-0.1-0.4c-0.1,0.2-0.2,0.4-0.2,0.6c0,0.1,0,0.3-0.1,0.4L63,82.4l-0.1-0.3
						c0-0.1-0.1-0.2-0.1-0.3c0,0.1,0,0.1-0.1,0.2c-0.1,0.2-0.1,0.3,0,0.5l0,0.2l-0.2-0.2c0,0-0.1-0.1-0.1-0.3c-0.1,0.3,0,0.6,0,0.8
						l0.1,0.2L62.3,83.2z"/>
				</g>
			</g>
		</g>
	</g>
</g>
</svg>
