<?xml version="1.0" encoding="UTF-8" standalone="no"?>
<svg
   xmlns:dc="http://purl.org/dc/elements/1.1/"
   xmlns:cc="http://creativecommons.org/ns#"
   xmlns:rdf="http://www.w3.org/1999/02/22-rdf-syntax-ns#"
   xmlns:svg="http://www.w3.org/2000/svg"
   xmlns="http://www.w3.org/2000/svg"
   xmlns:sodipodi="http://sodipodi.sourceforge.net/DTD/sodipodi-0.dtd"
   xmlns:inkscape="http://www.inkscape.org/namespaces/inkscape"
   width="128"
   height="47.752304"
   viewBox="0 0 128 47.752305"
   version="1.1"
   id="svg74"
   sodipodi:docname="clef_source.svg"
   inkscape:version="1.0.2 (e86c870879, 2021-01-15)">
  <metadata
     id="metadata80">
    <rdf:RDF>
      <cc:Work
         rdf:about="">
        <dc:format>image/svg+xml</dc:format>
        <dc:type
           rdf:resource="http://purl.org/dc/dcmitype/StillImage" />
        <dc:title></dc:title>
        <cc:license
           rdf:resource="http://creativecommons.org/publicdomain/zero/1.0/" />
      </cc:Work>
      <cc:License
         rdf:about="http://creativecommons.org/publicdomain/zero/1.0/">
        <cc:permits
           rdf:resource="http://creativecommons.org/ns#Reproduction" />
        <cc:permits
           rdf:resource="http://creativecommons.org/ns#Distribution" />
        <cc:permits
           rdf:resource="http://creativecommons.org/ns#DerivativeWorks" />
      </cc:License>
    </rdf:RDF>
  </metadata>
  <defs
     id="defs78" />
  <sodipodi:namedview
     pagecolor="#ffffff"
     bordercolor="#666666"
     borderopacity="1"
     objecttolerance="10"
     gridtolerance="10"
     guidetolerance="10"
     inkscape:pageopacity="0"
     inkscape:pageshadow="2"
     inkscape:window-width="1920"
     inkscape:window-height="1007"
     id="namedview76"
     showgrid="true"
     inkscape:zoom="4.5064683"
     inkscape:cx="73.412131"
     inkscape:cy="67.312557"
     inkscape:window-x="0"
     inkscape:window-y="0"
     inkscape:window-maximized="1"
     inkscape:current-layer="svg74"
     inkscape:document-rotation="0"
     inkscape:lockguides="true"
     inkscape:pagecheckerboard="false"
     fit-margin-top="0"
     fit-margin-left="0"
     fit-margin-right="0"
     fit-margin-bottom="0">
    <inkscape:grid
       type="xygrid"
       id="grid335"
       originx="-169.13647"
       originy="-86.523378" />
  </sodipodi:namedview>
  <path
     id="path833"
     style="fill:#a0a0a0;stroke:none;stroke-width:0.211854"
     d="m 20.47748,0.00260681 c -1.56655,0.02216 -3.14039,0.183843 -4.24086,0.478064 C 10.52528,2.0076438 5.5698805,6.2088958 2.6853905,11.969829 c -4.20135,8.391001 -3.41310001,19.272861 1.9452,26.861445 5.6759095,8.03839 15.5351595,10.89709 23.8856395,6.92606 4.29923,-2.04448 7.82854,-5.60093 10.11879,-10.19565 1.01405,-2.03439 1.41951,-3.167603 2.07288,-5.795383 l 0.56089,-2.254196 22.38994,-0.05406 22.39059,-0.05406 v 10.168949 10.16895 h 3.59789 3.59725 l 0.0573,-4.7129 0.0567,-4.71355 4.18484,-0.0573 4.18419,-0.0573 v 4.77086 4.77022 h 7.94559 7.9456 v -2.64759 -2.64823 h -3.81418 -3.81352 v -4.87182 -4.872483 h 3.81352 3.81418 v -2.647585 -2.64824 H 122.80934 128 v -4.3423 -4.342954 H 84.48326 40.96587 l -0.1368,-0.582273 C 40.46944,16.605905 39.31029,13.379174 38.64089,12.048012 35.60464,6.0101468 30.59168,1.8156558 24.67535,0.36150581 c -1.07204,-0.263491 -2.63132,-0.381031 -4.19787,-0.358873 z m -0.005,7.75387899 c 6.00923,-0.136154 11.4105,4.4274212 13.27631,11.3080932 0.36394,1.342115 0.45272,2.270049 0.45406,4.740255 0.002,2.734124 -0.0608,3.279824 -0.57131,4.967562 -0.93169,3.080049 -2.07236,5.037848 -4.14706,7.117548 -1.97076,1.9755 -3.57505,2.96026 -5.64407,3.46498 -4.6923,1.14466 -8.77857,-0.065 -12.19101,-3.60892 C 2.5618305,26.308262 7.7588805,8.6710268 19.88879,7.7844918 c 0.19501,-0.01425 0.38984,-0.02361 0.58369,-0.028 z" />
  <path
     id="path835"
     style="fill:#a0a0a0;stroke:none;stroke-width:0.211854"
     d="M 21.01752,0.10811981 C 15.83764,0.04310981 11.38376,1.9113328 7.4317705,5.7992908 2.5201305,10.631357 0.17032049,16.463935 0.17736049,23.804834 c 0.0102,10.59276 5.83261001,19.5818 14.62608951,22.57906 6.10705,2.08159 12.44432,0.86791 17.78753,-3.40636 3.84175,-3.07319 6.61194,-7.66596 8.02572,-13.306975 l 0.5674,-2.264619 h 22.43229 22.43293 v 10.173514 10.17285 l 3.54838,-0.058 3.54904,-0.058 0.0573,-4.70509 0.0567,-4.70443 4.2337,-0.0619 4.2337,-0.0612 v 4.81906 l -6.7e-4,4.81907 h 7.9456 7.94559 v -2.64759 -2.64823 h -3.81417 -3.81352 v -4.87182 -4.872479 h 3.81352 3.81417 V 30.05411 27.40587 h 5.19066 5.19066 v -4.341649 -4.342302 l -43.54669,-0.05341 -43.5467,-0.05341 -0.84882,-2.542074 C 38.96808,12.809281 37.81824,10.525503 36.13415,8.2820208 32.54363,3.4988428 27.29907,0.46629281 22.06308,0.14647181 c -0.35185,-0.02149 -0.70023,-0.03409 -1.04556,-0.03843 z M 20.69571,7.7180588 c 1.07645,0.0016 2.15519,0.105606 2.94516,0.311327 2.11013,0.549514 4.0952,1.729379 5.85512,3.4799642 1.91166,1.901506 3.10354,3.840733 4.04088,6.576306 0.67004,1.955548 0.68918,2.114264 0.69769,5.613665 0.008,3.400856 -0.0243,3.700909 -0.59086,5.401334 -0.90861,2.726928 -1.94585,4.519119 -3.68844,6.371149 -1.8954,2.01443 -3.65279,3.22512 -5.51573,3.80041 -1.85003,0.57131 -4.64548,0.71308 -6.35804,0.32305 -5.30376,-1.20791 -9.4886095,-5.91736 -10.7721895,-12.122887 -0.46683,-2.256961 -0.30134,-6.531132 0.33875,-8.743224 1.54622,-5.343605 5.4719795,-9.4988042 10.1161895,-10.7082342 0.781,-0.203386 1.85502,-0.30446 2.93147,-0.30286 z" />
  <path
     id="path837"
     style="fill:#a0a0a0;stroke:none;stroke-width:0.211854"
     d="m 20.57976,0.19604681 c -3.20569,0.01023 -3.33594,0.02823 -5.45841,0.766595 C 12.05727,2.0285768 9.8763305,3.3993338 7.4233105,5.7992908 c -3.5199,3.443756 -5.72505,7.5121252 -6.77431001,12.4980422 -0.93328,4.434768 -0.53666,10.182234 0.99800001,14.453933 3.46299,9.639138 11.6955795,15.388948 20.8277895,14.546418 4.82117,-0.44478 9.97533,-3.30072 13.14473,-7.28298 2.4809,-3.11719 3.94642,-6.15162 4.99848,-10.349358 l 0.56415,-2.251588 22.43359,-0.0059 22.43358,-0.0052 v 10.169596 10.1696 h 3.6018 3.60181 v -4.71291 l -6.7e-4,-4.71354 4.23761,0.0619 4.2376,0.0612 v 4.65167 4.65168 h 7.9456 7.94559 v -2.64759 -2.64824 h -3.81417 -3.81352 v -4.76631 -4.76565 h 3.81352 3.81417 V 30.159663 27.40591 h 5.19066 5.19067 v -4.342297 -4.342954 h -43.5467 c -34.65408,0 -43.56268,-0.05371 -43.62552,-0.264433 -1.28248,-4.300188 -2.28053,-6.636101 -3.822,-8.9464322 -2.92686,-4.386752 -6.80672,-7.352398 -11.5526,-8.82984899 -1.38622,-0.431546 -2.00856,-0.493069 -4.87341,-0.483925 z M 19.78044,7.6711638 c 1.61439,-0.01497 4.85632,0.446346 4.99197,0.85322 0.0397,0.119201 0.18797,0.172641 0.32898,0.118539 0.30753,-0.117986 2.41032,1.118822 3.70473,2.1792932 1.99604,1.635284 3.99117,4.828495 4.9353,7.89847 0.42583,1.384646 0.4892,2.037928 0.49053,5.084148 0.002,3.465323 -0.005,3.514096 -0.75501,5.657305 -1.03695,2.961954 -1.87603,4.296165 -4.10407,6.523545 -2.25599,2.25533 -3.84534,3.15448 -6.36716,3.60372 -0.92623,0.165 -2.06536,0.2922 -2.53149,0.28267 -6.26908,-0.12852 -11.6925895,-5.26521 -13.1466795,-12.451802 -0.43791,-2.164306 -0.3269,-6.148949 0.23061,-8.275581 0.81549,-3.110633 2.6945495,-6.268255 4.9137995,-8.256693 1.4546,-1.3033122 4.37555,-2.7885072 5.57176,-2.8332112 0.46154,-0.01725 0.83969,-0.102802 0.84035,-0.190183 10e-4,-0.130449 0.35825,-0.18845 0.89638,-0.19344 z" />
  <path
     id="path839"
     style="fill:#a0a0a0;stroke:none;stroke-width:0.211854"
     d="m 20.68594,0.19995481 c -3.33948,0.0025 -3.42263,0.01435 -5.56459,0.761385 C 9.9280305,2.7725588 5.5085005,6.7158358 2.8619305,11.899487 0.97761049,15.590181 0.16230049,19.208791 0.17931049,23.804834 c 0.0167,4.510853 0.86397001,8.178717 2.76471001,11.96853 4.62353,9.21872 14.4178395,13.69301 23.4107395,10.6939 4.53387,-1.51203 8.26471,-4.54283 11.04709,-8.97379 1.46115,-2.32688 2.32458,-4.40537 3.14319,-7.568253 l 0.65014,-2.511463 22.42707,-0.0059 22.42707,-0.0052 v 10.169596 10.1696 h 3.6018 3.60181 v -4.71291 l -6.7e-4,-4.71354 4.23761,0.0619 4.2376,0.0612 v 4.65167 4.65168 h 7.9456 7.94559 v -2.64759 -2.64824 h -3.81417 -3.81352 v -4.76631 -4.76565 h 3.81352 3.81417 V 30.159663 27.40591 h 5.19066 5.19067 V 23.063613 18.720659 H 84.89758 c -25.81552,0 -43.30909,-0.07833 -43.61706,-0.195394 C 40.90549,18.382711 40.70115,18.069204 40.52419,17.36658 40.02329,15.37767 38.53276,11.916891 37.4012,10.114863 34.52568,5.5355858 30.84559,2.5354958 26.08897,0.89292481 c -1.95,-0.673381 -2.11882,-0.695465 -5.40303,-0.692997 z m -0.1824,7.50898499 c 1.5051,0.03875 3.53163,0.309429 3.63893,0.624609 0.0367,0.10769 0.2034,0.142984 0.37067,0.07881 0.16727,-0.06417 0.30422,-0.01394 0.30422,0.111375 0,0.125296 0.12181,0.181391 0.27035,0.1244 0.33737,-0.129436 2.39572,1.096649 3.76532,2.2431222 2.1137,1.769354 4.18732,5.209837 4.96787,8.241061 0.28156,1.093519 0.33573,2.123477 0.27295,5.18966 -0.0765,3.735221 -0.0948,3.870293 -0.7889,5.710714 -0.39099,1.036715 -0.86346,2.045486 -1.05012,2.241815 -0.18666,0.196336 -0.3708,0.492127 -0.4091,0.657177 -0.18579,0.800701 -4.11978,4.974121 -4.47929,4.751981 -0.0956,-0.0591 -0.22006,0.0126 -0.27621,0.15892 -0.13832,0.36039 -1.85747,1.19884 -3.16469,1.54361 -1.48761,0.39234 -4.07889,0.52976 -5.46426,0.28918 -1.31461,-0.22829 -4.23761,-1.53299 -4.23761,-1.89141 0,-0.12912 -0.0814,-0.1847 -0.1811,-0.1231 -0.0997,0.0616 -0.60055,-0.24134 -1.11266,-0.67346 -3.6370895,-3.06905 -5.5820495,-7.07031 -5.8414395,-12.01737 -0.33554,-6.399398 2.21469,-12.041055 6.8407495,-15.1345562 1.57129,-1.050741 4.28856,-2.093865 4.73531,-1.817815 0.12138,0.07501 0.22018,0.03546 0.22018,-0.08793 0,-0.184168 0.71577,-0.244041 1.61883,-0.220795 z" />
  <path
     id="path841"
     style="fill:#a0a0a0;stroke:none;stroke-width:0.211854"
     d="m 20.69506,0.18953381 c -1.67703,9.01e-4 -3.35699,0.09988 -4.14054,0.296999 C 8.4482105,2.5258718 2.0299805,10.020414 0.42165049,19.325104 c -0.41364,2.393008 -0.30524,7.22977 0.21758,9.719544 1.98648001,9.460016 7.90179001,16.009786 16.23318951,17.974276 1.93444,0.45612 5.67394,0.46115 7.57167,0.0104 6.28257,-1.49216 11.44432,-5.83782 14.38376,-12.10921 0.73771,-1.573923 2.30414,-6.477503 2.30414,-7.213291 0,-0.257964 3.19847,-0.30091 22.45834,-0.30091 h 22.45899 v 10.168301 10.16764 h 3.6018 3.60181 v -4.7129 l -6.7e-4,-4.71355 4.23761,0.0619 4.2376,0.0612 v 4.65168 4.65167 h 7.9456 7.94559 v -2.64758 -2.64824 h -3.81416 -3.81352 v -4.76564 -4.766309 h 3.81352 3.81418 V 30.159694 27.40594 H 122.80934 128 v -4.3423 -4.342954 l -41.89792,-0.01302 c -40.26184,-0.01295 -44.91692,-0.05164 -45.20787,-0.3719 -0.0723,-0.07956 -0.33357,-0.824851 -0.58108,-1.656288 C 37.85996,8.4388758 31.99489,2.3084148 24.81736,0.48197681 c -0.77141,-0.196299 -2.44526,-0.293326 -4.1223,-0.292439 z M 19.91594,7.7356438 c 1.49924,-0.04988 4.26562,0.26959 4.26562,0.620701 0,0.100892 0.1431,0.128286 0.3179,0.06122 0.1748,-0.06706 0.3179,-0.03644 0.3179,0.06774 0,0.10418 0.19269,0.203726 0.428,0.221446 0.75418,0.0568 2.93852,1.5408942 4.36007,2.9621712 0.75893,0.758776 1.33716,1.422724 1.28464,1.475224 -0.0525,0.0525 0.13089,0.339549 0.4078,0.638286 0.27692,0.298738 0.45187,0.626968 0.38891,0.728819 -0.063,0.101851 -0.008,0.184973 0.12312,0.184973 0.28533,0 1.54421,2.694066 1.38171,2.95696 -0.0626,0.101223 -0.0155,0.217145 0.10488,0.257269 0.82167,0.273838 1.19495,7.838719 0.51594,10.45748 -0.38576,1.487742 -1.55852,4.122157 -1.83511,4.122157 -0.10617,0 -0.13963,0.08638 -0.0743,0.192137 0.24453,0.395581 -4.06706,5.074917 -4.55616,4.944767 -0.10946,-0.0292 -0.19869,0.0411 -0.19869,0.15566 0,0.28404 -2.08405,1.32058 -2.33866,1.16325 -0.11217,-0.0693 -0.2039,-0.0343 -0.2039,0.0775 0,0.11177 -0.45295,0.30247 -1.00648,0.42401 -2.29287,0.50347 -4.98174,0.40725 -6.7476,-0.24164 -1.3518,-0.49674 -2.6279,-1.19452 -2.6279,-1.4368 0,-0.12101 -0.0995,-0.1581 -0.22149,-0.0827 -0.28987,0.17912 -4.0955995,-3.62522 -3.91644,-3.91504 0.0754,-0.12199 0.0383,-0.2221 -0.0827,-0.2221 -0.5829695,0 -2.7508695,-5.126131 -2.4735095,-5.848788 0.0563,-0.146699 -0.0114,-0.304676 -0.15048,-0.351057 -0.18275,-0.06094 -0.24695,-0.990818 -0.23061,-3.350354 0.0181,-2.620966 0.11183,-3.594976 0.4749,-4.934346 1.23741,-4.564937 4.0284195,-8.176523 7.7657995,-10.0497572 1.40168,-0.702546 2.97542,-1.181735 3.27412,-0.99716 0.10579,0.06537 0.25253,0.02136 0.32572,-0.09704 0.0688,-0.111271 0.42726,-0.168346 0.927,-0.184973 z" />
  <path
     id="path843"
     style="fill:#a0a0a0;stroke:none;stroke-width:0.211854"
     d="m 21.00384,0.17455381 c -3.88149,0.02712 -5.10537,0.261724 -7.75928,1.48629499 -4.1299295,1.90564 -7.8868095,5.530116 -10.2249795,9.8654362 -1.00388,1.86134 -2.18759001,5.35134 -2.58425001,7.618406 -0.40154,2.294957 -0.34215,7.090638 0.11791,9.532613 2.08372001,11.06031 10.30542951,18.69463 20.13269951,18.69463 4.1491,0 7.84931,-1.26532 11.29985,-3.86489 4.10152,-3.08999 6.80479,-7.28368 8.45372,-13.112227 l 0.77586,-2.740726 0.96413,-0.09639 c 0.53062,-0.05308 10.61855,-0.110484 22.4173,-0.127658 l 21.45252,-0.03125 v 10.171551 10.17155 h 3.6018 3.60181 v -4.66015 -4.66014 h 4.2376 4.23696 v 4.66014 4.66014 h 7.94559 7.9456 v -2.64759 -2.64823 h -3.81418 -3.81352 v -4.76631 -4.765655 h 3.81352 3.81418 V 30.159694 27.40594 H 122.80934 128 V 23.075364 18.744785 L 84.58358,18.680305 C 60.70444,18.644585 41.10477,18.55282 41.02906,18.477095 40.95336,18.401375 40.55798,17.357329 40.15027,16.156467 38.71499,11.92905 37.06276,9.0335548 34.55832,6.3568148 32.24737,3.8868728 29.08713,1.8181218 26.24467,0.91444481 c -0.84332,-0.268106 -1.58076,-0.549834 -1.63902,-0.625911 -0.0583,-0.07608 -1.67905,-0.127413 -3.60181,-0.11398 z M 19.9902,7.7095918 c 1.50323,-0.0071 4.19136,0.335906 4.19136,0.646753 0,0.100892 0.1431,0.128286 0.3179,0.06122 0.17998,-0.06905 0.3179,-0.0049 0.3179,0.147848 0,0.148391 0.0593,0.211003 0.13159,0.138729 0.20431,-0.204266 2.4099,0.999855 3.47869,1.8992282 1.00716,0.847517 2.67043,2.609811 2.46308,2.609811 -0.0663,0 0.11119,0.250293 0.39477,0.556221 0.28358,0.305929 0.46425,0.639994 0.40129,0.741845 -0.063,0.101851 -0.0184,0.184973 0.099,0.184973 0.28875,0 1.56372,2.702425 1.39994,2.967381 -0.0715,0.115664 -0.0418,0.209723 0.0664,0.209723 0.10826,0 0.32842,0.452864 0.48923,1.006279 0.38709,1.332163 0.42065,9.190067 0.0397,9.317031 -0.13913,0.04637 -0.2038,0.211472 -0.14397,0.367341 0.12915,0.336495 -1.10323,3.383257 -1.54847,3.828415 -0.17042,0.170393 -0.24393,0.309371 -0.16351,0.309371 0.25838,0 -0.9974,1.542033 -2.63116,3.230513 -0.87368,0.90295 -1.71443,1.64197 -1.86768,1.64197 -0.15324,0 -0.27816,0.0798 -0.27816,0.1778 0,0.27322 -2.08896,1.34879 -2.3302,1.19972 -0.11687,-0.0722 -0.21236,-0.0388 -0.21236,0.0749 0,0.11373 -0.48128,0.31022 -1.06967,0.43638 -1.66644,0.35732 -4.98926,0.26785 -6.36194,-0.17129 -1.33737,-0.42785 -2.95037,-1.2792 -2.95037,-1.55729 0,-0.10193 -0.0968,-0.12574 -0.21497,-0.0528 -0.28064,0.17341 -4.0918495,-3.63706 -3.91841,-3.91764 0.073,-0.1181 0.0386,-0.21494 -0.0762,-0.21494 -0.5593195,0 -2.7546795,-5.14564 -2.4897995,-5.835764 0.0591,-0.153914 -0.003,-0.316596 -0.13745,-0.36148 -0.34618,-0.115371 -0.31478,-5.832944 0.041,-7.465999 0.86234,-3.957803 3.3041195,-7.812938 6.2173195,-9.816587 1.4023,-0.9644732 3.49753,-1.9078712 4.44477,-2.0014842 0.43669,-0.04316 0.85748,-0.142173 0.93546,-0.220144 0.0943,-0.09431 0.46371,-0.135719 0.96478,-0.138078 z" />
  <path
     id="path845"
     style="fill:#000000;fill-opacity:1;stroke:none;stroke-width:0.211874"
     d="m 22.30477,0.17514581 c -0.44953,-0.0037 -0.94277,-0.0035 -1.45988,0.0013 -3.48808,0.03263 -3.88056,0.07646 -5.41475,0.607792 C 14.52036,1.0993168 13.28098,1.6068738 12.67585,1.9118778 8.0741805,4.2312808 3.8291005,8.9747668 1.9160505,13.935477 c -3.7809,9.804194 -1.51395001,21.237327 5.5496,27.985797 3.8319595,3.66104 8.1897095,5.46101 13.2202895,5.46101 9.22434,0 16.79553,-6.49502 19.74315,-16.936752 l 0.78824,-2.793368 1.91718,-0.06645 c 1.05438,-0.03679 11.14164,-0.100394 22.416,-0.140709 l 20.49881,-0.07296 v 10.190459 10.1898 h 3.6018 3.60181 v -4.66104 -4.66105 h 4.2376 4.23696 v 4.66105 4.66104 h 7.94559 7.9456 v -2.6481 -2.64875 h -3.81418 -3.81352 v -4.76722 -4.766585 h 3.81352 3.81418 V 30.166717 27.412433 H 122.80934 128 V 23.069294 18.725503 H 93.09397 C 54.46624,18.724869 41.37061,18.598447 41.00431,18.223244 40.87601,18.091836 40.46494,17.078264 40.09034,15.971221 38.19307,10.364389 35.10801,6.0746078 30.93698,3.2421138 29.39927,2.1978758 27.00224,1.0574178 25.6043,0.70541281 c -0.54915,-0.138279 -0.99865,-0.321679 -0.99865,-0.407801 0,-0.06459 -0.9523,-0.111232 -2.30088,-0.12247 z M 20.42276,7.8660278 c 1.33375,-0.0017 2.79004,0.105434 3.23113,0.287285 0.34848,0.143667 0.68177,0.277227 0.74004,0.297056 1.89729,0.645688 3.31195,1.508431 4.81999,2.9392902 0.84485,0.801606 1.53609,1.588479 1.53609,1.74846 0,0.159982 0.0973,0.290542 0.21628,0.290542 0.11903,0 0.3315,0.262578 0.47229,0.583037 0.1408,0.32046 0.32331,0.631555 0.4052,0.691828 0.27879,0.205196 1.43104,2.820059 1.32112,2.99792 -0.0602,0.09741 -0.018,0.17654 0.0938,0.17654 0.47672,0 0.7622,2.314228 0.7687,6.232962 0.005,3.033436 -0.0578,4.029746 -0.25927,4.096897 -0.14641,0.0488 -0.21562,0.171128 -0.15309,0.272299 0.13558,0.219374 -1.09172,3.479976 -1.45271,3.859124 -0.13846,0.145425 -0.35775,0.502776 -0.48728,0.794104 -0.32362,0.727922 -3.86092,4.449322 -4.22913,4.449322 -0.16385,0 -0.29771,0.0776 -0.29771,0.17263 0,0.21142 -1.48288,1.06274 -2.03574,1.16868 -0.22036,0.0422 -0.68685,0.19787 -1.03644,0.34592 -0.79768,0.3378 -5.23108,0.48381 -6.33133,0.20846 -1.09543,-0.27415 -3.52103,-1.44127 -3.52103,-1.69439 0,-0.11058 -0.14842,-0.2013 -0.33028,-0.2013 -0.43092,0 -3.69496,-3.26403 -3.69496,-3.69496 0,-0.18186 -0.0947,-0.33093 -0.2097595,-0.33093 -0.48643,0 -2.69893,-5.226348 -2.46765,-5.829068 0.0557,-0.145012 0.009,-0.355967 -0.10423,-0.469036 -0.26482,-0.264832 -0.2552,-5.779298 0.0124,-7.161264 C 8.5907205,14.098534 13.25292,8.9549518 18.40071,7.9937098 c 0.46578,-0.08697 1.22182,-0.126662 2.02207,-0.127682 z" />
</svg>
