<?xml version="1.0" encoding="UTF-8" standalone="no"?>
<svg
   xmlns:dc="http://purl.org/dc/elements/1.1/"
   xmlns:cc="http://creativecommons.org/ns#"
   xmlns:rdf="http://www.w3.org/1999/02/22-rdf-syntax-ns#"
   xmlns:svg="http://www.w3.org/2000/svg"
   xmlns="http://www.w3.org/2000/svg"
   xmlns:sodipodi="http://sodipodi.sourceforge.net/DTD/sodipodi-0.dtd"
   xmlns:inkscape="http://www.inkscape.org/namespaces/inkscape"
   viewBox="0 0 1000 1000"
   version="1.1"
   id="svg248"
   sodipodi:docname="countdown.svg"
   inkscape:version="1.0.1 (3bc2e813f5, 2020-09-07)">
  <sodipodi:namedview
     pagecolor="#ffffff"
     bordercolor="#666666"
     borderopacity="1"
     objecttolerance="10"
     gridtolerance="10"
     guidetolerance="10"
     inkscape:pageopacity="0"
     inkscape:pageshadow="2"
     inkscape:window-width="1920"
     inkscape:window-height="983"
     id="namedview110"
     showgrid="false"
     inkscape:zoom="0.794"
     inkscape:cx="500"
     inkscape:cy="500"
     inkscape:window-x="0"
     inkscape:window-y="0"
     inkscape:window-maximized="1"
     inkscape:current-layer="svg248" />
  <style
     id="style1079"></style>
  <metadata
     id="metadata254">
    <rdf:RDF>
      <cc:Work
         rdf:about="">
        <dc:format>image/svg+xml</dc:format>
        <dc:type
           rdf:resource="http://purl.org/dc/dcmitype/StillImage" />
        <dc:title />
      </cc:Work>
    </rdf:RDF>
  </metadata>
  <defs
     id="defs252" />
  <path
     d="m 542,126 h 5 q 3,1 4,12 0,11 -1,11 -1,1 -2,1 h -4 q -2,0 -2,-11 l -1,-11 1,-1 q 0,-1 0,-1 z"
     fill="#2f2f2d"
     stroke="#2f2f2d"
     id="path2"
     style="fill-rule:evenodd;stroke-width:0.892002"
     transform="matrix(1.1210635,0,0,1.1210838,-59.552385,-52.870649)" />
  <path
     d="m 66,790 v -15 l 17,1 q 17,0 17,0 v 29 h -1 v 1 H 67 v -1 h -1 z"
     fill="#2c2c2a"
     stroke="#2c2c2a"
     id="path8"
     style="fill-rule:evenodd;stroke-width:0.892002"
     transform="matrix(1.1210635,0,0,1.1210838,-59.552385,-52.870649)" />
  <path
     d="m 254,492 h 2 q 2,1 4,28 4,26 8,44 4,17 12,34 6,17 18,35 12,18 22,31 12,12 21,20 9,9 10,10 0,1 5,4 4,3 5,3 v 1 h 2 q 0,0 1,1 0,1 0,1 h 1 q 0,0 1,1 l 18,10 q 18,11 35,17 17,8 19,8 2,0 4,1 l 2,1 h 3 l 1,1 v 1 h 1 v 1 h 1 v 1 H 276 q -175,0 -178,-2 -3,0 -7,-4 -4,-4 -5,-9 -2,-5 -2,-121 V 494 h 1 l 85,-1 z"
     fill="#817257"
     stroke="#817257"
     id="path10"
     style="fill-rule:evenodd;stroke-width:0.892002;fill:#d6cfc2;fill-opacity:1"
     transform="matrix(1.1210635,0,0,1.1210838,-59.552385,-52.870649)" />
  <path
     d="m 666,300 v -1 q 0,0 1,1 1,1 1,1 l 4,4 q 5,5 9,7 3,3 14,20 11,17 11,18 v 1 h 1 v 1 h 1 l 9,20 q 9,19 13,36 6,16 8,30 2,13 3,18 1,6 1,16 v 9 h 173 v 11 H 742 v 1 l -1,21 q -1,22 -7,44 -4,21 -12,39 -8,19 -16,32 -8,13 -8,14 0,1 -1,0 h -1 q -1,1 -1,1 h -1 v 1 h -1 v -1 h -2 v -1 h -1 v 2 h -1 v 1 h -1 l -1,1 h -1 v -2 h 1 v -1 h 1 v -1 h 1 v -1 h 1 v -1 l 1,-1 q 1,-1 7,-11 6,-10 14,-31 8,-20 14,-42 4,-21 6,-43 l 2,-22 h -2 q -1,-1 -47,0 -47,0 -48,11 -1,12 -5,25 -2,13 -10,29 -8,17 -9,18 -2,2 -6,9 l -5,7 v 1 h -1 v 1 h -1 v 2 h -1 v 1 h -1 l -1,1 h -1 v -2 h 1 v -1 h 1 v -2 h 1 v -1 h 1 l 1,-1 q 1,-1 1,-1 0,0 1,-2 1,-2 9,-16 8,-14 13,-28 5,-14 7,-32 2,-19 -2,-20 h -4 v -4 h 8 v -3 q 0,-3 -1,-9 -1,-6 -4,-23 l -3,-17 -1,-2 -1,-2 v -2 h -1 v -1 h 1 v -1 h 1 v 1 l 1,1 v 2 l 1,2 1,1 3,11 q 3,12 5,27 2,15 50,15 h 48 v -8 q 0,-8 -1,-13 -1,-5 -4,-26 -3,-21 -9,-37 -4,-16 -10,-30 l -6,-13 v -1 q 0,0 -1,0 v -1 l -1,-1 v -1 l -1,-1 q -1,-2 -6,-11 -5,-9 -16,-23 l -11,-13 q 0,-1 -2,-2 l -1,-2 v -1 h 1 q 0,-1 0,-2 z"
     fill="#070605"
     stroke="#070605"
     id="path12"
     style="fill-rule:evenodd;stroke-width:0.892002"
     transform="matrix(1.1210635,0,0,1.1210838,-59.552385,-52.870649)" />
  <path
     d="m 272,121 1,-1 5,1 q 4,0 4,3 0,2 0,8 v 7 h -1 q -1,-1 -1,-4 0,-3 -4,-3 h -3 l -1,1 h -1 v -2 q -1,-2 -1,-6 0,-4 2,-4 z"
     fill="#373735"
     stroke="#373735"
     id="path14"
     style="fill-rule:evenodd;stroke-width:0.892002"
     transform="matrix(1.1210635,0,0,1.1210838,-59.552385,-52.870649)" />
  <path
     d="m 86,120 1,-8 h 19 l -1,20 q -1,20 -1,20 v 1 q 0,0 -3,2 -2,1 -3,-11 v -12 l -1,-1 q 0,-1 -5,-1 h -5 v 13 l -1,13 q 0,0 -4,0 h -6 v -13 q 0,-13 5,-13 5,-1 5,-10 z"
     fill="#2e2e2c"
     stroke="#2e2e2c"
     id="path16"
     style="fill-rule:evenodd;stroke-width:0.892002"
     transform="matrix(1.1210635,0,0,1.1210838,-59.552385,-52.870649)" />
  <path
     d="m 252,135 v -4 2 q 0,2 2,0 2,-2 4,-2 1,1 2,0 v 1 q 0,0 1,1 l 1,1 v 2 q 0,2 -1,3 0,1 -2,1 h -5 q -2,0 -2,-5 z"
     fill="#373735"
     stroke="#373735"
     id="path18"
     style="fill-rule:evenodd;stroke-width:0.892002"
     transform="matrix(1.1210635,0,0,1.1210838,-59.552385,-52.870649)" />
  <path
     d="m 744,850 v -17 h 13 v 34 h -13 z"
     fill="#2e2e2c"
     stroke="#2e2e2c"
     id="path22"
     style="fill-rule:evenodd;stroke-width:0.892002"
     transform="matrix(1.1210635,0,0,1.1210838,-59.552385,-52.870649)" />
  <path
     d="m 433,120 -1,-9 3,1 q 3,0 8,6 5,6 10,10 5,4 5,4 h -2 q -1,0 -1,8 l 1,9 v 1 h 6 v 1 h -4 l -3,-1 h -12 l -1,1 h -1 v -1 h -2 v -1 h 1 q 2,0 2,-1 v -10 q 0,-8 -4,-9 -4,-1 -5,-9 z"
     fill="#585856"
     stroke="#585856"
     id="path24"
     style="fill-rule:evenodd;stroke-width:0.892002"
     transform="matrix(1.1210635,0,0,1.1210838,-59.552385,-52.870649)" />
  <path
     d="m 258,790 v -15 h 30 q 29,1 30,1 v 29 h -1 q 0,1 -29,0 h -30 z"
     fill="#2c2c2a"
     stroke="#2c2c2a"
     id="path26"
     style="fill-rule:evenodd;stroke-width:0.892002"
     transform="matrix(1.1210635,0,0,1.1210838,-59.552385,-52.870649)" />
  <path
     d="m 505,837 q 4,0 4,7 -1,8 -2,9 -1,1 -4,1 -3,0 -3,-8 0,-9 5,-9 z"
     fill="#222221"
     stroke="#222221"
     id="path30"
     style="fill-rule:evenodd;stroke-width:0.892002"
     transform="matrix(1.1210635,0,0,1.1210838,-59.552385,-52.870649)" />
  <path
     d="m 260,180 v -15 h 30 q 29,1 30,1 v 28 h -30 q -29,0 -30,0 z"
     fill="#2c2c2a"
     stroke="#2c2c2a"
     id="path32"
     style="fill-rule:evenodd;stroke-width:0.892002"
     transform="matrix(1.1210635,0,0,1.1210838,-59.552385,-52.870649)" />
  <path
     d="m 907,833 6,-1 h 3 l 2,1 h 3 v 17 l -1,17 v 1 h -16 l -2,-1 h -1 v -14 q -1,-14 0,-17 v -3 z"
     fill="#2d2d2b"
     stroke="#2d2d2b"
     id="path34"
     style="fill-rule:evenodd;stroke-width:0.892002"
     transform="matrix(1.1210635,0,0,1.1210838,-59.552385,-52.870649)" />
  <path
     d="m 673,850 v -17 h 10 l 10,1 h 1 v 15 q 0,15 -1,17 v 1 h -2 l -2,1 h -12 l -2,-1 h -2 z"
     fill="#2e2e2c"
     stroke="#2e2e2c"
     id="path36"
     style="fill-rule:evenodd;stroke-width:0.892002"
     transform="matrix(1.1210635,0,0,1.1210838,-59.552385,-52.870649)" />
  <path
     d="m 453,231 h -1 q -2,1 -4,1 -2,0 -20,7 -17,7 -33,15 l -17,8 q -1,0 -1,1 l -14,10 q -14,9 -23,18 -10,8 -10,9 0,1 -4,4 -4,3 -11,12 -7,10 -8,10 -1,0 -3,3 -1,3 -10,19 -10,16 -16,33 -8,17 -12,35 -4,19 -7,42 -2,22 -78,23 h -76 v -1 H 84 l 1,-120 q 1,-119 4,-123 3,-5 7,-6 3,-1 180,-1 178,0 178,0 -1,0 -1,1 z"
     fill="#827258"
     stroke="#827258"
     id="path38"
     style="fill-rule:evenodd;stroke-width:0.892002;fill:#d6cec2;fill-opacity:1"
     transform="matrix(1.1210635,0,0,1.1210838,-59.552385,-52.870649)" />
  <path
     d="m 338,120 -1,-9 h 11 v 1 q 0,1 -1,9 v 8 h -4 q -4,-1 -5,-9 z"
     fill="#535351"
     stroke="#535351"
     id="path42"
     style="fill-rule:evenodd;stroke-width:0.892002"
     transform="matrix(1.1210635,0,0,1.1210838,-59.552385,-52.870649)" />
  <path
     d="m 914,429 v 51 H 807 v 1 h -65 v -9 q 0,-10 -1,-16 -1,-5 -3,-18 -2,-14 -8,-30 -4,-17 -13,-36 l -9,-20 v -2 q 0,-1 94,-61 93,-59 98,-59 5,2 8,5 4,3 5,7 1,4 1,70 0,67 0,117 z"
     fill="#817258"
     stroke="#817258"
     id="path44"
     style="fill-rule:evenodd;stroke-width:0.892002;fill:#dbd4ca;fill-opacity:1"
     transform="matrix(1.1210635,0,0,1.1210838,-59.552385,-52.870649)" />
  <path
     d="m 242,840 q 3,0 4,2 0,3 -2,3 -3,-1 -4,-3 0,-2 2,-2 z"
     fill="#474746"
     stroke="#474746"
     id="path46"
     style="fill-rule:evenodd;stroke-width:0.892002"
     transform="matrix(1.1210635,0,0,1.1210838,-59.552385,-52.870649)" />
  <path
     d="m 587,170 v -5 h 29 l 29,1 h 1 v 29 h -59 v -4 l -1,-4 v -12 z"
     fill="#2c2c2a"
     stroke="#2c2c2a"
     id="path56"
     style="fill-rule:evenodd;stroke-width:0.892002"
     transform="matrix(1.1210635,0,0,1.1210838,-59.552385,-52.870649)" />
  <path
     d="m 357,112 v -1 h 11 v 1 l -1,8 v 8 h -9 v -8 q 0,-8 -1,-8 z"
     fill="#525250"
     stroke="#525250"
     id="path58"
     style="fill-rule:evenodd;stroke-width:0.892002"
     transform="matrix(1.1210635,0,0,1.1210838,-59.552385,-52.870649)" />
  <path
     d="m 890,130 -1,-19 h 14 v 19 q 1,19 1,20 0,0 1,0 v 1 h -1 q -1,-1 -8,0 h -8 v -1 q 0,0 1,-1 1,0 1,-19 z"
     fill="#555553"
     stroke="#555553"
     id="path60"
     style="fill-rule:evenodd;stroke-width:0.892002"
     transform="matrix(1.1210635,0,0,1.1210838,-59.552385,-52.870649)" />
  <path
     d="m 422,120 1,-9 h 9 l 1,9 q 1,8 5,9 4,1 4,9 v 10 q 0,1 -2,1 h -3 q -2,1 -3,1 -1,0 -1,-10 v -10 h -5 q -6,0 -6,1 l -1,9 q -1,8 -1,12 v 3 h -8 v -7 q 0,-3 1,-10 0,-8 5,-8 4,-1 4,-10 z"
     fill="#2e2e2c"
     stroke="#2e2e2c"
     id="path62"
     style="fill-rule:evenodd;stroke-width:0.892002"
     transform="matrix(1.1210635,0,0,1.1210838,-59.552385,-52.870649)" />
  <path
     d="m 924,164 h 9 v 16 l -1,14 q 0,0 -9,1 h -9 v -31 q 1,0 10,0 z"
     fill="#2f2f2d"
     stroke="#2f2f2d"
     id="path64"
     style="fill-rule:evenodd;stroke-width:0.892002"
     transform="matrix(1.1210635,0,0,1.1210838,-59.552385,-52.870649)" />
  <path
     d="m 591,111 h 257 v 18 h 10 v -4 q 0,-4 0,-9 v -5 h 11 v 1 q -1,0 -1,8 v 8 q 0,0 -2,1 l -1,1 h -3 q -2,0 -2,13 v 13 h 4 q 0,0 1,0 v -1 h 1 v 1 q 0,1 -1,20 v 18 h -1 v -29 h -29 l -29,1 q 0,0 -1,14 v 14 h -1 v -18 q 0,-19 -3,-22 -2,-2 -19,-3 -18,-1 -21,2 -3,2 -4,21 l -1,20 h -1 v -29 h -59 v 27 h -1 v -18 q -1,-18 -3,-20 -2,-2 -20,-3 -17,-1 -20,2 -4,2 -4,21 l -1,19 h -1 v -27 h -1 l -29,-1 h -29 v 5 l -1,5 v -9 q 0,-9 -1,-9 v -1 h -1 v -1 h -1 v -1 h -1 l -1,-1 h -1 v -2 h 1 l 1,1 h 2 v 1 l 1,1 q 1,2 4,2 h 3 v -44 h -1 q 0,0 0,-1 z m 124,5 q 4,0 4,1 0,1 -3,2 -4,1 -4,2 -1,2 4,3 4,1 4,6 0,6 -4,7 -5,1 -6,-1 -2,0 -3,-4 -1,-3 -1,-8 0,-4 2,-6 2,-2 7,-2 z m 25,10 v 6 l -1,1 q -1,1 -2,2 -1,1 -5,2 l -5,1 -1,-2 q 0,-2 4,-2 4,-1 4,-7 0,-6 -4,-7 -4,-1 -4,-2 0,-2 4,-2 5,0 7,3 3,2 3,7 z"
     fill="#565654"
     stroke="#565654"
     id="path66"
     style="fill-rule:evenodd;stroke-width:0.892002"
     transform="matrix(1.1210635,0,0,1.1210838,-59.552385,-52.870649)" />
  <path
     d="m 498,331 v -1 l 1,1 v 1 h 2 l 1,1 q 0,1 14,3 15,2 27,6 13,5 22,11 9,6 15,9 5,4 10,11 6,7 8,9 2,2 3,3 l 1,1 v 1 h 1 v 1 h 1 v 1 h 1 v 1 h 1 v 2 h -2 v -1 h -1 v -1 h -1 v -2 h -2 v -2 h -1 q 0,0 -1,-3 -2,-2 -3,-2 -1,-1 -1,-2 -1,-1 -2,-1 -1,0 -4,-4 -3,-4 -6,-6 -2,-1 -9,-6 -7,-4 -7,-5 0,-1 -3,-2 -3,-1 -13,-6 -10,-5 -22,-7 -11,-2 -19,-3 h -8 q -1,0 -1,-1 0,-1 -5,-1 l -5,1 h -2 q -2,0 -5,1 -3,1 -17,5 -15,4 -27,10 -12,6 -21,14 l -10,8 v 2 h -1 v 1 h -1 v 1 h -2 v 1 h -1 v 1 h -1 v -2 h 1 v -2 h 2 v -1 h 1 v -2 h 1 v -1 l 1,-1 q 1,-2 14,-12 14,-9 24,-15 9,-4 20,-8 12,-2 22,-4 9,-2 9,-2 1,0 1,-1 z"
     fill="#100e0a"
     stroke="#100e0a"
     id="path70"
     style="fill-rule:evenodd;stroke-width:0.892002"
     transform="matrix(1.1210635,0,0,1.1210838,-59.552385,-52.870649)" />
  <path
     d="m 226,837 5,-1 v 1 q 1,0 1,10 v 10 h -6 q -5,-1 -6,-1 0,-1 0,-6 0,-4 -2,-4 -1,-1 -1,-4 1,-2 2,-3 1,-1 7,-2 z m -4,5 q 0,-2 3,-2 3,0 3,3 -1,3 -4,2 -2,-1 -2,-3 z"
     fill="#161616"
     stroke="#161616"
     id="path72"
     style="fill-rule:evenodd;stroke-width:0.892002"
     transform="matrix(1.1210635,0,0,1.1210838,-59.552385,-52.870649)" />
  <path
     d="m 933,776 v 14 l -1,15 v 1 h -19 v -1 h -1 v -29 h 10 q 11,0 11,0 z"
     fill="#2d2d2b"
     stroke="#2d2d2b"
     id="path74"
     style="fill-rule:evenodd;stroke-width:0.892002"
     transform="matrix(1.1210635,0,0,1.1210838,-59.552385,-52.870649)" />
  <path
     d="m 66,120 v -9 h 10 v 18 H 66 Z"
     fill="#30302e"
     stroke="#30302e"
     id="path78"
     style="fill-rule:evenodd;stroke-width:0.892002"
     transform="matrix(1.1210635,0,0,1.1210838,-59.552385,-52.870649)" />
  <path
     d="m 368,776 h 58 v 30 h -29 q -29,0 -29,-15 l -1,-15 z"
     fill="#2c2c2a"
     stroke="#2c2c2a"
     id="path80"
     style="fill-rule:evenodd;stroke-width:0.892002"
     transform="matrix(1.1210635,0,0,1.1210838,-59.552385,-52.870649)" />
  <path
     d="m 480,846 q 0,-8 2,-9 1,-1 5,-1 3,1 5,4 0,2 0,7 0,5 -2,7 -2,2 -6,1 -4,-1 -4,-9 z m 3,-5 q 0,-1 3,-1 4,1 3,6 -1,5 -3,5 -2,-1 -3,-5 -1,-4 0,-5 z"
     fill="#101010"
     stroke="#101010"
     id="path82"
     style="fill-rule:evenodd;stroke-width:0.892002"
     transform="matrix(1.1210635,0,0,1.1210838,-59.552385,-52.870649)" />
  <path
     d="m 260,131 q -1,1 -2,0 -2,0 -4,2 -2,2 -2,0 v -2 l -1,-4 q -1,-4 0,-5 1,-2 5,-1 5,1 6,1 0,1 0,4 0,3 -1,4 -1,0 -1,1 z"
     fill="#383836"
     stroke="#383836"
     id="path84"
     style="fill-rule:evenodd;stroke-width:0.892002"
     transform="matrix(1.1210635,0,0,1.1210838,-59.552385,-52.870649)" />
  <path
     d="m 131,120 -1,-9 h 11 v 1 q -1,0 -1,8 0,9 -4,9 -4,1 -5,-9 z"
     fill="#545452"
     stroke="#545452"
     id="path86"
     style="fill-rule:evenodd;stroke-width:0.892002"
     transform="matrix(1.1210635,0,0,1.1210838,-59.552385,-52.870649)" />
  <path
     d="m 483,841 q 0,-1 3,-1 4,1 3,6 -1,5 -3,5 -2,-1 -3,-5 -1,-4 0,-5 z"
     fill="#444442"
     stroke="#444442"
     id="path88"
     style="fill-rule:evenodd;stroke-width:0.892002"
     transform="matrix(1.1210635,0,0,1.1210838,-59.552385,-52.870649)" />
  <path
     d="m 879,850 v -17 h 6 l 6,1 h 1 v 16 q 0,16 -1,16 l -1,1 -1,1 h -6 l -2,-1 h -2 z"
     fill="#2e2e2c"
     stroke="#2e2e2c"
     id="path90"
     style="fill-rule:evenodd;stroke-width:0.892002"
     transform="matrix(1.1210635,0,0,1.1210838,-59.552385,-52.870649)" />
  <path
     d="m 694,776 h 60 v 24 q 0,5 -30,5 l -29,1 v -1 h -1 z"
     fill="#2c2c2a"
     stroke="#2c2c2a"
     id="path92"
     style="fill-rule:evenodd;stroke-width:0.892002"
     transform="matrix(1.1210635,0,0,1.1210838,-59.552385,-52.870649)" />
  <path
     d="m 272,133 1,-1 h 3 q 4,0 4,3 0,3 1,4 h 1 q 0,1 -2,1 -2,0 -6,0 -3,0 -4,-2 0,-1 0,-3 l 1,-2 z"
     fill="#3a3a38"
     stroke="#3a3a38"
     id="path94"
     style="fill-rule:evenodd;stroke-width:0.892002"
     transform="matrix(1.1210635,0,0,1.1210838,-59.552385,-52.870649)" />
  <path
     d="m 525,138 h 1 l 2,-1 q 2,0 2,9 v 9 h -1 v 1 h -9 v -6 q 0,-4 0,-6 v -3 h 1 v -1 q 1,0 1,0 v -1 q 0,0 1,-1 z"
     fill="#30302e"
     stroke="#30302e"
     id="path96"
     style="fill-rule:evenodd;stroke-width:0.892002"
     transform="matrix(1.1210635,0,0,1.1210838,-59.552385,-52.870649)" />
  <path
     d="m 494,236 h 4 v 95 q 0,1 -1,1 0,0 -9,2 -10,2 -22,4 -11,4 -22,9 -10,5 -20,13 -10,8 -12,10 -1,3 -3,4 h -2 v 1 h -1 v 1 q -1,0 -1,1 h -1 q 0,1 0,1 h -1 v 1 h -1 q 0,1 0,1 v 1 q -1,1 -2,1 v 1 l -1,1 -1,1 v 1 h -2 v 2 h -1 v 1 l -7,11 q -6,10 -13,26 -7,15 -9,30 -4,15 -4,22 -1,8 -10,8 h -84 v -14 q 0,-13 2,-22 0,-10 6,-31 4,-21 12,-39 8,-17 16,-30 8,-14 9,-14 1,0 4,-5 3,-5 15,-18 12,-13 30,-27 l 18,-14 q 0,0 1,0 v -1 h 1 l 1,-1 13,-7 q 14,-7 28,-13 13,-4 40,-10 27,-4 30,-4 z"
     fill="#867f71"
     stroke="#867f71"
     id="path98"
     style="fill-rule:evenodd;stroke-width:0.892002;fill:#e8e6e3;fill-opacity:1"
     transform="matrix(1.1210635,0,0,1.1210838,-59.552385,-52.870649)" />
  <path
     d="m 355,850 v -17 l 6,1 q 7,0 7,16 v 16 h -1 q 0,0 -6,1 h -6 z"
     fill="#2e2e2c"
     stroke="#2e2e2c"
     id="path100"
     style="fill-rule:evenodd;stroke-width:0.892002"
     transform="matrix(1.1210635,0,0,1.1210838,-59.552385,-52.870649)" />
  <path
     d="m 151,180 v -15 h 59 v 29 q 0,0 -30,0 h -29 z"
     fill="#2c2c2a"
     stroke="#2c2c2a"
     id="path102"
     style="fill-rule:evenodd;stroke-width:0.892002"
     transform="matrix(1.1210635,0,0,1.1210838,-59.552385,-52.870649)" />
  <path
     d="m 912,112 v -1 h 11 v 1 h -1 v 17 h -9 v -9 q -1,-8 -1,-8 z"
     fill="#535351"
     stroke="#535351"
     id="path104"
     style="fill-rule:evenodd;stroke-width:0.892002"
     transform="matrix(1.1210635,0,0,1.1210838,-59.552385,-52.870649)" />
  <path
     d="m 250,852 v 3 h -1 q 0,1 -5,1 -6,0 -6,-4 0,-4 0,-6 -2,-2 -1,-5 1,-3 7,-3 5,0 5,6 1,6 1,8 z m -8,-12 q 3,0 4,2 0,3 -2,3 -3,-1 -4,-3 0,-2 2,-2 z m 0,12 q 0,-2 2,-2 2,0 1,2 -1,2 -2,2 -1,0 -1,-2 z"
     fill="#121212"
     stroke="#121212"
     id="path106"
     style="fill-rule:evenodd;stroke-width:0.892002"
     transform="matrix(1.1210635,0,0,1.1210838,-59.552385,-52.870649)" />
  <path
     d="m 490,638 h 7 v -14 l 1,-14 1,14 q 1,13 1,12 0,-1 1,-1 v 1 l 1,1 v 1 h 1 l 17,-2 q 16,-2 28,-8 11,-4 23,-12 11,-8 12,-9 0,-1 1,-1 2,0 4,-2 1,-2 2,-3 h 1 v -1 l 1,-1 v -1 h 1 v -1 h 1 v -1 h 2 v 2 l -1,1 v 1 h -2 v 1 h -1 v 1 h -1 v 1 h -1 v 1 q 0,1 -1,1 -1,1 -3,3 -1,2 -3,4 -3,1 -15,9 -12,8 -24,13 -12,4 -27,7 -15,3 -15,4 l -1,2 h -1 v -2 l -1,1 -1,1 q 0,0 -1,-2 0,-2 -11,-3 -12,-2 -20,-4 -9,-2 -19,-8 -10,-4 -22,-13 -12,-9 -21,-19 l -8,-10 h 1 q 1,0 4,4 3,4 6,7 3,3 4,5 1,1 4,2 3,2 13,9 10,7 24,13 14,6 23,8 9,2 15,2 z"
     fill="#141413"
     stroke="#141413"
     id="path108"
     style="fill-rule:evenodd;stroke-width:0.892002"
     transform="matrix(1.1210635,0,0,1.1210838,-59.552385,-52.870649)" />
  <path
     d="m 87,112 v -1 h 34 v 19 q 1,19 10,20 10,0 10,1 h -10 q -10,-1 -15,-1 -6,0 -8,2 l -3,2 h -1 q 0,0 0,-1 v -1 q 0,0 1,-20 l 1,-20 z"
     fill="#535351"
     stroke="#535351"
     id="path110"
     style="fill-rule:evenodd;stroke-width:0.892002"
     transform="matrix(1.1210635,0,0,1.1210838,-59.552385,-52.870649)" />
  <path
     d="m 848,120 v -9 h 10 v 5 q 0,5 0,9 v 4 h -10 z"
     fill="#31312f"
     stroke="#31312f"
     id="path112"
     style="fill-rule:evenodd;stroke-width:0.892002"
     transform="matrix(1.1210635,0,0,1.1210838,-59.552385,-52.870649)" />
  <path
     d="m 572,120 -1,-9 h 11 v 7 q 0,8 -1,10 0,1 -4,1 -4,-1 -5,-9 z"
     fill="#51514f"
     stroke="#51514f"
     id="path114"
     style="fill-rule:evenodd;stroke-width:0.892002"
     transform="matrix(1.1210635,0,0,1.1210838,-59.552385,-52.870649)" />
  <path
     d="m 499,145 v -1 h 9 v 11 h -1 q 0,1 -5,1 h -4 v -6 q 0,-5 1,-5 z"
     fill="#30302e"
     stroke="#30302e"
     id="path116"
     style="fill-rule:evenodd;stroke-width:0.892002"
     transform="matrix(1.1210635,0,0,1.1210838,-59.552385,-52.870649)" />
  <path
     d="m 741,514 1,-21 h 86 q 85,1 86,1 h 1 v 2 q -1,1 -1,117 0,116 -2,121 -2,5 -7,8 -4,2 -179,3 l -175,1 v -2 h 1 v -1 h 1 l 1,-1 h 3 l 17,-6 q 18,-6 38,-17 20,-11 33,-21 13,-11 25,-22 12,-12 15,-16 3,-4 4,-5 1,0 3,-3 1,-2 3,-5 1,-3 2,-3 v -1 q 1,0 1,0 0,-1 8,-14 8,-13 16,-32 8,-18 12,-39 6,-22 7,-44 z"
     fill="#817259"
     stroke="#817259"
     id="path118"
     style="fill-rule:evenodd;stroke-width:0.892002;fill:#dcd6cc;fill-opacity:1"
     transform="matrix(1.1210635,0,0,1.1210838,-59.552385,-52.870649)" />
  <path
     d="m 101,180 v 14 h -1 q 0,0 -17,1 H 66 v -30 h 16 q 16,-1 17,0 1,1 2,15 z"
     fill="#2d2d2b"
     stroke="#2d2d2b"
     id="path120"
     style="fill-rule:evenodd;stroke-width:0.892002"
     transform="matrix(1.1210635,0,0,1.1210838,-59.552385,-52.870649)" />
  <path
     d="m 804,776 v -1 h 29 q 29,1 29,1 v 30 h -58 v -2 q 0,-1 -1,-14 v -13 q 1,0 1,-1 z"
     fill="#2c2c2a"
     stroke="#2c2c2a"
     id="path124"
     style="fill-rule:evenodd;stroke-width:0.892002"
     transform="matrix(1.1210635,0,0,1.1210838,-59.552385,-52.870649)" />
  <path
     d="m 868,128 1,1 q 1,1 5,1 h 5 l 1,10 q 0,9 1,9 l 1,1 h 6 v 1 h -4 q -5,-1 -8,-1 -3,0 -6,3 l -4,2 q 0,1 -1,1 h -1 v -1 q 0,-1 2,-2 0,-1 2,-11 0,-11 -1,-12 h -2 l 1,-1 q 2,-1 2,-1 z"
     fill="#555553"
     stroke="#555553"
     id="path126"
     style="fill-rule:evenodd;stroke-width:0.892002"
     transform="matrix(1.1210635,0,0,1.1210838,-59.552385,-52.870649)" />
  <path
     d="m 806,166 29,-1 h 29 v 29 q -1,0 -30,0 h -29 v -14 q 1,-14 1,-14 z"
     fill="#2c2c2a"
     stroke="#2c2c2a"
     id="path128"
     style="fill-rule:evenodd;stroke-width:0.892002"
     transform="matrix(1.1210635,0,0,1.1210838,-59.552385,-52.870649)" />
  <path
     d="m 76,120 v -9 h 11 v 1 l -1,8 q 0,9 -5,10 -5,0 -5,13 v 13 h 6 q 4,0 4,0 l 1,-13 v -13 h 5 q 5,0 5,1 l 1,1 v 12 q 1,12 3,11 3,-2 3,-2 0,1 0,1 h 1 l -2,3 q -1,3 -1,5 0,2 0,17 v 15 h -1 v -14 q -1,-14 -2,-15 -1,-1 -17,0 H 66 v -36 h 10 z"
     fill="#555553"
     stroke="#555553"
     id="path130"
     style="fill-rule:evenodd;stroke-width:0.892002"
     transform="matrix(1.1210635,0,0,1.1210838,-59.552385,-52.870649)" />
  <path
     d="m 488,338 h 6 q 4,1 3,44 -1,42 -5,50 -4,8 -8,9 -4,2 -4,13 v 11 h 11 v 10 l -1,10 v 1 H 366 v -10 q 0,-9 1,-12 1,-3 5,-20 4,-16 10,-30 6,-13 7,-13 1,0 3,-3 2,-3 2,-6 l 1,-3 v -1 h 1 q 1,0 1,1 h 1 v -1 h 1 v -1 h 1 v -1 q 0,-1 -1,-2 l 1,-1 v -1 q 1,0 2,-1 v 1 h 1 v -1 h 1 v -1 h -2 q 0,0 0,-1 h 1 v -1 h 1 v -1 q 0,-1 1,-1 h 1 v 2 q 0,2 0,2 v -1 h 1 v -1 h 1 v -2 l 10,-8 q 9,-8 21,-14 12,-6 27,-10 14,-4 17,-5 3,-1 5,-1 z"
     fill="#898984"
     stroke="#898984"
     id="path132"
     style="fill-rule:evenodd;stroke-width:0.892002;fill:#e6e6e5;fill-opacity:1"
     transform="matrix(1.1210635,0,0,1.1210838,-59.552385,-52.870649)" />
  <path
     d="m 569,111 -3,1 q -4,0 -3,19 0,19 7,19 6,0 6,1 h -7 q -7,-1 -15,0 h -7 v -1 h 1 q 1,0 2,-1 1,0 1,-11 -1,-11 -4,-12 h -4 l 1,-1 1,-1 h 1 l 2,-3 q 2,-3 5,-7 2,-3 9,-3 7,-1 7,0 z"
     fill="#5a5a58"
     stroke="#5a5a58"
     id="path134"
     style="fill-rule:evenodd;stroke-width:0.892002"
     transform="matrix(1.1210635,0,0,1.1210838,-59.552385,-52.870649)" />
  <path
     d="m 184,133 h -14 v -8 l 14,-1 q 14,0 14,-2 0,-2 4,0 5,2 9,4 3,2 3,3 0,1 -8,5 -7,4 -8,2 -1,-2 -14,-3 z"
     fill="#2e2e2c"
     stroke="#2e2e2c"
     id="path136"
     style="fill-rule:evenodd;stroke-width:0.892002"
     transform="matrix(1.1210635,0,0,1.1210838,-59.552385,-52.870649)" />
  <path
     d="m 701,357 h 1 q 0,1 0,1 h 1 q 0,0 1,1 l 6,13 q 6,14 10,30 6,16 9,37 3,21 4,26 1,5 1,13 v 8 h -48 q -48,0 -50,-15 -2,-15 -5,-27 l -3,-11 -1,-1 -1,-2 v -2 l -1,-1 v -2 l -1,-1 v -1 h -1 q 0,-1 -1,-1 h -1 v -1 h -1 q 0,-1 0,-1 h 2 v -1 l -1,-1 q -1,-2 -1,-4 v -2 q 0,-1 -1,-1 l 1,-3 q 1,-2 39,-27 38,-25 40,-25 2,0 2,1 z"
     fill="#88857c"
     stroke="#88857c"
     id="path138"
     style="fill-rule:evenodd;stroke-width:0.892002;fill:#e7e6e4;fill-opacity:1"
     transform="matrix(1.1210635,0,0,1.1210838,-59.552385,-52.870649)" />
  <path
     d="m 377,262 h 1 v 1 q 0,1 1,1 1,0 0,2 -1,2 0,3 l 1,1 h -1 q 0,0 1,1 h 1 v 1 q 0,1 -8,6 -9,6 -19,15 -12,9 -24,23 -14,15 -15,17 -1,3 -2,3 -1,0 -9,14 -8,13 -16,30 -8,18 -12,39 -6,21 -6,31 -2,9 -2,22 v 14 h 74 l -2,1 h -2 v 2 l 1,1 h -70 v 1 h -1 l 2,21 q 2,21 8,42 6,21 14,41 9,21 20,38 11,17 24,31 12,14 20,22 8,7 9,8 0,0 1,1 v 1 h 1 v 1 h 1 v 2 h -1 v -1 h -1 v -1 h -1 v 1 h -2 v 2 l 1,1 v 1 h 1 v 1 h 1 v 2 h -1 l -1,-1 h -1 v -1 h -1 v -1 h -1 v -1 q -1,0 -5,-3 -5,-3 -5,-4 -1,-1 -10,-10 -9,-8 -21,-20 -10,-13 -22,-31 -12,-18 -18,-35 -8,-17 -12,-34 -4,-18 -8,-44 -2,-27 -4,-28 H 85 v -1 h -1 v -9 h 1 l 10,-1 h 86 q 76,-1 78,-23 3,-23 7,-42 4,-18 12,-35 6,-17 16,-33 9,-16 10,-19 2,-3 3,-3 1,0 8,-10 7,-9 11,-12 4,-3 4,-4 0,-1 10,-9 8,-8 21,-17 12,-8 13,-10 2,-2 3,-2 z m -2,5 q 0,-1 0,-1 h 1 q 0,1 -1,1 z"
     fill="#050503"
     stroke="#050503"
     id="path140"
     style="fill-rule:evenodd;stroke-width:0.892002"
     transform="matrix(1.1210635,0,0,1.1210838,-59.552385,-52.870649)" />
  <path
     d="m 328,130 v -19 h 9 l 1,9 q 1,8 5,9 h 4 v -8 q 1,-8 1,-9 v -1 h 9 v 1 q 1,0 1,8 v 8 h 9 v -8 l 1,-8 v -1 h 9 v 2 l 1,2 v 40 h -1 v 1 h -5 q -4,0 -5,-1 l -1,-1 q 0,-1 -1,-1 v -1 q -1,0 -1,0 -1,0 -3,-1 h -2 q 0,-1 -15,-1 -15,0 -16,-20 z"
     fill="#2e2e2c"
     stroke="#2e2e2c"
     id="path144"
     style="fill-rule:evenodd;stroke-width:0.892002"
     transform="matrix(1.1210635,0,0,1.1210838,-59.552385,-52.870649)" />
  <path
     d="m 913,184 v -24 q 1,0 1,2 v 33 h 9 q 9,-1 9,-1 l 1,-14 v -15 h 1 v 304 q 0,304 0,305 v 2 h -1 q 0,0 -11,0 h -11 v -5 q -1,-5 -2,-7 -2,-2 -21,-2 -18,0 -21,2 -3,2 -3,7 v 5 h -2 q 0,0 -29,-1 h -29 v 1 q 0,1 -1,1 h -1 v -1 q 0,-2 0,-6 0,-3 -2,-5 -2,-3 -20,-3 -19,0 -22,2 -2,2 -3,16 v 15 h -1 v -19 h -61 q 1,-1 0,-6 -1,-4 -2,-6 -2,-2 -21,-2 -18,0 -21,2 -3,2 -3,7 l -1,5 h -1 q 0,0 -29,-1 h -29 v 2 h -1 v -5 q -1,-4 -3,-7 -2,-3 -20,-3 -19,0 -22,2 -2,2 -3,7 l -1,5 h -61 q 1,-1 0,-6 -1,-4 -2,-6 -2,-2 -21,-2 -18,0 -21,2 -3,2 -3,7 l -1,5 h -61 v -5 q 0,-5 -2,-7 -2,-2 -20,-2 -19,0 -22,2 -2,2 -3,7 v 5 h -1 q -1,0 -30,-1 h -30 v -3 q 0,-4 -3,-7 -2,-3 -21,-3 -18,0 -20,1 -2,2 -3,7 l -1,6 h -62 q 0,-1 0,-4 0,-3 -2,-6 -2,-4 -20,-4 -19,0 -22,2 -2,2 -3,8 v 5 h -1 v -1 q 0,0 -17,0 L 66,775 V 195 h 17 q 17,-1 17,-1 h 2 v 8 q 0,8 2,10 2,2 22,2 19,0 21,-2 3,-2 3,-10 v -8 h 30 q 30,0 30,0 h 1 l 1,8 q 0,9 3,11 3,3 21,2 19,-1 21,-3 1,-2 2,-10 v -8 h 1 q 1,0 30,0 h 30 l 1,9 q 1,9 3,11 3,2 21,1 18,-1 19,-1 1,0 2,-2 2,-3 2,-10 v -8 h 1 q 0,0 1,1 h 28 l 29,-1 h 2 l 1,8 q 0,9 2,11 1,1 20,1 20,0 22,-1 2,-2 2,-10 0,-8 0,-10 v -2 l 1,1 1,2 h 60 l 1,8 q 1,9 1,10 0,1 22,0 22,0 23,-1 1,-1 1,-13 v -11 l 1,4 v 4 h 59 v -2 h 1 v 9 q 1,8 2,9 1,1 23,1 21,0 22,-1 0,-1 1,-10 v -9 h 1 v 3 h 30 q 29,-1 29,-1 h 1 l 1,8 q 1,9 1,10 0,1 22,0 22,0 23,-1 1,-1 1,-9 v -8 h 30 q 29,0 30,0 h 1 l 1,9 q 0,9 23,9 22,0 23,-2 0,-1 1,-26 z m -460,47 3,-1 q 4,0 50,0 46,0 64,6 17,6 34,15 16,9 32,19 14,11 18,15 3,4 6,7 3,2 3,3 h 1 v 1 l 1,1 q 1,1 1,1 v 1 q 0,0 1,1 1,0 1,0 v 1 l 4,4 q 5,5 9,7 3,3 14,20 11,17 11,18 v 1 h 1 v 1 h 1 v -2 q 0,-1 94,-61 93,-59 98,-59 5,2 8,5 4,3 5,7 1,4 1,70 0,67 0,117 v 51 H 807 v 1 h 108 v 11 H 742 v 1 h 86 q 85,1 86,1 h 1 v 2 q -1,1 -1,117 0,116 -2,121 -2,5 -7,8 -4,2 -224,3 -220,1 -227,-1 l -6,-1 v 1 h 1 v 1 h 1 v 1 H 276 q -175,0 -178,-2 -3,0 -7,-4 -4,-4 -5,-9 -2,-5 -2,-121 V 494 h 1 l 85,-1 84,-1 H 85 v -1 h -1 v -9 h 1 l 10,-1 h 10 v -1 H 84 l 1,-120 q 1,-119 4,-123 3,-5 7,-6 3,-1 180,-1 178,0 178,0 -1,0 -1,1 z"
     fill="#5e584e"
     stroke="#5e584e"
     id="path146"
     style="fill-rule:evenodd;stroke-width:0.892002;fill:#c3beb7;fill-opacity:1"
     transform="matrix(1.1210635,0,0,1.1210838,-59.552385,-52.870649)" />
  <path
     d="m 502,236 h 12 q 12,2 37,7 25,5 41,12 17,7 27,13 11,6 20,13 9,7 15,12 6,5 6,5 v 1 h 1 v 1 h 1 v 1 h 1 v 1 h 1 v 1 h 1 l 1,2 q 2,1 2,2 l 11,13 q 11,14 16,23 5,9 6,11 l 1,1 v 1 h 1 v 1 h 1 v 2 h -2 v -2 h -1 q 0,-1 -2,-1 -2,0 -40,25 -38,25 -39,27 v 5 l -1,-1 h -1 v -2 h -1 v -1 h -1 v -1 q 0,-1 -5,-8 l -5,-8 q 0,-1 -1,-1 v -1 l -1,-1 v -1 h -1 v -1 h -1 v -1 l -1,-1 q -1,-1 -3,-3 -2,-2 -8,-9 -5,-7 -10,-11 -6,-3 -15,-9 -9,-6 -22,-11 -12,-4 -27,-6 -14,-2 -14,-3 l -1,-1 v -48 z"
     fill="#705b36"
     stroke="#705b36"
     id="path148"
     style="fill-rule:evenodd;stroke-width:0.892002;fill:#ccbb98;fill-opacity:1"
     transform="matrix(1.1210635,0,0,1.1210838,-59.552385,-52.870649)" />
  <path
     d="m 79,832 h 9 l 2,1 h 3 v 17 l -1,17 v 1 H 74 v -1 h -1 v -1 h -1 v -32 h 1 l 2,-1 q 2,-1 4,-1 z"
     fill="#2e2e2c"
     stroke="#2e2e2c"
     id="path150"
     style="fill-rule:evenodd;stroke-width:0.892002"
     transform="matrix(1.1210635,0,0,1.1210838,-59.552385,-52.870649)" />
  <path
     d="m 334,834 h 12 v 33 l -1,1 h -8 l -1,-1 q -2,-1 -2,-17 z"
     fill="#30302e"
     stroke="#30302e"
     id="path152"
     style="fill-rule:evenodd;stroke-width:0.892002"
     transform="matrix(1.1210635,0,0,1.1210838,-59.552385,-52.870649)" />
  <path
     d="m 148,791 v -15 h 2 v 30 h 58 v -1 q 0,0 1,-15 v -14 h 1 l 1,24 q 1,23 2,24 2,2 21,1 20,-1 22,-3 2,-3 2,-10 v -7 h 30 q 29,1 29,0 h 1 v -29 h 1 v 22 q 1,23 3,25 2,3 21,2 19,-1 21,-2 2,-2 2,-25 v -22 h 1 l 1,15 q 0,15 29,15 h 29 v -30 h 1 l 1,22 q 0,23 3,25 2,3 21,2 19,-1 20,-1 1,0 2,-3 2,-3 2,-9 0,-6 -1,-21 v -15 h 1 v 15 q 1,15 30,15 h 29 v -30 h 1 l 1,22 q 1,23 3,25 2,3 21,2 19,-1 21,-3 2,-3 3,-24 v -21 h 1 v 29 h 29 q 29,0 29,-1 l 1,-12 v -12 l 1,20 q 0,20 3,22 2,3 21,2 20,-1 22,-4 2,-3 2,-9 0,-6 -1,-21 v -15 h 1 v 29 h 1 v 1 l 29,-1 q 30,0 30,-5 v -5 h 1 v 13 q 1,13 3,15 2,3 22,2 19,-1 21,-5 1,-4 1,-8 0,-5 0,-20 v -15 h 1 v 13 q 1,13 1,14 v 2 h 58 v -30 h 2 v 22 q 0,23 3,25 2,3 21,2 19,-1 20,-1 1,0 2,-2 0,-1 1,-24 v -22 h 1 v 29 h 1 v 1 h 19 v -1 l 1,-15 v -14 h 1 v 44 q 0,44 0,45 v 2 h -1 v 1 h -13 v -1 l 1,-17 v -17 h -3 l -2,-1 h -3 l -6,1 h -6 v 3 q -1,3 0,17 v 14 h 1 l 2,1 h -15 l 1,-1 1,-1 q 1,0 1,-16 v -16 h -1 l -6,-1 h -6 v 34 h 2 l 2,1 H 776 l 1,-1 h 1 v -33 h -1 l -6,-1 h -6 v 17 q 0,17 2,17 l 2,1 h -80 l 2,-1 h 2 v -1 q 1,-2 1,-17 v -15 h -1 l -10,-1 h -10 v 34 h 2 l 2,1 h -15 l 2,-1 q 2,0 2,-17 v -17 h -13 v 34 h 2 l 2,1 H 345 l 1,-1 v -33 h -12 v 16 q 0,16 2,17 l 1,1 h -18 l 3,-1 q 2,0 2,-17 v -17 h -10 l -10,1 v 16 q 0,16 0,16 v 1 l 1,1 H 112 l 2,-1 q 2,0 2,-17 v -17 h -2 l -2,-1 h -6 l -2,1 h -1 v 1 l -1,1 v 14 q 0,14 1,16 v 2 h 2 l 2,1 H 92 v -1 l 1,-17 v -17 h -3 l -2,-1 h -9 q -2,0 -4,1 l -2,1 h -1 v 32 h 1 v 1 h 1 v 1 h -8 v -63 h 1 v 1 h 32 v -1 h 1 v -28 h 1 v 22 q 1,22 1,23 1,2 2,3 2,1 22,0 19,-1 21,-4 1,-3 1,-9 0,-6 0,-21 z m 207,59 v -17 l 6,1 q 7,0 7,16 v 16 h -1 q 0,0 -6,1 h -6 z m 278,-2 v -15 h 13 v 34 h -13 v -2 q -1,-2 0,-17 z m 91,2 v -17 l 6,1 q 6,0 6,16 v 16 q 0,0 -6,1 h -6 z m 20,0 v -17 h 13 v 34 h -13 z m -264,-4 q 0,-8 2,-9 1,-1 5,-1 3,1 5,4 0,2 0,7 0,5 -2,7 -2,2 -6,1 -4,-1 -4,-9 z m 56,-10 -1,-1 h 6 l 6,1 q 1,0 1,10 v 9 h -1 q 0,1 -6,1 -6,0 -6,-1 1,-1 4,-3 3,-2 1,-4 -4,-2 -1,-3 3,-1 3,-3 v -3 q 0,0 -3,-1 -3,0 -3,-2 z m -310,1 5,-1 v 1 q 1,0 1,10 v 10 h -6 q -5,-1 -6,-1 0,-1 0,-6 0,-4 -2,-4 -1,-1 -1,-4 1,-2 2,-3 1,-1 7,-2 z m 24,15 v 3 h -1 q 0,1 -5,1 -6,0 -6,-4 0,-4 0,-6 -2,-2 -1,-5 1,-3 7,-3 5,0 5,6 1,6 1,8 z m 255,-15 q 4,0 4,7 -1,8 -2,9 -1,1 -4,1 -3,0 -3,-8 0,-9 5,-9 z m 48,8 q 0,-9 2,-9 1,1 2,4 0,3 2,2 3,0 3,-3 1,-3 3,-2 1,0 1,9 0,8 -1,8 -1,0 -3,-2 -1,-3 -3,-2 -3,1 -3,3 -1,1 -2,1 -2,0 -1,-9 z"
     fill="#565654"
     stroke="#565654"
     id="path156"
     style="fill-rule:evenodd;stroke-width:0.892002"
     transform="matrix(1.1210635,0,0,1.1210838,-59.552385,-52.870649)" />
  <path
     d="m 869,112 v -1 h 20 l 1,19 q 0,19 -1,19 -1,1 -1,1 h -6 l -1,-1 q -1,0 -1,-9 l -1,-10 h -5 q -4,0 -5,11 -1,10 -3,12 l -1,2 h -1 q 0,1 0,1 h -4 v -13 q 0,-13 2,-13 h 5 q 1,-1 1,-2 v -8 q 0,-8 1,-8 z"
     fill="#2e2e2c"
     stroke="#2e2e2c"
     id="path158"
     style="fill-rule:evenodd;stroke-width:0.892002"
     transform="matrix(1.1210635,0,0,1.1210838,-59.552385,-52.870649)" />
  <path
     d="m 522,491 v -1 h 108 q 4,1 2,20 -2,18 -7,32 -5,14 -13,28 -8,14 -9,16 -1,2 -1,2 0,0 -1,1 l -1,1 h -1 v 1 h -1 v 2 h -1 v 1 h -1 q 0,0 1,1 h 1 v 1 q 0,0 -1,0 -1,1 -1,1 -1,-1 -2,-1 v 1 h -1 v 1 h -1 v 1 l -1,1 v 1 h -1 q -1,1 -2,3 -2,2 -4,2 -1,0 -1,1 -1,1 -12,9 -12,8 -23,12 -12,6 -28,8 l -17,2 h -1 v -1 l -1,-1 v -60 h 9 q 10,0 10,-1 l 1,-42 q 1,-42 1,-42 z"
     fill="#8a8985"
     stroke="#8a8985"
     id="path160"
     style="fill-rule:evenodd;stroke-width:0.892002;fill:#e6e6e5;fill-opacity:1"
     transform="matrix(1.1210635,0,0,1.1210838,-59.552385,-52.870649)" />
  <path
     d="m 653,850 v -17 h 13 v 17 q 0,17 -2,17 l -2,1 h -5 l -2,-1 h -2 z"
     fill="#2e2e2c"
     stroke="#2e2e2c"
     id="path164"
     style="fill-rule:evenodd;stroke-width:0.892002"
     transform="matrix(1.1210635,0,0,1.1210838,-59.552385,-52.870649)" />
  <path
     d="m 456,132 h 2 l 2,1 q 2,1 2,2 h 1 l 1,1 q 0,1 1,7 v 6 h -2 l -2,1 h -5 v -1 l -1,-9 q 0,-8 1,-8 z"
     fill="#31312f"
     stroke="#31312f"
     id="path166"
     style="fill-rule:evenodd;stroke-width:0.892002"
     transform="matrix(1.1210635,0,0,1.1210838,-59.552385,-52.870649)" />
  <path
     d="m 540,128 h 1 l 1,11 q 0,11 2,11 h 3 v 1 l -3,1 q -2,1 -4,3 -2,2 -2,21 v 18 h -1 v -14 q -1,-14 -5,-15 -4,-1 -29,0 -25,0 -25,15 v 14 l -1,-2 -1,-1 v -13 q 0,-13 0,-18 v -4 l -1,-1 v -1 h 1 v 1 q 1,1 6,1 h 4 v -6 q 0,-6 -1,-6 l -1,-1 v -1 h -1 v -1 h 1 l 1,1 h 13 q 13,0 16,-1 2,-1 4,-1 h 1 l 1,-1 1,-1 h 2 v 2 h -2 v 1 h -1 v 3 q 0,2 0,6 v 6 h 9 v -1 h 1 v -9 q 0,-9 -2,-9 l -2,1 h -2 v -1 h 1 v -1 h 3 l 2,-1 1,-1 5,-2 q 4,-4 4,-4 z m -41,17 v -1 h 9 v 11 h -1 q 0,1 -5,1 h -4 v -6 q 0,-5 1,-5 z"
     fill="#595957"
     stroke="#595957"
     id="path168"
     style="fill-rule:evenodd;stroke-width:0.892002"
     transform="matrix(1.1210635,0,0,1.1210838,-59.552385,-52.870649)" />
  <path
     d="m 903,130 v -19 h 9 v 1 q 0,0 1,8 v 9 h 9 v -17 h 1 v -1 h 10 v 53 h -9 q -9,0 -10,0 v -2 q 0,-2 -1,-2 v -1 q -1,-1 -1,-3 -2,-2 -4,-4 l -3,-1 v -1 q -1,0 -1,0 0,-1 -1,-20 z"
     fill="#333331"
     stroke="#333331"
     id="path170"
     style="fill-rule:evenodd;stroke-width:0.892002"
     transform="matrix(1.1210635,0,0,1.1210838,-59.552385,-52.870649)" />
  <path
     d="m 242,852 q 0,-2 2,-2 2,0 1,2 -1,2 -2,2 -1,0 -1,-2 z"
     fill="#434342"
     stroke="#434342"
     id="path172"
     style="fill-rule:evenodd;stroke-width:0.892002"
     transform="matrix(1.1210635,0,0,1.1210838,-59.552385,-52.870649)" />
  <path
     d="m 732,491 h 2 l -2,22 q -2,22 -6,43 -6,22 -14,42 -8,21 -14,31 -6,10 -7,11 l -1,1 v 1 l -1,1 v 1 h -1 q 0,0 0,1 -1,1 -1,1 h -1 q 0,0 0,1 v 1 q 0,0 -2,2 -2,3 -13,16 -11,12 -25,23 -13,11 -29,19 -16,8 -35,15 -20,7 -40,9 -20,4 -28,6 l -8,2 h -4 v -1 l -1,-46 v -46 l 1,-2 q 0,-1 15,-4 15,-3 27,-7 12,-5 24,-13 12,-8 15,-9 2,-2 3,-4 2,-2 3,-3 1,0 1,-1 v -1 h 1 v -1 h 1 v -1 h 1 v -1 h 2 v -1 l 1,-1 v -1 q 0,0 1,-1 1,0 1,0 v -1 h 1 v -1 h 1 v -2 h 1 v -1 h 1 v -1 l 5,-7 q 4,-7 6,-9 1,-1 9,-18 8,-16 10,-29 4,-13 5,-25 1,-11 48,-11 46,-1 47,0 z"
     fill="#878278"
     stroke="#878278"
     id="path176"
     style="fill-rule:evenodd;stroke-width:0.892002;fill:#e7e6e4;fill-opacity:1"
     transform="matrix(1.1210635,0,0,1.1210838,-59.552385,-52.870649)" />
  <path
     d="m 586,776 v -1 h 29 q 29,1 29,1 h 1 v 17 l -1,12 q 0,1 -29,1 h -29 z"
     fill="#2c2c2a"
     stroke="#2c2c2a"
     id="path180"
     style="fill-rule:evenodd;stroke-width:0.892002"
     transform="matrix(1.1210635,0,0,1.1210838,-59.552385,-52.870649)" />
  <path
     d="m 269,491 v -1 h 81 q 12,1 14,19 2,18 8,35 6,16 7,16 v 1 q 0,1 1,1 l 1,3 q 1,3 2,3 l 6,10 q 7,10 7,10 l 8,10 q 9,10 21,19 12,9 22,13 10,6 19,8 8,2 20,4 11,1 11,3 1,2 1,2 v 91 h -3 q -2,0 -3,0 -1,0 -16,-2 -16,-2 -28,-4 -13,-2 -31,-10 -18,-6 -33,-16 l -14,-8 v -1 h -1 v -1 h -2 q -1,-1 -1,-1 v -1 q 0,0 -1,0 -1,-1 -9,-8 -8,-8 -20,-22 -13,-14 -24,-31 -11,-17 -20,-38 -8,-20 -14,-41 -6,-21 -8,-42 l -2,-21 z"
     fill="#857e70"
     stroke="#857e70"
     id="path182"
     style="fill-rule:evenodd;stroke-width:0.892002;fill:#e8e6e3;fill-opacity:1"
     transform="matrix(1.1210635,0,0,1.1210838,-59.552385,-52.870649)" />
  <path
     d="m 490,338 5,-1 q 5,0 5,1 0,1 1,1 v 43 l 1,42 q 0,0 9,1 h 9 v 21 q 0,20 0,30 v 9 h 1 v 1 h 105 v 4 H 522 v 1 q 0,0 -1,42 l -1,42 q 0,1 -10,1 h -9 v 59 q -1,0 -1,1 0,1 -1,-12 l -1,-14 v -12 q 0,-13 -1,-18 0,-4 -3,-4 -3,0 -3,-42 -1,-43 -63,-44 h -62 l 1,13 q 1,13 3,25 3,12 7,23 5,10 6,13 1,2 1,3 0,1 0,1 0,0 -1,0 -1,0 -2,-3 l -1,-3 q -1,0 -1,-1 v -1 q -1,0 -7,-16 -6,-17 -8,-35 -2,-18 -14,-19 h -11 l -1,-1 v -2 h 2 l 2,-1 h 10 q 9,0 10,-8 0,-7 4,-22 2,-15 9,-30 7,-16 13,-26 l 7,-11 v -1 h 1 v -2 h 2 v -1 l 1,-1 1,-1 v 4 h -1 v 1 h -1 v 1 h -1 v 1 h -1 l -3,6 q -3,5 -4,5 -1,0 -7,13 -6,14 -10,30 -4,17 -5,20 -1,3 -1,12 v 10 h 124 v -1 l 1,-10 v -10 h -11 v -11 q 0,-11 4,-13 4,-1 8,-9 4,-8 5,-50 1,-43 -3,-44 z"
     fill="#030303"
     stroke="#030303"
     id="path184"
     style="fill-rule:evenodd;stroke-width:0.892002"
     transform="matrix(1.1210635,0,0,1.1210838,-59.552385,-52.870649)" />
  <path
     d="m 537,180 v 14 h -59 v -14 q 0,-15 25,-15 25,-1 29,0 4,1 5,15 z"
     fill="#2c2c2a"
     stroke="#2c2c2a"
     id="path186"
     style="fill-rule:evenodd;stroke-width:0.892002"
     transform="matrix(1.1210635,0,0,1.1210838,-59.552385,-52.870649)" />
  <path
     d="m 150,130 v -19 h 178 v 19 q 1,20 16,20 15,0 15,1 h -17 q -17,1 -19,2 -1,2 -2,7 l -1,6 q -1,0 -30,-1 h -30 v 29 h -1 v -18 q -1,-19 -3,-22 -2,-2 -21,-2 -19,0 -21,1 -2,2 -2,21 l -1,20 h -1 v -29 h -59 v 29 h -1 v -18 q 0,-19 -2,-20 l -2,-2 v -1 l -1,-1 v -1 h 1 q 1,0 2,1 0,2 1,1 1,0 2,0 v -1 h -1 v -1 q 0,-1 0,-21 z m 34,3 h -14 v -8 l 14,-1 q 14,0 14,-2 0,-2 4,0 5,2 9,4 3,2 3,3 0,1 -8,5 -7,4 -8,2 -1,-2 -14,-3 z m 76,-2 v 1 q 0,0 1,1 l 1,1 v 2 q 0,2 -1,3 0,1 -2,1 h -5 q -2,0 -2,-5 v -4 l -1,-4 q -1,-4 0,-5 1,-2 5,-1 5,1 6,1 0,1 0,4 0,3 -1,4 -1,0 -1,1 z m 12,-10 1,-1 5,1 q 4,0 4,3 0,2 0,8 v 7 q 0,1 -2,1 -2,0 -6,0 -3,0 -4,-2 0,-1 0,-3 l 1,-2 v -2 q -1,-2 -1,-6 0,-4 2,-4 z"
     fill="#565654"
     stroke="#565654"
     id="path188"
     style="fill-rule:evenodd;stroke-width:0.892002"
     transform="matrix(1.1210635,0,0,1.1210838,-59.552385,-52.870649)" />
  <path
     d="m 613,412 h 1 l 3,3 q 3,3 3,4 v 1 q 0,0 0,1 h 1 v 2 l 1,1 v 1 l 1,1 v 2 h 1 v 2 l 1,2 1,2 3,17 q 3,17 4,23 1,6 1,9 v 3 H 521 v -8 q 0,-8 22,-22 22,-13 22,-14 0,-1 3,-3 4,-1 18,-10 13,-9 14,-9 1,0 1,-1 0,-1 5,-4 6,-3 7,-3 z"
     fill="#8a8a85"
     stroke="#8a8a85"
     id="path190"
     style="fill-rule:evenodd;stroke-width:0.892002;fill:#e6e6e5;fill-opacity:1"
     transform="matrix(1.1210635,0,0,1.1210838,-59.552385,-52.870649)" />
  <path
     d="m 740,126 v 6 l -1,1 q -1,1 -2,2 -1,1 -5,2 l -5,1 -1,-2 q 0,-2 4,-2 4,-1 4,-7 0,-6 -4,-7 -4,-1 -4,-2 0,-2 4,-2 5,0 7,3 3,2 3,7 z"
     fill="#333331"
     stroke="#333331"
     id="path192"
     style="fill-rule:evenodd;stroke-width:0.892002"
     transform="matrix(1.1210635,0,0,1.1210838,-59.552385,-52.870649)" />
  <path
     d="m 377,113 v -2 h 46 l -1,9 q 0,9 -4,10 -5,0 -5,8 -1,7 -1,10 v 7 h 8 v -3 q 0,-4 1,-12 l 1,-9 q 0,-1 6,-1 h 5 v 10 q 0,10 1,10 1,0 3,-1 h 2 v 1 h 2 v 1 l -5,1 q -5,1 -6,3 0,2 -1,21 v 18 h -1 v -14 q 0,-14 -1,-14 0,0 -29,0 -28,0 -28,13 v 16 h -1 l -1,-1 v -18 q 0,-19 -1,-19 v -1 h -1 v -1 h -1 v -1 h -1 v -2 h 2 v 1 l 1,1 q 1,2 5,2 h 5 v -1 h 1 v -40 z m 13,29 v -13 h 10 v 27 h -10 z"
     fill="#545452"
     stroke="#545452"
     id="path194"
     style="fill-rule:evenodd;stroke-width:0.892002"
     transform="matrix(1.1210635,0,0,1.1210838,-59.552385,-52.870649)" />
  <path
     d="m 599,386 h 1 v 2 h 2 v 2 h 1 l 1,1 h 1 q 0,1 1,1 l 5,8 q 5,7 5,8 v 1 h 1 v 1 h 1 q 0,0 0,1 h 1 v 1 q 1,1 1,1 v 1 q 0,2 1,4 l 1,1 v 1 l 1,2 1,1 v 1 l 1,1 v 1 h -1 v 1 h -1 v -1 l -1,-1 v -1 l -1,-1 v -3 h -1 v -1 q 0,-1 -3,-4 l -3,-3 h -1 q -1,0 -7,3 -5,3 -5,4 0,1 -1,1 -1,0 -14,9 -14,9 -18,10 -3,2 -3,3 0,1 -22,14 -22,14 -22,22 v 7 h -1 v -9 q 0,-10 0,-30 v -21 h -9 q -9,-1 -9,-1 l -1,-42 v -43 h 8 q 8,1 19,3 12,2 22,7 10,5 13,6 3,1 3,2 0,1 7,5 7,5 9,6 3,2 6,6 3,4 4,4 1,0 2,1 0,1 1,2 1,0 3,2 1,3 1,3 z"
     fill="#6f5936"
     stroke="#6f5936"
     id="path196"
     style="fill-rule:evenodd;stroke-width:0.892002;fill:#cdba9a;fill-opacity:1"
     transform="matrix(1.1210635,0,0,1.1210838,-59.552385,-52.870649)" />
  <path
     d="m 663,295 h 1 v 1 l 1,1 v 1 h 2 v 1 h 1 v 2 h -1 l -1,1 h -1 v 1 h -1 v -1 h -1 v -1 h -1 v -1 h -1 v -1 h -1 v -1 q 0,0 -6,-5 -6,-5 -15,-12 -9,-7 -20,-13 -10,-6 -27,-13 -16,-7 -41,-12 -25,-5 -37,-7 h -12 l -1,48 v 48 h -2 v -1 l -1,-1 v -94 h -4 q -3,0 -30,4 -27,6 -40,10 -14,6 -28,13 l -13,7 -1,1 h -2 v 1 -2 l -2,-1 -2,-1 v -4 h 1 v -1 h 1 v -1 l 17,-8 q 16,-8 33,-15 18,-7 20,-7 2,0 4,-1 h 1 l 3,-1 q 4,0 50,0 46,0 64,6 17,6 34,15 16,9 32,19 14,11 18,15 3,4 6,7 3,2 3,3 z M 379,264 q 1,0 0,2 -1,2 -1,0 0,-2 1,-2 z"
     fill="#080604"
     stroke="#080604"
     id="path198"
     style="fill-rule:evenodd;stroke-width:0.892002"
     transform="matrix(1.1210635,0,0,1.1210838,-59.552385,-52.870649)" />
  <path
     d="m 765,850 v -17 h 6 l 6,1 h 1 v 33 h -1 l -1,1 h -7 l -2,-1 q -2,0 -2,-17 z"
     fill="#2e2e2c"
     stroke="#2e2e2c"
     id="path200"
     style="fill-rule:evenodd;stroke-width:0.892002"
     transform="matrix(1.1210635,0,0,1.1210838,-59.552385,-52.870649)" />
  <path
     d="m 464,136 -1,-1 7,3 q 8,2 10,3 h 3 v 1 h -3 q -4,0 -4,6 v 6 h -2 q 0,0 0,-1 -1,-1 -5,-1 l -4,-2 -1,1 h -2 v -1 h -1 l 2,-1 h 2 v -6 q -1,-6 -1,-7 z"
     fill="#5f5f5d"
     stroke="#5f5f5d"
     id="path202"
     style="fill-rule:evenodd;stroke-width:0.892002"
     transform="matrix(1.1210635,0,0,1.1210838,-59.552385,-52.870649)" />
  <g
     fill="#2e2e2c"
     stroke="#2e2e2c"
     id="g208"
     style="fill-rule:evenodd;stroke-width:0.892002"
     transform="matrix(1.1210635,0,0,1.1210838,-59.552385,-52.870649)">
    <path
       d="m 724,850 v -17 l 6,1 q 6,0 6,16 v 16 q 0,0 -6,1 h -6 z"
       id="path204"
       style="stroke-width:0.892002" />
    <path
       d="m 390,142 v -13 h 10 v 27 h -10 z"
       id="path206"
       style="stroke-width:0.892002" />
  </g>
  <path
     d="m 476,776 h 59 v 30 h -29 q -29,0 -30,-15 z"
     fill="#2c2c2a"
     stroke="#2c2c2a"
     id="path212"
     style="fill-rule:evenodd;stroke-width:0.892002"
     transform="matrix(1.1210635,0,0,1.1210838,-59.552385,-52.870649)" />
  <path
     d="m 304,834 10,-1 h 10 v 17 q 0,17 -2,17 l -3,1 h -14 l -1,-1 v -1 q 0,0 0,-16 z"
     fill="#2e2e2c"
     stroke="#2e2e2c"
     id="path214"
     style="fill-rule:evenodd;stroke-width:0.892002"
     transform="matrix(1.1210635,0,0,1.1210838,-59.552385,-52.870649)" />
  <path
     d="m 715,116 q 4,0 4,1 0,1 -3,2 -4,1 -4,2 -1,2 4,3 4,1 4,6 0,6 -4,7 -5,1 -6,-1 -2,0 -3,-4 -1,-3 -1,-8 0,-4 2,-6 2,-2 7,-2 z"
     fill="#373735"
     stroke="#373735"
     id="path216"
     style="fill-rule:evenodd;stroke-width:0.892002"
     transform="matrix(1.1210635,0,0,1.1210838,-59.552385,-52.870649)" />
  <path
     d="m 150,776 h 59 v 14 q -1,15 -1,15 v 1 h -58 z"
     fill="#2c2c2a"
     stroke="#2c2c2a"
     id="path218"
     style="fill-rule:evenodd;stroke-width:0.892002"
     transform="matrix(1.1210635,0,0,1.1210838,-59.552385,-52.870649)" />
  <path
     d="m 222,842 q 0,-2 3,-2 3,0 3,3 -1,3 -4,2 -2,-1 -2,-3 z"
     fill="#464644"
     stroke="#464644"
     id="path220"
     style="fill-rule:evenodd;stroke-width:0.892002"
     transform="matrix(1.1210635,0,0,1.1210838,-59.552385,-52.870649)" />
  <path
     d="m 690,643 h 1 v 1 h 2 v 1 h 1 v -1 h 1 q 0,0 1,-1 h 1 v 1 q -1,0 -2,3 -2,3 -3,5 -2,3 -3,3 -1,1 -4,5 -3,4 -15,16 -12,11 -25,22 -13,10 -33,21 -20,11 -38,17 l -17,6 h -3 l -1,1 h -1 q 0,0 -1,1 h -2 q -2,0 -45,1 -43,1 -50,-1 l -6,-1 -1,-1 h -3 l -2,-1 q -2,-1 -4,-1 -2,0 -19,-8 -17,-6 -35,-17 l -18,-10 v -1 h -1 l -1,-1 v -1 h -1 v -4 h 2 v -4 h 2 v 1 h 1 v 1 h 1 v 1 h 1 v 1 l 14,8 q 15,10 33,16 18,8 31,10 12,2 28,4 15,2 16,2 1,0 3,0 h 3 v -91 l 1,-1 1,-1 v 2 h 1 v 46 l 1,46 v 1 h 4 l 8,-2 q 8,-2 28,-6 20,-2 40,-9 19,-7 35,-15 16,-8 29,-19 14,-11 25,-23 11,-13 13,-16 2,-2 2,-2 v -1 q 0,0 1,-1 1,0 1,0 v -1 q 0,0 1,-1 h 1 q 0,0 0,-1 z"
     fill="#090807"
     stroke="#090807"
     id="path222"
     style="fill-rule:evenodd;stroke-width:0.892002"
     transform="matrix(1.1210635,0,0,1.1210838,-59.552385,-52.870649)" />
  <path
     d="m 121,130 v -19 h 9 l 1,9 q 1,10 5,9 4,0 4,-9 0,-8 1,-8 v -1 h 9 v 19 q 0,20 0,21 v 1 h 1 v 1 q -1,0 -1,0 0,1 -2,0 l -2,-1 q 0,-1 -1,-1 h -4 q 0,-1 -10,-1 -9,-1 -10,-20 z"
     fill="#2e2e2c"
     stroke="#2e2e2c"
     id="path224"
     style="fill-rule:evenodd;stroke-width:0.892002"
     transform="matrix(1.1210635,0,0,1.1210838,-59.552385,-52.870649)" />
  <path
     d="m 696,178 v -13 h 59 v 29 q 0,0 -29,1 h -30 z"
     fill="#2c2c2a"
     stroke="#2c2c2a"
     id="path226"
     style="fill-rule:evenodd;stroke-width:0.892002"
     transform="matrix(1.1210635,0,0,1.1210838,-59.552385,-52.870649)" />
  <path
     d="m 428,180 v 14 h -1 l -29,1 h -28 v -1 h -1 l 1,-14 q 0,-14 28,-14 29,0 29,0 1,0 1,14 z"
     fill="#2d2d2b"
     stroke="#2d2d2b"
     id="path228"
     style="fill-rule:evenodd;stroke-width:0.892002"
     transform="matrix(1.1210635,0,0,1.1210838,-59.552385,-52.870649)" />
  <g
     fill="#2f2f2d"
     stroke="#2f2f2d"
     id="g234"
     style="fill-rule:evenodd;stroke-width:0.892002"
     transform="matrix(1.1210635,0,0,1.1210838,-59.552385,-52.870649)">
    <path
       d="m 106,832 h 6 l 2,1 h 2 v 17 q 0,17 -2,17 l -2,1 h -5 l -2,-1 h -2 v -2 q -1,-2 -1,-16 v -14 l 1,-1 v -1 h 1 z"
       id="path230"
       style="stroke-width:0.892002" />
    <path
       d="m 480,142 h 4 v 1 l 1,1 q 1,0 1,6 v 6 h -4 q -5,0 -5,-1 h -1 v -7 q 0,-6 4,-6 z"
       id="path232"
       style="stroke-width:0.892002" />
  </g>
  <path
     d="m 562,130 v -19 h 9 l 1,9 q 1,8 5,9 4,0 4,-1 1,-2 1,-10 v -7 h 9 q 0,1 0,1 h 1 v 44 h -3 q -3,0 -3,-1 h -1 v -1 q -1,0 -1,0 0,-1 -1,-1 0,-1 -1,-1 h -1 q -1,-1 -1,-1 h -4 q 0,-1 -6,-1 -7,0 -8,-20 z"
     fill="#2e2e2c"
     stroke="#2e2e2c"
     id="path236"
     style="fill-rule:evenodd;stroke-width:0.892002"
     transform="matrix(1.1210635,0,0,1.1210838,-59.552385,-52.870649)" />
  <path
     d="m 367,503 -1,-13 h 62 q 62,1 63,44 0,42 3,42 3,0 3,4 1,5 1,18 v 12 l -1,14 v 14 h -7 q -6,0 -15,-2 -9,-2 -23,-8 -14,-6 -24,-13 -10,-7 -13,-9 -3,-1 -4,-2 -1,-2 -4,-5 -3,-3 -6,-7 -3,-4 -4,-4 h -1 q 0,0 -7,-10 l -6,-10 q 1,0 1,0 0,0 0,-1 0,-1 -1,-3 -1,-3 -2,-2 h -1 q -1,0 -1,-1 v -1 q 1,0 -3,-10 -3,-10 -6,-22 -2,-12 -3,-25 z"
     fill="#898883"
     stroke="#898883"
     id="path238"
     style="fill-rule:evenodd;stroke-width:0.892002;fill:#e6e6e5;fill-opacity:1"
     transform="matrix(1.1210635,0,0,1.1210838,-59.552385,-52.870649)" />
  <path
     d="m 536,836 -1,-1 h 6 l 6,1 q 1,0 1,10 v 9 h -1 q 0,1 -6,1 -6,0 -6,-1 1,-1 4,-3 3,-2 1,-4 -4,-2 -1,-3 3,-1 3,-3 v -3 q 0,0 -3,-1 -3,0 -3,-2 z"
     fill="#10100f"
     stroke="#10100f"
     id="path240"
     style="fill-rule:evenodd;stroke-width:0.892002"
     transform="matrix(1.1210635,0,0,1.1210838,-59.552385,-52.870649)" />
  <path
     d="m 553,845 q 0,-9 2,-9 1,1 2,4 0,3 2,2 3,0 3,-3 1,-3 3,-2 1,0 1,9 0,8 -1,8 -1,0 -3,-2 -1,-3 -3,-2 -3,1 -3,3 -1,1 -2,1 -2,0 -1,-9 z"
     fill="#0f0f0f"
     stroke="#0f0f0f"
     id="path242"
     style="fill-rule:evenodd;stroke-width:0.892002"
     transform="matrix(1.1210635,0,0,1.1210838,-59.552385,-52.870649)" />
  <path
     d="m 633,848 v -15 h 13 v 34 h -13 v -2 q -1,-2 0,-17 z"
     fill="#2f2f2d"
     stroke="#2f2f2d"
     id="path244"
     style="fill-rule:evenodd;stroke-width:0.892002"
     transform="matrix(1.1210635,0,0,1.1210838,-59.552385,-52.870649)" />
</svg>
