<svg id="Calque_3" data-name="Calque 3" xmlns="http://www.w3.org/2000/svg" xmlns:xlink="http://www.w3.org/1999/xlink" viewBox="0 0 128 128"><defs><style>.cls-1,.cls-2,.cls-3{fill:none;}.cls-2{clip-path:url(#clip-path);}.cls-3{clip-path:url(#clip-path-3);}.cls-4{fill:url(#Dégradé_sans_nom_2);}.cls-12,.cls-5{opacity:0.3;}.cls-100,.cls-101,.cls-102,.cls-103,.cls-104,.cls-105,.cls-106,.cls-107,.cls-108,.cls-109,.cls-110,.cls-111,.cls-112,.cls-113,.cls-114,.cls-115,.cls-116,.cls-117,.cls-118,.cls-119,.cls-12,.cls-120,.cls-121,.cls-122,.cls-123,.cls-124,.cls-125,.cls-126,.cls-127,.cls-129,.cls-131,.cls-132,.cls-133,.cls-134,.cls-135,.cls-136,.cls-137,.cls-138,.cls-139,.cls-14,.cls-140,.cls-141,.cls-142,.cls-143,.cls-144,.cls-145,.cls-146,.cls-147,.cls-148,.cls-149,.cls-150,.cls-151,.cls-152,.cls-153,.cls-154,.cls-155,.cls-156,.cls-157,.cls-158,.cls-159,.cls-160,.cls-161,.cls-162,.cls-163,.cls-164,.cls-165,.cls-166,.cls-167,.cls-168,.cls-169,.cls-170,.cls-171,.cls-174,.cls-175,.cls-176,.cls-177,.cls-178,.cls-179,.cls-180,.cls-181,.cls-182,.cls-188,.cls-189,.cls-190,.cls-191,.cls-192,.cls-193,.cls-194,.cls-195,.cls-196,.cls-210,.cls-211,.cls-212,.cls-213,.cls-214,.cls-215,.cls-216,.cls-217,.cls-218,.cls-219,.cls-220,.cls-221,.cls-222,.cls-223,.cls-224,.cls-225,.cls-226,.cls-227,.cls-228,.cls-229,.cls-230,.cls-231,.cls-232,.cls-233,.cls-234,.cls-235,.cls-236,.cls-237,.cls-238,.cls-239,.cls-240,.cls-241,.cls-242,.cls-243,.cls-244,.cls-245,.cls-246,.cls-247,.cls-248,.cls-249,.cls-250,.cls-251,.cls-252,.cls-253,.cls-254,.cls-255,.cls-256,.cls-257,.cls-258,.cls-259,.cls-260,.cls-262,.cls-29,.cls-30,.cls-31,.cls-32,.cls-33,.cls-34,.cls-35,.cls-36,.cls-37,.cls-38,.cls-39,.cls-40,.cls-41,.cls-42,.cls-43,.cls-44,.cls-45,.cls-46,.cls-47,.cls-48,.cls-49,.cls-5,.cls-50,.cls-51,.cls-52,.cls-53,.cls-54,.cls-55,.cls-56,.cls-57,.cls-58,.cls-59,.cls-60,.cls-61,.cls-62,.cls-63,.cls-64,.cls-65,.cls-66,.cls-67,.cls-68,.cls-69,.cls-7,.cls-70,.cls-71,.cls-72,.cls-73,.cls-74,.cls-75,.cls-76,.cls-77,.cls-78,.cls-79,.cls-8,.cls-81,.cls-82,.cls-83,.cls-84,.cls-85,.cls-86,.cls-87,.cls-88,.cls-90,.cls-91,.cls-92,.cls-93,.cls-94,.cls-95,.cls-96,.cls-97,.cls-98,.cls-99{isolation:isolate;}.cls-5{fill:url(#Dégradé_sans_nom_3);}.cls-6{fill:url(#Dégradé_sans_nom_4);}.cls-140,.cls-28,.cls-7,.cls-93{opacity:0.4;}.cls-7{fill:url(#Dégradé_sans_nom_5);}.cls-127,.cls-182,.cls-210,.cls-29,.cls-8{opacity:0.8;}.cls-8{fill:url(#Dégradé_sans_nom_6);}.cls-81,.cls-9{opacity:0.2;}.cls-10{fill:#bcbcbc;}.cls-11{opacity:0.1;}.cls-12{fill:url(#Dégradé_sans_nom_3-2);}.cls-13{fill:url(#Dégradé_sans_nom);}.cls-14{fill:#070707;}.cls-110,.cls-14,.cls-157{opacity:0.6;}.cls-15{clip-path:url(#clip-path-5);}.cls-16{fill:url(#Dégradé_sans_nom_10);}.cls-17{fill:url(#Dégradé_sans_nom-2);}.cls-18{fill:url(#Dégradé_sans_nom_12);}.cls-19{fill:url(#Dégradé_sans_nom_13);}.cls-20{fill:url(#Dégradé_sans_nom_12-2);}.cls-21{fill:url(#Dégradé_sans_nom_136);}.cls-22{clip-path:url(#clip-path-6);}.cls-174,.cls-23{opacity:0.5;}.cls-24{fill:url(#Dégradé_sans_nom_139);}.cls-25{fill:url(#Dégradé_sans_nom_139-2);}.cls-26{fill:url(#Dégradé_sans_nom_139-3);}.cls-27{fill:url(#Dégradé_sans_nom_139-4);}.cls-29{fill:url(#Dégradé_sans_nom_143);}.cls-211,.cls-30{opacity:0.8;}.cls-30{fill:url(#Dégradé_sans_nom_144);}.cls-212,.cls-31{opacity:0.81;}.cls-31{fill:url(#Dégradé_sans_nom_145);}.cls-213,.cls-32{opacity:0.81;}.cls-32{fill:url(#Dégradé_sans_nom_146);}.cls-214,.cls-33{opacity:0.82;}.cls-33{fill:url(#Dégradé_sans_nom_147);}.cls-215,.cls-34{opacity:0.82;}.cls-34{fill:url(#Dégradé_sans_nom_148);}.cls-216,.cls-35{opacity:0.82;}.cls-35{fill:url(#Dégradé_sans_nom_149);}.cls-217,.cls-36{opacity:0.83;}.cls-36{fill:url(#Dégradé_sans_nom_150);}.cls-218,.cls-37{opacity:0.83;}.cls-37{fill:url(#Dégradé_sans_nom_151);}.cls-219,.cls-38{opacity:0.84;}.cls-38{fill:url(#Dégradé_sans_nom_152);}.cls-220,.cls-39{opacity:0.84;}.cls-39{fill:url(#Dégradé_sans_nom_153);}.cls-221,.cls-40{opacity:0.84;}.cls-40{fill:url(#Dégradé_sans_nom_154);}.cls-222,.cls-41{opacity:0.85;}.cls-41{fill:url(#Dégradé_sans_nom_155);}.cls-223,.cls-42{opacity:0.85;}.cls-42{fill:url(#Dégradé_sans_nom_156);}.cls-224,.cls-43{opacity:0.85;}.cls-43{fill:url(#Dégradé_sans_nom_157);}.cls-225,.cls-44{opacity:0.86;}.cls-44{fill:url(#Dégradé_sans_nom_158);}.cls-226,.cls-45{opacity:0.86;}.cls-45{fill:url(#Dégradé_sans_nom_159);}.cls-227,.cls-46{opacity:0.87;}.cls-46{fill:url(#Dégradé_sans_nom_160);}.cls-228,.cls-47{opacity:0.87;}.cls-47{fill:url(#Dégradé_sans_nom_161);}.cls-229,.cls-48{opacity:0.87;}.cls-48{fill:url(#Dégradé_sans_nom_162);}.cls-230,.cls-49{opacity:0.88;}.cls-49{fill:url(#Dégradé_sans_nom_163);}.cls-231,.cls-50{opacity:0.88;}.cls-50{fill:url(#Dégradé_sans_nom_164);}.cls-232,.cls-51{opacity:0.89;}.cls-51{fill:url(#Dégradé_sans_nom_165);}.cls-233,.cls-52{opacity:0.89;}.cls-52{fill:url(#Dégradé_sans_nom_166);}.cls-234,.cls-53{opacity:0.89;}.cls-53{fill:url(#Dégradé_sans_nom_167);}.cls-235,.cls-54{opacity:0.9;}.cls-54{fill:url(#Dégradé_sans_nom_168);}.cls-236,.cls-55{opacity:0.9;}.cls-55{fill:url(#Dégradé_sans_nom_169);}.cls-237,.cls-56{opacity:0.91;}.cls-56{fill:url(#Dégradé_sans_nom_170);}.cls-238,.cls-57{opacity:0.91;}.cls-57{fill:url(#Dégradé_sans_nom_171);}.cls-239,.cls-58{opacity:0.91;}.cls-58{fill:url(#Dégradé_sans_nom_172);}.cls-240,.cls-59{opacity:0.92;}.cls-59{fill:url(#Dégradé_sans_nom_173);}.cls-241,.cls-60{opacity:0.92;}.cls-60{fill:url(#Dégradé_sans_nom_174);}.cls-242,.cls-61{opacity:0.93;}.cls-61{fill:url(#Dégradé_sans_nom_175);}.cls-243,.cls-62{opacity:0.93;}.cls-62{fill:url(#Dégradé_sans_nom_176);}.cls-244,.cls-63{opacity:0.93;}.cls-63{fill:url(#Dégradé_sans_nom_177);}.cls-245,.cls-64{opacity:0.94;}.cls-64{fill:url(#Dégradé_sans_nom_178);}.cls-246,.cls-65{opacity:0.94;}.cls-65{fill:url(#Dégradé_sans_nom_179);}.cls-247,.cls-66{opacity:0.95;}.cls-66{fill:url(#Dégradé_sans_nom_180);}.cls-248,.cls-67{opacity:0.95;}.cls-67{fill:url(#Dégradé_sans_nom_181);}.cls-249,.cls-68{opacity:0.95;}.cls-68{fill:url(#Dégradé_sans_nom_182);}.cls-250,.cls-69{opacity:0.96;}.cls-69{fill:url(#Dégradé_sans_nom_183);}.cls-251,.cls-70{opacity:0.96;}.cls-70{fill:url(#Dégradé_sans_nom_184);}.cls-252,.cls-71{opacity:0.96;}.cls-71{fill:url(#Dégradé_sans_nom_185);}.cls-253,.cls-72{opacity:0.97;}.cls-72{fill:url(#Dégradé_sans_nom_186);}.cls-254,.cls-73{opacity:0.97;}.cls-73{fill:url(#Dégradé_sans_nom_187);}.cls-255,.cls-74{opacity:0.98;}.cls-74{fill:url(#Dégradé_sans_nom_188);}.cls-256,.cls-75{opacity:0.98;}.cls-75{fill:url(#Dégradé_sans_nom_189);}.cls-257,.cls-76{opacity:0.98;}.cls-76{fill:url(#Dégradé_sans_nom_190);}.cls-258,.cls-77{opacity:0.99;}.cls-77{fill:url(#Dégradé_sans_nom_191);}.cls-259,.cls-78{opacity:0.99;}.cls-78{fill:url(#Dégradé_sans_nom_192);}.cls-260,.cls-79{opacity:1;}.cls-79{fill:url(#Dégradé_sans_nom_193);}.cls-80{fill:#f9f9f9;}.cls-183,.cls-81{fill:#f2f2f2;}.cls-82{fill:#f0f0f0;opacity:0.21;}.cls-83{fill:#eee;opacity:0.22;}.cls-84{fill:#e8e8e9;opacity:0.26;}.cls-85{fill:#e6e7e7;opacity:0.27;}.cls-86{fill:#e2e3e3;opacity:0.29;}.cls-87{fill:#dfdfdf;opacity:0.32;}.cls-88{fill:#ddd;opacity:0.33;}.cls-129,.cls-262,.cls-89{opacity:0.9;}.cls-90{fill:#e0e1e1;}.cls-137,.cls-90{opacity:0.36;}.cls-91{fill:#dedfdf;}.cls-138,.cls-91{opacity:0.38;}.cls-92{fill:#dcdcdd;}.cls-139,.cls-92{opacity:0.39;}.cls-93{fill:#dadadb;}.cls-94{fill:#d7d8d9;}.cls-141,.cls-94{opacity:0.41;}.cls-95{fill:#d5d6d6;}.cls-142,.cls-95{opacity:0.42;}.cls-139,.cls-96{fill:#d3d4d4;}.cls-143,.cls-96{opacity:0.44;}.cls-140,.cls-97{fill:#d1d2d2;}.cls-144,.cls-97{opacity:0.45;}.cls-141,.cls-98{fill:#cfd0d0;}.cls-145,.cls-98{opacity:0.46;}.cls-99{fill:#cccdce;}.cls-146,.cls-99{opacity:0.47;}.cls-100{fill:#cacbcc;}.cls-100,.cls-147{opacity:0.48;}.cls-101{fill:#c8c9ca;}.cls-101,.cls-148{opacity:0.49;}.cls-102{fill:#c6c7c7;}.cls-102,.cls-149{opacity:0.51;}.cls-103{fill:#c4c5c5;}.cls-103,.cls-150{opacity:0.52;}.cls-104{fill:#c2c3c3;}.cls-104,.cls-151,.cls-177{opacity:0.53;}.cls-105{fill:#bfc0c1;}.cls-105,.cls-152{opacity:0.54;}.cls-106{fill:#bdbebf;}.cls-106,.cls-153{opacity:0.55;}.cls-107{fill:#bbbcbd;}.cls-107,.cls-154{opacity:0.56;}.cls-108{fill:#b9babb;}.cls-108,.cls-155{opacity:0.58;}.cls-109{fill:#b7b8b8;}.cls-109,.cls-156{opacity:0.59;}.cls-110{fill:#b4b6b6;}.cls-111{fill:#b2b4b4;}.cls-111,.cls-158{opacity:0.61;}.cls-112,.cls-157{fill:#b0b1b2;}.cls-112,.cls-159{opacity:0.62;}.cls-113,.cls-158{fill:#aeafb0;}.cls-113,.cls-160{opacity:0.64;}.cls-114,.cls-179{fill:#ccc;}.cls-114,.cls-161{opacity:0.65;}.cls-115{fill:#a9abac;}.cls-115,.cls-162{opacity:0.66;}.cls-116{fill:#a7a9aa;}.cls-116,.cls-163{opacity:0.67;}.cls-117{fill:#a5a7a7;}.cls-117,.cls-164{opacity:0.68;}.cls-118{fill:#a3a4a5;}.cls-118,.cls-165{opacity:0.69;}.cls-119{fill:#a1a2a3;}.cls-119,.cls-166{opacity:0.71;}.cls-120{fill:#9ea0a1;}.cls-120,.cls-167{opacity:0.72;}.cls-121{fill:#9c9e9f;}.cls-121,.cls-168{opacity:0.73;}.cls-122{fill:#9a9c9d;}.cls-122,.cls-169{opacity:0.74;}.cls-123{fill:#989a9b;}.cls-123,.cls-170{opacity:0.75;}.cls-124{fill:#969798;}.cls-124,.cls-171{opacity:0.76;}.cls-125{fill:#939596;opacity:0.78;}.cls-126{fill:#919394;opacity:0.79;}.cls-127{fill:#8f9192;}.cls-128{fill:url(#Dégradé_sans_nom_71);}.cls-129{fill:url(#Dégradé_sans_nom_72);}.cls-130{clip-path:url(#clip-path-8);}.cls-131{fill:#ececec;opacity:0.24;}.cls-132{fill:#eaeaea;opacity:0.25;}.cls-133{fill:#e4e5e5;opacity:0.28;}.cls-134{fill:#e1e1e1;opacity:0.31;}.cls-135{fill:#dbdbdb;opacity:0.34;}.cls-136{fill:#d9d9da;opacity:0.35;}.cls-137{fill:#d7d7d8;}.cls-138{fill:#d5d5d6;}.cls-142{fill:#cdcece;}.cls-143{fill:#cbcccc;}.cls-144{fill:#c9caca;}.cls-145{fill:#c7c8c9;}.cls-146{fill:#c5c6c7;}.cls-147{fill:#c3c4c5;}.cls-148{fill:#c1c2c3;}.cls-149{fill:#c0c1c1;}.cls-150{fill:#bebfbf;}.cls-151{fill:#bcbdbd;}.cls-152{fill:#babbbb;}.cls-153{fill:#b8b9ba;}.cls-154{fill:#b6b7b8;}.cls-155{fill:#b4b5b6;}.cls-156{fill:#b2b3b4;}.cls-159{fill:#acaeae;}.cls-160{fill:#aaacac;}.cls-161{fill:#a8aaaa;}.cls-162{fill:#a6a8a9;}.cls-163{fill:#a4a6a7;}.cls-164{fill:#a2a4a5;}.cls-165{fill:#a0a2a3;}.cls-166{fill:#9fa0a1;}.cls-167{fill:#9d9e9f;}.cls-168{fill:#9b9c9d;}.cls-169{fill:#999b9b;}.cls-170{fill:#97999a;}.cls-171{fill:#959798;}.cls-172,.cls-175,.cls-176,.cls-182{fill:#b3b3b3;}.cls-173{fill:url(#Dégradé_sans_nom_246);}.cls-174,.cls-177,.cls-180{fill:#999;}.cls-175{opacity:0.51;}.cls-176{opacity:0.52;}.cls-178,.cls-181{fill:gray;}.cls-178{opacity:0.54;}.cls-179{opacity:0.55;}.cls-180{opacity:0.56;}.cls-181{opacity:0.57;}.cls-184{fill:url(#Dégradé_sans_nom_10-2);}.cls-185{fill:url(#Dégradé_sans_nom_12-3);}.cls-186{fill:url(#Dégradé_sans_nom_139-5);}.cls-187{fill:url(#Dégradé_sans_nom_139-6);}.cls-188,.cls-189,.cls-190,.cls-191,.cls-192,.cls-193,.cls-194,.cls-195,.cls-196{opacity:0.7;}.cls-189{fill:url(#Dégradé_sans_nom_253);}.cls-190{fill:url(#Dégradé_sans_nom_253-2);}.cls-191{fill:url(#Dégradé_sans_nom_253-3);}.cls-192{fill:url(#Dégradé_sans_nom_253-4);}.cls-193{fill:url(#Dégradé_sans_nom_253-5);}.cls-194{fill:url(#Dégradé_sans_nom_253-6);}.cls-195{fill:url(#Dégradé_sans_nom_253-7);}.cls-196{fill:url(#Dégradé_sans_nom_253-8);}.cls-197{fill:url(#Dégradé_sans_nom-3);}.cls-198{clip-path:url(#clip-path-10);}.cls-199{fill:url(#Dégradé_sans_nom_10-3);}.cls-200{fill:url(#Dégradé_sans_nom-4);}.cls-201{fill:url(#Dégradé_sans_nom_12-4);}.cls-202{fill:url(#Dégradé_sans_nom_13-2);}.cls-203{fill:url(#Dégradé_sans_nom_12-5);}.cls-204{fill:url(#Dégradé_sans_nom_136-2);}.cls-205{clip-path:url(#clip-path-11);}.cls-206{fill:url(#Dégradé_sans_nom_139-7);}.cls-207{fill:url(#Dégradé_sans_nom_139-8);}.cls-208{fill:url(#Dégradé_sans_nom_139-9);}.cls-209{fill:url(#Dégradé_sans_nom_139-10);}.cls-210{fill:url(#Dégradé_sans_nom_143-2);}.cls-211{fill:url(#Dégradé_sans_nom_144-2);}.cls-212{fill:url(#Dégradé_sans_nom_145-2);}.cls-213{fill:url(#Dégradé_sans_nom_146-2);}.cls-214{fill:url(#Dégradé_sans_nom_147-2);}.cls-215{fill:url(#Dégradé_sans_nom_148-2);}.cls-216{fill:url(#Dégradé_sans_nom_149-2);}.cls-217{fill:url(#Dégradé_sans_nom_150-2);}.cls-218{fill:url(#Dégradé_sans_nom_151-2);}.cls-219{fill:url(#Dégradé_sans_nom_152-2);}.cls-220{fill:url(#Dégradé_sans_nom_153-2);}.cls-221{fill:url(#Dégradé_sans_nom_154-2);}.cls-222{fill:url(#Dégradé_sans_nom_155-2);}.cls-223{fill:url(#Dégradé_sans_nom_156-2);}.cls-224{fill:url(#Dégradé_sans_nom_157-2);}.cls-225{fill:url(#Dégradé_sans_nom_158-2);}.cls-226{fill:url(#Dégradé_sans_nom_159-2);}.cls-227{fill:url(#Dégradé_sans_nom_160-2);}.cls-228{fill:url(#Dégradé_sans_nom_161-2);}.cls-229{fill:url(#Dégradé_sans_nom_162-2);}.cls-230{fill:url(#Dégradé_sans_nom_163-2);}.cls-231{fill:url(#Dégradé_sans_nom_164-2);}.cls-232{fill:url(#Dégradé_sans_nom_165-2);}.cls-233{fill:url(#Dégradé_sans_nom_166-2);}.cls-234{fill:url(#Dégradé_sans_nom_167-2);}.cls-235{fill:url(#Dégradé_sans_nom_168-2);}.cls-236{fill:url(#Dégradé_sans_nom_169-2);}.cls-237{fill:url(#Dégradé_sans_nom_170-2);}.cls-238{fill:url(#Dégradé_sans_nom_171-2);}.cls-239{fill:url(#Dégradé_sans_nom_172-2);}.cls-240{fill:url(#Dégradé_sans_nom_173-2);}.cls-241{fill:url(#Dégradé_sans_nom_174-2);}.cls-242{fill:url(#Dégradé_sans_nom_175-2);}.cls-243{fill:url(#Dégradé_sans_nom_176-2);}.cls-244{fill:url(#Dégradé_sans_nom_177-2);}.cls-245{fill:url(#Dégradé_sans_nom_178-2);}.cls-246{fill:url(#Dégradé_sans_nom_179-2);}.cls-247{fill:url(#Dégradé_sans_nom_180-2);}.cls-248{fill:url(#Dégradé_sans_nom_181-2);}.cls-249{fill:url(#Dégradé_sans_nom_182-2);}.cls-250{fill:url(#Dégradé_sans_nom_183-2);}.cls-251{fill:url(#Dégradé_sans_nom_184-2);}.cls-252{fill:url(#Dégradé_sans_nom_185-2);}.cls-253{fill:url(#Dégradé_sans_nom_186-2);}.cls-254{fill:url(#Dégradé_sans_nom_187-2);}.cls-255{fill:url(#Dégradé_sans_nom_188-2);}.cls-256{fill:url(#Dégradé_sans_nom_189-2);}.cls-257{fill:url(#Dégradé_sans_nom_190-2);}.cls-258{fill:url(#Dégradé_sans_nom_191-2);}.cls-259{fill:url(#Dégradé_sans_nom_192-2);}.cls-260{fill:url(#Dégradé_sans_nom_193-2);}.cls-261{fill:url(#Dégradé_sans_nom_71-2);}.cls-262{fill:url(#Dégradé_sans_nom_72-2);}.cls-263{clip-path:url(#clip-path-13);}.cls-264{fill:url(#Dégradé_sans_nom_246-2);}.cls-265{fill:url(#Dégradé_sans_nom_10-4);}</style><clipPath id="clip-path"><polygon class="cls-1" points="66.9 23.39 67.7 23.39 66.9 24.19 66.9 23.39"/></clipPath><clipPath id="clip-path-3"><polygon class="cls-1" points="26.64 23.39 27.44 23.39 26.64 24.19 26.64 23.39"/></clipPath><linearGradient id="Dégradé_sans_nom_2" x1="63.85" y1="17.16" x2="63.85" y2="107.29" gradientTransform="matrix(1, 0, 0, -1, 0, 128)" gradientUnits="userSpaceOnUse"><stop offset="0" stop-color="#eaeaea"/><stop offset="1" stop-color="#e6e6e6"/></linearGradient><linearGradient id="Dégradé_sans_nom_3" x1="63.9" y1="106.22" x2="63.9" y2="107.05" gradientTransform="matrix(1, 0, 0, -1, 0, 128)" gradientUnits="userSpaceOnUse"><stop offset="0" stop-color="#fff"/><stop offset="0.22" stop-color="#fcfcfc"/><stop offset="0.41" stop-color="#f1f1f1"/><stop offset="0.58" stop-color="#dfdfdf"/><stop offset="0.76" stop-color="#c6c6c6"/><stop offset="0.92" stop-color="#a6a6a6"/><stop offset="1" stop-color="#949494"/></linearGradient><linearGradient id="Dégradé_sans_nom_4" x1="64" y1="16.5" x2="64" y2="129.12" gradientTransform="matrix(1, 0, 0, -1, 0, 128)" gradientUnits="userSpaceOnUse"><stop offset="0" stop-color="#f8f8f8"/><stop offset="0.59" stop-color="#f2f2f2"/><stop offset="1" stop-color="#eaeaea"/></linearGradient><linearGradient id="Dégradé_sans_nom_5" x1="63.9" y1="7.82" x2="63.9" y2="99.5" gradientTransform="matrix(1, 0, 0, -1, 0, 128)" gradientUnits="userSpaceOnUse"><stop offset="0" stop-color="#e6e6e6"/><stop offset="1" stop-color="#d4d4d4"/></linearGradient><linearGradient id="Dégradé_sans_nom_6" x1="63.95" y1="19.29" x2="63.95" y2="107.51" gradientTransform="matrix(1, 0, 0, -1, 0, 128)" gradientUnits="userSpaceOnUse"><stop offset="0" stop-color="#f9f9f9"/><stop offset="1" stop-color="#e6e6e6"/></linearGradient><linearGradient id="Dégradé_sans_nom_3-2" x1="63.9" y1="107.12" x2="63.9" y2="108.25" xlink:href="#Dégradé_sans_nom_3"/><linearGradient id="Dégradé_sans_nom" x1="44.37" y1="24.91" x2="44.37" y2="105.92" gradientTransform="matrix(1, 0, 0, -1, 0, 128)" gradientUnits="userSpaceOnUse"><stop offset="0" stop-color="#badcf5"/><stop offset="0.35" stop-color="#8dbce8"/><stop offset="1" stop-color="#317ccf"/></linearGradient><clipPath id="clip-path-5"><polygon class="cls-3" points="25.04 21.79 24.14 21.79 25.04 20.99 25.04 21.79"/></clipPath><linearGradient id="Dégradé_sans_nom_10" x1="22.03" y1="99.12" x2="42.82" y2="57.84" gradientTransform="matrix(1, 0, 0, -1, 0, 128)" gradientUnits="userSpaceOnUse"><stop offset="0" stop-color="#fff"/><stop offset="0.14" stop-color="#d6d6d6"/><stop offset="0.46" stop-color="#7c7c7c"/><stop offset="0.72" stop-color="#393939"/><stop offset="0.9" stop-color="#101010"/><stop offset="1"/></linearGradient><linearGradient id="Dégradé_sans_nom-2" x1="43.64" y1="77.05" x2="33.8" y2="7.11" gradientTransform="matrix(1, 0, 0, 1, 0, 0)" xlink:href="#Dégradé_sans_nom"/><linearGradient id="Dégradé_sans_nom_12" x1="59.38" y1="63.5" x2="63.91" y2="63.5" gradientTransform="matrix(1, 0, 0, -1, 0, 128)" gradientUnits="userSpaceOnUse"><stop offset="0" stop-color="#efefef"/><stop offset="0.13" stop-color="#fff"/><stop offset="0.86" stop-color="#f2f2f2"/><stop offset="0.93" stop-color="#fff"/><stop offset="0.96" stop-color="#efefef"/><stop offset="1" stop-color="#e7e7e7"/></linearGradient><linearGradient id="Dégradé_sans_nom_13" x1="43.52" y1="108.77" x2="43.52" y2="104.26" gradientTransform="matrix(1, 0, 0, -1, 0, 128)" gradientUnits="userSpaceOnUse"><stop offset="0" stop-color="#d2d2d2"/><stop offset="0.02" stop-color="#dadada"/><stop offset="0.05" stop-color="#eee"/><stop offset="0.07" stop-color="#fff"/><stop offset="0.14" stop-color="#f2f2f2"/><stop offset="0.94" stop-color="#fff"/><stop offset="0.95" stop-color="#fafafa"/><stop offset="1" stop-color="#d2d2d2"/></linearGradient><linearGradient id="Dégradé_sans_nom_12-2" x1="43.52" y1="22.67" x2="43.52" y2="18.16" xlink:href="#Dégradé_sans_nom_12"/><linearGradient id="Dégradé_sans_nom_136" x1="23.21" y1="63.5" x2="27.73" y2="63.5" gradientTransform="matrix(1, 0, 0, -1, 0, 128)" gradientUnits="userSpaceOnUse"><stop offset="0" stop-color="#e7e7e7"/><stop offset="0.04" stop-color="#efefef"/><stop offset="0.07" stop-color="#fff"/><stop offset="0.14" stop-color="#f2f2f2"/><stop offset="0.87" stop-color="#fff"/><stop offset="1" stop-color="#efefef"/></linearGradient><clipPath id="clip-path-6"><path class="cls-1" d="M23.19,19.19v90.62H64V19.19Zm36.16,86.12H27.69V23.79H59.35Z"/></clipPath><radialGradient id="Dégradé_sans_nom_139" cx="61.62" cy="20.44" r="2.37" gradientTransform="matrix(1, 0, 0, -1, 0, 128)" gradientUnits="userSpaceOnUse"><stop offset="0" stop-color="#d1d1d1"/><stop offset="1" stop-color="#dbdbdb"/></radialGradient><radialGradient id="Dégradé_sans_nom_139-2" cx="25.44" cy="20.44" r="2.37" xlink:href="#Dégradé_sans_nom_139"/><radialGradient id="Dégradé_sans_nom_139-3" cx="61.63" cy="106.5" r="2.37" xlink:href="#Dégradé_sans_nom_139"/><radialGradient id="Dégradé_sans_nom_139-4" cx="25.48" cy="106.5" r="2.38" xlink:href="#Dégradé_sans_nom_139"/><linearGradient id="Dégradé_sans_nom_143" x1="43.62" y1="21.79" x2="43.62" y2="104.6" gradientTransform="matrix(1, 0, 0, -1, 0, 128)" gradientUnits="userSpaceOnUse"><stop offset="0" stop-color="#afafaf"/><stop offset="1" stop-color="#424242"/></linearGradient><linearGradient id="Dégradé_sans_nom_144" x1="43.62" y1="21.79" x2="43.62" y2="104.57" gradientTransform="matrix(1, 0, 0, -1, 0, 128)" gradientUnits="userSpaceOnUse"><stop offset="0" stop-color="#b0b0b0"/><stop offset="1" stop-color="#464646"/></linearGradient><linearGradient id="Dégradé_sans_nom_145" x1="43.57" y1="21.79" x2="43.57" y2="104.54" gradientTransform="matrix(1, 0, 0, -1, 0, 128)" gradientUnits="userSpaceOnUse"><stop offset="0" stop-color="#b2b2b2"/><stop offset="1" stop-color="#494949"/></linearGradient><linearGradient id="Dégradé_sans_nom_146" x1="43.57" y1="21.79" x2="43.57" y2="104.51" gradientTransform="matrix(1, 0, 0, -1, 0, 128)" gradientUnits="userSpaceOnUse"><stop offset="0" stop-color="#b3b3b3"/><stop offset="1" stop-color="#4d4d4d"/></linearGradient><linearGradient id="Dégradé_sans_nom_147" x1="43.57" y1="21.79" x2="43.57" y2="104.48" gradientTransform="matrix(1, 0, 0, -1, 0, 128)" gradientUnits="userSpaceOnUse"><stop offset="0" stop-color="#b5b5b5"/><stop offset="1" stop-color="#505050"/></linearGradient><linearGradient id="Dégradé_sans_nom_148" x1="43.52" y1="21.79" x2="43.52" y2="104.44" gradientTransform="matrix(1, 0, 0, -1, 0, 128)" gradientUnits="userSpaceOnUse"><stop offset="0" stop-color="#b6b6b6"/><stop offset="1" stop-color="#545454"/></linearGradient><linearGradient id="Dégradé_sans_nom_149" x1="43.52" y1="21.79" x2="43.52" y2="104.41" gradientTransform="matrix(1, 0, 0, -1, 0, 128)" gradientUnits="userSpaceOnUse"><stop offset="0" stop-color="#b8b8b8"/><stop offset="1" stop-color="#585858"/></linearGradient><linearGradient id="Dégradé_sans_nom_150" x1="43.47" y1="21.69" x2="43.47" y2="104.28" gradientTransform="matrix(1, 0, 0, -1, 0, 128)" gradientUnits="userSpaceOnUse"><stop offset="0" stop-color="#b9b9b9"/><stop offset="1" stop-color="#5b5b5b"/></linearGradient><linearGradient id="Dégradé_sans_nom_151" x1="43.47" y1="21.79" x2="43.47" y2="104.35" gradientTransform="matrix(1, 0, 0, -1, 0, 128)" gradientUnits="userSpaceOnUse"><stop offset="0" stop-color="#bbb"/><stop offset="1" stop-color="#5f5f5f"/></linearGradient><linearGradient id="Dégradé_sans_nom_152" x1="43.47" y1="21.79" x2="43.47" y2="104.32" gradientTransform="matrix(1, 0, 0, -1, 0, 128)" gradientUnits="userSpaceOnUse"><stop offset="0" stop-color="#bcbcbc"/><stop offset="1" stop-color="#626262"/></linearGradient><linearGradient id="Dégradé_sans_nom_153" x1="43.57" y1="21.79" x2="43.57" y2="104.28" gradientTransform="matrix(1, 0, 0, -1, 0, 128)" gradientUnits="userSpaceOnUse"><stop offset="0" stop-color="#bebebe"/><stop offset="1" stop-color="#666"/></linearGradient><linearGradient id="Dégradé_sans_nom_154" x1="43.57" y1="21.89" x2="43.57" y2="104.35" gradientTransform="matrix(1, 0, 0, -1, 0, 128)" gradientUnits="userSpaceOnUse"><stop offset="0" stop-color="#bfbfbf"/><stop offset="1" stop-color="#696969"/></linearGradient><linearGradient id="Dégradé_sans_nom_155" x1="43.52" y1="21.79" x2="43.52" y2="104.22" gradientTransform="matrix(1, 0, 0, -1, 0, 128)" gradientUnits="userSpaceOnUse"><stop offset="0" stop-color="silver"/><stop offset="1" stop-color="#6d6d6d"/></linearGradient><linearGradient id="Dégradé_sans_nom_156" x1="43.52" y1="21.89" x2="43.52" y2="104.29" gradientTransform="matrix(1, 0, 0, -1, 0, 128)" gradientUnits="userSpaceOnUse"><stop offset="0" stop-color="#c2c2c2"/><stop offset="1" stop-color="#717171"/></linearGradient><linearGradient id="Dégradé_sans_nom_157" x1="43.52" y1="21.89" x2="43.52" y2="104.26" gradientTransform="matrix(1, 0, 0, -1, 0, 128)" gradientUnits="userSpaceOnUse"><stop offset="0" stop-color="#c3c3c3"/><stop offset="1" stop-color="#747474"/></linearGradient><linearGradient id="Dégradé_sans_nom_158" x1="43.57" y1="21.89" x2="43.57" y2="104.22" gradientTransform="matrix(1, 0, 0, -1, 0, 128)" gradientUnits="userSpaceOnUse"><stop offset="0" stop-color="#c5c5c5"/><stop offset="1" stop-color="#787878"/></linearGradient><linearGradient id="Dégradé_sans_nom_159" x1="43.57" y1="21.99" x2="43.57" y2="104.29" gradientTransform="matrix(1, 0, 0, -1, 0, 128)" gradientUnits="userSpaceOnUse"><stop offset="0" stop-color="#c6c6c6"/><stop offset="1" stop-color="#7b7b7b"/></linearGradient><linearGradient id="Dégradé_sans_nom_160" x1="43.52" y1="21.99" x2="43.52" y2="104.26" gradientTransform="matrix(1, 0, 0, -1, 0, 128)" gradientUnits="userSpaceOnUse"><stop offset="0" stop-color="#c8c8c8"/><stop offset="1" stop-color="#7f7f7f"/></linearGradient><linearGradient id="Dégradé_sans_nom_161" x1="43.52" y1="21.99" x2="43.52" y2="104.23" gradientTransform="matrix(1, 0, 0, -1, 0, 128)" gradientUnits="userSpaceOnUse"><stop offset="0" stop-color="#c9c9c9"/><stop offset="1" stop-color="#838383"/></linearGradient><linearGradient id="Dégradé_sans_nom_162" x1="43.52" y1="21.99" x2="43.52" y2="104.2" gradientTransform="matrix(1, 0, 0, -1, 0, 128)" gradientUnits="userSpaceOnUse"><stop offset="0" stop-color="#cbcbcb"/><stop offset="1" stop-color="#868686"/></linearGradient><linearGradient id="Dégradé_sans_nom_163" x1="43.57" y1="21.99" x2="43.57" y2="104.16" gradientTransform="matrix(1, 0, 0, -1, 0, 128)" gradientUnits="userSpaceOnUse"><stop offset="0" stop-color="#ccc"/><stop offset="1" stop-color="#8a8a8a"/></linearGradient><linearGradient id="Dégradé_sans_nom_164" x1="43.57" y1="22.09" x2="43.57" y2="104.23" gradientTransform="matrix(1, 0, 0, -1, 0, 128)" gradientUnits="userSpaceOnUse"><stop offset="0" stop-color="#cdcdcd"/><stop offset="1" stop-color="#8d8d8d"/></linearGradient><linearGradient id="Dégradé_sans_nom_165" x1="43.57" y1="22.09" x2="43.57" y2="104.2" gradientTransform="matrix(1, 0, 0, -1, 0, 128)" gradientUnits="userSpaceOnUse"><stop offset="0" stop-color="#cfcfcf"/><stop offset="1" stop-color="#919191"/></linearGradient><linearGradient id="Dégradé_sans_nom_166" x1="43.57" y1="22.09" x2="43.57" y2="104.17" gradientTransform="matrix(1, 0, 0, -1, 0, 128)" gradientUnits="userSpaceOnUse"><stop offset="0" stop-color="#d0d0d0"/><stop offset="1" stop-color="#959595"/></linearGradient><linearGradient id="Dégradé_sans_nom_167" x1="43.57" y1="22.09" x2="43.57" y2="104.14" gradientTransform="matrix(1, 0, 0, -1, 0, 128)" gradientUnits="userSpaceOnUse"><stop offset="0" stop-color="#d2d2d2"/><stop offset="1" stop-color="#989898"/></linearGradient><linearGradient id="Dégradé_sans_nom_168" x1="43.62" y1="22.09" x2="43.62" y2="104.1" gradientTransform="matrix(1, 0, 0, -1, 0, 128)" gradientUnits="userSpaceOnUse"><stop offset="0" stop-color="#d3d3d3"/><stop offset="1" stop-color="#9c9c9c"/></linearGradient><linearGradient id="Dégradé_sans_nom_169" x1="43.62" y1="22.19" x2="43.62" y2="104.17" gradientTransform="matrix(1, 0, 0, -1, 0, 128)" gradientUnits="userSpaceOnUse"><stop offset="0" stop-color="#d5d5d5"/><stop offset="1" stop-color="#9f9f9f"/></linearGradient><linearGradient id="Dégradé_sans_nom_170" x1="43.57" y1="22.19" x2="43.57" y2="104.14" gradientTransform="matrix(1, 0, 0, -1, 0, 128)" gradientUnits="userSpaceOnUse"><stop offset="0" stop-color="#d6d6d6"/><stop offset="1" stop-color="#a3a3a3"/></linearGradient><linearGradient id="Dégradé_sans_nom_171" x1="43.57" y1="22.19" x2="43.57" y2="104.11" gradientTransform="matrix(1, 0, 0, -1, 0, 128)" gradientUnits="userSpaceOnUse"><stop offset="0" stop-color="#d8d8d8"/><stop offset="1" stop-color="#a6a6a6"/></linearGradient><linearGradient id="Dégradé_sans_nom_172" x1="43.57" y1="22.19" x2="43.57" y2="104.08" gradientTransform="matrix(1, 0, 0, -1, 0, 128)" gradientUnits="userSpaceOnUse"><stop offset="0" stop-color="#d9d9d9"/><stop offset="1" stop-color="#aaa"/></linearGradient><linearGradient id="Dégradé_sans_nom_173" x1="43.52" y1="22.19" x2="43.52" y2="104.04" gradientTransform="matrix(1, 0, 0, -1, 0, 128)" gradientUnits="userSpaceOnUse"><stop offset="0" stop-color="#dbdbdb"/><stop offset="1" stop-color="#aeaeae"/></linearGradient><linearGradient id="Dégradé_sans_nom_174" x1="43.52" y1="22.19" x2="43.52" y2="104.01" gradientTransform="matrix(1, 0, 0, -1, 0, 128)" gradientUnits="userSpaceOnUse"><stop offset="0" stop-color="#dcdcdc"/><stop offset="1" stop-color="#b1b1b1"/></linearGradient><linearGradient id="Dégradé_sans_nom_175" x1="43.47" y1="22.19" x2="43.47" y2="103.98" gradientTransform="matrix(1, 0, 0, -1, 0, 128)" gradientUnits="userSpaceOnUse"><stop offset="0" stop-color="#ddd"/><stop offset="1" stop-color="#b5b5b5"/></linearGradient><linearGradient id="Dégradé_sans_nom_176" x1="43.47" y1="22.19" x2="43.47" y2="103.95" gradientTransform="matrix(1, 0, 0, -1, 0, 128)" gradientUnits="userSpaceOnUse"><stop offset="0" stop-color="#dfdfdf"/><stop offset="1" stop-color="#b8b8b8"/></linearGradient><linearGradient id="Dégradé_sans_nom_177" x1="43.47" y1="22.19" x2="43.47" y2="103.92" gradientTransform="matrix(1, 0, 0, -1, 0, 128)" gradientUnits="userSpaceOnUse"><stop offset="0" stop-color="#e0e0e0"/><stop offset="1" stop-color="#bcbcbc"/></linearGradient><linearGradient id="Dégradé_sans_nom_178" x1="43.57" y1="22.19" x2="43.57" y2="103.88" gradientTransform="matrix(1, 0, 0, -1, 0, 128)" gradientUnits="userSpaceOnUse"><stop offset="0" stop-color="#e2e2e2"/><stop offset="1" stop-color="silver"/></linearGradient><linearGradient id="Dégradé_sans_nom_179" x1="43.57" y1="22.29" x2="43.57" y2="103.95" gradientTransform="matrix(1, 0, 0, -1, 0, 128)" gradientUnits="userSpaceOnUse"><stop offset="0" stop-color="#e3e3e3"/><stop offset="1" stop-color="#c3c3c3"/></linearGradient><linearGradient id="Dégradé_sans_nom_180" x1="43.52" y1="22.29" x2="43.52" y2="103.92" gradientTransform="matrix(1, 0, 0, -1, 0, 128)" gradientUnits="userSpaceOnUse"><stop offset="0" stop-color="#e5e5e5"/><stop offset="1" stop-color="#c7c7c7"/></linearGradient><linearGradient id="Dégradé_sans_nom_181" x1="43.52" y1="22.29" x2="43.52" y2="103.89" gradientTransform="matrix(1, 0, 0, -1, 0, 128)" gradientUnits="userSpaceOnUse"><stop offset="0" stop-color="#e6e6e6"/><stop offset="1" stop-color="#cacaca"/></linearGradient><linearGradient id="Dégradé_sans_nom_182" x1="43.52" y1="22.29" x2="43.52" y2="103.86" gradientTransform="matrix(1, 0, 0, -1, 0, 128)" gradientUnits="userSpaceOnUse"><stop offset="0" stop-color="#e8e8e8"/><stop offset="1" stop-color="#cecece"/></linearGradient><linearGradient id="Dégradé_sans_nom_183" x1="43.57" y1="22.29" x2="43.57" y2="103.82" gradientTransform="matrix(1, 0, 0, -1, 0, 128)" gradientUnits="userSpaceOnUse"><stop offset="0" stop-color="#e9e9e9"/><stop offset="1" stop-color="#d2d2d2"/></linearGradient><linearGradient id="Dégradé_sans_nom_184" x1="43.57" y1="22.39" x2="43.57" y2="103.89" gradientTransform="matrix(1, 0, 0, -1, 0, 128)" gradientUnits="userSpaceOnUse"><stop offset="0" stop-color="#eaeaea"/><stop offset="1" stop-color="#d5d5d5"/></linearGradient><linearGradient id="Dégradé_sans_nom_185" x1="43.52" y1="22.39" x2="43.52" y2="103.86" gradientTransform="matrix(1, 0, 0, -1, 0, 128)" gradientUnits="userSpaceOnUse"><stop offset="0" stop-color="#ececec"/><stop offset="1" stop-color="#d9d9d9"/></linearGradient><linearGradient id="Dégradé_sans_nom_186" x1="43.52" y1="22.39" x2="43.52" y2="103.83" gradientTransform="matrix(1, 0, 0, -1, 0, 128)" gradientUnits="userSpaceOnUse"><stop offset="0" stop-color="#ededed"/><stop offset="1" stop-color="#dcdcdc"/></linearGradient><linearGradient id="Dégradé_sans_nom_187" x1="43.52" y1="22.39" x2="43.52" y2="103.8" gradientTransform="matrix(1, 0, 0, -1, 0, 128)" gradientUnits="userSpaceOnUse"><stop offset="0" stop-color="#efefef"/><stop offset="1" stop-color="#e0e0e0"/></linearGradient><linearGradient id="Dégradé_sans_nom_188" x1="43.57" y1="22.39" x2="43.57" y2="103.76" gradientTransform="matrix(1, 0, 0, -1, 0, 128)" gradientUnits="userSpaceOnUse"><stop offset="0" stop-color="#f0f0f0"/><stop offset="1" stop-color="#e3e3e3"/></linearGradient><linearGradient id="Dégradé_sans_nom_189" x1="43.57" y1="22.48" x2="43.57" y2="103.82" gradientTransform="matrix(1, 0, 0, -1, 0, 128)" gradientUnits="userSpaceOnUse"><stop offset="0" stop-color="#f2f2f2"/><stop offset="1" stop-color="#e7e7e7"/></linearGradient><linearGradient id="Dégradé_sans_nom_190" x1="43.52" y1="22.48" x2="43.52" y2="103.79" gradientTransform="matrix(1, 0, 0, -1, 0, 128)" gradientUnits="userSpaceOnUse"><stop offset="0" stop-color="#f3f3f3"/><stop offset="1" stop-color="#ebebeb"/></linearGradient><linearGradient id="Dégradé_sans_nom_191" x1="43.52" y1="22.49" x2="43.52" y2="103.77" gradientTransform="matrix(1, 0, 0, -1, 0, 128)" gradientUnits="userSpaceOnUse"><stop offset="0" stop-color="#f5f5f5"/><stop offset="1" stop-color="#eee"/></linearGradient><linearGradient id="Dégradé_sans_nom_192" x1="43.52" y1="22.49" x2="43.52" y2="103.74" gradientTransform="matrix(1, 0, 0, -1, 0, 128)" gradientUnits="userSpaceOnUse"><stop offset="0" stop-color="#f6f6f6"/><stop offset="1" stop-color="#f2f2f2"/></linearGradient><linearGradient id="Dégradé_sans_nom_193" x1="43.62" y1="22.49" x2="43.62" y2="103.7" gradientTransform="matrix(1, 0, 0, -1, 0, 128)" gradientUnits="userSpaceOnUse"><stop offset="0" stop-color="#f8f8f8"/><stop offset="1" stop-color="#f5f5f5"/></linearGradient><linearGradient id="Dégradé_sans_nom_71" x1="62.01" y1="63.55" x2="62.01" y2="68.07" gradientTransform="matrix(1, 0, 0, -1, 0, 128)" gradientUnits="userSpaceOnUse"><stop offset="0" stop-color="#c7c7c7"/><stop offset="0.42" stop-color="#d8d8d8"/><stop offset="1" stop-color="#eaeaea"/></linearGradient><linearGradient id="Dégradé_sans_nom_72" x1="61.95" y1="64.56" x2="61.95" y2="67.86" gradientTransform="matrix(1, 0, 0, -1, 0, 128)" gradientUnits="userSpaceOnUse"><stop offset="0.33" stop-color="#dedede"/><stop offset="1" stop-color="#fff"/></linearGradient><clipPath id="clip-path-8"><path class="cls-1" d="M63,64.45h-1.9a.43.43,0,0,1-.4-.4v-3.8a.43.43,0,0,1,.4-.4H63a.43.43,0,0,1,.4.4V64A.4.4,0,0,1,63,64.45Z"/></clipPath><linearGradient id="Dégradé_sans_nom_246" x1="61.97" y1="57.98" x2="61.97" y2="66.55" gradientTransform="matrix(1, 0, 0, -1, 0, 128)" gradientUnits="userSpaceOnUse"><stop offset="0" stop-color="#c2c2c2"/><stop offset="0.66" stop-color="#c7c7c7"/><stop offset="1" stop-color="#ccc"/></linearGradient><linearGradient id="Dégradé_sans_nom_10-2" x1="89.73" y1="107.88" x2="93.2" y2="40.46" xlink:href="#Dégradé_sans_nom_10"/><linearGradient id="Dégradé_sans_nom_12-3" x1="102.75" y1="63.5" x2="104.6" y2="63.5" xlink:href="#Dégradé_sans_nom_12"/><radialGradient id="Dégradé_sans_nom_139-5" cx="199.72" cy="20.25" r="2.13" gradientTransform="matrix(0.45, 0, 0, -1, 14.09, 128)" xlink:href="#Dégradé_sans_nom_139"/><radialGradient id="Dégradé_sans_nom_139-6" cx="199.73" cy="106.79" r="2.14" gradientTransform="matrix(0.45, 0, 0, -1, 14.09, 128)" xlink:href="#Dégradé_sans_nom_139"/><linearGradient id="Dégradé_sans_nom_253" x1="105.24" y1="104.7" x2="105.87" y2="104.7" gradientUnits="userSpaceOnUse"><stop offset="0" stop-color="#cecece"/><stop offset="0.27" stop-color="#b5b3c0"/><stop offset="0.75" stop-color="#fff"/><stop offset="1" stop-color="#7a7a7a"/><stop offset="1" stop-color="#f5f5f5"/></linearGradient><linearGradient id="Dégradé_sans_nom_253-2" x1="105.21" y1="102.23" x2="105.97" y2="102.25" xlink:href="#Dégradé_sans_nom_253"/><linearGradient id="Dégradé_sans_nom_253-3" x1="21.87" y1="104.7" x2="22.5" y2="104.7" xlink:href="#Dégradé_sans_nom_253"/><linearGradient id="Dégradé_sans_nom_253-4" x1="21.84" y1="102.23" x2="22.6" y2="102.25" xlink:href="#Dégradé_sans_nom_253"/><linearGradient id="Dégradé_sans_nom_253-5" x1="105.24" y1="26.38" x2="105.87" y2="26.38" xlink:href="#Dégradé_sans_nom_253"/><linearGradient id="Dégradé_sans_nom_253-6" x1="105.21" y1="23.91" x2="105.97" y2="23.93" xlink:href="#Dégradé_sans_nom_253"/><linearGradient id="Dégradé_sans_nom_253-7" x1="21.87" y1="26.38" x2="22.5" y2="26.38" xlink:href="#Dégradé_sans_nom_253"/><linearGradient id="Dégradé_sans_nom_253-8" x1="21.84" y1="23.91" x2="22.6" y2="23.93" xlink:href="#Dégradé_sans_nom_253"/><linearGradient id="Dégradé_sans_nom-3" x1="84.63" y1="24.91" x2="84.63" y2="105.92" xlink:href="#Dégradé_sans_nom"/><clipPath id="clip-path-10"><polygon class="cls-2" points="65.3 21.79 64.4 21.79 65.3 20.99 65.3 21.79"/></clipPath><linearGradient id="Dégradé_sans_nom_10-3" x1="62.29" y1="99.12" x2="83.08" y2="57.84" xlink:href="#Dégradé_sans_nom_10"/><linearGradient id="Dégradé_sans_nom-4" x1="83.9" y1="77.05" x2="74.06" y2="7.11" gradientTransform="matrix(1, 0, 0, 1, 0, 0)" xlink:href="#Dégradé_sans_nom"/><linearGradient id="Dégradé_sans_nom_12-4" x1="99.64" y1="63.5" x2="104.17" y2="63.5" xlink:href="#Dégradé_sans_nom_12"/><linearGradient id="Dégradé_sans_nom_13-2" x1="83.78" y1="108.77" x2="83.78" y2="104.26" xlink:href="#Dégradé_sans_nom_13"/><linearGradient id="Dégradé_sans_nom_12-5" x1="83.78" y1="22.67" x2="83.78" y2="18.16" xlink:href="#Dégradé_sans_nom_12"/><linearGradient id="Dégradé_sans_nom_136-2" x1="63.47" y1="63.5" x2="67.99" y2="63.5" xlink:href="#Dégradé_sans_nom_136"/><clipPath id="clip-path-11"><path class="cls-1" d="M63.45,19.19v90.62h40.76V19.19Zm36.16,86.12H68V23.79H99.61Z"/></clipPath><radialGradient id="Dégradé_sans_nom_139-7" cx="101.88" cy="20.44" r="2.37" xlink:href="#Dégradé_sans_nom_139"/><radialGradient id="Dégradé_sans_nom_139-8" cx="65.7" cy="20.44" r="2.37" xlink:href="#Dégradé_sans_nom_139"/><radialGradient id="Dégradé_sans_nom_139-9" cx="101.89" cy="106.5" r="2.37" xlink:href="#Dégradé_sans_nom_139"/><radialGradient id="Dégradé_sans_nom_139-10" cx="65.74" cy="106.5" r="2.38" xlink:href="#Dégradé_sans_nom_139"/><linearGradient id="Dégradé_sans_nom_143-2" x1="83.88" y1="21.79" x2="83.88" y2="104.6" xlink:href="#Dégradé_sans_nom_143"/><linearGradient id="Dégradé_sans_nom_144-2" x1="83.88" y1="21.79" x2="83.88" y2="104.57" xlink:href="#Dégradé_sans_nom_144"/><linearGradient id="Dégradé_sans_nom_145-2" x1="83.83" y1="21.79" x2="83.83" y2="104.54" xlink:href="#Dégradé_sans_nom_145"/><linearGradient id="Dégradé_sans_nom_146-2" x1="83.83" y1="21.79" x2="83.83" y2="104.51" xlink:href="#Dégradé_sans_nom_146"/><linearGradient id="Dégradé_sans_nom_147-2" x1="83.83" y1="21.79" x2="83.83" y2="104.48" xlink:href="#Dégradé_sans_nom_147"/><linearGradient id="Dégradé_sans_nom_148-2" x1="83.78" y1="21.79" x2="83.78" y2="104.44" xlink:href="#Dégradé_sans_nom_148"/><linearGradient id="Dégradé_sans_nom_149-2" x1="83.78" y1="21.79" x2="83.78" y2="104.41" xlink:href="#Dégradé_sans_nom_149"/><linearGradient id="Dégradé_sans_nom_150-2" x1="83.73" y1="21.69" x2="83.73" y2="104.28" xlink:href="#Dégradé_sans_nom_150"/><linearGradient id="Dégradé_sans_nom_151-2" x1="83.73" y1="21.79" x2="83.73" y2="104.35" xlink:href="#Dégradé_sans_nom_151"/><linearGradient id="Dégradé_sans_nom_152-2" x1="83.73" y1="21.79" x2="83.73" y2="104.32" xlink:href="#Dégradé_sans_nom_152"/><linearGradient id="Dégradé_sans_nom_153-2" x1="83.83" y1="21.79" x2="83.83" y2="104.28" xlink:href="#Dégradé_sans_nom_153"/><linearGradient id="Dégradé_sans_nom_154-2" x1="83.83" y1="21.89" x2="83.83" y2="104.35" xlink:href="#Dégradé_sans_nom_154"/><linearGradient id="Dégradé_sans_nom_155-2" x1="83.78" y1="21.79" x2="83.78" y2="104.22" xlink:href="#Dégradé_sans_nom_155"/><linearGradient id="Dégradé_sans_nom_156-2" x1="83.78" y1="21.89" x2="83.78" y2="104.29" xlink:href="#Dégradé_sans_nom_156"/><linearGradient id="Dégradé_sans_nom_157-2" x1="83.78" y1="21.89" x2="83.78" y2="104.26" xlink:href="#Dégradé_sans_nom_157"/><linearGradient id="Dégradé_sans_nom_158-2" x1="83.83" y1="21.89" x2="83.83" y2="104.22" xlink:href="#Dégradé_sans_nom_158"/><linearGradient id="Dégradé_sans_nom_159-2" x1="83.83" y1="21.99" x2="83.83" y2="104.29" xlink:href="#Dégradé_sans_nom_159"/><linearGradient id="Dégradé_sans_nom_160-2" x1="83.78" y1="21.99" x2="83.78" y2="104.26" xlink:href="#Dégradé_sans_nom_160"/><linearGradient id="Dégradé_sans_nom_161-2" x1="83.78" y1="21.99" x2="83.78" y2="104.23" xlink:href="#Dégradé_sans_nom_161"/><linearGradient id="Dégradé_sans_nom_162-2" x1="83.78" y1="21.99" x2="83.78" y2="104.2" xlink:href="#Dégradé_sans_nom_162"/><linearGradient id="Dégradé_sans_nom_163-2" x1="83.83" y1="21.99" x2="83.83" y2="104.16" xlink:href="#Dégradé_sans_nom_163"/><linearGradient id="Dégradé_sans_nom_164-2" x1="83.83" y1="22.09" x2="83.83" y2="104.23" xlink:href="#Dégradé_sans_nom_164"/><linearGradient id="Dégradé_sans_nom_165-2" x1="83.83" y1="22.09" x2="83.83" y2="104.2" xlink:href="#Dégradé_sans_nom_165"/><linearGradient id="Dégradé_sans_nom_166-2" x1="83.83" y1="22.09" x2="83.83" y2="104.17" xlink:href="#Dégradé_sans_nom_166"/><linearGradient id="Dégradé_sans_nom_167-2" x1="83.83" y1="22.09" x2="83.83" y2="104.14" xlink:href="#Dégradé_sans_nom_167"/><linearGradient id="Dégradé_sans_nom_168-2" x1="83.88" y1="22.09" x2="83.88" y2="104.1" xlink:href="#Dégradé_sans_nom_168"/><linearGradient id="Dégradé_sans_nom_169-2" x1="83.88" y1="22.19" x2="83.88" y2="104.17" xlink:href="#Dégradé_sans_nom_169"/><linearGradient id="Dégradé_sans_nom_170-2" x1="83.83" y1="22.19" x2="83.83" y2="104.14" xlink:href="#Dégradé_sans_nom_170"/><linearGradient id="Dégradé_sans_nom_171-2" x1="83.83" y1="22.19" x2="83.83" y2="104.11" xlink:href="#Dégradé_sans_nom_171"/><linearGradient id="Dégradé_sans_nom_172-2" x1="83.83" y1="22.19" x2="83.83" y2="104.08" xlink:href="#Dégradé_sans_nom_172"/><linearGradient id="Dégradé_sans_nom_173-2" x1="83.78" y1="22.19" x2="83.78" y2="104.04" xlink:href="#Dégradé_sans_nom_173"/><linearGradient id="Dégradé_sans_nom_174-2" x1="83.78" y1="22.19" x2="83.78" y2="104.01" xlink:href="#Dégradé_sans_nom_174"/><linearGradient id="Dégradé_sans_nom_175-2" x1="83.73" y1="22.19" x2="83.73" y2="103.98" xlink:href="#Dégradé_sans_nom_175"/><linearGradient id="Dégradé_sans_nom_176-2" x1="83.73" y1="22.19" x2="83.73" y2="103.95" xlink:href="#Dégradé_sans_nom_176"/><linearGradient id="Dégradé_sans_nom_177-2" x1="83.73" y1="22.19" x2="83.73" y2="103.92" xlink:href="#Dégradé_sans_nom_177"/><linearGradient id="Dégradé_sans_nom_178-2" x1="83.83" y1="22.19" x2="83.83" y2="103.88" xlink:href="#Dégradé_sans_nom_178"/><linearGradient id="Dégradé_sans_nom_179-2" x1="83.83" y1="22.29" x2="83.83" y2="103.95" xlink:href="#Dégradé_sans_nom_179"/><linearGradient id="Dégradé_sans_nom_180-2" x1="83.78" y1="22.29" x2="83.78" y2="103.92" xlink:href="#Dégradé_sans_nom_180"/><linearGradient id="Dégradé_sans_nom_181-2" x1="83.78" y1="22.29" x2="83.78" y2="103.89" xlink:href="#Dégradé_sans_nom_181"/><linearGradient id="Dégradé_sans_nom_182-2" x1="83.78" y1="22.29" x2="83.78" y2="103.86" xlink:href="#Dégradé_sans_nom_182"/><linearGradient id="Dégradé_sans_nom_183-2" x1="83.83" y1="22.29" x2="83.83" y2="103.82" xlink:href="#Dégradé_sans_nom_183"/><linearGradient id="Dégradé_sans_nom_184-2" x1="83.83" y1="22.39" x2="83.83" y2="103.89" xlink:href="#Dégradé_sans_nom_184"/><linearGradient id="Dégradé_sans_nom_185-2" x1="83.78" y1="22.39" x2="83.78" y2="103.86" xlink:href="#Dégradé_sans_nom_185"/><linearGradient id="Dégradé_sans_nom_186-2" x1="83.78" y1="22.39" x2="83.78" y2="103.83" xlink:href="#Dégradé_sans_nom_186"/><linearGradient id="Dégradé_sans_nom_187-2" x1="83.78" y1="22.39" x2="83.78" y2="103.8" xlink:href="#Dégradé_sans_nom_187"/><linearGradient id="Dégradé_sans_nom_188-2" x1="83.83" y1="22.39" x2="83.83" y2="103.76" xlink:href="#Dégradé_sans_nom_188"/><linearGradient id="Dégradé_sans_nom_189-2" x1="83.83" y1="22.48" x2="83.83" y2="103.82" xlink:href="#Dégradé_sans_nom_189"/><linearGradient id="Dégradé_sans_nom_190-2" x1="83.78" y1="22.48" x2="83.78" y2="103.79" xlink:href="#Dégradé_sans_nom_190"/><linearGradient id="Dégradé_sans_nom_191-2" x1="83.78" y1="22.49" x2="83.78" y2="103.77" xlink:href="#Dégradé_sans_nom_191"/><linearGradient id="Dégradé_sans_nom_192-2" x1="83.78" y1="22.49" x2="83.78" y2="103.74" xlink:href="#Dégradé_sans_nom_192"/><linearGradient id="Dégradé_sans_nom_193-2" x1="83.88" y1="22.49" x2="83.88" y2="103.7" xlink:href="#Dégradé_sans_nom_193"/><linearGradient id="Dégradé_sans_nom_71-2" x1="65.47" y1="63.55" x2="65.47" y2="68.07" xlink:href="#Dégradé_sans_nom_71"/><linearGradient id="Dégradé_sans_nom_72-2" x1="65.41" y1="64.56" x2="65.41" y2="67.86" xlink:href="#Dégradé_sans_nom_72"/><clipPath id="clip-path-13"><path class="cls-1" d="M66.41,64.45h-1.9a.43.43,0,0,1-.4-.4v-3.8a.43.43,0,0,1,.4-.4h1.9a.43.43,0,0,1,.39.4V64A.4.4,0,0,1,66.41,64.45Z"/></clipPath><linearGradient id="Dégradé_sans_nom_246-2" x1="65.42" y1="57.98" x2="65.42" y2="66.55" xlink:href="#Dégradé_sans_nom_246"/><linearGradient id="Dégradé_sans_nom_10-4" x1="129.99" y1="107.88" x2="133.46" y2="40.46" xlink:href="#Dégradé_sans_nom_10"/></defs><title>Plan de travail 1</title><path class="cls-4" d="M22.49,18.8v91.7h82.72V18.8H22.49Zm79.62,88.51H25.79V22h76.32v85.32C102.21,107.21,102.21,107.31,102.11,107.31Z"/><rect class="cls-5" x="23.89" y="20.89" width="80.02" height="0.9"/><path class="cls-6" d="M21.49,17.7v93.8h85V17.7Zm81.62,90.51H24.79V21h78.42l-.1,87.22Z"/><path class="cls-7" d="M23.89,109.51h80V19.69h-80ZM24.79,21h78.42v87.22H24.79Z"/><path class="cls-8" d="M24.39,108.71h79.12V20.49H24.39ZM24.79,21h78.42v87.22H24.79Z"/><g class="cls-9"><path class="cls-10" d="M103.51,20.59v88h-79v-88Zm0-.1H24.39v88.12h79.12V20.49Z"/></g><g class="cls-11"><path class="cls-10" d="M103.91,19.79v89.52H24V19.79Zm.1-.1H23.89v89.72h80l.1-89.72Z"/></g><rect class="cls-12" x="23.89" y="19.69" width="80.02" height="1.1"/><rect class="cls-13" x="26.79" y="22.59" width="35.17" height="83.72"/><path class="cls-14" d="M23.79,19.89v89.42H63.45V19.89ZM59,104.81H28.09V24.39H58.86v80.42Z"/><g class="cls-15"><polygon class="cls-16" points="26.19 23.09 26.19 105.71 31.08 105.71 53.66 23.09 26.19 23.09"/></g><polygon class="cls-17" points="28.09 24.29 28.09 104.71 32.98 104.71 55.66 24.29 28.09 24.29"/><polygon class="cls-18" points="63.85 109.81 63.85 19.2 63.85 19.2 59.35 23.79 59.35 23.79 59.35 105.31 63.85 109.81"/><polygon class="cls-19" points="27.69 23.79 59.35 23.79 63.85 19.2 23.19 19.2 23.19 19.2 27.69 23.79"/><polygon class="cls-20" points="59.35 105.31 59.35 105.31 27.69 105.31 27.69 105.31 23.19 109.81 23.19 109.81 63.85 109.81 63.85 109.81 59.35 105.31"/><polygon class="cls-21" points="23.19 19.2 23.19 109.81 27.69 105.31 27.69 23.79 27.69 23.79 23.19 19.2"/><g class="cls-22"><g class="cls-23"><path class="cls-24" d="M61.65,107.51c-.6-.6-1.2-1.1-1.6-1.6a3.57,3.57,0,0,1-.7-.7l.7.7a8,8,0,0,0,1.6,1.6c.6.6,1.1,1.2,1.6,1.6a3.57,3.57,0,0,1,.7.7l-.7-.7Z"/><path class="cls-25" d="M25.49,107.51l-1.6,1.6a3.57,3.57,0,0,1-.7.7l.7-.7a11.86,11.86,0,0,0,1.6-1.6c.6-.6,1.2-1.1,1.7-1.6a3.57,3.57,0,0,1,.7-.7l-.7.7A12.88,12.88,0,0,0,25.49,107.51Z"/><path class="cls-26" d="M61.65,21.49l1.6-1.6.7-.7-.7.7c-.4.4-1.1,1-1.6,1.6s-1.2,1.1-1.7,1.6a3.57,3.57,0,0,1-.7.7l.7-.7C60.45,22.69,61.05,22.09,61.65,21.49Z"/><path class="cls-27" d="M25.49,21.49l-1.6-1.6a3.57,3.57,0,0,1-.7-.7s.2.2.6.7,1.1,1,1.7,1.6,1.1,1.2,1.6,1.7a3.57,3.57,0,0,1,.7.7l-.7-.7A12.48,12.48,0,0,0,25.49,21.49Z"/></g></g><g class="cls-22"><g class="cls-28"><path class="cls-29" d="M56.66,102.11H30.48V26.89H56.66ZM26.79,22.69v83.52H60.45V22.69Z"/><path class="cls-30" d="M30.38,102.11V26.89H56.66v75.22Zm-3.59,4.1V22.69H60.45v83.52Z"/><path class="cls-31" d="M30.38,102.21V26.89H56.66v75.32Zm-3.59,4V22.69H60.35v83.52Z"/><path class="cls-32" d="M30.38,102.21V26.89H56.66v75.32Zm-3.59,4V22.79H60.35v83.42Z"/><path class="cls-33" d="M30.38,102.21V26.89H56.76v75.32Zm-3.59,4V22.79H60.35v83.42Z"/><path class="cls-34" d="M30.38,102.21V26.79H56.76v75.42Zm-3.59,4V22.79H60.25v83.42Z"/><path class="cls-35" d="M30.28,102.21V26.79H56.76v75.42Zm-3.49,4V22.79H60.25v83.42Z"/><path class="cls-36" d="M30.28,102.31V26.79H56.76v75.52Zm-3.49,3.9V22.89H60.15v83.42l-33.36-.1Z"/><path class="cls-37" d="M30.28,102.31V26.79H56.76v75.52Zm-3.49,3.9V22.89H60.15v83.32Z"/><path class="cls-38" d="M30.28,102.31V26.79H56.76v75.52Zm-3.49,3.9V22.89H60.15v83.32Z"/><path class="cls-39" d="M30.28,102.31V26.69H56.76v75.62Zm-3.39,3.9V22.89H60.25v83.22l-33.36.1Z"/><path class="cls-40" d="M30.28,102.31V26.69H56.76v75.62Zm-3.39,3.8V22.89H60.25v83.22Z"/><path class="cls-41" d="M30.28,102.31V26.69H56.86v75.62Zm-3.39,3.8V23H60.15v83.22l-33.26-.1Z"/><path class="cls-42" d="M30.28,102.31V26.69H56.86v75.62Zm-3.39,3.8V23H60.15v83.12Z"/><path class="cls-43" d="M30.28,102.31V26.69H57v75.62Zm-3.39,3.8V23H60.15v83.12Z"/><path class="cls-44" d="M30.28,102.31V26.59H57v75.72ZM27,106.11V23H60.15v83.12Z"/><path class="cls-45" d="M30.28,102.31V26.59H57v75.72ZM27,106V23H60.15v83Z"/><path class="cls-46" d="M30.18,102.41V26.59H57v75.82ZM27,106V23H60.05v83Z"/><path class="cls-47" d="M30.18,102.41V26.59H57v75.82ZM27,106V23.09H60.05V106Z"/><path class="cls-48" d="M30.18,102.41V26.59H57.06v75.82ZM27,106V23.09H60.05V106Z"/><path class="cls-49" d="M30.18,102.41V26.49H57.06v75.92ZM27.09,106V23.09h33V106Z"/><path class="cls-50" d="M30.18,102.41V26.49H57.06v75.92Zm-3.09,3.5V23h33v82.92Z"/><path class="cls-51" d="M30.08,102.51v-76h27v76Zm-3,3.4V23h33v82.92Z"/><path class="cls-52" d="M30.08,102.51v-76h27v76Zm-3,3.4V23.09h33v82.82Z"/><path class="cls-53" d="M30.08,102.51v-76h27v76Zm-3,3.4V23.09h33v82.82Z"/><path class="cls-54" d="M30.08,102.51v-76h27v76Zm-2.89,3.4V23.09H60.05v82.82Z"/><path class="cls-55" d="M30.08,102.51v-76h27v76Zm-2.89,3.3V23.09H60.05v82.72Z"/><path class="cls-56" d="M30,102.61V26.49H57.06v76.12Zm-2.79,3.2V23.09H60v82.72Z"/><path class="cls-57" d="M30,102.61V26.49H57.06v76.12Zm-2.79,3.2V23.19H60v82.62Z"/><path class="cls-58" d="M30,102.61V26.49H57.16v76.12Zm-2.79,3.2V23.19H60v82.62Z"/><path class="cls-59" d="M30,102.61V26.39H57.16v76.22Zm-2.79,3.2V23.19H59.85v82.62Z"/><path class="cls-60" d="M30,102.61V26.39H57.16v76.22Zm-2.79,3.2V23.19H59.85v82.52l-32.66.1Z"/><path class="cls-61" d="M29.88,102.71V26.39H57.16v76.32Zm-2.69,3.1V23.19H59.75v82.52l-32.56.1Z"/><path class="cls-62" d="M29.88,102.71V26.39H57.16v76.32Zm-2.69,3.1V23.29H59.75v82.52Z"/><path class="cls-63" d="M29.88,102.71V26.39H57.26v76.32Zm-2.69,3.1V23.29H59.75v82.52Z"/><path class="cls-64" d="M29.88,102.71V26.29H57.26v76.42Zm-2.59,3.1V23.29H59.85v82.52Z"/><path class="cls-65" d="M29.88,102.71V26.29H57.26v76.42Zm-2.59,3V23.29H59.85v82.42Z"/><path class="cls-66" d="M29.78,102.81V26.29H57.16v76.52Zm-2.49,2.9V23.29H59.75v82.42Z"/><path class="cls-67" d="M29.78,102.81V26.29H57.16v76.52Zm-2.49,2.9V23.39H59.75v82.32Z"/><path class="cls-68" d="M29.78,102.81V26.29H57.26v76.52Zm-2.49,2.9V23.39H59.75v82.32Z"/><path class="cls-69" d="M29.78,102.81V26.19H57.26v76.52l-27.48.1Zm-2.39,2.9V23.39H59.75v82.32Z"/><path class="cls-70" d="M29.78,102.81V26.19H57.26v76.52l-27.48.1Zm-2.39,2.8V23.39H59.75v82.22Z"/><path class="cls-71" d="M29.78,102.81V26.19H57.36v76.62Zm-2.39,2.8V23.39H59.65v82.22Z"/><path class="cls-72" d="M29.78,102.81V26.19H57.36v76.62Zm-2.39,2.8V23.49H59.65v82.12Z"/><path class="cls-73" d="M29.78,102.81V26.19H57.46v76.62Zm-2.39,2.8V23.49H59.65v82.12Z"/><path class="cls-74" d="M29.78,102.81V26.09H57.46v76.72Zm-2.29,2.8V23.49H59.65v82.12Z"/><path class="cls-75" d="M29.78,102.81V26.09H57.46v76.72Zm-2.29,2.7v-82H59.65v82.12l-32.16-.1Z"/><path class="cls-76" d="M29.68,102.91V26.09H57.46v76.82Zm-2.19,2.6v-82H59.55v82.12l-32.06-.1Z"/><path class="cls-77" d="M29.68,102.91V26.09H57.46v76.82Zm-2.19,2.6v-82H59.55v82Z"/><path class="cls-78" d="M29.68,102.91V26.09H57.46v76.82Zm-2.19,2.6v-82H59.55v82Z"/><path class="cls-79" d="M29.68,102.91V26H57.46v76.92Zm-2.09,2.6v-82H59.65v82Z"/><path class="cls-80" d="M29.68,102.91H57.46V26H29.68Zm-2.09,2.5V23.49H59.65v81.92Z"/></g></g><g class="cls-28"><path class="cls-81" d="M62,72.34a1.78,1.78,0,0,1-1-.4,1.4,1.4,0,0,1-.3-.9c-.1-2.09-.1-3.79,0-6.59a2,2,0,0,1,.3-1.1,1.23,1.23,0,0,1,1-.5,1.9,1.9,0,0,1,1.3.5c.1.2,0,5.8,0,7.59a1.61,1.61,0,0,1-.3.9A1.23,1.23,0,0,1,62,72.34Z"/><path class="cls-82" d="M61,63.45a1.23,1.23,0,0,1,1-.5,1.61,1.61,0,0,1,1.3.6c.1.2,0,5.8,0,7.49a1.61,1.61,0,0,1-.3.9,1.53,1.53,0,0,1-1,.4,1.78,1.78,0,0,1-1-.4,1.4,1.4,0,0,1-.3-.9c-.1-2.09-.1-3.79,0-6.49A5.31,5.31,0,0,1,61,63.45Z"/><path class="cls-83" d="M61.05,63.45a1.23,1.23,0,0,1,1-.5c.4,0,1.1.2,1.2.6.1.2,0,5.7,0,7.49a1.61,1.61,0,0,1-.3.9,1.53,1.53,0,0,1-1,.4,1.78,1.78,0,0,1-1-.4,1.64,1.64,0,0,1-.2-1c0-2-.1-3.79,0-6.49A1.69,1.69,0,0,1,61.05,63.45Z"/><path class="cls-84" d="M61.05,63.55a1.33,1.33,0,0,1,1-.6c.4,0,1.1.2,1.2.6s0,5.6,0,7.29a2.92,2.92,0,0,1-.2.9,1.6,1.6,0,0,1-1,.5,1.39,1.39,0,0,1-1-.5,1.34,1.34,0,0,1-.2-.9c0-2-.1-3.69,0-6.29A1.09,1.09,0,0,1,61.05,63.55Z"/><path class="cls-85" d="M61.05,63.55A1.33,1.33,0,0,1,62,63c.4,0,1.1.2,1.2.6s0,5.5,0,7.29a2.92,2.92,0,0,1-.2.9,1.23,1.23,0,0,1-1,.5,1.39,1.39,0,0,1-1-.5,1.34,1.34,0,0,1-.2-.9c0-1.89-.1-3.69,0-6.29A2.93,2.93,0,0,1,61.05,63.55Z"/><path class="cls-86" d="M61.05,63.55A1.33,1.33,0,0,1,62,63c.4,0,1.1.2,1.1.6s0,5.4,0,7.09a2.92,2.92,0,0,1-.2.9,1.23,1.23,0,0,1-1,.5,1.39,1.39,0,0,1-1-.5,1.34,1.34,0,0,1-.2-.9c0-1.89-.1-3.69,0-6.19C60.85,64.25,60.85,63.85,61.05,63.55Z"/><path class="cls-87" d="M61.05,63.55A1.33,1.33,0,0,1,62,63c.4,0,1,.2,1.1.6s0,5.4,0,7.09a1.88,1.88,0,0,1-.2.8,1.19,1.19,0,0,1-.9.5,1.05,1.05,0,0,1-.9-.5,1.2,1.2,0,0,1-.2-.8V64.55A2,2,0,0,1,61.05,63.55Z"/><path class="cls-88" d="M61.05,63.55A1.15,1.15,0,0,1,62,63c.4,0,1,.2,1.1.6s0,5.3,0,7a1.88,1.88,0,0,1-.2.8,1.19,1.19,0,0,1-.9.5,1.05,1.05,0,0,1-.9-.5,1.2,1.2,0,0,1-.2-.8v-6A2,2,0,0,1,61.05,63.55Z"/></g><g class="cls-89"><path class="cls-90" d="M60.65,64.45v-4.1a.43.43,0,0,1,.4-.4H63a.43.43,0,0,1,.4.4v4.1a.43.43,0,0,1-.4.4h-1.9A.43.43,0,0,1,60.65,64.45Z"/><path class="cls-91" d="M60.65,64.45v-4.1a.43.43,0,0,1,.4-.4H63a.43.43,0,0,1,.4.4v4.1a.43.43,0,0,1-.4.4h-1.9A.43.43,0,0,1,60.65,64.45Z"/><path class="cls-92" d="M60.65,64.45v-4.1a.43.43,0,0,1,.4-.4H63a.43.43,0,0,1,.4.4v4.1a.43.43,0,0,1-.4.4h-1.9A.43.43,0,0,1,60.65,64.45Z"/><path class="cls-93" d="M60.65,64.45v-4.1a.43.43,0,0,1,.4-.4H63a.43.43,0,0,1,.4.4v4.1a.43.43,0,0,1-.4.4h-1.9A.43.43,0,0,1,60.65,64.45Z"/><path class="cls-94" d="M60.65,64.45v-4.1a.43.43,0,0,1,.4-.4H63a.43.43,0,0,1,.4.4v4.1a.43.43,0,0,1-.4.4h-1.9A.43.43,0,0,1,60.65,64.45Z"/><path class="cls-95" d="M60.65,64.45v-4.1a.43.43,0,0,1,.4-.4H63a.43.43,0,0,1,.4.4v4.1a.43.43,0,0,1-.4.4h-1.9A.43.43,0,0,1,60.65,64.45Z"/><path class="cls-96" d="M60.65,64.45v-4.1a.43.43,0,0,1,.4-.4H63a.43.43,0,0,1,.4.4v4.1a.43.43,0,0,1-.4.4h-1.9A.43.43,0,0,1,60.65,64.45Z"/><path class="cls-97" d="M60.65,64.45v-4.1a.43.43,0,0,1,.4-.4H63a.43.43,0,0,1,.4.4v4.1a.43.43,0,0,1-.4.4h-1.9A.43.43,0,0,1,60.65,64.45Z"/><path class="cls-98" d="M60.65,64.45v-4.1a.43.43,0,0,1,.4-.4H63a.43.43,0,0,1,.4.4v4.1a.43.43,0,0,1-.4.4h-1.9C60.85,64.85,60.65,64.55,60.65,64.45Z"/><path class="cls-99" d="M60.65,64.35v-4a.43.43,0,0,1,.4-.4H63a.43.43,0,0,1,.4.4v4a.43.43,0,0,1-.4.4h-1.9C60.85,64.85,60.65,64.55,60.65,64.35Z"/><path class="cls-100" d="M60.65,64.35v-4a.43.43,0,0,1,.4-.4H63a.43.43,0,0,1,.4.4v4a.43.43,0,0,1-.4.4h-1.9C60.85,64.85,60.65,64.55,60.65,64.35Z"/><path class="cls-101" d="M60.65,64.35v-4a.43.43,0,0,1,.4-.4H63a.43.43,0,0,1,.4.4v4a.43.43,0,0,1-.4.4h-1.9C60.85,64.85,60.65,64.55,60.65,64.35Z"/><path class="cls-102" d="M60.65,64.35v-4a.43.43,0,0,1,.4-.4h1.8a.43.43,0,0,1,.4.4v4a.43.43,0,0,1-.4.4h-1.8C60.85,64.85,60.65,64.55,60.65,64.35Z"/><path class="cls-103" d="M60.65,64.35v-4a.43.43,0,0,1,.4-.4h1.8a.43.43,0,0,1,.4.4v4a.43.43,0,0,1-.4.4h-1.8A.43.43,0,0,1,60.65,64.35Z"/><path class="cls-104" d="M60.65,64.35v-4a.43.43,0,0,1,.4-.4h1.8a.43.43,0,0,1,.4.4v4a.43.43,0,0,1-.4.4h-1.8A.43.43,0,0,1,60.65,64.35Z"/><path class="cls-105" d="M60.65,64.35v-4a.43.43,0,0,1,.4-.4h1.8a.43.43,0,0,1,.4.4v4a.43.43,0,0,1-.4.4h-1.8A.43.43,0,0,1,60.65,64.35Z"/><path class="cls-106" d="M60.65,64.35v-4a.43.43,0,0,1,.4-.4h1.8a.43.43,0,0,1,.4.4v4a.43.43,0,0,1-.4.4h-1.8A.43.43,0,0,1,60.65,64.35Z"/><path class="cls-107" d="M60.65,64.35v-3.9a.43.43,0,0,1,.4-.4h1.8a.43.43,0,0,1,.4.4v3.9a.43.43,0,0,1-.4.4h-1.8A.43.43,0,0,1,60.65,64.35Z"/><path class="cls-108" d="M60.65,64.35v-3.9a.43.43,0,0,1,.4-.4h1.8a.43.43,0,0,1,.4.4v3.9a.43.43,0,0,1-.4.4h-1.8A.43.43,0,0,1,60.65,64.35Z"/><path class="cls-109" d="M60.75,64.35v-3.9a.43.43,0,0,1,.4-.4H63a.43.43,0,0,1,.4.4v3.9a.43.43,0,0,1-.4.4h-1.8A.37.37,0,0,1,60.75,64.35Z"/><path class="cls-110" d="M60.75,64.35v-3.9a.43.43,0,0,1,.4-.4H63a.43.43,0,0,1,.4.4v3.9a.43.43,0,0,1-.4.4h-1.8A.42.42,0,0,1,60.75,64.35Z"/><path class="cls-111" d="M60.75,64.25v-3.8a.43.43,0,0,1,.4-.4H63a.43.43,0,0,1,.4.4v3.9a.43.43,0,0,1-.4.4h-1.8C60.85,64.75,60.75,64.45,60.75,64.25Z"/><path class="cls-112" d="M60.75,64.25v-3.8a.43.43,0,0,1,.4-.4H63a.43.43,0,0,1,.4.4v3.9a.43.43,0,0,1-.4.4h-1.8C60.85,64.75,60.75,64.45,60.75,64.25Z"/><path class="cls-113" d="M60.75,64.25v-3.8a.43.43,0,0,1,.4-.4H63a.43.43,0,0,1,.4.4v3.9a.43.43,0,0,1-.4.4h-1.8C60.85,64.75,60.75,64.45,60.75,64.25Z"/><path class="cls-114" d="M60.75,64.25v-3.8a.43.43,0,0,1,.4-.4H63a.43.43,0,0,1,.4.4v3.9a.43.43,0,0,1-.4.4h-1.8A.51.51,0,0,1,60.75,64.25Z"/><path class="cls-115" d="M60.75,64.25v-3.8a.43.43,0,0,1,.4-.4H63a.43.43,0,0,1,.4.4v3.8a.43.43,0,0,1-.4.4h-1.8A.37.37,0,0,1,60.75,64.25Z"/><path class="cls-116" d="M60.75,64.25v-3.8a.43.43,0,0,1,.4-.4H63a.43.43,0,0,1,.4.4v3.8a.43.43,0,0,1-.4.4h-1.8A.37.37,0,0,1,60.75,64.25Z"/><path class="cls-117" d="M60.75,64.25v-3.8a.43.43,0,0,1,.4-.4H63a.43.43,0,0,1,.4.4v3.8a.43.43,0,0,1-.4.4h-1.8A.37.37,0,0,1,60.75,64.25Z"/><path class="cls-118" d="M60.75,64.25v-3.8a.43.43,0,0,1,.4-.4H63a.43.43,0,0,1,.4.4v3.8a.43.43,0,0,1-.4.4h-1.8A.37.37,0,0,1,60.75,64.25Z"/><path class="cls-119" d="M60.75,64.25v-3.8a.43.43,0,0,1,.4-.4H63a.43.43,0,0,1,.4.4v3.8a.43.43,0,0,1-.4.4h-1.8A.37.37,0,0,1,60.75,64.25Z"/><path class="cls-120" d="M60.75,64.25v-3.8a.43.43,0,0,1,.4-.4H63a.43.43,0,0,1,.4.4v3.8a.43.43,0,0,1-.4.4h-1.8A.37.37,0,0,1,60.75,64.25Z"/><path class="cls-121" d="M60.75,64.25v-3.8a.43.43,0,0,1,.4-.4h1.7a.43.43,0,0,1,.4.4v3.8a.43.43,0,0,1-.4.4h-1.7A.37.37,0,0,1,60.75,64.25Z"/><path class="cls-122" d="M60.75,64.25v-3.8a.43.43,0,0,1,.4-.4h1.7a.43.43,0,0,1,.4.4v3.8a.43.43,0,0,1-.4.4h-1.7A.37.37,0,0,1,60.75,64.25Z"/><path class="cls-123" d="M60.75,64.25v-3.8a.43.43,0,0,1,.4-.4h1.7a.43.43,0,0,1,.4.4v3.7a.43.43,0,0,1-.4.4h-1.7C60.85,64.65,60.75,64.45,60.75,64.25Z"/><path class="cls-124" d="M60.75,64.15v-3.7a.43.43,0,0,1,.4-.4h1.7a.43.43,0,0,1,.4.4v3.7a.43.43,0,0,1-.4.4h-1.7C60.85,64.65,60.75,64.45,60.75,64.15Z"/><path class="cls-125" d="M60.75,64.15v-3.7a.43.43,0,0,1,.4-.4h1.7a.43.43,0,0,1,.4.4v3.7a.43.43,0,0,1-.4.4h-1.7C60.85,64.55,60.75,64.45,60.75,64.15Z"/><path class="cls-126" d="M60.75,64.15v-3.7a.43.43,0,0,1,.4-.4h1.7a.43.43,0,0,1,.4.4v3.7a.43.43,0,0,1-.4.4h-1.7C60.85,64.55,60.75,64.45,60.75,64.15Z"/><path class="cls-127" d="M62.85,64.55h-1.7a.43.43,0,0,1-.4-.4v-3.7a.43.43,0,0,1,.4-.4h1.7a.43.43,0,0,1,.4.4v3.7A.37.37,0,0,1,62.85,64.55Z"/></g><path class="cls-128" d="M63,64.45h-1.9a.43.43,0,0,1-.4-.4v-3.8a.43.43,0,0,1,.4-.4H63a.43.43,0,0,1,.4.4V64A.4.4,0,0,1,63,64.45Z"/><path class="cls-129" d="M61.25,64.25a17,17,0,0,0-.1-2.3c0-.2.4-.5.9-.5s1,.2.9.5a17,17,0,0,0-.1,2.3.6.6,0,0,0,.3-.6v-3.2a.58.58,0,0,0-.6-.6h-1.2a.58.58,0,0,0-.6.6v3.2C60.85,64,61,64.15,61.25,64.25Z"/><g class="cls-130"><path class="cls-81" d="M62.05,69.84a1.41,1.41,0,0,1-1-.49,1.09,1.09,0,0,1-.2-1,35.77,35.77,0,0,0,.2-5.8,1,1,0,0,1,1.1-1.1,1.91,1.91,0,0,1,.8.3,1.14,1.14,0,0,1,.3.8,22.08,22.08,0,0,0,.2,5.8c.1.3-.1.7-.2,1A2.44,2.44,0,0,1,62.05,69.84Z"/><path class="cls-82" d="M61.25,61.85a1.14,1.14,0,0,1,.8-.3,1.91,1.91,0,0,1,.8.3.78.78,0,0,1,.2.8,22.08,22.08,0,0,0,.2,5.8c.1.3-.1.7-.2,1a1.25,1.25,0,0,1-1,.49,1.41,1.41,0,0,1-1-.49,1.09,1.09,0,0,1-.2-1,35.77,35.77,0,0,0,.2-5.8A.57.57,0,0,1,61.25,61.85Z"/><path class="cls-83" d="M61.25,61.85a1,1,0,0,1,1.6,0,.78.78,0,0,1,.2.8,22.24,22.24,0,0,0,.2,5.8c.1.3-.1.7-.2,1a1.27,1.27,0,0,1-2,0,1.09,1.09,0,0,1-.2-1,35.77,35.77,0,0,0,.2-5.8A.57.57,0,0,1,61.25,61.85Z"/><path class="cls-131" d="M61.25,61.85a1,1,0,0,1,1.6,0,.78.78,0,0,1,.2.8,22.24,22.24,0,0,0,.2,5.8c.1.3-.1.7-.2,1a1.27,1.27,0,0,1-2,0,1.09,1.09,0,0,1-.2-1,35.77,35.77,0,0,0,.2-5.8C60.85,62.25,61.05,62.05,61.25,61.85Z"/><path class="cls-132" d="M61.25,61.85a1,1,0,0,1,1.6,0,1.08,1.08,0,0,1,.2.8,22.24,22.24,0,0,0,.2,5.8c.1.3-.1.6-.2,1a1.27,1.27,0,0,1-2,0,1.09,1.09,0,0,1-.2-1,35.77,35.77,0,0,0,.2-5.8C60.85,62.25,61.05,62.05,61.25,61.85Z"/><path class="cls-84" d="M61.25,61.85a1,1,0,0,1,1.6,0,1.08,1.08,0,0,1,.2.8,21.32,21.32,0,0,0,.2,5.7c.1.3-.1.6-.2,1a1.27,1.27,0,0,1-2,0,1.09,1.09,0,0,1-.2-1,34.52,34.52,0,0,0,.2-5.7A.72.72,0,0,1,61.25,61.85Z"/><path class="cls-85" d="M61.25,61.85a1,1,0,0,1,1.6,0,1.08,1.08,0,0,1,.2.8,21.32,21.32,0,0,0,.2,5.7c.1.3-.1.6-.2,1a1.34,1.34,0,0,1-1,.59,1.11,1.11,0,0,1-1-.59,1.09,1.09,0,0,1-.2-1,34.52,34.52,0,0,0,.2-5.7A.78.78,0,0,1,61.25,61.85Z"/><path class="cls-133" d="M61.25,61.85a1,1,0,0,1,1.6,0,1.08,1.08,0,0,1,.2.8,21.32,21.32,0,0,0,.2,5.7,1.3,1.3,0,0,1-.2,1,1.34,1.34,0,0,1-1,.59,1.11,1.11,0,0,1-1-.59,1.5,1.5,0,0,1-.2-1,34.52,34.52,0,0,0,.2-5.7A.78.78,0,0,1,61.25,61.85Z"/><path class="cls-86" d="M61.25,61.85a1,1,0,0,1,1.6,0,1.08,1.08,0,0,1,.2.8,20.41,20.41,0,0,0,.2,5.6,1.3,1.3,0,0,1-.2,1,1.35,1.35,0,0,1-1.1.59,1.4,1.4,0,0,1-1.1-.59,1.5,1.5,0,0,1-.2-1,33.72,33.72,0,0,0,.2-5.6A3,3,0,0,1,61.25,61.85Z"/><path class="cls-134" d="M61.25,61.85a1,1,0,0,1,1.6,0,1.08,1.08,0,0,1,.2.8,20.57,20.57,0,0,0,.2,5.6,1.3,1.3,0,0,1-.2,1,1.35,1.35,0,0,1-1.1.59,1.4,1.4,0,0,1-1.1-.59,1.5,1.5,0,0,1-.2-1,33.29,33.29,0,0,0,.2-5.6A3,3,0,0,1,61.25,61.85Z"/><path class="cls-87" d="M61.25,61.85c.2-.2.5-.5.8-.5a1,1,0,0,1,.8.5,1.08,1.08,0,0,1,.2.8,20.57,20.57,0,0,0,.2,5.6,1.3,1.3,0,0,1-.2,1,1.35,1.35,0,0,1-1.1.59,1.4,1.4,0,0,1-1.1-.59,1.5,1.5,0,0,1-.2-1,33.29,33.29,0,0,0,.2-5.6A3,3,0,0,1,61.25,61.85Z"/><path class="cls-88" d="M61.25,61.85c.2-.2.5-.5.8-.5a1,1,0,0,1,.8.5,1.08,1.08,0,0,1,.2.8,19.68,19.68,0,0,0,.2,5.5,1.3,1.3,0,0,1-.2,1,1.35,1.35,0,0,1-1.1.59,1.25,1.25,0,0,1-1.1-.59,1.5,1.5,0,0,1-.2-1,32.5,32.5,0,0,0,.2-5.5A3,3,0,0,1,61.25,61.85Z"/><path class="cls-135" d="M61.25,61.85c.2-.2.5-.5.8-.5a1,1,0,0,1,.8.5,1.08,1.08,0,0,1,.2.7,19.68,19.68,0,0,0,.2,5.5,1.3,1.3,0,0,1-.2,1,1.35,1.35,0,0,1-1.1.59,1.25,1.25,0,0,1-1.1-.59,1.34,1.34,0,0,1-.2-.9,32.5,32.5,0,0,0,.2-5.5A3,3,0,0,1,61.25,61.85Z"/><path class="cls-136" d="M61.25,62c.2-.2.5-.5.8-.5a1,1,0,0,1,.8.5,1.08,1.08,0,0,1,.2.7,24.63,24.63,0,0,0,.2,5.5,1,1,0,0,1-.2.9,1.35,1.35,0,0,1-1.1.59,1.25,1.25,0,0,1-1.1-.59,1.34,1.34,0,0,1-.2-.9,32.5,32.5,0,0,0,.2-5.5A2.51,2.51,0,0,1,61.25,62Z"/><path class="cls-137" d="M61.25,62c.2-.2.5-.5.8-.5a1,1,0,0,1,.8.5,1.08,1.08,0,0,1,.2.7,23.49,23.49,0,0,0,.2,5.4,1,1,0,0,1-.2.9,1.36,1.36,0,0,1-1.1.6,1.52,1.52,0,0,1-1.1-.6,1.34,1.34,0,0,1-.2-.9,31.72,31.72,0,0,0,.2-5.4A5.74,5.74,0,0,1,61.25,62Z"/><path class="cls-138" d="M61.25,62a.89.89,0,0,1,1.6,0,1.08,1.08,0,0,1,.2.7,23.73,23.73,0,0,0,.2,5.4,1,1,0,0,1-.2.9,1.15,1.15,0,0,1-1.1.6,1.52,1.52,0,0,1-1.1-.6,1.34,1.34,0,0,1-.2-.9,31.72,31.72,0,0,0,.2-5.4A5.74,5.74,0,0,1,61.25,62Z"/><path class="cls-139" d="M61.25,62a.89.89,0,0,1,1.6,0,1.85,1.85,0,0,1,.2.7,23.73,23.73,0,0,0,.2,5.4,1,1,0,0,1-.2.9,1.15,1.15,0,0,1-1.1.6,1.52,1.52,0,0,1-1.1-.6,1.34,1.34,0,0,1-.2-.9,31.32,31.32,0,0,0,.2-5.4A5.74,5.74,0,0,1,61.25,62Z"/><path class="cls-140" d="M61.25,62c.2-.3.5-.6.8-.6a.94.94,0,0,1,.8.6,1.85,1.85,0,0,1,.2.7,24,24,0,0,0,.2,5.4,1,1,0,0,1-.2.9,1.15,1.15,0,0,1-1.1.6,1.36,1.36,0,0,1-1.1-.6,2.39,2.39,0,0,1-.2-.9,31.32,31.32,0,0,0,.2-5.4A5.74,5.74,0,0,1,61.25,62Z"/><path class="cls-141" d="M61.25,62c.2-.3.4-.6.8-.6s.6.2.8.6a1.85,1.85,0,0,1,.2.7,24,24,0,0,0,.2,5.4,1,1,0,0,1-.2.9,1.22,1.22,0,0,1-2.2,0,2.39,2.39,0,0,1-.2-.9,31.32,31.32,0,0,0,.2-5.4A5.74,5.74,0,0,1,61.25,62Z"/><path class="cls-142" d="M61.25,62.05c.2-.3.4-.6.8-.6s.6.2.8.6a1.85,1.85,0,0,1,.2.7,24,24,0,0,0,.2,5.4,1,1,0,0,1-.2.9,1.22,1.22,0,0,1-2.2,0,2.39,2.39,0,0,1-.2-.9,31.32,31.32,0,0,0,.2-5.4A2.51,2.51,0,0,0,61.25,62.05Z"/><path class="cls-143" d="M61.25,62.05c.2-.3.4-.6.8-.6s.6.2.8.6a1.85,1.85,0,0,1,.2.7,23.08,23.08,0,0,0,.2,5.3,1,1,0,0,1-.2.9,1.22,1.22,0,0,1-2.2,0,2.39,2.39,0,0,1-.2-.9,30.55,30.55,0,0,0,.2-5.3A2.51,2.51,0,0,0,61.25,62.05Z"/><path class="cls-144" d="M61.25,62.05c.2-.3.4-.6.8-.6s.6.2.8.6a1.85,1.85,0,0,1,.2.7,23.08,23.08,0,0,0,.2,5.3,1.41,1.41,0,0,1-.1.9,1.12,1.12,0,0,1-1.1.69A1.22,1.22,0,0,1,61,69a1.34,1.34,0,0,1-.1-.9,44.37,44.37,0,0,0,.2-5.3A1.85,1.85,0,0,1,61.25,62.05Z"/><path class="cls-145" d="M61.25,62.05c.2-.3.4-.6.8-.6s.6.2.8.6a1.85,1.85,0,0,1,.2.7,23.08,23.08,0,0,0,.2,5.3,1.41,1.41,0,0,1-.1.9,1.12,1.12,0,0,1-1.1.69A1.22,1.22,0,0,1,61,69a1.34,1.34,0,0,1-.1-.9,44.37,44.37,0,0,0,.2-5.3A1.85,1.85,0,0,1,61.25,62.05Z"/><path class="cls-146" d="M61.25,62.05c.2-.3.4-.6.8-.6s.6.2.8.6a1.85,1.85,0,0,1,.2.7,22.22,22.22,0,0,0,.2,5.2,1.41,1.41,0,0,1-.1.9,1.13,1.13,0,0,1-1.1.7,1.23,1.23,0,0,1-1.1-.7,1.34,1.34,0,0,1-.1-.9,43.5,43.5,0,0,0,.2-5.2A1.85,1.85,0,0,1,61.25,62.05Z"/><path class="cls-147" d="M61.25,62.15c.2-.3.4-.6.8-.6a.76.76,0,0,1,.8.6,1.85,1.85,0,0,1,.2.7,22.22,22.22,0,0,0,.2,5.2,1.41,1.41,0,0,1-.1.9,1.2,1.2,0,0,1-1.1.79A1.16,1.16,0,0,1,61,69a1.34,1.34,0,0,1-.1-.9,43.5,43.5,0,0,0,.2-5.2A1.17,1.17,0,0,1,61.25,62.15Z"/><path class="cls-148" d="M61.25,62.15a.87.87,0,0,1,.8-.6.76.76,0,0,1,.8.6,1.85,1.85,0,0,1,.2.7,22.22,22.22,0,0,0,.2,5.2,1.41,1.41,0,0,1-.1.9,1.1,1.1,0,0,1-1.1.79A1.16,1.16,0,0,1,61,69a1.34,1.34,0,0,1-.1-.9,43.5,43.5,0,0,0,.2-5.2A1.17,1.17,0,0,1,61.25,62.15Z"/><path class="cls-149" d="M61.25,62.15a.87.87,0,0,1,.8-.6.76.76,0,0,1,.8.6,1.85,1.85,0,0,1,.2.7,21.14,21.14,0,0,0,.2,5.1,1.41,1.41,0,0,1-.1.9,1.1,1.1,0,0,1-1.1.79,1.32,1.32,0,0,1-1.1-.79,1.34,1.34,0,0,1-.1-.9,41.82,41.82,0,0,0,.2-5.1A1.85,1.85,0,0,1,61.25,62.15Z"/><path class="cls-150" d="M61.25,62.15a.87.87,0,0,1,.8-.6.76.76,0,0,1,.8.6.88.88,0,0,1,.1.7,21.37,21.37,0,0,0,.2,5.1,1.41,1.41,0,0,1-.1.9,1,1,0,0,1-1.1.79,1.2,1.2,0,0,1-1.1-.79,2.48,2.48,0,0,1-.1-.9,41.82,41.82,0,0,0,.2-5.1C61.05,62.65,61.15,62.35,61.25,62.15Z"/><path class="cls-151" d="M61.25,62.15a.93.93,0,0,1,1.7.7,21.37,21.37,0,0,0,.2,5.1,1.41,1.41,0,0,1-.1.9,1,1,0,0,1-1.1.79,1.2,1.2,0,0,1-1.1-.79,2.48,2.48,0,0,1-.1-.9,41.82,41.82,0,0,0,.2-5.1C61.05,62.65,61.15,62.35,61.25,62.15Z"/><path class="cls-152" d="M61.25,62.15a.83.83,0,0,1,1.6,0,1.7,1.7,0,0,1,.1.7,20.32,20.32,0,0,0,.2,5,1.41,1.41,0,0,1-.1.9,1,1,0,0,1-1.1.8,1.11,1.11,0,0,1-1.1-.8,2.48,2.48,0,0,1-.1-.9,41,41,0,0,0,.2-5C61.05,62.65,61.15,62.35,61.25,62.15Z"/><path class="cls-153" d="M61.25,62.25a.76.76,0,0,1,.8-.6.87.87,0,0,1,.8.6,1.7,1.7,0,0,1,.1.7,20.53,20.53,0,0,0,.2,5,1.41,1.41,0,0,1-.1.9,1.12,1.12,0,0,1-2.2,0,2.48,2.48,0,0,1-.1-.9,41,41,0,0,0,.2-5A2.39,2.39,0,0,1,61.25,62.25Z"/><path class="cls-154" d="M61.25,62.25a.76.76,0,0,1,.8-.6.87.87,0,0,1,.8.6,1.7,1.7,0,0,1,.1.7,20.75,20.75,0,0,0,.2,5,1.41,1.41,0,0,1-.1.9,1.12,1.12,0,0,1-2.2,0,2.48,2.48,0,0,1-.1-.9,40.17,40.17,0,0,0,.2-5A2.39,2.39,0,0,1,61.25,62.25Z"/><path class="cls-155" d="M61.25,62.25a.76.76,0,0,1,.8-.6.87.87,0,0,1,.8.6,1.7,1.7,0,0,1,.1.7,20.75,20.75,0,0,0,.2,5,2.72,2.72,0,0,1,0,.9,1.12,1.12,0,0,1-2.2,0,2.7,2.7,0,0,1,0-.9,40.17,40.17,0,0,0,.2-5A.82.82,0,0,1,61.25,62.25Z"/><path class="cls-156" d="M61.25,62.25a.81.81,0,0,1,1.6,0,1.7,1.7,0,0,1,.1.7,20.75,20.75,0,0,0,.2,5v.9a1.12,1.12,0,0,1-2.2,0,2.7,2.7,0,0,1,0-.9,40.17,40.17,0,0,0,.2-5A1.48,1.48,0,0,1,61.25,62.25Z"/><path class="cls-157" d="M61.25,62.25a.81.81,0,0,1,1.6,0,1.7,1.7,0,0,1,.1.7,27.9,27.9,0,0,0,.2,5v.9a1.12,1.12,0,0,1-2.2,0c0-.2-.1-.6,0-.8a40.17,40.17,0,0,0,.2-5A1.72,1.72,0,0,1,61.25,62.25Z"/><path class="cls-158" d="M61.25,62.25a.81.81,0,0,1,1.6,0c0,.2.1.5.1.7a26.44,26.44,0,0,0,.2,4.9v.8a1.12,1.12,0,0,1-2.2,0c0-.2-.1-.6,0-.8a39.34,39.34,0,0,0,.2-4.9A1.48,1.48,0,0,1,61.25,62.25Z"/><path class="cls-159" d="M61.25,62.25a.81.81,0,0,1,1.6,0c0,.2.1.5.1.7a26.44,26.44,0,0,0,.2,4.9v.8a1.11,1.11,0,0,1-2.2,0c0-.2-.1-.6,0-.8a38.55,38.55,0,0,0,.2-4.9A1.48,1.48,0,0,1,61.25,62.25Z"/><path class="cls-160" d="M61.25,62.25a.81.81,0,0,1,1.6,0c0,.2.1.4.1.6a26.44,26.44,0,0,0,.2,4.9v.8a1.11,1.11,0,0,1-2.2,0v-.8a38.55,38.55,0,0,0,.2-4.9A1.27,1.27,0,0,1,61.25,62.25Z"/><path class="cls-161" d="M61.25,62.25a.85.85,0,0,1,.8-.7.77.77,0,0,1,.8.7c0,.2.1.4.1.6a25.72,25.72,0,0,0,.2,4.8v.8a1.1,1.1,0,0,1-1.1,1,1.18,1.18,0,0,1-1.1-1v-.8a37.74,37.74,0,0,0,.2-4.8A1.49,1.49,0,0,1,61.25,62.25Z"/><path class="cls-162" d="M61.25,62.25a.85.85,0,0,1,.8-.7.77.77,0,0,1,.8.7c0,.2.1.4,0,.6a25.72,25.72,0,0,0,.2,4.8v.8a1,1,0,0,1-1.1,1,1.1,1.1,0,0,1-1.1-1v-.8a37.74,37.74,0,0,0,.2-4.8A4.17,4.17,0,0,0,61.25,62.25Z"/><path class="cls-163" d="M61.25,62.25c.1-.4.4-.8.8-.8a.79.79,0,0,1,.8.8c0,.2.1.4,0,.6a25.72,25.72,0,0,0,.2,4.8v.8a1,1,0,0,1-1.1,1,1.1,1.1,0,0,1-1.1-1v-.8a37.74,37.74,0,0,0,.2-4.8C61.15,62.75,61.15,62.55,61.25,62.25Z"/><path class="cls-164" d="M61.25,62.25a.86.86,0,0,1,.8-.8.74.74,0,0,1,.8.8v.6a24.32,24.32,0,0,0,.2,4.7v.8a1,1,0,0,1-1.1,1,1.1,1.1,0,0,1-1.1-1v-.8a37,37,0,0,0,.2-4.7C61.15,62.75,61.15,62.55,61.25,62.25Z"/><path class="cls-165" d="M61.25,62.35a.86.86,0,0,1,.8-.8.74.74,0,0,1,.8.8V63a24.67,24.67,0,0,0,.2,4.7,2,2,0,0,0,.1.8,1,1,0,0,1-1.1,1.1,1.11,1.11,0,0,1-1.1-1.1v-.8a37,37,0,0,0,.2-4.7A1.27,1.27,0,0,1,61.25,62.35Z"/><path class="cls-166" d="M61.25,62.35a.86.86,0,0,1,.8-.8.74.74,0,0,1,.8.8V63a24.67,24.67,0,0,0,.2,4.7,2,2,0,0,0,.1.8,1,1,0,0,1-1.1,1.1,1.11,1.11,0,0,1-1.1-1.1,2.2,2.2,0,0,1,.1-.8,37,37,0,0,0,.2-4.7A.64.64,0,0,1,61.25,62.35Z"/><path class="cls-167" d="M61.25,62.35a.8.8,0,0,1,1.6,0V63a23.29,23.29,0,0,0,.2,4.6c0,.2.1.6.1.8a1,1,0,0,1-1.1,1.1,1.11,1.11,0,0,1-1.1-1.1,2.2,2.2,0,0,1,.1-.8,36.18,36.18,0,0,0,.2-4.6A.63.63,0,0,1,61.25,62.35Z"/><path class="cls-168" d="M61.25,62.35a.8.8,0,0,1,1.6,0V63a23.29,23.29,0,0,0,.2,4.6c0,.2.1.6.1.8a1,1,0,0,1-1.1,1.1,1.11,1.11,0,0,1-1.1-1.1,2.2,2.2,0,0,1,.1-.8,36.18,36.18,0,0,0,.2-4.6C61.15,62.75,61.25,62.65,61.25,62.35Z"/><path class="cls-169" d="M61.25,62.35a.8.8,0,0,1,1.6,0V63a23.29,23.29,0,0,0,.2,4.6c0,.2.1.6.1.8a1,1,0,0,1-1.1,1.1,1.11,1.11,0,0,1-1.1-1.1,2.49,2.49,0,0,1,.1-.8,35.4,35.4,0,0,0,.2-4.6C61.15,62.85,61.25,62.65,61.25,62.35Z"/><path class="cls-170" d="M61.25,62.35a.74.74,0,0,1,.8-.8.79.79,0,0,1,.8.8V63a22,22,0,0,0,.2,4.5c0,.2.1.6.1.8a1,1,0,0,1-1.1,1.1,1.11,1.11,0,0,1-1.1-1.1c0-.2.1-.5.1-.8a34.64,34.64,0,0,0,.2-4.5Z"/><path class="cls-171" d="M61.25,62.45a.81.81,0,1,1,1.6,0v.6a22,22,0,0,0,.2,4.5c0,.2.1.6.1.8a1,1,0,0,1-1.1,1.1,1.11,1.11,0,0,1-1.1-1.1c0-.2.1-.5.1-.8a33.89,33.89,0,0,0,.2-4.5Z"/><path class="cls-125" d="M61.25,62.45a.82.82,0,0,1,.8-.9.77.77,0,0,1,.8.9v.6a22.29,22.29,0,0,0,.2,4.5c0,.2.1.6.1.8a1,1,0,0,1-1.1,1.1,1.18,1.18,0,0,1-1.1-1.1c0-.2.1-.5.1-.8a33.89,33.89,0,0,0,.2-4.5Z"/><path class="cls-126" d="M61.25,62.45a.82.82,0,0,1,.8-.9.77.77,0,0,1,.8.9v.6a22.29,22.29,0,0,0,.2,4.5c0,.2.1.6.1.8a1,1,0,0,1-1.1,1.1,1.18,1.18,0,0,1-1.1-1.1c0-.2.1-.5.1-.8a33.89,33.89,0,0,0,.2-4.5Z"/><path class="cls-127" d="M62.05,61.55h0a.77.77,0,0,0-.8.9,23.18,23.18,0,0,1-.2,5.9,1,1,0,0,0,1.1,1.1,1.18,1.18,0,0,0,1.1-1.1,29.13,29.13,0,0,1-.2-5.9A1.06,1.06,0,0,0,62.05,61.55Z"/></g><circle class="cls-172" cx="62.05" cy="62.25" r="1"/><path class="cls-173" d="M62.05,61.45h0a.9.9,0,0,0-.9,1.1,34.61,34.61,0,0,1,.2,7,.57.57,0,0,0,.6.59h0a.64.64,0,0,0,.6-.59,34.61,34.61,0,0,1,.2-7C63,61.85,62.55,61.45,62.05,61.45Z"/><g class="cls-89"><path class="cls-174" d="M62.05,61.65h0a.91.91,0,0,0-.8,1,41.63,41.63,0,0,1,.2,6.8.57.57,0,0,0,.6.59h0a.64.64,0,0,0,.6-.59,32.59,32.59,0,0,1,.2-6.8A.91.91,0,0,0,62.05,61.65Z"/><path class="cls-175" d="M61.25,62.65a.85.85,0,0,1,.8-1h0a.91.91,0,0,1,.8,1,39.81,39.81,0,0,0-.2,6.7v.2a.6.6,0,0,1-1.2,0v-.2A31.55,31.55,0,0,0,61.25,62.65Z"/><path class="cls-176" d="M61.25,62.65a.85.85,0,0,1,.8-1h0a.91.91,0,0,1,.8,1,39.81,39.81,0,0,0-.2,6.7v.2a.6.6,0,0,1-1.2,0v-.2A31.55,31.55,0,0,0,61.25,62.65Z"/><path class="cls-177" d="M61.25,62.65a.84.84,0,0,1,.7-1h0a.91.91,0,0,1,.8,1,39.81,39.81,0,0,0-.2,6.7v.2a.56.56,0,0,1-.5.59c-.3,0-.6-.3-.5-.59v-.2A41.77,41.77,0,0,0,61.25,62.65Z"/><path class="cls-178" d="M61.25,62.65a.84.84,0,0,1,.7-1h0c.5,0,.8.4.7,1a39.81,39.81,0,0,0-.2,6.7v.2a.56.56,0,0,1-.5.59.46.46,0,0,1-.5-.59v-.2A31.55,31.55,0,0,0,61.25,62.65Z"/><path class="cls-179" d="M61.25,62.65a.84.84,0,0,1,.7-1h0c.5,0,.8.4.7,1a40,40,0,0,0-.2,6.7v.2a.56.56,0,0,1-.5.59.46.46,0,0,1-.5-.59v-.2A31.55,31.55,0,0,0,61.25,62.65Z"/><path class="cls-180" d="M61.25,62.65a.84.84,0,0,1,.7-1h0c.5,0,.8.4.7,1a40,40,0,0,0-.2,6.7v.2a.56.56,0,0,1-.5.59c-.3,0-.5-.2-.5-.59v-.2A31.55,31.55,0,0,0,61.25,62.65Z"/><path class="cls-181" d="M61.25,62.65a.75.75,0,0,1,.7-.9h0a.7.7,0,0,1,.7.9,40,40,0,0,0-.2,6.7v.2a.56.56,0,0,1-.5.59c-.3,0-.5-.2-.5-.59v-.2A31.55,31.55,0,0,0,61.25,62.65Z"/><path class="cls-182" d="M61.25,62.65a.75.75,0,0,1,.7-.9h0a.75.75,0,0,1,.7.9,40,40,0,0,0-.2,6.7v.2a.51.51,0,1,1-1,0v-.2A31.66,31.66,0,0,0,61.25,62.65Z"/><path class="cls-183" d="M62.55,69.25v.2a.51.51,0,1,1-1,0v-.2a55.27,55.27,0,0,0-.2-6.7.75.75,0,0,1,.7-.9h0a.75.75,0,0,1,.7.9"/></g><g class="cls-15"><polygon class="cls-184" points="87.23 19.2 87.23 111 87.93 111.1 97.02 22.19 87.23 19.2"/></g><polygon class="cls-185" points="104.61 109.81 104.61 19.2 104.61 19.2 102.71 23.19 102.71 23.19 102.71 105.81 104.61 109.81"/><g class="cls-23"><path class="cls-186" d="M103.71,107.71a15.57,15.57,0,0,1-.6-1.5,1.36,1.36,0,0,0-.3-.6l.3.6a4.71,4.71,0,0,0,.6,1.5c.2.6.5,1.1.6,1.5l.3.6-.3-.6C104.21,108.81,103.91,108.31,103.71,107.71Z"/><path class="cls-187" d="M103.71,21.29c.2-.6.5-1.1.6-1.5l.3-.6-.3.6a5.71,5.71,0,0,0-.6,1.5,15.57,15.57,0,0,0-.6,1.5l-.3.6a1.36,1.36,0,0,0,.3-.6A9.38,9.38,0,0,1,103.71,21.29Z"/></g><g class="cls-188"><path class="cls-189" d="M106.11,103.51v2.2c0,.3-.9.2-.9,0v-2.2Z"/></g><path class="cls-190" d="M105.21,103.41v-2.2c0-.2.9-.2.9,0v2.2Z"/><g class="cls-188"><path class="cls-191" d="M22.69,103.51v2.2c0,.3-.9.2-.9,0v-2.2Z"/></g><path class="cls-192" d="M21.79,103.41v-2.2c0-.2.9-.2.9,0v2.2Z"/><g class="cls-188"><path class="cls-193" d="M106.11,25.19v2.2c0,.3-.9.2-.9,0v-2.2Z"/></g><path class="cls-194" d="M105.21,25.09v-2.2c0-.2.9-.2.9,0v2.2Z"/><g class="cls-188"><path class="cls-195" d="M22.69,25.19v2.2c0,.3-.9.2-.9,0v-2.2Z"/></g><path class="cls-196" d="M21.79,25.09v-2.2c0-.2.9-.2.9,0v2.2Z"/><rect class="cls-197" x="67.05" y="22.59" width="35.17" height="83.72"/><path class="cls-14" d="M64.05,19.89v89.42h39.66V19.89Zm35.17,84.92H68.35V24.39H99.12v80.42Z"/><g class="cls-198"><polygon class="cls-199" points="66.45 23.09 66.45 105.71 71.34 105.71 93.92 23.09 66.45 23.09"/></g><polygon class="cls-200" points="68.35 24.29 68.35 104.71 73.24 104.71 95.92 24.29 68.35 24.29"/><polygon class="cls-201" points="104.11 109.81 104.11 19.2 104.11 19.2 99.61 23.79 99.61 23.79 99.61 105.31 104.11 109.81"/><polygon class="cls-202" points="67.95 23.79 99.61 23.79 104.11 19.2 63.45 19.2 63.45 19.2 67.95 23.79"/><polygon class="cls-203" points="99.61 105.31 99.61 105.31 67.95 105.31 67.95 105.31 63.45 109.81 63.45 109.81 104.11 109.81 104.11 109.81 99.61 105.31"/><polygon class="cls-204" points="63.45 19.2 63.45 109.81 67.95 105.31 67.95 23.79 67.95 23.79 63.45 19.2"/><g class="cls-205"><g class="cls-23"><path class="cls-206" d="M101.91,107.51c-.6-.6-1.2-1.1-1.6-1.6a3.57,3.57,0,0,1-.7-.7l.7.7a8,8,0,0,0,1.6,1.6c.6.6,1.1,1.2,1.6,1.6a3.57,3.57,0,0,1,.7.7l-.7-.7Z"/><path class="cls-207" d="M65.75,107.51l-1.6,1.6a3.57,3.57,0,0,1-.7.7l.7-.7a11.86,11.86,0,0,0,1.6-1.6c.6-.6,1.2-1.1,1.7-1.6a3.57,3.57,0,0,1,.7-.7l-.7.7A12.88,12.88,0,0,0,65.75,107.51Z"/><path class="cls-208" d="M101.91,21.49l1.6-1.6.7-.7-.7.7c-.4.4-1.1,1-1.6,1.6s-1.2,1.1-1.7,1.6a3.57,3.57,0,0,1-.7.7l.7-.7C100.71,22.69,101.31,22.09,101.91,21.49Z"/><path class="cls-209" d="M65.75,21.49l-1.6-1.6a3.57,3.57,0,0,1-.7-.7s.2.2.6.7,1.1,1,1.7,1.6,1.1,1.2,1.6,1.7a3.57,3.57,0,0,1,.7.7l-.7-.7A12.48,12.48,0,0,0,65.75,21.49Z"/></g></g><g class="cls-205"><g class="cls-28"><path class="cls-210" d="M96.92,102.11H70.74V26.89H96.92ZM67.05,22.69v83.52h33.66V22.69Z"/><path class="cls-211" d="M70.64,102.11V26.89H96.92v75.22Zm-3.59,4.1V22.69h33.66v83.52Z"/><path class="cls-212" d="M70.64,102.21V26.89H96.92v75.32Zm-3.59,4V22.69h33.56v83.52Z"/><path class="cls-213" d="M70.64,102.21V26.89H96.92v75.32Zm-3.59,4V22.79h33.56v83.42Z"/><path class="cls-214" d="M70.64,102.21V26.89H97v75.32Zm-3.59,4V22.79h33.56v83.42Z"/><path class="cls-215" d="M70.64,102.21V26.79H97v75.42Zm-3.59,4V22.79h33.46v83.42Z"/><path class="cls-216" d="M70.54,102.21V26.79H97v75.42Zm-3.49,4V22.79h33.46v83.42Z"/><path class="cls-217" d="M70.54,102.31V26.79H97v75.52Zm-3.49,3.9V22.89h33.36v83.42l-33.36-.1Z"/><path class="cls-218" d="M70.54,102.31V26.79H97v75.52Zm-3.49,3.9V22.89h33.36v83.32Z"/><path class="cls-219" d="M70.54,102.31V26.79H97v75.52Zm-3.49,3.9V22.89h33.36v83.32Z"/><path class="cls-220" d="M70.54,102.31V26.69H97v75.62Zm-3.39,3.9V22.89h33.36v83.22l-33.36.1Z"/><path class="cls-221" d="M70.54,102.31V26.69H97v75.62Zm-3.39,3.8V22.89h33.36v83.22Z"/><path class="cls-222" d="M70.54,102.31V26.69H97.12v75.62Zm-3.39,3.8V23h33.26v83.22l-33.26-.1Z"/><path class="cls-223" d="M70.54,102.31V26.69H97.12v75.62Zm-3.39,3.8V23h33.26v83.12Z"/><path class="cls-224" d="M70.54,102.31V26.69H97.22v75.62Zm-3.39,3.8V23h33.26v83.12Z"/><path class="cls-225" d="M70.54,102.31V26.59H97.22v75.72Zm-3.29,3.8V23h33.16v83.12Z"/><path class="cls-226" d="M70.54,102.31V26.59H97.22v75.72ZM67.25,106V23h33.16v83Z"/><path class="cls-227" d="M70.44,102.41V26.59H97.22v75.82ZM67.25,106V23h33.06v83Z"/><path class="cls-228" d="M70.44,102.41V26.59H97.22v75.82ZM67.25,106V23.09h33.06V106Z"/><path class="cls-229" d="M70.44,102.41V26.59H97.32v75.82ZM67.25,106V23.09h33.06V106Z"/><path class="cls-230" d="M70.44,102.41V26.49H97.32v75.92ZM67.35,106V23.09h33V106Z"/><path class="cls-231" d="M70.44,102.41V26.49H97.32v75.92Zm-3.09,3.5V23h33v82.92Z"/><path class="cls-232" d="M70.34,102.51v-76h27v76Zm-3,3.4V23h33v82.92Z"/><path class="cls-233" d="M70.34,102.51v-76h27v76Zm-3,3.4V23.09h33v82.82Z"/><path class="cls-234" d="M70.34,102.51v-76h27v76Zm-3,3.4V23.09h33v82.82Z"/><path class="cls-235" d="M70.34,102.51v-76h27v76Zm-2.89,3.4V23.09h32.86v82.82Z"/><path class="cls-236" d="M70.34,102.51v-76h27v76Zm-2.89,3.3V23.09h32.86v82.72Z"/><path class="cls-237" d="M70.24,102.61V26.49H97.32v76.12Zm-2.79,3.2V23.09h32.76v82.72Z"/><path class="cls-238" d="M70.24,102.61V26.49H97.32v76.12Zm-2.79,3.2V23.19h32.76v82.62Z"/><path class="cls-239" d="M70.24,102.61V26.49H97.42v76.12Zm-2.79,3.2V23.19h32.76v82.62Z"/><path class="cls-240" d="M70.24,102.61V26.39H97.42v76.22Zm-2.79,3.2V23.19h32.66v82.62Z"/><path class="cls-241" d="M70.24,102.61V26.39H97.42v76.22Zm-2.79,3.2V23.19h32.66v82.52l-32.66.1Z"/><path class="cls-242" d="M70.14,102.71V26.39H97.42v76.32Zm-2.69,3.1V23.19H100v82.52l-32.56.1Z"/><path class="cls-243" d="M70.14,102.71V26.39H97.42v76.32Zm-2.69,3.1V23.29H100v82.52Z"/><path class="cls-244" d="M70.14,102.71V26.39H97.52v76.32Zm-2.69,3.1V23.29H100v82.52Z"/><path class="cls-245" d="M70.14,102.71V26.29H97.52v76.42Zm-2.59,3.1V23.29h32.56v82.52Z"/><path class="cls-246" d="M70.14,102.71V26.29H97.52v76.42Zm-2.59,3V23.29h32.56v82.42Z"/><path class="cls-247" d="M70,102.81V26.29H97.42v76.52Zm-2.49,2.9V23.29H100v82.42Z"/><path class="cls-248" d="M70,102.81V26.29H97.42v76.52Zm-2.49,2.9V23.39H100v82.32Z"/><path class="cls-249" d="M70,102.81V26.29H97.52v76.52Zm-2.49,2.9V23.39H100v82.32Z"/><path class="cls-250" d="M70,102.81V26.19H97.52v76.52l-27.48.1Zm-2.39,2.9V23.39H100v82.32Z"/><path class="cls-251" d="M70,102.81V26.19H97.52v76.52l-27.48.1Zm-2.39,2.8V23.39H100v82.22Z"/><path class="cls-252" d="M70,102.81V26.19H97.62v76.62Zm-2.39,2.8V23.39H99.91v82.22Z"/><path class="cls-253" d="M70,102.81V26.19H97.62v76.62Zm-2.39,2.8V23.49H99.91v82.12Z"/><path class="cls-254" d="M70,102.81V26.19H97.72v76.62Zm-2.39,2.8V23.49H99.91v82.12Z"/><path class="cls-255" d="M70,102.81V26.09H97.72v76.72Zm-2.29,2.8V23.49H99.91v82.12Z"/><path class="cls-256" d="M70,102.81V26.09H97.72v76.72Zm-2.29,2.7v-82H99.91v82.12l-32.16-.1Z"/><path class="cls-257" d="M69.94,102.91V26.09H97.72v76.82Zm-2.19,2.6v-82H99.81v82.12l-32.06-.1Z"/><path class="cls-258" d="M69.94,102.91V26.09H97.72v76.82Zm-2.19,2.6v-82H99.81v82Z"/><path class="cls-259" d="M69.94,102.91V26.09H97.72v76.82Zm-2.19,2.6v-82H99.81v82Z"/><path class="cls-260" d="M69.94,102.91V26H97.72v76.92Zm-2.09,2.6v-82H99.91v82Z"/><path class="cls-80" d="M69.94,102.91H97.72V26H69.94Zm-2.09,2.5V23.49H99.91v81.92Z"/></g></g><g class="cls-28"><path class="cls-81" d="M102.21,72.34a1.78,1.78,0,0,1-1-.4,1.4,1.4,0,0,1-.3-.9c-.1-2.09-.1-3.79,0-6.59a2,2,0,0,1,.3-1.1,1.23,1.23,0,0,1,1-.5,1.9,1.9,0,0,1,1.3.5c.1.2,0,5.8,0,7.59a1.61,1.61,0,0,1-.3.9A1.23,1.23,0,0,1,102.21,72.34Z"/><path class="cls-82" d="M101.21,63.45a1.23,1.23,0,0,1,1-.5,1.61,1.61,0,0,1,1.3.6c.1.2,0,5.8,0,7.49a1.61,1.61,0,0,1-.3.9,1.53,1.53,0,0,1-1,.4,1.78,1.78,0,0,1-1-.4,1.4,1.4,0,0,1-.3-.9c-.1-2.09-.1-3.79,0-6.49A5.31,5.31,0,0,1,101.21,63.45Z"/><path class="cls-87" d="M101.31,63.55a1.33,1.33,0,0,1,.9-.6c.4,0,1,.2,1.1.6s0,5.4,0,7.09a1.88,1.88,0,0,1-.2.8,1.19,1.19,0,0,1-.9.5,1.05,1.05,0,0,1-.9-.5,1.2,1.2,0,0,1-.2-.8V64.55A2,2,0,0,1,101.31,63.55Z"/></g><g class="cls-89"><path class="cls-90" d="M64.11,64.45v-4.1a.43.43,0,0,1,.4-.4h1.9a.43.43,0,0,1,.39.4v4.1a.43.43,0,0,1-.39.4h-1.9A.43.43,0,0,1,64.11,64.45Z"/><path class="cls-91" d="M64.11,64.45v-4.1a.43.43,0,0,1,.4-.4h1.9a.43.43,0,0,1,.39.4v4.1a.43.43,0,0,1-.39.4h-1.9A.43.43,0,0,1,64.11,64.45Z"/><path class="cls-92" d="M64.11,64.45v-4.1a.43.43,0,0,1,.4-.4h1.9a.43.43,0,0,1,.39.4v4.1a.43.43,0,0,1-.39.4h-1.9A.43.43,0,0,1,64.11,64.45Z"/><path class="cls-93" d="M64.11,64.45v-4.1a.43.43,0,0,1,.4-.4h1.9a.43.43,0,0,1,.39.4v4.1a.43.43,0,0,1-.39.4h-1.9A.43.43,0,0,1,64.11,64.45Z"/><path class="cls-94" d="M64.11,64.45v-4.1a.43.43,0,0,1,.4-.4h1.9a.43.43,0,0,1,.39.4v4.1a.43.43,0,0,1-.39.4h-1.9A.43.43,0,0,1,64.11,64.45Z"/><path class="cls-95" d="M64.11,64.45v-4.1a.43.43,0,0,1,.4-.4h1.9a.43.43,0,0,1,.39.4v4.1a.43.43,0,0,1-.39.4h-1.9A.43.43,0,0,1,64.11,64.45Z"/><path class="cls-96" d="M64.11,64.45v-4.1a.43.43,0,0,1,.4-.4h1.9a.43.43,0,0,1,.39.4v4.1a.43.43,0,0,1-.39.4h-1.9A.43.43,0,0,1,64.11,64.45Z"/><path class="cls-97" d="M64.11,64.45v-4.1a.43.43,0,0,1,.4-.4h1.9a.43.43,0,0,1,.39.4v4.1a.43.43,0,0,1-.39.4h-1.9A.43.43,0,0,1,64.11,64.45Z"/><path class="cls-98" d="M64.11,64.45v-4.1a.43.43,0,0,1,.4-.4h1.9a.43.43,0,0,1,.39.4v4.1a.43.43,0,0,1-.39.4h-1.9C64.31,64.85,64.11,64.55,64.11,64.45Z"/><path class="cls-99" d="M64.11,64.35v-4a.43.43,0,0,1,.4-.4h1.9a.43.43,0,0,1,.39.4v4a.43.43,0,0,1-.39.4h-1.9C64.31,64.85,64.11,64.55,64.11,64.35Z"/><path class="cls-100" d="M64.11,64.35v-4a.43.43,0,0,1,.4-.4h1.9a.43.43,0,0,1,.39.4v4a.43.43,0,0,1-.39.4h-1.9C64.31,64.85,64.11,64.55,64.11,64.35Z"/><path class="cls-101" d="M64.11,64.35v-4a.43.43,0,0,1,.4-.4h1.9a.43.43,0,0,1,.39.4v4a.43.43,0,0,1-.39.4h-1.9C64.31,64.85,64.11,64.55,64.11,64.35Z"/><path class="cls-102" d="M64.11,64.35v-4a.43.43,0,0,1,.4-.4h1.8a.43.43,0,0,1,.39.4v4a.43.43,0,0,1-.39.4h-1.8C64.31,64.85,64.11,64.55,64.11,64.35Z"/><path class="cls-103" d="M64.11,64.35v-4a.43.43,0,0,1,.4-.4h1.8a.43.43,0,0,1,.39.4v4a.43.43,0,0,1-.39.4h-1.8A.43.43,0,0,1,64.11,64.35Z"/><path class="cls-104" d="M64.11,64.35v-4a.43.43,0,0,1,.4-.4h1.8a.43.43,0,0,1,.39.4v4a.43.43,0,0,1-.39.4h-1.8A.43.43,0,0,1,64.11,64.35Z"/><path class="cls-105" d="M64.11,64.35v-4a.43.43,0,0,1,.4-.4h1.8a.43.43,0,0,1,.39.4v4a.43.43,0,0,1-.39.4h-1.8A.43.43,0,0,1,64.11,64.35Z"/><path class="cls-106" d="M64.11,64.35v-4a.43.43,0,0,1,.4-.4h1.8a.43.43,0,0,1,.39.4v4a.43.43,0,0,1-.39.4h-1.8A.43.43,0,0,1,64.11,64.35Z"/><path class="cls-107" d="M64.11,64.35v-3.9a.43.43,0,0,1,.4-.4h1.8a.43.43,0,0,1,.39.4v3.9a.43.43,0,0,1-.39.4h-1.8A.43.43,0,0,1,64.11,64.35Z"/><path class="cls-108" d="M64.11,64.35v-3.9a.43.43,0,0,1,.4-.4h1.8a.43.43,0,0,1,.39.4v3.9a.43.43,0,0,1-.39.4h-1.8A.43.43,0,0,1,64.11,64.35Z"/><path class="cls-109" d="M64.21,64.35v-3.9a.43.43,0,0,1,.4-.4h1.8a.43.43,0,0,1,.39.4v3.9a.43.43,0,0,1-.39.4h-1.8A.37.37,0,0,1,64.21,64.35Z"/><path class="cls-110" d="M64.21,64.35v-3.9a.43.43,0,0,1,.4-.4h1.8a.43.43,0,0,1,.39.4v3.9a.43.43,0,0,1-.39.4h-1.8A.42.42,0,0,1,64.21,64.35Z"/><path class="cls-111" d="M64.21,64.25v-3.8a.43.43,0,0,1,.4-.4h1.8a.43.43,0,0,1,.39.4v3.9a.43.43,0,0,1-.39.4h-1.8C64.31,64.75,64.21,64.45,64.21,64.25Z"/><path class="cls-112" d="M64.21,64.25v-3.8a.43.43,0,0,1,.4-.4h1.8a.43.43,0,0,1,.39.4v3.9a.43.43,0,0,1-.39.4h-1.8C64.31,64.75,64.21,64.45,64.21,64.25Z"/><path class="cls-113" d="M64.21,64.25v-3.8a.43.43,0,0,1,.4-.4h1.8a.43.43,0,0,1,.39.4v3.9a.43.43,0,0,1-.39.4h-1.8C64.31,64.75,64.21,64.45,64.21,64.25Z"/><path class="cls-114" d="M64.21,64.25v-3.8a.43.43,0,0,1,.4-.4h1.8a.43.43,0,0,1,.39.4v3.9a.43.43,0,0,1-.39.4h-1.8A.51.51,0,0,1,64.21,64.25Z"/><path class="cls-115" d="M64.21,64.25v-3.8a.43.43,0,0,1,.4-.4h1.8a.43.43,0,0,1,.39.4v3.8a.43.43,0,0,1-.39.4h-1.8A.37.37,0,0,1,64.21,64.25Z"/><path class="cls-116" d="M64.21,64.25v-3.8a.43.43,0,0,1,.4-.4h1.8a.43.43,0,0,1,.39.4v3.8a.43.43,0,0,1-.39.4h-1.8A.37.37,0,0,1,64.21,64.25Z"/><path class="cls-117" d="M64.21,64.25v-3.8a.43.43,0,0,1,.4-.4h1.8a.43.43,0,0,1,.39.4v3.8a.43.43,0,0,1-.39.4h-1.8A.37.37,0,0,1,64.21,64.25Z"/><path class="cls-118" d="M64.21,64.25v-3.8a.43.43,0,0,1,.4-.4h1.8a.43.43,0,0,1,.39.4v3.8a.43.43,0,0,1-.39.4h-1.8A.37.37,0,0,1,64.21,64.25Z"/><path class="cls-119" d="M64.21,64.25v-3.8a.43.43,0,0,1,.4-.4h1.8a.43.43,0,0,1,.39.4v3.8a.43.43,0,0,1-.39.4h-1.8A.37.37,0,0,1,64.21,64.25Z"/><path class="cls-120" d="M64.21,64.25v-3.8a.43.43,0,0,1,.4-.4h1.8a.43.43,0,0,1,.39.4v3.8a.43.43,0,0,1-.39.4h-1.8A.37.37,0,0,1,64.21,64.25Z"/><path class="cls-121" d="M64.21,64.25v-3.8a.43.43,0,0,1,.4-.4h1.7a.43.43,0,0,1,.39.4v3.8a.43.43,0,0,1-.39.4h-1.7A.37.37,0,0,1,64.21,64.25Z"/><path class="cls-122" d="M64.21,64.25v-3.8a.43.43,0,0,1,.4-.4h1.7a.43.43,0,0,1,.39.4v3.8a.43.43,0,0,1-.39.4h-1.7A.37.37,0,0,1,64.21,64.25Z"/><path class="cls-123" d="M64.21,64.25v-3.8a.43.43,0,0,1,.4-.4h1.7a.43.43,0,0,1,.39.4v3.7a.43.43,0,0,1-.39.4h-1.7C64.31,64.65,64.21,64.45,64.21,64.25Z"/><path class="cls-124" d="M64.21,64.15v-3.7a.43.43,0,0,1,.4-.4h1.7a.43.43,0,0,1,.39.4v3.7a.43.43,0,0,1-.39.4h-1.7C64.31,64.65,64.21,64.45,64.21,64.15Z"/><path class="cls-125" d="M64.21,64.15v-3.7a.43.43,0,0,1,.4-.4h1.7a.43.43,0,0,1,.39.4v3.7a.43.43,0,0,1-.39.4h-1.7C64.31,64.55,64.21,64.45,64.21,64.15Z"/><path class="cls-126" d="M64.21,64.15v-3.7a.43.43,0,0,1,.4-.4h1.7a.43.43,0,0,1,.39.4v3.7a.43.43,0,0,1-.39.4h-1.7C64.31,64.55,64.21,64.45,64.21,64.15Z"/><path class="cls-127" d="M66.31,64.55h-1.7a.43.43,0,0,1-.4-.4v-3.7a.43.43,0,0,1,.4-.4h1.7a.43.43,0,0,1,.39.4v3.7A.36.36,0,0,1,66.31,64.55Z"/></g><path class="cls-261" d="M66.41,64.45h-1.9a.43.43,0,0,1-.4-.4v-3.8a.43.43,0,0,1,.4-.4h1.9a.43.43,0,0,1,.39.4V64A.4.4,0,0,1,66.41,64.45Z"/><path class="cls-262" d="M64.71,64.25a17,17,0,0,0-.1-2.3c0-.2.4-.5.9-.5s1,.2.9.5a17,17,0,0,0-.1,2.3.62.62,0,0,0,.29-.6v-3.2a.57.57,0,0,0-.59-.6h-1.2a.58.58,0,0,0-.6.6v3.2C64.31,64,64.41,64.15,64.71,64.25Z"/><g class="cls-263"><path class="cls-81" d="M65.51,69.84a1.41,1.41,0,0,1-1-.49,1.09,1.09,0,0,1-.2-1,35.77,35.77,0,0,0,.2-5.8,1,1,0,0,1,1.1-1.1,1.81,1.81,0,0,1,.79.3,1.14,1.14,0,0,1,.3.8,22.08,22.08,0,0,0,.2,5.8c.1.3-.1.7-.2,1A2.38,2.38,0,0,1,65.51,69.84Z"/><path class="cls-82" d="M64.71,61.85a1.14,1.14,0,0,1,.8-.3,1.91,1.91,0,0,1,.8.3.8.8,0,0,1,.19.8,23,23,0,0,0,.2,5.8c.1.3-.1.7-.2,1a1.22,1.22,0,0,1-1,.49,1.41,1.41,0,0,1-1-.49,1.09,1.09,0,0,1-.2-1,35.77,35.77,0,0,0,.2-5.8A.57.57,0,0,1,64.71,61.85Z"/><path class="cls-83" d="M64.71,61.85a1,1,0,0,1,1.6,0,.8.8,0,0,1,.19.8,23.15,23.15,0,0,0,.2,5.8c.1.3-.1.7-.2,1a1.22,1.22,0,0,1-1,.49,1.25,1.25,0,0,1-1-.49,1.09,1.09,0,0,1-.2-1,35.77,35.77,0,0,0,.2-5.8A.57.57,0,0,1,64.71,61.85Z"/><path class="cls-131" d="M64.71,61.85a1,1,0,0,1,1.6,0,.8.8,0,0,1,.19.8,23.15,23.15,0,0,0,.2,5.8c.1.3-.1.7-.2,1a1.22,1.22,0,0,1-1,.49,1.25,1.25,0,0,1-1-.49,1.09,1.09,0,0,1-.2-1,35.77,35.77,0,0,0,.2-5.8C64.31,62.25,64.51,62.05,64.71,61.85Z"/><path class="cls-132" d="M64.71,61.85a1,1,0,0,1,1.6,0,1.12,1.12,0,0,1,.19.8,23.15,23.15,0,0,0,.2,5.8c.1.3-.1.6-.2,1a1.22,1.22,0,0,1-1,.49,1.25,1.25,0,0,1-1-.49,1.09,1.09,0,0,1-.2-1,35.77,35.77,0,0,0,.2-5.8C64.31,62.25,64.51,62.05,64.71,61.85Z"/><path class="cls-84" d="M64.71,61.85a1,1,0,0,1,1.6,0,1.12,1.12,0,0,1,.19.8,22.18,22.18,0,0,0,.2,5.7c.1.3-.1.6-.2,1a1.22,1.22,0,0,1-1,.49,1.25,1.25,0,0,1-1-.49,1.09,1.09,0,0,1-.2-1,34.52,34.52,0,0,0,.2-5.7A.72.72,0,0,1,64.71,61.85Z"/><path class="cls-85" d="M64.71,61.85a1,1,0,0,1,1.6,0,1.12,1.12,0,0,1,.19.8,22.18,22.18,0,0,0,.2,5.7c.1.3-.1.6-.2,1a1.31,1.31,0,0,1-1,.59,1.11,1.11,0,0,1-1-.59,1.09,1.09,0,0,1-.2-1,34.52,34.52,0,0,0,.2-5.7A.78.78,0,0,1,64.71,61.85Z"/><path class="cls-133" d="M64.71,61.85a1,1,0,0,1,1.6,0,1.12,1.12,0,0,1,.19.8,22.18,22.18,0,0,0,.2,5.7,1.34,1.34,0,0,1-1.19,1.59,1.11,1.11,0,0,1-1-.59,1.5,1.5,0,0,1-.2-1,34.52,34.52,0,0,0,.2-5.7A.78.78,0,0,1,64.71,61.85Z"/><path class="cls-86" d="M64.71,61.85a1,1,0,0,1,1.6,0,1.12,1.12,0,0,1,.19.8,21.23,21.23,0,0,0,.2,5.6,1.3,1.3,0,0,1-.2,1,1.32,1.32,0,0,1-1.09.59,1.4,1.4,0,0,1-1.1-.59,1.5,1.5,0,0,1-.2-1,33.72,33.72,0,0,0,.2-5.6A3,3,0,0,1,64.71,61.85Z"/><path class="cls-134" d="M64.71,61.85a1,1,0,0,1,1.6,0,1.12,1.12,0,0,1,.19.8,21.4,21.4,0,0,0,.2,5.6,1.3,1.3,0,0,1-.2,1,1.32,1.32,0,0,1-1.09.59,1.4,1.4,0,0,1-1.1-.59,1.5,1.5,0,0,1-.2-1,33.29,33.29,0,0,0,.2-5.6A3,3,0,0,1,64.71,61.85Z"/><path class="cls-87" d="M64.71,61.85c.2-.2.5-.5.8-.5a1,1,0,0,1,.8.5,1.12,1.12,0,0,1,.19.8,21.4,21.4,0,0,0,.2,5.6,1.3,1.3,0,0,1-.2,1,1.32,1.32,0,0,1-1.09.59,1.4,1.4,0,0,1-1.1-.59,1.5,1.5,0,0,1-.2-1,33.29,33.29,0,0,0,.2-5.6A3,3,0,0,1,64.71,61.85Z"/><path class="cls-88" d="M64.71,61.85c.2-.2.5-.5.8-.5a1,1,0,0,1,.8.5,1.12,1.12,0,0,1,.19.8,20.47,20.47,0,0,0,.2,5.5,1.3,1.3,0,0,1-.2,1,1.32,1.32,0,0,1-1.09.59,1.25,1.25,0,0,1-1.1-.59,1.5,1.5,0,0,1-.2-1,32.5,32.5,0,0,0,.2-5.5A3,3,0,0,1,64.71,61.85Z"/><path class="cls-135" d="M64.71,61.85c.2-.2.5-.5.8-.5a1,1,0,0,1,.8.5,1.12,1.12,0,0,1,.19.7,20.47,20.47,0,0,0,.2,5.5,1.3,1.3,0,0,1-.2,1,1.32,1.32,0,0,1-1.09.59,1.25,1.25,0,0,1-1.1-.59,1.34,1.34,0,0,1-.2-.9,32.5,32.5,0,0,0,.2-5.5A3,3,0,0,1,64.71,61.85Z"/><path class="cls-136" d="M64.71,62c.2-.2.5-.5.8-.5a1,1,0,0,1,.8.5,1.12,1.12,0,0,1,.19.7,25.88,25.88,0,0,0,.2,5.5,1,1,0,0,1-.2.9,1.32,1.32,0,0,1-1.09.59,1.25,1.25,0,0,1-1.1-.59,1.34,1.34,0,0,1-.2-.9,32.5,32.5,0,0,0,.2-5.5A2.51,2.51,0,0,1,64.71,62Z"/><path class="cls-137" d="M64.71,62c.2-.2.5-.5.8-.5a1,1,0,0,1,.8.5,1.12,1.12,0,0,1,.19.7,24.67,24.67,0,0,0,.2,5.4,1,1,0,0,1-.2.9,1.32,1.32,0,0,1-1.09.6,1.52,1.52,0,0,1-1.1-.6,1.34,1.34,0,0,1-.2-.9,31.72,31.72,0,0,0,.2-5.4A5.74,5.74,0,0,1,64.71,62Z"/><path class="cls-138" d="M64.71,62a.89.89,0,0,1,1.6,0,1.12,1.12,0,0,1,.19.7,24.94,24.94,0,0,0,.2,5.4,1,1,0,0,1-.2.9,1.12,1.12,0,0,1-1.09.6,1.52,1.52,0,0,1-1.1-.6,1.34,1.34,0,0,1-.2-.9,31.72,31.72,0,0,0,.2-5.4A5.74,5.74,0,0,1,64.71,62Z"/><path class="cls-139" d="M64.71,62a.89.89,0,0,1,1.6,0,2,2,0,0,1,.19.7,24.94,24.94,0,0,0,.2,5.4,1,1,0,0,1-.2.9,1.12,1.12,0,0,1-1.09.6,1.52,1.52,0,0,1-1.1-.6,1.34,1.34,0,0,1-.2-.9,31.32,31.32,0,0,0,.2-5.4A5.74,5.74,0,0,1,64.71,62Z"/><path class="cls-140" d="M64.71,62c.2-.3.5-.6.8-.6a.94.94,0,0,1,.8.6,2,2,0,0,1,.19.7,25.2,25.2,0,0,0,.2,5.4,1,1,0,0,1-.2.9,1.12,1.12,0,0,1-1.09.6,1.36,1.36,0,0,1-1.1-.6,2.39,2.39,0,0,1-.2-.9,31.32,31.32,0,0,0,.2-5.4A5.74,5.74,0,0,1,64.71,62Z"/><path class="cls-141" d="M64.71,62c.2-.3.4-.6.8-.6s.6.2.8.6a2,2,0,0,1,.19.7,25.2,25.2,0,0,0,.2,5.4,1,1,0,0,1-.2.9,1.19,1.19,0,0,1-1.09.69,1.22,1.22,0,0,1-1.1-.69,2.39,2.39,0,0,1-.2-.9,31.32,31.32,0,0,0,.2-5.4A5.74,5.74,0,0,1,64.71,62Z"/><path class="cls-142" d="M64.71,62.05c.2-.3.4-.6.8-.6s.6.2.8.6a2,2,0,0,1,.19.7,25.2,25.2,0,0,0,.2,5.4,1,1,0,0,1-.2.9,1.19,1.19,0,0,1-1.09.69,1.22,1.22,0,0,1-1.1-.69,2.39,2.39,0,0,1-.2-.9,31.32,31.32,0,0,0,.2-5.4A2.51,2.51,0,0,0,64.71,62.05Z"/><path class="cls-143" d="M64.71,62.05c.2-.3.4-.6.8-.6s.6.2.8.6a2,2,0,0,1,.19.7,24.27,24.27,0,0,0,.2,5.3,1,1,0,0,1-.2.9,1.19,1.19,0,0,1-1.09.69,1.22,1.22,0,0,1-1.1-.69,2.39,2.39,0,0,1-.2-.9,30.55,30.55,0,0,0,.2-5.3A2.51,2.51,0,0,0,64.71,62.05Z"/><path class="cls-144" d="M64.71,62.05c.2-.3.4-.6.8-.6s.6.2.8.6a2,2,0,0,1,.19.7,24.27,24.27,0,0,0,.2,5.3,1.41,1.41,0,0,1-.1.9,1.1,1.1,0,0,1-1.09.69,1.22,1.22,0,0,1-1.1-.69,1.34,1.34,0,0,1-.1-.9,44.37,44.37,0,0,0,.2-5.3A1.85,1.85,0,0,1,64.71,62.05Z"/><path class="cls-145" d="M64.71,62.05c.2-.3.4-.6.8-.6s.6.2.8.6a2,2,0,0,1,.19.7,24.27,24.27,0,0,0,.2,5.3,1.41,1.41,0,0,1-.1.9,1.1,1.1,0,0,1-1.09.69,1.22,1.22,0,0,1-1.1-.69,1.34,1.34,0,0,1-.1-.9,44.37,44.37,0,0,0,.2-5.3A1.85,1.85,0,0,1,64.71,62.05Z"/><path class="cls-146" d="M64.71,62.05c.2-.3.4-.6.8-.6s.6.2.8.6a2,2,0,0,1,.19.7,23.36,23.36,0,0,0,.2,5.2,1.41,1.41,0,0,1-.1.9,1.1,1.1,0,0,1-1.09.7,1.23,1.23,0,0,1-1.1-.7,1.34,1.34,0,0,1-.1-.9,43.5,43.5,0,0,0,.2-5.2A1.85,1.85,0,0,1,64.71,62.05Z"/><path class="cls-147" d="M64.71,62.15c.2-.3.4-.6.8-.6a.76.76,0,0,1,.8.6,2,2,0,0,1,.19.7,23.36,23.36,0,0,0,.2,5.2,1.41,1.41,0,0,1-.1.9,1.17,1.17,0,0,1-1.09.79,1.16,1.16,0,0,1-1.1-.79,1.34,1.34,0,0,1-.1-.9,43.5,43.5,0,0,0,.2-5.2A1.17,1.17,0,0,1,64.71,62.15Z"/><path class="cls-148" d="M64.71,62.15a.87.87,0,0,1,.8-.6.76.76,0,0,1,.8.6,2,2,0,0,1,.19.7,23.36,23.36,0,0,0,.2,5.2,1.41,1.41,0,0,1-.1.9,1.09,1.09,0,0,1-1.09.79,1.16,1.16,0,0,1-1.1-.79,1.34,1.34,0,0,1-.1-.9,43.5,43.5,0,0,0,.2-5.2A1.17,1.17,0,0,1,64.71,62.15Z"/><path class="cls-149" d="M64.71,62.15a.87.87,0,0,1,.8-.6.76.76,0,0,1,.8.6,2,2,0,0,1,.19.7,22.22,22.22,0,0,0,.2,5.1,1.41,1.41,0,0,1-.1.9,1.09,1.09,0,0,1-1.09.79,1.32,1.32,0,0,1-1.1-.79,1.34,1.34,0,0,1-.1-.9,41.82,41.82,0,0,0,.2-5.1A1.85,1.85,0,0,1,64.71,62.15Z"/><path class="cls-150" d="M64.71,62.15a.87.87,0,0,1,.8-.6.76.76,0,0,1,.8.6.92.92,0,0,1,.09.7,22.46,22.46,0,0,0,.2,5.1,1.41,1.41,0,0,1-.1.9,1,1,0,0,1-1.09.79,1.2,1.2,0,0,1-1.1-.79,2.48,2.48,0,0,1-.1-.9,41.82,41.82,0,0,0,.2-5.1C64.51,62.65,64.61,62.35,64.71,62.15Z"/><path class="cls-151" d="M64.71,62.15a.83.83,0,0,1,1.6,0,.92.92,0,0,1,.09.7,22.46,22.46,0,0,0,.2,5.1,1.41,1.41,0,0,1-.1.9,1,1,0,0,1-1.09.79,1.2,1.2,0,0,1-1.1-.79,2.48,2.48,0,0,1-.1-.9,41.82,41.82,0,0,0,.2-5.1C64.51,62.65,64.61,62.35,64.71,62.15Z"/><path class="cls-152" d="M64.71,62.15a.83.83,0,0,1,1.6,0,1.88,1.88,0,0,1,.09.7,21.34,21.34,0,0,0,.2,5,1.41,1.41,0,0,1-.1.9,1,1,0,0,1-1.09.8,1.11,1.11,0,0,1-1.1-.8,2.48,2.48,0,0,1-.1-.9,41,41,0,0,0,.2-5C64.51,62.65,64.61,62.35,64.71,62.15Z"/><path class="cls-153" d="M64.71,62.25a.76.76,0,0,1,.8-.6.87.87,0,0,1,.8.6,1.88,1.88,0,0,1,.09.7,21.59,21.59,0,0,0,.2,5,1.41,1.41,0,0,1-.1.9,1.06,1.06,0,0,1-1.09.89,1.08,1.08,0,0,1-1.1-.89,2.48,2.48,0,0,1-.1-.9,41,41,0,0,0,.2-5A2.39,2.39,0,0,1,64.71,62.25Z"/><path class="cls-154" d="M64.71,62.25a.76.76,0,0,1,.8-.6.87.87,0,0,1,.8.6,1.88,1.88,0,0,1,.09.7,21.82,21.82,0,0,0,.2,5,1.41,1.41,0,0,1-.1.9,1.06,1.06,0,0,1-1.09.89,1.08,1.08,0,0,1-1.1-.89,2.48,2.48,0,0,1-.1-.9,40.17,40.17,0,0,0,.2-5A2.39,2.39,0,0,1,64.71,62.25Z"/><path class="cls-155" d="M64.71,62.25a.76.76,0,0,1,.8-.6.87.87,0,0,1,.8.6,1.88,1.88,0,0,1,.09.7,21.82,21.82,0,0,0,.2,5,2.72,2.72,0,0,1,0,.9,1.12,1.12,0,0,1-2.19,0,2.7,2.7,0,0,1,0-.9,40.17,40.17,0,0,0,.2-5A.82.82,0,0,1,64.71,62.25Z"/><path class="cls-156" d="M64.71,62.25a.81.81,0,0,1,1.6,0,1.88,1.88,0,0,1,.09.7,21.82,21.82,0,0,0,.2,5v.9a1.12,1.12,0,0,1-2.19,0,2.7,2.7,0,0,1,0-.9,40.17,40.17,0,0,0,.2-5A1.48,1.48,0,0,1,64.71,62.25Z"/><path class="cls-157" d="M64.71,62.25a.81.81,0,0,1,1.6,0,1.88,1.88,0,0,1,.09.7,28.86,28.86,0,0,0,.2,5v.9a1.12,1.12,0,0,1-2.19,0c0-.2-.1-.6,0-.8a40.17,40.17,0,0,0,.2-5A1.72,1.72,0,0,1,64.71,62.25Z"/><path class="cls-158" d="M64.71,62.25a.81.81,0,0,1,1.6,0c0,.2.09.5.09.7a27.33,27.33,0,0,0,.2,4.9v.8a1.12,1.12,0,0,1-2.19,0c0-.2-.1-.6,0-.8a39.34,39.34,0,0,0,.2-4.9A1.48,1.48,0,0,1,64.71,62.25Z"/><path class="cls-159" d="M64.71,62.25a.81.81,0,0,1,1.6,0c0,.2.09.5.09.7a27.33,27.33,0,0,0,.2,4.9v.8a1.1,1.1,0,0,1-2.19,0c0-.2-.1-.6,0-.8a38.55,38.55,0,0,0,.2-4.9A1.48,1.48,0,0,1,64.71,62.25Z"/><path class="cls-160" d="M64.71,62.25a.81.81,0,0,1,1.6,0c0,.2.09.4.09.6a27.33,27.33,0,0,0,.2,4.9v.8a1.1,1.1,0,0,1-2.19,0v-.8a38.55,38.55,0,0,0,.2-4.9A1.27,1.27,0,0,1,64.71,62.25Z"/><path class="cls-161" d="M64.71,62.25a.85.85,0,0,1,.8-.7.77.77,0,0,1,.8.7c0,.2.09.4.09.6a26.61,26.61,0,0,0,.2,4.8v.8a1.09,1.09,0,0,1-1.09,1,1.18,1.18,0,0,1-1.1-1v-.8a37.74,37.74,0,0,0,.2-4.8A1.49,1.49,0,0,1,64.71,62.25Z"/><path class="cls-162" d="M64.71,62.25a.85.85,0,0,1,.8-.7.77.77,0,0,1,.8.7c0,.2.09.4,0,.6a26.6,26.6,0,0,0,.19,4.8v.8a1,1,0,0,1-1.09,1,1.1,1.1,0,0,1-1.1-1v-.8a37.74,37.74,0,0,0,.2-4.8A4.17,4.17,0,0,0,64.71,62.25Z"/><path class="cls-163" d="M64.71,62.25c.1-.4.4-.8.8-.8a.79.79,0,0,1,.8.8c0,.2.09.4,0,.6a26.6,26.6,0,0,0,.19,4.8v.8a1,1,0,0,1-1.09,1,1.1,1.1,0,0,1-1.1-1v-.8a37.74,37.74,0,0,0,.2-4.8C64.61,62.75,64.61,62.55,64.71,62.25Z"/><path class="cls-164" d="M64.71,62.25a.86.86,0,0,1,.8-.8.74.74,0,0,1,.8.8v.6a25.15,25.15,0,0,0,.19,4.7v.8a1,1,0,0,1-1.09,1,1.1,1.1,0,0,1-1.1-1v-.8a37,37,0,0,0,.2-4.7C64.61,62.75,64.61,62.55,64.71,62.25Z"/><path class="cls-165" d="M64.71,62.35a.86.86,0,0,1,.8-.8.74.74,0,0,1,.8.8V63a25.51,25.51,0,0,0,.19,4.7,2,2,0,0,0,.1.8,1,1,0,0,1-1.09,1.1,1.11,1.11,0,0,1-1.1-1.1v-.8a37,37,0,0,0,.2-4.7A1.27,1.27,0,0,1,64.71,62.35Z"/><path class="cls-166" d="M64.71,62.35a.86.86,0,0,1,.8-.8.74.74,0,0,1,.8.8V63a25.51,25.51,0,0,0,.19,4.7,2,2,0,0,0,.1.8,1,1,0,0,1-1.09,1.1,1.11,1.11,0,0,1-1.1-1.1,2.2,2.2,0,0,1,.1-.8,37,37,0,0,0,.2-4.7A.64.64,0,0,1,64.71,62.35Z"/><path class="cls-167" d="M64.71,62.35a.8.8,0,0,1,1.6,0V63a24.09,24.09,0,0,0,.19,4.6c0,.2.1.6.1.8a1,1,0,0,1-1.09,1.1,1.11,1.11,0,0,1-1.1-1.1,2.2,2.2,0,0,1,.1-.8,36.18,36.18,0,0,0,.2-4.6A.63.63,0,0,1,64.71,62.35Z"/><path class="cls-168" d="M64.71,62.35a.8.8,0,0,1,1.6,0V63a24.09,24.09,0,0,0,.19,4.6c0,.2.1.6.1.8a1,1,0,0,1-1.09,1.1,1.11,1.11,0,0,1-1.1-1.1,2.2,2.2,0,0,1,.1-.8,36.18,36.18,0,0,0,.2-4.6C64.61,62.75,64.71,62.65,64.71,62.35Z"/><path class="cls-169" d="M64.71,62.35a.8.8,0,0,1,1.6,0V63a24.09,24.09,0,0,0,.19,4.6c0,.2.1.6.1.8a1,1,0,0,1-1.09,1.1,1.11,1.11,0,0,1-1.1-1.1,2.49,2.49,0,0,1,.1-.8,35.4,35.4,0,0,0,.2-4.6C64.61,62.85,64.71,62.65,64.71,62.35Z"/><path class="cls-170" d="M64.71,62.35a.74.74,0,0,1,.8-.8.79.79,0,0,1,.8.8V63a22.71,22.71,0,0,0,.19,4.5c0,.2.1.6.1.8a1,1,0,0,1-1.09,1.1,1.11,1.11,0,0,1-1.1-1.1c0-.2.1-.5.1-.8a34.64,34.64,0,0,0,.2-4.5Z"/><path class="cls-171" d="M64.71,62.45a.81.81,0,1,1,1.6,0v.6a22.71,22.71,0,0,0,.19,4.5c0,.2.1.6.1.8a1,1,0,0,1-1.09,1.1,1.11,1.11,0,0,1-1.1-1.1c0-.2.1-.5.1-.8a33.89,33.89,0,0,0,.2-4.5Z"/><path class="cls-125" d="M64.71,62.45a.82.82,0,0,1,.8-.9.77.77,0,0,1,.8.9v.6a23.05,23.05,0,0,0,.19,4.5c0,.2.1.6.1.8a1,1,0,0,1-1.09,1.1,1.18,1.18,0,0,1-1.1-1.1c0-.2.1-.5.1-.8a33.89,33.89,0,0,0,.2-4.5Z"/><path class="cls-126" d="M64.71,62.45a.82.82,0,0,1,.8-.9.77.77,0,0,1,.8.9v.6a23.05,23.05,0,0,0,.19,4.5c0,.2.1.6.1.8a1,1,0,0,1-1.09,1.1,1.18,1.18,0,0,1-1.1-1.1c0-.2.1-.5.1-.8a33.89,33.89,0,0,0,.2-4.5Z"/><path class="cls-127" d="M65.51,61.55h0a.77.77,0,0,0-.8.9,23.18,23.18,0,0,1-.2,5.9,1,1,0,0,0,1.1,1.1,1.17,1.17,0,0,0,1.09-1.1,29.13,29.13,0,0,1-.2-5.9A1,1,0,0,0,65.51,61.55Z"/></g><circle class="cls-172" cx="65.51" cy="62.25" r="1"/><path class="cls-264" d="M65.51,61.45h0a.9.9,0,0,0-.9,1.1,34.61,34.61,0,0,1,.2,7,.57.57,0,0,0,.6.59h0a.64.64,0,0,0,.6-.59,34.61,34.61,0,0,1,.2-7C66.41,61.85,66,61.45,65.51,61.45Z"/><g class="cls-89"><path class="cls-174" d="M65.51,61.65h0a.91.91,0,0,0-.8,1,41.63,41.63,0,0,1,.2,6.8.57.57,0,0,0,.6.59h0a.64.64,0,0,0,.6-.59,32.59,32.59,0,0,1,.2-6.8A.91.91,0,0,0,65.51,61.65Z"/><path class="cls-175" d="M64.71,62.65a.85.85,0,0,1,.8-1h0a.91.91,0,0,1,.8,1,39.81,39.81,0,0,0-.2,6.7v.2a.6.6,0,0,1-1.2,0v-.2A31.55,31.55,0,0,0,64.71,62.65Z"/><path class="cls-176" d="M64.71,62.65a.85.85,0,0,1,.8-1h0a.91.91,0,0,1,.8,1,39.81,39.81,0,0,0-.2,6.7v.2a.6.6,0,0,1-1.2,0v-.2A31.55,31.55,0,0,0,64.71,62.65Z"/><path class="cls-177" d="M64.71,62.65a.84.84,0,0,1,.7-1h0a.91.91,0,0,1,.8,1,39.81,39.81,0,0,0-.2,6.7v.2a.56.56,0,0,1-.5.59c-.3,0-.6-.3-.5-.59v-.2A41.77,41.77,0,0,0,64.71,62.65Z"/><path class="cls-178" d="M64.71,62.65a.84.84,0,0,1,.7-1h0c.5,0,.8.4.7,1a39.81,39.81,0,0,0-.2,6.7v.2a.56.56,0,0,1-.5.59.46.46,0,0,1-.5-.59v-.2A31.55,31.55,0,0,0,64.71,62.65Z"/><path class="cls-179" d="M64.71,62.65a.84.84,0,0,1,.7-1h0c.5,0,.8.4.7,1a40,40,0,0,0-.2,6.7v.2a.56.56,0,0,1-.5.59.46.46,0,0,1-.5-.59v-.2A31.55,31.55,0,0,0,64.71,62.65Z"/><path class="cls-180" d="M64.71,62.65a.84.84,0,0,1,.7-1h0c.5,0,.8.4.7,1a40,40,0,0,0-.2,6.7v.2a.56.56,0,0,1-.5.59c-.3,0-.5-.2-.5-.59v-.2A31.55,31.55,0,0,0,64.71,62.65Z"/><path class="cls-181" d="M64.71,62.65a.75.75,0,0,1,.7-.9h0a.7.7,0,0,1,.7.9,40,40,0,0,0-.2,6.7v.2a.56.56,0,0,1-.5.59c-.3,0-.5-.2-.5-.59v-.2A31.55,31.55,0,0,0,64.71,62.65Z"/><path class="cls-182" d="M64.71,62.65a.75.75,0,0,1,.7-.9h0a.75.75,0,0,1,.7.9,40,40,0,0,0-.2,6.7v.2a.51.51,0,1,1-1,0v-.2A31.66,31.66,0,0,0,64.71,62.65Z"/><path class="cls-183" d="M66,69.25v.2a.51.51,0,1,1-1,0v-.2a55.27,55.27,0,0,0-.2-6.7.75.75,0,0,1,.7-.9h0a.75.75,0,0,1,.7.9"/></g><g class="cls-198"><polygon class="cls-265" points="127.49 19.2 127.49 111 128.19 111.1 137.28 22.19 127.49 19.2"/></g></svg>