<?xml version="1.0" encoding="UTF-8" standalone="no"?>
<svg
   xmlns:dc="http://purl.org/dc/elements/1.1/"
   xmlns:cc="http://creativecommons.org/ns#"
   xmlns:rdf="http://www.w3.org/1999/02/22-rdf-syntax-ns#"
   xmlns:svg="http://www.w3.org/2000/svg"
   xmlns="http://www.w3.org/2000/svg"
   xmlns:xlink="http://www.w3.org/1999/xlink"
   xmlns:sodipodi="http://sodipodi.sourceforge.net/DTD/sodipodi-0.dtd"
   xmlns:inkscape="http://www.inkscape.org/namespaces/inkscape"
   id="svg2"
   sodipodi:docname="lampe_1.svg"
   inkscape:export-filename="C:\Documents and Settings\Dan\Skrivbord\Clipart egna (InkScape)\Original\Kanske Upload\Glödlampa.png"
   viewBox="0 0 88.688399 151.88015"
   sodipodi:version="0.32"
   inkscape:export-xdpi="310"
   version="1.0"
   inkscape:output_extension="org.inkscape.output.svg.inkscape"
   inkscape:export-ydpi="310"
   inkscape:version="1.0.2 (e86c870879, 2021-01-15)"
   width="88.6884"
   height="151.88016">
  <defs
     id="defs4">
    <linearGradient
       inkscape:collect="always"
       id="linearGradient4355">
      <stop
         style="stop-color:#b9b9b9;stop-opacity:1;"
         offset="0"
         id="stop4351" />
      <stop
         style="stop-color:#b9b9b9;stop-opacity:0;"
         offset="1"
         id="stop4353" />
    </linearGradient>
    <linearGradient
       id="linearGradient4015"
       inkscape:collect="always">
      <stop
         id="stop4017"
         style="stop-color:#000000"
         offset="0" />
      <stop
         id="stop4019"
         style="stop-color:#000000;stop-opacity:0"
         offset="1" />
    </linearGradient>
    <linearGradient
       id="linearGradient3993"
       inkscape:collect="always">
      <stop
         id="stop3995"
         style="stop-color:#585858"
         offset="0" />
      <stop
         id="stop3997"
         style="stop-color:#434343"
         offset="1" />
    </linearGradient>
    <linearGradient
       id="linearGradient3951"
       inkscape:collect="always">
      <stop
         id="stop3953"
         style="stop-color:#808080"
         offset="0" />
      <stop
         id="stop3955"
         style="stop-color:#5b5b5b"
         offset="1" />
    </linearGradient>
    <linearGradient
       id="linearGradient4252"
       y2="707.60999"
       xlink:href="#linearGradient3951"
       gradientUnits="userSpaceOnUse"
       x2="371.79999"
       gradientTransform="translate(-111.02)"
       y1="707.60999"
       x1="340.54999"
       inkscape:collect="always" />
    <linearGradient
       id="linearGradient4254"
       y2="700.67999"
       xlink:href="#linearGradient4015"
       gradientUnits="userSpaceOnUse"
       x2="425.29999"
       gradientTransform="translate(-179.78)"
       y1="686.33002"
       x1="425.29999"
       inkscape:collect="always" />
    <linearGradient
       id="linearGradient4256"
       y2="127.11"
       xlink:href="#linearGradient3993"
       gradientUnits="userSpaceOnUse"
       x2="140.99001"
       gradientTransform="translate(84.033,580)"
       y1="127.11"
       x1="178.75"
       inkscape:collect="always" />
    <linearGradient
       id="linearGradient4260"
       y2="693.88"
       xlink:href="#linearGradient4015"
       gradientUnits="userSpaceOnUse"
       x2="353.85999"
       gradientTransform="translate(-111.02)"
       y1="690.17999"
       x1="353.85999"
       inkscape:collect="always" />
    <radialGradient
       inkscape:collect="always"
       xlink:href="#linearGradient4355"
       id="radialGradient4357"
       cx="244.4202"
       cy="636.39661"
       fx="244.4202"
       fy="636.39661"
       r="44.3442"
       gradientTransform="matrix(1,0,0,1.2472161,0,-157.32748)"
       gradientUnits="userSpaceOnUse" />
    <linearGradient
       inkscape:collect="always"
       xlink:href="#linearGradient3951"
       id="linearGradient4419"
       gradientUnits="userSpaceOnUse"
       gradientTransform="translate(-111.02)"
       x1="340.54999"
       y1="707.60999"
       x2="371.79999"
       y2="707.60999" />
  </defs>
  <sodipodi:namedview
     id="base"
     fit-margin-left="0"
     inkscape:zoom="2.5018418"
     borderopacity="1.0"
     inkscape:current-layer="g4131"
     inkscape:cx="24.327074"
     inkscape:cy="94.981084"
     inkscape:window-maximized="1"
     showgrid="false"
     fit-margin-right="0"
     inkscape:document-units="px"
     bordercolor="#666666"
     inkscape:window-x="0"
     guidetolerance="10"
     objecttolerance="10"
     inkscape:window-y="0"
     fit-margin-bottom="0"
     inkscape:window-width="1920"
     inkscape:pageopacity="0.0"
     inkscape:pageshadow="2"
     pagecolor="#ffffff"
     gridtolerance="10000"
     inkscape:window-height="983"
     fit-margin-top="0"
     inkscape:document-rotation="0" />
  <g
     id="layer2"
     inkscape:groupmode="layer"
     transform="translate(-208.5773,-575.5898)">
    <g
       id="g4131"
       transform="translate(8.5013,-5.5)"
       inkscape:export-xdpi="310"
       inkscape:export-ydpi="310">
      <rect
         id="rect3835"
         style="color:#000000;fill:url(#linearGradient4419)"
         rx="0"
         ry="0"
         height="31.25"
         width="33.75"
         y="687.35999"
         x="227.55" />
      <rect
         id="rect4011"
         style="color:#000000;fill:url(#linearGradient4254)"
         rx="0"
         ry="0"
         height="31.25"
         width="33.75"
         y="687.35999"
         x="227.55" />
      <path
         id="path3869"
         d="m 225.53,695.84 v 2.4375 l 17.75,-2.4375 z m 37.75,0.25 -37.75,5.1875 v 2.0625 l 37.75,-5.1875 z m 0,5.0625 -37.75,5.1875 v 2.0625 l 37.75,-5.1875 z m 0,5.0625 -37.75,5.1875 v 2.0312 l 37.75,-5.1875 z m 0,5.0312 -37.75,5.1875 v 2.0625 l 37.75,-5.1875 z"
         style="fill:url(#linearGradient4256)"
         inkscape:connector-curvature="0" />
      <path
         id="rect3837"
         d="m 225.17,688.22 v 5.25 c 0,1.385 1.115,2.5 2.5,2.5 h 33.5 c 1.385,0 2.5,-1.115 2.5,-2.5 v -5.25 z"
         sodipodi:nodetypes="csssscc"
         style="color:#000000;fill:url(#linearGradient4252)"
         inkscape:connector-curvature="0" />
      <path
         id="path4001"
         sodipodi:nodetypes="csssscc"
         style="color:#000000;fill:url(#linearGradient4260)"
         inkscape:connector-curvature="0"
         d="m 225.17,688.22 v 5.25 c 0,1.385 1.115,2.5 2.5,2.5 h 33.5 c 1.385,0 2.5,-1.115 2.5,-2.5 v -5.25 z" />
      <path
         class="WTD-ActiveFillColor"
         d="m 244.42,581.09 c -24.493,0 -44.344,19.851 -44.344,44.344 0,11.167 4.1252,21.359 10.938,29.156 3.878,4.0518 6.5995,9.9233 7.4688,16.656 l 0.0191,12.429 c 0,4.4527 3.5756,8.0284 8.0284,8.0284 h 35.78 c 4.4527,0 8.0284,-3.5756 8.0284,-8.0284 l -0.0121,-12.429 c 0.86451,-6.7196 3.6103,-12.574 7.4688,-16.625 0.003,-0.01 -0.002,-0.0215 0,-0.0312 6.8156,-7.7976 10.969,-17.986 10.969,-29.156 0,-24.493 -19.851,-44.344 -44.344,-44.344 z"
         sodipodi:nodetypes="sscccssccccss"
         style="fill-opacity:1;fill:yellow;opacity:0.683;display:inline;"
         inkscape:connector-curvature="0"
         id="path27" />
      <path
         id="rect3880"
         d="m 227.53,718.59 4.25,4.75 h 25.25 l 4.25,-4.75 z"
         sodipodi:nodetypes="ccccc"
         style="color:#000000;fill:#808080"
         inkscape:connector-curvature="0" />
      <path
         id="rect3883"
         d="m 231.77,723.34 c 0,1.0374 0.52146,2.0748 1.5644,2.8696 l 7.3055,5.568 c 2.0859,1.5898 5.4444,1.5898 7.5303,0 l 7.3055,-5.568 c 1.043,-0.79489 1.5644,-1.8323 1.5644,-2.8696 z"
         sodipodi:nodetypes="csssscc"
         style="color:#000000;fill:#343434"
         inkscape:connector-curvature="0" />
      <path
         id="path4121"
         d="m 244.42,581.09 c -24.493,0 -44.344,19.851 -44.344,44.344 0,11.167 4.1252,21.359 10.938,29.156 3.878,4.0518 6.5995,9.9233 7.4688,16.656 l 0.0191,12.429 c 0,4.4527 3.5756,8.0284 8.0284,8.0284 h 35.78 c 4.4527,0 8.0284,-3.5756 8.0284,-8.0284 l -0.0121,-12.429 c 0.86451,-6.7196 3.6103,-12.574 7.4688,-16.625 0.003,-0.01 -0.002,-0.0215 0,-0.0312 6.8156,-7.7976 10.969,-17.986 10.969,-29.156 0,-24.493 -19.851,-44.344 -44.344,-44.344 z"
         sodipodi:nodetypes="sscccssccccss"
         style="display:inline;opacity:1;fill:url(#radialGradient4357);fill-opacity:1;fill-rule:nonzero"
         inkscape:connector-curvature="0"
         inkscape:label="path4121" />
      <path
         id="path3948"
         d="m 231.38,591.37 c -13.547,6.7471 -22.938,20.62 -22.938,36.812 0,0.60674 0.12823,1.3296 0.1875,1.9688 l 11.938,-2.0312 c 1.356,-11.127 7.9158,-20.595 17.25,-25.906 l -6.4375,-10.844 z"
         style="fill:#ffffff"
         inkscape:connector-curvature="0" />
    </g>
  </g>
  <metadata
     id="metadata53">
    <rdf:RDF>
      <cc:Work>
        <dc:format>image/svg+xml</dc:format>
        <dc:type
           rdf:resource="http://purl.org/dc/dcmitype/StillImage" />
        <cc:license
           rdf:resource="http://creativecommons.org/publicdomain/zero/1.0/" />
        <dc:publisher>
          <cc:Agent
             rdf:about="http://openclipart.org/">
            <dc:title>Openclipart</dc:title>
          </cc:Agent>
        </dc:publisher>
        <dc:title />
        <dc:date>2012-01-29T20:01:03</dc:date>
        <dc:description>Light Bulbs</dc:description>
        <dc:source>https://openclipart.org/detail/167552/light-bulbs-by-printerkiller</dc:source>
        <dc:creator>
          <cc:Agent>
            <dc:title>PrinterKiller</dc:title>
          </cc:Agent>
        </dc:creator>
        <dc:subject>
          <rdf:Bag>
            <rdf:li>Light Bulbs on/off bulb</rdf:li>
          </rdf:Bag>
        </dc:subject>
      </cc:Work>
      <cc:License
         rdf:about="http://creativecommons.org/publicdomain/zero/1.0/">
        <cc:permits
           rdf:resource="http://creativecommons.org/ns#Reproduction" />
        <cc:permits
           rdf:resource="http://creativecommons.org/ns#Distribution" />
        <cc:permits
           rdf:resource="http://creativecommons.org/ns#DerivativeWorks" />
      </cc:License>
    </rdf:RDF>
  </metadata>
  <script
     id="SetMode"
     type="text/javascript">
    { console.log(&quot;Appel au svg &quot;+this.motif.libelle+&quot; avec mode=&quot;+mode+&quot; color=&quot;+color);
      /*var chg_matrice =
       { fill: [ this.currentColor, color ] };                                                       /* Matrice de changement */
      /*var chg_timing  = { duration: 500, fill: 'forwards' };                                          /* Timing de changement */
      /*this.getElementById(&quot;ampoule&quot;).animate ( chg_matrice, chg_timing );                                     /* Go Animate ! */
      /*this.currentColor = color;*/
    }
  </script>
</svg>
