<?xml version="1.0" encoding="UTF-8" standalone="no"?>
<!-- Generator: Adobe Illustrator 19.0.0, SVG Export Plug-In . SVG Version: 6.00 Build 0)  -->

<svg
   version="1.1"
   id="Layer_1"
   x="0px"
   y="0px"
   viewBox="0 0 508 508"
   style="enable-background:new 0 0 508 508;"
   xml:space="preserve"
   sodipodi:docname="pile_100.svg"
   inkscape:version="1.1 (c68e22c387, 2021-05-23)"
   xmlns:inkscape="http://www.inkscape.org/namespaces/inkscape"
   xmlns:sodipodi="http://sodipodi.sourceforge.net/DTD/sodipodi-0.dtd"
   xmlns="http://www.w3.org/2000/svg"
   xmlns:svg="http://www.w3.org/2000/svg"><defs
   id="defs55" /><sodipodi:namedview
   id="namedview53"
   pagecolor="#000000"
   bordercolor="#666666"
   borderopacity="1.0"
   inkscape:pageshadow="2"
   inkscape:pageopacity="0"
   inkscape:pagecheckerboard="true"
   showgrid="false"
   inkscape:zoom="1.0801474"
   inkscape:cx="187.47441"
   inkscape:cy="304.58806"
   inkscape:window-width="1920"
   inkscape:window-height="979"
   inkscape:window-x="0"
   inkscape:window-y="0"
   inkscape:window-maximized="1"
   inkscape:current-layer="Layer_1" />

<path
   style="fill:#add8e6;fill-opacity:1"
   d="M270,90.4h-32c-2.4,0-4.4-2-4.4-4.4V73.6c0-2.4,2-4.4,4.4-4.4h32c2.4,0,4.4,2,4.4,4.4V86  C274,88.4,272,90.4,270,90.4z"
   id="path4" />
<path
   style="fill:#3ba1c0;fill-opacity:1"
   d="M318.4,108H189.6c-6.8,0-12.4-5.6-12.4-12.4l0,0c0-6.8,5.6-12.4,12.4-12.4h128.8  c6.8,0,12.4,5.6,12.4,12.4l0,0C330.8,102.4,325.2,108,318.4,108z"
   id="path6" />
<path
   style="fill:#add8e6;fill-opacity:1"
   d="M343.2,438.8H164.8c-9.6,0-17.6-8-17.6-17.6V112.8c0-9.6,8-17.6,17.6-17.6h178.4  c9.6,0,17.6,8,17.6,17.6v308.4C360.8,431.2,352.8,438.8,343.2,438.8z"
   id="path8" />
<rect
   x="163.6"
   y="126.4"
   style="fill:#324a5e;fill-opacity:1"
   width="180.4"
   height="285.2"
   id="rect10" />
<path
   style="fill:#4cdb83;fill-opacity:1"
   d="M330,144.4v32.4c0,2-1.6,3.6-3.6,3.6H181.6c-2,0-3.6-1.6-3.6-3.6v-32.4c0-2,1.6-3.6,3.6-3.6h144.8  C328.4,140.4,330,142,330,144.4z"
   id="path12" />
<path
   style="fill:#4cdb83"
   d="M330,198.4v32.4c0,2-1.6,3.6-3.6,3.6H181.6c-2,0-3.6-1.6-3.6-3.6v-32.4c0-2,1.6-3.6,3.6-3.6h144.8  C328.4,194.8,330,196.4,330,198.4z"
   id="path14" />
<path
   style="fill:#4cdb83;fill-opacity:1"
   d="M330,252.4v32.4c0,2-1.6,3.6-3.6,3.6H181.6c-2,0-3.6-1.6-3.6-3.6v-32.4c0-2,1.6-3.6,3.6-3.6h144.8  C328.4,248.8,330,250.4,330,252.4z"
   id="path16" />
<path
   style="fill:#4cdb83"
   d="M330,306.8v32.4c0,2-1.6,3.6-3.6,3.6H181.6c-2,0-3.6-1.6-3.6-3.6v-32.4c0-2,1.6-3.6,3.6-3.6h144.8  C328.4,303.2,330,304.8,330,306.8z"
   id="path18" />
<path
   style="fill:#4cdb83"
   d="M330,360.8v32.4c0,2-1.6,3.6-3.6,3.6H181.6c-2,0-3.6-1.6-3.6-3.6v-32.4c0-2,1.6-3.6,3.6-3.6h144.8  C328.4,357.2,330,358.8,330,360.8z"
   id="path20" />
<g
   id="g22">
</g>
<g
   id="g24">
</g>
<g
   id="g26">
</g>
<g
   id="g28">
</g>
<g
   id="g30">
</g>
<g
   id="g32">
</g>
<g
   id="g34">
</g>
<g
   id="g36">
</g>
<g
   id="g38">
</g>
<g
   id="g40">
</g>
<g
   id="g42">
</g>
<g
   id="g44">
</g>
<g
   id="g46">
</g>
<g
   id="g48">
</g>
<g
   id="g50">
</g>
</svg>
