<?xml version="1.0" encoding="UTF-8" standalone="no"?>
<!-- Generator: Adobe Illustrator 19.0.0, SVG Export Plug-In . SVG Version: 6.00 Build 0)  -->

<svg
   version="1.1"
   id="Layer_1"
   x="0px"
   y="0px"
   viewBox="0 0 512 512"
   style="enable-background:new 0 0 512 512;"
   xml:space="preserve"
   sodipodi:docname="radiateur_clim.svg"
   inkscape:version="1.1 (c68e22c387, 2021-05-23)"
   xmlns:inkscape="http://www.inkscape.org/namespaces/inkscape"
   xmlns:sodipodi="http://sodipodi.sourceforge.net/DTD/sodipodi-0.dtd"
   xmlns="http://www.w3.org/2000/svg"
   xmlns:svg="http://www.w3.org/2000/svg"><defs
   id="defs2658" /><sodipodi:namedview
   id="namedview2656"
   pagecolor="#ffffff"
   bordercolor="#666666"
   borderopacity="1.0"
   inkscape:pageshadow="2"
   inkscape:pageopacity="0.0"
   inkscape:pagecheckerboard="0"
   showgrid="false"
   inkscape:zoom="1.03125"
   inkscape:cx="255.51515"
   inkscape:cy="256"
   inkscape:window-width="1920"
   inkscape:window-height="979"
   inkscape:window-x="0"
   inkscape:window-y="0"
   inkscape:window-maximized="1"
   inkscape:current-layer="g2597" />
<g
   id="g2597"
   style="display:inline">
	<rect
   x="164.571"
   y="140.01601"
   style="fill:#43e2f4"
   width="52.244999"
   height="31.347"
   id="rect2585" />
	<rect
   x="60.082001"
   y="140.01601"
   style="fill:#43e2f4"
   width="52.244999"
   height="31.347"
   id="rect2587" />
	<rect
   x="269.061"
   y="140.01601"
   style="fill:#43e2f4"
   width="52.244999"
   height="31.347"
   id="rect2589" />
	<rect
   x="164.571"
   y="340.63699"
   style="fill:#43e2f4"
   width="52.244999"
   height="31.347"
   id="rect2591" />
	<rect
   x="60.082001"
   y="340.63699"
   style="fill:#43e2f4"
   width="52.244999"
   height="31.347"
   id="rect2593" />
	<rect
   x="269.061"
   y="340.63699"
   style="fill:#43e2f4"
   width="52.244999"
   height="31.347"
   id="rect2595" />
</g>
<g
   id="g2607">
	<path
   style="fill:#4ffbff;fill-opacity:1"
   d="m 138.449,425.273 v 0 c -14.427,0 -26.122,-11.696 -26.122,-26.122 V 112.849 c 0,-14.427 11.696,-26.122 26.122,-26.122 v 0 c 14.427,0 26.122,11.696 26.122,26.122 v 286.302 c 0,14.427 -11.695,26.122 -26.122,26.122 z"
   id="path2599" />
	<path
   style="fill:#4ffbff;fill-opacity:1"
   d="m 242.939,425.273 v 0 c -14.427,0 -26.122,-11.696 -26.122,-26.122 V 112.849 c 0,-14.427 11.696,-26.122 26.122,-26.122 v 0 c 14.427,0 26.122,11.696 26.122,26.122 v 286.302 c 0,14.427 -11.695,26.122 -26.122,26.122 z"
   id="path2601" />
	<path
   style="fill:#4ffbff;fill-opacity:1"
   d="m 347.429,425.273 v 0 c -14.427,0 -26.122,-11.696 -26.122,-26.122 V 112.849 c 0,-14.427 11.696,-26.122 26.122,-26.122 v 0 c 14.427,0 26.122,11.696 26.122,26.122 v 286.302 c 0,14.427 -11.696,26.122 -26.122,26.122 z"
   id="path2603" />
	<path
   style="fill:#4ffbff;fill-opacity:1"
   d="m 33.959,425.273 v 0 c -14.427,0 -26.122,-11.696 -26.122,-26.122 V 112.849 c 0,-14.427 11.696,-26.122 26.122,-26.122 v 0 c 14.427,0 26.122,11.696 26.122,26.122 v 286.302 c 10e-4,14.427 -11.695,26.122 -26.122,26.122 z"
   id="path2605" />
</g>
<circle
   style="fill:#43e2f4;fill-opacity:1"
   cx="410.645"
   cy="243.66"
   r="78.367"
   id="circle2609" />
<g
   id="g2615">
	<path
   style="fill:#FFFFFF;"
   d="M465.502,243.658h-15.673c0-21.606-17.577-39.184-39.184-39.184   c-21.606,0-39.184,17.577-39.184,39.184h-15.673c0-30.248,24.609-54.857,54.857-54.857   C440.893,188.801,465.502,213.409,465.502,243.658z"
   id="path2611" />
	<path
   style="fill:#FFFFFF;"
   d="M504.163,308.898c0,17.313-14.034,31.347-31.347,31.347c-17.313,0-31.347-14.034-31.347-31.347   c0-17.313,31.347-52.898,31.347-52.898S504.163,291.585,504.163,308.898z"
   id="path2613" />
</g>
<path
   d="M365.714,399.151c0,10.082-8.203,18.286-18.286,18.286s-18.286-8.203-18.286-18.286V286.887h-15.673V332.8h-36.571V179.2  h36.571v21.232h15.673v-87.583c0-10.082,8.203-18.286,18.286-18.286c4.888,0,9.48,1.901,12.933,5.354  c3.452,3.451,5.353,8.044,5.353,12.932v38.745h15.673v-38.745c0-9.075-3.532-17.604-9.944-24.014  c-6.41-6.414-14.94-9.945-24.015-9.945c-18.726,0-33.959,15.234-33.959,33.959v19.331h-36.571v-19.331  c0-18.726-15.234-33.959-33.959-33.959c-18.725,0-33.959,15.234-33.959,33.959v19.331h-36.571v-19.331  c0-18.726-15.235-33.959-33.959-33.959s-33.959,15.234-33.959,33.959v19.331H80.98v15.673h23.51v15.673H80.98V179.2h23.51v153.6  H67.918V112.849c0-18.726-15.235-33.959-33.959-33.959S0,94.123,0,112.849v286.302c0,18.726,15.235,33.959,33.959,33.959  s33.959-15.234,33.959-33.959V379.82h36.571v19.331c0,18.726,15.235,33.959,33.959,33.959s33.959-15.234,33.959-33.959V379.82h23.51  v-15.673h-23.51v-15.673h23.51V332.8h-23.51V179.2h36.571v219.951c0,18.726,15.235,33.959,33.959,33.959  c18.726,0,33.959-15.234,33.959-33.959V379.82h36.571v19.331c0,18.726,15.234,33.959,33.959,33.959s33.959-15.234,33.959-33.959  v-63.425h-15.673V399.151z M52.245,399.151c0,10.082-8.203,18.286-18.286,18.286s-18.286-8.203-18.286-18.286V112.849  c0-10.082,8.203-18.286,18.286-18.286s18.286,8.203,18.286,18.286V399.151z M67.918,364.147v-15.673h36.571v15.673H67.918z   M156.735,399.151c0,10.082-8.203,18.286-18.286,18.286c-10.082,0-18.286-8.203-18.286-18.286V112.849  c0-10.082,8.203-18.286,18.286-18.286c10.082,0,18.286,8.203,18.286,18.286V399.151z M172.408,163.527v-15.673h36.571v15.673  H172.408z M261.224,399.151c0,10.082-8.204,18.286-18.286,18.286c-10.082,0-18.286-8.203-18.286-18.286V112.849  c0-10.082,8.203-18.286,18.286-18.286c10.082,0,18.286,8.203,18.286,18.286V399.151z M313.469,147.853v15.673h-36.571v-15.673  H313.469z M276.898,364.147v-15.673h36.571v15.673H276.898z"
   id="path2617" />
<path
   d="M410.645,314.19c-38.891,0-70.531-31.64-70.531-70.531s31.64-70.531,70.531-70.531c38.454,0,70.09,31.277,70.52,69.72  l15.673-0.176c-0.256-22.817-9.336-44.228-25.568-60.29c-16.243-16.075-37.774-24.928-60.626-24.928  c-47.532,0-86.204,38.672-86.204,86.204s38.672,86.204,86.204,86.204c4.188,0,8.404-0.305,12.531-0.907l-2.263-15.51  C417.533,313.941,414.077,314.19,410.645,314.19z"
   id="path2619" />
<path
   d="M478.697,250.819l-5.881-6.676l-5.881,6.676c-5.561,6.313-33.303,38.785-33.303,58.079  c0,21.606,17.577,39.184,39.184,39.184S512,330.504,512,308.898C512,289.604,484.258,257.133,478.697,250.819z M472.816,332.408  c-12.963,0-23.51-10.547-23.51-23.51c0-8.368,12.326-26.839,23.512-40.723c11.186,13.874,23.508,32.341,23.508,40.723  C496.327,321.861,485.779,332.408,472.816,332.408z"
   id="path2621" />
<path
   d="m 420.22928,261.50718 c -5.71814,-2.8923 -34.75952,-30.5846 -34.75952,-30.5846 0,0 39.51558,6.98458 45.23371,9.87688 5.71814,2.8923 8.00906,9.87282 5.11677,15.59096 -2.89185,5.71724 -9.87193,8.00951 -15.59096,5.11676 z"
   id="path2623" />
<g
   id="g2625">
</g>
<g
   id="g2627">
</g>
<g
   id="g2629">
</g>
<g
   id="g2631">
</g>
<g
   id="g2633">
</g>
<g
   id="g2635">
</g>
<g
   id="g2637">
</g>
<g
   id="g2639">
</g>
<g
   id="g2641">
</g>
<g
   id="g2643">
</g>
<g
   id="g2645">
</g>
<g
   id="g2647">
</g>
<g
   id="g2649">
</g>
<g
   id="g2651">
</g>
<g
   id="g2653">
</g>
</svg>
