<?xml version="1.0" encoding="UTF-8" standalone="no"?>
<svg
   version="1.1"
   id="Calque_3"
   x="0px"
   y="0px"
   viewBox="0 0 128 128"
   xml:space="preserve"
   sodipodi:docname="syn_maintenance.svg"
   width="128"
   height="128"
   inkscape:version="1.1 (c68e22c387, 2021-05-23)"
   inkscape:export-filename="/home/sebastien/SRC/trunk/Watchdogd/IHM/img/syn_maintenance.png"
   inkscape:export-xdpi="96"
   inkscape:export-ydpi="96"
   xmlns:inkscape="http://www.inkscape.org/namespaces/inkscape"
   xmlns:sodipodi="http://sodipodi.sourceforge.net/DTD/sodipodi-0.dtd"
   xmlns:xlink="http://www.w3.org/1999/xlink"
   xmlns="http://www.w3.org/2000/svg"
   xmlns:svg="http://www.w3.org/2000/svg"
   xmlns:rdf="http://www.w3.org/1999/02/22-rdf-syntax-ns#"
   xmlns:cc="http://creativecommons.org/ns#"
   xmlns:dc="http://purl.org/dc/elements/1.1/"><metadata
   id="metadata459"><rdf:RDF><cc:Work
       rdf:about=""><dc:format>image/svg+xml</dc:format><dc:type
         rdf:resource="http://purl.org/dc/dcmitype/StillImage" /></cc:Work></rdf:RDF></metadata><defs
   id="defs457" /><sodipodi:namedview
   pagecolor="#ffffff"
   bordercolor="#666666"
   borderopacity="1"
   objecttolerance="10"
   gridtolerance="10"
   guidetolerance="10"
   inkscape:pageopacity="0"
   inkscape:pageshadow="2"
   inkscape:window-width="1920"
   inkscape:window-height="979"
   id="namedview455"
   showgrid="false"
   inkscape:zoom="1.5507813"
   inkscape:cx="90.277077"
   inkscape:cy="35.465995"
   inkscape:window-x="0"
   inkscape:window-y="0"
   inkscape:window-maximized="1"
   inkscape:current-layer="g452"
   inkscape:document-rotation="0"
   inkscape:pagecheckerboard="0" />
<style
   type="text/css"
   id="style2">
	.st0{fill:none;}
	.st1{fill:#572A2D;}
	.st2{fill:url(#SVGID_1_);}
	.st3{fill:url(#SVGID_2_);}
	.st4{fill:url(#SVGID_3_);}
	.st5{fill:#A6A6A6;}
	.st6{fill:#E6E6E6;}
	.st7{fill:#999999;}
	.st8{fill:url(#SVGID_4_);}
	.st9{fill:#808080;}
	.st10{fill:url(#SVGID_5_);}
	.st11{fill:url(#SVGID_6_);}
	.st12{fill:url(#SVGID_7_);}
	.st13{fill:url(#SVGID_8_);}
	.st14{fill:url(#SVGID_9_);}
	.st15{fill:url(#SVGID_10_);}
	.st16{fill:#666666;}
	.st17{fill:url(#SVGID_12_);}
	.st18{fill:url(#SVGID_13_);}
	.st19{fill:url(#SVGID_14_);}
	.st20{fill:url(#SVGID_15_);}
	.st21{fill:url(#SVGID_16_);}
	.st22{fill:url(#SVGID_17_);}
	.st23{fill:url(#SVGID_18_);}
	.st24{fill:url(#SVGID_19_);}
	.st25{fill:#E1891F;}
	.st26{fill:#4D4D4D;}
	.st27{fill:#CE7E1C;}
	.st28{fill:#184655;}
	.st29{fill:url(#SVGID_20_);}
	.st30{fill:#CCCCCC;}
	.st31{fill:#262626;}
</style>
<pattern
   y="128"
   width="32.2"
   height="34.5"
   patternUnits="userSpaceOnUse"
   id="SVGID_11_"
   viewBox="0 -34.5 32.2 34.5"
   style="overflow:visible">
	<g
   id="g16">
		<rect
   y="-34.5"
   class="st0"
   width="32.2"
   height="34.5"
   id="rect4" />
		<g
   id="g14">
			<rect
   y="-34.5"
   class="st0"
   width="32.2"
   height="34.5"
   id="rect6" />
			<g
   id="g12">
				<rect
   y="-34.5"
   class="st0"
   width="32.2"
   height="34.5"
   id="rect8" />
				<rect
   y="-34.5"
   class="st1"
   width="32.2"
   height="34.5"
   id="rect10" />
			</g>
		</g>
	</g>
</pattern>
<g
   id="g452">
	<g
   id="g29">
		<pattern
   id="SVGID_1_"
   xlink:href="#SVGID_11_"
   patternTransform="matrix(1.3281 0 0 1.3281 2607.5029 2660.1726)">
		</pattern>
		<path
   class="st2"
   d="M 128,64 C 128,99.3 99.3,128 64,128 28.7,128 0,99.3 0,64 0,28.7 28.7,0 64,0 c 35.3,0 64,28.7 64,64 z"
   id="path20"
   style="fill:#d1c500;fill-opacity:1" />
		
			<linearGradient
   id="SVGID_2_"
   gradientUnits="userSpaceOnUse"
   x1="51.205425"
   y1="71.957634"
   x2="111.80655"
   y2="22.864826"
   gradientTransform="matrix(1,0,0,-1,0,128)">
			<stop
   offset="0"
   style="stop-color:#000000;stop-opacity:0.34779656"
   id="stop22" />
			<stop
   offset="1"
   style="stop-color:#000000;stop-opacity:0"
   id="stop24" />
		</linearGradient>
		<path
   class="st3"
   d="M 125.7877,45.528418 97.417111,25.274076 68.345617,61.754386 C 31.785307,106.2337 61.752385,68.057239 23.845666,106.45569 L 60.6,127.9 c 57.28762,-1.3574 71.51355,-39.753141 65.1877,-82.371582 z"
   id="path27"
   style="fill:url(#SVGID_2_)"
   sodipodi:nodetypes="cccccc" />
	</g>
	<g
   id="g380">
		<g
   id="g361">
			<g
   id="g44">
				
					<linearGradient
   id="SVGID_3_"
   gradientUnits="userSpaceOnUse"
   x1="-106.4556"
   y1="558.61499"
   x2="-111.3906"
   y2="544.22113"
   gradientTransform="matrix(-0.7193,-0.6946,-0.6946,0.7193,408.8325,-428.8361)">
					<stop
   offset="1.733100e-03"
   style="stop-color:#A6A6A6"
   id="stop31" />
					<stop
   offset="1"
   style="stop-color:#BFBFBF"
   id="stop33" />
				</linearGradient>
				<path
   class="st4"
   d="m 109.5,38.5 c -0.2,2 -1.4,8 -9.5,13.2 -3.4,-5 -4.2,-10.1 -4.2,-10.1 l 2.7,1.3 0.7,-0.7 9.7,-4.1 c 0.3,-0.2 0.6,0 0.6,0.4 z"
   id="path36"
   style="fill:url(#SVGID_3_)" />
				<path
   class="st5"
   d="m 108.9,38.2 -9.7,4.1 -0.7,0.7 -2.7,-1.2 c 0,-0.1 0,-0.2 0,-0.2 l 2.7,1.3 0.7,-0.7 9.7,-4.1 c 0.3,-0.1 0.6,0 0.6,0.4 0,0 0,0 0,0 -0.1,-0.3 -0.3,-0.4 -0.6,-0.3 z"
   id="path38" />
				<path
   class="st6"
   d="m 109.4,38.4 c 0,-0.1 0,-0.2 -0.1,-0.3 0.1,0 0.2,0.2 0.1,0.3 -0.1,2.1 -1.3,8.1 -9.4,13.3 0,0 0,-0.1 -0.1,-0.1 8.1,-5.2 9.3,-11.2 9.5,-13.2 z"
   id="path40" />
				<polygon
   class="st7"
   points="98.2,48.9 99.2,42.1 98.5,42.9 "
   id="polygon42" />
			</g>
			<g
   id="g209">
				
					<linearGradient
   id="SVGID_4_"
   gradientUnits="userSpaceOnUse"
   x1="126.1564"
   y1="-573.41052"
   x2="130.8887"
   y2="-573.41052"
   gradientTransform="matrix(-0.928,0.3724,0.3724,0.928,421.6721,532.429)">
					<stop
   offset="0"
   style="stop-color:#4D4D4D"
   id="stop46" />
					<stop
   offset="4.800854e-02"
   style="stop-color:#696969"
   id="stop48" />
					<stop
   offset="0.1226"
   style="stop-color:#8E8E8E"
   id="stop50" />
					<stop
   offset="0.1919"
   style="stop-color:#A9A9A9"
   id="stop52" />
					<stop
   offset="0.2532"
   style="stop-color:#B9B9B9"
   id="stop54" />
					<stop
   offset="0.3"
   style="stop-color:#BFBFBF"
   id="stop56" />
					<stop
   offset="0.7"
   style="stop-color:#BFBFBF"
   id="stop58" />
					<stop
   offset="0.7468"
   style="stop-color:#B9B9B9"
   id="stop60" />
					<stop
   offset="0.8081"
   style="stop-color:#A9A9A9"
   id="stop62" />
					<stop
   offset="0.8774"
   style="stop-color:#8E8E8E"
   id="stop64" />
					<stop
   offset="0.952"
   style="stop-color:#696969"
   id="stop66" />
					<stop
   offset="1"
   style="stop-color:#4D4D4D"
   id="stop68" />
				</linearGradient>
				<polygon
   class="st8"
   points="92.7,51.4 89.4,43.1 85,44.9 88.3,53.2 "
   id="polygon71"
   style="fill:url(#SVGID_4_)" />
				<g
   id="g106">
					<path
   class="st9"
   d="m 85.3,45.7 0.2,0.5 c 0,0 0,0 0,0 0.9,-0.2 2.3,-0.6 3.7,-1 C 89.5,45.1 90,45 90,45 c 0.6,-0.1 1.1,0 1.3,0.4 0.2,0.3 -0.4,0.8 -0.8,1 L 90.3,46 c -0.2,0.1 -0.5,0.1 -0.8,0.2 -2.8,0.8 -3.8,1 -3.8,1 -0.6,0.1 -1.2,0 -1.3,-0.4 0,-0.5 0.6,-0.9 0.9,-1.1 z"
   id="path73" />
					
						<linearGradient
   id="SVGID_5_"
   gradientUnits="userSpaceOnUse"
   x1="125.0814"
   y1="-575.80579"
   x2="131.98241"
   y2="-575.80579"
   gradientTransform="matrix(-0.928,0.3724,0.3724,0.928,421.6721,532.429)">
						<stop
   offset="0"
   style="stop-color:#4D4D4D"
   id="stop75" />
						<stop
   offset="7.062650e-03"
   style="stop-color:#525252"
   id="stop77" />
						<stop
   offset="7.697048e-02"
   style="stop-color:#828282"
   id="stop79" />
						<stop
   offset="0.1434"
   style="stop-color:#A7A7A7"
   id="stop81" />
						<stop
   offset="0.2046"
   style="stop-color:#C3C3C3"
   id="stop83" />
						<stop
   offset="0.2587"
   style="stop-color:#D3D3D3"
   id="stop85" />
						<stop
   offset="0.3"
   style="stop-color:#D9D9D9"
   id="stop87" />
						<stop
   offset="0.7"
   style="stop-color:#D9D9D9"
   id="stop89" />
						<stop
   offset="0.7413"
   style="stop-color:#D3D3D3"
   id="stop91" />
						<stop
   offset="0.7954"
   style="stop-color:#C3C3C3"
   id="stop93" />
						<stop
   offset="0.8566"
   style="stop-color:#A7A7A7"
   id="stop95" />
						<stop
   offset="0.923"
   style="stop-color:#828282"
   id="stop97" />
						<stop
   offset="0.9929"
   style="stop-color:#525252"
   id="stop99" />
						<stop
   offset="1"
   style="stop-color:#4D4D4D"
   id="stop101" />
					</linearGradient>
					<path
   class="st10"
   d="M 89.3,45.4 C 90,45.2 90.6,45.1 91,45 c 0.2,0.1 0.3,0.2 0.4,0.4 0,0 0,0.1 0,0.1 -0.4,0.1 -1,0.2 -1.9,0.5 -1.4,0.4 -2.8,0.9 -3.7,1 -0.4,0.1 -0.7,0.1 -1,0.1 -0.1,-0.1 -0.2,-0.2 -0.3,-0.3 0,-0.1 0,-0.2 0,-0.2 0.3,0 0.7,0 1.1,-0.1 0.9,-0.3 2.4,-0.7 3.7,-1.1 z"
   id="path104"
   style="fill:url(#SVGID_5_)" />
				</g>
				<g
   id="g141">
					<path
   class="st9"
   d="m 86.1,47.6 0.2,0.5 c 0,0 0,0 0,0 0.9,-0.2 2.3,-0.6 3.7,-1 0.3,-0.1 0.8,-0.2 0.8,-0.2 0.6,-0.1 1.1,0 1.3,0.4 0.2,0.3 -0.4,0.8 -0.8,1 l -0.2,-0.4 c -0.2,0.1 -0.5,0.1 -0.8,0.2 -2.8,0.8 -3.8,1 -3.8,1 -0.6,0.1 -1.2,0 -1.3,-0.4 -0.1,-0.5 0.5,-0.9 0.9,-1.1 z"
   id="path108" />
					
						<linearGradient
   id="SVGID_6_"
   gradientUnits="userSpaceOnUse"
   x1="125.0812"
   y1="-573.7984"
   x2="131.9821"
   y2="-573.7984"
   gradientTransform="matrix(-0.928,0.3724,0.3724,0.928,421.6721,532.429)">
						<stop
   offset="0"
   style="stop-color:#4D4D4D"
   id="stop110" />
						<stop
   offset="7.062650e-03"
   style="stop-color:#525252"
   id="stop112" />
						<stop
   offset="7.697048e-02"
   style="stop-color:#828282"
   id="stop114" />
						<stop
   offset="0.1434"
   style="stop-color:#A7A7A7"
   id="stop116" />
						<stop
   offset="0.2046"
   style="stop-color:#C3C3C3"
   id="stop118" />
						<stop
   offset="0.2587"
   style="stop-color:#D3D3D3"
   id="stop120" />
						<stop
   offset="0.3"
   style="stop-color:#D9D9D9"
   id="stop122" />
						<stop
   offset="0.7"
   style="stop-color:#D9D9D9"
   id="stop124" />
						<stop
   offset="0.7413"
   style="stop-color:#D3D3D3"
   id="stop126" />
						<stop
   offset="0.7954"
   style="stop-color:#C3C3C3"
   id="stop128" />
						<stop
   offset="0.8566"
   style="stop-color:#A7A7A7"
   id="stop130" />
						<stop
   offset="0.923"
   style="stop-color:#828282"
   id="stop132" />
						<stop
   offset="0.9929"
   style="stop-color:#525252"
   id="stop134" />
						<stop
   offset="1"
   style="stop-color:#4D4D4D"
   id="stop136" />
					</linearGradient>
					<path
   class="st11"
   d="m 90.1,47.2 c 0.7,-0.2 1.3,-0.3 1.7,-0.4 0.2,0.1 0.3,0.2 0.4,0.4 0,0 0,0.1 0,0.1 -0.4,0.1 -1,0.2 -1.9,0.5 -1.4,0.4 -2.8,0.9 -3.7,1 -0.4,0.1 -0.7,0.1 -1,0.1 -0.1,-0.1 -0.2,-0.2 -0.3,-0.3 0,-0.1 0,-0.2 0,-0.2 0.3,0 0.7,0 1.1,-0.1 0.8,-0.2 2.3,-0.7 3.7,-1.1 z"
   id="path139"
   style="fill:url(#SVGID_6_)" />
				</g>
				<g
   id="g176">
					<path
   class="st9"
   d="m 86.8,49.4 0.2,0.5 c 0,0 0,0 0,0 0.9,-0.2 2.3,-0.6 3.7,-1 0.3,-0.1 0.8,-0.2 0.8,-0.2 0.6,-0.1 1.1,0 1.3,0.4 0.2,0.3 -0.4,0.8 -0.8,1 v -0.5 c -0.2,0.1 -0.5,0.1 -0.8,0.2 -2.8,0.8 -3.8,1 -3.8,1 -0.6,0.1 -1.2,0 -1.3,-0.4 -0.2,-0.4 0.4,-0.8 0.7,-1 z"
   id="path143" />
					
						<linearGradient
   id="SVGID_7_"
   gradientUnits="userSpaceOnUse"
   x1="125.0808"
   y1="-571.79102"
   x2="131.9821"
   y2="-571.79102"
   gradientTransform="matrix(-0.928,0.3724,0.3724,0.928,421.6721,532.429)">
						<stop
   offset="0"
   style="stop-color:#4D4D4D"
   id="stop145" />
						<stop
   offset="7.062650e-03"
   style="stop-color:#525252"
   id="stop147" />
						<stop
   offset="7.697048e-02"
   style="stop-color:#828282"
   id="stop149" />
						<stop
   offset="0.1434"
   style="stop-color:#A7A7A7"
   id="stop151" />
						<stop
   offset="0.2046"
   style="stop-color:#C3C3C3"
   id="stop153" />
						<stop
   offset="0.2587"
   style="stop-color:#D3D3D3"
   id="stop155" />
						<stop
   offset="0.3"
   style="stop-color:#D9D9D9"
   id="stop157" />
						<stop
   offset="0.7"
   style="stop-color:#D9D9D9"
   id="stop159" />
						<stop
   offset="0.7413"
   style="stop-color:#D3D3D3"
   id="stop161" />
						<stop
   offset="0.7954"
   style="stop-color:#C3C3C3"
   id="stop163" />
						<stop
   offset="0.8566"
   style="stop-color:#A7A7A7"
   id="stop165" />
						<stop
   offset="0.923"
   style="stop-color:#828282"
   id="stop167" />
						<stop
   offset="0.9929"
   style="stop-color:#525252"
   id="stop169" />
						<stop
   offset="1"
   style="stop-color:#4D4D4D"
   id="stop171" />
					</linearGradient>
					<path
   class="st12"
   d="m 90.8,49.1 c 0.7,-0.2 1.3,-0.3 1.7,-0.4 0.2,0.1 0.3,0.2 0.4,0.4 0,0 0,0.1 0,0.1 -0.4,0.1 -1,0.2 -1.9,0.5 -1.4,0.4 -2.8,0.9 -3.7,1 -0.4,0.1 -0.7,0.1 -1,0.1 -0.1,-0.1 -0.2,-0.2 -0.3,-0.3 0,-0.1 0,-0.2 0,-0.2 0.3,0 0.7,0 1.1,-0.1 0.9,-0.3 2.4,-0.7 3.7,-1.1 z"
   id="path174"
   style="fill:url(#SVGID_7_)" />
				</g>
				<g
   id="g207">
					<path
   class="st9"
   d="m 86.8,52.2 c 0,0 0,0 0,0 0,0 0,-0.1 0,0 0,-0.1 0,-0.1 0,-0.1 0,0 0,0 0,0 0,0 0,0 0,-0.1 0.1,-0.3 0.5,-0.6 0.8,-0.7 l 0.2,0.5 c 0,0 0,0 0,0 0.6,-0.1 1.7,-0.4 2.6,-0.7 l 0.4,0.9 c -1.7,0.5 -2.6,0.7 -2.6,0.7 -0.4,0 -0.8,0 -1,-0.1 -0.1,0 -0.1,-0.1 -0.2,-0.1 0,0 0,0 0,0 0,0 0,0 -0.1,-0.1 0,0 0,0 0,0 -0.1,-0.1 -0.1,-0.1 -0.1,-0.2 0,0 0,0 0,0 z"
   id="path178" />
					
						<linearGradient
   id="SVGID_8_"
   gradientUnits="userSpaceOnUse"
   x1="123.0964"
   y1="-569.80072"
   x2="131.9821"
   y2="-569.80072"
   gradientTransform="matrix(-0.928,0.3724,0.3724,0.928,421.6721,532.429)">
						<stop
   offset="0"
   style="stop-color:#4D4D4D"
   id="stop180" />
						<stop
   offset="4.800854e-02"
   style="stop-color:#696969"
   id="stop182" />
						<stop
   offset="0.1226"
   style="stop-color:#8E8E8E"
   id="stop184" />
						<stop
   offset="0.1919"
   style="stop-color:#A9A9A9"
   id="stop186" />
						<stop
   offset="0.2532"
   style="stop-color:#B9B9B9"
   id="stop188" />
						<stop
   offset="0.3"
   style="stop-color:#BFBFBF"
   id="stop190" />
						<stop
   offset="0.7"
   style="stop-color:#BFBFBF"
   id="stop192" />
						<stop
   offset="0.7468"
   style="stop-color:#B9B9B9"
   id="stop194" />
						<stop
   offset="0.8081"
   style="stop-color:#A9A9A9"
   id="stop196" />
						<stop
   offset="0.8774"
   style="stop-color:#8E8E8E"
   id="stop198" />
						<stop
   offset="0.952"
   style="stop-color:#696969"
   id="stop200" />
						<stop
   offset="1"
   style="stop-color:#4D4D4D"
   id="stop202" />
					</linearGradient>
					<path
   class="st13"
   d="m 86.9,52.4 c 0,0 0,0 0,0 0,0 0,0 0,0 -0.1,0 -0.1,0 0,0 -0.1,-0.1 -0.1,-0.2 -0.1,-0.2 0,0 0,0 0,-0.1 0,0 0,0 0,0 0,0 0,0 0,0 0,0 0,0 0,0 0,0 0,0 0,0 0,0 0,0 0,-0.1 v 0 c 0.3,0 0.7,0 1.1,-0.1 0.3,-0.1 0.7,-0.1 1.1,-0.3 0.4,-0.1 1.5,-0.7 2,-1 l 0.5,1.2 c -0.5,0 -1.9,0.2 -2.2,0.3 -0.4,0.1 -0.8,0.2 -1.1,0.3 -0.4,0.1 -0.7,0.1 -1,0.1 v 0 c -0.2,0 -0.2,0 -0.3,-0.1 z"
   id="path205"
   style="fill:url(#SVGID_8_)" />
				</g>
			</g>
			<g
   id="g271">
				
					<linearGradient
   id="SVGID_9_"
   gradientUnits="userSpaceOnUse"
   x1="123.7504"
   y1="-573.23712"
   x2="125.909"
   y2="-573.23712"
   gradientTransform="matrix(-0.928,0.3724,0.3724,0.928,421.6721,532.429)">
					<stop
   offset="0"
   style="stop-color:#4D4D4D"
   id="stop211" />
					<stop
   offset="7.376400e-02"
   style="stop-color:#515151"
   id="stop213" />
					<stop
   offset="0.1493"
   style="stop-color:#5D5D5D"
   id="stop215" />
					<stop
   offset="0.2255"
   style="stop-color:#717171"
   id="stop217" />
					<stop
   offset="0.3024"
   style="stop-color:#8E8E8E"
   id="stop219" />
					<stop
   offset="0.379"
   style="stop-color:#B3B3B3"
   id="stop221" />
					<stop
   offset="0.4021"
   style="stop-color:#BFBFBF"
   id="stop223" />
					<stop
   offset="0.695"
   style="stop-color:#BFBFBF"
   id="stop225" />
					<stop
   offset="0.7462"
   style="stop-color:#BABABA"
   id="stop227" />
					<stop
   offset="0.8052"
   style="stop-color:#ADADAD"
   id="stop229" />
					<stop
   offset="0.8681"
   style="stop-color:#959595"
   id="stop231" />
					<stop
   offset="0.9336"
   style="stop-color:#757575"
   id="stop233" />
					<stop
   offset="1"
   style="stop-color:#4D4D4D"
   id="stop235" />
				</linearGradient>
				<path
   class="st14"
   d="M 90.7,43.3 C 90.5,43.1 90.2,43 90,42.9 c -0.1,0 -0.2,0 -0.3,0 -0.1,0 -0.1,0 -0.1,-0.1 0,-0.1 -0.1,-0.2 -0.1,-0.2 0.6,-0.2 1.3,-0.5 1.9,-0.7 0.1,0 0.1,0 0.1,0.1 0.1,0.2 0.1,0.4 0.2,0.5 0.6,1.5 1.2,3.1 1.8,4.6 0.5,1.3 1,2.6 1.6,3.9 0,0.1 0,0.1 0.1,0.2 0,0 -0.4,0.2 -0.4,0.2 -0.5,0.2 -1,0.4 -1.5,0.7 0,-0.1 -0.1,-0.2 -0.1,-0.2 0,-0.1 0,-0.1 0.1,-0.1 0.1,-0.1 0.2,-0.1 0.3,-0.2 0.2,-0.2 0.4,-0.5 0.2,-0.8 -0.2,-0.3 -0.5,-0.3 -0.8,-0.4 -0.1,0 -0.2,0 -0.3,0 0,0 0,-0.1 0,-0.1 0,-0.1 -0.1,-0.2 -0.1,-0.3 0,0 0,0 0,-0.1 0.1,-0.1 0.2,-0.1 0.2,-0.2 0.1,-0.1 0.3,-0.3 0.3,-0.4 0.1,-0.2 -0.1,-0.5 -0.3,-0.6 -0.1,-0.1 -0.3,-0.1 -0.4,-0.2 -0.1,0 -0.5,0 -0.5,0 0,-0.1 -0.1,-0.2 -0.1,-0.3 0,0 0,-0.1 -0.1,-0.1 0,-0.1 0,-0.1 0.1,-0.1 0.2,-0.2 0.6,-0.5 0.6,-0.8 0,-0.2 -0.2,-0.4 -0.4,-0.5 -0.1,-0.1 -0.3,-0.1 -0.4,-0.1 -0.1,0 -0.4,0 -0.4,-0.1 0,-0.1 -0.1,-0.2 -0.1,-0.3 0,0 0,-0.1 0,-0.1 0,0 0.2,-0.1 0.2,-0.2 0.2,-0.2 0.5,-0.4 0.4,-0.7 0,-0.3 -0.3,-0.4 -0.6,-0.5 -0.2,0 -0.3,-0.1 -0.5,-0.1 0,0 -0.1,0 -0.2,0 0,0 0,-0.1 -0.1,-0.1 0,-0.1 -0.1,-0.2 -0.1,-0.3 0,0 0.3,-0.3 0.4,-0.3 0.2,-0.1 0.3,-0.3 0.1,-0.6"
   id="path238"
   style="fill:url(#SVGID_9_)" />
				
					<linearGradient
   id="SVGID_10_"
   gradientUnits="userSpaceOnUse"
   x1="124.8297"
   y1="-568.13489"
   x2="124.8297"
   y2="-578.33942"
   gradientTransform="matrix(-0.928,0.3724,0.3724,0.928,421.6721,532.429)">
					<stop
   offset="0"
   style="stop-color:#4D4D4D"
   id="stop240" />
					<stop
   offset="7.239036e-02"
   style="stop-color:#7F7F7F"
   id="stop242" />
					<stop
   offset="0.1786"
   style="stop-color:#C4C4C4"
   id="stop244" />
					<stop
   offset="0.2555"
   style="stop-color:#EFEFEF"
   id="stop246" />
					<stop
   offset="0.2946"
   style="stop-color:#FFFFFF"
   id="stop248" />
					<stop
   offset="0.695"
   style="stop-color:#FFFFFF"
   id="stop250" />
					<stop
   offset="0.7371"
   style="stop-color:#FBFBFB"
   id="stop252" />
					<stop
   offset="0.783"
   style="stop-color:#EDEDED"
   id="stop254" />
					<stop
   offset="0.8307"
   style="stop-color:#D8D8D8"
   id="stop256" />
					<stop
   offset="0.8798"
   style="stop-color:#B9B9B9"
   id="stop258" />
					<stop
   offset="0.9298"
   style="stop-color:#929292"
   id="stop260" />
					<stop
   offset="0.9799"
   style="stop-color:#626262"
   id="stop262" />
					<stop
   offset="1"
   style="stop-color:#4D4D4D"
   id="stop264" />
				</linearGradient>
				<path
   class="st15"
   d="M 90.7,43.3 C 90.5,43.1 90.2,43 90,42.9 c -0.1,0 -0.2,0 -0.3,0 -0.1,0 -0.1,0 -0.1,-0.1 0,-0.1 -0.1,-0.2 -0.1,-0.2 0.6,-0.2 1.3,-0.5 1.9,-0.7 0.1,0 0.1,0 0.1,0.1 0.1,0.2 0.1,0.4 0.2,0.5 0.6,1.5 1.2,3.1 1.8,4.6 0.5,1.3 1,2.6 1.6,3.9 0,0.1 0,0.1 0.1,0.2 0,0 -0.4,0.2 -0.4,0.2 -0.5,0.2 -1,0.4 -1.5,0.7 0,-0.1 -0.1,-0.2 -0.1,-0.2 0,-0.1 0,-0.1 0.1,-0.1 0.1,-0.1 0.2,-0.1 0.3,-0.2 0.2,-0.2 0.4,-0.5 0.2,-0.8 -0.2,-0.3 -0.5,-0.3 -0.8,-0.4 -0.1,0 -0.2,0 -0.3,0 0,0 0,-0.1 0,-0.1 0,-0.1 -0.1,-0.2 -0.1,-0.3 0,0 0,0 0,-0.1 0.1,-0.1 0.2,-0.1 0.2,-0.2 0.1,-0.1 0.3,-0.3 0.3,-0.4 0.1,-0.2 -0.1,-0.5 -0.3,-0.6 -0.1,-0.1 -0.3,-0.1 -0.4,-0.2 -0.1,0 -0.5,0 -0.5,0 0,-0.1 -0.1,-0.2 -0.1,-0.3 0,0 0,-0.1 -0.1,-0.1 0,-0.1 0,-0.1 0.1,-0.1 0.2,-0.2 0.6,-0.5 0.6,-0.8 0,-0.2 -0.2,-0.4 -0.4,-0.5 -0.1,-0.1 -0.3,-0.1 -0.4,-0.1 -0.1,0 -0.4,0 -0.4,-0.1 0,-0.1 -0.1,-0.2 -0.1,-0.3 0,0 0,-0.1 0,-0.1 0,0 0.2,-0.1 0.2,-0.2 0.2,-0.2 0.5,-0.4 0.4,-0.7 0,-0.3 -0.3,-0.4 -0.6,-0.5 -0.2,0 -0.3,-0.1 -0.5,-0.1 0,0 -0.1,0 -0.2,0 0,0 0,-0.1 -0.1,-0.1 0,-0.1 -0.1,-0.2 -0.1,-0.3 0,0 0.3,-0.3 0.4,-0.3 0.2,-0.1 0.3,-0.3 0.1,-0.6"
   id="path267"
   style="fill:url(#SVGID_10_)" />
				<path
   class="st16"
   d="m 92.9,50.4 c -0.1,0 -0.2,0 -0.3,0 0,0 0,-0.1 0,-0.1 L 92.4,50 c 0,0 0,0 0,-0.1 0.1,-0.1 0.2,-0.1 0.2,-0.2 0.1,-0.1 0.3,-0.3 0.3,-0.4 0.1,-0.2 -0.1,-0.5 -0.3,-0.6 -0.1,-0.1 -0.3,-0.1 -0.4,-0.2 -0.1,0 -0.5,0 -0.5,0 l -0.2,-0.4 c 0,-0.1 0,-0.1 0.1,-0.1 0.2,-0.2 0.6,-0.5 0.6,-0.8 0,-0.2 -0.2,-0.4 -0.4,-0.5 -0.1,-0.1 -0.3,-0.1 -0.4,-0.1 -0.1,0 -0.4,0 -0.4,-0.1 l -0.1,-0.4 c 0,0 0.2,-0.1 0.2,-0.2 0.2,-0.2 0.5,-0.4 0.4,-0.7 0,-0.3 -0.3,-0.4 -0.6,-0.5 -0.2,0 -0.3,-0.1 -0.5,-0.1 0,0 -0.1,0 -0.2,0 L 90,44.2 c 0,0 0.3,-0.3 0.4,-0.3 0.2,-0.2 0.3,-0.5 0.2,-0.7 -0.2,-0.2 -0.5,-0.3 -0.7,-0.4 -0.1,0 -0.2,0 -0.3,0 -0.1,0 -0.1,0 -0.1,-0.1 l -0.1,-0.2 c 0,0 0.1,0 0.1,-0.1 l 0.1,0.2 c 0,0.1 0,0.1 0.1,0.1 0.1,0 0.2,0 0.3,0 0.3,0 0.6,0.1 0.7,0.4 0.2,0.3 0,0.5 -0.2,0.7 0,0 -0.4,0.3 -0.4,0.3 l 0.2,0.4 c 0,0 0.1,0 0.2,0 0.2,0 0.3,0 0.5,0.1 0.2,0.1 0.5,0.2 0.6,0.5 0.1,0.3 -0.2,0.6 -0.4,0.7 0,0 -0.2,0.1 -0.2,0.2 l 0.1,0.4 c 0,0.1 0.3,0 0.4,0.1 0.1,0 0.3,0 0.4,0.1 0.2,0.1 0.4,0.3 0.4,0.5 0,0.3 -0.3,0.6 -0.6,0.8 0,0 -0.1,0 -0.1,0.1 l 0.2,0.4 c 0,0 0.5,0 0.5,0 0.2,0 0.3,0.1 0.4,0.2 0.2,0.1 0.3,0.4 0.3,0.6 -0.1,0.2 -0.2,0.3 -0.3,0.4 -0.1,0.1 -0.2,0.1 -0.2,0.2 -0.1,0 0,0 0,0.1 l 0.1,0.3 c 0,0 0,0.1 0,0.1 0.1,0 0.2,0 0.3,0 0.3,0 0.6,0.1 0.8,0.4 0.2,0.3 0,0.6 -0.2,0.8 -0.1,0.1 -0.2,0.1 -0.3,0.2 -0.1,0 -0.1,0 -0.1,0.1 l 0.1,0.2 c 0,0 -0.1,0 -0.1,0.1 L 93,51.9 c 0,-0.1 0,-0.1 0.1,-0.1 0.1,-0.1 0.2,-0.1 0.3,-0.2 0.2,-0.2 0.4,-0.5 0.2,-0.8 -0.1,-0.3 -0.4,-0.4 -0.7,-0.4 z"
   id="path269" />
			</g>
			<g
   id="g359">
				
					<linearGradient
   id="SVGID_12_"
   gradientUnits="userSpaceOnUse"
   x1="-117.192"
   y1="547.13959"
   x2="-75.671303"
   y2="644.9563"
   gradientTransform="matrix(-0.7193,-0.6946,-0.6946,0.7193,408.8325,-428.8361)">
					<stop
   offset="0"
   style="stop-color:#CCCCCC"
   id="stop273" />
					<stop
   offset="9.164444e-02"
   style="stop-color:#B2B2B2"
   id="stop275" />
					<stop
   offset="0.1542"
   style="stop-color:#A6A6A6"
   id="stop277" />
					<stop
   offset="0.1696"
   style="stop-color:#A8A8A8"
   id="stop279" />
					<stop
   offset="0.1752"
   style="stop-color:#AEAEAE"
   id="stop281" />
					<stop
   offset="0.1791"
   style="stop-color:#BABABA"
   id="stop283" />
					<stop
   offset="0.1802"
   style="stop-color:#BFBFBF"
   id="stop285" />
					<stop
   offset="0.1812"
   style="stop-color:#B1B1B1"
   id="stop287" />
					<stop
   offset="0.1829"
   style="stop-color:#A1A1A1"
   id="stop289" />
					<stop
   offset="0.1849"
   style="stop-color:#959595"
   id="stop291" />
					<stop
   offset="0.1878"
   style="stop-color:#8E8E8E"
   id="stop293" />
					<stop
   offset="0.1958"
   style="stop-color:#8C8C8C"
   id="stop295" />
					<stop
   offset="0.2083"
   style="stop-color:#9E9E9E"
   id="stop297" />
					<stop
   offset="0.2288"
   style="stop-color:#B3B3B3"
   id="stop299" />
					<stop
   offset="0.2531"
   style="stop-color:#C4C4C4"
   id="stop301" />
					<stop
   offset="0.2831"
   style="stop-color:#D0D0D0"
   id="stop303" />
					<stop
   offset="0.3251"
   style="stop-color:#D7D7D7"
   id="stop305" />
					<stop
   offset="0.4419"
   style="stop-color:#D9D9D9"
   id="stop307" />
					<stop
   offset="1"
   style="stop-color:#BFBFBF"
   id="stop309" />
				</linearGradient>
				<path
   class="st17"
   d="m 78,49.3 c -3,6.3 -26.1,27.2 -32.1,32.9 -6,5.7 -19.3,17.8 -21.5,21.3 -0.8,1.4 -1.5,4.1 1.1,6.8 2.6,2.7 5.5,2.3 7.3,1.4 2,-1 17.5,-17.9 21,-21.8 3.5,-3.8 27.1,-30.7 32.1,-32.6 5,-1.9 12.6,-3.3 14.9,-3.7 0.4,-0.1 0.6,-0.4 0.4,-0.8 l -7.8,-19.2 0.4,-1.7 10.9,-4.3 c 0.4,-0.1 0.4,-0.5 0.1,-0.7 -1.1,-0.9 -4.1,-2.8 -10,-3 C 87.1,23.6 84,29.9 83.3,31.5 82.6,33 80.9,43.1 78,49.3 Z m 8.1,3.6 C 86,52.8 85.9,52.7 85.9,52.5 L 84,47.3 c -0.2,-0.5 0,-1.1 0.5,-1.4 l 5.8,-2.8 c 0.3,-0.2 0.7,-0.1 1,0.1 0.1,0.1 0.2,0.2 0.2,0.3 L 94,50 c 0.1,0.2 0.1,0.5 0,0.7 -0.1,0.2 -0.3,0.4 -0.5,0.5 l -6.3,2 c -0.4,0.1 -0.8,0 -1.1,-0.3 z m -58.8,50.5 c 1.4,-1.5 3.8,-1.5 5.3,-0.1 1.5,1.4 1.5,3.8 0.1,5.3 -1.4,1.5 -3.8,1.5 -5.3,0.1 -1.4,-1.5 -1.5,-3.8 -0.1,-5.3 z"
   id="path312"
   style="fill:url(#SVGID_12_)" />
				
					<linearGradient
   id="SVGID_13_"
   gradientUnits="userSpaceOnUse"
   x1="-91.8563"
   y1="654.1922"
   x2="-91.8563"
   y2="538.96149"
   gradientTransform="matrix(-0.7193,-0.6946,-0.6946,0.7193,408.8325,-428.8361)">
					<stop
   offset="0.6967"
   style="stop-color:#808080"
   id="stop314" />
					<stop
   offset="0.7504"
   style="stop-color:#E6E6E6"
   id="stop316" />
				</linearGradient>
				<path
   class="st18"
   d="m 83.3,31.3 c 0.7,-1.6 3.8,-7.9 11.5,-7.6 5.8,0.2 8.9,2.1 10,3 0,0 0.1,0.1 0.1,0.1 -1.2,-0.9 -4.2,-2.7 -9.9,-3 -7.7,-0.3 -10.8,6 -11.5,7.6 -0.7,1.7 -2.4,11.9 -5.4,18 -3,6.3 -26.1,27.2 -32.1,32.9 -6,5.7 -19.3,17.8 -21.5,21.3 -0.8,1.4 -1.5,4.1 1.1,6.8 0,0 0.1,0.1 0.1,0.1 -0.1,-0.1 -0.2,-0.2 -0.3,-0.3 -2.6,-2.7 -1.9,-5.4 -1.1,-6.8 2.2,-3.5 15.5,-15.6 21.5,-21.3 6,-5.7 29.1,-26.6 32.1,-32.9 3,-6.1 4.7,-16.2 5.4,-17.9 z"
   id="path319"
   style="fill:url(#SVGID_13_)" />
				
					<linearGradient
   id="SVGID_14_"
   gradientUnits="userSpaceOnUse"
   x1="-103.2743"
   y1="653.60059"
   x2="-103.2743"
   y2="538.96143"
   gradientTransform="matrix(-0.7193,-0.6946,-0.6946,0.7193,408.8325,-428.8361)">
					<stop
   offset="0.6967"
   style="stop-color:#808080"
   id="stop321" />
					<stop
   offset="0.8423"
   style="stop-color:#D9D9D9"
   id="stop323" />
				</linearGradient>
				<path
   class="st19"
   d="m 104.4,27.4 c 0.4,-0.1 0.4,-0.5 0.1,-0.7 -0.6,-0.5 -1.9,-1.4 -4,-2 2.3,0.7 3.6,1.6 4.3,2.1 0.3,0.2 0.2,0.6 -0.1,0.7 l -10.9,4.3 -0.4,1.7 7.8,19.2 c 0.1,0.4 0,0.7 -0.4,0.8 -2.3,0.4 -9.8,1.8 -14.9,3.7 -5,1.9 -28.6,28.8 -32.1,32.6 -3.5,3.8 -19,20.8 -21,21.8 -1.1,0.6 -2.8,0.9 -4.6,0.3 1.7,0.5 3.2,0.1 4.3,-0.4 2,-1 17.5,-17.9 21,-21.8 C 57,85.9 80.6,59 85.6,57.1 c 5,-1.9 12.6,-3.3 14.9,-3.7 0.4,-0.1 0.6,-0.4 0.4,-0.8 L 93,33.4 93.4,31.7 Z"
   id="path326"
   style="fill:url(#SVGID_14_)" />
				
					<linearGradient
   id="SVGID_15_"
   gradientUnits="userSpaceOnUse"
   x1="-99.029404"
   y1="643.89478"
   x2="-99.029404"
   y2="651.91443"
   gradientTransform="matrix(-0.7193,-0.6946,-0.6946,0.7193,408.8325,-428.8361)">
					<stop
   offset="0"
   style="stop-color:#666666"
   id="stop328" />
					<stop
   offset="0.2802"
   style="stop-color:#919191"
   id="stop330" />
					<stop
   offset="0.7709"
   style="stop-color:#D7D7D7"
   id="stop332" />
					<stop
   offset="1"
   style="stop-color:#F2F2F2"
   id="stop334" />
				</linearGradient>
				<path
   class="st20"
   d="m 27.1,103.2 c -1.5,1.6 -1.5,4.1 0.1,5.7 1.6,1.5 4.1,1.5 5.7,-0.1 1.5,-1.6 1.5,-4.1 -0.1,-5.7 -1.6,-1.5 -4.1,-1.5 -5.7,0.1 z m 0.2,0.2 c 1.4,-1.5 3.8,-1.5 5.3,-0.1 1.5,1.4 1.5,3.8 0.1,5.3 -1.4,1.5 -3.8,1.5 -5.3,0.1 -1.4,-1.5 -1.5,-3.8 -0.1,-5.3 z"
   id="path337"
   style="fill:url(#SVGID_15_)" />
				<path
   class="st7"
   d="m 30.8,99.9 c 1.2,0.1 2.6,0.6 3.7,1.7 1.1,1.1 1.7,2.4 1.8,3.6 0,0.4 0.2,0.5 0.5,0.2 L 79.5,59.5 c 0.6,-1 0.5,-2.4 -0.4,-3.3 -0.9,-0.9 -2.3,-1 -3.3,-0.3 L 30.6,99.5 c -0.3,0.2 -0.2,0.4 0.2,0.4 z"
   id="path339" />
				
					<linearGradient
   id="SVGID_16_"
   gradientUnits="userSpaceOnUse"
   x1="-99.189796"
   y1="642.28137"
   x2="-99.189796"
   y2="578.67822"
   gradientTransform="matrix(-0.7193,-0.6946,-0.6946,0.7193,408.8325,-428.8361)">
					<stop
   offset="0"
   style="stop-color:#D9D9D9"
   id="stop341" />
					<stop
   offset="1"
   style="stop-color:#BFBFBF"
   id="stop343" />
				</linearGradient>
				<path
   class="st21"
   d="M 36.7,104.6 78.9,59.2 c 0.5,-0.8 0.4,-1.9 -0.3,-2.5 v 0 C 77.9,56 76.9,55.9 76.1,56.4 l -44.6,43 c 1.2,0.2 2.4,0.8 3.4,1.8 v 0 c 0.9,1 1.6,2.2 1.8,3.4 z"
   id="path346"
   style="fill:url(#SVGID_16_)" />
				
					<linearGradient
   id="SVGID_17_"
   gradientUnits="userSpaceOnUse"
   x1="-105.5562"
   y1="567.5592"
   x2="-97.079597"
   y2="563.60651"
   gradientTransform="matrix(-0.7193,-0.6946,-0.6946,0.7193,408.8325,-428.8361)">
					<stop
   offset="4.852690e-02"
   style="stop-color:#737373"
   id="stop348" />
					<stop
   offset="0.1508"
   style="stop-color:#E6E6E6"
   id="stop350" />
					<stop
   offset="0.8163"
   style="stop-color:#E6E6E6"
   id="stop352" />
					<stop
   offset="0.9133"
   style="stop-color:#737373"
   id="stop354" />
				</linearGradient>
				<path
   class="st22"
   d="m 83.1,47.9 1.9,5 c 0.3,0.7 1.1,1.1 1.8,0.9 l 7.3,-2.3 c 0.7,-0.2 1.1,-1 0.8,-1.7 l -2.5,-6.3 c -0.3,-0.7 -1.1,-1 -1.7,-0.7 L 83.8,46 c -0.7,0.3 -1,1.2 -0.7,1.9 z m 1.4,-1.8 5.8,-2.8 c 0.3,-0.2 0.7,-0.1 1,0.1 0.1,0.1 0.2,0.2 0.2,0.3 L 94,50 c 0.1,0.2 0.1,0.5 0,0.7 -0.1,0.2 -0.3,0.4 -0.5,0.5 l -6.3,2 c -0.4,0.1 -0.8,0 -1.1,-0.3 C 86,52.8 85.9,52.7 85.9,52.5 L 84,47.3 c -0.3,-0.4 0,-1 0.5,-1.2 z"
   id="path357"
   style="fill:url(#SVGID_17_)" />
			</g>
		</g>
		<linearGradient
   id="SVGID_18_"
   gradientUnits="userSpaceOnUse"
   x1="62.820801"
   y1="74.235199"
   x2="52.428101"
   y2="82.354897">
			<stop
   offset="0.1069"
   style="stop-color:#4D4D4D"
   id="stop363" />
			<stop
   offset="0.1507"
   style="stop-color:#5F5F5F"
   id="stop365" />
			<stop
   offset="0.3017"
   style="stop-color:#979797"
   id="stop367" />
			<stop
   offset="0.4414"
   style="stop-color:#C4C4C4"
   id="stop369" />
			<stop
   offset="0.5655"
   style="stop-color:#E4E4E4"
   id="stop371" />
			<stop
   offset="0.6694"
   style="stop-color:#F8F8F8"
   id="stop373" />
			<stop
   offset="0.7405"
   style="stop-color:#FFFFFF"
   id="stop375" />
		</linearGradient>
		
	</g>
	
		<linearGradient
   id="SVGID_19_"
   gradientUnits="userSpaceOnUse"
   x1="290.25919"
   y1="-440.38721"
   x2="290.25919"
   y2="-499.13251"
   gradientTransform="matrix(0.768,-0.7643,0.754,0.7577,213.887,664.1198)">
		<stop
   offset="1.733100e-03"
   style="stop-color:#1A1A1A"
   id="stop382" />
		<stop
   offset="0.1379"
   style="stop-color:#1A1A1A"
   id="stop384" />
		<stop
   offset="0.9653"
   style="stop-color:#1A1A1A"
   id="stop386" />
		<stop
   offset="0.9743"
   style="stop-color:#202020"
   id="stop388" />
		<stop
   offset="0.986"
   style="stop-color:#303030"
   id="stop390" />
		<stop
   offset="0.9992"
   style="stop-color:#4B4B4B"
   id="stop392" />
		<stop
   offset="1"
   style="stop-color:#4D4D4D"
   id="stop394" />
	</linearGradient>
	<path
   class="st24"
   d="M 99.2,111.9 C 94.2,107.2 74,87.9 57.8,68.4 57.4,67.9 57.4,67.1 57.9,66.6 59.5,65 61.4,63.1 63,61.5 63.5,61 64.3,61 64.8,61.4 84.2,77.7 103.4,98 108.1,103 c 0.6,0.6 0.6,1.6 0,2.2 l -6.6,6.6 c -0.6,0.7 -1.6,0.7 -2.3,0.1 z"
   id="path397"
   style="fill:url(#SVGID_19_)" />
	<g
   id="g405">
		<path
   class="st25"
   d="m 60.7,71.8 7.5,-7.4 c -0.7,-0.6 -1.4,-1.2 -2.1,-1.8 l -7.2,7.1 c 0.5,0.6 1.2,1.3 1.8,2.1 z"
   id="path399"
   style="fill:#aa0000" />
		<path
   class="st26"
   d="m 58.9,69.7 7.2,-7.1 C 66,62.5 65.9,62.5 65.9,62.4 l -7.1,7.1 c 0,0.1 0.1,0.2 0.1,0.2 z"
   id="path401" />
		<path
   class="st26"
   d="m 60.8,71.9 7.5,-7.5 c -0.1,-0.1 -0.2,-0.1 -0.2,-0.2 l -7.5,7.4 c 0,0.1 0.1,0.2 0.2,0.3 z"
   id="path403" />
	</g>
	<g
   id="g411">
		<path
   class="st27"
   d="m 99.2,111.9 c 0.6,0.6 1.6,0.6 2.2,0 l 6.6,-6.6 c 0.6,-0.6 0.6,-1.6 0,-2.2 -2.2,-2.3 -7.5,-7.9 -14.5,-14.9 l -9.2,9.2 c 7,7 12.6,12.3 14.9,14.5 z"
   id="path407"
   style="fill:#aa0000;fill-opacity:1" />
		<path
   class="st28"
   d="m 84.5,97.5 9.2,-9.2 c -0.1,-0.1 -0.1,-0.1 -0.2,-0.2 l -9.2,9.2 c 0.1,0 0.1,0.1 0.2,0.2 z"
   id="path409" />
	</g>
	<g
   id="g450">
		
			<linearGradient
   id="SVGID_20_"
   gradientUnits="userSpaceOnUse"
   x1="-43.8983"
   y1="373.65479"
   x2="-40.638"
   y2="373.65479"
   gradientTransform="matrix(-1.0713,1.0874,0.7124,0.7019,-268.1047,-169.1618)">
			<stop
   offset="0"
   style="stop-color:#808080"
   id="stop413" />
			<stop
   offset="4.669595e-02"
   style="stop-color:#8F8F8F"
   id="stop415" />
			<stop
   offset="0.1366"
   style="stop-color:#B6B6B6"
   id="stop417" />
			<stop
   offset="0.2305"
   style="stop-color:#E6E6E6"
   id="stop419" />
			<stop
   offset="0.3865"
   style="stop-color:#E6E6E6"
   id="stop421" />
			<stop
   offset="0.5615"
   style="stop-color:#B3B3B3"
   id="stop423" />
			<stop
   offset="0.5738"
   style="stop-color:#B7B7B7"
   id="stop425" />
			<stop
   offset="0.6928"
   style="stop-color:#D9D9D9"
   id="stop427" />
			<stop
   offset="0.7574"
   style="stop-color:#E6E6E6"
   id="stop429" />
			<stop
   offset="0.811"
   style="stop-color:#C8C8C8"
   id="stop431" />
			<stop
   offset="0.8937"
   style="stop-color:#A1A1A1"
   id="stop433" />
			<stop
   offset="0.9596"
   style="stop-color:#888888"
   id="stop435" />
			<stop
   offset="1"
   style="stop-color:#808080"
   id="stop437" />
		</linearGradient>
		<path
   class="st29"
   d="M 24.9,32.4 C 24.7,32.2 24.7,31.9 25,31.6 L 27.6,29 c 0.3,-0.3 0.6,-0.3 0.8,-0.1 l 2.4,2.9 c 0.3,0.5 0.8,1.1 1.2,1.5 L 61.8,62.7 59.2,65.3 29.4,35.9 C 29,35.5 28.3,35 27.9,34.7 Z"
   id="path440"
   style="fill:url(#SVGID_20_)" />
		<path
   class="st30"
   d="m 24.9,32.4 c 0,0 5.2,3.3 6,2.5 0.9,-0.9 -2.6,-6 -2.6,-6 l -1.9,-1.5 -3,3 z"
   id="path442"
   sodipodi:nodetypes="cscccc" />
		<polygon
   class="st31"
   points="24.2,25.7 21.7,28.2 23.4,30.4 26.4,27.4 "
   id="polygon444" />
		<polygon
   points="24.2,25.7 21.7,28.2 23.4,30.4 21.8,28.3 24.2,25.8 26.3,27.4 26.4,27.4 "
   id="polygon446" />
		<path
   class="st6"
   d="m 28.3,28.9 c 0,0 3.4,5 2.5,5.9 -0.8,0.9 -5.9,-2.4 -5.9,-2.4 l -1.5,-1.9 v 0 l 1.5,1.9 c 0,0 5.2,3.3 6,2.5 0.9,-1 -2.6,-6.1 -2.6,-6 l -1.9,-1.5 v 0 z"
   id="path448" />
	</g>
</g>
</svg>
