<?xml version="1.0" encoding="UTF-8" standalone="no"?>
<!-- Generator: Adobe Illustrator 19.0.0, SVG Export Plug-In . SVG Version: 6.00 Build 0)  -->

<svg
   version="1.1"
   id="Layer_1"
   x="0px"
   y="0px"
   viewBox="0 0 508 508"
   style="enable-background:new 0 0 508 508;"
   xml:space="preserve"
   sodipodi:docname="syn_ups.svg"
   inkscape:version="1.1 (c68e22c387, 2021-05-23)"
   xmlns:inkscape="http://www.inkscape.org/namespaces/inkscape"
   xmlns:sodipodi="http://sodipodi.sourceforge.net/DTD/sodipodi-0.dtd"
   xmlns:xlink="http://www.w3.org/1999/xlink"
   xmlns="http://www.w3.org/2000/svg"
   xmlns:svg="http://www.w3.org/2000/svg"><defs
   id="defs81"><linearGradient
     inkscape:collect="always"
     xlink:href="#SVGID_2_"
     id="linearGradient2489"
     x1="-227.00452"
     y1="31.138611"
     x2="151.27524"
     y2="149.55196"
     gradientUnits="userSpaceOnUse" /><linearGradient
     id="SVGID_2_"
     gradientUnits="userSpaceOnUse"
     x1="31.351801"
     y1="81.147903"
     x2="127.9604"
     y2="81.147903"><stop
       offset="0"
       style="stop-color:#000000;stop-opacity:0.36222529"
       id="stop22" /><stop
       offset="1"
       style="stop-color:#000000;stop-opacity:0.11220315"
       id="stop24" /></linearGradient></defs><sodipodi:namedview
   id="namedview79"
   pagecolor="#ffffff"
   bordercolor="#666666"
   borderopacity="1.0"
   inkscape:pageshadow="2"
   inkscape:pageopacity="0.0"
   inkscape:pagecheckerboard="0"
   showgrid="false"
   inkscape:zoom="1.5275591"
   inkscape:cx="276.25772"
   inkscape:cy="280.18556"
   inkscape:window-width="1920"
   inkscape:window-height="979"
   inkscape:window-x="0"
   inkscape:window-y="0"
   inkscape:window-maximized="1"
   inkscape:current-layer="Layer_1" />
<circle
   style="fill:#84e9d9;fill-opacity:1"
   cx="254"
   cy="254"
   id="circle2"
   r="254" /><path
   class="st4"
   d="M 48.99317,265.99502 C 111.73453,225.00912 196.66896,151.91253 151.94544,21.158669 l -382.79932,-56.969123 c 2.83847,93.0763 -1.55121,208.300244 -1.75064,231.303244 z"
   id="path27"
   style="fill:url(#linearGradient2489);fill-opacity:1;stroke:none;stroke-width:0.918535;stroke-miterlimit:10"
   transform="matrix(1,0,0,1.1852452,343.40452,153.49311)"
   sodipodi:nodetypes="ccccc" />
<path
   style="fill:#2B3B4E;"
   d="M389.6,370.8h8.4c3.2,0,6-2.8,6-6v-21.6c0-3.2-2.8-6-6-6h-8.4V370.8z"
   id="path4" />
<path
   style="fill:#324A5E;"
   d="M380.8,397.6H116.4c-6.8,0-12.4-5.6-12.4-12.4v-62.4c0-6.8,5.6-12.4,12.4-12.4h264.4  c6.8,0,12.4,5.6,12.4,12.4v62.4C393.2,392,387.6,397.6,380.8,397.6z"
   id="path6" />
<path
   style="fill:#FFFFFF;"
   d="M110.8,385.2v-62.4c0-2.8,2.4-5.2,5.2-5.2h264.4c2.8,0,5.2,2.4,5.2,5.2v62.4c0,2.8-2.4,5.2-5.2,5.2  h-264C113.2,390.4,110.8,388.4,110.8,385.2z"
   id="path8" />
<g
   id="g14">
	<polygon
   style="fill:#FF7058;"
   points="157.2,324.4 133.6,383.6 118,383.6 118,324.4  "
   id="polygon10" />
	<polygon
   style="fill:#FF7058;"
   points="203.2,324.4 179.6,383.6 141.6,383.6 165.2,324.4  "
   id="polygon12" />
</g>
<path
   style="fill:#2B3B4E;"
   d="M389.6,270.8h8.4c3.2,0,6-2.8,6-6v-21.6c0-3.2-2.8-6-6-6h-8.4V270.8z"
   id="path16" />
<path
   style="fill:#324A5E;"
   d="M380.8,297.6H116.4c-6.8,0-12.4-5.6-12.4-12.4v-62.4c0-6.8,5.6-12.4,12.4-12.4h264.4  c6.8,0,12.4,5.6,12.4,12.4v62.4C393.2,292,387.6,297.6,380.8,297.6z"
   id="path18" />
<path
   style="fill:#FFFFFF;"
   d="M110.8,285.2v-62.4c0-2.8,2.4-5.2,5.2-5.2h264.4c2.8,0,5.2,2.4,5.2,5.2v62.4c0,2.8-2.4,5.2-5.2,5.2  h-264C113.2,290.8,110.8,288.4,110.8,285.2z"
   id="path20" />
<g
   id="g28">
	<polygon
   style="fill:#84DBFF;"
   points="157.2,224.4 133.6,283.6 118,283.6 118,224.4  "
   id="polygon22" />
	<polygon
   style="fill:#84DBFF;"
   points="203.2,224.4 179.6,283.6 141.6,283.6 165.2,224.4  "
   id="polygon24" />
	<polygon
   style="fill:#84DBFF;"
   points="249.6,224.4 226,283.6 188,283.6 211.6,224.4  "
   id="polygon26" />
</g>
<path
   style="fill:#2B3B4E;"
   d="M389.6,170.8h8.4c3.2,0,6-2.8,6-6v-21.6c0-3.2-2.8-6-6-6h-8.4V170.8z"
   id="path30" />
<path
   style="fill:#324A5E;"
   d="M380.8,197.6H116.4c-6.8,0-12.4-5.6-12.4-12.4v-62.4c0-6.8,5.6-12.4,12.4-12.4h264.4  c6.8,0,12.4,5.6,12.4,12.4v62.4C393.2,192,387.6,197.6,380.8,197.6z"
   id="path32" />
<path
   style="fill:#FFFFFF;"
   d="M110.8,185.2v-62.4c0-2.8,2.4-5.2,5.2-5.2h264.4c2.8,0,5.2,2.4,5.2,5.2v62.4c0,2.8-2.4,5.2-5.2,5.2  h-264C113.2,190.8,110.8,188.4,110.8,185.2z"
   id="path34" />
<g
   id="g46">
	<polygon
   style="fill:#4CDBC4;"
   points="157.2,124.4 133.6,183.6 118,183.6 118,124.4  "
   id="polygon36" />
	<polygon
   style="fill:#4CDBC4;"
   points="203.2,124.4 179.6,183.6 141.6,183.6 165.2,124.4  "
   id="polygon38" />
	<polygon
   style="fill:#4CDBC4;"
   points="249.6,124.4 226,183.6 188,183.6 211.6,124.4  "
   id="polygon40" />
	<polygon
   style="fill:#4CDBC4;"
   points="342.8,124.4 319.2,183.6 281.2,183.6 304.8,124.4  "
   id="polygon42" />
	<polygon
   style="fill:#4CDBC4;"
   points="296,124.4 272.4,183.6 234.4,183.6 258,124.4  "
   id="polygon44" />
</g>
<g
   id="g48">
</g>
<g
   id="g50">
</g>
<g
   id="g52">
</g>
<g
   id="g54">
</g>
<g
   id="g56">
</g>
<g
   id="g58">
</g>
<g
   id="g60">
</g>
<g
   id="g62">
</g>
<g
   id="g64">
</g>
<g
   id="g66">
</g>
<g
   id="g68">
</g>
<g
   id="g70">
</g>
<g
   id="g72">
</g>
<g
   id="g74">
</g>
<g
   id="g76">
</g>
</svg>
