<?xml version="1.0" encoding="UTF-8" standalone="no"?>
<svg
   xmlns:dc="http://purl.org/dc/elements/1.1/"
   xmlns:cc="http://creativecommons.org/ns#"
   xmlns:rdf="http://www.w3.org/1999/02/22-rdf-syntax-ns#"
   xmlns:svg="http://www.w3.org/2000/svg"
   xmlns="http://www.w3.org/2000/svg"
   xmlns:sodipodi="http://sodipodi.sourceforge.net/DTD/sodipodi-0.dtd"
   xmlns:inkscape="http://www.inkscape.org/namespaces/inkscape"
   version="1.1"
   id="Calque_1"
   x="0px"
   y="0px"
   viewBox="0 0 128 128"
   style="enable-background:new 0 0 128 128;"
   xml:space="preserve"
   sodipodi:docname="syn_jardin.svg"
   inkscape:export-filename="/home/sebastien/SRC/trunk/Watchdogd/IHM/img/syn_jardin.png"
   inkscape:export-xdpi="96"
   inkscape:export-ydpi="96"
   inkscape:version="1.0.2 (e86c870879, 2021-01-15)"><metadata
   id="metadata276"><rdf:RDF><cc:Work
       rdf:about=""><dc:format>image/svg+xml</dc:format><dc:type
         rdf:resource="http://purl.org/dc/dcmitype/StillImage" /></cc:Work></rdf:RDF></metadata><defs
   id="defs274" /><sodipodi:namedview
   pagecolor="#ffffff"
   bordercolor="#666666"
   borderopacity="1"
   objecttolerance="10"
   gridtolerance="10"
   guidetolerance="10"
   inkscape:pageopacity="0"
   inkscape:pageshadow="2"
   inkscape:window-width="1920"
   inkscape:window-height="983"
   id="namedview272"
   showgrid="false"
   inkscape:zoom="6.203125"
   inkscape:cx="64"
   inkscape:cy="64"
   inkscape:window-x="0"
   inkscape:window-y="0"
   inkscape:window-maximized="1"
   inkscape:current-layer="Calque_1" />
<style
   type="text/css"
   id="style2">
	.st0{fill:#4B753C;}
	.st1{fill:#347318;}
	.st2{fill:#675C1C;}
	.st3{fill:#38D100;}
	.st4{fill:#E6F4F7;}
	.st5{opacity:0.58;fill:url(#SVGID_1_);enable-background:new    ;}
	.st6{opacity:0.58;fill:url(#SVGID_2_);enable-background:new    ;}
	.st7{fill:#D4145A;}
	.st8{fill:#9E005D;}
	.st9{fill:#A5C715;}
	.st10{fill:#009E3E;}
	.st11{fill:#73B634;}
	.st12{fill:#006837;}
	.st13{fill:#80C441;}
	.st14{fill:#76A42B;}
	.st15{fill:#603813;}
	.st16{fill:#4B5419;}
	.st17{fill:#754C24;}
	.st18{fill:#8C6239;}
	.st19{fill:#4AA32E;}
	.st20{fill:#398425;}
	.st21{fill:#3A8425;}
	.st22{fill:#736357;}
	.st23{fill:#42210B;}
</style>
<g
   id="Calque_6">
	<g
   id="g268">
		<path
   class="st0"
   d="M22.3,122.9"
   id="path4" />
		<path
   class="st1"
   d="M32.1,52.1c-1.9-1.2-3.8-1.7-5-1c0.8,1.9,1.8,3.2,3.3,4s3.2,1,5,1C35.3,54.9,34,53.3,32.1,52.1z"
   id="path6" />
		<path
   class="st2"
   d="M26.4,59.9c-1.2,1.9-1.6,3.7-0.9,4.8c1.9-0.9,3.2-1.9,4-3.3c0.8-1.5,0.9-3.1,0.9-4.9    C29.2,56.7,27.6,58,26.4,59.9z"
   id="path8" />
		<g
   id="g266">
			<path
   class="st3"
   d="M49.2,79.4c-0.9-1.3-2-2-2.9-1.9c0,1.4,0.3,2.5,1.1,3.4c0.7,0.9,1.8,1.5,2.9,2C50.4,82,50.1,80.6,49.2,79.4z     "
   id="path10" />
			<path
   class="st3"
   d="M66.3,81.4c-1.3,0.9-2.1,2-2,2.9c1.4,0,2.5-0.3,3.4-1s1.5-1.8,2-2.9C68.9,80.2,67.6,80.5,66.3,81.4z"
   id="path12" />
			<path
   class="st4"
   d="M128,64c0,35.3-28.6,64-64,64C28.7,128,0,99.3,0,64S28.7,0,64,0S128,28.7,128,64z"
   id="path14" />
			
				<linearGradient
   id="SVGID_1_"
   gradientUnits="userSpaceOnUse"
   x1="0"
   y1="64"
   x2="128"
   y2="64"
   gradientTransform="matrix(1 0 0 -1 0 128)">
				<stop
   offset="3.888575e-04"
   style="stop-color:#00E9DF;stop-opacity:0"
   id="stop16" />
				<stop
   offset="1"
   style="stop-color:#AFD5D5"
   id="stop18" />
			</linearGradient>
			<path
   class="st5"
   d="M128,64c0,35.3-28.6,64-64,64S0,99.3,0,64S28.6,0,64,0C99.3,0,128,28.7,128,64z"
   id="path21" />
			
				<linearGradient
   id="SVGID_2_"
   gradientUnits="userSpaceOnUse"
   x1="135.9155"
   y1="32.8906"
   x2="58.9329"
   y2="65.6303"
   gradientTransform="matrix(1 0 0 -1 0 128)">
				<stop
   offset="3.888575e-04"
   style="stop-color:#00E9DF;stop-opacity:0"
   id="stop23" />
				<stop
   offset="0.9996"
   style="stop-color:#00A3C8"
   id="stop25" />
			</linearGradient>
			<path
   class="st6"
   d="M50,43.6l-5.5,6.8l11.9,14.5l16.8,48.6l14.1-2.9l13.3,5.9c23.3-16.7,31.4-44.2,25.3-68.3l-43-20.7L50,43.6z"
   id="path28" />
			<g
   id="g34">
				<path
   class="st7"
   d="M42.8,109c-0.1-1.1-0.1-1.2,0.1-2.3c0.1-0.4,0.3-0.8,0.5-1.1c0-0.1,0.1-0.1,0.1-0.2      c0.2-0.3,0.5-0.6,0.7-0.9c0.4-0.5,1.4-1,2.1-1.1c0.8-0.2,1.6-0.1,2.3,0.1s1.4,0.7,1.9,1.2c0.3,0.3,0.4,0.5,0.6,0.8      c0.1,0.1,0.2,0.3,0.2,0.4c0.2,0.5,0.4,0.9,0.4,1.3c0.2,0.8,0.1,1.7-0.1,2.5c-0.2,0.8-0.7,1.3-1.2,1.9c-0.4,0.5-1.5,1-2.1,1.1      c-0.1,0-0.1,0-0.2,0c-0.3,0.1-0.5,0.1-0.8,0.1s-0.5,0-0.8-0.1c-0.3,0-0.5-0.1-0.8-0.2c-1.1-0.4-2.1-1.2-2.7-2.3      C43,109.9,42.9,109.4,42.8,109z"
   id="path30" />
				<path
   class="st8"
   d="M42.8,109c0-0.4-0.1-0.6-0.1-0.9c0.3,0.9,0.9,1.7,1.7,2.1c0.8,0.5,1.8,0.8,2.8,0.7c0.8,0,1.7-0.3,2.3-0.9      s1.2-1.4,1.3-2.2c0.2-1.1,0.2-2.1-0.3-3.1c0-0.1-0.1-0.1-0.1-0.2c0.1,0.1,0.2,0.1,0.2,0.2c0.3,0.3,0.4,0.5,0.6,0.8      c0.1,0.1,0.2,0.3,0.2,0.4c0.2,0.5,0.4,0.9,0.4,1.3c0.2,0.8,0.1,1.7-0.1,2.5c-0.2,0.8-0.7,1.3-1.2,1.9c-0.4,0.5-1.5,1-2.1,1.1      c-0.1,0-0.1,0-0.2,0c-0.3,0.1-0.5,0.1-0.8,0.1s-0.5,0-0.8-0.1c-0.3,0-0.5-0.1-0.8-0.2c-1.1-0.4-2.1-1.2-2.7-2.3      C43,109.9,42.9,109.4,42.8,109z"
   id="path32" />
			</g>
			<g
   id="g52">
				<path
   class="st9"
   d="M49.1,109.6c0-0.3,0-0.6,0.1-0.9v0.1c0.1,0.4,0.1,0.8,0.2,1.3C49.3,109.9,49.2,109.7,49.1,109.6z       M54.3,108.7c0,0.9-0.1,1.7-0.1,2.6c-0.1-0.7-0.2-1.3-0.3-1.9c0.1-0.4,0.3-0.8,0.5-1.1C54.3,108.4,54.3,108.5,54.3,108.7z       M60.7,111.1c-0.1-0.1-0.1-0.2-0.2-0.2c0-0.4,0-0.9,0.1-1.3c0.1,0.4,0.1,0.9,0.2,1.3C60.8,110.9,60.7,111,60.7,111.1z M72,108.5      c0-0.3,0-0.6,0.1-0.9v0.1c0.1,0.4,0.1,0.8,0.2,1.3C72.2,108.9,72.1,108.7,72,108.5z M83.6,110c-0.1-0.1-0.1-0.2-0.2-0.2      c0-0.4,0-0.9,0.1-1.3c0.1,0.4,0.1,0.9,0.2,1.3C83.7,109.9,83.6,109.9,83.6,110z"
   id="path36" />
				<path
   class="st10"
   d="M71.9,111C71.9,111,71.9,110.9,71.9,111C71.9,110.9,71.9,111,71.9,111L71.9,111z"
   id="path38" />
				<path
   class="st10"
   d="M71.7,112.3L71.7,112.3L71.7,112.3L71.7,112.3z"
   id="path40" />
				<path
   class="st11"
   d="M89.2,109c-0.7,0.5-1.4,1-1.8,1.6c0-0.7,0.1-1.4,0.2-2.1h-0.1c-0.2,0.6-0.5,1.1-0.7,1.6      c-0.1-0.7-0.3-1.4-0.8-2c0,0-0.1,0,0,0c0.2,0.5,0,1-0.1,1.5c0,0,0,0,0,0.1c-0.2-0.4-0.4-0.8-0.6-1.1h-0.1      c0.2,0.5,0.2,1.1,0.1,1.7c-0.1-0.4-0.4-0.9-0.7-1.3c-0.2-0.2-0.7-0.6-1.1-0.7l0,0c0.5,0.3,0.5,1,0.6,1.4      c0.1,0.2,0.1,0.5,0.1,0.7l0,0c-0.2-0.2-0.3-0.4-0.5-0.6c0-0.3,0.1-0.6,0.2-0.9c0,0,0,0-0.1,0c-0.1,0.2-0.2,0.4-0.3,0.7l0,0l0,0      c-0.3,0.5-0.5,1-0.7,1.6c0-0.6,0-1.3,0-1.9l0,0c-0.1,0.5-0.5,0.9-0.6,1.3c0,0.1-0.1,0.2-0.1,0.4c0-1,0-2.1,0.2-3.1      c0,0,0,0-0.1,0c-0.4,0.9-0.7,1.8-0.9,2.8c-0.2-0.7-0.5-1.4-0.8-2.2h-0.1c0.1,0.9,0.1,1.8,0,2.7h-0.1c0-0.3-0.1-0.6-0.1-0.9h-0.1      c0,0.3-0.1,0.6-0.2,0.9c-0.1,0-0.2,0-0.2,0c0-1.2-0.2-2.4,0.1-3.6h-0.1c-0.5,1-0.7,1.9-0.9,2.8c-0.1-0.6-0.3-1.1-0.3-1.7h-0.1      c0,0.3,0,0.5-0.1,0.8c-0.1-0.7-0.4-1.4-0.8-2.1c0,0-0.1,0,0,0c0.1,0.5,0,1,0,1.5c-0.2,0.2-0.5,0.3-0.7,0.5      c-0.3-0.7-0.7-1.3-1.2-1.9c0,0-0.1,0,0,0c0.5,0.7,0.8,1.5,0.9,2.2c-0.1,0.1-0.2,0.2-0.3,0.2c-0.1-0.1-0.2-0.2-0.4-0.2      c0-0.5,0.1-0.9,0.1-1.4h-0.1c-0.1,0.4-0.3,0.8-0.5,1.1c-0.1,0-0.2-0.1-0.3-0.1c-0.1-0.5-0.4-1-0.7-1.4c0,0-0.1,0,0,0      c0.2,0.5,0,1-0.1,1.5c0,0,0,0,0,0.1c-0.2-0.4-0.4-0.8-0.6-1.1h-0.1c0.2,0.5,0.2,1.1,0.1,1.7c-0.1-0.4-0.4-0.9-0.7-1.3      c-0.2-0.2-0.7-0.6-1.1-0.7c0-0.2,0.1-0.4,0.1-0.6c0,0,0,0-0.1,0c-0.4,0.8-0.8,1.5-1.1,2.3c0-0.6,0-1.3,0-1.9l0,0      c-0.1,0.5-0.5,0.9-0.6,1.3c0,0.1-0.1,0.2-0.1,0.4c0-1,0-2.1,0.2-3.1c0,0,0,0-0.1,0c-0.4,0.9-0.7,1.8-0.9,2.8      c-0.2-0.7-0.5-1.4-0.8-2.2h-0.1c0.2,1.1,0.1,2.1,0,3.2c-0.1-0.4-0.2-0.9-0.2-1.3H68c-0.1,0.5-0.2,0.9-0.4,1.4      c0,0.2-0.1,0.3-0.1,0.5c0-0.2,0-0.4,0-0.6c0-1.3-0.3-2.7,0.1-4h-0.1c-0.5,1-0.7,1.9-0.9,2.8c-0.1-0.6-0.3-1.1-0.3-1.7h-0.1      c0,0.3,0,0.5-0.1,0.8c-0.1-0.7-0.4-1.4-0.8-2.1c0,0-0.1,0,0,0c0.2,0.6,0,1.3-0.1,1.9c0,0.6-0.1,1.1-0.1,1.7      c-0.3-1.3-0.7-2.4-1.8-3.6c0,0-0.1,0,0,0c0.6,0.9,0.9,1.9,1.1,2.8l-0.1-0.1c-0.2-0.2-0.7-0.6-1.2-0.8c-0.2-0.2-0.5-0.3-0.8-0.4      h-0.1c0.4,0.4,0.6,0.9,0.7,1.4c-0.3-0.4-0.7-0.8-1.3-0.8c0,0-0.1,0,0,0l0,0l0,0c0.1,0.1,0.2,0.2,0.2,0.3      c0.1,0.2,0.2,0.4,0.2,0.5c0.1,0.3,0.2,0.7,0.3,1c0,0.1,0,0.2,0,0.3c-0.1-0.4-0.3-0.7-0.7-1.1c-0.2-0.2-0.7-0.6-1.1-0.7l0,0      c0.5,0.3,0.5,1,0.6,1.4c0.1,0.2,0.1,0.5,0.1,0.7l0,0c-0.2-0.2-0.3-0.4-0.5-0.6c0-0.3,0.1-0.6,0.2-0.9c0,0,0,0-0.1,0      c-0.1,0.2-0.2,0.4-0.3,0.7l0,0l0,0c-0.3,0.5-0.5,1-0.7,1.6c0-0.6,0-1.3,0-1.9l0,0c-0.1,0.5-0.5,0.9-0.6,1.3      c0,0.1-0.1,0.2-0.1,0.4c0-1,0-2.1,0.2-3.1c0,0,0,0-0.1,0c-0.4,0.9-0.7,1.8-0.9,2.8c-0.2-0.7-0.5-1.4-0.8-2.2h-0.1      c0.2,1.1,0.1,2.1,0,3.2c0-0.2-0.1-0.5-0.1-0.7c0.1-0.5-0.1-1.1-0.1-1.6l0,0c0-0.1,0-0.2,0-0.2s0,0-0.1,0      c-0.1,0.3-0.3,0.5-0.5,0.8c0-0.8-0.1-1.6,0.1-2.3h-0.1c-0.5,1-0.7,1.9-0.9,2.8c-0.1-0.6-0.3-1.1-0.3-1.7h-0.1      c0,0.3,0,0.5-0.1,0.8c-0.1-0.7-0.4-1.4-0.8-2.1c0,0-0.1,0,0,0c0.1,0.5,0,1,0,1.5c-0.2,0.2-0.5,0.3-0.7,0.5      c-0.3-0.7-0.7-1.3-1.2-1.9c0,0-0.1,0,0,0c0.5,0.7,0.8,1.5,0.9,2.2c-0.1,0.1-0.2,0.2-0.3,0.2c-0.1-0.1-0.2-0.2-0.4-0.2      c0-0.5,0.1-0.9,0.1-1.4h-0.1c-0.1,0.4-0.3,0.8-0.5,1.1c-0.1,0-0.2-0.1-0.3-0.1c-0.1-0.5-0.4-1-0.7-1.4c0,0-0.1,0,0,0      c0.2,0.5,0,1-0.1,1.5c0,0,0,0,0,0.1c-0.2-0.4-0.4-0.8-0.6-1.1h-0.1c0.2,0.5,0.2,1.1,0.1,1.7c-0.1-0.4-0.4-0.9-0.7-1.3      c-0.2-0.2-0.7-0.6-1.1-0.7c0-0.2,0.1-0.4,0.1-0.6c0,0,0,0-0.1,0c-0.4,0.8-0.8,1.5-1.1,2.3c0-0.6,0-1.3,0-1.9l0,0      c-0.1,0.5-0.5,0.9-0.6,1.3c0,0.1-0.1,0.2-0.1,0.4c0-1,0-2.1,0.2-3.1c0,0,0,0-0.1,0c-0.4,0.9-0.7,1.8-0.9,2.8      c-0.2-0.7-0.5-1.4-0.8-2.2h-0.1c0.2,1.1,0.1,2.1,0,3.2c0-0.2-0.1-0.3-0.1-0.5c0-0.1,0-0.1,0-0.2c0-0.4,0.1-0.9-0.2-1.3l0,0l0,0      l0,0c-0.1,0.1-0.3,0.7-0.3,0.8c0,0.1-0.1,0.2-0.1,0.3c0-1.1-0.2-2.3,0.1-3.3h-0.1c-0.5,1-0.7,1.9-0.9,2.8      c-0.1-0.6-0.3-1.1-0.3-1.7h-0.1c0,0.3,0,0.5-0.1,0.8c-0.1-0.7-0.4-1.4-0.8-2.1c0,0-0.1,0,0,0c0.2,0.6,0,1.3-0.1,1.9      c0,0.6-0.1,1.1-0.1,1.7c-0.3-1.3-0.7-2.4-1.8-3.6c0,0-0.1,0,0,0c0.6,0.9,0.9,1.9,1.1,2.8l-0.1-0.1c-0.3-0.3-1.2-0.8-1.7-0.9l0,0      l0,0c0,0-0.1,0,0,0c1.1,0.8,1.4,1.9,1.6,3c0.1,0.3,0.1,0.5,0.1,0.9h46.5c0-0.3,0-0.5,0.1-0.8C88,110.9,88.5,109.8,89.2,109      C89.3,109,89.2,109,89.2,109z M48.8,110.4c-0.1-0.1-0.1-0.1-0.1-0.2c0,0-0.1,0,0,0c0,0.1,0.1,0.2,0.1,0.3      c-0.1,0.1-0.1,0.2-0.2,0.3c0-0.6,0.1-1.3,0.2-1.9c0.3,0.2,0.4,0.6,0.4,0.9C49,110,48.9,110.2,48.8,110.4z M49.1,110.8      c0-0.2,0-0.4,0.1-0.6v0.1c0.1,0.3,0.1,0.5,0.2,0.8C49.3,111,49.2,110.9,49.1,110.8z M54.3,110.2c0,0.6-0.1,1.1-0.1,1.7      c-0.1-0.4-0.2-0.8-0.3-1.2c0.1-0.3,0.3-0.5,0.5-0.7C54.3,110,54.3,110.1,54.3,110.2z M60.7,111.7c-0.1-0.1-0.1-0.1-0.2-0.2      c0-0.3,0-0.6,0.1-0.8c0.1,0.3,0.1,0.6,0.2,0.8C60.8,111.6,60.7,111.7,60.7,111.7z M71.7,109.7c-0.1-0.1-0.1-0.1-0.1-0.2      c0,0-0.1,0,0,0c0,0.1,0.1,0.2,0.1,0.3c-0.1,0.1-0.1,0.2-0.2,0.3c0-0.6,0.1-1.3,0.2-1.9c0.3,0.2,0.4,0.6,0.4,0.9      C71.9,109.3,71.8,109.5,71.7,109.7z M72,110.1c0-0.2,0-0.4,0.1-0.6v0.1c0.1,0.3,0.1,0.5,0.2,0.8C72.2,110.3,72.1,110.2,72,110.1      z M77.2,109.5c0,0.6-0.1,1.1-0.1,1.7c-0.1-0.4-0.2-0.8-0.3-1.2c0.1-0.3,0.3-0.5,0.5-0.7C77.2,109.3,77.2,109.4,77.2,109.5z       M83.6,111c-0.1-0.1-0.1-0.1-0.2-0.2c0-0.3,0-0.6,0.1-0.8c0.1,0.3,0.1,0.6,0.2,0.8C83.7,110.9,83.6,111,83.6,111z"
   id="path42" />
				<g
   id="g48">
					<path
   class="st12"
   d="M70.5,112.9l15.9-0.1c0,0,0.8,0.1,1.2-0.1c0.8-0.5,0.5-1.8,1.5-2.5l0,0l0,0l0,0c-0.6,0-1.4,0.5-1.7,0.8       l-0.1,0.1c0.2-0.8,0.5-1.7,1.1-2.5l0,0c-1,1-1.5,2-1.8,3.1c-0.1-0.5-0.1-1-0.1-1.5s-0.2-1.2-0.1-1.7l0,0       c-0.5,0.6-0.7,1.2-0.8,1.8c0-0.2-0.1-0.5-0.1-0.7h-0.1c0,0.5-0.2,1-0.3,1.5c-0.2-0.8-0.5-1.7-0.9-2.5h-0.1       c0.3,0.9,0.1,2,0.1,2.9c0-0.1-0.1-0.2-0.1-0.3c-0.1-0.1-0.2-0.7-0.3-0.7l0,0l0,0l0,0c-0.3,0.3-0.2,0.8-0.2,1.1v0.1       c0,0.1-0.1,0.3-0.1,0.4c-0.1-0.9-0.2-1.9,0-2.8c0,0,0,0-0.1,0c-0.3,0.6-0.6,1.3-0.8,1.9c-0.2-0.8-0.5-1.6-0.9-2.4h-0.1       c0.2,0.9,0.2,1.8,0.2,2.7c0-0.1-0.1-0.2-0.1-0.3c-0.1-0.4-0.5-0.8-0.6-1.2l0,0c0,0.5,0,1.1,0,1.6c-0.3-0.7-0.7-1.3-1.1-2h-0.1       c0,0.2,0.1,0.3,0.1,0.5c-0.4,0.1-0.9,0.4-1.1,0.6c-0.4,0.3-0.6,0.7-0.7,1.1c0-0.5-0.1-1,0.1-1.5c0,0,0,0-0.1,0       c-0.2,0.3-0.4,0.6-0.6,1l0,0c-0.1-0.4-0.3-0.9-0.1-1.3l0,0c-0.4,0.4-0.6,0.8-0.7,1.3c-0.1,0-0.2,0.1-0.3,0.1       c-0.2-0.3-0.4-0.6-0.5-1h-0.1c0.1,0.4,0.1,0.8,0.1,1.2c-0.1,0.1-0.3,0.1-0.4,0.2c-0.1-0.1-0.2-0.1-0.3-0.2       c0.2-0.7,0.5-1.3,0.9-1.9l0,0c-0.6,0.6-1,1.1-1.2,1.7c-0.2-0.1-0.4-0.3-0.7-0.4c-0.1-0.4-0.1-0.9,0-1.3l0,0       c-0.5,0.6-0.7,1.2-0.8,1.8c0-0.2-0.1-0.5-0.1-0.7h-0.1c0,0.5-0.2,1-0.3,1.5c-0.2-0.8-0.5-1.7-0.9-2.5H72c0.2,0.7,0.2,1.3,0.1,2       c-0.2-0.2-0.3-0.4-0.5-0.7h-0.1c0,0.1,0,0.1,0,0.2l0,0c-0.1,0.4-1,0.9-1,1.4C70.6,112.7,70.5,112.8,70.5,112.9z M80,110.2       c0.1,0.6,0.1,1.1,0.2,1.7c-0.1-0.1-0.1-0.2-0.2-0.3c0-0.1,0.1-0.2,0.1-0.2l0,0c0,0.1-0.1,0.1-0.1,0.2c-0.1-0.2-0.2-0.3-0.4-0.5       C79.6,110.7,79.7,110.4,80,110.2z M79.5,111.4L79.5,111.4c0,0.1,0.1,0.3,0.1,0.4c-0.1,0.1-0.2,0.2-0.2,0.3       C79.4,111.9,79.4,111.7,79.5,111.4z M74.9,111.8c-0.1,0.3-0.3,0.7-0.3,1.1c-0.1-0.5-0.1-1-0.1-1.5c0-0.1,0-0.2,0-0.2       C74.6,111.3,74.7,111.5,74.9,111.8z"
   id="path44" />
					<path
   class="st12"
   d="M40,112.8h30.4c-0.1-0.8-0.1-1.6,0-2.4c0,0,0,0-0.1,0c-0.3,0.6-0.6,1.3-0.8,1.9c-0.2-0.8-0.5-1.6-0.9-2.4       h-0.1c0.2,0.9,0.2,1.8,0.2,2.7c0-0.1-0.1-0.2-0.1-0.3c-0.1-0.4-0.5-0.8-0.6-1.2l0,0c0,0.5,0,1.1,0,1.6       c-0.2-0.5-0.5-0.9-0.7-1.4l0,0l0,0c-0.1-0.2-0.2-0.4-0.3-0.6h-0.1c0.1,0.3,0.1,0.5,0.2,0.8c-0.2,0.2-0.4,0.3-0.5,0.5l0,0       c0-0.2,0.1-0.4,0.1-0.6c0.1-0.3,0.1-1,0.6-1.2l0,0c-0.4,0.1-0.9,0.4-1.1,0.6c-0.3,0.3-0.5,0.6-0.7,1c0-0.1,0-0.2,0-0.3       c0.1-0.3,0.1-0.6,0.3-0.9c0.1-0.2,0.1-0.3,0.2-0.5c0.1-0.1,0.1-0.2,0.2-0.2l0,0l0,0l0,0c-0.5,0.1-1,0.4-1.3,0.7       c0.1-0.4,0.3-0.8,0.7-1.2c0,0,0,0-0.1,0c-0.3,0.1-0.6,0.2-0.8,0.3c-0.5,0.2-1,0.5-1.2,0.7l-0.1,0.1c0.2-0.8,0.5-1.7,1.1-2.5       l0,0c-1,1-1.5,2-1.8,3.1c-0.1-0.5-0.1-1-0.1-1.5s-0.2-1.2-0.1-1.7l0,0c-0.5,0.6-0.7,1.2-0.8,1.8c0-0.2-0.1-0.5-0.1-0.7h-0.1       c0,0.5-0.2,1-0.3,1.5c-0.2-0.8-0.5-1.7-0.9-2.5h-0.1c0.3,1.1,0.1,2.3,0.1,3.5c0,0.2,0,0.4,0,0.5c0-0.1-0.1-0.3-0.1-0.4       c-0.1-0.4-0.3-0.8-0.4-1.2h-0.1c0,0.4-0.1,0.8-0.2,1.2c-0.1-0.9-0.2-1.9,0-2.8c0,0,0,0-0.1,0c-0.3,0.6-0.6,1.3-0.8,1.9       c-0.2-0.8-0.5-1.6-0.9-2.4h-0.1c0.2,0.9,0.2,1.8,0.2,2.7c0-0.1-0.1-0.2-0.1-0.3c-0.1-0.4-0.5-0.8-0.6-1.2l0,0       c0,0.5,0,1.1,0,1.6c-0.3-0.7-0.7-1.3-1.1-2h-0.1c0,0.2,0.1,0.3,0.1,0.5c-0.4,0.1-0.9,0.4-1.1,0.6c-0.4,0.3-0.6,0.7-0.7,1.1       c0-0.5-0.1-1,0.1-1.5c0,0,0,0-0.1,0c-0.2,0.3-0.4,0.6-0.6,1l0,0c-0.1-0.4-0.3-0.9-0.1-1.3l0,0c-0.4,0.4-0.6,0.8-0.7,1.3       c-0.1,0-0.2,0.1-0.3,0.1c-0.2-0.3-0.4-0.6-0.5-1h-0.1c0.1,0.4,0.1,0.8,0.1,1.2c-0.1,0.1-0.3,0.1-0.4,0.2       c-0.1-0.1-0.2-0.1-0.3-0.2c0.2-0.7,0.5-1.3,0.9-1.9l0,0c-0.6,0.6-1,1.1-1.2,1.7c-0.2-0.1-0.4-0.3-0.7-0.4       c-0.1-0.4-0.1-0.9,0-1.3l0,0c-0.5,0.6-0.7,1.2-0.8,1.8c0-0.2-0.1-0.5-0.1-0.7h-0.1c0,0.5-0.2,1-0.3,1.5       c-0.2-0.8-0.5-1.7-0.9-2.5H48c0.3,1,0.1,2.1,0.1,3.2c-0.1,0-0.2,0-0.2,0c-0.1-0.3-0.2-0.5-0.2-0.8h-0.1c0,0.3-0.1,0.5-0.1,0.8       h-0.1c-0.1-0.8-0.1-1.6,0-2.4c0,0,0,0-0.1,0c-0.3,0.6-0.6,1.3-0.8,1.9c-0.2-0.8-0.5-1.6-0.9-2.4h-0.1c0.2,0.9,0.2,1.8,0.2,2.7       c0-0.1-0.1-0.2-0.1-0.3c-0.1-0.4-0.5-0.8-0.6-1.2l0,0c0,0.5,0,1.1,0,1.6c-0.2-0.5-0.5-0.9-0.7-1.4l0,0l0,0       c-0.1-0.2-0.2-0.4-0.3-0.6h-0.1c0.1,0.3,0.1,0.5,0.2,0.8c-0.2,0.2-0.4,0.3-0.5,0.5l0,0c0-0.2,0.1-0.4,0.1-0.6       c0.1-0.3,0.1-1,0.6-1.2l0,0c-0.4,0.1-0.9,0.4-1.1,0.6c-0.4,0.3-0.6,0.7-0.7,1.1c0-0.5-0.1-1,0.1-1.5c0,0,0,0-0.1,0       c-0.2,0.3-0.4,0.6-0.6,1l0,0c-0.1-0.4-0.3-0.9-0.1-1.3l0,0c-0.5,0.6-0.8,1.2-0.8,1.8c-0.2-0.5-0.5-0.9-0.7-1.4h-0.1       c0.1,0.6,0.1,1.2,0.2,1.8c-0.4-0.5-1.1-0.9-1.8-1.4h-0.1C39.3,110.9,39.8,111.9,40,112.8C40,112.7,40,112.8,40,112.8z        M67.2,111.7c0,0.2,0.1,0.5,0.1,0.7c-0.1,0-0.1,0.1-0.2,0.1l-0.1-0.1C67.1,112.2,67.1,112,67.2,111.7z M56.2,109.5       c0.1,0.6,0.1,1.1,0.2,1.7c-0.1-0.1-0.1-0.2-0.2-0.3c0-0.1,0.1-0.2,0.1-0.2l0,0c0,0.1-0.1,0.1-0.1,0.2c-0.1-0.2-0.2-0.3-0.4-0.5       C55.8,110,56,109.7,56.2,109.5z M55.7,110.7L55.7,110.7c0,0.1,0.1,0.3,0.1,0.4c-0.1,0.1-0.2,0.2-0.2,0.3       C55.6,111.2,55.6,111,55.7,110.7z M51.1,111.1c-0.1,0.3-0.3,0.7-0.3,1.1c-0.1-0.5-0.1-1-0.1-1.5c0-0.1,0-0.2,0-0.2       C50.8,110.6,50.9,110.8,51.1,111.1z M44.3,111.1c0,0.2,0.1,0.5,0.1,0.7c-0.1,0-0.1,0.1-0.2,0.1l-0.1-0.1       C44.2,111.6,44.2,111.4,44.3,111.1z"
   id="path46" />
				</g>
				<path
   class="st10"
   d="M49,111.7L49,111.7L49,111.7L49,111.7z"
   id="path50" />
			</g>
			<ellipse
   class="st12"
   cx="59.5"
   cy="111.3"
   rx="5.4"
   ry="2.3"
   id="ellipse54" />
			<ellipse
   class="st12"
   cx="67.2"
   cy="111.7"
   rx="3.5"
   ry="1.4"
   id="ellipse56" />
			<ellipse
   class="st12"
   cx="71.5"
   cy="111.3"
   rx="4.9"
   ry="2.3"
   id="ellipse58" />
			<g
   id="g262">
				<g
   id="g66">
					<g
   id="g64">
						<path
   class="st13"
   d="M106.3,41.3c-3-2.8-6.7-3.9-10.5-3.8c-0.4-1.7-1.3-3.3-2.3-4.3c-0.9-0.9-2.2-1.4-3.4-1.7        c0-8.8-6.7-17.6-14.6-20.8C67.7,7.5,59.4,9,53.3,13.8c-4.3-2.5-11.1-0.3-14.4,3c-3,3-4.5,8-3.4,12.3c-1.4-0.3-2.9,0.2-3.8,1.5        c-0.5,0.7-0.8,1.7-0.8,2.7c-7.8-1.3-15.2,7.5-17,14.3c-1.7,6.3,1.1,14.8,7.6,16.8c1,4,4.1,7.7,7.6,9.3C32,75,37,74.5,40,72.2        c0.9,1.7,2.8,3.1,4.8,2.8c0.8-0.1,1.8-0.6,2.4-1.3c1.7,1.3,3.9,2.2,6,2.8c4.2,1.4,9.9,1.9,14.4,0.3c0.4,0.4,0.9,0.7,1.3,0.9        c2.3,1.2,4.9,0.1,6.5-1.9c1.7,1.3,3.8,1.9,6.1,1.5c3.9-0.7,6.4-3.4,7.8-6.8c8.2,1.4,17.4-4.1,20.6-12.4        C112.2,52.4,111.2,45.8,106.3,41.3z"
   id="path60" />
						<path
   class="st14"
   d="M107.1,63.3c-6.6,3.3-12.4-1.6-12.4-1.6C87.8,67.9,81,60.9,81,60.9c-6,3.1-9.9-4.1-9.9-4.1        c-13,7.9-16.8-3.8-16.8-3.8s-6.8,6.2-11.4-2.1s4.5-13.6,4.5-13.6s-6,0.7-7.5-10.9c-1.2-8.9,5.3-12.4,8.3-13.5        c-3.5,0.2-7.1,1.9-9.3,4.1c-3,3-4.5,8-3.4,12.3c-1.4-0.3-2.9,0.2-3.8,1.5c-0.5,0.7-0.8,1.7-0.8,2.7c-7.8-1.3-15.2,7.5-17,14.3        c-1.7,6.3,1.1,14.8,7.6,16.8c1,4,4.1,7.7,7.6,9.3C32,75.2,37,74.7,40,72.4c0.9,1.7,2.8,3.1,4.8,2.8c0.8-0.1,1.8-0.6,2.4-1.3        c1.7,1.3,3.9,2.2,6,2.8c4.2,1.4,9.9,1.9,14.4,0.3c0.4,0.4,0.9,0.7,1.3,0.9c2.3,1.2,4.9,0.1,6.5-1.9c1.7,1.3,3.8,1.9,6.1,1.5        c3.9-0.7,6.4-3.4,7.8-6.8C95.7,71.9,102.8,68.8,107.1,63.3z"
   id="path62" />
					</g>
				</g>
				<g
   id="g172">
					<g
   id="g170">
						<path
   class="st15"
   d="M62.7,96.7l0.1,0.7l0.5,3.4l-1,2.8c0,0-1,1.9-1.1,2.1s-2.1,1.3-2.1,1.3l-1.9,1l-0.7,0.1l-0.2-0.8l5-6.1        L62.7,96.7z"
   id="path68" />
						<g
   id="g74">
							<g
   id="g72">
								<path
   class="st16"
   d="M49.5,62.5c0.2-0.4,0.5-0.7,0.8-1.1c0.2,0,0.2,0.2,0.2,0.3c0.1,0.5,0,1.1-0.4,1.5          c-0.2,0.2-0.4,0.2-0.7,0.2C49.4,63.1,49.3,62.8,49.5,62.5z"
   id="path70" />
							</g>
						</g>
						<g
   id="g98">
							<g
   id="g78">
								<path
   class="st17"
   d="M72.4,52.8c0.3-0.4,0.6-0.8,0.9-1.2c0.2,0.4-0.1,0.8-0.2,1.2c-0.2,0.7-0.5,1.3-0.7,2          c-0.2,0.8-0.8,1.4-1.2,2c-0.3,0.4-0.3,0.8-0.4,1.2c-0.1,0.5-0.1,0.9-0.1,1.4c-0.4,0.3-0.5,0.7-0.6,1.2          c-0.2,1.1,0.1,2.2,0.2,3.3c0.1,0.7,0,1.3,0,2c0.1,1.3,0,2.6-0.1,4c0,0.4-0.2,0.8-0.3,1.2c0,0.4,0.5,0.5,0.8,0.3          c0.2-0.2,0.3-0.6,0.5-0.9c0.3-0.3,0.5-0.6,0.7-0.9c0.7-0.2,1.3-0.7,1.8-1.3c0.6-0.9,1.6-1.4,2.3-2.3          c0.6-0.7,1.5-1.3,1.7-2.2c0.1-0.7,0.1-1.4,0.3-2.1c0.3-1,1-1.7,1.4-2.6c0.2-0.8,0.1-1.7,0.1-2.5c0-0.2,0-0.6,0.3-0.6          c0.1,0,0.2,0.2,0.2,0.3c0.2,0.8,0.2,1.6,0.4,2.4c0.2,0.7-0.3,1.3-0.6,1.9c-0.5,1-0.5,2.2-0.2,3.3c0.1,0.3,0.2,0.7,0.3,1          c0,0.2,0.2,0.3,0.3,0.2c0.4-0.1,0.9-0.2,1.3-0.6c0.6-0.1,1.3-0.3,1.8-0.7c1.3-1.1,2.5-2.2,3.9-3.2c0.4-0.3,0.8-0.6,1.1-1          c0.5-0.5,1-0.8,1.5-1.3c0.3-0.3,0.7-0.6,1.2-0.8c-0.7,1-1.5,1.9-2.2,3c-1.2,2-2.4,4-4,5.7c-0.7,0.9-1.7,1.7-2.7,2.2          c-0.5,0.3-1.1,0.6-1.6,0.9c-0.6,0.4-1.3,0.8-1.8,1.4c-1.9,2.2-3.8,4.3-5.9,6.2c-0.5,0.4-0.7,0.9-1,1.5c-0.5,1-1,2-1.1,3.1          c-0.4,2-0.7,4-1.1,6.1c-0.2,2.4-0.2,4.8,0.1,7.1c0.1,1.3,0.2,2.7,0.5,4c0.2,1.1,0.7,2.1,1.1,3.2c0.3,0.7,0.7,1.3,1,2          c0.4,0.9,1,1.8,1.5,2.7c0.3,0.4,0.5,0.9,0.8,1.3c0.6,0.8,1,1.8,1.7,2.6c0.4,0.5,1,1,1.5,1.5c-1.5-0.6-3.1-1.1-4.5-2          c-0.7-0.4-1.5-0.6-2.3-0.7c-0.2,0.3-0.4,0.6-0.5,0.9c0,0.6,0.3,1.2,0.7,1.7c0.1,0.2,0.3,0.3,0.3,0.5s-0.3,0.3-0.4,0.1          c-0.6-0.4-1.2-0.8-1.8-1.2c-0.7-0.4-1.4-0.3-2.1-0.4c-0.4,0-0.7,0.2-1,0.2c-0.5,0.2-1,0-1.6,0c-0.6,0.1-1-0.3-1.5-0.4          c-0.8,0-1.6,0-2.3,0.3c-0.6,0.3-1.2,0.7-1.8,1.1c-0.1,0.1-0.3,0.1-0.4,0c-0.1-0.3,0.1-0.5,0.3-0.7c0.4-0.5,0.7-1,0.7-1.6          c-0.1-0.3-0.3-0.6-0.5-0.9c-0.7,0.1-1.4,0.2-2,0.5c-1.5,0.9-3.1,1.4-4.8,2c0.5-0.5,1.1-0.9,1.6-1.5c0.7-0.8,1.2-1.8,1.9-2.6          c0.6-0.9,1.2-1.8,1.8-2.7c0.4-0.6,0.6-1.2,0.9-1.7c0.6-0.9,0.9-1.9,1.3-2.8c0.3-0.7,0.5-1.4,0.6-2.2c-0.1,0,0.4-0.8,0.3-0.8          c0-1.4-0.5-2.1-0.4-3.6c0.1-1.2-0.3-2.4-0.3-3.6c-0.1-1.6-0.4-3.1-0.6-4.7c-0.2-1.6-0.4-3.1-0.7-4.7          c-0.2-0.8-0.5-1.5-0.8-2.2c-0.3-0.6-0.5-1.4-1.1-1.8c-1.1-1-2.1-2.2-3.1-3.3c-0.9-1.1-1.8-2.1-2.7-3.2          c-0.5-0.6-1.1-0.9-1.7-1.4c-0.8-0.6-1.7-1-2.5-1.6c-0.7-0.5-1.2-1.1-1.7-1.7c-0.8-0.9-1.5-2-2.2-3c-0.8-1.4-1.5-2.8-2.4-4.1          c-0.4-0.6-0.9-1.1-1.5-1.6c-0.3-0.3-0.8-0.4-1.1-0.7c0.8,0.2,1.6,0.6,2.3,1c0.5,0.3,0.9,0.6,1.3,1c0.5,0.6,0.9,1.3,1.6,1.9          c1,0.8,2,1.8,3,2.6c0.5,0.4,0.9,0.9,1.6,1.1c0.8,0.3,1.7,0.4,2.5,0.6c0.3-0.9,0.6-1.9,0.6-2.8c0-0.4-0.1-0.7-0.2-1.1          c-0.2-0.6-0.7-1.1-0.7-1.8c0.2-0.9,0.3-1.9,0.5-2.8c0-0.2,0.2-0.3,0.3-0.3c-0.1,0.9-0.2,1.8,0,2.7c0.3,0.8,0.8,1.5,1.3,2.3          c0.4,0.8,0.2,1.7,0.3,2.6c0.1,0.7,0.1,1.4,0.2,2.1c0,0.3,0.3,0.6,0.5,0.8c0.4,0.4,0.5,0.9,0.9,1.3c0.6,0.7,1.3,1.3,2.2,1.5          c-0.8-0.4-1.5-1.1-1.9-1.9c-0.2-0.4-0.2-0.8-0.5-1.1c-0.2-0.3-0.4-0.5-0.4-0.8c0-0.4,0-0.9-0.1-1.3c0.6,0.5,1.2,1,1.8,1.5          c0.3,0.4,0.5,1,0.8,1.4c0.2,0.4,0.4,0.9,0.8,1.2c0.9,0.6,1.8,1.2,2.8,1.6c0.8,0.4,1.6,0.9,2.6,0.8c0.7-0.1,1.4-0.4,2-0.9          c0.8-0.8,1.4-1.7,2-2.7c0.2-0.3,0.5-0.5,0.8-0.8c0.4-0.4,0.6-0.9,0.7-1.4c0.3-0.9,0.3-1.9,0.5-2.9c0.2-0.9,0.4-1.7,0.6-2.6          c0.2-0.6,0.1-1.3,0.5-1.8c1-1.2,2.1-2.2,2.9-3.5C71.8,53.3,72.1,53.1,72.4,52.8z M61.9,100.9c0,0.8-0.9,1.1-1.2,1.7          c-0.1,0.4,0,0.8-0.3,1.2c-0.4,0.6-1,1.1-1.5,1.7c-0.7,0.9-1.5,1.7-2.2,2.5c1.3-0.7,2.3-1.7,3.3-2.7c0.5-0.5,1.1-0.9,1.4-1.5          c0.2-0.3,0.1-0.8,0.1-1.1c0.3-0.4,0.6-0.7,0.7-1.2c0.1-0.3,0-0.6,0-1c0-0.9,0.1-1.7,0.1-2.6C62.3,99,62.1,99.9,61.9,100.9z"
   id="path76" />
							</g>
							<path
   class="st18"
   d="M40.5,58.4c0.9,1.3,1.6,2.7,2.4,4.1c0.6,1.1,1.3,2.1,2.2,3c0.5,0.6,1,1.3,1.7,1.7         c0.8,0.6,1.7,1,2.5,1.6c0.6,0.4,1.2,0.8,1.7,1.4c0.9,1.1,1.8,2.1,2.7,3.2c1,1.1,2,2.3,3.1,3.3c0.6,0.5,0.8,1.2,1.1,1.8         c0.3,0.7,0.6,1.4,0.8,2.2c0.3,1.5,0.5,3.1,0.7,4.7s0.5,3.1,0.6,4.7c0,1.2,0.4,2.4,0.3,3.6c-0.1,1.4,0.1,2.3,0.1,3.7         c0.1,0,0,0.6,0,0.6c-0.2,0.7-0.4,1.5-0.6,2.2c-0.4,1-0.7,2-1.3,2.8c-0.3,0.6-0.6,1.2-0.9,1.7c-0.6,0.9-1.2,1.8-1.8,2.7         c-0.7,0.9-1.2,1.8-1.9,2.6c-0.5,0.5-1,1-1.6,1.5c0.2,0,0.3-0.1,0.5-0.2l0.4-0.2l4.4-4.1l1.5-1.7c0.4-0.6,1-1,1.4-1.6         c0.2-0.4,0.2-0.8,0.3-1.2c0.3-0.6,1.2-1,1.2-1.7c0.1-1,0.3-1.9,0.5-2.8c0,0.2,0,0.5,0,0.7l0.3-1.3v-9.7l-0.3-3.6L62.1,83         c-1-3.5-2.8-6.8-5.3-9.6l0,0c-0.3-0.3-0.6-0.7-0.9-1l-3.3-3.2c0,0-4.3-2.5-5.9-3.7c-1.5-1.2-6.5-8.4-6.5-8.4l-2.3-1         c0.3,0.3,0.8,0.4,1.1,0.7C39.6,57.3,40.1,57.8,40.5,58.4z"
   id="path80" />
							<path
   class="st15"
   d="M80,64.8c-0.1-0.3-0.2-0.7-0.3-1c-0.3-1.1-0.3-2.2,0.2-3.3c0.3-0.6,0.8-1.2,0.6-1.9         c-0.1-0.8-0.2-1.6-0.4-2.4c0-0.1-0.1-0.3-0.2-0.3c-0.3,0-0.3,0.4-0.3,0.6c0,0.8,0.1,1.7-0.1,2.5c-0.4,0.9-1.1,1.7-1.4,2.6         c-0.2,0.7-0.2,1.4-0.3,2.1c-0.3,0.9-1.1,1.5-1.7,2.2c-0.7,0.8-1.7,1.4-2.3,2.3c-0.4,0.6-1,1.1-1.8,1.3         c-0.3,0.3-0.5,0.6-0.7,0.9c-0.2,0.2-0.3,0.6-0.5,0.9l1,0.1c0,0,3.1-2.4,4.2-2.6c0.9-0.1,3.2-2.6,4-3.5         c0.2-0.2,0.3-0.4,0.3-0.4C80.2,65.1,80,64.9,80,64.8z"
   id="path82" />
							<path
   class="st15"
   d="M64.6,111.2c0.5-0.1,1,0.1,1.6,0c0.3-0.1,0.6-0.3,1-0.2c0.7,0.1,1.5,0,2.1,0.4c0.6,0.3,1.2,0.7,1.8,1.2         c0.1,0.1,0.5,0.1,0.4-0.1c0-0.2-0.2-0.4-0.3-0.5c-0.4-0.5-0.8-1.1-0.7-1.7c0.1-0.3,0.3-0.6,0.5-0.9c0.8,0.1,1.6,0.3,2.3,0.7         c1.4,0.9,2.9,1.4,4.5,2c-0.5-0.5-1-0.9-1.5-1.5c-0.7-0.8-1.1-1.7-1.7-2.6c-0.3-0.4-0.5-0.8-0.8-1.3c-0.6-0.9-1.1-1.7-1.5-2.7         c-0.3-0.7-0.7-1.3-1-2c-0.4-1-0.8-2.1-1.1-3.2c-0.3-1.3-0.3-2.6-0.5-4c-0.2-2.4-0.2-4.8-0.1-7.1c0.3-2,0.6-4.1,1.1-6.1         c0.2-1.1,0.7-2.1,1.1-3.1c0.1-0.2,0.2-0.4,0.3-0.6c-1.1,1.5-3.4,4.6-3.7,6.3c-0.4,2.2-0.5,5.8-0.6,8.2c-0.1,2.4,0.7,8.4,0,10         s-1,2.3-1.4,3.1c-0.5,0.8-2.8,3.3-2.8,3.3l-3.9,2.7c0,0,0,0.1,0,0.2c0.3-0.2,0.6-0.3,0.9-0.5c0.7-0.4,1.5-0.3,2.3-0.3         C63.6,111,64.1,111.3,64.6,111.2z"
   id="path84" />
							<path
   class="st17"
   d="M71.9,53.3c0-0.7,0.3-1.2,0.5-1.7c0.3-0.5,0.6-0.9,0.9-1.4c0.6-0.9,1.3-1.7,1.8-2.6         c0.2-0.4,0.5-0.9,0.6-1.3c0.1-0.4,0.3-0.9,0.4-1.4s0.2-1,0.4-1.6c0.2-0.5,0.4-1.1,0.9-1.6c0.9-0.9,1.8-1.4,2.7-2.1         c0.9-0.6,1.7-1.2,2.4-2c0.7-0.8,1.2-1.7,2-2.5c0.4-0.4,0.8-0.8,1.3-1.1s1-0.4,1.5-0.6c-2.2,0.9-2.7,3-4,4.8         c-1.3,1.9-3.5,3-4.7,4.3c-1,1.3-0.7,3.8-2.1,5.8c-0.6,1-1.3,1.8-2,2.6c-0.3,0.4-0.7,0.8-1,1.2S73,53,72.9,53.3L71.9,53.3z"
   id="path86" />
							<path
   class="st17"
   d="M72.1,35.2c0.7,0.4,1.3,0.8,2,1.3c0.6,0.5,1.2,1,1.7,1.6s1,1.2,1.4,1.9c0.3,0.7,0.6,1.5,0.6,2.3h-0.9         c0-0.7-0.1-1.4-0.3-2c-0.3-0.7-0.7-1.3-1.1-1.9c-0.5-0.6-1-1.1-1.5-1.6C73.3,36.2,72.7,35.7,72.1,35.2L72.1,35.2z"
   id="path88" />
							<path
   class="st15"
   d="M57.5,71.3c1.1,1,2.1,2.2,3.1,3.3c0.5,0.6,0.9,1.2,1.3,1.9c0.2,0.3,0.3,0.7,0.4,1         c0.1,0.4,0.2,0.7,0.3,1.1c0.4,1.4,1,2.8,1.7,4.1l0.5,1c0.1,0.2,0.2,0.4,0.2,0.6c0.1,0.2,0.1,0.4,0.1,0.6         c0.1,0.7,0.2,1.5,0.3,2.2c0.3,3,0.4,5.9,0.4,8.9c0,0.7,0,1.5-0.1,2.2c-0.1,0.8-0.1,1.5-0.4,2.3c-0.1,0.4-0.3,0.7-0.5,1.1         c-0.2,0.3-0.4,0.6-0.7,1c-0.5,0.6-2.2,1.1-2.2,1.1c0.5-0.4,1-1,1.5-1.6c0.2-0.3,0.4-0.6,0.6-0.9c0.2-0.3,0.4-0.6,0.5-0.9         c0.2-0.6,0.3-1.4,0.4-2.1S65,96.7,65,96c0.1-2.9,0-5.9-0.2-8.9c-0.1-0.7-0.1-1.5-0.2-2.2c-0.1-0.4-0.1-0.7-0.3-1l-0.5-1         c-0.6-1.3-1.2-2.7-1.6-4.2c-0.2-0.7-0.3-1.4-0.7-2.1c-0.3-0.7-0.8-1.3-1.2-1.9C59.5,73.5,58.5,72.4,57.5,71.3L57.5,71.3z"
   id="path90" />
							<path
   class="st15"
   d="M69.2,66.6c-0.2,0.9-0.1,1.8-0.2,2.6c-0.1,0.9-0.5,1.7-1,2.5c-0.9,1.5-1.6,3.2-1.6,5s0.1,3.5-0.1,5.3         c0,1.8-1,3.5-0.9,5.2H65c0-0.9,0.3-1.8,0.5-2.7c0.3-0.8,0.5-1.7,0.5-2.6c0.2-1.8,0.1-3.5,0.2-5.3s0.8-3.5,1.8-5         c0.5-0.8,0.9-1.5,1-2.4C69,68.4,68.9,67.5,69.2,66.6z"
   id="path92" />
							<path
   class="st17"
   d="M32.5,32.7c0.9,0.7,1.7,1.5,2.5,2.2c0.4,0.3,0.9,0.7,1.3,1.1c0.4,0.4,0.8,0.8,1.2,1.2         c0.7,0.8,1.4,1.7,2.1,2.6c0.3,0.4,0.7,0.9,1,1.2c0.4,0.4,0.7,0.8,1.1,1.1c0.8,0.8,1.6,1.5,2.3,2.6c0.3,0.6,0.5,1,0.7,1.5         c0.1,0.2,0.2,0.4,0.3,0.6c0.1,0.1,0.1,0.2,0.2,0.2c0,0,0,0-0.1-0.1l0.7,0.7l0,0c0.3,1.6,0.5,3.3,0.5,4.9         c0,0.8,0.1,1.6,0.1,2.4c0,0.4,0,0.9,0,1.1c0,0.2,0.1,0.4,0.3,0.7c0.4,0.5,1,1,1.7,1.5l0.3,0.2c0.1,0.1,0.2,0.2,0.3,0.3         c0.2,0.2,0.3,0.4,0.4,0.6c0.2,0.4,0.4,0.8,0.5,1.2l0.9,2.2c0.2,0.4,0.3,0.7,0.5,1s0.4,0.6,0.5,0.7l-1,1.4         c-0.6-0.5-0.8-0.9-1-1.3s-0.4-0.8-0.5-1.2l-0.9-2.2c-0.3-0.7-0.6-1.4-1-1.7c-0.6-0.5-1.3-1-1.9-1.8c-0.3-0.4-0.6-0.9-0.6-1.5         c0-0.5,0-0.8,0-1.3c0-0.8,0-1.6-0.1-2.4c-0.1-1.6-0.2-3.1-0.5-4.6l0,0l0.7,0.7c-0.5-0.1-0.7-0.3-0.8-0.5         c-0.2-0.2-0.3-0.3-0.3-0.5c-0.2-0.3-0.3-0.6-0.4-0.8c-0.2-0.5-0.4-1.1-0.6-1.5c-0.2-0.3-0.5-0.8-0.8-1.2s-0.7-0.8-1.1-1.2         c-0.4-0.4-0.7-0.8-1.1-1.3c-0.4-0.4-0.7-0.9-1-1.4c-0.6-0.9-1.2-1.8-1.9-2.6c-0.3-0.4-0.7-0.8-1-1.2         c-0.4-0.4-0.8-0.7-1.2-1.1c-0.8-0.8-0.7-0.9-1.5-1.6L32.5,32.7z"
   id="path94" />
							<path
   class="st15"
   d="M49.4,61.3l1.8,3.6l0.3-0.5c-0.1,0-0.3-0.4-0.5-0.7s-0.3-0.7-0.5-1l-0.9-2.2c-0.2-0.4-0.3-0.8-0.5-1.2         c-0.1-0.2-0.2-0.4-0.4-0.6c-0.1-0.1-0.2-0.2-0.3-0.3l-0.3-0.2c-0.6-0.6-1.3-1-1.7-1.5c-0.2-0.3-0.3-0.4-0.3-0.7s0-0.7,0-1.1         c0-0.8,0-1.6-0.1-2.4c0-1.1-0.1-2.1-0.3-3.2l-0.2,0.1c0,0-0.6,2.8-0.5,4.3c0.2,1.5,0.7,3.8,1.7,4.6         C48,59,49.4,61.3,49.4,61.3z"
   id="path96" />
						</g>
						<path
   class="st3"
   d="M96,40.3c-0.9-0.9-2.1-1.5-3.2-1.6c0.1,1.1,0.6,2.2,1.6,3.1c0.9,0.9,2.1,1.5,3.2,1.6        C97.4,42.3,96.9,41.2,96,40.3z"
   id="path100" />
						<path
   class="st3"
   d="M91.2,59.7c-1.2,0.6-2,1.6-2.4,2.6c1.1,0.2,2.4,0,3.5-0.7c1.2-0.6,2-1.6,2.4-2.6        C93.6,58.8,92.3,59,91.2,59.7z"
   id="path102" />
						<path
   class="st1"
   d="M97.9,59.7c-1.2,0.6-2,1.6-2.4,2.6c1.1,0.2,2.4,0,3.5-0.7c1.2-0.6,2-1.6,2.4-2.6        C100.4,58.8,99.1,59,97.9,59.7z"
   id="path104" />
						<path
   class="st19"
   d="M72.3,60.1c-1.1,0.7-1.7,1.9-1.8,3.2c1.3,0.3,2.6,0.2,3.7-0.6s1.7-1.9,1.8-3.2        C74.7,59.2,73.4,59.4,72.3,60.1z"
   id="path106" />
						<path
   class="st1"
   d="M81.8,49.3c-1.6-1.2-3.4-1.7-5-1.7c0.3,1.5,1.3,3.1,2.9,4.3s3.4,1.7,5,1.7C84.4,52,83.4,50.4,81.8,49.3z"
   id="path108" />
						<path
   class="st20"
   d="M86.6,68.9c-1.5,1.2-2.5,2.8-2.8,4.4c1.6,0,3.4-0.6,4.9-1.8c1.5-1.2,2.5-2.8,2.8-4.4        C89.9,67,88.1,67.6,86.6,68.9z"
   id="path110" />
						<path
   class="st20"
   d="M87.5,29.5c-1.2,1.4-1.8,3-1.8,4.4c1.5-0.3,3-1.1,4.2-2.5c1.2-1.4,1.8-3,1.8-4.4        C90.3,27.3,88.7,28.2,87.5,29.5z"
   id="path112" />
						<path
   class="st20"
   d="M98.8,49c0,1.8,0.5,3.4,1.5,4.5c1-1.1,1.6-2.7,1.7-4.5c0-1.8-0.5-3.4-1.5-4.5        C99.4,45.7,98.8,47.3,98.8,49z"
   id="path114" />
						<path
   class="st20"
   d="M99,40.8c-1.4,0.4-2.5,1.3-3.1,2.3c1.1,0.4,2.5,0.5,3.9,0c1.4-0.4,2.5-1.3,3.1-2.3        C101.8,40.4,100.4,40.4,99,40.8z"
   id="path116" />
						<path
   class="st20"
   d="M51.8,39.2c-0.5,1.7-0.3,3.4,0.3,4.7c1.2-0.8,2.3-2.2,2.8-3.9s0.3-3.4-0.3-4.7        C53.4,36.1,52.3,37.4,51.8,39.2z"
   id="path118" />
						<path
   class="st19"
   d="M46.8,37.8c0.9-2.6,0.9-4.9-0.3-6.1c-2,1.5-3.3,3.1-3.8,5.1s-0.2,4,0.3,6.1        C44.3,42.3,45.8,40.4,46.8,37.8z"
   id="path120" />
						<path
   class="st19"
   d="M32.8,41.7c2.4-0.2,4.2-1,4.8-2.2c-1.9-1-3.6-1.4-5.4-1.2c-1.8,0.3-3.3,1.1-4.8,2.2        C28.3,41.4,30.4,41.9,32.8,41.7z"
   id="path122" />
						<path
   class="st1"
   d="M39.8,32.2c-0.7-2.1-1.9-3.6-3.3-3.8c-0.5,2-0.5,3.6,0.1,5.1c0.7,1.5,1.9,2.7,3.3,3.8        C40.5,36.3,40.5,34.4,39.8,32.2z"
   id="path124" />
						<path
   class="st19"
   d="M53.7,24.2c2.5-0.9,4.2-2.3,4.4-3.8c-2.3-0.5-4.3-0.5-6.1,0.3s-3.1,2.2-4.5,3.8        C48.8,25.1,51.2,25.1,53.7,24.2z"
   id="path126" />
						<path
   class="st19"
   d="M42.8,21.3c0.8,2.1,2,3.5,3.3,3.7c0.5-1.9,0.5-3.6-0.2-5.1s-1.9-2.6-3.3-3.8        C42,17.3,42.1,19.2,42.8,21.3z"
   id="path128" />
						<path
   class="st19"
   d="M37.8,47.2c-2.9,0.1-5.1,0.9-5.8,2.4c2.2,1.3,4.2,1.9,6.3,1.7s4-1.2,5.9-2.4        C43,47.8,40.6,47.1,37.8,47.2z"
   id="path130" />
						<path
   class="st19"
   d="M32.4,72.4c-2.5,1.3-4.1,3.1-4,4.7c2.6,0.2,4.6-0.2,6.4-1.3c1.8-1.1,2.9-2.8,4.1-4.7        C37.3,70.6,34.9,71.1,32.4,72.4z"
   id="path132" />
						<path
   class="st19"
   d="M83.8,54.6c-2.3,1.6-3.7,3.5-3.5,5.1c2.6-0.1,4.6-0.7,6.2-2s2.6-3.1,3.5-5.1        C88.6,52.3,86.1,53,83.8,54.6z"
   id="path134" />
						<path
   class="st19"
   d="M78.7,34.7c0.5,2.2,1.5,3.7,2.8,4.1c0.8-1.9,1-3.5,0.5-5c-0.5-1.6-1.5-2.9-2.8-4.2        C78.4,30.5,78.2,32.5,78.7,34.7z"
   id="path136" />
						<path
   class="st19"
   d="M72.4,44.5c2.3-0.2,4-1.1,4.5-2.3c-1.9-0.9-3.5-1.3-5.2-0.9c-1.7,0.3-3.1,1.2-4.5,2.3        C68.1,44.3,70.1,44.7,72.4,44.5z"
   id="path138" />
						<path
   class="st19"
   d="M53.3,55.6c1.3-1.4,1.9-2.9,1.5-3.9c-1.7,0.5-2.9,1.1-3.8,2.3c-0.9,1.1-1.2,2.5-1.5,3.9        C50.5,57.9,52,57,53.3,55.6z"
   id="path140" />
						<path
   class="st19"
   d="M96.3,67.9c2.3-0.2,4-1.1,4.5-2.3c-1.9-0.9-3.5-1.3-5.2-0.9c-1.7,0.3-3.1,1.2-4.5,2.3        C92,67.7,94,68.1,96.3,67.9z"
   id="path142" />
						<path
   class="st19"
   d="M83.2,43.2c2.3-0.2,4-1.1,4.5-2.3c-1.9-0.9-3.5-1.3-5.2-0.9c-1.7,0.3-3.1,1.2-4.5,2.3        C78.9,43,80.9,43.4,83.2,43.2z"
   id="path144" />
						<path
   class="st2"
   d="M46.1,42.6c-1.2,1.9-1.6,3.7-0.9,4.8c1.9-0.9,3.2-1.9,4-3.3c0.8-1.5,0.9-3.1,0.9-4.9        C48.8,39.5,47.3,40.7,46.1,42.6z"
   id="path146" />
						<path
   class="st2"
   d="M34.7,46.8c-2.1,0.9-3.4,2.2-3.5,3.5c2,0.3,3.7,0.2,5.2-0.5c1.5-0.8,2.5-2,3.5-3.5        C38.8,45.8,36.8,45.9,34.7,46.8z"
   id="path148" />
						<path
   class="st21"
   d="M73.4,21.6c-1.3,1.9-1.8,3.7-1.2,4.9c1.9-0.9,3.2-1.9,4.1-3.4c0.8-1.5,1.1-3.1,1.2-4.9        C76.3,18.4,74.7,19.6,73.4,21.6z"
   id="path150" />
						<path
   class="st19"
   d="M68.3,51.6c-1-2.4-2.5-4-4.1-4.1c-0.5,2.3-0.4,4.1,0.5,5.9c0.9,1.7,2.3,3,4.1,4.2        C69.4,56.3,69.3,54,68.3,51.6z"
   id="path152" />
						<polygon
   class="st17"
   points="47.4,22.1 47.4,27.1 39.6,38.4 40.1,39.8 39.6,41.6 38.5,38.4 46.4,26.7       "
   id="polygon154" />
						<path
   class="st20"
   d="M63.4,19.7c-1.5-0.2-3,0.2-4,0.8c0.9,0.9,2.2,1.5,3.7,1.7c1.5,0.2,3-0.2,4-0.8        C66.3,20.5,65,19.9,63.4,19.7z"
   id="path156" />
						<path
   class="st19"
   d="M69.3,18.7c-1.4,0.7-2.3,1.7-2.3,2.6c1.4,0.1,2.6-0.1,3.6-0.7s1.7-1.6,2.3-2.6        C72.1,17.8,70.7,18,69.3,18.7z"
   id="path158" />
						<path
   class="st19"
   d="M54.5,43.8c-1.4,0.7-2.3,1.7-2.3,2.6c1.4,0.1,2.6-0.1,3.6-0.7c1-0.6,1.7-1.6,2.3-2.6        C57.3,42.8,55.9,43,54.5,43.8z"
   id="path160" />
						<path
   class="st19"
   d="M34.4,59.5c-1.4,0.7-2.3,1.7-2.3,2.6c1.4,0.1,2.6-0.1,3.6-0.7c1-0.6,1.7-1.6,2.3-2.6        C37.2,58.5,35.8,58.7,34.4,59.5z"
   id="path162" />
						<path
   class="st3"
   d="M28,47.9c1.6-0.6,2.7-1.4,2.9-2.4c-1.5-0.3-2.8-0.3-3.9,0.2c-1.2,0.5-2,1.4-2.9,2.4        C24.9,48.5,26.4,48.5,28,47.9z"
   id="path164" />
						<path
   class="st15"
   d="M67.7,79.5c0.5-1.1,0.7-2.2,1.5-3.1c0.6-0.7,1.3-0.9,1.9-1.5c0.8-0.6,1.4-1.4,2.1-2.1        c1-0.9,2.1-1.5,3.2-2.3c-1.6,1.8-3.3,3.7-5.2,5.2C70.4,76.5,67,78.4,67.7,79.5z"
   id="path166" />
						<path
   class="st1"
   d="M73.4,34.2c-1.3-1.9-2.9-2.9-4.2-2.8c0,2,0.5,3.6,1.6,4.9c1.1,1.3,2.6,2.1,4.3,2.8        C75.2,38,74.7,36.1,73.4,34.2z"
   id="path168" />
					</g>
				</g>
				<g
   id="g260">
					<g
   id="g254">
						<g
   id="g252">
							<g
   id="g250">
								<g
   id="g248">
									<g
   id="g212">
										<path
   class="st22"
   d="M94.4,87.4V88c0,0.3,0.2,0.6,0.5,0.6l0,0c0.3,0,0.5-0.3,0.5-0.6v-0.6c0-0.3-0.2-0.6-0.5-0.6l0,0            C94.6,86.8,94.4,87,94.4,87.4z M94.6,87.4c0-0.2,0.1-0.3,0.3-0.3l0,0c0.1,0,0.3,0.2,0.3,0.3V88c0,0.2-0.1,0.3-0.3,0.3l0,0            c-0.1,0-0.3-0.2-0.3-0.3V87.4z"
   id="path174" />
										<path
   class="st22"
   d="M94.9,89.9L94.9,89.9C95,89.9,95,89.8,94.9,89.9l0.1-1.7c0-0.1,0-0.1-0.1-0.1l0,0            c-0.1,0-0.1,0.1-0.1,0.1L94.9,89.9C94.8,89.9,94.8,89.9,94.9,89.9z"
   id="path176" />
										<path
   class="st22"
   d="M94.4,84.8v0.6c0,0.3,0.2,0.6,0.5,0.6l0,0c0.3,0,0.5-0.3,0.5-0.6v-0.6c0-0.3-0.2-0.6-0.5-0.6l0,0            C94.6,84.2,94.4,84.5,94.4,84.8z M94.6,84.8c0-0.2,0.1-0.3,0.3-0.3l0,0c0.1,0,0.3,0.2,0.3,0.3v0.6c0,0.2-0.1,0.3-0.3,0.3            l0,0c-0.1,0-0.3-0.2-0.3-0.3V84.8z"
   id="path178" />
										<path
   class="st22"
   d="M94.9,87.3L94.9,87.3C95,87.3,95,87.2,94.9,87.3l0.1-1.7c0-0.1,0-0.1-0.1-0.1l0,0            c-0.1,0-0.1,0.1-0.1,0.1L94.9,87.3C94.8,87.3,94.8,87.3,94.9,87.3z"
   id="path180" />
										<path
   class="st22"
   d="M94.4,82.2v0.6c0,0.3,0.2,0.6,0.5,0.6l0,0c0.3,0,0.5-0.3,0.5-0.6v-0.6c0-0.3-0.2-0.6-0.5-0.6l0,0            C94.6,81.6,94.4,81.9,94.4,82.2z M94.6,82.2c0-0.2,0.1-0.3,0.3-0.3l0,0c0.1,0,0.3,0.2,0.3,0.3v0.6c0,0.2-0.1,0.3-0.3,0.3            l0,0c-0.1,0-0.3-0.2-0.3-0.3V82.2z"
   id="path182" />
										<path
   class="st22"
   d="M94.9,84.8L94.9,84.8C95,84.8,95,84.7,94.9,84.8L95,83c0-0.1,0-0.1-0.1-0.1l0,0            c-0.1,0-0.1,0.1-0.1,0.1v1.6C94.8,84.7,94.8,84.8,94.9,84.8z"
   id="path184" />
										<path
   class="st22"
   d="M94.4,79.7v0.6c0,0.3,0.2,0.6,0.5,0.6l0,0c0.3,0,0.5-0.3,0.5-0.6v-0.6c0-0.3-0.2-0.6-0.5-0.6l0,0            C94.6,79.1,94.4,79.3,94.4,79.7z M94.6,79.7c0-0.2,0.1-0.3,0.3-0.3l0,0c0.1,0,0.3,0.2,0.3,0.3v0.6c0,0.2-0.1,0.3-0.3,0.3            l0,0c-0.1,0-0.3-0.2-0.3-0.3V79.7z"
   id="path186" />
										<path
   class="st22"
   d="M94.9,82.2L94.9,82.2C95,82.2,95,82.1,94.9,82.2l0.1-1.7c0-0.1,0-0.1-0.1-0.1l0,0            c-0.1,0-0.1,0.1-0.1,0.1L94.9,82.2C94.8,82.2,94.8,82.2,94.9,82.2z"
   id="path188" />
										<path
   class="st22"
   d="M94.4,77.1v0.6c0,0.3,0.2,0.6,0.5,0.6l0,0c0.3,0,0.5-0.3,0.5-0.6v-0.6c0-0.3-0.2-0.6-0.5-0.6l0,0            C94.6,76.5,94.4,76.8,94.4,77.1z M94.6,77.1c0-0.2,0.1-0.3,0.3-0.3l0,0c0.1,0,0.3,0.2,0.3,0.3v0.6c0,0.2-0.1,0.3-0.3,0.3            l0,0c-0.1,0-0.3-0.2-0.3-0.3V77.1z"
   id="path190" />
										<path
   class="st22"
   d="M94.9,79.6L94.9,79.6C95,79.6,95,79.5,94.9,79.6l0.1-1.7c0-0.1,0-0.1-0.1-0.1l0,0            c-0.1,0-0.1,0.1-0.1,0.1L94.9,79.6C94.8,79.6,94.8,79.6,94.9,79.6z"
   id="path192" />
										<path
   class="st22"
   d="M94.4,74.5v0.6c0,0.3,0.2,0.6,0.5,0.6l0,0c0.3,0,0.5-0.3,0.5-0.6v-0.6c0-0.3-0.2-0.6-0.5-0.6l0,0            C94.6,73.9,94.4,74.2,94.4,74.5z M94.6,74.5c0-0.2,0.1-0.3,0.3-0.3l0,0c0.1,0,0.3,0.2,0.3,0.3v0.6c0,0.2-0.1,0.3-0.3,0.3            l0,0c-0.1,0-0.3-0.2-0.3-0.3V74.5z"
   id="path194" />
										<path
   class="st22"
   d="M94.9,77.1L94.9,77.1C95,77.1,95,77,94.9,77.1l0.1-1.7c0-0.1,0-0.1-0.1-0.1l0,0            c-0.1,0-0.1,0.1-0.1,0.1L94.9,77.1C94.8,77,94.8,77.1,94.9,77.1z"
   id="path196" />
										<path
   class="st22"
   d="M94.4,72v0.6c0,0.3,0.2,0.6,0.5,0.6l0,0c0.3,0,0.5-0.3,0.5-0.6V72c0-0.3-0.2-0.6-0.5-0.6l0,0            C94.6,71.3,94.4,71.6,94.4,72z M94.6,72c0-0.2,0.1-0.3,0.3-0.3l0,0c0.1,0,0.3,0.2,0.3,0.3v0.6c0,0.2-0.1,0.3-0.3,0.3l0,0            c-0.1,0-0.3-0.2-0.3-0.3V72z"
   id="path198" />
										<path
   class="st22"
   d="M94.9,74.5L94.9,74.5C95,74.5,95,74.4,94.9,74.5l0.1-1.7c0-0.1,0-0.1-0.1-0.1l0,0            c-0.1,0-0.1,0.1-0.1,0.1L94.9,74.5C94.8,74.4,94.8,74.5,94.9,74.5z"
   id="path200" />
										<path
   class="st22"
   d="M94.4,69.4V70c0,0.3,0.2,0.6,0.5,0.6l0,0c0.3,0,0.5-0.3,0.5-0.6v-0.6c0-0.3-0.2-0.6-0.5-0.6l0,0            C94.6,68.8,94.4,69,94.4,69.4z M94.6,69.4c0-0.2,0.1-0.3,0.3-0.3l0,0c0.1,0,0.3,0.2,0.3,0.3V70c0,0.2-0.1,0.3-0.3,0.3l0,0            c-0.1,0-0.3-0.2-0.3-0.3V69.4z"
   id="path202" />
										<path
   class="st22"
   d="M94.9,71.9L94.9,71.9C95,71.9,95,71.8,94.9,71.9l0.1-1.7c0-0.1,0-0.1-0.1-0.1l0,0            c-0.1,0-0.1,0.1-0.1,0.1L94.9,71.9C94.8,71.9,94.8,71.9,94.9,71.9z"
   id="path204" />
										<path
   class="st22"
   d="M94.4,66.8v0.6c0,0.3,0.2,0.6,0.5,0.6l0,0c0.3,0,0.5-0.3,0.5-0.6v-0.6c0-0.3-0.2-0.6-0.5-0.6l0,0            C94.6,66.2,94.4,66.5,94.4,66.8z M94.6,66.8c0-0.2,0.1-0.3,0.3-0.3l0,0c0.1,0,0.3,0.2,0.3,0.3v0.6c0,0.2-0.1,0.3-0.3,0.3            l0,0c-0.1,0-0.3-0.2-0.3-0.3V66.8z"
   id="path206" />
										<path
   class="st22"
   d="M94.9,69.4L94.9,69.4C95,69.4,95,69.3,94.9,69.4l0.1-1.7c0-0.1,0-0.1-0.1-0.1l0,0            c-0.1,0-0.1,0.1-0.1,0.1L94.9,69.4C94.8,69.3,94.8,69.4,94.9,69.4z"
   id="path208" />
										<path
   class="st22"
   d="M94.9,66.8L94.9,66.8c0.1,0,0.1-0.1,0.1-0.2v-2.1c0-0.1,0-0.2-0.1-0.2l0,0c-0.1,0-0.1,0.1-0.1,0.2            v2.1C94.8,66.7,94.8,66.8,94.9,66.8z"
   id="path210" />
									</g>
									<g
   id="g246">
										<path
   class="st22"
   d="M80.2,87.4V88c0,0.3,0.2,0.6,0.5,0.6l0,0c0.3,0,0.5-0.3,0.5-0.6v-0.6c0-0.3-0.2-0.6-0.5-0.6l0,0            C80.4,86.8,80.2,87,80.2,87.4z M80.4,87.4c0-0.2,0.1-0.3,0.3-0.3l0,0c0.1,0,0.3,0.2,0.3,0.3V88c0,0.2-0.1,0.3-0.3,0.3l0,0            c-0.1,0-0.3-0.2-0.3-0.3V87.4z"
   id="path214" />
										<path
   class="st22"
   d="M80.7,89.9L80.7,89.9C80.8,89.9,80.8,89.8,80.7,89.9l0.1-1.7c0-0.1,0-0.1-0.1-0.1l0,0            c-0.1,0-0.1,0.1-0.1,0.1L80.7,89.9C80.6,89.9,80.6,89.9,80.7,89.9z"
   id="path216" />
										<path
   class="st22"
   d="M80.2,84.8v0.6c0,0.3,0.2,0.6,0.5,0.6l0,0c0.3,0,0.5-0.3,0.5-0.6v-0.6c0-0.3-0.2-0.6-0.5-0.6l0,0            C80.4,84.2,80.2,84.5,80.2,84.8z M80.4,84.8c0-0.2,0.1-0.3,0.3-0.3l0,0c0.1,0,0.3,0.2,0.3,0.3v0.6c0,0.2-0.1,0.3-0.3,0.3            l0,0c-0.1,0-0.3-0.2-0.3-0.3V84.8z"
   id="path218" />
										<path
   class="st22"
   d="M80.7,87.3L80.7,87.3C80.8,87.3,80.8,87.2,80.7,87.3l0.1-1.7c0-0.1,0-0.1-0.1-0.1l0,0            c-0.1,0-0.1,0.1-0.1,0.1L80.7,87.3C80.6,87.3,80.6,87.3,80.7,87.3z"
   id="path220" />
										<path
   class="st22"
   d="M80.2,82.2v0.6c0,0.3,0.2,0.6,0.5,0.6l0,0c0.3,0,0.5-0.3,0.5-0.6v-0.6c0-0.3-0.2-0.6-0.5-0.6l0,0            C80.4,81.6,80.2,81.9,80.2,82.2z M80.4,82.2c0-0.2,0.1-0.3,0.3-0.3l0,0c0.1,0,0.3,0.2,0.3,0.3v0.6c0,0.2-0.1,0.3-0.3,0.3            l0,0c-0.1,0-0.3-0.2-0.3-0.3V82.2z"
   id="path222" />
										<path
   class="st22"
   d="M80.7,84.8L80.7,84.8C80.8,84.8,80.8,84.7,80.7,84.8l0.1-1.8c0-0.1,0-0.1-0.1-0.1l0,0            c-0.1,0-0.1,0.1-0.1,0.1v1.6C80.6,84.7,80.6,84.8,80.7,84.8z"
   id="path224" />
										<path
   class="st22"
   d="M80.2,79.7v0.6c0,0.3,0.2,0.6,0.5,0.6l0,0c0.3,0,0.5-0.3,0.5-0.6v-0.6c0-0.3-0.2-0.6-0.5-0.6l0,0            C80.4,79.1,80.2,79.3,80.2,79.7z M80.4,79.7c0-0.2,0.1-0.3,0.3-0.3l0,0c0.1,0,0.3,0.2,0.3,0.3v0.6c0,0.2-0.1,0.3-0.3,0.3            l0,0c-0.1,0-0.3-0.2-0.3-0.3V79.7z"
   id="path226" />
										<path
   class="st22"
   d="M80.7,82.2L80.7,82.2C80.8,82.2,80.8,82.1,80.7,82.2l0.1-1.7c0-0.1,0-0.1-0.1-0.1l0,0            c-0.1,0-0.1,0.1-0.1,0.1L80.7,82.2C80.6,82.2,80.6,82.2,80.7,82.2z"
   id="path228" />
										<path
   class="st22"
   d="M80.2,77.1v0.6c0,0.3,0.2,0.6,0.5,0.6l0,0c0.3,0,0.5-0.3,0.5-0.6v-0.6c0-0.3-0.2-0.6-0.5-0.6l0,0            C80.4,76.5,80.2,76.8,80.2,77.1z M80.4,77.1c0-0.2,0.1-0.3,0.3-0.3l0,0c0.1,0,0.3,0.2,0.3,0.3v0.6c0,0.2-0.1,0.3-0.3,0.3            l0,0c-0.1,0-0.3-0.2-0.3-0.3V77.1z"
   id="path230" />
										<path
   class="st22"
   d="M80.7,79.6L80.7,79.6C80.8,79.6,80.8,79.5,80.7,79.6l0.1-1.7c0-0.1,0-0.1-0.1-0.1l0,0            c-0.1,0-0.1,0.1-0.1,0.1L80.7,79.6C80.6,79.6,80.6,79.6,80.7,79.6z"
   id="path232" />
										<path
   class="st22"
   d="M80.2,74.5v0.6c0,0.3,0.2,0.6,0.5,0.6l0,0c0.3,0,0.5-0.3,0.5-0.6v-0.6c0-0.3-0.2-0.6-0.5-0.6l0,0            C80.4,73.9,80.2,74.2,80.2,74.5z M80.4,74.5c0-0.2,0.1-0.3,0.3-0.3l0,0c0.1,0,0.3,0.2,0.3,0.3v0.6c0,0.2-0.1,0.3-0.3,0.3            l0,0c-0.1,0-0.3-0.2-0.3-0.3V74.5z"
   id="path234" />
										<path
   class="st22"
   d="M80.7,77.1L80.7,77.1C80.8,77.1,80.8,77,80.7,77.1l0.1-1.7c0-0.1,0-0.1-0.1-0.1l0,0            c-0.1,0-0.1,0.1-0.1,0.1L80.7,77.1C80.6,77,80.6,77.1,80.7,77.1z"
   id="path236" />
										<path
   class="st22"
   d="M80.2,72v0.6c0,0.3,0.2,0.6,0.5,0.6l0,0c0.3,0,0.5-0.3,0.5-0.6V72c0-0.3-0.2-0.6-0.5-0.6l0,0            C80.4,71.3,80.2,71.6,80.2,72z M80.4,72c0-0.2,0.1-0.3,0.3-0.3l0,0c0.1,0,0.3,0.2,0.3,0.3v0.6c0,0.2-0.1,0.3-0.3,0.3l0,0            c-0.1,0-0.3-0.2-0.3-0.3V72z"
   id="path238" />
										<path
   class="st22"
   d="M80.7,74.5L80.7,74.5C80.8,74.5,80.8,74.4,80.7,74.5l0.1-1.7c0-0.1,0-0.1-0.1-0.1l0,0            c-0.1,0-0.1,0.1-0.1,0.1L80.7,74.5C80.6,74.4,80.6,74.5,80.7,74.5z"
   id="path240" />
										<path
   class="st22"
   d="M80.3,70.1c0,0.3,0.2,0.6,0.4,0.6l0,0c0.3,0,0.5-0.3,0.5-0.6v-0.9 M81,69.4V70            c0,0.2-0.1,0.3-0.3,0.3l0,0c-0.3,0.1-0.3-0.2-0.3-0.4"
   id="path242" />
										<path
   class="st22"
   d="M80.7,71.9L80.7,71.9C80.8,71.9,80.8,71.8,80.7,71.9l0.1-1.7c0-0.1,0-0.1-0.1-0.1l0,0            c-0.1,0-0.1,0.1-0.1,0.1L80.7,71.9C80.6,71.9,80.6,71.9,80.7,71.9z"
   id="path244" />
									</g>
								</g>
							</g>
						</g>
					</g>
					<path
   class="st23"
   d="M95.6,90.5H79.8v-0.8c0-0.4,0.3-0.8,0.7-0.8H95c0.4,0,0.7,0.4,0.7,0.8L95.6,90.5L95.6,90.5z"
   id="path256" />
					<path
   class="st17"
   d="M95,91.5H80.3c-0.3,0-0.6-0.2-0.6-0.6v-0.5c0-0.3,0.2-0.6,0.6-0.6H95c0.3,0,0.6,0.2,0.6,0.6v0.5       C95.6,91.2,95.3,91.5,95,91.5z"
   id="path258" />
				</g>
			</g>
			<path
   class="st12"
   d="M40,112.7c5.2,3.5,13.9,5.8,23.8,5.8c9.8,0,18.4-2.2,23.6-5.6l0.3-0.2L40,112.7z"
   id="path264" />
		</g>
	</g>
</g>
</svg>
