<?xml version="1.0" encoding="utf-8"?>
<!-- Generator: Adobe Illustrator 22.1.0, SVG Export Plug-In . SVG Version: 6.00 Build 0)  -->
<svg version="1.1" id="Calque_3" xmlns="http://www.w3.org/2000/svg" xmlns:xlink="http://www.w3.org/1999/xlink" x="0px" y="0px"
	 viewBox="0 0 128 128" style="enable-background:new 0 0 128 128;" xml:space="preserve">
<style type="text/css">
	.st0{fill:none;}
	.st1{fill:#572A2D;}
	.st2{fill:url(#SVGID_1_);}
	.st3{fill:url(#SVGID_2_);}
	.st4{fill:url(#SVGID_3_);}
	.st5{fill:#A6A6A6;}
	.st6{fill:#E6E6E6;}
	.st7{fill:#999999;}
	.st8{fill:url(#SVGID_4_);}
	.st9{fill:#808080;}
	.st10{fill:url(#SVGID_5_);}
	.st11{fill:url(#SVGID_6_);}
	.st12{fill:url(#SVGID_7_);}
	.st13{fill:url(#SVGID_8_);}
	.st14{fill:url(#SVGID_9_);}
	.st15{fill:url(#SVGID_10_);}
	.st16{fill:#666666;}
	.st17{fill:url(#SVGID_12_);}
	.st18{fill:url(#SVGID_13_);}
	.st19{fill:url(#SVGID_14_);}
	.st20{fill:url(#SVGID_15_);}
	.st21{fill:url(#SVGID_16_);}
	.st22{fill:url(#SVGID_17_);}
	.st23{fill:url(#SVGID_18_);}
	.st24{fill:url(#SVGID_19_);}
	.st25{fill:#E1891F;}
	.st26{fill:#4D4D4D;}
	.st27{fill:#CE7E1C;}
	.st28{fill:#184655;}
	.st29{fill:url(#SVGID_20_);}
	.st30{fill:#CCCCCC;}
	.st31{fill:#262626;}
</style>
<pattern  y="128" width="32.2" height="34.5" patternUnits="userSpaceOnUse" id="SVGID_11_" viewBox="0 -34.5 32.2 34.5" style="overflow:visible;">
	<g>
		<rect y="-34.5" class="st0" width="32.2" height="34.5"/>
		<g>
			<rect y="-34.5" class="st0" width="32.2" height="34.5"/>
			<g>
				<rect y="-34.5" class="st0" width="32.2" height="34.5"/>
				<rect y="-34.5" class="st1" width="32.2" height="34.5"/>
			</g>
		</g>
	</g>
</pattern>
<g>
	<g>
		<pattern  id="SVGID_1_" xlink:href="#SVGID_11_" patternTransform="matrix(1.3281 0 0 1.3281 2607.5029 2660.1726)">
		</pattern>
		<path class="st2" d="M128,64c0,35.3-28.7,64-64,64C28.7,128,0,99.3,0,64C0,28.7,28.7,0,64,0C99.3,0,128,28.7,128,64z"/>
		
			<linearGradient id="SVGID_2_" gradientUnits="userSpaceOnUse" x1="24.1517" y1="50.2051" x2="127.5517" y2="50.2051" gradientTransform="matrix(1 0 0 -1 0 128)">
			<stop  offset="0" style="stop-color:#42210B;stop-opacity:0"/>
			<stop  offset="1" style="stop-color:#42210B"/>
		</linearGradient>
		<path class="st3" d="M121.2,92.9c2.4-5,5.3-10.9,6.4-20.4l-26.3-19.6l-28.8,5.9L28.4,27.6l-4.2,3.3l1.4,79.5
			c0,0,4.5,8.2,11.7,11.8s23.3,5.7,23.3,5.7C81.2,129.2,108.9,118.4,121.2,92.9z"/>
	</g>
	<g>
		<g>
			<g>
				
					<linearGradient id="SVGID_3_" gradientUnits="userSpaceOnUse" x1="-106.4556" y1="558.615" x2="-111.3906" y2="544.2211" gradientTransform="matrix(-0.7193 -0.6946 -0.6946 0.7193 408.8325 -428.8361)">
					<stop  offset="1.733100e-03" style="stop-color:#A6A6A6"/>
					<stop  offset="1" style="stop-color:#BFBFBF"/>
				</linearGradient>
				<path class="st4" d="M109.5,38.5c-0.2,2-1.4,8-9.5,13.2c-3.4-5-4.2-10.1-4.2-10.1l2.7,1.3l0.7-0.7l9.7-4.1
					C109.2,37.9,109.5,38.1,109.5,38.5z"/>
				<path class="st5" d="M108.9,38.2l-9.7,4.1l-0.7,0.7l-2.7-1.2c0-0.1,0-0.2,0-0.2l2.7,1.3l0.7-0.7l9.7-4.1c0.3-0.1,0.6,0,0.6,0.4
					c0,0,0,0,0,0C109.4,38.2,109.2,38.1,108.9,38.2z"/>
				<path class="st6" d="M109.4,38.4c0-0.1,0-0.2-0.1-0.3C109.4,38.1,109.5,38.3,109.4,38.4c-0.1,2.1-1.3,8.1-9.4,13.3
					c0,0,0-0.1-0.1-0.1C108,46.4,109.2,40.4,109.4,38.4z"/>
				<polygon class="st7" points="99.2,42.1 98.5,42.9 98.2,48.9 				"/>
			</g>
			<g>
				
					<linearGradient id="SVGID_4_" gradientUnits="userSpaceOnUse" x1="126.1564" y1="-573.4105" x2="130.8887" y2="-573.4105" gradientTransform="matrix(-0.928 0.3724 0.3724 0.928 421.6721 532.429)">
					<stop  offset="0" style="stop-color:#4D4D4D"/>
					<stop  offset="4.800854e-02" style="stop-color:#696969"/>
					<stop  offset="0.1226" style="stop-color:#8E8E8E"/>
					<stop  offset="0.1919" style="stop-color:#A9A9A9"/>
					<stop  offset="0.2532" style="stop-color:#B9B9B9"/>
					<stop  offset="0.3" style="stop-color:#BFBFBF"/>
					<stop  offset="0.7" style="stop-color:#BFBFBF"/>
					<stop  offset="0.7468" style="stop-color:#B9B9B9"/>
					<stop  offset="0.8081" style="stop-color:#A9A9A9"/>
					<stop  offset="0.8774" style="stop-color:#8E8E8E"/>
					<stop  offset="0.952" style="stop-color:#696969"/>
					<stop  offset="1" style="stop-color:#4D4D4D"/>
				</linearGradient>
				<polygon class="st8" points="88.3,53.2 92.7,51.4 89.4,43.1 85,44.9 				"/>
				<g>
					<path class="st9" d="M85.3,45.7l0.2,0.5c0,0,0,0,0,0c0.9-0.2,2.3-0.6,3.7-1c0.3-0.1,0.8-0.2,0.8-0.2c0.6-0.1,1.1,0,1.3,0.4
						c0.2,0.3-0.4,0.8-0.8,1l-0.2-0.4c-0.2,0.1-0.5,0.1-0.8,0.2c-2.8,0.8-3.8,1-3.8,1c-0.6,0.1-1.2,0-1.3-0.4
						C84.4,46.3,85,45.9,85.3,45.7z"/>
					
						<linearGradient id="SVGID_5_" gradientUnits="userSpaceOnUse" x1="125.0814" y1="-575.8058" x2="131.9824" y2="-575.8058" gradientTransform="matrix(-0.928 0.3724 0.3724 0.928 421.6721 532.429)">
						<stop  offset="0" style="stop-color:#4D4D4D"/>
						<stop  offset="7.062650e-03" style="stop-color:#525252"/>
						<stop  offset="7.697048e-02" style="stop-color:#828282"/>
						<stop  offset="0.1434" style="stop-color:#A7A7A7"/>
						<stop  offset="0.2046" style="stop-color:#C3C3C3"/>
						<stop  offset="0.2587" style="stop-color:#D3D3D3"/>
						<stop  offset="0.3" style="stop-color:#D9D9D9"/>
						<stop  offset="0.7" style="stop-color:#D9D9D9"/>
						<stop  offset="0.7413" style="stop-color:#D3D3D3"/>
						<stop  offset="0.7954" style="stop-color:#C3C3C3"/>
						<stop  offset="0.8566" style="stop-color:#A7A7A7"/>
						<stop  offset="0.923" style="stop-color:#828282"/>
						<stop  offset="0.9929" style="stop-color:#525252"/>
						<stop  offset="1" style="stop-color:#4D4D4D"/>
					</linearGradient>
					<path class="st10" d="M89.3,45.4c0.7-0.2,1.3-0.3,1.7-0.4c0.2,0.1,0.3,0.2,0.4,0.4c0,0,0,0.1,0,0.1c-0.4,0.1-1,0.2-1.9,0.5
						c-1.4,0.4-2.8,0.9-3.7,1c-0.4,0.1-0.7,0.1-1,0.1c-0.1-0.1-0.2-0.2-0.3-0.3c0-0.1,0-0.2,0-0.2c0.3,0,0.7,0,1.1-0.1
						C86.5,46.2,88,45.8,89.3,45.4z"/>
				</g>
				<g>
					<path class="st9" d="M86.1,47.6l0.2,0.5c0,0,0,0,0,0c0.9-0.2,2.3-0.6,3.7-1c0.3-0.1,0.8-0.2,0.8-0.2c0.6-0.1,1.1,0,1.3,0.4
						c0.2,0.3-0.4,0.8-0.8,1l-0.2-0.4c-0.2,0.1-0.5,0.1-0.8,0.2c-2.8,0.8-3.8,1-3.8,1c-0.6,0.1-1.2,0-1.3-0.4
						C85.1,48.2,85.7,47.8,86.1,47.6z"/>
					
						<linearGradient id="SVGID_6_" gradientUnits="userSpaceOnUse" x1="125.0812" y1="-573.7984" x2="131.9821" y2="-573.7984" gradientTransform="matrix(-0.928 0.3724 0.3724 0.928 421.6721 532.429)">
						<stop  offset="0" style="stop-color:#4D4D4D"/>
						<stop  offset="7.062650e-03" style="stop-color:#525252"/>
						<stop  offset="7.697048e-02" style="stop-color:#828282"/>
						<stop  offset="0.1434" style="stop-color:#A7A7A7"/>
						<stop  offset="0.2046" style="stop-color:#C3C3C3"/>
						<stop  offset="0.2587" style="stop-color:#D3D3D3"/>
						<stop  offset="0.3" style="stop-color:#D9D9D9"/>
						<stop  offset="0.7" style="stop-color:#D9D9D9"/>
						<stop  offset="0.7413" style="stop-color:#D3D3D3"/>
						<stop  offset="0.7954" style="stop-color:#C3C3C3"/>
						<stop  offset="0.8566" style="stop-color:#A7A7A7"/>
						<stop  offset="0.923" style="stop-color:#828282"/>
						<stop  offset="0.9929" style="stop-color:#525252"/>
						<stop  offset="1" style="stop-color:#4D4D4D"/>
					</linearGradient>
					<path class="st11" d="M90.1,47.2c0.7-0.2,1.3-0.3,1.7-0.4c0.2,0.1,0.3,0.2,0.4,0.4c0,0,0,0.1,0,0.1c-0.4,0.1-1,0.2-1.9,0.5
						c-1.4,0.4-2.8,0.9-3.7,1c-0.4,0.1-0.7,0.1-1,0.1c-0.1-0.1-0.2-0.2-0.3-0.3c0-0.1,0-0.2,0-0.2c0.3,0,0.7,0,1.1-0.1
						C87.2,48.1,88.7,47.6,90.1,47.2z"/>
				</g>
				<g>
					<path class="st9" d="M86.8,49.4l0.2,0.5c0,0,0,0,0,0c0.9-0.2,2.3-0.6,3.7-1c0.3-0.1,0.8-0.2,0.8-0.2c0.6-0.1,1.1,0,1.3,0.4
						c0.2,0.3-0.4,0.8-0.8,1L92,49.6c-0.2,0.1-0.5,0.1-0.8,0.2c-2.8,0.8-3.8,1-3.8,1c-0.6,0.1-1.2,0-1.3-0.4
						C85.9,50,86.5,49.6,86.8,49.4z"/>
					
						<linearGradient id="SVGID_7_" gradientUnits="userSpaceOnUse" x1="125.0808" y1="-571.791" x2="131.9821" y2="-571.791" gradientTransform="matrix(-0.928 0.3724 0.3724 0.928 421.6721 532.429)">
						<stop  offset="0" style="stop-color:#4D4D4D"/>
						<stop  offset="7.062650e-03" style="stop-color:#525252"/>
						<stop  offset="7.697048e-02" style="stop-color:#828282"/>
						<stop  offset="0.1434" style="stop-color:#A7A7A7"/>
						<stop  offset="0.2046" style="stop-color:#C3C3C3"/>
						<stop  offset="0.2587" style="stop-color:#D3D3D3"/>
						<stop  offset="0.3" style="stop-color:#D9D9D9"/>
						<stop  offset="0.7" style="stop-color:#D9D9D9"/>
						<stop  offset="0.7413" style="stop-color:#D3D3D3"/>
						<stop  offset="0.7954" style="stop-color:#C3C3C3"/>
						<stop  offset="0.8566" style="stop-color:#A7A7A7"/>
						<stop  offset="0.923" style="stop-color:#828282"/>
						<stop  offset="0.9929" style="stop-color:#525252"/>
						<stop  offset="1" style="stop-color:#4D4D4D"/>
					</linearGradient>
					<path class="st12" d="M90.8,49.1c0.7-0.2,1.3-0.3,1.7-0.4c0.2,0.1,0.3,0.2,0.4,0.4c0,0,0,0.1,0,0.1c-0.4,0.1-1,0.2-1.9,0.5
						c-1.4,0.4-2.8,0.9-3.7,1c-0.4,0.1-0.7,0.1-1,0.1c-0.1-0.1-0.2-0.2-0.3-0.3c0-0.1,0-0.2,0-0.2c0.3,0,0.7,0,1.1-0.1
						C88,49.9,89.5,49.5,90.8,49.1z"/>
				</g>
				<g>
					<path class="st9" d="M86.8,52.2C86.8,52.2,86.8,52.2,86.8,52.2C86.8,52.2,86.8,52.1,86.8,52.2c0-0.1,0-0.1,0-0.1c0,0,0,0,0,0
						c0,0,0,0,0-0.1c0.1-0.3,0.5-0.6,0.8-0.7l0.2,0.5c0,0,0,0,0,0c0.6-0.1,1.7-0.4,2.6-0.7l0.4,0.9c-1.7,0.5-2.6,0.7-2.6,0.7
						c-0.4,0-0.8,0-1-0.1c-0.1,0-0.1-0.1-0.2-0.1c0,0,0,0,0,0c0,0,0,0-0.1-0.1c0,0,0,0,0,0C86.8,52.3,86.8,52.3,86.8,52.2
						C86.8,52.2,86.8,52.2,86.8,52.2z"/>
					
						<linearGradient id="SVGID_8_" gradientUnits="userSpaceOnUse" x1="123.0964" y1="-569.8007" x2="131.9821" y2="-569.8007" gradientTransform="matrix(-0.928 0.3724 0.3724 0.928 421.6721 532.429)">
						<stop  offset="0" style="stop-color:#4D4D4D"/>
						<stop  offset="4.800854e-02" style="stop-color:#696969"/>
						<stop  offset="0.1226" style="stop-color:#8E8E8E"/>
						<stop  offset="0.1919" style="stop-color:#A9A9A9"/>
						<stop  offset="0.2532" style="stop-color:#B9B9B9"/>
						<stop  offset="0.3" style="stop-color:#BFBFBF"/>
						<stop  offset="0.7" style="stop-color:#BFBFBF"/>
						<stop  offset="0.7468" style="stop-color:#B9B9B9"/>
						<stop  offset="0.8081" style="stop-color:#A9A9A9"/>
						<stop  offset="0.8774" style="stop-color:#8E8E8E"/>
						<stop  offset="0.952" style="stop-color:#696969"/>
						<stop  offset="1" style="stop-color:#4D4D4D"/>
					</linearGradient>
					<path class="st13" d="M86.9,52.4C86.9,52.4,86.9,52.4,86.9,52.4C86.9,52.4,86.9,52.4,86.9,52.4C86.8,52.4,86.8,52.4,86.9,52.4
						c-0.1-0.1-0.1-0.2-0.1-0.2c0,0,0,0,0-0.1c0,0,0,0,0,0c0,0,0,0,0,0c0,0,0,0,0,0c0,0,0,0,0,0c0,0,0,0,0-0.1l0,0
						c0.3,0,0.7,0,1.1-0.1c0.3-0.1,0.7-0.1,1.1-0.3c0.4-0.1,1.5-0.7,2-1l0.5,1.2c-0.5,0-1.9,0.2-2.2,0.3c-0.4,0.1-0.8,0.2-1.1,0.3
						c-0.4,0.1-0.7,0.1-1,0.1l0,0C87,52.5,87,52.5,86.9,52.4z"/>
				</g>
			</g>
			<g>
				
					<linearGradient id="SVGID_9_" gradientUnits="userSpaceOnUse" x1="123.7504" y1="-573.2371" x2="125.909" y2="-573.2371" gradientTransform="matrix(-0.928 0.3724 0.3724 0.928 421.6721 532.429)">
					<stop  offset="0" style="stop-color:#4D4D4D"/>
					<stop  offset="7.376400e-02" style="stop-color:#515151"/>
					<stop  offset="0.1493" style="stop-color:#5D5D5D"/>
					<stop  offset="0.2255" style="stop-color:#717171"/>
					<stop  offset="0.3024" style="stop-color:#8E8E8E"/>
					<stop  offset="0.379" style="stop-color:#B3B3B3"/>
					<stop  offset="0.4021" style="stop-color:#BFBFBF"/>
					<stop  offset="0.695" style="stop-color:#BFBFBF"/>
					<stop  offset="0.7462" style="stop-color:#BABABA"/>
					<stop  offset="0.8052" style="stop-color:#ADADAD"/>
					<stop  offset="0.8681" style="stop-color:#959595"/>
					<stop  offset="0.9336" style="stop-color:#757575"/>
					<stop  offset="1" style="stop-color:#4D4D4D"/>
				</linearGradient>
				<path class="st14" d="M90.7,43.3c-0.2-0.2-0.5-0.3-0.7-0.4c-0.1,0-0.2,0-0.3,0c-0.1,0-0.1,0-0.1-0.1c0-0.1-0.1-0.2-0.1-0.2
					c0.6-0.2,1.3-0.5,1.9-0.7c0.1,0,0.1,0,0.1,0.1c0.1,0.2,0.1,0.4,0.2,0.5c0.6,1.5,1.2,3.1,1.8,4.6c0.5,1.3,1,2.6,1.6,3.9
					c0,0.1,0,0.1,0.1,0.2c0,0-0.4,0.2-0.4,0.2c-0.5,0.2-1,0.4-1.5,0.7c0-0.1-0.1-0.2-0.1-0.2c0-0.1,0-0.1,0.1-0.1
					c0.1-0.1,0.2-0.1,0.3-0.2c0.2-0.2,0.4-0.5,0.2-0.8c-0.2-0.3-0.5-0.3-0.8-0.4c-0.1,0-0.2,0-0.3,0c0,0,0-0.1,0-0.1
					c0-0.1-0.1-0.2-0.1-0.3c0,0,0,0,0-0.1c0.1-0.1,0.2-0.1,0.2-0.2c0.1-0.1,0.3-0.3,0.3-0.4c0.1-0.2-0.1-0.5-0.3-0.6
					c-0.1-0.1-0.3-0.1-0.4-0.2c-0.1,0-0.5,0-0.5,0c0-0.1-0.1-0.2-0.1-0.3c0,0,0-0.1-0.1-0.1c0-0.1,0-0.1,0.1-0.1
					c0.2-0.2,0.6-0.5,0.6-0.8c0-0.2-0.2-0.4-0.4-0.5c-0.1-0.1-0.3-0.1-0.4-0.1c-0.1,0-0.4,0-0.4-0.1c0-0.1-0.1-0.2-0.1-0.3
					c0,0,0-0.1,0-0.1c0,0,0.2-0.1,0.2-0.2c0.2-0.2,0.5-0.4,0.4-0.7c0-0.3-0.3-0.4-0.6-0.5c-0.2,0-0.3-0.1-0.5-0.1c0,0-0.1,0-0.2,0
					c0,0,0-0.1-0.1-0.1c0-0.1-0.1-0.2-0.1-0.3c0,0,0.3-0.3,0.4-0.3C90.8,43.8,90.9,43.6,90.7,43.3"/>
				
					<linearGradient id="SVGID_10_" gradientUnits="userSpaceOnUse" x1="124.8297" y1="-568.1349" x2="124.8297" y2="-578.3394" gradientTransform="matrix(-0.928 0.3724 0.3724 0.928 421.6721 532.429)">
					<stop  offset="0" style="stop-color:#4D4D4D"/>
					<stop  offset="7.239036e-02" style="stop-color:#7F7F7F"/>
					<stop  offset="0.1786" style="stop-color:#C4C4C4"/>
					<stop  offset="0.2555" style="stop-color:#EFEFEF"/>
					<stop  offset="0.2946" style="stop-color:#FFFFFF"/>
					<stop  offset="0.695" style="stop-color:#FFFFFF"/>
					<stop  offset="0.7371" style="stop-color:#FBFBFB"/>
					<stop  offset="0.783" style="stop-color:#EDEDED"/>
					<stop  offset="0.8307" style="stop-color:#D8D8D8"/>
					<stop  offset="0.8798" style="stop-color:#B9B9B9"/>
					<stop  offset="0.9298" style="stop-color:#929292"/>
					<stop  offset="0.9799" style="stop-color:#626262"/>
					<stop  offset="1" style="stop-color:#4D4D4D"/>
				</linearGradient>
				<path class="st15" d="M90.7,43.3c-0.2-0.2-0.5-0.3-0.7-0.4c-0.1,0-0.2,0-0.3,0c-0.1,0-0.1,0-0.1-0.1c0-0.1-0.1-0.2-0.1-0.2
					c0.6-0.2,1.3-0.5,1.9-0.7c0.1,0,0.1,0,0.1,0.1c0.1,0.2,0.1,0.4,0.2,0.5c0.6,1.5,1.2,3.1,1.8,4.6c0.5,1.3,1,2.6,1.6,3.9
					c0,0.1,0,0.1,0.1,0.2c0,0-0.4,0.2-0.4,0.2c-0.5,0.2-1,0.4-1.5,0.7c0-0.1-0.1-0.2-0.1-0.2c0-0.1,0-0.1,0.1-0.1
					c0.1-0.1,0.2-0.1,0.3-0.2c0.2-0.2,0.4-0.5,0.2-0.8c-0.2-0.3-0.5-0.3-0.8-0.4c-0.1,0-0.2,0-0.3,0c0,0,0-0.1,0-0.1
					c0-0.1-0.1-0.2-0.1-0.3c0,0,0,0,0-0.1c0.1-0.1,0.2-0.1,0.2-0.2c0.1-0.1,0.3-0.3,0.3-0.4c0.1-0.2-0.1-0.5-0.3-0.6
					c-0.1-0.1-0.3-0.1-0.4-0.2c-0.1,0-0.5,0-0.5,0c0-0.1-0.1-0.2-0.1-0.3c0,0,0-0.1-0.1-0.1c0-0.1,0-0.1,0.1-0.1
					c0.2-0.2,0.6-0.5,0.6-0.8c0-0.2-0.2-0.4-0.4-0.5c-0.1-0.1-0.3-0.1-0.4-0.1c-0.1,0-0.4,0-0.4-0.1c0-0.1-0.1-0.2-0.1-0.3
					c0,0,0-0.1,0-0.1c0,0,0.2-0.1,0.2-0.2c0.2-0.2,0.5-0.4,0.4-0.7c0-0.3-0.3-0.4-0.6-0.5c-0.2,0-0.3-0.1-0.5-0.1c0,0-0.1,0-0.2,0
					c0,0,0-0.1-0.1-0.1c0-0.1-0.1-0.2-0.1-0.3c0,0,0.3-0.3,0.4-0.3C90.8,43.8,90.9,43.6,90.7,43.3"/>
				<path class="st16" d="M92.9,50.4c-0.1,0-0.2,0-0.3,0c0,0,0-0.1,0-0.1L92.4,50c0,0,0,0,0-0.1c0.1-0.1,0.2-0.1,0.2-0.2
					c0.1-0.1,0.3-0.3,0.3-0.4c0.1-0.2-0.1-0.5-0.3-0.6c-0.1-0.1-0.3-0.1-0.4-0.2c-0.1,0-0.5,0-0.5,0l-0.2-0.4c0-0.1,0-0.1,0.1-0.1
					c0.2-0.2,0.6-0.5,0.6-0.8c0-0.2-0.2-0.4-0.4-0.5c-0.1-0.1-0.3-0.1-0.4-0.1c-0.1,0-0.4,0-0.4-0.1l-0.1-0.4c0,0,0.2-0.1,0.2-0.2
					c0.2-0.2,0.5-0.4,0.4-0.7c0-0.3-0.3-0.4-0.6-0.5c-0.2,0-0.3-0.1-0.5-0.1c0,0-0.1,0-0.2,0l-0.2-0.4c0,0,0.3-0.3,0.4-0.3
					c0.2-0.2,0.3-0.5,0.2-0.7c-0.2-0.2-0.5-0.3-0.7-0.4c-0.1,0-0.2,0-0.3,0c-0.1,0-0.1,0-0.1-0.1l-0.1-0.2c0,0,0.1,0,0.1-0.1
					l0.1,0.2c0,0.1,0,0.1,0.1,0.1c0.1,0,0.2,0,0.3,0c0.3,0,0.6,0.1,0.7,0.4c0.2,0.3,0,0.5-0.2,0.7c0,0-0.4,0.3-0.4,0.3l0.2,0.4
					c0,0,0.1,0,0.2,0c0.2,0,0.3,0,0.5,0.1c0.2,0.1,0.5,0.2,0.6,0.5c0.1,0.3-0.2,0.6-0.4,0.7c0,0-0.2,0.1-0.2,0.2l0.1,0.4
					c0,0.1,0.3,0,0.4,0.1c0.1,0,0.3,0,0.4,0.1c0.2,0.1,0.4,0.3,0.4,0.5c0,0.3-0.3,0.6-0.6,0.8c0,0-0.1,0-0.1,0.1l0.2,0.4
					c0,0,0.5,0,0.5,0c0.2,0,0.3,0.1,0.4,0.2c0.2,0.1,0.3,0.4,0.3,0.6c-0.1,0.2-0.2,0.3-0.3,0.4c-0.1,0.1-0.2,0.1-0.2,0.2
					c-0.1,0,0,0,0,0.1l0.1,0.3c0,0,0,0.1,0,0.1c0.1,0,0.2,0,0.3,0c0.3,0,0.6,0.1,0.8,0.4c0.2,0.3,0,0.6-0.2,0.8
					c-0.1,0.1-0.2,0.1-0.3,0.2c-0.1,0-0.1,0-0.1,0.1l0.1,0.2c0,0-0.1,0-0.1,0.1l-0.1-0.2c0-0.1,0-0.1,0.1-0.1
					c0.1-0.1,0.2-0.1,0.3-0.2c0.2-0.2,0.4-0.5,0.2-0.8C93.5,50.5,93.2,50.4,92.9,50.4z"/>
			</g>
			<g>
				
					<linearGradient id="SVGID_12_" gradientUnits="userSpaceOnUse" x1="-117.192" y1="547.1396" x2="-75.6713" y2="644.9563" gradientTransform="matrix(-0.7193 -0.6946 -0.6946 0.7193 408.8325 -428.8361)">
					<stop  offset="0" style="stop-color:#CCCCCC"/>
					<stop  offset="9.164444e-02" style="stop-color:#B2B2B2"/>
					<stop  offset="0.1542" style="stop-color:#A6A6A6"/>
					<stop  offset="0.1696" style="stop-color:#A8A8A8"/>
					<stop  offset="0.1752" style="stop-color:#AEAEAE"/>
					<stop  offset="0.1791" style="stop-color:#BABABA"/>
					<stop  offset="0.1802" style="stop-color:#BFBFBF"/>
					<stop  offset="0.1812" style="stop-color:#B1B1B1"/>
					<stop  offset="0.1829" style="stop-color:#A1A1A1"/>
					<stop  offset="0.1849" style="stop-color:#959595"/>
					<stop  offset="0.1878" style="stop-color:#8E8E8E"/>
					<stop  offset="0.1958" style="stop-color:#8C8C8C"/>
					<stop  offset="0.2083" style="stop-color:#9E9E9E"/>
					<stop  offset="0.2288" style="stop-color:#B3B3B3"/>
					<stop  offset="0.2531" style="stop-color:#C4C4C4"/>
					<stop  offset="0.2831" style="stop-color:#D0D0D0"/>
					<stop  offset="0.3251" style="stop-color:#D7D7D7"/>
					<stop  offset="0.4419" style="stop-color:#D9D9D9"/>
					<stop  offset="1" style="stop-color:#BFBFBF"/>
				</linearGradient>
				<path class="st17" d="M78,49.3c-3,6.3-26.1,27.2-32.1,32.9c-6,5.7-19.3,17.8-21.5,21.3c-0.8,1.4-1.5,4.1,1.1,6.8
					c2.6,2.7,5.5,2.3,7.3,1.4c2-1,17.5-17.9,21-21.8c3.5-3.8,27.1-30.7,32.1-32.6c5-1.9,12.6-3.3,14.9-3.7c0.4-0.1,0.6-0.4,0.4-0.8
					l-7.8-19.2l0.4-1.7l10.9-4.3c0.4-0.1,0.4-0.5,0.1-0.7c-1.1-0.9-4.1-2.8-10-3c-7.7-0.3-10.8,6-11.5,7.6
					C82.6,33,80.9,43.1,78,49.3z M86.1,52.9c-0.1-0.1-0.2-0.2-0.2-0.4l-1.9-5.2c-0.2-0.5,0-1.1,0.5-1.4l5.8-2.8
					c0.3-0.2,0.7-0.1,1,0.1c0.1,0.1,0.2,0.2,0.2,0.3L94,50c0.1,0.2,0.1,0.5,0,0.7c-0.1,0.2-0.3,0.4-0.5,0.5l-6.3,2
					C86.8,53.3,86.4,53.2,86.1,52.9z M27.3,103.4c1.4-1.5,3.8-1.5,5.3-0.1c1.5,1.4,1.5,3.8,0.1,5.3c-1.4,1.5-3.8,1.5-5.3,0.1
					C26,107.2,25.9,104.9,27.3,103.4z"/>
				
					<linearGradient id="SVGID_13_" gradientUnits="userSpaceOnUse" x1="-91.8563" y1="654.1922" x2="-91.8563" y2="538.9615" gradientTransform="matrix(-0.7193 -0.6946 -0.6946 0.7193 408.8325 -428.8361)">
					<stop  offset="0.6967" style="stop-color:#808080"/>
					<stop  offset="0.7504" style="stop-color:#E6E6E6"/>
				</linearGradient>
				<path class="st18" d="M83.3,31.3c0.7-1.6,3.8-7.9,11.5-7.6c5.8,0.2,8.9,2.1,10,3c0,0,0.1,0.1,0.1,0.1c-1.2-0.9-4.2-2.7-9.9-3
					c-7.7-0.3-10.8,6-11.5,7.6c-0.7,1.7-2.4,11.9-5.4,18c-3,6.3-26.1,27.2-32.1,32.9c-6,5.7-19.3,17.8-21.5,21.3
					c-0.8,1.4-1.5,4.1,1.1,6.8c0,0,0.1,0.1,0.1,0.1c-0.1-0.1-0.2-0.2-0.3-0.3c-2.6-2.7-1.9-5.4-1.1-6.8c2.2-3.5,15.5-15.6,21.5-21.3
					c6-5.7,29.1-26.6,32.1-32.9C80.9,43.1,82.6,33,83.3,31.3z"/>
				
					<linearGradient id="SVGID_14_" gradientUnits="userSpaceOnUse" x1="-103.2743" y1="653.6006" x2="-103.2743" y2="538.9614" gradientTransform="matrix(-0.7193 -0.6946 -0.6946 0.7193 408.8325 -428.8361)">
					<stop  offset="0.6967" style="stop-color:#808080"/>
					<stop  offset="0.8423" style="stop-color:#D9D9D9"/>
				</linearGradient>
				<path class="st19" d="M104.4,27.4c0.4-0.1,0.4-0.5,0.1-0.7c-0.6-0.5-1.9-1.4-4-2c2.3,0.7,3.6,1.6,4.3,2.1
					c0.3,0.2,0.2,0.6-0.1,0.7l-10.9,4.3l-0.4,1.7l7.8,19.2c0.1,0.4,0,0.7-0.4,0.8c-2.3,0.4-9.8,1.8-14.9,3.7
					c-5,1.9-28.6,28.8-32.1,32.6c-3.5,3.8-19,20.8-21,21.8c-1.1,0.6-2.8,0.9-4.6,0.3c1.7,0.5,3.2,0.1,4.3-0.4c2-1,17.5-17.9,21-21.8
					c3.5-3.8,27.1-30.7,32.1-32.6c5-1.9,12.6-3.3,14.9-3.7c0.4-0.1,0.6-0.4,0.4-0.8L93,33.4l0.4-1.7L104.4,27.4z"/>
				
					<linearGradient id="SVGID_15_" gradientUnits="userSpaceOnUse" x1="-99.0294" y1="643.8948" x2="-99.0294" y2="651.9144" gradientTransform="matrix(-0.7193 -0.6946 -0.6946 0.7193 408.8325 -428.8361)">
					<stop  offset="0" style="stop-color:#666666"/>
					<stop  offset="0.2802" style="stop-color:#919191"/>
					<stop  offset="0.7709" style="stop-color:#D7D7D7"/>
					<stop  offset="1" style="stop-color:#F2F2F2"/>
				</linearGradient>
				<path class="st20" d="M27.1,103.2c-1.5,1.6-1.5,4.1,0.1,5.7c1.6,1.5,4.1,1.5,5.7-0.1c1.5-1.6,1.5-4.1-0.1-5.7
					C31.2,101.6,28.7,101.6,27.1,103.2z M27.3,103.4c1.4-1.5,3.8-1.5,5.3-0.1c1.5,1.4,1.5,3.8,0.1,5.3c-1.4,1.5-3.8,1.5-5.3,0.1
					C26,107.2,25.9,104.9,27.3,103.4z"/>
				<path class="st7" d="M30.8,99.9c1.2,0.1,2.6,0.6,3.7,1.7c1.1,1.1,1.7,2.4,1.8,3.6c0,0.4,0.2,0.5,0.5,0.2l42.7-45.9
					c0.6-1,0.5-2.4-0.4-3.3c-0.9-0.9-2.3-1-3.3-0.3L30.6,99.5C30.3,99.7,30.4,99.9,30.8,99.9z"/>
				
					<linearGradient id="SVGID_16_" gradientUnits="userSpaceOnUse" x1="-99.1898" y1="642.2814" x2="-99.1898" y2="578.6782" gradientTransform="matrix(-0.7193 -0.6946 -0.6946 0.7193 408.8325 -428.8361)">
					<stop  offset="0" style="stop-color:#D9D9D9"/>
					<stop  offset="1" style="stop-color:#BFBFBF"/>
				</linearGradient>
				<path class="st21" d="M36.7,104.6l42.2-45.4c0.5-0.8,0.4-1.9-0.3-2.5l0,0c-0.7-0.7-1.7-0.8-2.5-0.3l-44.6,43
					c1.2,0.2,2.4,0.8,3.4,1.8l0,0C35.8,102.2,36.5,103.4,36.7,104.6L36.7,104.6z"/>
				
					<linearGradient id="SVGID_17_" gradientUnits="userSpaceOnUse" x1="-105.5562" y1="567.5592" x2="-97.0796" y2="563.6065" gradientTransform="matrix(-0.7193 -0.6946 -0.6946 0.7193 408.8325 -428.8361)">
					<stop  offset="4.852690e-02" style="stop-color:#737373"/>
					<stop  offset="0.1508" style="stop-color:#E6E6E6"/>
					<stop  offset="0.8163" style="stop-color:#E6E6E6"/>
					<stop  offset="0.9133" style="stop-color:#737373"/>
				</linearGradient>
				<path class="st22" d="M83.1,47.9l1.9,5c0.3,0.7,1.1,1.1,1.8,0.9l7.3-2.3c0.7-0.2,1.1-1,0.8-1.7l-2.5-6.3c-0.3-0.7-1.1-1-1.7-0.7
					L83.8,46C83.1,46.3,82.8,47.2,83.1,47.9z M84.5,46.1l5.8-2.8c0.3-0.2,0.7-0.1,1,0.1c0.1,0.1,0.2,0.2,0.2,0.3L94,50
					c0.1,0.2,0.1,0.5,0,0.7c-0.1,0.2-0.3,0.4-0.5,0.5l-6.3,2c-0.4,0.1-0.8,0-1.1-0.3c-0.1-0.1-0.2-0.2-0.2-0.4l-1.9-5.2
					C83.7,46.9,84,46.3,84.5,46.1z"/>
			</g>
		</g>
		<linearGradient id="SVGID_18_" gradientUnits="userSpaceOnUse" x1="62.8208" y1="74.2352" x2="52.4281" y2="82.3549">
			<stop  offset="0.1069" style="stop-color:#4D4D4D"/>
			<stop  offset="0.1507" style="stop-color:#5F5F5F"/>
			<stop  offset="0.3017" style="stop-color:#979797"/>
			<stop  offset="0.4414" style="stop-color:#C4C4C4"/>
			<stop  offset="0.5655" style="stop-color:#E4E4E4"/>
			<stop  offset="0.6694" style="stop-color:#F8F8F8"/>
			<stop  offset="0.7405" style="stop-color:#FFFFFF"/>
		</linearGradient>
		<path class="st23" d="M56.9,86.3c2.2-2.5,5.3-5.9,8.6-9.5c-1.9-2.5-3.9-5-6-7.5c-3,2.8-5.9,5.6-8.3,7.8
			C53.1,80.2,55,83.3,56.9,86.3z"/>
	</g>
	
		<linearGradient id="SVGID_19_" gradientUnits="userSpaceOnUse" x1="290.2592" y1="-440.3872" x2="290.2592" y2="-499.1325" gradientTransform="matrix(0.768 -0.7643 0.754 0.7577 213.887 664.1198)">
		<stop  offset="1.733100e-03" style="stop-color:#1A1A1A"/>
		<stop  offset="0.1379" style="stop-color:#1A1A1A"/>
		<stop  offset="0.9653" style="stop-color:#1A1A1A"/>
		<stop  offset="0.9743" style="stop-color:#202020"/>
		<stop  offset="0.986" style="stop-color:#303030"/>
		<stop  offset="0.9992" style="stop-color:#4B4B4B"/>
		<stop  offset="1" style="stop-color:#4D4D4D"/>
	</linearGradient>
	<path class="st24" d="M99.2,111.9c-5-4.7-25.2-24-41.4-43.5c-0.4-0.5-0.4-1.3,0.1-1.8c1.6-1.6,3.5-3.5,5.1-5.1
		c0.5-0.5,1.3-0.5,1.8-0.1c19.4,16.3,38.6,36.6,43.3,41.6c0.6,0.6,0.6,1.6,0,2.2l-6.6,6.6C100.9,112.5,99.9,112.5,99.2,111.9z"/>
	<g>
		<path class="st25" d="M60.7,71.8l7.5-7.4c-0.7-0.6-1.4-1.2-2.1-1.8l-7.2,7.1C59.4,70.3,60.1,71,60.7,71.8z"/>
		<path class="st26" d="M58.9,69.7l7.2-7.1c-0.1-0.1-0.2-0.1-0.2-0.2l-7.1,7.1C58.8,69.6,58.9,69.7,58.9,69.7z"/>
		<path class="st26" d="M60.8,71.9l7.5-7.5c-0.1-0.1-0.2-0.1-0.2-0.2l-7.5,7.4C60.6,71.7,60.7,71.8,60.8,71.9z"/>
	</g>
	<g>
		<path class="st27" d="M99.2,111.9c0.6,0.6,1.6,0.6,2.2,0l6.6-6.6c0.6-0.6,0.6-1.6,0-2.2c-2.2-2.3-7.5-7.9-14.5-14.9l-9.2,9.2
			C91.3,104.4,96.9,109.7,99.2,111.9z"/>
		<path class="st28" d="M84.5,97.5l9.2-9.2c-0.1-0.1-0.1-0.1-0.2-0.2l-9.2,9.2C84.4,97.3,84.4,97.4,84.5,97.5z"/>
	</g>
	<g>
		
			<linearGradient id="SVGID_20_" gradientUnits="userSpaceOnUse" x1="-43.8983" y1="373.6548" x2="-40.638" y2="373.6548" gradientTransform="matrix(-1.0713 1.0874 0.7124 0.7019 -268.1047 -169.1618)">
			<stop  offset="0" style="stop-color:#808080"/>
			<stop  offset="4.669595e-02" style="stop-color:#8F8F8F"/>
			<stop  offset="0.1366" style="stop-color:#B6B6B6"/>
			<stop  offset="0.2305" style="stop-color:#E6E6E6"/>
			<stop  offset="0.3865" style="stop-color:#E6E6E6"/>
			<stop  offset="0.5615" style="stop-color:#B3B3B3"/>
			<stop  offset="0.5738" style="stop-color:#B7B7B7"/>
			<stop  offset="0.6928" style="stop-color:#D9D9D9"/>
			<stop  offset="0.7574" style="stop-color:#E6E6E6"/>
			<stop  offset="0.811" style="stop-color:#C8C8C8"/>
			<stop  offset="0.8937" style="stop-color:#A1A1A1"/>
			<stop  offset="0.9596" style="stop-color:#888888"/>
			<stop  offset="1" style="stop-color:#808080"/>
		</linearGradient>
		<path class="st29" d="M24.9,32.4c-0.2-0.2-0.2-0.5,0.1-0.8l2.6-2.6c0.3-0.3,0.6-0.3,0.8-0.1l2.4,2.9c0.3,0.5,0.8,1.1,1.2,1.5
			l29.8,29.4l-2.6,2.6L29.4,35.9c-0.4-0.4-1.1-0.9-1.5-1.2L24.9,32.4z"/>
		<path class="st30" d="M24.9,32.4c0,0,5.2,3.3,6,2.5c0.9-0.9-2.6-6-2.6-6l-2-1.5l-3,3.1L24.9,32.4z"/>
		<polygon class="st31" points="26.4,27.4 24.2,25.7 21.7,28.2 23.4,30.4 		"/>
		<polygon points="23.4,30.4 21.8,28.3 24.2,25.8 26.3,27.4 26.4,27.4 24.2,25.7 21.7,28.2 		"/>
		<path class="st6" d="M28.3,28.9c0,0,3.4,5,2.5,5.9c-0.8,0.9-5.9-2.4-5.9-2.4l-1.5-1.9l0,0l1.5,1.9c0,0,5.2,3.3,6,2.5
			C31.8,33.9,28.3,28.8,28.3,28.9l-1.9-1.5l0,0L28.3,28.9z"/>
	</g>
</g>
</svg>
