<?xml version="1.0" encoding="utf-8"?>
<!-- Generator: Adobe Illustrator 22.1.0, SVG Export Plug-In . SVG Version: 6.00 Build 0)  -->
<svg version="1.1" id="Calque_3" xmlns="http://www.w3.org/2000/svg" xmlns:xlink="http://www.w3.org/1999/xlink" x="0px" y="0px"
	 viewBox="0 0 128 128" style="enable-background:new 0 0 128 128;" xml:space="preserve">
<style type="text/css">
	.st0{fill:none;}
	.st1{fill:#572A2D;}
	.st2{clip-path:url(#SVGID_2_);}
	.st3{fill:#C9C7B7;}
	.st4{opacity:0.7;fill:#FFFFFF;}
	.st5{opacity:0.7;fill:#F2F2F2;}
	.st6{opacity:0.58;fill:url(#SVGID_3_);}
	.st7{fill:url(#SVGID_4_);}
	.st8{fill:#47A87C;}
	.st9{fill:#D86E66;}
	.st10{fill:#514335;}
	.st11{fill:#FF8576;}
	.st12{fill:#FCA397;}
	.st13{fill:#466B3D;}
	.st14{fill:#638E54;}
	.st15{fill:#55C690;}
	.st16{fill:#3D9919;}
	.st17{fill:#007634;}
	.st18{fill:#A86736;}
	.st19{fill:#BF753F;}
	.st20{display:none;}
	.st21{display:inline;fill:url(#SVGID_5_);}
	.st22{display:inline;fill:#1B681F;}
	.st23{display:inline;fill:#114F12;}
	.st24{display:inline;fill:#1E7224;}
	.st25{display:inline;fill:#2B892F;}
	.st26{display:inline;fill:#33322D;}
	.st27{display:inline;fill:#2A912F;}
	.st28{fill:#B2F7FF;}
	.st29{fill:url(#SVGID_6_);}
	.st30{fill:#A182A5;}
	.st31{opacity:0.15;fill:#B03D70;}
	.st32{opacity:0.2;fill:#B03D70;}
	.st33{fill:url(#SVGID_7_);}
	.st34{fill:url(#SVGID_8_);}
	.st35{fill:#2E96B6;}
	.st36{fill:url(#SVGID_9_);}
	.st37{fill:#97E1D2;}
	.st38{fill:#6CB1C2;}
	.st39{opacity:0.5;}
	.st40{fill:#A23746;}
	.st41{opacity:0.2;fill:#884FCB;}
	.st42{opacity:0.5;fill:#FFFFFF;}
	.st43{opacity:0.7;fill:url(#SVGID_10_);}
	.st44{opacity:0.5;fill:url(#SVGID_12_);}
	.st45{opacity:0.15;fill:#BF628B;}
	.st46{fill:#F8F3D2;}
	.st47{fill:url(#SVGID_13_);}
	.st48{fill:url(#SVGID_14_);}
	.st49{fill:url(#SVGID_15_);}
	.st50{opacity:0.27;fill:url(#SVGID_16_);}
	.st51{opacity:0.2;fill:#9E1822;}
	.st52{fill:url(#SVGID_17_);}
	.st53{fill:url(#SVGID_18_);}
	.st54{opacity:0.31;fill:#9E1822;}
	.st55{opacity:0.27;fill:url(#SVGID_19_);}
	.st56{fill:#9E1822;}
	.st57{fill:url(#SVGID_20_);}
	.st58{fill:url(#SVGID_21_);}
	.st59{fill:url(#SVGID_22_);}
	.st60{opacity:0.2;fill:#B0434B;}
	.st61{fill:#9F2000;}
	.st62{fill:#FF9013;}
	.st63{fill:url(#SVGID_23_);}
	.st64{fill:#952900;}
	.st65{fill:url(#SVGID_24_);}
	.st66{fill:#E7E8FF;}
	.st67{opacity:0.31;fill:#D4B9CC;}
	.st68{fill:#5E0000;}
	.st69{fill:url(#SVGID_25_);}
	.st70{fill:url(#SVGID_26_);}
	.st71{fill:#EBEDFF;}
	.st72{fill:#B7BBFF;}
	.st73{opacity:0.5;fill:#902C4F;}
	.st74{fill:#902C4F;}
	.st75{fill:#FFAE13;}
	.st76{fill:url(#SVGID_27_);}
	.st77{fill:url(#SVGID_28_);}
	.st78{fill:#7E86FF;}
	.st79{opacity:0.31;fill:#9E618B;}
	.st80{fill:url(#SVGID_29_);}
	.st81{fill:url(#SVGID_30_);}
	.st82{fill:#6F57FF;}
	.st83{fill:url(#SVGID_31_);}
	.st84{opacity:0.5;fill:#FFFFAC;}
	.st85{opacity:0.5;fill:#FF00FF;}
	.st86{opacity:0.2;fill:#C24700;}
	.st87{fill:#FFFFFF;}
	.st88{opacity:0.2;}
	.st89{opacity:0.5;fill:#F8F3D2;}
	.st90{fill:#290D1A;}
	.st91{fill:#DD474C;}
	.st92{opacity:0.7;fill:#FFFFA2;}
	.st93{fill:#FFFFBD;}
	.st94{fill:#FF8367;}
	.st95{fill:#400D2B;}
	.st96{opacity:0.4;fill:#B0434B;}
	.st97{fill:#7777AE;}
	.st98{opacity:0.5;fill:#7E3D45;}
	.st99{fill:#9C96C4;}
	.st100{opacity:0.37;fill:#A23746;}
</style>
<pattern  y="128" width="32.2" height="34.5" patternUnits="userSpaceOnUse" id="SVGID_11_" viewBox="0 -34.5 32.2 34.5" style="overflow:visible;">
	<g>
		<rect y="-34.5" class="st0" width="32.2" height="34.5"/>
		<g>
			<rect y="-34.5" class="st0" width="32.2" height="34.5"/>
			<g>
				<rect y="-34.5" class="st0" width="32.2" height="34.5"/>
				<rect y="-34.5" class="st1" width="32.2" height="34.5"/>
			</g>
		</g>
	</g>
</pattern>
<g>
	<g>
		<defs>
			<circle id="SVGID_1_" cx="64" cy="64" r="64"/>
		</defs>
		<clipPath id="SVGID_2_">
			<use xlink:href="#SVGID_1_"  style="overflow:visible;"/>
		</clipPath>
		<g class="st2">
			<g>
				<ellipse class="st3" cx="64" cy="64" rx="64" ry="64"/>
				<ellipse class="st4" cx="64" cy="64" rx="64" ry="64"/>
				<ellipse class="st5" cx="64" cy="64" rx="64" ry="64"/>
				<linearGradient id="SVGID_3_" gradientUnits="userSpaceOnUse" x1="4.761923e-02" y1="64" x2="127.9524" y2="64">
					<stop  offset="3.888600e-04" style="stop-color:#00E9DF;stop-opacity:0"/>
					<stop  offset="1" style="stop-color:#AFD5D5"/>
				</linearGradient>
				<ellipse class="st6" cx="64" cy="64" rx="64" ry="64"/>
				<linearGradient id="SVGID_4_" gradientUnits="userSpaceOnUse" x1="-9.884197e-04" y1="44.4558" x2="128.001" y2="44.4558">
					<stop  offset="3.888600e-04" style="stop-color:#00E9DF;stop-opacity:0"/>
					<stop  offset="0.9996" style="stop-color:#00A3C8"/>
				</linearGradient>
				<path class="st7" d="M123,88.9c3.2-7.7,5-16.1,5-24.9s-1.8-17.3-5-24.9c-3.2-7.7-7.9-14.6-13.7-20.3S96.6,8.3,88.9,5
					S72.9,0,64,0S46.8,1.8,39.2,5S24.6,13,18.8,18.7S8.4,31.4,5.1,39.1s-5,16.1-5.1,25l1.9,15L123,88.9"/>
			</g>
			<g>
				<path class="st8" d="M130.2,66c-0.4-0.2-1.6,0-2.3,0.4c-0.5,0.2-1.2,0.7-1.2,0.7s0,3.2,0.7,3.3c0.7,0.1,1.9-1.7,2.2-2.1
					C129.9,67.8,130.5,66.2,130.2,66z"/>
				<path class="st8" d="M121.6,66.7c0,0-0.2-1.3-0.1-1.8c0.1-0.5,0.7-1.7,0.9-1.9c0.6-0.3,1.9,1.2,2.1,1.6c0.2,0.3,0.5,1.6,0.5,1.6
					l-1.7,0.9L121.6,66.7z"/>
				<path class="st8" d="M124,65.8c0,0,0.9-0.9,1.4-1.3c0.5-0.3,1.5-0.8,1.8-0.7c0.3,0.2,0.5,0.9,0.4,1.6c-0.1,0.7-0.8,2.9-0.8,2.9
					L124,65.8z"/>
				<path class="st8" d="M119.3,68.4c0,0-0.4-0.9-0.5-1.4c-0.1-0.5-0.1-1.7,0.1-1.9c0.2-0.1,1.6,0.2,2.1,0.3c1.2,0.3,1.8,2,1.8,2
					l-0.6,1.1L119.3,68.4z"/>
				<path class="st9" d="M123.1,69c-4-0.2-4.8,1.5-4.4,2.8l5,3.2c0,0,3.9-1.9,4.3-3.3C128.5,70.1,127.1,69.1,123.1,69z"/>
				<path class="st10" d="M125.6,70.7c0.1-0.7-0.7-0.6-1.2-0.6c-0.5,0-1-0.3-1.5-0.2c-0.3,0-0.5,0.2-0.8,0.3c-0.3,0.1-0.3,0-0.7,0
					c-0.6,0-1.1,0-1.3,0.7c-0.9-0.4-1.4,0.9-1.1,1.6l1.7,2.2c0.9,0.5,2.4,0.6,3.4,0.5c0.6,0,0.9-0.4,1.3-0.6
					c0.4-0.2,0.9-0.1,1.2-0.5C127.7,73,127.1,70.4,125.6,70.7z"/>
				<path class="st11" d="M118.5,71.3c0,0-0.1,2.1,0.2,3.4c0.3,1.5,1,2.4,1.2,3.4c0.1,1,0.1,0.9,2.6,1c2.4,0,3.9,2.4,4.7-2.3
					c0.2-1.2-0.5-0.7,0-1.8c0.5-1.1,0.8-3.4,0.8-3.4s-1.1,1.8-4.3,1.8C120.4,73.3,118.5,71.3,118.5,71.3z"/>
				<path class="st12" d="M121.5,73.7c-0.6-0.2-1.5-0.8-1.8-0.5c-0.8,0.6,1.5,2.4,2.5,1.7C122.9,74.2,121.9,73.8,121.5,73.7z"/>
				<path class="st13" d="M122.4,68.9c0,0,0.1-2.3,0.5-3c0.4-0.7,0.8-1.3,1-1.3c0.2-0.1,1.4,1.1,1.6,2c0.2,0.9-0.2,3.6-0.2,3.6
					l-1.8,1.1L122.4,68.9z"/>
				<path class="st14" d="M120.3,69c0,0-0.1-0.9,0-1.4c0.1-0.5,0.2-1.5,0.4-1.5c0.2,0,1.5,0.6,2.1,1.5c0.5,0.8,1.6,2.8,0.8,3.8
					c-0.4,0.5-0.4,0.7-1.5,0.5C121,71.6,120.6,69.3,120.3,69z"/>
				<path class="st14" d="M123.5,69.8c-0.2-0.5,0.9-2.2,1.4-2.9c0.5-0.7,1.7-1.2,2-1.1c0.3,0.1,0.8,1.8,0.6,2.6
					c-0.2,0.8-2.1,3.6-3,3.5C123.7,71.9,123.6,70.1,123.5,69.8z"/>
				<path class="st13" d="M120.1,71.8c0,0-0.6-0.4-0.9-1.4c-0.3-1-0.9-2.6-0.7-2.7c0.2-0.1,1.6,0.1,2.7,0.9c1.1,0.8,2.4,4,2.4,4
					s-0.5,0.3-1.6,0.1C120.9,72.4,120.7,72.3,120.1,71.8z"/>
				<path class="st13" d="M123.2,71.5c0,0,1.2-2.2,2.1-2.6c0.9-0.5,3.2-1.4,3.5-1.3s-0.7,2.7-1.1,3.5c-0.5,0.8-1,1.4-1,1.4
					s-1.3,0.6-2.9,0.4C123.1,72.8,123.2,71.5,123.2,71.5z"/>
				<g>
					<path class="st15" d="M119.2,68.5c0.1,0.1,0.2,0.2,0.3,0.4c0.1,0.1,0.2,0,0.1-0.1c-0.1-0.1-0.2-0.2-0.3-0.4
						C119.3,68.3,119.1,68.4,119.2,68.5L119.2,68.5z"/>
				</g>
				<g>
					<path class="st15" d="M120.3,68.9c0.1,0.1,0.2,0.2,0.3,0.3c0,0,0.1,0.1,0.1,0c0,0,0.1-0.1,0-0.1c-0.1-0.1-0.2-0.2-0.3-0.4
						C120.3,68.7,120.2,68.8,120.3,68.9L120.3,68.9z"/>
				</g>
				<g>
					<path class="st15" d="M119.4,69.7c0,0.2,0.1,0.4,0.3,0.6c0.1,0.1,0.2,0,0.1-0.1c-0.1-0.1-0.2-0.3-0.3-0.5
						C119.6,69.5,119.4,69.6,119.4,69.7L119.4,69.7z"/>
				</g>
				<g>
					<path class="st15" d="M120.2,69.8c0.1,0.1,0.1,0.2,0.2,0.3c0,0.1,0.2,0.1,0.2,0c0-0.1-0.1-0.3-0.2-0.4
						C120.3,69.6,120.2,69.7,120.2,69.8L120.2,69.8z"/>
				</g>
				<g>
					<path class="st15" d="M120.1,71.1c0.1,0.2,0.3,0.3,0.4,0.5c0.1,0.1,0.2,0,0.1-0.1c-0.1-0.2-0.3-0.3-0.4-0.5
						C120.1,70.9,120,71,120.1,71.1L120.1,71.1z"/>
				</g>
				<g>
					<path class="st15" d="M121,71.4c0.1,0.1,0.1,0.1,0.2,0.2c0,0.1,0.2,0.1,0.2,0c0-0.1-0.1-0.2-0.2-0.3
						C121.1,71.2,120.9,71.3,121,71.4L121,71.4z"/>
				</g>
				<g>
					<path class="st15" d="M121.8,71.7c0.1,0.2,0.1,0.4,0.1,0.6c0,0.1,0.2,0.1,0.2,0c0-0.2,0-0.4-0.1-0.6
						C121.9,71.5,121.7,71.6,121.8,71.7L121.8,71.7z"/>
				</g>
				<g>
					<path class="st15" d="M122,70.8c0.1,0.1,0.1,0.3,0.2,0.4c0,0.1,0.2,0.1,0.2,0c0-0.2-0.1-0.3-0.2-0.5
						C122.1,70.7,122,70.8,122,70.8L122,70.8z"/>
				</g>
				<g>
					<path class="st15" d="M121.3,70.6c0.1,0.1,0.1,0.1,0.2,0.2c0.1,0.1,0.2-0.1,0.1-0.1c-0.1,0-0.1-0.1-0.2-0.1
						C121.4,70.4,121.3,70.5,121.3,70.6L121.3,70.6z"/>
				</g>
				<g>
					<path class="st15" d="M121.3,69.5c0.1,0.1,0.2,0.2,0.3,0.3c0.1,0.1,0.2,0,0.1-0.1c-0.1-0.1-0.2-0.3-0.3-0.4
						C121.3,69.3,121.2,69.5,121.3,69.5L121.3,69.5z"/>
				</g>
				<g>
					<path class="st15" d="M123.9,72.3c0-0.1,0-0.3,0.1-0.4c0.1-0.1-0.1-0.2-0.1-0.1c-0.1,0.2-0.1,0.3-0.1,0.5
						C123.8,72.4,123.9,72.4,123.9,72.3L123.9,72.3z"/>
				</g>
				<g>
					<path class="st15" d="M124.4,71c0-0.2,0.2-0.3,0.3-0.4c0.1-0.1,0-0.2-0.1-0.1c-0.1,0.2-0.3,0.3-0.4,0.5
						C124.2,71.1,124.3,71.1,124.4,71L124.4,71z"/>
				</g>
				<g>
					<path class="st15" d="M124.8,72c0.1-0.2,0.3-0.3,0.4-0.4c0.1-0.1,0-0.2-0.1-0.1c-0.2,0.1-0.3,0.3-0.4,0.4
						C124.6,71.9,124.8,72,124.8,72L124.8,72z"/>
				</g>
				<g>
					<path class="st15" d="M125,72.6c0.2-0.1,0.3-0.2,0.5-0.3c0.1-0.1,0-0.2-0.1-0.1c-0.2,0.1-0.3,0.2-0.5,0.3
						C124.8,72.5,124.9,72.6,125,72.6L125,72.6z"/>
				</g>
				<g>
					<path class="st15" d="M126.4,72.3c0.1-0.2,0.3-0.4,0.5-0.5c0.1-0.1-0.1-0.2-0.1-0.1c-0.1,0.2-0.3,0.3-0.5,0.5
						C126.2,72.3,126.4,72.4,126.4,72.3L126.4,72.3z"/>
				</g>
				<g>
					<path class="st15" d="M126.3,71.6c0.1-0.1,0.2-0.2,0.3-0.4c0.1-0.1-0.1-0.2-0.1-0.1c-0.1,0.1-0.2,0.2-0.3,0.4
						C126.1,71.6,126.2,71.7,126.3,71.6L126.3,71.6z"/>
				</g>
				<g>
					<path class="st15" d="M125.8,70.6c0.1-0.2,0.3-0.4,0.5-0.5c0.1-0.1,0-0.2-0.1-0.1c-0.2,0.2-0.4,0.3-0.5,0.6
						C125.6,70.6,125.8,70.7,125.8,70.6L125.8,70.6z"/>
				</g>
				<g>
					<path class="st15" d="M125.4,69.9c0.1-0.1,0.2-0.3,0.3-0.4c0.1-0.1,0-0.2-0.1-0.1c-0.2,0.1-0.3,0.2-0.4,0.4
						C125.2,69.9,125.4,70,125.4,69.9L125.4,69.9z"/>
				</g>
				<g>
					<path class="st15" d="M126.6,69.1c0.1-0.2,0.3-0.3,0.5-0.4c0.1-0.1,0-0.2-0.1-0.1c-0.2,0.1-0.3,0.2-0.5,0.4
						C126.4,69,126.5,69.2,126.6,69.1L126.6,69.1z"/>
				</g>
				<g>
					<path class="st15" d="M127,69.7c0.1-0.1,0.1-0.2,0.3-0.3c0.1-0.1,0-0.2-0.1-0.1c-0.1,0.1-0.2,0.2-0.3,0.4
						C126.8,69.7,126.9,69.8,127,69.7L127,69.7z"/>
				</g>
				<g>
					<path class="st15" d="M127.2,70.6c0.2-0.2,0.3-0.4,0.4-0.6c0-0.1-0.1-0.2-0.2-0.1c-0.1,0.2-0.2,0.4-0.3,0.5
						C127,70.6,127.1,70.7,127.2,70.6L127.2,70.6z"/>
				</g>
				<g>
					<path class="st15" d="M127.9,68.8c0.1-0.2,0.2-0.3,0.3-0.4c0.1-0.1-0.1-0.2-0.1-0.1c-0.1,0.1-0.2,0.3-0.3,0.4
						C127.7,68.8,127.8,68.9,127.9,68.8L127.9,68.8z"/>
				</g>
				<g>
					<path class="st15" d="M124,65.2c0,0.2,0,0.4-0.1,0.6c0,0.1,0.1,0.2,0.2,0.1c0-0.2,0.1-0.4,0.1-0.6
						C124.2,65.1,124,65.1,124,65.2L124,65.2z"/>
				</g>
				<g>
					<path class="st15" d="M123.6,65.8c-0.1,0.3-0.2,0.5-0.2,0.8c0,0.1,0.1,0.2,0.2,0.1c0.1-0.3,0.2-0.5,0.2-0.8
						C123.8,65.7,123.6,65.7,123.6,65.8L123.6,65.8z"/>
				</g>
				<g>
					<path class="st15" d="M123,66.8c0,0.2,0,0.4,0.1,0.6c0,0.1,0.2,0.1,0.2,0c-0.1-0.2-0.1-0.4-0.1-0.6
						C123.1,66.7,123,66.7,123,66.8L123,66.8z"/>
				</g>
				<g>
					<path class="st15" d="M123.5,67.7c0,0.2,0,0.3,0,0.5c0,0.1,0.2,0.1,0.2,0c0-0.1,0-0.3,0-0.4C123.7,67.6,123.5,67.6,123.5,67.7
						L123.5,67.7z"/>
				</g>
				<g>
					<path class="st15" d="M123.9,66.8c0,0.2,0,0.4,0,0.6c0,0.1,0.2,0.1,0.2,0c0-0.2,0-0.4,0-0.6C124.1,66.7,123.9,66.7,123.9,66.8
						L123.9,66.8z"/>
				</g>
				<g>
					<path class="st15" d="M124.4,66.3c0,0.1,0.1,0.2,0.1,0.4c0,0.1,0.2,0.1,0.2,0c0-0.1-0.1-0.2-0.1-0.4
						C124.5,66.2,124.4,66.2,124.4,66.3L124.4,66.3z"/>
				</g>
				<g>
					<path class="st15" d="M124.5,65.6c0.1,0.1,0.2,0.3,0.3,0.4c0,0.1,0.2,0.1,0.2,0c-0.1-0.2-0.2-0.4-0.3-0.5
						C124.5,65.4,124.4,65.5,124.5,65.6L124.5,65.6z"/>
				</g>
				<g>
					<path class="st15" d="M121,66.7c0.1,0.1,0.2,0.2,0.3,0.4c0,0.1,0.2,0,0.1-0.1c-0.1-0.2-0.2-0.3-0.3-0.4
						C121,66.5,120.9,66.7,121,66.7L121,66.7z"/>
				</g>
				<g>
					<path class="st15" d="M120.9,67.3c0,0.2,0,0.5,0.2,0.6c0.1,0.1,0.2,0,0.1-0.1c-0.1-0.1-0.1-0.3-0.1-0.5
						C121,67.2,120.9,67.2,120.9,67.3L120.9,67.3z"/>
				</g>
				<g>
					<path class="st15" d="M121.5,68c0.1,0.1,0.1,0.3,0.2,0.4c0.1,0.1,0.2,0,0.1-0.1c-0.1-0.1-0.1-0.3-0.2-0.4
						C121.6,67.9,121.5,67.9,121.5,68L121.5,68z"/>
				</g>
				<g>
					<path class="st15" d="M121.9,67.5c0.1,0.1,0.2,0.2,0.3,0.4c0.1,0.1,0.2,0,0.1-0.1c-0.1-0.1-0.2-0.3-0.3-0.4
						C122,67.3,121.8,67.4,121.9,67.5L121.9,67.5z"/>
				</g>
				<g>
					<path class="st15" d="M122.7,68.5c0.1,0.1,0.1,0.3,0.2,0.4c0,0.1,0.2,0,0.1-0.1c-0.1-0.1-0.1-0.3-0.2-0.4
						C122.8,68.4,122.6,68.4,122.7,68.5L122.7,68.5z"/>
				</g>
				<g>
					<path class="st15" d="M122.3,69.1c0.1,0.2,0.2,0.4,0.2,0.6c0,0.1,0.2,0.1,0.2,0c-0.1-0.2-0.2-0.4-0.2-0.6
						C122.5,68.9,122.3,69,122.3,69.1L122.3,69.1z"/>
				</g>
				<g>
					<path class="st15" d="M123,70.2c0,0.2,0,0.4,0.1,0.5c0,0.1,0.2,0.1,0.2,0c-0.1-0.2-0.1-0.4-0.1-0.5
						C123.2,70.1,123,70.1,123,70.2L123,70.2z"/>
				</g>
				<g>
					<path class="st15" d="M123.9,69.7c0.1-0.2,0.2-0.4,0.3-0.5c0.1-0.1-0.1-0.2-0.1-0.1c-0.1,0.2-0.2,0.4-0.3,0.6
						C123.7,69.7,123.8,69.8,123.9,69.7L123.9,69.7z"/>
				</g>
				<g>
					<path class="st15" d="M124.7,68.8c0.1-0.2,0.3-0.3,0.4-0.5c0.1-0.1,0-0.2-0.1-0.1c-0.1,0.2-0.3,0.3-0.4,0.5
						C124.5,68.8,124.6,68.9,124.7,68.8L124.7,68.8z"/>
				</g>
				<g>
					<path class="st15" d="M124.9,67.8c0.1-0.2,0.2-0.3,0.3-0.4c0.1-0.1,0-0.2-0.1-0.1c-0.1,0.1-0.3,0.3-0.4,0.5
						C124.7,67.8,124.9,67.9,124.9,67.8L124.9,67.8z"/>
				</g>
				<g>
					<path class="st15" d="M125.8,68.2c0.1-0.2,0.2-0.5,0.3-0.7c0-0.1-0.1-0.2-0.1-0.1c-0.1,0.2-0.2,0.5-0.3,0.7
						C125.6,68.2,125.7,68.3,125.8,68.2L125.8,68.2z"/>
				</g>
				<g>
					<path class="st15" d="M126.1,67.1c0.1-0.2,0.2-0.3,0.3-0.4c0.1-0.1-0.1-0.2-0.1-0.1c-0.1,0.1-0.2,0.3-0.3,0.5
						C125.9,67.1,126.1,67.2,126.1,67.1L126.1,67.1z"/>
				</g>
				<g>
					<path class="st15" d="M126.8,66.7c0,0.2,0,0.5,0,0.7c0,0.1,0.2,0.1,0.2,0c0-0.2,0-0.5,0-0.7C126.9,66.6,126.7,66.6,126.8,66.7
						L126.8,66.7z"/>
				</g>
				<g>
					<path class="st15" d="M126.6,67.7c0,0.1,0,0.2,0,0.3c0,0.1,0.2,0.1,0.2,0c0-0.1,0-0.2,0-0.3C126.8,67.6,126.6,67.6,126.6,67.7
						L126.6,67.7z"/>
				</g>
				<g>
					<path class="st15" d="M127.2,67.6C127.2,67.6,127.2,67.7,127.2,67.6c0,0.1,0,0.2,0.1,0.2c0,0,0.1,0,0.1-0.1c0,0,0,0,0-0.1
						C127.3,67.6,127.3,67.5,127.2,67.6C127.2,67.5,127.2,67.6,127.2,67.6L127.2,67.6z"/>
				</g>
				<g>
					<path class="st15" d="M119.2,65.5c0.2,0,0.3,0.2,0.3,0.4c0,0.1,0.2,0.1,0.2,0c-0.1-0.2-0.2-0.4-0.4-0.5
						C119.1,65.3,119.1,65.5,119.2,65.5L119.2,65.5z"/>
				</g>
				<g>
					<path class="st15" d="M119.3,66.1c0.1,0.2,0.1,0.5,0.3,0.7c0.1,0.1,0.2,0,0.1-0.1c-0.1-0.2-0.2-0.4-0.3-0.7
						C119.4,66,119.2,66,119.3,66.1L119.3,66.1z"/>
				</g>
				<g>
					<path class="st15" d="M119.9,66.7c0.1,0.1,0.1,0.2,0.2,0.4c0,0.1,0.2,0,0.1-0.1c-0.1-0.1-0.1-0.3-0.2-0.4
						C119.9,66.5,119.8,66.6,119.9,66.7L119.9,66.7z"/>
				</g>
				<g>
					<path class="st15" d="M119.5,67.3c0.1,0.1,0.3,0.2,0.4,0.3c0.1,0,0.2-0.1,0.1-0.2c-0.1-0.1-0.3-0.2-0.3-0.3
						C119.6,67.1,119.5,67.3,119.5,67.3L119.5,67.3z"/>
				</g>
				<g>
					<path class="st15" d="M119.9,65.7c0.2,0,0.4,0.1,0.6,0.1c0.1,0,0.1-0.2,0-0.2c-0.2,0-0.4-0.1-0.5-0.1
						C119.8,65.6,119.8,65.7,119.9,65.7L119.9,65.7z"/>
				</g>
				<g>
					<path class="st15" d="M121.1,65.9c0.1,0,0.3,0.1,0.4,0.2c0.1,0.1,0.2-0.1,0.1-0.1c-0.2-0.1-0.3-0.1-0.5-0.2
						C121,65.7,121,65.8,121.1,65.9L121.1,65.9z"/>
				</g>
				<g>
					<path class="st15" d="M121.9,66.3c0,0.1,0.1,0.2,0.2,0.4c0.1,0.1,0.2,0,0.1-0.1c-0.1-0.1-0.1-0.2-0.1-0.3
						C122,66.1,121.9,66.2,121.9,66.3L121.9,66.3z"/>
				</g>
				<g>
					<path class="st15" d="M122.3,65.9c0-0.3,0.1-0.6,0.1-0.9c0-0.1-0.2-0.1-0.2,0c0,0.3-0.1,0.6-0.1,0.9
						C122.2,66,122.3,66,122.3,65.9L122.3,65.9z"/>
				</g>
				<g>
					<path class="st15" d="M123,65.3c0-0.2,0.1-0.5,0.1-0.7c0-0.1-0.2-0.1-0.2,0c0,0.2-0.1,0.5-0.1,0.7
						C122.8,65.4,123,65.4,123,65.3L123,65.3z"/>
				</g>
				<g>
					<path class="st15" d="M121.9,65.1c0-0.2,0.1-0.3,0.2-0.5c0.1-0.1-0.1-0.2-0.1-0.1c-0.1,0.2-0.2,0.4-0.2,0.6
						C121.8,65.2,121.9,65.2,121.9,65.1L121.9,65.1z"/>
				</g>
				<g>
					<path class="st15" d="M122.6,64.2c0-0.2,0.1-0.4,0.2-0.6c0-0.1-0.1-0.2-0.2-0.1c-0.1,0.2-0.2,0.4-0.2,0.7
						C122.4,64.3,122.6,64.3,122.6,64.2L122.6,64.2z"/>
				</g>
				<g>
					<path class="st15" d="M122.9,63.7c0.1,0.1,0.2,0.3,0.2,0.4c0,0.1,0.2,0.1,0.2,0c-0.1-0.2-0.2-0.3-0.2-0.5
						C123,63.6,122.9,63.6,122.9,63.7L122.9,63.7z"/>
				</g>
				<g>
					<path class="st15" d="M123.6,64.4C123.6,64.4,123.6,64.4,123.6,64.4C123.6,64.4,123.6,64.4,123.6,64.4
						C123.7,64.4,123.6,64.4,123.6,64.4C123.6,64.4,123.6,64.4,123.6,64.4C123.6,64.4,123.6,64.4,123.6,64.4
						C123.6,64.4,123.6,64.4,123.6,64.4C123.6,64.4,123.7,64.5,123.6,64.4c0.1,0.1,0.2,0.1,0.2,0c0,0,0,0,0-0.1c0,0,0,0,0-0.1
						c0,0-0.1,0-0.1,0C123.6,64.3,123.6,64.3,123.6,64.4L123.6,64.4z"/>
				</g>
				<g>
					<path class="st15" d="M125.3,65.3c0.1-0.2,0.3-0.3,0.4-0.4c0.1-0.1,0-0.2-0.1-0.1c-0.2,0.1-0.3,0.3-0.4,0.5
						C125.1,65.3,125.3,65.4,125.3,65.3L125.3,65.3z"/>
				</g>
				<g>
					<path class="st15" d="M125.7,65.7c0.1-0.2,0.2-0.3,0.4-0.5c0.1-0.1,0-0.2-0.1-0.1c-0.2,0.2-0.3,0.3-0.4,0.5
						C125.5,65.8,125.7,65.8,125.7,65.7L125.7,65.7z"/>
				</g>
				<g>
					<path class="st15" d="M126.6,64.7c0.1-0.2,0.2-0.3,0.4-0.4c0.1-0.1,0-0.2-0.1-0.1c-0.2,0.1-0.3,0.3-0.4,0.5
						C126.4,64.7,126.5,64.8,126.6,64.7L126.6,64.7z"/>
				</g>
				<g>
					<path class="st15" d="M126.7,65.4c0.1-0.1,0.2-0.3,0.3-0.4c0.1-0.1-0.1-0.2-0.1-0.1c-0.1,0.1-0.2,0.3-0.3,0.4
						C126.5,65.4,126.6,65.4,126.7,65.4L126.7,65.4z"/>
				</g>
				<g>
					<path class="st15" d="M127.9,67c0.2-0.1,0.4-0.2,0.7-0.3c0.1,0,0.1-0.2,0-0.2c-0.3,0.1-0.5,0.2-0.8,0.3
						C127.7,66.9,127.8,67,127.9,67L127.9,67z"/>
				</g>
				<g>
					<path class="st15" d="M128.1,67.4c0.2-0.1,0.4-0.2,0.5-0.4c0.1-0.1,0-0.2-0.1-0.1c-0.2,0.1-0.4,0.2-0.6,0.4
						C127.9,67.4,128,67.5,128.1,67.4L128.1,67.4z"/>
				</g>
				<g>
					<path class="st15" d="M128.8,68.9c0.2-0.2,0.4-0.4,0.5-0.6c0.1-0.1-0.1-0.2-0.1-0.1c-0.1,0.2-0.3,0.4-0.5,0.6
						C128.6,68.9,128.7,69,128.8,68.9L128.8,68.9z"/>
				</g>
				<g>
					<path class="st15" d="M129,68C129,68,129,68,129,68c0-0.1,0.1-0.1,0.1-0.1c0.1-0.1,0.1-0.1,0.2-0.2c0.1-0.1,0-0.2-0.1-0.1
						c-0.1,0.1-0.1,0.1-0.2,0.2c0,0-0.1,0.1-0.1,0.2C128.8,68.1,129,68.1,129,68L129,68z"/>
				</g>
				<g>
					<path class="st15" d="M129.8,67.4c0-0.2,0.1-0.4,0.2-0.5c0-0.1-0.1-0.2-0.2-0.1c-0.1,0.2-0.1,0.3-0.2,0.5
						C129.6,67.5,129.7,67.5,129.8,67.4L129.8,67.4z"/>
				</g>
				<g>
					<path class="st15" d="M129.1,67.3c0.2-0.2,0.3-0.3,0.5-0.5c0.1-0.1,0-0.2-0.1-0.1c-0.2,0.2-0.3,0.3-0.5,0.5
						C128.9,67.3,129,67.4,129.1,67.3L129.1,67.3z"/>
				</g>
				<g>
					<path class="st15" d="M129.1,66.6c0.2-0.1,0.5-0.2,0.8-0.2c0.1,0,0.1-0.2,0-0.2c-0.3,0.1-0.5,0.1-0.8,0.2
						C128.9,66.5,129,66.7,129.1,66.6L129.1,66.6z"/>
				</g>
			</g>
			<g>
				<g>
					<path class="st16" d="M110.9,74.9h2.3c0.4-0.6,1-0.6,1-0.6c-0.3-0.2-0.6-0.3-0.6-0.3c0.3-0.2,0.7-0.2,0.7-0.2
						c-0.7-0.4-1.4-0.1-1.4-0.1c0.3-0.5,0.8-1,0.8-1c-1-0.1-1.6,0.8-1.6,0.8c-0.1-0.5,0.4-1.2,0.4-1.2c-0.7,0.4-0.8,1.2-0.8,1.2
						c-0.3-0.5-0.8-0.6-0.8-0.6c0.6,0.5,0.4,1,0.4,1c-0.5-0.6-1.1-0.2-1.1-0.2c0.4,0,0.7,0.4,0.7,0.4c-0.4-0.1-0.9,0.6-0.9,0.6
						C110.4,74.6,110.9,74.9,110.9,74.9L110.9,74.9z"/>
					<path class="st16" d="M110.9,74.9h2.3c0.4-0.6,1-0.6,1-0.6c-0.3-0.2-0.6-0.3-0.6-0.3c0.3-0.2,0.7-0.2,0.7-0.2
						c-0.7-0.4-1.4-0.1-1.4-0.1c0.3-0.5,0.8-1,0.8-1c-1-0.1-1.6,0.8-1.6,0.8c-0.1-0.5,0.4-1.2,0.4-1.2c-0.7,0.4-0.8,1.2-0.8,1.2
						c-0.3-0.5-0.8-0.6-0.8-0.6c0.6,0.5,0.4,1,0.4,1c-0.5-0.6-1.1-0.2-1.1-0.2c0.4,0,0.7,0.4,0.7,0.4c-0.4-0.1-0.9,0.6-0.9,0.6
						C110.4,74.6,110.9,74.9,110.9,74.9L110.9,74.9z"/>
					<path class="st17" d="M113.1,74.9c0.2-0.4,0.8-0.7,0.8-0.7c-0.3-0.2-0.8,0-0.8,0c0.3-0.4,0.9-0.4,0.9-0.4
						c-0.6-0.2-1.5,0.6-1.5,0.6c0.1-0.7,1-1.6,1-1.6c-1.1,0-1.5,1.3-1.5,1.3c-0.2-0.6,0.2-1.4,0.2-1.4c-0.3,0.4-0.4,1.3-0.4,1.3
						c-0.1-0.3-0.4-0.5-0.4-0.5c0.3,0.5,0.5,1.1,0.5,1.1c-0.5-0.7-1.1-0.8-1.1-0.8c0.7,0.2,1,0.9,1,0.9c-0.7-0.6-1.4-0.1-1.4-0.1
						c0.5-0.2,0.9,0.2,1.1,0.3H113.1z"/>
				</g>
				<g>
					<path class="st18" d="M113,75.1c0.1,0,0.3-0.1,0.4-0.2c0-0.1,0-0.1,0-0.2c-0.1-0.1-0.4-0.2-0.5-0.2c-0.1,0-0.3,0-0.4,0.1
						c-0.1,0.1-0.2,0.2-0.2,0.3C112.4,75.1,112.8,75.1,113,75.1z"/>
					<path class="st19" d="M112.8,75c0.1,0,0.2,0,0.2-0.1c0,0,0-0.1,0-0.1c-0.1-0.1-0.2-0.1-0.3-0.1c-0.1,0-0.1,0-0.2,0.1
						c-0.1,0-0.1,0.1-0.1,0.2C112.5,75,112.7,75,112.8,75z"/>
				</g>
				<g>
					<path class="st18" d="M111.9,75.1c0.1,0,0.2,0,0.3-0.1c0,0,0-0.1,0-0.1c-0.1-0.1-0.2-0.1-0.3-0.1c-0.1,0-0.2,0-0.3,0.1
						c-0.1,0.1-0.2,0.2-0.1,0.2C111.5,75.1,111.8,75.1,111.9,75.1z"/>
					<path class="st19" d="M111.8,75c0,0,0.1,0,0.2-0.1c0,0,0,0,0-0.1c0,0-0.1-0.1-0.2-0.1c-0.1,0-0.1,0-0.1,0c0,0-0.1,0.1-0.1,0.1
						C111.6,75,111.7,75,111.8,75z"/>
				</g>
			</g>
			<g>
				<g>
					<path class="st16" d="M56.4,66.6h2.3c0.4-0.6,1-0.6,1-0.6c-0.3-0.2-0.6-0.3-0.6-0.3c0.3-0.2,0.7-0.2,0.7-0.2
						c-0.7-0.4-1.4-0.1-1.4-0.1c0.3-0.5,0.8-1,0.8-1c-1-0.1-1.6,0.8-1.6,0.8c-0.1-0.5,0.4-1.2,0.4-1.2c-0.7,0.4-0.8,1.2-0.8,1.2
						c-0.3-0.5-0.8-0.6-0.8-0.6c0.6,0.5,0.4,1,0.4,1c-0.5-0.6-1.1-0.2-1.1-0.2c0.4,0,0.7,0.4,0.7,0.4c-0.4-0.1-0.9,0.6-0.9,0.6
						C55.9,66.3,56.4,66.6,56.4,66.6L56.4,66.6z"/>
					<path class="st16" d="M56.4,66.6h2.3c0.4-0.6,1-0.6,1-0.6c-0.3-0.2-0.6-0.3-0.6-0.3c0.3-0.2,0.7-0.2,0.7-0.2
						c-0.7-0.4-1.4-0.1-1.4-0.1c0.3-0.5,0.8-1,0.8-1c-1-0.1-1.6,0.8-1.6,0.8c-0.1-0.5,0.4-1.2,0.4-1.2c-0.7,0.4-0.8,1.2-0.8,1.2
						c-0.3-0.5-0.8-0.6-0.8-0.6c0.6,0.5,0.4,1,0.4,1c-0.5-0.6-1.1-0.2-1.1-0.2c0.4,0,0.7,0.4,0.7,0.4c-0.4-0.1-0.9,0.6-0.9,0.6
						C55.9,66.3,56.4,66.6,56.4,66.6L56.4,66.6z"/>
					<path class="st17" d="M58.6,66.6c0.2-0.4,0.8-0.7,0.8-0.7c-0.3-0.2-0.8,0-0.8,0c0.3-0.4,0.9-0.4,0.9-0.4C58.9,65.2,58,66,58,66
						c0.1-0.7,1-1.6,1-1.6c-1.1,0-1.5,1.3-1.5,1.3c-0.2-0.6,0.2-1.4,0.2-1.4c-0.3,0.4-0.4,1.3-0.4,1.3c-0.1-0.3-0.4-0.5-0.4-0.5
						c0.3,0.5,0.5,1.1,0.5,1.1c-0.5-0.7-1.1-0.8-1.1-0.8c0.7,0.2,1,0.9,1,0.9c-0.7-0.6-1.4-0.1-1.4-0.1c0.5-0.2,0.9,0.2,1.1,0.3
						H58.6z"/>
				</g>
				<g>
					<path class="st18" d="M58.5,66.8c0.1,0,0.3-0.1,0.4-0.2c0-0.1,0-0.1,0-0.2c-0.1-0.1-0.4-0.2-0.5-0.2c-0.1,0-0.3,0-0.4,0.1
						c-0.1,0.1-0.2,0.2-0.2,0.3C57.9,66.8,58.3,66.8,58.5,66.8z"/>
					<path class="st19" d="M58.3,66.6c0.1,0,0.2,0,0.2-0.1c0,0,0-0.1,0-0.1c-0.1-0.1-0.2-0.1-0.3-0.1c-0.1,0-0.1,0-0.2,0.1
						c-0.1,0-0.1,0.1-0.1,0.2C58,66.6,58.2,66.6,58.3,66.6z"/>
				</g>
				<g>
					<path class="st18" d="M57.4,66.8c0.1,0,0.2,0,0.3-0.1c0,0,0-0.1,0-0.1c-0.1-0.1-0.2-0.1-0.3-0.1c-0.1,0-0.2,0-0.3,0.1
						c-0.1,0.1-0.2,0.2-0.1,0.2C57,66.8,57.3,66.8,57.4,66.8z"/>
					<path class="st19" d="M57.3,66.7c0,0,0.1,0,0.2-0.1c0,0,0,0,0-0.1c0,0-0.1-0.1-0.2-0.1c-0.1,0-0.1,0-0.1,0c0,0-0.1,0.1-0.1,0.1
						C57.1,66.7,57.2,66.7,57.3,66.7z"/>
				</g>
			</g>
			<g>
				<g>
					<path class="st16" d="M8.4,70.8h1.9c0.3-0.5,0.8-0.5,0.8-0.5c-0.2-0.2-0.5-0.2-0.5-0.2c0.3-0.2,0.5-0.2,0.5-0.2
						c-0.6-0.4-1.2-0.1-1.2-0.1c0.2-0.5,0.6-0.8,0.6-0.8c-0.9-0.1-1.3,0.7-1.3,0.7c-0.1-0.5,0.3-1,0.3-1c-0.6,0.4-0.7,1-0.7,1
						c-0.2-0.4-0.7-0.5-0.7-0.5c0.5,0.4,0.3,0.8,0.3,0.8c-0.5-0.5-0.9-0.1-0.9-0.1c0.4,0,0.6,0.3,0.6,0.3c-0.4-0.1-0.7,0.5-0.7,0.5
						C7.9,70.6,8.4,70.8,8.4,70.8L8.4,70.8z"/>
					<path class="st16" d="M8.4,70.8h1.9c0.3-0.5,0.8-0.5,0.8-0.5c-0.2-0.2-0.5-0.2-0.5-0.2c0.3-0.2,0.5-0.2,0.5-0.2
						c-0.6-0.4-1.2-0.1-1.2-0.1c0.2-0.5,0.6-0.8,0.6-0.8c-0.9-0.1-1.3,0.7-1.3,0.7c-0.1-0.5,0.3-1,0.3-1c-0.6,0.4-0.7,1-0.7,1
						c-0.2-0.4-0.7-0.5-0.7-0.5c0.5,0.4,0.3,0.8,0.3,0.8c-0.5-0.5-0.9-0.1-0.9-0.1c0.4,0,0.6,0.3,0.6,0.3c-0.4-0.1-0.7,0.5-0.7,0.5
						C7.9,70.6,8.4,70.8,8.4,70.8L8.4,70.8z"/>
					<path class="st17" d="M10.2,70.8c0.2-0.3,0.7-0.5,0.7-0.5c-0.3-0.1-0.7,0-0.7,0c0.3-0.4,0.8-0.4,0.8-0.4
						c-0.5-0.2-1.3,0.5-1.3,0.5c0.1-0.6,0.8-1.3,0.8-1.3c-0.9,0-1.3,1-1.3,1C9.1,69.7,9.4,69,9.4,69c-0.2,0.3-0.3,1.1-0.3,1.1
						c-0.1-0.3-0.4-0.4-0.4-0.4C9,70,9.1,70.6,9.1,70.6c-0.4-0.6-0.9-0.6-0.9-0.6C8.7,70.1,9,70.7,9,70.7c-0.6-0.5-1.2-0.1-1.2-0.1
						c0.4-0.2,0.8,0.2,0.9,0.3H10.2z"/>
				</g>
				<g>
					<path class="st18" d="M10.1,71c0.1,0,0.3-0.1,0.4-0.1c0,0,0-0.1,0-0.2c-0.1-0.1-0.3-0.1-0.4-0.1c-0.1,0-0.2,0-0.3,0.1
						c-0.1,0.1-0.2,0.2-0.2,0.3C9.6,71,9.9,71,10.1,71z"/>
					<path class="st19" d="M9.9,70.9c0.1,0,0.1,0,0.2-0.1c0,0,0-0.1,0-0.1c0-0.1-0.2-0.1-0.2-0.1c-0.1,0-0.1,0-0.2,0
						c0,0-0.1,0.1-0.1,0.1C9.7,70.9,9.9,70.9,9.9,70.9z"/>
				</g>
				<g>
					<path class="st18" d="M9.2,71c0.1,0,0.2,0,0.3-0.1c0,0,0-0.1,0-0.1c-0.1-0.1-0.2-0.1-0.3-0.1c-0.1,0-0.2,0-0.2,0.1
						c-0.1,0-0.1,0.1-0.1,0.2C8.9,71,9.1,71,9.2,71z"/>
					<path class="st19" d="M9.1,70.9c0,0,0.1,0,0.1,0c0,0,0,0,0-0.1c0,0-0.1,0-0.1-0.1c0,0-0.1,0-0.1,0c0,0-0.1,0.1-0.1,0.1
						C8.9,70.9,9,70.9,9.1,70.9z"/>
				</g>
			</g>
			<g>
				<g>
					<path class="st16" d="M125.3,79.8l-1.7-0.6c-0.1-0.6-0.6-0.7-0.6-0.7c0.3-0.1,0.5,0,0.5,0c-0.2-0.2-0.4-0.3-0.4-0.3
						c0.7-0.1,1.1,0.3,1.1,0.3c-0.1-0.5-0.3-0.9-0.3-0.9c0.8,0.2,1,1.1,1,1.1c0.2-0.4,0-1,0-1c0.4,0.5,0.3,1.2,0.3,1.2
						c0.3-0.3,0.8-0.2,0.8-0.2c-0.6,0.2-0.6,0.6-0.6,0.6c0.6-0.3,0.9,0.2,0.9,0.2c-0.3-0.1-0.6,0.1-0.6,0.1c0.3,0.1,0.5,0.7,0.5,0.7
						C125.7,79.7,125.3,79.8,125.3,79.8L125.3,79.8z"/>
					<path class="st16" d="M125.3,79.8l-1.7-0.6c-0.1-0.6-0.6-0.7-0.6-0.7c0.3-0.1,0.5,0,0.5,0c-0.2-0.2-0.4-0.3-0.4-0.3
						c0.7-0.1,1.1,0.3,1.1,0.3c-0.1-0.5-0.3-0.9-0.3-0.9c0.8,0.2,1,1.1,1,1.1c0.2-0.4,0-1,0-1c0.4,0.5,0.3,1.2,0.3,1.2
						c0.3-0.3,0.8-0.2,0.8-0.2c-0.6,0.2-0.6,0.6-0.6,0.6c0.6-0.3,0.9,0.2,0.9,0.2c-0.3-0.1-0.6,0.1-0.6,0.1c0.3,0.1,0.5,0.7,0.5,0.7
						C125.7,79.7,125.3,79.8,125.3,79.8L125.3,79.8z"/>
					<path class="st17" d="M123.6,79.2c-0.1-0.3-0.4-0.7-0.4-0.7c0.3,0,0.6,0.2,0.6,0.2c-0.1-0.4-0.6-0.6-0.6-0.6c0.5,0,1,0.9,1,0.9
						c0.1-0.5-0.3-1.4-0.3-1.4c0.8,0.3,0.8,1.4,0.8,1.4c0.3-0.4,0.2-1.1,0.2-1.1c0.1,0.4,0,1.1,0,1.1c0.2-0.2,0.5-0.3,0.5-0.3
						c-0.3,0.3-0.7,0.7-0.7,0.7c0.6-0.4,1.1-0.2,1.1-0.2c-0.5-0.1-1,0.4-1,0.4c0.7-0.2,1.1,0.3,1.1,0.3c-0.3-0.3-0.8-0.1-0.9-0.1
						L123.6,79.2z"/>
				</g>
				<g>
					<path class="st18" d="M123.7,79.4c-0.1-0.1-0.2-0.1-0.3-0.2c0-0.1,0-0.1,0.1-0.2c0.1-0.1,0.3,0,0.4,0c0.1,0,0.2,0.1,0.3,0.2
						c0.1,0.1,0.1,0.2,0,0.3C124.1,79.5,123.8,79.4,123.7,79.4z"/>
					<path class="st19" d="M123.8,79.3c0,0-0.1-0.1-0.2-0.1c0,0,0-0.1,0-0.1c0.1,0,0.2,0,0.2,0c0.1,0,0.1,0.1,0.1,0.1
						c0,0,0.1,0.1,0,0.2C124.1,79.4,123.9,79.4,123.8,79.3z"/>
				</g>
				<g>
					<path class="st18" d="M124.5,79.7c-0.1,0-0.1-0.1-0.2-0.2c0,0,0-0.1,0.1-0.1c0.1,0,0.2,0,0.3,0c0.1,0,0.1,0.1,0.2,0.1
						c0,0.1,0.1,0.2,0,0.2C124.7,79.8,124.6,79.7,124.5,79.7z"/>
					<path class="st19" d="M124.6,79.6c0,0-0.1-0.1-0.1-0.1c0,0,0,0,0-0.1c0,0,0.1,0,0.2,0c0,0,0.1,0,0.1,0.1c0,0,0,0.1,0,0.1
						C124.7,79.7,124.6,79.7,124.6,79.6z"/>
				</g>
			</g>
			<g>
				<g>
					<path class="st16" d="M85.7,66.3h-1.9c-0.3-0.5-0.8-0.5-0.8-0.5c0.2-0.2,0.5-0.2,0.5-0.2c-0.3-0.2-0.5-0.2-0.5-0.2
						c0.6-0.3,1.1-0.1,1.1-0.1c-0.2-0.4-0.6-0.8-0.6-0.8c0.8-0.1,1.3,0.7,1.3,0.7c0.1-0.4-0.3-1-0.3-1c0.6,0.3,0.7,1,0.7,1
						c0.2-0.4,0.6-0.5,0.6-0.5c-0.5,0.4-0.3,0.8-0.3,0.8c0.4-0.4,0.9-0.1,0.9-0.1c-0.3,0-0.6,0.3-0.6,0.3c0.4-0.1,0.7,0.5,0.7,0.5
						C86.1,66,85.7,66.3,85.7,66.3L85.7,66.3z"/>
					<path class="st16" d="M85.7,66.3h-1.9c-0.3-0.5-0.8-0.5-0.8-0.5c0.2-0.2,0.5-0.2,0.5-0.2c-0.3-0.2-0.5-0.2-0.5-0.2
						c0.6-0.3,1.1-0.1,1.1-0.1c-0.2-0.4-0.6-0.8-0.6-0.8c0.8-0.1,1.3,0.7,1.3,0.7c0.1-0.4-0.3-1-0.3-1c0.6,0.3,0.7,1,0.7,1
						c0.2-0.4,0.6-0.5,0.6-0.5c-0.5,0.4-0.3,0.8-0.3,0.8c0.4-0.4,0.9-0.1,0.9-0.1c-0.3,0-0.6,0.3-0.6,0.3c0.4-0.1,0.7,0.5,0.7,0.5
						C86.1,66,85.7,66.3,85.7,66.3L85.7,66.3z"/>
					<path class="st17" d="M83.9,66.3c-0.2-0.3-0.7-0.5-0.7-0.5c0.2-0.1,0.7,0,0.7,0c-0.3-0.3-0.7-0.4-0.7-0.4
						c0.5-0.2,1.2,0.5,1.2,0.5c-0.1-0.5-0.8-1.2-0.8-1.2c0.8,0,1.2,1,1.2,1c0.2-0.5-0.2-1.1-0.2-1.1c0.2,0.3,0.3,1,0.3,1
						c0.1-0.3,0.3-0.4,0.3-0.4c-0.2,0.4-0.4,0.9-0.4,0.9c0.4-0.5,0.9-0.6,0.9-0.6c-0.5,0.1-0.8,0.7-0.8,0.7c0.5-0.4,1.1-0.1,1.1-0.1
						c-0.4-0.2-0.8,0.2-0.8,0.2H83.9z"/>
				</g>
				<g>
					<path class="st18" d="M84,66.4c-0.1,0-0.2-0.1-0.4-0.1c0,0,0-0.1,0-0.2C83.8,66,84,66,84.1,66c0.1,0,0.2,0,0.3,0.1
						c0.1,0.1,0.2,0.2,0.1,0.3C84.5,66.5,84.1,66.5,84,66.4z"/>
					<path class="st19" d="M84.2,66.3c-0.1,0-0.1,0-0.2-0.1c0,0,0-0.1,0-0.1c0,0,0.2-0.1,0.2-0.1c0.1,0,0.1,0,0.2,0
						c0,0,0.1,0.1,0.1,0.1C84.4,66.4,84.2,66.4,84.2,66.3z"/>
				</g>
				<g>
					<path class="st18" d="M84.9,66.4c-0.1,0-0.2,0-0.2-0.1c0,0,0-0.1,0-0.1c0.1-0.1,0.2-0.1,0.3-0.1c0.1,0,0.2,0,0.2,0.1
						c0.1,0,0.1,0.1,0.1,0.2C85.2,66.5,85,66.5,84.9,66.4z"/>
					<path class="st19" d="M85,66.4c0,0-0.1,0-0.1,0c0,0,0,0,0-0.1c0,0,0.1,0,0.1,0c0,0,0.1,0,0.1,0c0,0,0.1,0.1,0.1,0.1
						C85.1,66.4,85,66.4,85,66.4z"/>
				</g>
			</g>
			<g class="st20">
				<pattern  id="SVGID_5_" xlink:href="#SVGID_11_" patternTransform="matrix(1.7808 0 0 1.6549 6123.1445 5085.416)">
				</pattern>
				<path class="st21" d="M11.1,68.1c0,0-0.1,0.1-0.1,0.1H3.9c-0.1,0-0.1,0-0.1-0.1L2.7,59c0-0.1,0-0.1,0.1-0.1H12
					c0.1,0,0.1,0.1,0.1,0.1L11.1,68.1z"/>
				<path class="st22" d="M4.8,40.6c-0.8-3.3-0.6-7.5,0.9-7.8c1.4-0.3,3.6,3.5,4.4,6.7c0.8,3.3-0.1,4.8-1.5,5.1
					C7.1,44.9,5.6,43.8,4.8,40.6z"/>
				<path class="st23" d="M8.5,58.7C8.5,58.7,8.5,58.7,8.5,58.7c-0.1,0-0.2-0.1-0.2-0.3c0.8-3.6,1.1-7.4,0.8-11.1
					c-0.3-3.8-1.2-7.4-2.7-10.9c0-0.1,0-0.2,0.1-0.3c0.1,0,0.3,0,0.3,0.1c1.5,3.5,2.4,7.2,2.7,11c0.3,3.8,0.1,7.6-0.8,11.3
					C8.7,58.6,8.6,58.7,8.5,58.7z"/>
				<path class="st24" d="M0.1,41.3c-1.4-3.1-2-7.3-0.7-7.8C0.8,33,3.6,36.3,5,39.4c1.4,3.1,0.8,4.7-0.5,5.2
					C3.1,45.2,1.5,44.4,0.1,41.3z"/>
				<path class="st24" d="M-0.1,48.5c-1.8-2.1-3.2-5.2-2.3-5.9c0.9-0.7,3.9,1.3,5.6,3.4C5,48.1,5,49.5,4,50.1
					C3.1,50.8,1.7,50.5-0.1,48.5z"/>
				<path class="st24" d="M16.9,48.5c2.2-1.9,4.2-4.9,3.4-5.8c-0.8-0.8-4.2,0.8-6.4,2.7c-2.2,1.9-2.4,3.3-1.5,4.2
					C13.1,50.4,14.7,50.4,16.9,48.5z"/>
				<path class="st25" d="M12.7,42.4c1-3.2,1.2-7.5-0.3-7.8c-1.4-0.4-3.8,3.2-4.9,6.4c-1,3.2-0.3,4.8,1.1,5.2
					C10.1,46.5,11.7,45.6,12.7,42.4z"/>
				<path class="st23" d="M8.9,58.7C8.9,58.7,8.9,58.7,8.9,58.7c-0.1,0-0.2-0.1-0.2-0.2c0.2-2.7,1.1-5.4,2.6-7.9
					c1.5-2.4,3.6-4.5,6-6c0.1-0.1,0.2,0,0.3,0.1c0.1,0.1,0,0.2-0.1,0.3c-2.4,1.5-4.4,3.5-5.9,5.9c-1.5,2.4-2.4,5-2.6,7.7
					C9.1,58.7,9,58.7,8.9,58.7z"/>
				<path class="st23" d="M7.1,58.5C7.1,58.5,7.1,58.5,7.1,58.5c-0.1,0-0.2-0.1-0.2-0.2c0.1-3.7-0.3-7.5-1.4-11.1
					C4.5,43.6,2.8,40.1,0.7,37c-0.1-0.1,0-0.2,0.1-0.3c0.1-0.1,0.2,0,0.3,0.1c2.1,3.2,3.8,6.7,4.8,10.4c1.1,3.7,1.5,7.5,1.4,11.2
					C7.4,58.4,7.3,58.5,7.1,58.5z"/>
				<path class="st23" d="M7.7,58.6C7.7,58.6,7.7,58.6,7.7,58.6c-0.1,0-0.2-0.1-0.2-0.2l0.9-9.2c0.3-3.2,0.6-6.5,1.8-9.7
					c0-0.1,0.2-0.2,0.3-0.1c0.1,0,0.2,0.2,0.1,0.3c-1.1,3.1-1.5,6.4-1.8,9.5l-0.9,9.2C7.9,58.5,7.8,58.6,7.7,58.6z"/>
				<path class="st23" d="M6.9,58.8c-0.1,0-0.2-0.1-0.2-0.2c-0.3-4.7-2.6-9.2-6.2-12.5c-0.1-0.1-0.1-0.2,0-0.3
					c0.1-0.1,0.2-0.1,0.3,0c3.7,3.3,6,8,6.3,12.8C7.1,58.7,7,58.8,6.9,58.8C6.9,58.8,6.9,58.8,6.9,58.8z"/>
				<path class="st26" d="M12.4,59.2c0,0.1-0.1,0.1-0.1,0.1H2.6c-0.1,0-0.1,0-0.1-0.1v-1.5c0-0.1,0.1-0.1,0.1-0.1h9.7
					c0.1,0,0.1,0,0.1,0.1V59.2z"/>
				<path class="st27" d="M-2,53.3c-1,2.5-1.3,5.9,0.1,6.4s3.7-2.2,4.7-4.7C3.8,52.6-0.9,50.8-2,53.3z"/>
				<path class="st22" d="M-1.4,57.5l0.1-0.4c0.5-1.4,0.9-2.4,1.3-3.2c0.5-0.9,0.9-1.4,1.4-1.6c0.5-0.2,1-0.1,1.7,0.2
					c1.1,0.5,1.9,1.5,2.4,2.9C5.8,56,6,56.8,6,57.6H5.6c-0.2-1.8-1-4-2.7-4.8c-0.6-0.2-1-0.3-1.3-0.1c-0.9,0.4-1.5,1.9-2.5,4.6
					L-1,57.6c0,0.1-0.2,0.2-0.3,0.1C-1.4,57.7-1.5,57.6-1.4,57.5z"/>
			</g>
			<g>
				<g>
					<polygon class="st28" points="106.1,49.7 110.3,50 112.1,49.3 					"/>
				</g>
			</g>
			<linearGradient id="SVGID_6_" gradientUnits="userSpaceOnUse" x1="63.9883" y1="100.9435" x2="63.9883" y2="65.8645">
				<stop  offset="0" style="stop-color:#DF8F7C"/>
				<stop  offset="1" style="stop-color:#E0CDCC"/>
			</linearGradient>
			<polygon class="st29" points="-3.1,81.2 14.8,65.9 72.4,66.5 93,66.5 131.1,81.6 131.1,100.9 -3.1,100.9 			"/>
			<polygon class="st30" points="103.5,70.7 89.3,66.1 89.4,66.1 103.9,70.6 			"/>
			<polygon class="st30" points="25,70.8 9.1,70.8 8.8,71 25,70.9 			"/>
			<polygon class="st30" points="103.5,70.7 74.2,70.5 74.4,70.6 103.9,70.8 			"/>
			<polygon class="st30" points="98.7,83.3 131.2,83.3 131.1,83.4 			"/>
			<polygon class="st30" points="86,76.8 117.9,76.4 117.8,76.4 85.8,76.7 			"/>
			<polygon class="st30" points="10.3,90.5 -3.1,90.7 -3.1,90.8 10.2,90.6 			"/>
			<polygon class="st30" points="-1.1,79.5 18.6,79.4 18.5,79.5 -1.2,79.6 			"/>
			<polygon class="st31" points="-3.1,81.2 17.2,81.2 2.5,100.9 -3.1,100.9 -3.1,88.2 			"/>
			<polygon class="st32" points="2.5,100.9 14.7,84.6 -3.1,83.9 -3.1,100.9 			"/>
			<g>
				<linearGradient id="SVGID_7_" gradientUnits="userSpaceOnUse" x1="85.745" y1="132.1033" x2="85.745" y2="67.6124">
					<stop  offset="0" style="stop-color:#8FD2D0"/>
					<stop  offset="1" style="stop-color:#B3FFF8"/>
				</linearGradient>
				<polygon class="st33" points="-14.4,129.6 27.4,67.6 68.8,67.6 185.9,132.1 				"/>
				<linearGradient id="SVGID_8_" gradientUnits="userSpaceOnUse" x1="66.7806" y1="100.9435" x2="66.7806" y2="67.6124">
					<stop  offset="0" style="stop-color:#39489F"/>
					<stop  offset="1" style="stop-color:#5CACD3"/>
				</linearGradient>
				<polygon class="st34" points="11.6,100.9 28.6,71.8 67.6,71.8 100,100.9 131.1,100.9 68.8,67.6 27.4,67.6 2.5,100.9 				"/>
				<polygon class="st35" points="28.6,71.8 27.4,67.6 68.8,67.6 67.6,71.8 				"/>
				<polygon class="st35" points="115,83.3 98.1,83.3 98.1,99.3 86,88.3 86,76.8 99.6,76.6 				"/>
				<linearGradient id="SVGID_9_" gradientUnits="userSpaceOnUse" x1="99.5564" y1="79.9293" x2="115.0072" y2="79.9293">
					<stop  offset="0" style="stop-color:#3386D3"/>
					<stop  offset="1" style="stop-color:#39489F"/>
				</linearGradient>
				<polygon class="st36" points="115,83.3 107.4,83.3 99.6,79.2 99.6,76.6 				"/>
				<g>
					<polygon class="st37" points="108.2,83.3 102.6,83.3 101.2,82.4 96.2,79.2 99.6,79.2 					"/>
					<polygon class="st37" points="106.9,83.3 98.1,83.3 98.1,99.3 86,88.3 86,86.8 89.8,86.8 90.1,84.3 93,84.3 93,81.6 96.2,81.6 
						101.2,82.4 102.2,82.6 					"/>
					<polygon class="st38" points="104.4,83.3 99.6,83.3 96.2,81.6 96.2,79.2 					"/>
					<polygon class="st38" points="98.1,84.4 98.1,87.2 93,84.3 93,81.6 					"/>
					<polygon class="st38" points="98.1,89.9 98.1,92.8 89.8,86.8 90.1,84.3 					"/>
					<polygon class="st38" points="98.1,96.7 98.1,99.3 86,88.3 86,86.8 					"/>
				</g>
				<g>
					<g class="st39">
						<g>
							<polygon class="st40" points="15.7,93.9 15.7,93.8 91.3,93 91.3,93.1 							"/>
						</g>
						<g>
							<polygon class="st40" points="98.5,117.9 64.3,71.8 64.4,71.7 86,100.9 							"/>
						</g>
						<g>
							<polygon class="st40" points="19,109.5 22,100.9 32.3,71.7 32.4,71.8 							"/>
						</g>
						<g>
							<polygon class="st40" points="32.8,100.9 29.8,118.1 37.7,71.7 37.8,71.8 							"/>
						</g>
						<g>
							<polygon class="st40" points="44.5,125 44.1,71.8 44.2,71.8 44.4,100.9 							"/>
						</g>
						<g>
							<polygon class="st40" points="56.9,101 50,71.7 50.1,71.7 64,128 							"/>
						</g>
						<g>
							<polygon class="st40" points="71,101 56.9,71.7 57,71.7 82.8,125.2 							"/>
						</g>
						<g>
							<rect x="20.5" y="85.7" class="st40" width="62.6" height="0.1"/>
						</g>
						<g>
							<polygon class="st40" points="23.4,80.8 23.3,80.7 76.7,79.9 76.7,80 							"/>
						</g>
						<g>
							<rect x="25.4" y="77.1" class="st40" width="48.2" height="0.1"/>
						</g>
						<g>
							
								<rect x="27.4" y="73.7" transform="matrix(1 -2.980551e-03 2.980551e-03 1 -0.2195 0.1451)" class="st40" width="42.3" height="0.1"/>
						</g>
					</g>
					<polygon class="st41" points="34,93.7 35.3,85.7 44.3,85.7 44.3,93.5 					"/>
					<polygon class="st42" points="63.7,85.7 74.7,85.7 70.5,80 61,80.2 					"/>
					<polygon class="st41" points="59.6,77.2 61,80.2 52.1,80.3 51.4,77.2 					"/>
					<polygon class="st42" points="24.6,93.7 21.9,101.2 32.7,101.2 34,93.7 					"/>
					<polygon class="st41" points="44.3,93.5 44.3,100.9 71,100.9 67.4,93.3 					"/>
				</g>
				<linearGradient id="SVGID_10_" gradientUnits="userSpaceOnUse" x1="83.0966" y1="130.8884" x2="83.0966" y2="67.8941">
					<stop  offset="0" style="stop-color:#1F6395"/>
					<stop  offset="1" style="stop-color:#57F5B1"/>
				</linearGradient>
				<polygon class="st43" points="182.3,130.9 98.1,85 98.1,83.3 112.2,83.3 99.6,77.8 86,78.1 68.7,67.9 27.5,68.1 -16.1,130.5 
									"/>
				<linearGradient id="SVGID_12_" gradientUnits="userSpaceOnUse" x1="51.3041" y1="73.7751" x2="51.3041" y2="67.8941">
					<stop  offset="0" style="stop-color:#000000"/>
					<stop  offset="0.1214" style="stop-color:#020403"/>
					<stop  offset="0.2487" style="stop-color:#06110C"/>
					<stop  offset="0.3788" style="stop-color:#0D261B"/>
					<stop  offset="0.5109" style="stop-color:#184331"/>
					<stop  offset="0.6444" style="stop-color:#25694C"/>
					<stop  offset="0.7792" style="stop-color:#36986D"/>
					<stop  offset="0.9125" style="stop-color:#49CD94"/>
					<stop  offset="1" style="stop-color:#57F5B1"/>
				</linearGradient>
				<polygon class="st44" points="27.5,68.1 23.9,73.6 78.7,73.8 68.7,67.9 				"/>
				<polygon class="st45" points="131.1,100.9 98.1,83.3 131.1,83.4 131.1,86.8 				"/>
				<polygon class="st32" points="131.1,100.9 112,90.7 131.1,90.9 				"/>
				<ellipse class="st46" cx="37.8" cy="78.7" rx="2.7" ry="0.2"/>
				<path class="st46" d="M45.1,80.3c0,0-0.5,0.1-1.2,0.1c-0.7,0-1.2,0-1.2-0.1s0.5-0.1,1.2-0.1C44.6,80.3,45.1,80.3,45.1,80.3z"/>
				<path class="st46" d="M47.2,70.8c0,0-0.5,0.1-1.2,0.1s-1.2,0-1.2-0.1s0.5-0.1,1.2-0.1S47.2,70.7,47.2,70.8z"/>
				<g>
					<ellipse class="st46" cx="80.6" cy="87.9" rx="1.2" ry="0.1"/>
				</g>
			</g>
			<polygon class="st31" points="18.6,79.4 -1.1,79.6 8.8,71 25,70.8 			"/>
			<g>
				
					<linearGradient id="SVGID_13_" gradientUnits="userSpaceOnUse" x1="426.085" y1="41.9188" x2="459.0148" y2="48.1688" gradientTransform="matrix(-1 0 0 1 551.3413 0)">
					<stop  offset="0" style="stop-color:#BA0A4C"/>
					<stop  offset="1" style="stop-color:#FA3D4F"/>
				</linearGradient>
				<path class="st47" d="M126.1,46.4c0,0,0,3.3-1.4,4.2c-1.4,0.9-1.8-0.5-1.8-0.5s-4.9,3.9-8,0.9c0,0-4,1.6-6.2-0.6
					c0,0-2.7,4.9-6.7-1.7c0,0-4.7,1.1-6.4-3c0,0-3.5-0.3-3.5-3.2c0,0-1.8,0.4-0.6-3L126.1,46.4z"/>
				
					<linearGradient id="SVGID_14_" gradientUnits="userSpaceOnUse" x1="-41.6408" y1="-575.8354" x2="-41.6408" y2="-576.6373" gradientTransform="matrix(-3.910000e-02 0.9992 1.1722 4.590000e-02 785.0573 100.9189)">
					<stop  offset="0" style="stop-color:#7C161F"/>
					<stop  offset="1" style="stop-color:#BF492B"/>
				</linearGradient>
				<path class="st48" d="M111.2,33.6c0.3,0,0.5-0.3,0.5-0.7c0-0.4-0.2-0.7-0.4-0.7c-0.3,0-0.5,0.3-0.5,0.7
					C110.7,33.2,110.9,33.5,111.2,33.6z"/>
				
					<linearGradient id="SVGID_15_" gradientUnits="userSpaceOnUse" x1="426.6081" y1="39.1475" x2="458.8898" y2="45.2746" gradientTransform="matrix(-1 0 0 1 551.3413 0)">
					<stop  offset="0" style="stop-color:#F10A75"/>
					<stop  offset="1" style="stop-color:#FA6E68"/>
				</linearGradient>
				<path class="st49" d="M108.8,46.2c9.6,2.2,16.3,5.2,17.2,1.4c0-0.2,0.1-0.3,0.1-0.5c0.3-4.9-11.5-13.8-15.1-14.5
					c-2.4-0.5-17.2,0.8-19.5,6.5C90.2,42.8,99.2,44,108.8,46.2z"/>
				
					<linearGradient id="SVGID_16_" gradientUnits="userSpaceOnUse" x1="449.276" y1="36.9215" x2="449.3998" y2="32.7811" gradientTransform="matrix(-1 0 0 1 551.3413 0)">
					<stop  offset="0" style="stop-color:#000000"/>
					<stop  offset="1" style="stop-color:#D5FF5E"/>
				</linearGradient>
				<path class="st50" d="M111.1,32.6c0,0-3.9,0.4-5.6,1.7l-12.5,2.8C92.9,37.2,99.6,32.1,111.1,32.6z"/>
				<path class="st51" d="M111.1,32.6c0,0,2.2,1.4,4.5,4.2l10.5,10.3C126.4,42.2,114.6,33.3,111.1,32.6z"/>
				
					<linearGradient id="SVGID_17_" gradientUnits="userSpaceOnUse" x1="426.5806" y1="39.7421" x2="458.9394" y2="45.8838" gradientTransform="matrix(-1 0 0 1 551.3413 0)">
					<stop  offset="0" style="stop-color:#BA0A4C"/>
					<stop  offset="1" style="stop-color:#FA3D4F"/>
				</linearGradient>
				<path class="st52" d="M92.1,42.4C92.1,42.4,92.1,42.4,92.1,42.4c0.3,0.4,0.6,0.8,1,1.2c0.6,0.7,1.4,1.3,2.3,1.9
					c0.1,0.1,0.2,0.1,0.2,0.1c2.9,1.9,7.2,3.5,12.1,4.5c2.6,0.5,5,0.7,7.3,0.8c1.6,0,3,0,4.3-0.1c1.4-0.1,2.6-0.4,3.6-0.7
					c0,0,0,0,0,0c1.8-0.6,3-1.4,3.1-2.5c0.5-2.9-3.7-8-10.7-11c-0.1,0-0.2-0.1-0.3-0.1c-0.7-0.3-1.4-0.5-2.1-0.7
					c-0.7-0.2-1.4-0.4-2.1-0.6c-1.1-0.3-2.2-0.5-3.2-0.6c-0.7-0.1-1.3-0.2-1.9-0.2c-0.1,0-0.2,0-0.2,0c-8.5-0.7-13.4,2.1-14,5.4
					c0,0.1,0,0.2,0,0.4C91.4,40.9,91.6,41.6,92.1,42.4z"/>
				
					<linearGradient id="SVGID_18_" gradientUnits="userSpaceOnUse" x1="442.5105" y1="71.9972" x2="442.5105" y2="35.1423" gradientTransform="matrix(-1 0 0 1 551.3413 0)">
					<stop  offset="0" style="stop-color:#BF492B"/>
					<stop  offset="1" style="stop-color:#7C161F"/>
				</linearGradient>
				<polygon class="st53" points="107.4,72 111,35.2 110.6,35.1 106.7,71.9 				"/>
				<path class="st51" d="M112.9,35.8c1.6,5.5,2,14.7,2,15.2c0,0,0,0,0,0c1.5,0.1,3,0,4.3-0.2c1.9-0.3,3.4-0.7,3.6-0.7c0,0,0,0,0,0
					c-1.5-5.2-5.2-10.3-7.9-13.6C114.3,36.2,113.6,36,112.9,35.8z"/>
				<path class="st51" d="M92.1,42.4C92.1,42.4,92.1,42.4,92.1,42.4c0.3,0.4,0.6,0.8,1,1.2c0.9,0.9,1.9,1.6,2.3,1.9
					c0.1,0.1,0.2,0.1,0.2,0.1c3.7-5.2,8.7-9,12-11.1l-0.3,0c-0.5-0.1-1.1-0.1-1.6-0.2C97.4,37.6,92.1,42.4,92.1,42.4z"/>
				<path class="st54" d="M115,36.5c5.4,6.5,7.9,13.6,7.9,13.6c1.8-0.6,3-1.4,3.1-2.5C126.6,44.7,122,39.4,115,36.5z"/>
				<path class="st51" d="M95.6,45.7c3.7-5.2,8.7-9,12-11.1l-0.3,0C107.3,34.5,99,39.6,95.6,45.7z"/>
				
					<linearGradient id="SVGID_19_" gradientUnits="userSpaceOnUse" x1="448.9224" y1="48.6274" x2="449.3369" y2="34.7646" gradientTransform="matrix(-1 0 0 1 551.3413 0)">
					<stop  offset="0" style="stop-color:#D5FF5E"/>
					<stop  offset="1" style="stop-color:#000000"/>
				</linearGradient>
				<path class="st55" d="M107.6,34.6c0,0-8.6,6.3-12,11.1c0,0,3.8,2.2,6.4,3l6.7-13.9L107.6,34.6z"/>
				<polygon class="st56" points="110.8,41.5 109.6,41.3 109.6,42.6 110.4,42.6 				"/>
				<polygon class="st56" points="118,40.5 110.8,41.5 110.7,41.6 				"/>
				<polygon class="st56" points="109.6,41.3 104,36.9 103.9,36.9 109.6,41.5 				"/>
				<polygon class="st56" points="115,36.5 110.4,41.5 110.1,41.5 114.8,36.4 				"/>
				<polygon class="st56" points="107.5,34.6 110,41.5 109.8,41.5 107.5,34.5 				"/>
				<polygon class="st56" points="110.3,41.3 114.3,42.6 110.2,41.4 				"/>
				<polygon class="st56" points="109.8,41.2 106,40.9 109.9,41.3 				"/>
				<path class="st54" d="M113.5,41c-0.1,0-0.2-0.1-0.3-0.1c-0.7-0.3-1.4-0.5-2.1-0.7c-0.7-0.2-1.4-0.4-2.1-0.6
					c-1.1-0.3-2.2-0.5-3.2-0.6c-0.7-0.1-1.3-0.2-1.9-0.2c-0.1,0-0.2,0-0.2,0c-5.7-0.5-9.8,0.6-12,2.4c-0.1-0.3-0.1-0.7-0.1-1
					c0-0.1,0-0.3,0-0.4c0.6-3.3,5.5-6.1,14-5.4c0.1,0,0.2,0,0.2,0c0.6,0.1,1.3,0.1,1.9,0.2c1,0.2,2.1,0.3,3.2,0.6
					c0.7,0.2,1.4,0.4,2.1,0.6c0.7,0.2,1.4,0.5,2.1,0.7c0.1,0,0.2,0.1,0.3,0.1c7,2.9,11.2,8.1,10.7,11c-0.1,0.9-1,1.6-2.3,2.1
					C122.7,46.9,118.9,43.3,113.5,41z"/>
				<g>
					
						<linearGradient id="SVGID_20_" gradientUnits="userSpaceOnUse" x1="424.3597" y1="44.2234" x2="456.8025" y2="34.3083" gradientTransform="matrix(-1 0 0 1 551.3413 0)">
						<stop  offset="0" style="stop-color:#F10A75"/>
						<stop  offset="1" style="stop-color:#FA8A74"/>
					</linearGradient>
					<path class="st57" d="M126.1,47.6c0,0-0.7,2-2.3-5c0,0-5.4-0.2-8.5-5.9C122.3,39.6,126.6,44.7,126.1,47.6z"/>
					
						<linearGradient id="SVGID_21_" gradientUnits="userSpaceOnUse" x1="423.3965" y1="41.0714" x2="455.8393" y2="31.1563" gradientTransform="matrix(-1 0 0 1 551.3413 0)">
						<stop  offset="0" style="stop-color:#F10A75"/>
						<stop  offset="1" style="stop-color:#FA8A74"/>
					</linearGradient>
					<path class="st58" d="M107.6,34.6c1,0.2,2.1,0.3,3.2,0.6c0.7,0.2,1.4,0.4,2.1,0.6c0.7,0.2,1.4,0.5,2.1,0.7
						c0.1,0,0.2,0.1,0.3,0.1c0,0-8.9-0.4-9.9-2.3c0.1,0,0.2,0,0.2,0C106.3,34.4,106.9,34.5,107.6,34.6z"/>
					
						<linearGradient id="SVGID_22_" gradientUnits="userSpaceOnUse" x1="424.8738" y1="45.9056" x2="457.3167" y2="35.9905" gradientTransform="matrix(-1 0 0 1 551.3413 0)">
						<stop  offset="0" style="stop-color:#F10A75"/>
						<stop  offset="1" style="stop-color:#FA8A74"/>
					</linearGradient>
					<path class="st59" d="M91.4,39.7c0.6-3.3,5.5-6.1,14-5.4c0,0-6.6,2.9-8.8,0.8c0,0-4.6,6.8-5.3,5C91.4,40,91.4,39.9,91.4,39.7z"
						/>
				</g>
			</g>
			<g>
				<polygon class="st60" points="73.3,68.7 79.6,68.5 85.4,69.9 76.6,70.3 77.1,70.5 102.2,70 95.1,67.5 73,68.5 				"/>
				<polygon class="st61" points="86.3,61 84.4,67.2 84.5,67.2 86.7,60.8 				"/>
				<polygon class="st62" points="86.1,61 84.2,67.1 84.4,67.2 86.3,61 				"/>
				<g>
					<linearGradient id="SVGID_23_" gradientUnits="userSpaceOnUse" x1="72.9282" y1="65.1926" x2="87.2845" y2="64.1011">
						<stop  offset="0" style="stop-color:#C35D2F"/>
						<stop  offset="1" style="stop-color:#9F1A13"/>
					</linearGradient>
					<polygon class="st63" points="73.2,68.4 87,60.4 87,60.7 73.5,68.9 					"/>
					<polygon class="st62" points="87,60.4 86.5,60.4 72.7,68.4 73.2,68.4 					"/>
					<polygon class="st64" points="72.7,68.4 73.1,68.7 73.5,68.9 73.2,68.4 					"/>
				</g>
				<polygon class="st62" points="73.5,68.5 77.1,70 77.6,69.8 73.7,68.4 				"/>
				<polygon class="st64" points="73.5,68.5 73.6,68.8 77,70.2 77.2,69.9 				"/>
				<g>
					<linearGradient id="SVGID_24_" gradientUnits="userSpaceOnUse" x1="72.9353" y1="67.3584" x2="90.9956" y2="65.9853">
						<stop  offset="0" style="stop-color:#C35D2F"/>
						<stop  offset="1" style="stop-color:#9F1A13"/>
					</linearGradient>
					<polygon class="st65" points="72.7,64.9 90.7,69 91.2,68.6 72.8,64.4 					"/>
					<polygon class="st62" points="91.2,68.6 90.8,68.4 72.6,64.2 72.8,64.4 					"/>
					<polygon class="st62" points="72.7,64.9 72.6,64.8 72.6,64.2 72.8,64.4 					"/>
				</g>
				<path class="st66" d="M90.4,61.8c0,0-1,1.5-2.4,2.9c-1.1,1.2-2.4,2.2-3.4,2.3c-2.3,0.2-7.1-1.1-7.1-1.1l-3.9-1.1l-0.5-0.2
					c0,0,0.4,0.1,0.9,0.1c1.7,0.3,5.7,0.7,7.5,0.1c0.3-0.1,0.6-0.3,0.9-0.4h0c2.2-1.2,4.4-3.5,4.4-3.5L90.4,61.8z"/>
				<path class="st67" d="M88,64.7L88,64.7c-1.1,1.2-2.4,2.2-3.4,2.3c-2.3,0.2-7.1-1.1-7.1-1.1l-3.9-1.1l0.3,0
					c1.7,0.3,5.7,0.7,7.5,0.1c0.3-0.1,0.6-0.3,0.9-0.4h0L88,64.7z"/>
				<polygon class="st61" points="86.9,60.6 86.6,60.7 90.7,61.6 91.1,61.4 				"/>
				<polygon class="st68" points="86.6,60.7 86.7,60.9 90.7,61.9 90.7,61.6 				"/>
				<polygon class="st61" points="72.9,64.6 78,65.7 78,65.9 72.9,64.8 				"/>
				<g>
					<linearGradient id="SVGID_25_" gradientUnits="userSpaceOnUse" x1="77.8091" y1="68.1335" x2="93.0101" y2="66.9778">
						<stop  offset="0" style="stop-color:#C35D2F"/>
						<stop  offset="1" style="stop-color:#9F1A13"/>
					</linearGradient>
					<polygon class="st69" points="77.7,66.1 92.6,69.5 93.2,69.1 77.7,65.7 					"/>
					<polygon class="st62" points="93.2,69.1 92.8,68.9 77.7,65.5 77.7,65.7 					"/>
					<polygon class="st62" points="77.7,66.1 77.5,65.9 77.7,65.5 77.9,65.7 					"/>
				</g>
				<g>
					<linearGradient id="SVGID_26_" gradientUnits="userSpaceOnUse" x1="76.4317" y1="66.4853" x2="91.697" y2="65.3247">
						<stop  offset="0" style="stop-color:#C35D2F"/>
						<stop  offset="1" style="stop-color:#9F1A13"/>
					</linearGradient>
					<polygon class="st70" points="76.7,70 91.2,61.3 91.4,61.8 77,70.5 					"/>
					<polygon class="st62" points="91.2,61.3 90.7,61.3 76.2,69.9 76.7,70 					"/>
					<polygon class="st64" points="76.2,69.9 76.6,70.4 77,70.5 76.7,70 					"/>
				</g>
				<polygon class="st61" points="90.6,62.3 89.2,68.2 89.4,68.2 91,62.1 				"/>
				<polygon class="st62" points="90.3,62.5 89,68.1 89.2,68.2 90.6,62.3 				"/>
				<polygon class="st71" points="73.1,64.9 73.1,64.6 77.5,65.5 77.4,65.9 				"/>
				<polygon class="st71" points="86.8,60.9 86.8,60.8 87.1,60.6 90.7,61.3 90,61.7 				"/>
				<polygon class="st72" points="86.8,60.8 90.3,61.6 90,61.7 86.8,60.9 				"/>
				<polygon class="st73" points="83.5,66.8 83.5,66.9 82.8,67.3 82.5,67.2 83.3,66.7 				"/>
				<path class="st74" d="M82.6,66.8c0,0,0,0.1-0.2,0.2c-0.1,0.1-0.2,0.1-0.3,0c0,0,0-0.1,0.2-0.2C82.5,66.8,82.6,66.8,82.6,66.8z"
					/>
				<polygon class="st75" points="78.4,69 83.2,66 91.2,61.3 				"/>
				<polygon class="st75" points="77.7,65.5 77.8,65.7 77.7,66.1 77.9,65.8 78.2,65.8 77.9,65.7 				"/>
				<polygon class="st75" points="79.8,64.6 87,60.4 86.8,60.4 				"/>
				<polygon class="st75" points="72.7,64.3 72.8,64.6 72.9,64.4 				"/>
				<polygon class="st73" points="90.2,63.1 90.3,63.4 90.5,63.7 91,62.1 90.3,62.5 				"/>
			</g>
			<g>
				<polygon class="st60" points="82.4,73.4 89.4,72.9 96.5,74.6 86.5,75.3 87,75.4 112.6,74.3 106.7,71.9 82.1,73.1 				"/>
				<polygon class="st61" points="99.1,63.3 96.5,71.2 96.6,71.3 99.5,63.1 				"/>
				<polygon class="st62" points="98.9,63.3 96.2,71.1 96.5,71.2 99.1,63.3 				"/>
				<g>
					<linearGradient id="SVGID_27_" gradientUnits="userSpaceOnUse" x1="81.7398" y1="68.6065" x2="100.2435" y2="67.1997">
						<stop  offset="0" style="stop-color:#C35D2F"/>
						<stop  offset="1" style="stop-color:#9F1A13"/>
					</linearGradient>
					<polygon class="st76" points="82.1,72.8 99.9,62.4 99.9,62.9 82.4,73.4 					"/>
					<polygon class="st62" points="99.9,62.4 99.3,62.4 81.5,72.7 82.1,72.8 					"/>
					<polygon class="st64" points="81.5,72.7 81.9,73.2 82.4,73.4 82.1,72.8 					"/>
				</g>
				<polygon class="st62" points="82.4,72.9 87.1,74.8 87.8,74.5 82.7,72.7 				"/>
				<polygon class="st64" points="82.4,72.9 82.6,73.2 87,75.1 87.2,74.6 				"/>
				<g>
					<linearGradient id="SVGID_28_" gradientUnits="userSpaceOnUse" x1="81.7489" y1="71.3979" x2="105.0267" y2="69.6281">
						<stop  offset="0" style="stop-color:#C35D2F"/>
						<stop  offset="1" style="stop-color:#9F1A13"/>
					</linearGradient>
					<polygon class="st77" points="81.5,68.2 104.6,73.5 105.3,73.1 81.6,67.5 					"/>
					<polygon class="st62" points="105.3,73.1 104.8,72.8 81.3,67.4 81.6,67.5 					"/>
					<polygon class="st62" points="81.5,68.2 81.3,68.1 81.3,67.4 81.6,67.5 					"/>
				</g>
				<path class="st78" d="M104.3,64.2c0,0-1.4,1.9-3.1,3.7c-1.4,1.5-3.1,2.9-4.4,3c-2.9,0.2-9.2-1.4-9.2-1.4l-5-1.5l-0.7-0.2
					c0.1,0,0.5,0.1,1.1,0.2c2.2,0.3,7.3,0.9,9.7,0.1c0.4-0.1,0.8-0.3,1.2-0.5h0c2.8-1.5,5.7-4.5,5.7-4.5L104.3,64.2z"/>
				<path class="st79" d="M101.2,68L101.2,68c-1.4,1.5-3.1,2.9-4.4,3c-2.9,0.2-9.2-1.4-9.2-1.4l-5-1.5l0.4,0
					c2.2,0.3,7.3,0.9,9.7,0.1c0.4-0.1,0.8-0.3,1.2-0.5h0L101.2,68z"/>
				<polygon class="st61" points="99.8,62.6 99.4,62.8 104.7,64 105.1,63.7 				"/>
				<polygon class="st68" points="99.4,62.8 99.5,63.1 104.6,64.3 104.7,64 				"/>
				<polygon class="st61" points="81.8,67.9 88.2,69.2 88.2,69.5 81.8,68.2 				"/>
				<g>
					<linearGradient id="SVGID_29_" gradientUnits="userSpaceOnUse" x1="88.0307" y1="72.397" x2="107.6231" y2="70.9074">
						<stop  offset="0" style="stop-color:#C35D2F"/>
						<stop  offset="1" style="stop-color:#9F1A13"/>
					</linearGradient>
					<polygon class="st80" points="87.8,69.8 107.1,74.2 107.8,73.6 87.8,69.2 					"/>
					<polygon class="st62" points="107.8,73.6 107.3,73.3 87.8,68.9 87.8,69.2 					"/>
					<polygon class="st62" points="87.8,69.8 87.6,69.6 87.8,68.9 88.1,69.3 					"/>
				</g>
				<g>
					<linearGradient id="SVGID_30_" gradientUnits="userSpaceOnUse" x1="86.2555" y1="70.2726" x2="105.9307" y2="68.7767">
						<stop  offset="0" style="stop-color:#C35D2F"/>
						<stop  offset="1" style="stop-color:#9F1A13"/>
					</linearGradient>
					<polygon class="st81" points="86.6,74.8 105.3,63.6 105.6,64.2 87,75.4 					"/>
					<polygon class="st62" points="105.3,63.6 104.6,63.6 86,74.7 86.6,74.8 					"/>
					<polygon class="st64" points="86,74.7 86.5,75.3 87,75.4 86.6,74.8 					"/>
				</g>
				<polygon class="st61" points="104.8,64.7 102.7,72.4 102.9,72.5 105.1,64.5 				"/>
				<polygon class="st62" points="104.5,64.9 102.5,72.3 102.7,72.4 104.8,64.7 				"/>
				<polygon class="st78" points="81.9,68.2 81.9,67.9 87.6,68.9 87.5,69.5 				"/>
				<polygon class="st78" points="99.7,63.1 99.7,62.9 100,62.6 104.6,63.6 103.8,64.1 				"/>
				<polygon class="st82" points="99.7,62.9 104.1,63.9 103.8,64.1 99.7,63.1 				"/>
				<polygon class="st73" points="95.4,70.7 95.3,70.8 94.5,71.3 94.1,71.2 95.1,70.6 				"/>
				<path class="st74" d="M94.2,70.7c0,0.1-0.1,0.2-0.2,0.3c-0.1,0.1-0.3,0.1-0.3,0c0-0.1,0.1-0.2,0.2-0.3
					C94,70.7,94.2,70.7,94.2,70.7z"/>
				<polygon class="st75" points="88.8,73.5 95,69.6 105.3,63.6 				"/>
				<polygon class="st75" points="87.8,68.9 88,69.3 87.8,69.8 88.1,69.4 88.5,69.4 88.1,69.3 				"/>
				<polygon class="st75" points="90.6,67.8 99.9,62.4 99.7,62.4 				"/>
				<polygon class="st75" points="81.4,67.4 81.6,67.9 81.8,67.6 				"/>
				<polygon class="st73" points="104.2,65.9 104.5,65.9 104.6,66.3 105.1,64.5 104.5,64.9 				"/>
			</g>
			<g>
				<g>
					
						<linearGradient id="SVGID_31_" gradientUnits="userSpaceOnUse" x1="173.8178" y1="95.7878" x2="173.8178" y2="85.491" gradientTransform="matrix(-1 0 0 1 253.0789 0)">
						<stop  offset="0" style="stop-color:#FFA031"/>
						<stop  offset="1" style="stop-color:#FFE538"/>
					</linearGradient>
					<circle class="st83" cx="79.3" cy="90.6" r="5.1"/>
					
						<ellipse transform="matrix(0.3872 -0.922 0.922 0.3872 -34.9711 127.947)" class="st84" cx="78.8" cy="90.3" rx="4.3" ry="4.3"/>
					<path class="st85" d="M84.4,91.4c0,0-1.9,1.5-4.8,1.5c-2.1,0-4-0.3-5.4-1.6l0.1,0.4c0,0,0.9,1.5,4.2,1.8
						c3.6,0.3,5.8-1.7,5.8-1.7L84.4,91.4z"/>
					<path class="st86" d="M78.1,94c2.8,0,5.1-2.3,5.1-5.1c0-0.6-0.1-1.2-0.3-1.8c0.9,0.9,1.5,2.2,1.5,3.6c0,2.8-2.3,5.1-5.1,5.1
						c-2.2,0-4.1-1.4-4.8-3.3C75.4,93.4,76.7,94,78.1,94z"/>
					<path class="st87" d="M75,88.2c-0.1,0.4-0.1,0.8,0.1,0.9c0.2,0.1,0.4-0.2,0.6-0.7c0.1-0.4,0.1-0.8-0.1-0.9
						C75.4,87.5,75.1,87.8,75,88.2z"/>
					<path class="st87" d="M74.6,89.5c-0.1,0.2,0,0.3,0.2,0.4c0.2,0.1,0.3,0,0.4-0.2c0.1-0.2,0-0.3-0.2-0.4
						C74.8,89.3,74.7,89.3,74.6,89.5z"/>
				</g>
				<g class="st88">
					<path class="st84" d="M74.4,100.8c0-3.1,1.9-5.6,4.3-5.6s4.3,2.5,4.3,5.6"/>
					<path class="st86" d="M84.4,100.4c0-3.7-2.3-6.7-5.1-6.7c-2.2,0-4.1,1.8-4.8,4.3c0.9-1.2,2.2-2,3.7-2"/>
				</g>
				<path class="st89" d="M72.2,93.7c0,0-2.2,0.5-3.2,1.5c-1,1,4.8,2.4,12.1,1.9c7.3-0.6,9-2.4,9-2.8c0-0.7-4.4-1.2-4.4-1.2
					s3.8,0.6,3.8,1.2c0,0.6-3.1,2.1-8.7,2.5c-5.6,0.4-10.4,0-11.3-1S72.2,93.7,72.2,93.7z"/>
			</g>
			<g>
				<path class="st89" d="M43.2,83.4c0,0-3.1,0.5-4.4,1.5c-1.4,1,6.6,2.5,16.7,1.9c10.1-0.6,12.4-2.4,12.4-2.8c0-0.7-6-1.2-6-1.2
					s5.3,0.6,5.3,1.2c0,0.6-4.3,2.1-12,2.5c-7.7,0.4-14.3,0-15.6-1C38.4,84.5,43.2,83.4,43.2,83.4z"/>
				<g class="st88">
					<path class="st90" d="M44.7,93.4c0,0,0.2-1.4,0.6-1.7c0.4-0.3,1.4,0.4,1.4,0.4s-0.7,0.5-0.9,1.7C45.9,93.8,45.5,93.4,44.7,93.4
						z"/>
					<path class="st91" d="M59.4,86.8c0,0,1.3,0.5,2.6,1.9c0,0-0.4-3.5-2.9-4.6L59.4,86.8z"/>
					<g>
						<path class="st91" d="M59.5,84.8c0-0.3-0.2-0.5-0.6-0.7h0c-1-0.5-3.4-0.8-6.2-0.8c-2.3,0-4.4,0.2-5.7,0.5h0
							c-0.4,0.1-0.7,0.3-1,0.4c0,0-0.1,0-0.1,0.1c0,0,0,0,0,0c0,0-0.1,0.1-0.1,0.1c0,0,0,0,0,0c-0.1,0.1-0.1,0.2-0.1,0.3
							c0,0.6,1.1,1.2,2.8,1.5c0.9,0.2,2,0.3,3.1,0.3c0.3,0,0.6,0,1,0s0.6,0,1,0c0.8,0,1.6-0.1,2.3-0.2c0.3,0,0.5-0.1,0.8-0.1
							C58.4,85.9,59.5,85.4,59.5,84.8z"/>
						<path class="st91" d="M59.1,84.2c0,0-0.1-0.1-0.2-0.1c0,0,0,0,0,0h0l-0.1,0l-7.3,0.1l-0.7,0l-3.3,0l-1.5,0h0c0,0,0,0-0.1,0.1
							c0,0,0,0,0,0c0,0-0.1,0.1-0.1,0.1c0,0,0,0,0,0c-0.2,0.2-0.4,0.6-0.5,1.1c0,0.3,0,0.7,0.1,1.1c0,0.1,0.1,0.2,0.1,0.4l0,0
							c0,0.1,0,0.1,0.1,0.2l7,0.5l0.6-0.1l3.6-0.3l2.8-0.3c0,0,0-0.2,0.1-0.5C59.8,85.9,59.9,84.6,59.1,84.2z"/>
					</g>
					<path class="st92" d="M52.6,88c-3.5,0-6.4-0.4-6.9-0.8c-0.1,0-0.1-0.1-0.1-0.1c0,0,0,0,0,0v0c-0.1-0.1-0.1-0.3-0.1-0.4
						c-0.1-0.4-0.1-0.8-0.1-1.1c0.1-0.5,0.3-0.9,0.5-1.1c0,0,0,0,0,0c0,0,0.1-0.1,0.1-0.1c0,0,0,0,0,0c0,0,0.1-0.1,0.1-0.1h0
						c0.2-0.2,0.6-0.3,1-0.4h0c0,0,2.1-0.2,4.4,0.3c0.7,0.2,1.4,0.4,2.2,0.8c0.8,0.4,1.5,0.9,2,1.2c0.1,0.1,0.2,0.2,0.3,0.2
						c0.5,0.4,0.8,0.7,0.9,0.9c0.3,0.3,0.3,0.5,0.3,0.5C55.9,87.9,54.4,88,52.6,88z M53.6,86.6c-0.3,0-0.6,0-1,0c-0.3,0-0.6,0-1,0
						c-1.2,0.1-2.2,0.2-2.4,0.4c0,0,0,0,0,0.1c0,0.2,1.3,0.4,3,0.5c0.1,0,0.3,0,0.4,0c1.9,0,3.4-0.2,3.4-0.5
						C56,86.9,55,86.7,53.6,86.6z"/>
					<path class="st93" d="M50.9,86.1c0-0.1-0.8-0.1-1.7,0c-0.9,0.1-1.7,0.2-1.7,0.3c0,0.1,0.8,0.1,1.7,0
						C50.1,86.3,50.9,86.2,50.9,86.1z"/>
					<ellipse class="st93" cx="51.9" cy="86.1" rx="0.7" ry="0.1"/>
					<path class="st94" d="M62.1,88.8c0.2,0.6-2.9-1.4-2.9-1.4l0.2-0.6C59.4,86.8,61.7,87.7,62.1,88.8z"/>
					<path class="st93" d="M61.6,88.1c0-0.1-0.2-0.3-0.5-0.5c-0.3-0.2-0.6-0.3-0.7-0.3c0,0.1,0.2,0.3,0.5,0.5
						C61.2,88,61.5,88.2,61.6,88.1z"/>
					<path class="st93" d="M60.2,87.2c0-0.1,0-0.1-0.1-0.2c-0.1,0-0.2,0-0.2,0c0,0.1,0,0.1,0.1,0.2C60.1,87.3,60.2,87.3,60.2,87.2z"
						/>
					<path class="st91" d="M49.3,87c0,0-1.3-0.6-3.5,0.1c0,0,0,0-0.1,0c0,0,0,0,0,0c0,0,0,0.1,0.1,0.2c0.3,0.5,1,2.1,1.9,3.8
						c0.4,0.8,0.6,1.6,0.6,2.4c0,1.4-0.5,2.6-1.5,2.5c-0.7-0.1-0.8-0.9-0.8-1.6v0c0-0.2,0-0.4,0-0.5v0c0-0.1,0-0.2,0-0.2
						s-0.3-0.4-0.8-0.4c-0.1,0-0.3,0-0.4,0.1c0,0,0,0,0,0s-0.2,0.1-0.4,0.4c0,0,0,0,0,0s0,0,0,0c-0.3,0.4-0.8,1-0.9,1.7
						c-0.1,0.4,0,0.8,0.2,1.3c0.8,2,3.3,2.1,4.9,0.6c0,0,0,0,0,0c0,0,0,0,0,0c0.4-0.4,0.8-0.9,1-1.5C50.7,93.3,49.3,87,49.3,87z"/>
					<path class="st94" d="M48.5,97.4c-0.1,0-1.6,0.6-2.8-0.7c-1.1-1.2-2.1-1.2-2.3-1.2c-0.1,0.4,0,0.8,0.2,1.3
						C44.4,98.9,46.9,99,48.5,97.4z"/>
					<path class="st93" d="M45.9,93.8c0,0-0.3-0.4-0.8-0.4c-0.1,0-0.3,0-0.4,0.1c-0.2,0.1-0.4,0.4-0.4,0.4c0,0,0,0,0,0s0,0,0,0
						c0,0,0.4,0.8,0.7,0.9c0.2,0.1,0.9-0.3,0.9-0.3v0L45.9,93.8z"/>
					<g>
						<path class="st93" d="M45,95.8c0-0.5-0.3-0.9-0.6-0.9c-0.3,0-0.6,0.4-0.6,0.9c0,0.5,0.3,0.9,0.6,0.9
							C44.7,96.7,45,96.3,45,95.8z"/>
						<path class="st95" d="M44.7,95.8c0-0.3-0.2-0.6-0.4-0.6c-0.2,0-0.4,0.3-0.4,0.6s0.2,0.6,0.4,0.6
							C44.6,96.4,44.7,96.1,44.7,95.8z"/>
						<ellipse class="st93" cx="44.7" cy="95.8" rx="0.1" ry="0.2"/>
					</g>
					<path class="st94" d="M48.9,89.5c-1.1-1.4-2.8-2.2-3.2-2.3c0,0-0.1,0-0.1,0c0,0,0,0,0,0c0,0,0,0.1,0.1,0.1
						c0.3,0.5,1,2.1,1.9,3.8c0.4,0.8,0.6,1.6,0.6,2.4C48.5,93.2,50.1,91.1,48.9,89.5z"/>
					<path class="st93" d="M49.2,91.4c0.1,0,0-0.9-0.3-1.9c-0.3-1-0.6-1.8-0.7-1.8c-0.1,0,0,0.9,0.3,1.9
						C48.8,90.7,49.1,91.4,49.2,91.4z"/>
					<path class="st93" d="M49.4,92.1c0.1,0,0.1-0.1,0.1-0.3c0-0.1-0.1-0.2-0.2-0.2c-0.1,0-0.1,0.1-0.1,0.3
						C49.2,92,49.3,92.1,49.4,92.1z"/>
					<path class="st93" d="M44.8,97.9c0-0.1,0-0.2-0.1-0.3c-0.1-0.1-0.2-0.1-0.3,0c0,0.1,0,0.2,0.1,0.3C44.6,98,44.7,98,44.8,97.9z"
						/>
					<path class="st93" d="M46,98.3c0-0.1-0.2-0.2-0.5-0.3c-0.3-0.1-0.6-0.1-0.6,0c0,0.1,0.2,0.2,0.5,0.3C45.7,98.4,46,98.4,46,98.3
						z"/>
				</g>
				<g>
					<path class="st90" d="M44.7,76.4c0,0,0.2,1.3,0.6,1.5c0.4,0.3,1.4-0.3,1.4-0.3s-0.7-0.5-0.9-1.5C45.9,76.1,45.5,76.4,44.7,76.4
						z"/>
					<path class="st91" d="M59.4,82.3c0,0,1.3-0.4,2.6-1.7c0,0-0.4,3.1-2.9,4.2L59.4,82.3z"/>
					<g>
						<path class="st91" d="M59.5,84.2c0,0.2-0.2,0.4-0.6,0.6h0c-1,0.5-3.4,0.7-6.2,0.7c-2.3,0-4.4-0.1-5.7-0.5h0
							c-0.4-0.1-0.7-0.2-1-0.4c0,0-0.1,0-0.1-0.1c0,0,0,0,0,0c0,0-0.1-0.1-0.1-0.1c0,0,0,0,0,0c-0.1-0.1-0.1-0.2-0.1-0.3
							c0-0.6,1.1-1.1,2.8-1.4c0.9-0.2,2-0.3,3.1-0.3c0.3,0,0.6,0,1,0c0.3,0,0.6,0,1,0c0.8,0,1.6,0.1,2.3,0.2c0.3,0,0.5,0.1,0.8,0.1
							C58.4,83.1,59.5,83.6,59.5,84.2z"/>
						<path class="st91" d="M59.1,84.7c0,0-0.1,0-0.2,0.1c0,0,0,0,0,0h0l-0.1,0l-7.3-0.1l-0.7,0l-3.3,0l-1.5,0h0c0,0,0,0-0.1-0.1
							c0,0,0,0,0,0c0,0-0.1-0.1-0.1-0.1c0,0,0,0,0,0c-0.2-0.2-0.4-0.5-0.5-1c0-0.3,0-0.6,0.1-1c0-0.1,0.1-0.2,0.1-0.3l0,0
							c0,0,0-0.1,0.1-0.2l7-0.4l0.6,0.1l3.6,0.3l2.8,0.2c0,0,0,0.2,0.1,0.4C59.8,83.2,59.8,84.3,59.1,84.7z"/>
						<path class="st94" d="M57.6,81.5C57.6,81.5,57.6,81.5,57.6,81.5c-0.2,0-0.3,0-0.5-0.1c-1.2-0.1-2.8-0.2-4.6-0.2
							c-3.5,0-6.4,0.3-6.9,0.7c-0.1,0-0.1,0.1-0.1,0.1c0,0,0,0,0,0v0c0,0.2,0.7,0.4,1.7,0.6c0.4,0.1,0.8,0.1,1.2,0.1
							c1.1,0.1,2.6,0.2,4.1,0.2c1.1,0,2.1,0,3-0.1c0.4,0,0.7,0,1.1-0.1c1.8-0.2,2.9-0.4,2.9-0.7C59.6,81.9,58.8,81.7,57.6,81.5z
							 M53.5,82.5c-0.3,0-0.6,0-1,0c-0.3,0-0.6,0-1,0c-1.2,0-2.2-0.2-2.4-0.3c0,0,0,0,0-0.1c0-0.2,1.3-0.4,3-0.4c0.1,0,0.3,0,0.4,0
							c1.9,0,3.4,0.2,3.4,0.4C55.9,82.3,54.9,82.5,53.5,82.5z"/>
					</g>
					<path class="st92" d="M52.6,81.2c-3.5,0-6.4,0.3-6.9,0.7c-0.1,0-0.1,0.1-0.1,0.1c0,0,0,0,0,0v0c-0.1,0.1-0.1,0.2-0.1,0.3
						c-0.1,0.4-0.1,0.7-0.1,1c0.1,0.5,0.3,0.8,0.5,1c0,0,0,0,0,0c0,0,0.1,0.1,0.1,0.1c0,0,0,0,0,0c0,0,0.1,0.1,0.1,0.1h0
						c0.2,0.1,0.6,0.3,1,0.4h0c0,0,2.1,0.2,4.4-0.3c0.7-0.2,1.4-0.4,2.2-0.7c0.8-0.4,1.5-0.8,2-1.1c0.1-0.1,0.2-0.1,0.3-0.2
						c0.5-0.3,0.8-0.6,0.9-0.8c0.3-0.3,0.3-0.4,0.3-0.4C55.9,81.3,54.3,81.2,52.6,81.2z M53.5,82.5c-0.3,0-0.6,0-1,0
						c-0.3,0-0.6,0-1,0c-1.2,0-2.2-0.2-2.4-0.3c0,0,0,0,0-0.1c0-0.2,1.3-0.4,3-0.4c0.1,0,0.3,0,0.4,0c1.9,0,3.4,0.2,3.4,0.4
						C55.9,82.3,54.9,82.5,53.5,82.5z"/>
					<path class="st93" d="M50.8,83c0,0.1-0.8,0.1-1.7,0c-0.9-0.1-1.7-0.2-1.7-0.2c0-0.1,0.8-0.1,1.7,0C50.1,82.8,50.8,82.9,50.8,83
						z"/>
					<ellipse class="st93" cx="51.9" cy="83" rx="0.7" ry="0.1"/>
					<path class="st94" d="M62,80.6c0.2-0.6-2.9,1.2-2.9,1.2l0.2,0.5C59.3,82.4,61.7,81.5,62,80.6z"/>
					<path class="st93" d="M61.5,81.2c0,0.1-0.2,0.3-0.5,0.4c-0.3,0.2-0.6,0.3-0.7,0.3c0-0.1,0.2-0.3,0.5-0.4
						C61.2,81.2,61.5,81.1,61.5,81.2z"/>
					<path class="st93" d="M60.2,82c0,0.1,0,0.1-0.1,0.2c-0.1,0-0.2,0-0.2,0c0-0.1,0-0.1,0.1-0.2C60.1,81.9,60.1,81.9,60.2,82z"/>
					<path class="st91" d="M49.2,82.2c0,0-1.3,0.6-3.5-0.1c0,0,0,0-0.1,0c0,0,0,0,0,0c0,0,0-0.1,0.1-0.2c0.3-0.5,1-1.9,1.9-3.4
						c0.4-0.7,0.6-1.5,0.6-2.2c0-1.3-0.5-2.3-1.5-2.2c-0.7,0.1-0.8,0.8-0.8,1.4v0c0,0.2,0,0.3,0,0.4v0c0,0.1,0,0.2,0,0.2
						s-0.3,0.4-0.8,0.4c-0.1,0-0.3,0-0.4-0.1c0,0,0,0,0,0s-0.2-0.1-0.4-0.3c0,0,0,0,0,0s0,0,0,0c-0.3-0.3-0.8-0.9-0.9-1.5
						c-0.1-0.4,0-0.8,0.2-1.2c0.8-1.8,3.3-1.9,4.9-0.5c0,0,0,0,0,0c0,0,0,0,0,0c0.4,0.4,0.8,0.8,1,1.3
						C50.6,76.5,49.2,82.2,49.2,82.2z"/>
					<path class="st94" d="M48.4,72.8c-0.1,0-1.6-0.5-2.8,0.6c-1.1,1.1-2.1,1.1-2.3,1c-0.1-0.4,0-0.8,0.2-1.2
						C44.3,71.5,46.8,71.4,48.4,72.8z"/>
					<path class="st93" d="M45.9,76.1c0,0-0.3,0.4-0.8,0.4c-0.1,0-0.3,0-0.4-0.1c-0.2-0.1-0.4-0.3-0.4-0.4c0,0,0,0,0,0s0,0,0,0
						c0,0,0.4-0.7,0.7-0.8c0.2-0.1,0.9,0.3,0.9,0.3v0L45.9,76.1z"/>
					<g>
						<path class="st93" d="M45,74.3c0,0.5-0.3,0.8-0.6,0.8c-0.3,0-0.6-0.4-0.6-0.8c0-0.5,0.3-0.8,0.6-0.8
							C44.7,73.4,45,73.8,45,74.3z"/>
						<path class="st95" d="M44.7,74.3c0,0.3-0.2,0.6-0.4,0.6s-0.4-0.3-0.4-0.6s0.2-0.6,0.4-0.6S44.7,74,44.7,74.3z"/>
						<path class="st93" d="M44.8,74.3c0,0.1-0.1,0.2-0.1,0.2c-0.1,0-0.1-0.1-0.1-0.2c0-0.1,0.1-0.2,0.1-0.2
							C44.8,74.1,44.8,74.2,44.8,74.3z"/>
					</g>
					<path class="st94" d="M48.9,80c-1.1,1.3-2.8,2-3.2,2.1c0,0-0.1,0-0.1,0c0,0,0,0,0,0c0,0,0-0.1,0.1-0.1c0.3-0.5,1-1.9,1.9-3.4
						c0.4-0.7,0.6-1.5,0.6-2.2C48.5,76.6,50.1,78.5,48.9,80z"/>
					<path class="st93" d="M44.7,72.4c0,0.1,0,0.2-0.1,0.2c-0.1,0.1-0.2,0.1-0.3,0c0-0.1,0-0.2,0.1-0.2
						C44.6,72.3,44.7,72.3,44.7,72.4z"/>
					<path class="st93" d="M45.9,72c0,0.1-0.2,0.2-0.5,0.3c-0.3,0.1-0.6,0.1-0.6,0c0-0.1,0.2-0.2,0.5-0.3
						C45.6,71.9,45.9,71.9,45.9,72z"/>
				</g>
			</g>
			<polygon class="st96" points="9.4,77.7 18.9,78.9 21,76.1 18.1,75.7 14.1,77.5 			"/>
			<g>
				<polygon class="st72" points="9.4,77.7 9.4,74.8 16.8,74.8 17.1,77.5 				"/>
				<polygon class="st97" points="17.1,77.5 18.1,75.9 18.1,74.5 16.8,74.8 				"/>
				<polygon class="st66" points="5.6,74.3 39.9,74.5 40.3,72.5 7.9,72.5 				"/>
				<polygon class="st72" points="5.6,74.3 5.9,74.8 40,74.8 40.3,72.8 40.3,72.5 39.9,74.5 				"/>
				<polygon class="st97" points="7.9,74.8 9.1,75.4 22.6,75.4 24.3,74.8 				"/>
				<polygon class="st98" points="9.4,76 16.9,76.3 18.1,75.7 18.1,75.4 9.4,75.4 				"/>
				<polygon class="st99" points="40,74.8 39.9,74.5 40.3,72.5 40.3,72.8 				"/>
			</g>
			<polyline class="st100" points="19.1,115.7 34,115.6 109,114.8 109,114.9 			"/>
			<polygon class="st98" points="7.9,74.8 8.2,75 23.7,75.1 24.3,74.8 			"/>
			<polyline class="st100" points="12.1,103.1 30.3,103 121.9,102.2 121.9,102.3 			"/>
		</g>
	</g>
</g>
</svg>
