<?xml version="1.0" encoding="utf-8"?>
<!-- Generator: Adobe Illustrator 22.1.0, SVG Export Plug-In . SVG Version: 6.00 Build 0)  -->
<svg version="1.1" id="Calque_1" xmlns="http://www.w3.org/2000/svg" xmlns:xlink="http://www.w3.org/1999/xlink" x="0px" y="0px"
	 viewBox="0 0 128 128" style="enable-background:new 0 0 128 128;" xml:space="preserve">
<style type="text/css">
	.st0{fill:none;}
	.st1{fill:#8A4F4F;}
	.st2{fill:#E54445;}
	.st3{fill:#ED746F;}
	.st4{fill:#E15A5E;}
	.st5{fill:#572A2D;}
	.st6{fill:#455665;}
	.st7{fill:#28313B;}
	.st8{clip-path:url(#SVGID_2_);}
	.st9{clip-path:url(#SVGID_4_);}
	.st10{clip-path:url(#SVGID_6_);}
	.st11{clip-path:url(#SVGID_8_);}
	.st12{clip-path:url(#SVGID_10_);}
	.st13{clip-path:url(#SVGID_12_);}
	.st14{fill:url(#SVGID_13_);}
	.st15{fill:url(#SVGID_14_);}
	.st16{fill:url(#SVGID_15_);}
	.st17{fill:url(#SVGID_16_);}
	.st18{fill:url(#SVGID_17_);}
	.st19{fill:#EFC659;}
	.st20{fill:none;stroke:url(#SVGID_18_);stroke-width:2;stroke-miterlimit:10;}
	.st21{fill:none;stroke:url(#SVGID_19_);stroke-width:0.75;stroke-miterlimit:10;}
	.st22{fill:url(#SVGID_20_);}
	.st23{fill:url(#SVGID_23_);}
	.st24{fill:none;stroke:#F6ECCB;stroke-width:0.75;stroke-linecap:round;stroke-miterlimit:10;}
	.st25{fill:#84E9D9;}
	.st26{fill:#B6FFFF;}
	.st27{fill:#33322D;}
</style>
<pattern  y="128" width="32.2" height="34.5" patternUnits="userSpaceOnUse" id="SVGID_21_" viewBox="0 -34.5 32.2 34.5" style="overflow:visible;">
	<g>
		<rect y="-34.5" class="st0" width="32.2" height="34.5"/>
		<g>
			<rect y="-34.5" class="st0" width="32.2" height="34.5"/>
			<rect y="-34.5" class="st1" width="32.2" height="34.5"/>
		</g>
	</g>
</pattern>
<pattern  y="128" width="32.2" height="34.5" patternUnits="userSpaceOnUse" id="SVGID_22_" viewBox="0 -34.5 32.2 34.5" style="overflow:visible;">
	<g>
		<rect y="-34.5" class="st0" width="32.2" height="34.5"/>
		<g>
			<rect y="-34.5" class="st0" width="32.2" height="34.5"/>
			<rect y="-34.5" class="st1" width="32.2" height="34.5"/>
		</g>
	</g>
</pattern>
<pattern  y="128" width="32.2" height="34.5" patternUnits="userSpaceOnUse" id="SVGID_24_" viewBox="0 -34.5 32.2 34.5" style="overflow:visible;">
	<g>
		<rect y="-34.5" class="st0" width="32.2" height="34.5"/>
		<g>
			<rect y="-34.5" class="st0" width="32.2" height="34.5"/>
			<rect y="-34.5" class="st2" width="32.2" height="34.5"/>
		</g>
	</g>
</pattern>
<pattern  y="128" width="32.2" height="34.5" patternUnits="userSpaceOnUse" id="SVGID_25_" viewBox="0 -34.5 32.2 34.5" style="overflow:visible;">
	<g>
		<rect y="-34.5" class="st0" width="32.2" height="34.5"/>
		<g>
			<rect y="-34.5" class="st0" width="32.2" height="34.5"/>
			<rect y="-34.5" class="st3" width="32.2" height="34.5"/>
		</g>
	</g>
</pattern>
<pattern  y="128" width="32.2" height="34.5" patternUnits="userSpaceOnUse" id="SVGID_26_" viewBox="0 -34.5 32.2 34.5" style="overflow:visible;">
	<g>
		<rect y="-34.5" class="st0" width="32.2" height="34.5"/>
		<g>
			<rect y="-34.5" class="st0" width="32.2" height="34.5"/>
			<rect y="-34.5" class="st4" width="32.2" height="34.5"/>
		</g>
	</g>
</pattern>
<pattern  y="128" width="32.2" height="34.5" patternUnits="userSpaceOnUse" id="SVGID_27_" viewBox="0 -34.5 32.2 34.5" style="overflow:visible;">
	<g>
		<rect y="-34.5" class="st0" width="32.2" height="34.5"/>
		<g>
			<rect y="-34.5" class="st0" width="32.2" height="34.5"/>
			<rect y="-34.5" class="st5" width="32.2" height="34.5"/>
		</g>
	</g>
</pattern>
<pattern  y="128" width="32.2" height="34.5" patternUnits="userSpaceOnUse" id="SVGID_28_" viewBox="0 -34.5 32.2 34.5" style="overflow:visible;">
	<g>
		<rect y="-34.5" class="st0" width="32.2" height="34.5"/>
		<g>
			<rect y="-34.5" class="st0" width="32.2" height="34.5"/>
			<rect y="-34.5" class="st6" width="32.2" height="34.5"/>
		</g>
	</g>
</pattern>
<pattern  y="128" width="32.2" height="34.5" patternUnits="userSpaceOnUse" id="SVGID_29_" viewBox="0 -34.5 32.2 34.5" style="overflow:visible;">
	<g>
		<rect y="-34.5" class="st0" width="32.2" height="34.5"/>
		<g>
			<rect y="-34.5" class="st0" width="32.2" height="34.5"/>
			<rect y="-34.5" class="st7" width="32.2" height="34.5"/>
		</g>
	</g>
</pattern>
<g id="Calque_5">
	<g>
		<g>
			<g>
				<defs>
					<circle id="SVGID_1_" cx="64" cy="64" r="61.2"/>
				</defs>
				<clipPath id="SVGID_2_">
					<use xlink:href="#SVGID_1_"  style="overflow:visible;"/>
				</clipPath>
				<g class="st8">
					<rect x="98.2" y="1.1" class="st0" width="90.1" height="96.3"/>
					<rect x="98.2" y="1.1" class="st1" width="90.1" height="96.3"/>
				</g>
			</g>
			<g>
				<defs>
					<circle id="SVGID_3_" cx="64" cy="64" r="61.2"/>
				</defs>
				<clipPath id="SVGID_4_">
					<use xlink:href="#SVGID_3_"  style="overflow:visible;"/>
				</clipPath>
				<g class="st9">
					<rect x="98.2" y="97.4" class="st0" width="90.1" height="96.3"/>
					<rect x="98.2" y="97.4" class="st1" width="90.1" height="96.3"/>
				</g>
			</g>
			<g>
				<defs>
					<circle id="SVGID_5_" cx="64" cy="64" r="61.2"/>
				</defs>
				<clipPath id="SVGID_6_">
					<use xlink:href="#SVGID_5_"  style="overflow:visible;"/>
				</clipPath>
				<g class="st10">
					<rect x="8.2" y="1.1" class="st0" width="90.1" height="96.3"/>
					<rect x="8.2" y="1.1" class="st1" width="90.1" height="96.3"/>
				</g>
			</g>
			<g>
				<defs>
					<circle id="SVGID_7_" cx="64" cy="64" r="61.2"/>
				</defs>
				<clipPath id="SVGID_8_">
					<use xlink:href="#SVGID_7_"  style="overflow:visible;"/>
				</clipPath>
				<g class="st11">
					<rect x="8.2" y="97.4" class="st0" width="90.1" height="96.3"/>
					<rect x="8.2" y="97.4" class="st1" width="90.1" height="96.3"/>
				</g>
			</g>
			<g>
				<defs>
					<circle id="SVGID_9_" cx="64" cy="64" r="61.2"/>
				</defs>
				<clipPath id="SVGID_10_">
					<use xlink:href="#SVGID_9_"  style="overflow:visible;"/>
				</clipPath>
				<g class="st12">
					<rect x="-81.9" y="1.1" class="st0" width="90.1" height="96.3"/>
					<rect x="-81.9" y="1.1" class="st1" width="90.1" height="96.3"/>
				</g>
			</g>
			<g>
				<defs>
					<circle id="SVGID_11_" cx="64" cy="64" r="61.2"/>
				</defs>
				<clipPath id="SVGID_12_">
					<use xlink:href="#SVGID_11_"  style="overflow:visible;"/>
				</clipPath>
				<g class="st13">
					<rect x="-81.9" y="97.4" class="st0" width="90.1" height="96.3"/>
					<rect x="-81.9" y="97.4" class="st1" width="90.1" height="96.3"/>
				</g>
			</g>
		</g>
		<g>
			<pattern  id="SVGID_13_" xlink:href="#SVGID_21_" patternTransform="matrix(2.7929 0 0 -2.7929 28950.0879 -45708.4336)">
			</pattern>
			<path class="st14" d="M76.9,28.6l48.7,18.3C118.2,19.9,93.4,0,64,0C28.7,0,0,28.7,0,64s28.7,64,64,64c14.6,0,28-4.9,38.8-13.2
				L31.4,90L76.9,28.6z"/>
			<pattern  id="SVGID_14_" xlink:href="#SVGID_22_" patternTransform="matrix(2.7929 0 0 -2.7929 28950.0879 -45708.4336)">
			</pattern>
			<path class="st15" d="M128,64c0-5.9-0.8-11.6-2.3-17.1L76.9,28.6L31.4,90l71.4,24.9C118.1,103.1,128,84.7,128,64z"/>
			
				<linearGradient id="SVGID_15_" gradientUnits="userSpaceOnUse" x1="140.8382" y1="34.7763" x2="62.9227" y2="65.7654" gradientTransform="matrix(1 0 0 -1 0 128)">
				<stop  offset="0" style="stop-color:#42210B;stop-opacity:0"/>
				<stop  offset="1" style="stop-color:#42210B"/>
			</linearGradient>
			<path class="st16" d="M128,64c0-5.9-0.8-11.6-2.3-17.1L76.9,30.8L31.4,90l71.4,24.9C118.1,103.1,128,84.7,128,64z"/>
		</g>
		<g>
			<pattern  id="SVGID_16_" xlink:href="#SVGID_24_" patternTransform="matrix(2.7929 0 0 -2.7929 28950.0879 -45708.4336)">
			</pattern>
			<rect x="67.2" y="58.9" class="st17" width="18.5" height="31.1"/>
			<pattern  id="SVGID_17_" xlink:href="#SVGID_25_" patternTransform="matrix(2.7929 0 0 -2.7929 28950.0879 -45708.4336)">
			</pattern>
			<polygon class="st18" points="31.4,51.5 39.2,43 59.1,43 59.1,47.9 49.6,52.8 31.4,52.8 			"/>
			<g>
				<polygon class="st5" points="59.1,32.7 67.7,32.7 67.7,38 59.1,45.1 				"/>
				<path class="st19" d="M56.2,52.8h-2.1H31.4V90h7.7h1.4h13.6h2.1h13.6V65.6v-0.3c0-1.6,3.2-2.9,7.1-2.9s7.1,1.3,7.1,2.9v0.3
					c0,8.1,0,16.3,0,24.4h15.7V52.8H56.2z"/>
				<polygon class="st19" points="76.9,32.4 49.8,53.7 104,53.7 				"/>
			</g>
			<pattern  id="SVGID_18_" xlink:href="#SVGID_26_" patternTransform="matrix(2.7929 0 0 -2.7929 28956.3711 -45784.2617)">
			</pattern>
			<polyline class="st20" points="31.4,53.7 49.8,53.7 76.9,32.4 104,53.7 			"/>
			<pattern  id="SVGID_19_" xlink:href="#SVGID_27_" patternTransform="matrix(2.7929 0 0 -2.7929 28956.3711 -45784.2617)">
			</pattern>
			<polyline class="st21" points="31.4,55.9 50.8,55.9 76.9,35.4 101,54.4 			"/>
			<g>
				<pattern  id="SVGID_20_" xlink:href="#SVGID_28_" patternTransform="matrix(2.7929 0 0 -2.7929 28950.0879 -45708.4336)">
				</pattern>
				<polyline class="st22" points="36.3,90 36.3,67.1 63.5,67.1 				"/>
				<pattern  id="SVGID_23_" xlink:href="#SVGID_29_" patternTransform="matrix(2.7929 0 0 -2.7929 28950.0879 -45708.4336)">
				</pattern>
				<polyline class="st23" points="63.5,67.1 63.5,90 36.3,90 				"/>
			</g>
			<line class="st24" x1="82" y1="77.2" x2="82" y2="80.7"/>
			<path class="st25" d="M71.2,66.5v4.6h11.4c0-6.5,0,1.9,0-4.6v-0.2c0-1.3-2.6-2.3-5.7-2.3s-5.7,1-5.7,2.3
				C71.2,66.3,71.2,66.5,71.2,66.5z"/>
		</g>
		<path class="st26" d="M81.1,64.7c-1-0.5-2.6-0.8-4.2-0.8c-3.1,0-5.7,1-5.7,2.3v0.2V71"/>
	</g>
	<g>
		<g>
			<rect x="36.3" y="67.1" class="st27" width="27.3" height="2"/>
		</g>
	</g>
</g>
</svg>
