<?xml version="1.0" encoding="UTF-8"?>
<svg viewBox="0 0 48 48" xmlns="http://www.w3.org/2000/svg" xmlns:xlink="http://www.w3.org/1999/xlink">
 <defs>
  <linearGradient id="a">
   <stop stop-color="#fff" stop-opacity=".8" offset="0"/>
   <stop stop-color="#fff" stop-opacity="0" offset="1"/>
  </linearGradient>
  <radialGradient id="l" cx="25.424" cy="52.57" r="25.729" gradientTransform="matrix(1 0 0 .18524 0 42.83)" gradientUnits="userSpaceOnUse">
   <stop stop-color="#2e3436" offset="0"/>
   <stop stop-color="#2e3436" stop-opacity="0" offset="1"/>
  </radialGradient>
  <linearGradient id="m" x2="0" y1="7.61" y2="14.766" gradientUnits="userSpaceOnUse" xlink:href="#a"/>
  <linearGradient id="n" x2="0" y1="3.688" y2="44.719" gradientUnits="userSpaceOnUse" xlink:href="#a"/>
  <linearGradient id="o" x2="0" y1="44.19" y2="25.875" gradientUnits="userSpaceOnUse">
   <stop stop-color="#e9b96e" offset="0"/>
   <stop stop-color="#c17d11" offset="1"/>
  </linearGradient>
  <linearGradient id="p" x2="0" y1="25.891" y2="44.17" gradientUnits="userSpaceOnUse" xlink:href="#a"/>
  <linearGradient id="q" x1="26.21" x2="32.768" y1="23.978" y2="36.25" gradientTransform="translate(1.2425e-8 -1.2405)" gradientUnits="userSpaceOnUse">
   <stop stop-color="#fff" offset="0"/>
   <stop stop-color="#fff" stop-opacity="0" offset="1"/>
  </linearGradient>
  <radialGradient id="r" cx="8.363" cy="28.968" r="17.5" gradientTransform="matrix(-.34202 1.3007 -1.8582 -.48862 72.451 20.543)" gradientUnits="userSpaceOnUse">
   <stop stop-color="#eeeeec" offset="0"/>
   <stop stop-color="#d3d7cf" offset="1"/>
  </radialGradient>
  <linearGradient id="s" x2="0" y1="3.438" y2="23.01" gradientTransform="translate(1.2425e-8 -1.2405)" gradientUnits="userSpaceOnUse">
   <stop stop-color="#2e3436" offset="0"/>
   <stop stop-color="#555753" offset="1"/>
  </linearGradient>
  <radialGradient id="t" cx="30.69" cy="32.759" r="5.141" gradientTransform="matrix(2.2246 -.54124 .32308 1.3279 -48.244 5.742)" gradientUnits="userSpaceOnUse">
   <stop stop-color="#729fcf" offset="0"/>
   <stop stop-color="#3465a4" offset="1"/>
  </radialGradient>
  <radialGradient id="u" cx="33.49" cy="36.728" r="5.141" gradientTransform="matrix(2.4834 -1.7549 .8042 1.138 -80.316 54.457)" gradientUnits="userSpaceOnUse">
   <stop stop-color="#c17d11" offset="0"/>
   <stop stop-color="#8f5902" offset="1"/>
  </radialGradient>
 </defs>
 <rect x="31.856" y="6.485" width="7.151" height="12.445" rx="1.2" fill="#2e3436"/>
 <path d="m32.969 7.625v10.188h4.9062v-10.188h-4.9062z" fill="#d3d7cf"/>
 <path d="m33.469 8.125v9.1875h3.9062v-9.1875h-3.9062z" fill="none" opacity=".8" stroke="url(#m)" stroke-linejoin="round" stroke-width="1.029"/>
 <path d="m32.465 28.417v9.1388" fill="#2e3436" fill-rule="evenodd" stroke="#2e3436"/>
 <path transform="matrix(.89117 0 0 .62801 1.3428 10.354)" d="m51.153 52.567a25.729 5.7851 0 1 1 -51.457 0 25.729 5.7851 0 1 1 51.457 0z" fill="url(#l)"/>
 <path d="m23.906 1.0095c-0.09714 0.025776-0.18426 0.080227-0.25 0.15625l-21.031 20.938c-0.13886 0.14663-0.17577 0.37796-0.09375 0.5625 0.082018 0.18454 0.26686 0.28607 0.46875 0.28125l2.5 0.03125v20.562c0 0.52068 0.44807 0.96875 0.96875 0.96875h35.062c0.52068-3e-6 0.96875-0.44807 0.96875-0.96875v-20.594l2.5 0.03125c0.20189 0.0048 0.38673-0.09671 0.46875-0.28125s0.04511-0.41587-0.09375-0.5625l-21-20.969c-0.11781-0.13103-0.29588-0.19039-0.46875-0.15625z" fill="#2e3436"/>
 <path d="m24.031 2.197-19.812 19.75 1.7812 0.03125c0.27435 0.0043 0.49571 0.22565 0.5 0.5v21.031h35v-21.062c0.0043-0.27435 0.22565-0.49571 0.5-0.5l1.8125 0.03125-19.781-19.781z" fill="url(#s)"/>
 <path d="m24 6.572-17.5 15.75v21.219h35v-21.219l-17.5-15.75z" fill="url(#r)"/>
 <path transform="translate(1.2425e-8 -1.2405)" d="m24.031 4.1875-18.562 18.5h0.53125c0.55139 0.0086 1.0226 0.47986 1.0312 1.0312v20.5h33.938v-20.531c0.008618-0.55139 0.47986-1.0226 1.0312-1.0312h0.5l-18.469-18.469z" fill="none" opacity=".8" stroke="url(#n)"/>
 <rect x="9.324" y="23.19" width="14.09" height="20.348" fill="#babdb6"/>
 <path transform="matrix(1.0535 0 0 1.0528 -.84928 -2.9781)" d="m10.812 25.875v18.312h11.062v-18.312h-11.062z" fill="#683f00"/>
 <path transform="matrix(.85944 0 0 .99211 2.2862 -.29805)" d="m10.812 25.875v18.312h11.062v-18.312h-11.062z" fill="url(#o)"/>
 <path transform="matrix(.85944 0 0 .99211 2.2862 -.29805)" d="m11.344 26.406v17.25h10v-17.25h-10z" fill="none" opacity=".8" stroke="url(#p)" stroke-width="1.107"/>
 <path d="m27.562 27.103c-0.04223 8e-3 -0.08397 0.01844-0.125 0.03125-0.7709 0.14318-1.3302 0.84112-1.3125 1.625v9.25c-0.0028 0.49039 0.2549 0.8799 0.5 1.125 0.2451 0.24509 0.63461 0.50281 1.125 0.5h9.2812c0.49039 0.0028 0.8799-0.2549 1.125-0.5 0.24509-0.2451 0.50281-0.63461 0.5-1.125v-9.2812c0.0028-0.49039-0.2549-0.8799-0.5-1.125-0.2451-0.24509-0.63461-0.50281-1.125-0.5h-9.1875c-0.03376-0.0032-0.05989 0.0011-0.09375 0-0.06772-0.0021-0.11998-0.0064-0.1875 0z" fill="#babdb6"/>
 <path transform="translate(1.2425e-8 -1.2405)" d="m27.656 29.469a0.49716 0.49716 0 0 0 -0.40625 0.5v9.2812a0.49716 0.49716 0 0 0 0.5 0.5h9.2812a0.49716 0.49716 0 0 0 0.5 -0.5v-9.2812a0.49716 0.49716 0 0 0 -0.5 -0.5h-9.2812a0.49716 0.49716 0 0 0 -0.09375 0z" fill="url(#t)"/>
 <path d="m27.656 28.228c-0.23969 0.04452-0.41174 0.25627-0.40625 0.5v6.2812c2.7875-1.2333 6.3848-2.2892 10.281-3.125v-3.1562c7.6e-4 -0.13284-0.06232-0.24982-0.15625-0.34375s-0.21091-0.15701-0.34375-0.15625h-9.2812c-0.03118-3e-3 -0.06257-3e-3 -0.09375 0z" fill="url(#q)" opacity=".6"/>
 <path d="m27.594 28.219c-0.21112 0.07419-0.35008 0.27632-0.34375 0.5v9.2812c0.0076 0.27293 0.22707 0.49238 0.5 0.5h9.2812c0.27293-0.0076 0.49238-0.22707 0.5-0.5v-9.2812c-0.0076-0.27292-0.22707-0.49238-0.5-0.5h-9.2812c-0.05178-8e-3 -0.10447-8e-3 -0.15625 0zm0.65625 1h3.6562v3.6562h-3.6562v-3.6562zm4.6562 0h3.625v3.6562h-3.625v-3.6562zm-4.6562 4.6562h3.6562v3.625h-3.6562v-3.625zm4.6562 0h3.625v3.625h-3.625v-3.625z" fill="url(#u)" fill-rule="evenodd"/>
</svg>
