/* XPM */
static char * ordi_xpm[] = {
"25 25 232 2",
"  	c None",
". 	c #0B0B0B",
"+ 	c #212138",
"@ 	c #000038",
"# 	c #2C2C38",
"$ 	c #1C1C38",
"% 	c #101038",
"& 	c #090938",
"* 	c #232323",
"= 	c #202020",
"- 	c #313131",
"; 	c #AFAFE9",
"> 	c #3A3AC9",
", 	c #D4D4F3",
"' 	c #9C9CE4",
") 	c #7171D8",
"! 	c #5959D2",
"~ 	c #9F9F9F",
"{ 	c #4E4E4E",
"] 	c #121212",
"^ 	c #828282",
"/ 	c #7A7A7A",
"( 	c #464646",
"_ 	c #969696",
": 	c #F6F6F6",
"< 	c #D5D5D5",
"[ 	c #EAEAEA",
"} 	c #E1E1E1",
"| 	c #DBDBDB",
"1 	c #222222",
"2 	c #2C2C2C",
"3 	c #7D7D7D",
"4 	c #93B8B8",
"5 	c #56E3DF",
"6 	c #68A468",
"7 	c #698C69",
"8 	c #348834",
"9 	c #427442",
"0 	c #194719",
"a 	c #C3C5C3",
"b 	c #CFCFCF",
"c 	c #BABABA",
"d 	c #AAAAAA",
"e 	c #979797",
"f 	c #1C1C1C",
"g 	c #939393",
"h 	c #B3B3B3",
"i 	c #C6C6C6",
"j 	c #B0B0B0",
"k 	c #151515",
"l 	c #575757",
"m 	c #9DD2D2",
"n 	c #4EE5E1",
"o 	c #71AA71",
"p 	c #4DA278",
"q 	c #368E4A",
"r 	c #508450",
"s 	c #3D843D",
"t 	c #3C843C",
"u 	c #142214",
"v 	c #D9D9D9",
"w 	c #ECECEC",
"x 	c #E3E3E3",
"y 	c #B7B7B7",
"z 	c #515151",
"A 	c #D8D8D8",
"B 	c #C9C9C9",
"C 	c #2B2B2B",
"D 	c #242424",
"E 	c #649F9F",
"F 	c #65E2E2",
"G 	c #60DED8",
"H 	c #65A665",
"I 	c #51B190",
"J 	c #40925E",
"K 	c #448444",
"L 	c #418441",
"M 	c #444F44",
"N 	c #646464",
"O 	c #E2E2E2",
"P 	c #D6D6D6",
"Q 	c #A7A7A7",
"R 	c #545454",
"S 	c #E4E4E4",
"T 	c #DDDDDD",
"U 	c #A3A3A3",
"V 	c #B0CCCC",
"W 	c #54E7E7",
"X 	c #7FD2C9",
"Y 	c #418F41",
"Z 	c #408440",
"` 	c #538453",
" .	c #2F842F",
"..	c #488448",
"+.	c #4A844A",
"@.	c #297C29",
"#.	c #2E2E2E",
"$.	c #D1D1D1",
"%.	c #BDBDBD",
"&.	c #898989",
"*.	c #4A4A4A",
"=.	c #D2D2D2",
"-.	c #F1F1F1",
";.	c #D3D3D3",
">.	c #999999",
",.	c #8F8F8F",
"'.	c #848484",
").	c #1D1D1D",
"!.	c #292929",
"~.	c #7BD3D3",
"{.	c #74DDDD",
"].	c #358F3C",
"^.	c #548854",
"/.	c #4A9664",
"(.	c #2F8A3B",
"_.	c #578457",
":.	c #3B843B",
"<.	c #398439",
"[.	c #557C55",
"}.	c #393939",
"|.	c #CDCDCD",
"1.	c #CCCCCC",
"2.	c #ACACAC",
"3.	c #3B3B3B",
"4.	c #9D9D9D",
"5.	c #B4B4B4",
"6.	c #C8C8C8",
"7.	c #9B9B9B",
"8.	c #6E6E6E",
"9.	c #555555",
"0.	c #090909",
"a.	c #111D1D",
"b.	c #779595",
"c.	c #70D3D3",
"d.	c #4FBAB3",
"e.	c #5CB27C",
"f.	c #54D5D5",
"g.	c #48966E",
"h.	c #458445",
"i.	c #367C36",
"j.	c #0F0F0F",
"k.	c #363636",
"l.	c #2D2D2D",
"m.	c #E8E8E8",
"n.	c #BFBFBF",
"o.	c #ABABAB",
"p.	c #6B6B6B",
"q.	c #505050",
"r.	c #707070",
"s.	c #252525",
"t.	c #001515",
"u.	c #3A5656",
"v.	c #949494",
"w.	c #83CECE",
"x.	c #92B0B0",
"y.	c #54AD81",
"z.	c #468446",
"A.	c #394039",
"B.	c #595959",
"C.	c #D7D7D7",
"D.	c #9A9A9A",
"E.	c #093838",
"F.	c #7AA3A3",
"G.	c #489A9A",
"H.	c #82A2A2",
"I.	c #619C91",
"J.	c #368936",
"K.	c #347C34",
"L.	c #0B1B0B",
"M.	c #797979",
"N.	c #A2A2A2",
"O.	c #858585",
"P.	c #004545",
"Q.	c #768282",
"R.	c #484848",
"S.	c #414141",
"T.	c #8E8E8E",
"U.	c #BCBCBC",
"V.	c #CAB8B8",
"W.	c #CFA8A8",
"X.	c #777777",
"Y.	c #5F5F5F",
"Z.	c #323232",
"`.	c #000000",
" +	c #636363",
".+	c #836363",
"++	c #D59191",
"@+	c #424242",
"#+	c #282828",
"$+	c #676767",
"%+	c #A0A0A0",
"&+	c #383838",
"*+	c #CACACA",
"=+	c #EBEBEB",
"-+	c #454545",
";+	c #DFDFDF",
">+	c #E7E7E7",
",+	c #E0E0E0",
"'+	c #E6E6E6",
")+	c #4C4C4C",
"!+	c #DADADA",
"~+	c #FAFAFA",
"{+	c #686868",
"]+	c #737373",
"^+	c #5E5E5E",
"/+	c #3E3E3E",
"(+	c #6A6A6A",
"_+	c #5D5D5D",
":+	c #B1B1B1",
"<+	c #666666",
"[+	c #5B5B5B",
"}+	c #6F6F6F",
"|+	c #C1C1C1",
"1+	c #F7F7F7",
"2+	c #EDEDED",
"3+	c #DDEADD",
"4+	c #D4E0D4",
"5+	c #D4D4D4",
"6+	c #61A561",
"7+	c #2D6C2D",
"8+	c #A5A5A5",
"9+	c #171717",
"0+	c #66A066",
"a+	c #3A703A",
"b+	c #3A3A3A",
"c+	c #4F4F4F",
"d+	c #565656",
"e+	c #303030",
"f+	c #112811",
"g+	c #001500",
"h+	c #080808",
"i+	c #212121",
"              . + @ # @ $ % & * =                 ",
"              - ; > , > ' ) ! ~ {                 ",
"      ] ^ ^ ^ / ( _ : < [ } | ~ { 1 2 ^ ^ ]       ",
"    3 4 5 6 7 8 9 0 a ~ b c d e f g h i i j 3 k   ",
"  l m n o p q r s t u v w x y z A B i i i i i i C ",
"D E F G H I J K L L M N O P Q R } S T i i i c U D ",
"C V W X Y Z `  ...+.@.#.$.%.&.*.i =.| -.;.>.,.'.).",
"!.~.{.].^./.(._.:.<.[.}.|.1.2.3.4.5.%.6.7.8.9.!.0.",
"a.b.c.d.e.f.g.:.K h.i.j.k.k.l.l m.n.h o.p.q.r.o.s.",
"t.u.v.w.x.y.+.<.h.z.A.B.      *.i C.v $._ D.v.'.).",
"  E.F.G.H.I.J.[.i.K.L.M.      *.i i 6.b N.O.'.'.).",
"    P.Q.R.R.R.R.R.R.R.R.k.    S.T.U.V.W.>.'.X.Y.Z.",
"    `. +O O O O O O O v U s.    `.B..+++>.R.@+#+$+",
"    `.%+&+&+&+&+&+&+S.h '.s.          &+C 9.      ",
"    `.7.R.;.T *+A v =+h '.s.          `.          ",
"    `.7.-+x ;+>+} } : h '.s.          `.          ",
"    `.7.-+x ,+'+} } : h '.s.          `.          ",
"    `.7.)+O w !+>+m.~+h '.s.          `.          ",
"    `.~ {+,+,+,+,+,+;+h ]+f                       ",
"    Z.N ^+( ( ( ( ( R.Y.@+/+(+      `.            ",
"  _+:+<+[+[+[+[+[+[+[+[+}+|+g `.  `.              ",
"  r.1+2+w w w =+3+4+5+A m.d r.`.                  ",
"  r.!+i i i i c 6+7+l.( 8+e }+9+                  ",
"  r.!+i i i i c 0+a+b+c+8+e S.d+                  ",
"  2 e+C C C C !.f+g+`.h+D i+ +                    "};
