<?xml version="1.0" encoding="UTF-8" standalone="no"?>
<svg xmlns:dc="http://purl.org/dc/elements/1.1/" xmlns:cc="http://creativecommons.org/ns#" xmlns:rdf="http://www.w3.org/1999/02/22-rdf-syntax-ns#" xmlns:svg="http://www.w3.org/2000/svg" xmlns="http://www.w3.org/2000/svg" xmlns:sodipodi="http://sodipodi.sourceforge.net/DTD/sodipodi-0.dtd" xmlns:inkscape="http://www.inkscape.org/namespaces/inkscape" version="1.1" id="Layer_1" x="0px" y="0px" viewBox="0 0 99.999998 90.913451" enable-background="new 0 0 2193.5505 1994.2324" xml:space="preserve" sodipodi:docname="Power-Cable-Icon-Redrawn.svg" width="100" height="90.913452" inkscape:version="0.92.4 (unknown)">
  <metadata id="metadata13">
    <rdf:RDF>
      <cc:Work rdf:about="">
        <dc:format>
          image/svg+xml
        </dc:format>
        <dc:type rdf:resource="http://purl.org/dc/dcmitype/StillImage" />
        <dc:title />
      </cc:Work>
    </rdf:RDF>
  </metadata>
  <defs id="defs11" />
  <sodipodi:namedview pagecolor="#ffffff" bordercolor="#666666" borderopacity="1" objecttolerance="10" gridtolerance="10" guidetolerance="10" inkscape:pageopacity="0" inkscape:pageshadow="2" inkscape:window-width="1647" inkscape:window-height="761" id="namedview9" showgrid="false" fit-margin-top="0" fit-margin-left="0" fit-margin-right="0" fit-margin-bottom="0" inkscape:zoom="1.4142136" inkscape:cx="138.5134" inkscape:cy="107.46298" inkscape:window-x="0" inkscape:window-y="48" inkscape:window-maximized="0" inkscape:current-layer="Layer_1" />
  <g id="g6" transform="matrix(0.04833493,0,0,0.04833493,-3.0125552,-2.7388215)" class="WTD-ActiveStrokeColor">
    <path d="m 1769.824,1068.2899 10.8564,0.231 5e-4,-371.9703 c 0,-70.353 -34.02,-132.0911 -74.2388,-189.8147 C 1606.8259,363.7618 1450.6814,318.0739 1302.0407,365.9498 1136.1996,419.3659 1024.779,575.0736 1024.779,749.305 v 739.1737 c 0,52.952 -17.5444,104.6348 -50.7988,145.8423 -104.6948,129.7328 -323.4988,120.9204 -388.0974,-62.3888 -8.4822,-24.0695 -12.5811,-49.4658 -12.5811,-74.9862 v -428.2001 c 0,-17.5345 10.499,-33.3969 26.678,-40.1577 C 821.4575,936.036 928.3943,757.1961 906.2851,481.1422 908.4816,371.7355 849.2824,319.6975 739.7934,314.6506 h -2.9998 V 130.1597 c 0,-40.5909 -32.9055,-73.4963 -73.4963,-73.4963 h -2e-4 c -40.5908,0 -73.4961,32.9054 -73.4961,73.4963 V 314.6506 H 379.8115 V 130.1597 c 0,-40.5909 -32.9055,-73.4963 -73.4963,-73.4963 -40.5911,0 -73.4963,32.9054 -73.4963,73.4963 V 314.6506 H 187.821 C 89.481,338.2234 57.8657,406.048 62.8213,508.1407 c 1.0669,21.9791 0,88.0204 0,88.0204 0,100.7253 34.5339,198.6736 98.8838,276.1638 61.6465,74.2346 140.9153,129.3895 238.6257,164.5994 17.3459,6.2506 28.978,22.6171 28.978,41.0547 0,0 0,324.5009 0,432.6677 0,9.0518 2.1567,17.8953 3.0249,26.9053 42.2168,438.1453 679.2168,442.1453 730.4678,4.5112 1.356,-11.5786 4.4707,-22.8866 4.4707,-34.5443 V 739.5663 c 0,-32.3102 6.3452,-64.3529 19.063,-94.0548 95.6421,-223.3679 393.6016,-210.8119 443.6235,25.1033 3.6021,16.9871 5.29,34.3267 5.29,51.6912 v 343.1216 h 5e-4 c -214.4731,28.3756 -379.9814,211.9375 -379.9814,434.1636 0,241.8885 196.0894,437.978 437.978,437.978 241.8886,0 437.978,-196.0895 437.978,-437.978 10e-5,-215.765 -156.0229,-395.0842 -361.3998,-431.3013 z m -76.5782,765.7843 c -184.73,0 -334.4834,-149.7532 -334.4834,-334.4832 0,-184.73 149.7534,-334.4833 334.4834,-334.4833 184.73,0 334.4834,149.7532 334.4834,334.4833 0,184.7301 -149.7534,334.4832 -334.4834,334.4832 z" id="path2" inkscape:connector-curvature="0" />
    <path d="m 1638.0956,1259.1875 h 123.4559 c 19.5858,0 33.563,18.981 27.7498,37.6842 l -49.6206,159.6492 83.7202,0.8088 c 21.9503,0.2122 33.9589,25.671 20.1619,42.7445 l -213.0774,263.6775 c -11.389,14.0935 -33.7806,1.6013 -27.7699,-15.4929 l 62.9652,-179.0713 -65.8334,-1.4008 c -15.17,-0.3228 -26.8334,-13.5216 -25.2791,-28.6152 5.8195,-56.5121 18.9181,-183.9685 24.9856,-245.0804 1.967,-19.8113 18.6331,-34.9036 38.5418,-34.9036 z" id="path4" inkscape:connector-curvature="0" />
  </g>
  <script type="text/javascript" id="SetMode">
    { console.log('Appel au svg avec mode='+mode);
    targets = this.getElementsByClassName('WTD-ActiveFillColor');
    for (target of targets)
    { var chg_matrice = { fill: [ this.currentColor, color ] };                                   /* Matrice de changement */
    var chg_timing  = { duration: 500, fill: 'forwards' };                                       /* Timing de changement */
    target.animate ( chg_matrice, chg_timing );                                                          /* Go Animate ! */
    }

    targets = this.getElementsByClassName('WTD-ActiveStrokeColor');
    for (target of targets)
    { var chg_matrice = { stroke: [ this.currentColor, color ] };                                 /* Matrice de changement */
    var chg_timing  = { duration: 500, fill: 'forwards' };                                       /* Timing de changement */
    target.animate ( chg_matrice, chg_timing );                                                          /* Go Animate ! */
    }
    this.currentColor = color;
    }
  </script>
</svg>
