<?xml version="1.0" encoding="UTF-8" standalone="no"?>
<!-- Generator: Adobe Illustrator 12.0.0, SVG Export Plug-In . SVG Version: 6.00 Build 51448)  -->

<svg
   xmlns:dc="http://purl.org/dc/elements/1.1/"
   xmlns:cc="http://creativecommons.org/ns#"
   xmlns:rdf="http://www.w3.org/1999/02/22-rdf-syntax-ns#"
   xmlns:svg="http://www.w3.org/2000/svg"
   xmlns="http://www.w3.org/2000/svg"
   xmlns:sodipodi="http://sodipodi.sourceforge.net/DTD/sodipodi-0.dtd"
   xmlns:inkscape="http://www.inkscape.org/namespaces/inkscape"
   version="1.1"
   id="CCTV"
   width="515.7"
   height="615.5"
   viewBox="0 0 515.7 615.5"
   style="overflow:visible;enable-background:new 0 0 515.7 615.5;"
   xml:space="preserve"
   sodipodi:docname="Camera.svg"
   inkscape:version="0.92+devel unknown"><metadata
     id="metadata43"><rdf:RDF><cc:Work
         rdf:about=""><dc:format>image/svg+xml</dc:format><dc:type
           rdf:resource="http://purl.org/dc/dcmitype/StillImage" /><dc:title></dc:title></cc:Work></rdf:RDF></metadata><defs
     id="defs41" /><sodipodi:namedview
     pagecolor="#ffffff"
     bordercolor="#666666"
     inkscape:document-rotation="0"
     borderopacity="1"
     objecttolerance="10"
     gridtolerance="10"
     guidetolerance="10"
     inkscape:pageopacity="0"
     inkscape:pageshadow="2"
     inkscape:window-width="1871"
     inkscape:window-height="1008"
     id="namedview39"
     showgrid="false"
     inkscape:zoom="1.3452478"
     inkscape:cx="128.5058"
     inkscape:cy="307.75"
     inkscape:window-x="49"
     inkscape:window-y="48"
     inkscape:window-maximized="1"
     inkscape:current-layer="CCTV" /><style
     type="text/css"
     id="style2"><![CDATA[
	.st0{fill:#DF222B;stroke:#FFFFFF;stroke-width:8;}
	.st1{fill:#FAC219;}
	.st2{fill:#DF222B;}
	.st3{fill:none;stroke:#1B181C;stroke-width:8;}
]]></style><g
     id="g8"><g
       id="g6"><path
         class="st1"
         d="m 10.1,479.6 c -0.1,0.9 -0.1,1.8 -0.1,2.7 v 81.1 c 0,26.6 22,48.1 49.2,48.1 h 397.3 c 27.2,0 49.2,-21.5 49.2,-48.1 v -81.1 c 0,-0.9 0,-1.8 -0.1,-2.7 z"
         id="path4"
         inkscape:connector-curvature="0" /></g></g><path
     class="st3"
     d="M505.7,563.4c0,26.6-22,48.1-49.2,48.1H59.2C32,611.5,10,590,10,563.4V52.1C10,25.5,32,4,59.2,4h397.3  c27.2,0,49.2,21.5,49.2,48.1V563.4z"
     id="path10" /><g
     id="g16"><path
       class="st2"
       d="M 53,218.1 V 352.3 H 86.8 V 291.4 L 232.1,282 v 37.5 c 0,0 3.4,10 13.2,10 9.8,0 13.5,-9.5 13.5,-9.5 0,0 0,-94.9 0,-96.1 0,-1.2 1,-2.3 3.5,-3.5 2.5,-1.2 5.6,-1.2 8.2,0 2.6,1.2 110.6,53.7 110.6,53.7 0,0 3.1,1.4 6.1,1.4 3,0 6.3,-0.9 7,-2.3 0.7,-1.5 11.7,-24.4 11.7,-24.4 l 11.7,6.1 22.5,-41.7 -13.6,-8 c 0,0 5.5,-10.2 17.5,-13.4 12,-3.2 32.2,-6.3 32.2,-6.3 0,0 -297.6,-144.7 -300.9,-146.3 -3.3,-1.6 -6.4,-1.4 -9.8,-0.5 -3.4,0.9 -5.6,4.2 -5.6,4.2 L 115.8,131 c 0,0 -1.6,5.5 -0.9,9.4 0.7,3.9 2.4,7.8 4.7,8.9 2.3,1.1 95.3,45.5 95.3,45.5 0,0 -1.1,8.3 4,16.9 5.1,8.6 12.4,10.1 12.4,10.1 v 32.6 L 86.7,244 v -25.8 z"
       id="path12"
       inkscape:connector-curvature="0" /><circle
       class="st0"
       cx="252.2"
       cy="175.60001"
       r="16.4"
       id="circle14" /></g><g
     id="g36"><path
       d="M 288.1,441.1 H 234 v -12 c 4.6,-3.6 8.7,-7.1 12.3,-10.3 3.6,-3.2 6.8,-6.3 9.6,-9.2 3.6,-3.8 6.2,-7.1 7.8,-10 1.6,-2.9 2.4,-5.8 2.4,-8.9 0,-3.4 -1,-6.1 -3.1,-7.9 -2,-1.8 -4.9,-2.7 -8.6,-2.7 -1.9,0 -3.7,0.2 -5.3,0.7 -1.6,0.5 -3.4,1.1 -5.1,1.8 -1.7,0.8 -3.1,1.5 -4.3,2.3 -1.2,0.8 -2.1,1.4 -2.7,1.8 h -1.4 v -16.1 c 2.1,-1 5.3,-2 9.7,-3 4.4,-1 8.7,-1.6 12.8,-1.6 8.7,0 15.4,1.9 19.9,5.8 4.5,3.9 6.8,9.4 6.8,16.4 0,4.4 -1,8.6 -3.1,12.8 -2,4.2 -5.4,8.6 -10.2,13.4 -3,2.9 -5.9,5.5 -8.7,7.8 -2.8,2.3 -4.8,3.9 -6.1,4.9 h 31.2 v 14 z"
       id="path28"
       inkscape:connector-curvature="0" /><path
       d="m 353.5,423.9 h -9.9 v 17.4 h -17.9 v -17.4 h -32.3 v -13.7 l 31.7,-42.7 h 18.5 v 43.2 h 9.9 z m -27.8,-13.3 v -25 l -18.6,25 z"
       id="path30"
       inkscape:connector-curvature="0" /><path
       d="M 404.9,364.1 375.6,457 h -14.2 l 29.2,-92.9 z"
       id="path32"
       inkscape:connector-curvature="0" /><path
       d="m 473.9,382 -31.3,59 h -20.5 l 32.7,-59.8 h -35 v -13.9 h 54.1 z"
       id="path34"
       inkscape:connector-curvature="0" /></g><flowRoot
     xml:space="preserve"
     id="flowRoot4302"
     style="font-style:normal;font-variant:normal;font-weight:bold;font-stretch:normal;font-size:85.33333588px;line-height:1.25;font-family:sans-serif;-inkscape-font-specification:'sans-serif Bold';letter-spacing:0px;word-spacing:0px;fill:#000000;fill-opacity:1;stroke:none"
     transform="translate(40.884662,3.7167874)"><flowRegion
       id="flowRegion4304"
       style="font-style:normal;font-variant:normal;font-weight:bold;font-stretch:normal;font-size:85.33333588px;font-family:sans-serif;-inkscape-font-specification:'sans-serif Bold'"><rect
         id="rect4306"
         width="436.888"
         height="101.36562"
         x="33.307034"
         y="491.99753"
         style="font-size:85.33333333px;-inkscape-font-specification:'sans-serif Bold';font-family:sans-serif;font-weight:bold;font-style:normal;font-stretch:normal;font-variant:normal;" /></flowRegion><flowPara
       id="flowPara4308"> A B L S</flowPara></flowRoot></svg>