<?xml version="1.0" encoding="UTF-8" standalone="no"?>
<svg xmlns:dc="http://purl.org/dc/elements/1.1/"
   xmlns:cc="http://creativecommons.org/ns#"
   xmlns:rdf="http://www.w3.org/1999/02/22-rdf-syntax-ns#"
   xmlns:svg="http://www.w3.org/2000/svg" xmlns="http://www.w3.org/2000/svg"
   xmlns:sodipodi="http://sodipodi.sourceforge.net/DTD/sodipodi-0.dtd"
   xmlns:inkscape="http://www.inkscape.org/namespaces/inkscape"
   enable-background="new 0 0 128 128"
   version="1.1"
   xml:space="preserve" id="svg14" sodipodi:docname="klaxon.svg"
   inkscape:version="1.0.1 (3bc2e813f5, 2020-09-07)"
   viewBox="0 0 1000 1000"
   preserveAspectRatio="xMidYMid meet"
   height="50px"
   width="50px">
  <metadata id="metadata20">
    <rdf:RDF>
      <cc:Work rdf:about="">
        <dc:format>
          image/svg+xml
        </dc:format>
        <dc:type rdf:resource="http://purl.org/dc/dcmitype/StillImage" />
        <dc:title />
      </cc:Work>
    </rdf:RDF>
  </metadata>
  <defs id="defs18" />
  <sodipodi:namedview pagecolor="#ffffff" bordercolor="#666666" borderopacity="1" objecttolerance="10" gridtolerance="10" guidetolerance="10" inkscape:pageopacity="0" inkscape:pageshadow="2" inkscape:window-width="1920" inkscape:window-height="983" id="namedview16" showgrid="false" inkscape:zoom="0.38769531" inkscape:cx="241.9317" inkscape:cy="432.26351" inkscape:window-x="0" inkscape:window-y="0" inkscape:window-maximized="1" inkscape:current-layer="g901" />
  <g inkscape:groupmode="layer" id="g25" inkscape:label="Layer 0" style="display:inline">
    <polygon points="61,118.5 61,9.5 25,36 25,92 " id="polygon2" style="fill:#ffa500;fill-opacity:1;stroke-width:0.136318" transform="matrix(7.3357588,0,0,7.3357588,35.074829,31.147088)" />
    <rect x="1" y="36" width="17" height="56" id="rect4" style="fill:#ffa500;fill-opacity:1;stroke-width:0.136318" transform="matrix(7.3357588,0,0,7.3357588,35.074829,31.147088)" />
  </g>
  <g visibility="hidden" inkscape:groupmode="layer" id="Layer-1" inkscape:label="Layer-1" style="display:inline">
    <path d="m 68.923,48.729 c -1.171,1.172 -1.171,3.071 0.001,4.243 2.946,2.946 4.569,6.862 4.569,11.028 0,4.166 -1.623,8.083 -4.569,11.03 -1.172,1.171 -1.172,3.071 0,4.242 0.586,0.586 1.354,0.879 2.121,0.879 0.767,0 1.535,-0.293 2.121,-0.879 4.08,-4.08 6.327,-9.504 6.327,-15.272 0,-5.769 -2.247,-11.192 -6.327,-15.271 -1.172,-1.171 -3.071,-1.172 -4.243,0 z" id="path895" style="fill:#ffa500;stroke-width:0.136318;fill-opacity:1" transform="matrix(7.3357588,0,0,7.3357588,35.074829,31.147088)" />
    <path d="m 89.245,32.653 c -1.171,-1.172 -3.069,-1.173 -4.242,-0.002 -1.172,1.171 -1.173,3.07 -0.002,4.243 7.237,7.246 11.224,16.872 11.224,27.106 0,10.234 -3.986,19.86 -11.224,27.105 -1.171,1.172 -1.17,3.071 0.002,4.242 0.586,0.586 1.353,0.878 2.12,0.878 0.769,0 1.536,-0.293 2.122,-0.88 C 97.615,86.968 102.224,75.836 102.224,64 102.225,52.165 97.615,41.032 89.245,32.653 Z" id="path897" style="fill:#ffa500;stroke-width:0.136318;fill-opacity:1" transform="matrix(7.3357588,0,0,7.3357588,35.074829,31.147088)" />
    <path d="m 105.31,16.582 c -1.172,-1.171 -3.072,-1.171 -4.242,0 -1.172,1.171 -1.172,3.071 0,4.243 11.533,11.532 17.884,26.865 17.884,43.175 0,16.307 -6.352,31.641 -17.885,43.176 -1.172,1.172 -1.172,3.071 0,4.242 0.586,0.586 1.354,0.879 2.121,0.879 0.767,0 1.536,-0.293 2.121,-0.879 12.667,-12.669 19.643,-29.509 19.643,-47.418 0,-17.913 -6.976,-34.753 -19.642,-47.418 z" id="path899" style="fill:#ffa500;stroke-width:0.136318;fill-opacity:1" transform="matrix(7.3357588,0,0,7.3357588,35.074829,31.147088)" />
    <animateTransform repeatCount="indefinite" dur="1.5s" from="0 0" to="450 0" type="translate" attributeType="XML" attributeName="transform" />
    <animateTransform repeatCount="indefinite" dur="1.5s" from="1 1" to="2 1" type="scale" attributeType="XML" attributeName="transform" />
  </g>
  <script id="SetMode" type="text/javascript">
    { console.log("Appel au svg "+this.motif.libelle+" avec mode="+mode);
    if (mode==null)  mode=0;
     if (mode==0)
    { this.getElementById("Layer-1").setAttribute("visibility", "visible" );
    }
    else if (mode==1)
    { this.getElementById("Layer-1").setAttribute("visibility", "visible" );
    }
    }
  </script>
</svg>
