<?xml version="1.0" encoding="utf-8"?>
<!-- Generator: Adobe Illustrator 22.1.0, SVG Export Plug-In . SVG Version: 6.00 Build 0)  -->
<svg version="1.1" id="Calque_1" xmlns="http://www.w3.org/2000/svg" xmlns:xlink="http://www.w3.org/1999/xlink" x="0px" y="0px"
	 viewBox="0 0 128 128" style="enable-background:new 0 0 128 128;" xml:space="preserve">
<style type="text/css">
	.st0{fill:#C69C6D;}
	.st1{fill:url(#SVGID_1_);}
	.st2{fill:#737266;}
	.st3{fill:#ADAB9A;}
	.st4{fill:#A9A8A6;}
	.st5{fill:#808080;}
	.st6{fill:#A9A9A9;}
	.st7{fill:#73716C;}
	.st8{fill:#1C1B19;}
	.st9{fill:#33322D;}
	.st10{fill:#FFFFFF;}
	.st11{fill:#756C66;}
	.st12{fill:#E6E6E6;}
	.st13{fill:#999999;}
	.st14{fill:#4D4D4D;}
</style>
<g id="Calque_4">
	<path class="st0" d="M63.9,128C28.7,128,0,99.3,0,64S28.7,0,63.9,0s63.9,28.7,63.9,64S99.2,128,63.9,128z"/>
	
		<linearGradient id="SVGID_1_" gradientUnits="userSpaceOnUse" x1="140.6856" y1="29.5508" x2="68.9684" y2="61.4252" gradientTransform="matrix(1 0 0 -1 0 128)">
		<stop  offset="0" style="stop-color:#A67C52;stop-opacity:0"/>
		<stop  offset="0.9996" style="stop-color:#A67C52"/>
	</linearGradient>
	<path class="st1" d="M39,91.4l62.1,24.6c11.4-7.7,19.2-19.4,23.8-33.4c2.2-6.9,3.2-13.9,3.1-20.8c0,0,0-4-0.6-7.4L82.5,35.7"/>
	<g>
		<path class="st2" d="M97.8,43.1c0,0.1,0,0.2-0.2,0.3c-1.6,1.8-16.1,3.2-33.8,3.2c-17.6,0-32.2-1.4-33.8-3.2
			c-0.1-0.1-0.2-0.2-0.2-0.3s0-0.1,0.1-0.2c0.3-0.6,1.9-1.1,4.5-1.5c5.9-1,16.9-1.7,29.4-1.7c12.6,0,23.6,0.7,29.4,1.7
			c2.6,0.5,4.2,1,4.5,1.5C97.8,43,97.8,43.1,97.8,43.1z"/>
		<path class="st3" d="M63.9,40.1c12.1,0,23.3,0.7,29.3,1.7c3.2,0.6,3.9,1.1,4.1,1.3c-1.3,1.4-14.5,3-33.4,3s-32.1-1.6-33.4-3
			c0.1-0.2,0.8-0.7,4.1-1.3C40.6,40.8,51.8,40.1,63.9,40.1L63.9,40.1z M63.9,39.6c-12.6,0-23.6,0.7-29.4,1.7c-2.6,0.5-4.1,1-4.5,1.5
			c0,0.1-0.1,0.1-0.1,0.2c0,0.1,0.1,0.2,0.2,0.3c1.7,1.8,16.2,3.2,33.8,3.2c17.7,0,32.2-1.4,33.8-3.2c0.1-0.1,0.2-0.2,0.2-0.3
			s0-0.1-0.1-0.2c-0.3-0.6-1.9-1.1-4.5-1.5C87.4,40.3,76.5,39.6,63.9,39.6L63.9,39.6z"/>
		<path class="st2" d="M30,42.9l0.1,0.6c-0.1-0.1-0.2-0.2-0.2-0.3C29.9,43.1,29.9,43,30,42.9z"/>
		<path class="st2" d="M97.8,43.1c0,0.1,0,0.2-0.2,0.3l0.1-0.5C97.8,43,97.8,43.1,97.8,43.1z"/>
		<path class="st4" d="M97.8,43.1c0,0.1,0,0.2-0.2,0.3l0,0c-1.7,1.8-16.2,3.1-33.8,3.1s-32-1.4-33.8-3.1l0,0
			c-0.1-0.1-0.2-0.2-0.2-0.3s0-0.1,0.1-0.2c0-0.1,0.1-0.1,0.1-0.2c0.1-1,0.9-1.9,2.1-2.8c4.8-3.5,17.2-6,31.7-6
			c14.6,0,27,2.5,31.7,6c1.2,0.9,1.9,1.8,2.1,2.8c0.1,0,0.1,0.1,0.1,0.1C97.8,43,97.8,43.1,97.8,43.1z"/>
		<path class="st5" d="M95.6,40c-4.8,1.3-17.2,3-31.7,3S37,41.3,32.2,40c4.8-3.5,17.2-6,31.7-6S90.9,36.5,95.6,40z"/>
		<path class="st6" d="M69.8,35.9c0-0.5-2.6-1-5.9-1c-3.2,0-5.9,0.4-5.9,1c0,0.5,2.6,1,5.9,1C67.1,36.9,69.8,36.5,69.8,35.9z"/>
		<path class="st7" d="M97.7,43.5C97.7,43.5,97.6,43.5,97.7,43.5c-0.2,0.2-0.4,0.3-0.6,0.4c-0.5,0.2-1.2,0.5-2.1,0.7
			c-1.8,0.4-4.5,0.9-7.6,1.2c-3.2,0.3-6.9,0.6-10.9,0.8s-8.3,0.3-12.5,0.3c-4.3,0-8.5-0.1-12.5-0.3s-7.7-0.5-10.9-0.8
			S34.8,45,33,44.6c-0.9-0.2-1.6-0.5-2.1-0.7c-0.2-0.1-0.4-0.2-0.5-0.3s-0.1-0.1-0.1-0.1s0.1,0,0.2,0.1s0.3,0.2,0.5,0.3
			c0.5,0.2,1.2,0.4,2.1,0.6c1.8,0.4,4.5,0.7,7.6,1c3.2,0.3,6.9,0.5,10.9,0.6c4,0.2,8.3,0.2,12.5,0.2c4.3,0,8.5-0.1,12.5-0.2
			c4-0.2,7.7-0.4,10.9-0.6c3.2-0.3,5.8-0.6,7.6-1c0.9-0.2,1.6-0.4,2.1-0.6C97.4,43.8,97.6,43.7,97.7,43.5
			C97.6,43.5,97.7,43.5,97.7,43.5z"/>
		<path class="st8" d="M68.1,29.4h-8.5c-0.9,0-1.6,0.7-1.6,1.6v2.2c0,0.8,0.6,1.4,1.3,1.6l0,0c0,0.6,2,1.1,4.6,1.1
			c2.6,0,4.6-0.5,4.6-1.1l0,0c0.7-0.1,1.3-0.8,1.3-1.6V31C69.8,30.1,69,29.4,68.1,29.4z"/>
		<ellipse class="st9" cx="63.9" cy="29.4" rx="4.6" ry="1"/>
		<path class="st10" d="M62.5,29.5c-0.4-0.1-0.9,0-1.3-0.2c-0.2-0.1-0.3,0.1-0.3,0.3c0,0.9,1,1.2,1.8,0.9
			C63.1,30.4,63,29.6,62.5,29.5z"/>
	</g>
	<g>
		<path class="st4" d="M97.9,42.9l-0.3,2L95.4,61l-0.5,4l-3.5,25.8c0,0.3-0.2,0.5-0.4,0.7c-1,2.6-12.7,4.7-27.1,4.7
			s-26.2-2.1-27.1-4.7c-0.2-0.2-0.3-0.4-0.4-0.7L32.9,65v-0.4l-2.4-17.2l-0.6-4.5c1.7,2.4,16.3,4.2,34,4.2
			C81.7,47.2,96.3,45.3,97.9,42.9z"/>
		<path class="st5" d="M95.4,61l-0.5,4l-3.5,25.8c0,0.3-0.2,0.5-0.4,0.7c-1,2.6-12.7,4.7-27.1,4.7s-26.2-2.1-27.1-4.7
			c-0.2-0.2-0.3-0.4-0.4-0.7L32.9,65v-0.4c2.1,2.3,4.1,5.9,6.1,7.3c5.2,3.6,10.8,5.8,16.5,7c9.8,1.9,22.9,2.1,31.3-5.8
			c3.4-3.1,4.5-7.7,7.5-11C94.6,61.7,95,61.3,95.4,61z"/>
		<path class="st8" d="M103.9,51.3h-2.7c-0.6,0-1.4,0.3-1.9,0.7l-2.5,1.8c-0.5,0.4-1,1.3-1.2,2.2l-0.2,1.2c-0.2,0.8,0.1,1.3,0.6,1
			l3.3-1.9c0.5-0.3,1.4-0.5,1.9-0.5h2.7c0.6,0,1-0.7,1-1.6v-1.3C104.9,52,104.4,51.3,103.9,51.3z"/>
		<path class="st8" d="M32.6,57.1l-0.2-1.2c-0.2-0.8-0.7-1.8-1.2-2.2l-2.5-1.8c-0.5-0.4-1.4-0.7-1.9-0.7H24c-0.6,0-1,0.7-1,1.6v1.3
			c0,0.9,0.5,1.6,1,1.6h2.7c0.6,0,1.4,0.2,1.9,0.5l3.3,1.9C32.4,58.4,32.7,57.9,32.6,57.1z"/>
		<path class="st11" d="M91,91.4L91,91.4c-1,2.7-12.8,4.7-27.2,4.7S37.6,94,36.7,91.4l0,0c5.9,1.8,15.9,3.6,27.1,3.6
			C75.2,95,85.1,93.2,91,91.4z"/>
		<path class="st7" d="M30.5,43.5c0.5,0.3,1.2,0.6,2.1,0.8c1.8,0.5,4.5,1,7.7,1.4s7,0.7,11,0.9s8.3,0.3,12.6,0.3s8.6-0.1,12.6-0.3
			s7.8-0.5,11-0.9s5.9-0.8,7.7-1.4c0.9-0.3,1.6-0.5,2.1-0.8c0.2-0.1,0.4-0.3,0.5-0.4c0.1-0.1,0.2-0.2,0.2-0.2s-0.1,0.1-0.2,0.2
			c-0.1,0.1-0.3,0.3-0.5,0.4c-0.5,0.3-1.2,0.6-2.1,0.9c-1.8,0.6-4.5,1.2-7.7,1.6c-3.2,0.4-7,0.8-11,1.1c-4,0.2-8.3,0.4-12.6,0.4
			s-8.6-0.1-12.6-0.4c-4-0.2-7.8-0.6-11-1.1s-5.9-1-7.7-1.6C31.7,44.1,31,43.8,30.5,43.5c-0.2-0.1-0.2-0.3-0.3-0.4"/>
		<path class="st7" d="M30,43.1"/>
		<path class="st10" d="M25.2,51.9c-0.4,0-0.7,0-1.1,0.3c-0.2,0.1-0.2,0.5,0,0.6c0.4,0.3,0.6,0.3,1.1,0.3c0.3,0,0.6-0.2,0.6-0.6
			C25.8,52.1,25.4,51.9,25.2,51.9z"/>
		<path class="st10" d="M103.7,51.9c-0.4,0-0.6,0.3-1,0.4c-0.1,0-0.1,0.3,0,0.3c0.4,0.1,0.6,0.4,1,0.4
			C104.3,53.1,104.3,51.9,103.7,51.9z"/>
	</g>
	<g>
		<path class="st12" d="M24,88.3c0,0,2.1,7.8,8.1,10.4c6.5,2.9,11.1,0.9,12.3-0.3s1.6-0.4,2.9-3.2c1-2.2,0.9-3.7,0-5.6
			c-0.8-1.7-4.4-3.4-5.1-4.4c-0.8-1.2-0.7-2.7-0.2-4.4c0.5-1.7,6.4-18.8,6.4-18.8h-1.3L41,76.1c0,0-1.1,2.9-4.8,6.9
			c-1.1,1.2-5.4,1-7.3,1.2S23.9,84.8,24,88.3z"/>
		<path class="st13" d="M24.2,86.7c-1,2.9,4.4,6.7,11.7,7.6c2.5,0.3,5.8,0.4,8.3-0.2c1.8-0.5,3.2,1.8,1.8,3.2l0,0
			c0,0-1.4,2.1-5.6,2.8c-4.3,0.7-11-1.6-13.2-4s-3-3.9-3.3-6.6C23.9,88.2,24,87.6,24.2,86.7z"/>
		<path class="st14" d="M43.4,89c0.6-1.1,2.1-1.4,3-0.6c0.3,0.3,0.6,0.5,0.8,0.8c0.4,0.5,0.6,1.1,0.7,1.6c0.2,0.7,0,1.6-0.6,2
			c-0.5,0.4-1.3,0.9-2.6,1.2c-2.3,0.6-2.4,0.7-5.5,0.7c-1.4,0-3.1-0.3-3.1-0.3s3.9-0.8,4.8-2.1C41.4,91.3,42.6,90.5,43.4,89z"/>
		<path class="st13" d="M46.7,63.1c0,0,0.4-1.1,1.1-1c0,0,0.6,0.1,0.3,1.1c-0.3,0.8-0.7,1.9-0.7,1.9c0.1,1.2,2.3-2.1,2.8-3.4
			s8.1-18,8.7-19.6c0.5-1.6,1.3-2.7,0-3.8s-2.7-1-3.8,0.5c-0.9,1.3-1.6,2.5-2.8,4.7s-3.8,9.3-4.2,10.3
			C47.7,54.8,44.9,63.1,46.7,63.1z"/>
	</g>
</g>
</svg>
