<?xml version="1.0" encoding="utf-8"?>
<!-- Generator: Adobe Illustrator 22.1.0, SVG Export Plug-In . SVG Version: 6.00 Build 0)  -->
<svg version="1.1" id="Calque_1" xmlns="http://www.w3.org/2000/svg" xmlns:xlink="http://www.w3.org/1999/xlink" x="0px" y="0px"
	 viewBox="0 0 128 128" style="enable-background:new 0 0 128 128;" xml:space="preserve">
<style type="text/css">
	.st0{fill:none;}
	.st1{fill:#ED746F;}
	.st2{fill:url(#SVGID_1_);}
	.st3{clip-path:url(#SVGID_3_);}
	.st4{fill:url(#SVGID_4_);}
	.st5{fill:url(#SVGID_5_);}
	.st6{clip-path:url(#SVGID_17_);}
	.st7{fill:url(#SVGID_18_);}
	.st8{fill:url(#SVGID_19_);}
	.st9{clip-path:url(#SVGID_21_);}
	.st10{fill:url(#SVGID_22_);}
	.st11{fill:url(#SVGID_23_);}
	.st12{clip-path:url(#SVGID_25_);}
	.st13{fill:url(#SVGID_26_);}
	.st14{fill:url(#SVGID_27_);}
	.st15{fill:#FBB03B;}
	.st16{fill:url(#SVGID_28_);}
	.st17{fill:#F7D419;}
	.st18{opacity:0.3;fill:#FFFFFF;enable-background:new    ;}
	.st19{fill:#45363D;}
	.st20{fill:#A3A8AD;}
	.st21{fill:#C6CDD3;}
	.st22{fill:#F7931E;}
	.st23{fill:#FFFFFF;}
</style>
<pattern  y="128" width="32.2" height="34.5" patternUnits="userSpaceOnUse" id="SVGID_10_" viewBox="0 -34.5 32.2 34.5" style="overflow:visible;">
	<g>
		<rect y="-34.5" class="st0" width="32.2" height="34.5"/>
		<g>
			<rect y="-34.5" class="st0" width="32.2" height="34.5"/>
			<rect y="-34.5" class="st1" width="32.2" height="34.5"/>
		</g>
	</g>
</pattern>
<pattern  y="128" width="32.2" height="34.5" patternUnits="userSpaceOnUse" id="SVGID_11_" viewBox="0 -34.5 32.2 34.5" style="overflow:visible;">
	<g>
		<rect y="-34.5" class="st0" width="32.2" height="34.5"/>
		<g>
			<rect y="-34.5" class="st0" width="32.2" height="34.5"/>
			<rect y="-34.5" class="st1" width="32.2" height="34.5"/>
		</g>
	</g>
</pattern>
<pattern  y="128" width="32.2" height="34.5" patternUnits="userSpaceOnUse" id="SVGID_12_" viewBox="0 -34.5 32.2 34.5" style="overflow:visible;">
	<g>
		<rect y="-34.5" class="st0" width="32.2" height="34.5"/>
		<g>
			<rect y="-34.5" class="st0" width="32.2" height="34.5"/>
			<rect y="-34.5" class="st1" width="32.2" height="34.5"/>
		</g>
	</g>
</pattern>
<pattern  y="128" width="32.2" height="34.5" patternUnits="userSpaceOnUse" id="SVGID_13_" viewBox="0 -34.5 32.2 34.5" style="overflow:visible;">
	<g>
		<rect y="-34.5" class="st0" width="32.2" height="34.5"/>
		<g>
			<rect y="-34.5" class="st0" width="32.2" height="34.5"/>
			<rect y="-34.5" class="st1" width="32.2" height="34.5"/>
		</g>
	</g>
</pattern>
<pattern  y="128" width="32.2" height="34.5" patternUnits="userSpaceOnUse" id="SVGID_14_" viewBox="0 -34.5 32.2 34.5" style="overflow:visible;">
	<g>
		<rect y="-34.5" class="st0" width="32.2" height="34.5"/>
		<g>
			<rect y="-34.5" class="st0" width="32.2" height="34.5"/>
			<rect y="-34.5" class="st1" width="32.2" height="34.5"/>
		</g>
	</g>
</pattern>
<pattern  y="128" width="32.2" height="34.5" patternUnits="userSpaceOnUse" id="SVGID_15_" viewBox="0 -34.5 32.2 34.5" style="overflow:visible;">
	<g>
		<rect y="-34.5" class="st0" width="32.2" height="34.5"/>
		<g>
			<rect y="-34.5" class="st0" width="32.2" height="34.5"/>
			<rect y="-34.5" class="st1" width="32.2" height="34.5"/>
		</g>
	</g>
</pattern>
<pattern  y="128" width="32.2" height="34.5" patternUnits="userSpaceOnUse" id="SVGID_16_" viewBox="0 -34.5 32.2 34.5" style="overflow:visible;">
	<g>
		<rect y="-34.5" class="st0" width="32.2" height="34.5"/>
		<g>
			<rect y="-34.5" class="st0" width="32.2" height="34.5"/>
			<rect y="-34.5" class="st1" width="32.2" height="34.5"/>
		</g>
	</g>
</pattern>
<pattern  y="128" width="32.2" height="34.5" patternUnits="userSpaceOnUse" id="SVGID_7_" viewBox="0 -34.5 32.2 34.5" style="overflow:visible;">
	<g>
		<rect y="-34.5" class="st0" width="32.2" height="34.5"/>
		<g>
			<rect y="-34.5" class="st0" width="32.2" height="34.5"/>
			<rect y="-34.5" class="st1" width="32.2" height="34.5"/>
		</g>
	</g>
</pattern>
<pattern  y="128" width="32.2" height="34.5" patternUnits="userSpaceOnUse" id="SVGID_9_" viewBox="0 -34.5 32.2 34.5" style="overflow:visible;">
	<g>
		<rect y="-34.5" class="st0" width="32.2" height="34.5"/>
		<g>
			<rect y="-34.5" class="st0" width="32.2" height="34.5"/>
			<rect y="-34.5" class="st1" width="32.2" height="34.5"/>
		</g>
	</g>
</pattern>
<g id="Calque_3">
	<g>
		<g>
			<g>
				<g>
					<g>
						<pattern  id="SVGID_1_" xlink:href="#SVGID_7_" patternTransform="matrix(1.1995 0 0 -1.1995 3201.9346 -19814.3594)">
						</pattern>
						<path id="SVGID_6_" class="st2" d="M125.2,64c0,33.8-27.4,61.2-61.2,61.2S2.8,97.8,2.8,64S30.2,2.8,64,2.8
							S125.2,30.2,125.2,64z"/>
					</g>
					<g>
						<defs>
							<circle id="SVGID_2_" cx="64" cy="64" r="61.2"/>
						</defs>
						<clipPath id="SVGID_3_">
							<use xlink:href="#SVGID_2_"  style="overflow:visible;"/>
						</clipPath>
						<g class="st3">
							<pattern  id="SVGID_4_" xlink:href="#SVGID_9_" patternTransform="matrix(1.1995 0 0 -1.1995 3201.9346 -19814.3594)">
							</pattern>
							<rect x="35.5" y="-21.2" class="st4" width="90.1" height="96.3"/>
							<pattern  id="SVGID_5_" xlink:href="#SVGID_10_" patternTransform="matrix(1.1995 0 0 -1.1995 3201.9346 -19814.3594)">
							</pattern>
							<rect x="35.5" y="-21.2" class="st5" width="90.1" height="96.3"/>
						</g>
					</g>
					<g>
						<defs>
							<circle id="SVGID_8_" cx="64" cy="64" r="61.2"/>
						</defs>
						<clipPath id="SVGID_17_">
							<use xlink:href="#SVGID_8_"  style="overflow:visible;"/>
						</clipPath>
						<g class="st6">
							<pattern  id="SVGID_18_" xlink:href="#SVGID_11_" patternTransform="matrix(1.1995 0 0 -1.1995 3201.9346 -19814.3594)">
							</pattern>
							<rect x="35.5" y="75.1" class="st7" width="90.1" height="96.3"/>
							<pattern  id="SVGID_19_" xlink:href="#SVGID_12_" patternTransform="matrix(1.1995 0 0 -1.1995 3201.9346 -19814.3594)">
							</pattern>
							<rect x="35.5" y="75.1" class="st8" width="90.1" height="96.3"/>
						</g>
					</g>
					<g>
						<defs>
							<circle id="SVGID_20_" cx="64" cy="64" r="61.2"/>
						</defs>
						<clipPath id="SVGID_21_">
							<use xlink:href="#SVGID_20_"  style="overflow:visible;"/>
						</clipPath>
						<g class="st9">
							<pattern  id="SVGID_22_" xlink:href="#SVGID_13_" patternTransform="matrix(1.1995 0 0 -1.1995 3201.9346 -19814.3594)">
							</pattern>
							<rect x="-54.5" y="-21.2" class="st10" width="90.1" height="96.3"/>
							<pattern  id="SVGID_23_" xlink:href="#SVGID_14_" patternTransform="matrix(1.1995 0 0 -1.1995 3201.9346 -19814.3594)">
							</pattern>
							<rect x="-54.5" y="-21.2" class="st11" width="90.1" height="96.3"/>
						</g>
					</g>
					<g>
						<defs>
							<circle id="SVGID_24_" cx="64" cy="64" r="61.2"/>
						</defs>
						<clipPath id="SVGID_25_">
							<use xlink:href="#SVGID_24_"  style="overflow:visible;"/>
						</clipPath>
						<g class="st12">
							<pattern  id="SVGID_26_" xlink:href="#SVGID_15_" patternTransform="matrix(1.1995 0 0 -1.1995 3201.9346 -19814.3594)">
							</pattern>
							<rect x="-54.5" y="75.1" class="st13" width="90.1" height="96.3"/>
							<pattern  id="SVGID_27_" xlink:href="#SVGID_16_" patternTransform="matrix(1.1995 0 0 -1.1995 3201.9346 -19814.3594)">
							</pattern>
							<rect x="-54.5" y="75.1" class="st14" width="90.1" height="96.3"/>
						</g>
					</g>
				</g>
				<path class="st15" d="M64,128C28.7,128,0,99.3,0,64S28.7,0,64,0s64,28.7,64,64S99.3,128,64,128z"/>
			</g>
			
				<linearGradient id="SVGID_28_" gradientUnits="userSpaceOnUse" x1="142.3563" y1="23.2445" x2="75.951" y2="60.4315" gradientTransform="matrix(1 0 0 -1 0 128)">
				<stop  offset="0" style="stop-color:#F7931E;stop-opacity:0"/>
				<stop  offset="1" style="stop-color:#F7931E"/>
			</linearGradient>
			<path class="st16" d="M53.9,95.5l46,22c11.4-7.7,20.4-19.1,25-33.2c2.2-6.9,3.2-13.9,3.1-20.8c0,0,0-4-0.6-7.4l-48.3-22"/>
			<g>
				<path class="st17" d="M91.3,49.2c0-12.2-9.8-22.4-22.7-24.7C66.9,24.2,65,24,63.2,24c-15.5,0-28.1,11.2-28.1,25.1
					c0,5.3,1.8,10.2,5,14.2c0,0,1.8,2.1,2.6,2.9c7.6,8.1,7,15.3,8.8,23.5H75c1.8-8.1,1.2-15.4,8.8-23.5c0.8-0.8,2.6-2.9,2.6-2.9
					c2.9-3.8,4.7-8.3,5-13.2C91.3,49.9,91.3,49.5,91.3,49.2z"/>
				<path class="st18" d="M51.8,63.4c-0.5-1-1.8-3.5-1.7-3.5c-1.9-4.7-2.4-10.1-0.9-15.4c2.4-8.8,9.2-15.4,17.7-18.4
					C66.2,26,65.5,26,64.8,26c-14.6,0-26.5,10.6-26.5,23.6c0,5,1.7,9.6,4.7,13.4c0,0,1.8,2,2.5,2.7c6.8,7.2,7.9,13.4,9.4,20.8
					C55.4,78.6,56.5,72.2,51.8,63.4z"/>
				<polygon class="st19" points="68.4,108.8 57.9,108.8 52.9,105.1 73.5,105.1 				"/>
				<polygon class="st20" points="73.5,92.2 52.9,92.2 51.5,89.8 74.9,89.8 				"/>
				<rect x="52.9" y="92.2" class="st21" width="20.6" height="12.8"/>
			</g>
			<path class="st22" d="M78.4,33.6c-0.1,0.4-0.3,0.8-0.4,1.2c-1.7,4.9-3.4,9.9-5.1,14.8c-0.3,0.9-0.3,1.2,0.3,1.4
				c2.4,0.8,4.8,1.6,7.2,2.5c0.2,0.1,0.5,0.2,0.8,0.3C74.1,62.3,67.1,70.6,60,79c-0.1,0-0.1-0.1-0.2-0.1c0.1-0.4,0.3-0.7,0.4-1.1
				c1.9-5.5,3.8-11,5.7-16.5c0.4-1,0.3-1.4-0.4-1.6c-2.2-0.7-4.3-1.5-6.5-2.2c-0.2-0.1-0.5-0.2-0.9-0.3c6.8-8,13.5-15.7,20.1-23.5
				C78.3,33.6,78.4,33.6,78.4,33.6z"/>
			<path class="st23" d="M73.9,35.4c-0.1,0.4-0.3,0.8-0.4,1.2c-1.7,4.9-3.4,9.9-5.1,14.8c-0.3,0.9-0.3,1.2,0.3,1.4
				c2.4,0.8,4.8,1.6,7.2,2.5c0.2,0.1,0.5,0.2,0.8,0.3C69.6,64,62.5,72.3,55.5,80.7c-0.1,0-0.1-0.1-0.2-0.1c0.1-0.4,0.3-0.7,0.4-1.1
				c1.9-5.5,3.8-11,5.7-16.5c0.4-1,0.3-1.4-0.4-1.6c-2.2-0.7-4.3-1.5-6.5-2.2c-0.2-0.1-0.5-0.2-0.9-0.3c6.8-8,13.5-15.7,20.1-23.5
				C73.8,35.3,73.8,35.3,73.9,35.4z"/>
		</g>
		<path class="st20" d="M54.6,95.7c-0.3-0.1-0.6-0.2-0.8-0.3c-0.5-0.4-0.6-0.8-0.4-1.3c0.2-0.5,0.8-0.8,1.6-0.8c1.8,0,3.7,0,5.5,0
			c3.5,0,7,0,10.5,0c1.2,0,1.8,0.3,2,0.9c0.2,0.7-0.1,1.2-1.2,1.6C66.1,95.7,60.4,95.7,54.6,95.7z M55.7,94.5c0-0.2,0.1-0.5-0.3-0.7
			c-0.3-0.1-0.6-0.1-0.8,0.1c-0.3,0.3-0.3,0.7,0,1.1c0.1,0.2,0.4,0.2,0.7,0.1C55.7,95,55.7,94.8,55.7,94.5z"/>
		<path class="st20" d="M54.7,103.2c-1.2-0.3-1.7-1.1-1.2-1.8c0.4-0.5,1-0.6,1.7-0.6c5.3,0,10.6,0,15.9,0c1.2,0,1.9,0.3,2,1
			c0.1,0.8-0.3,1.2-1.6,1.5c-0.1,0-0.3,0-0.4,0C65.6,103.2,60.1,103.2,54.7,103.2z M55.7,102c0-0.2,0-0.4-0.1-0.5
			c-0.2-0.2-0.4-0.2-0.7-0.2c-0.5,0.1-0.5,0.4-0.5,0.6c0,0.3-0.1,0.6,0.5,0.7c0.3,0.1,0.5,0,0.7-0.2C55.7,102.4,55.7,102.2,55.7,102
			z"/>
		<path class="st20" d="M54.7,99.4c-1.2-0.3-1.7-1.1-1.2-1.8c0.4-0.5,1-0.6,1.7-0.6c5.3,0,10.6,0,15.9,0c1.2,0,1.9,0.3,2,1
			c0.1,0.8-0.3,1.2-1.6,1.5c-0.1,0-0.3,0-0.4,0C65.6,99.4,60.1,99.4,54.7,99.4z M55.7,98.2c0-0.2,0-0.4-0.1-0.5
			c-0.2-0.2-0.4-0.2-0.7-0.2c-0.5,0.1-0.5,0.4-0.5,0.6c0,0.3-0.1,0.6,0.5,0.7c0.3,0.1,0.5,0,0.7-0.2C55.7,98.6,55.7,98.4,55.7,98.2z
			"/>
	</g>
</g>
</svg>
