<?xml version="1.0" encoding="UTF-8" standalone="no"?>
<svg
   xmlns:dc="http://purl.org/dc/elements/1.1/"
   xmlns:cc="http://creativecommons.org/ns#"
   xmlns:rdf="http://www.w3.org/1999/02/22-rdf-syntax-ns#"
   xmlns:svg="http://www.w3.org/2000/svg"
   xmlns="http://www.w3.org/2000/svg"
   xmlns:xlink="http://www.w3.org/1999/xlink"
   xmlns:sodipodi="http://sodipodi.sourceforge.net/DTD/sodipodi-0.dtd"
   xmlns:inkscape="http://www.inkscape.org/namespaces/inkscape"
   version="1.1"
   id="Calque_3"
   x="0px"
   y="0px"
   viewBox="0 0 128 128"
   style="enable-background:new 0 0 128 128;"
   xml:space="preserve"
   sodipodi:docname="syn_communication.svg"
   inkscape:export-filename="/home/sebastien/SRC/trunk/Watchdogd/IHM/img/syn_communication.png"
   inkscape:export-xdpi="96"
   inkscape:export-ydpi="96"
   inkscape:version="1.0.2 (e86c870879, 2021-01-15)"><metadata
   id="metadata40"><rdf:RDF><cc:Work
       rdf:about=""><dc:format>image/svg+xml</dc:format><dc:type
         rdf:resource="http://purl.org/dc/dcmitype/StillImage" /></cc:Work></rdf:RDF></metadata><defs
   id="defs38" /><sodipodi:namedview
   pagecolor="#ffffff"
   bordercolor="#666666"
   borderopacity="1"
   objecttolerance="10"
   gridtolerance="10"
   guidetolerance="10"
   inkscape:pageopacity="0"
   inkscape:pageshadow="2"
   inkscape:window-width="1920"
   inkscape:window-height="1043"
   id="namedview36"
   showgrid="false"
   inkscape:zoom="6.203125"
   inkscape:cx="64"
   inkscape:cy="64"
   inkscape:window-x="0"
   inkscape:window-y="0"
   inkscape:window-maximized="1"
   inkscape:current-layer="Calque_3" />
<style
   type="text/css"
   id="style2">
	.st0{fill:none;}
	.st1{fill:#EEC855;}
	.st2{fill:#13375B;}
	.st3{fill:url(#SVGID_1_);}
	.st4{fill:#FFFFFF;}
	.st5{fill:url(#SVGID_2_);}
</style>
<pattern
   y="128"
   width="32.2"
   height="34.5"
   patternUnits="userSpaceOnUse"
   id="Nouvelle_nuance_de_motif_18"
   viewBox="0 -34.5 32.2 34.5"
   style="overflow:visible;">
	<g
   id="g8">
		<rect
   y="-34.5"
   class="st0"
   width="32.2"
   height="34.5"
   id="rect4" />
		<rect
   y="-34.5"
   class="st1"
   width="32.2"
   height="34.5"
   id="rect6" />
	</g>
</pattern>
<g
   id="g33">
	<path
   class="st2"
   d="M128,64c0,35.3-28.7,64-64,64C28.7,128,0,99.3,0,64C0,28.7,28.7,0,64,0C99.3,0,128,28.7,128,64z"
   id="path11" />
	<g
   id="g20">
		<linearGradient
   id="SVGID_1_"
   gradientUnits="userSpaceOnUse"
   x1="135.856"
   y1="79.2432"
   x2="57.6628"
   y2="56.9023">
			<stop
   offset="0"
   style="stop-color:#000000;stop-opacity:0"
   id="stop13" />
			<stop
   offset="1"
   style="stop-color:#000000"
   id="stop15" />
		</linearGradient>
		<path
   class="st3"
   d="M62.2,93l-3.4-3.2l-40.5-43L76.8,29l46.7,11.3c3.4,8.1,4.5,19,4.5,24.7c0,12.2-4.5,27.9-15.1,40.5L62.8,93.8    L62.2,93z"
   id="path18" />
	</g>
	<g
   id="g31">
		<path
   class="st4"
   d="M18.3,45.5c-0.4,0.4-0.4,1.1,0,1.5l10.4,11.5c0.2,0.2,0.5,0.4,0.8,0.4h0c0.3,0,0.6-0.1,0.8-0.3    c6-6.1,13.4-10.3,21.4-12.4c3.9-1,7.9-1.6,12-1.6c3.9,0,7.7,0.5,11.4,1.4c8,2,15.3,6.1,21.4,11.9c0.4,0.4,1.1,0.4,1.6,0l10.4-10.4    c0.2-0.2,0.3-0.5,0.3-0.8c0-0.3-0.1-0.6-0.3-0.8c-12.1-11.8-28-18.3-44.8-18.3C45.9,27.7,29.7,34,18.3,45.5z"
   id="path22" />
		<path
   class="st4"
   d="M63.5,51.6c-2.8,0-5.6,0.4-8.4,1.1c-7,1.8-13.8,5.7-19.4,11.3c-0.4,0.4-0.4,1.1,0,1.6l8.8,9.1    c0.2,0.2,0.5,0.3,0.8,0.3c0.3,0,0.6-0.1,0.8-0.3c5.1-5.1,9.8-8.3,17.4-8.3c7.3,0,12.3,3.4,17.6,8.5c0.2,0.2,0.5,0.3,0.8,0.3l0,0    c0.3,0,0.6-0.1,0.8-0.4l8.6-9.7c0.4-0.4,0.4-1.1-0.1-1.5c-5.5-5.4-12.4-9.2-19.4-10.9C69.1,52,66.2,51.6,63.5,51.6z"
   id="path24" />
		<path
   class="st4"
   d="M52.8,83.1c0,5.9,4.8,10.7,10.7,10.7c5.9,0,10.7-4.8,10.7-10.7c0-5.9-4.8-10.7-10.7-10.7    C57.6,72.5,52.8,77.3,52.8,83.1z M69.3,83.1c0,3.3-2.6,5.9-5.9,5.9c-3.3,0-5.9-2.6-5.9-5.9c0-3.3,2.6-5.9,5.9-5.9    C66.7,77.2,69.3,79.9,69.3,83.1z"
   id="path26" />
		
			<pattern
   id="SVGID_2_"
   xlink:href="#Nouvelle_nuance_de_motif_18"
   patternTransform="matrix(1.2029 0 0 1.2029 1667.3956 1736.2085)">
		</pattern>
		<path
   class="st5"
   d="M57.6,83.1c0,3.3,2.6,5.9,5.9,5.9c3.3,0,5.9-2.6,5.9-5.9c0-3.3-2.6-5.9-5.9-5.9    C60.2,77.2,57.6,79.9,57.6,83.1z"
   id="path29" />
	</g>
</g>
</svg>
