<?xml version="1.0" encoding="utf-8"?>
<!-- Generator: Adobe Illustrator 22.1.0, SVG Export Plug-In . SVG Version: 6.00 Build 0)  -->
<svg version="1.1" id="Calque_1" xmlns="http://www.w3.org/2000/svg" xmlns:xlink="http://www.w3.org/1999/xlink" x="0px" y="0px"
	 viewBox="0 0 128 128" style="enable-background:new 0 0 128 128;" xml:space="preserve">
<style type="text/css">
	.st0{fill:none;}
	.st1{fill:#455665;}
	.st2{fill:url(#SVGID_1_);}
	.st3{fill:url(#SVGID_2_);}
	.st4{fill:#EFC659;}
	.st5{fill:#D1D1D1;}
	.st6{opacity:0.2;}
	.st7{fill:#4A4349;}
	.st8{fill:#A3A8AD;}
	.st9{fill:#E0E1E6;}
	.st10{fill:#EFEFEF;}
	.st11{fill:#737266;}
	.st12{fill:#33322D;}
	.st13{fill:#ADAB9A;}
	.st14{fill:#FFFFFF;}
	.st15{fill:#9DD8DC;}
	.st16{fill:#FDFF9F;}
	.st17{fill:#E6E6E6;}
	.st18{opacity:0.3;}
	.st19{opacity:0.1;}
</style>
<pattern  width="32.2" height="34.5" patternUnits="userSpaceOnUse" id="Nouvelle_nuance_de_motif_20" viewBox="0 -34.5 32.2 34.5" style="overflow:visible;">
	<g>
		<rect y="-34.5" class="st0" width="32.2" height="34.5"/>
		<rect y="-34.5" class="st1" width="32.2" height="34.5"/>
	</g>
</pattern>
<g>
	
		<pattern  id="SVGID_1_" xlink:href="#Nouvelle_nuance_de_motif_20" patternTransform="matrix(1.3271 0 0 1.3281 2547.4194 2599.384)">
	</pattern>
	<path class="st2" d="M127.9,64c0,35.3-28.6,64-64,64S0,99.3,0,64C0,28.7,28.6,0,64,0S127.9,28.7,127.9,64z"/>
	<g>
		<linearGradient id="SVGID_2_" gradientUnits="userSpaceOnUse" x1="116.3852" y1="81.5867" x2="53.1384" y2="61.6502">
			<stop  offset="0" style="stop-color:#1C1B19;stop-opacity:0"/>
			<stop  offset="1" style="stop-color:#33322D"/>
		</linearGradient>
		<path class="st3" d="M128,63.6c0-5.9-0.8-11.6-2.3-17.1L64,27.7L22.2,89.9l80.3,25C118.8,102,128,84.3,128,63.6z"/>
	</g>
	<g>
		<g>
			<polygon class="st4" points="106.2,47.4 106.2,89.4 21.7,89.4 21.7,47.4 64,29.4 			"/>
			<rect x="21.7" y="47.4" class="st5" width="1.5" height="42"/>
			<rect x="104.7" y="47.4" class="st5" width="1.5" height="42"/>
			<polygon class="st6" points="64,29.4 21.7,47.4 21.7,49.9 21.7,56.7 65.3,38.3 106.2,53.5 106.2,49.4 106.2,47.4 			"/>
			<polygon class="st5" points="106.2,53.7 106.2,51.2 64,33.2 21.7,51.2 21.7,53.7 16,53.7 16,49.4 64,28.5 111.9,49.4 111.9,53.7 
							"/>
			<polygon class="st7" points="112.2,50.6 64,29.2 15.7,50.6 14.9,49.6 64,27.7 113,49.6 			"/>
			<polygon class="st8" points="97.4,55.8 32.8,55.8 31.4,54.2 98.8,54.2 			"/>
			<rect x="32.8" y="55.8" class="st9" width="64.6" height="1.2"/>
			<rect x="35.1" y="57.1" class="st7" width="60.4" height="32.5"/>
			<rect x="95.2" y="57.1" class="st9" width="2.2" height="32.4"/>
			<rect x="32.8" y="57.1" class="st9" width="2.3" height="32.4"/>
			<g>
				<rect x="35.1" y="57.1" class="st8" width="60.1" height="11.9"/>
				<g>
					<rect x="37.4" y="58.7" class="st10" width="55.4" height="0.6"/>
					<rect x="37.4" y="60.1" class="st10" width="55.4" height="0.6"/>
					<rect x="37.4" y="61.5" class="st10" width="55.4" height="0.6"/>
					<rect x="37.4" y="63" class="st10" width="55.4" height="0.6"/>
					<rect x="37.4" y="64.4" class="st10" width="55.4" height="0.6"/>
					<rect x="37.4" y="65.8" class="st10" width="55.4" height="0.6"/>
					<rect x="37.4" y="67.2" class="st10" width="55.4" height="0.6"/>
				</g>
			</g>
			<polygon class="st6" points="95.2,57.1 35.1,57.1 35.1,89.4 36.5,89.4 36.5,60.4 95.2,60.4 			"/>
		</g>
		<g>
			<g>
				<path d="M43.3,100.3h3.5c0.3,0,0.5-0.2,0.5-0.5v-9.3c0-0.3-0.2-0.5-0.5-0.5h-3.5c-0.3,0-0.5,0.2-0.5,0.5v9.3
					C42.8,100.1,43,100.3,43.3,100.3z"/>
			</g>
			<g>
				<g>
					<path d="M84.6,100.3h-3.5c-0.3,0-0.5-0.2-0.5-0.5v-9.3c0-0.3,0.2-0.5,0.5-0.5h3.5c0.3,0,0.5,0.2,0.5,0.5v9.3
						C85.1,100.1,84.9,100.3,84.6,100.3z"/>
				</g>
				<g>
					<g>
						<path class="st11" d="M78.5,79.6c0,0,0-1.7,0.2-2.1c0.1-0.2,0.3-0.7,0.8-0.7c0.5,0,2.4,0,2.6,0.1c0.3,0.1,0.6,0.4,0.6,0.8
							c0,0.5-0.1,1.1-0.9,1.4c-0.7,0.3-1.6,0.3-2,0.5c-0.3,0.2-0.6,1.2-0.6,1.2h-0.9L78.5,79.6z"/>
					</g>
					<g>
						<path class="st12" d="M82.1,79c-0.1,0-0.1,0.1-0.2,0.1c-0.7,0.3-1.6,0.3-2,0.5c-0.3,0.2-0.6,1.2-0.6,1.2h-0.9l0-1.2
							c0,0,0-0.2,0-0.4C79.6,79.4,81.1,79.3,82.1,79z"/>
					</g>
					<g>
						<path class="st13" d="M82.5,77.4c0,0.2-2.6,1-3.1,0.7c-0.2-0.1-0.5-0.6-0.4-0.8c0.1-0.1,0.3-0.3,0.7-0.3c0.5,0,2.1,0,2.3,0
							C82.2,77.1,82.5,77.2,82.5,77.4z"/>
					</g>
				</g>
				<g>
					<g>
						<path class="st11" d="M49.2,79.6c0,0,0-1.7-0.2-2.1c-0.1-0.2-0.3-0.7-0.8-0.7c-0.5,0-2.4,0-2.6,0.1c-0.3,0.1-0.6,0.4-0.6,0.8
							c0,0.5,0.1,1.1,0.9,1.4c0.7,0.3,1.6,0.3,2,0.5c0.3,0.2,0.6,1.2,0.6,1.2h0.9L49.2,79.6z"/>
					</g>
					<g>
						<path class="st12" d="M45.7,79c0.1,0,0.1,0.1,0.2,0.1c0.7,0.3,1.6,0.3,2,0.5c0.3,0.2,0.6,1.2,0.6,1.2h0.9l0-1.2
							c0,0,0-0.2,0-0.4C48.1,79.4,46.6,79.3,45.7,79z"/>
					</g>
					<g>
						<path class="st13" d="M45.3,77.4c0,0.2,2.6,1,3.1,0.7c0.2-0.1,0.5-0.6,0.4-0.8c-0.1-0.1-0.3-0.3-0.7-0.3c-0.5,0-2.1,0-2.3,0
							C45.5,77.1,45.2,77.2,45.3,77.4z"/>
					</g>
				</g>
				<g>
					<g>
						<g id="XMLID_5_">
							<g>
								<path class="st14" d="M76.3,81.2H52c1.1-3.2,2.3-6.1,3-7.4h18.6C74.4,75.1,75.4,78.1,76.3,81.2z"/>
								<path class="st15" d="M51.7,85.4v1.5c0,0.8-0.6,1.4-1.2,1.4h-1.6h-1.4c-0.7,0-1.2-0.6-1.2-1.4v-1.5c0-0.8,0.6-1.4,1.2-1.4
									h2.9C51.2,84,51.7,84.6,51.7,85.4z"/>
								<path class="st15" d="M81.7,85.4v1.5c0,0.8-0.6,1.4-1.2,1.4h-1.4h-1.6c-0.7,0-1.2-0.6-1.2-1.4v-1.5c0-0.8,0.6-1.4,1.2-1.4
									h2.9C81.2,84,81.7,84.6,81.7,85.4z"/>
								<rect x="59.6" y="90.2" class="st16" width="8.8" height="3"/>
								<path class="st17" d="M79.1,95.2h-5.8h0H54.7 M54.7,95.2h-5.8h0h-3.3c-1.4,0-2.5-1.4-2.5-3.2v-5.2c0-1.7,0.7-3.3,1.9-4
									l4.2-1.6c1.8-5.4,3.9-8,6-8H59h10h4.6c2.1,0,3.9,2.6,5.3,8l4,1.6c1.2,0.7,1.9,2.3,1.9,4V92c0,1.8-1.1,3.2-2.5,3.2h-3.3
									 M81.7,86.9v-1.5c0-0.8-0.6-1.4-1.2-1.4h-2.9c-0.7,0-1.2,0.6-1.2,1.4v1.5c0,0.8,0.6,1.4,1.2,1.4h1.6h1.4
									C81.2,88.2,81.7,87.6,81.7,86.9z M51.7,86.9v-1.5c0-0.8-0.6-1.4-1.2-1.4h-2.9c-0.7,0-1.2,0.6-1.2,1.4v1.5
									c0,0.8,0.6,1.4,1.2,1.4h1.4h1.6C51.2,88.2,51.7,87.6,51.7,86.9z"/>
							</g>
						</g>
					</g>
				</g>
				<g>
					<path class="st15" d="M74.7,74.2C74.3,74,64.5,74,64.5,74s-9.8,0.1-10.2,0.3c-0.4,0.2-3.8,6.2-3.6,6.3
						c0.6,0.5,13.8,0.4,13.8,0.4s13.2,0.1,13.8-0.4C78.5,80.4,75.1,74.4,74.7,74.2z"/>
				</g>
				<g>
					<path class="st15" d="M78.3,80.6C77.6,81.1,64.5,81,64.5,81s-13.2,0.1-13.8-0.4c0,0,0.1-0.3,0.3-0.7c0.8-1.6,3-5.4,3.3-5.6
						c0.3-0.1,4.7-0.2,7.7-0.2c1.5,0,2.5,0,2.5,0s1.1,0,2.5,0c2.9,0,7.4,0.1,7.7,0.2c0.3,0.2,2.5,4,3.3,5.6
						C78.2,80.3,78.3,80.5,78.3,80.6z"/>
				</g>
				<g>
					<g>
						<path class="st7" d="M67,74v1h-5.1v-1c1.5,0,2.5,0,2.5,0S65.6,74,67,74z"/>
					</g>
					<g>
						<path class="st7" d="M78.3,80.6C77.6,81.1,64.5,81,64.5,81s-13.2,0.1-13.8-0.4c0,0,0.1-0.3,0.3-0.7h27
							C78.2,80.3,78.3,80.5,78.3,80.6z"/>
					</g>
					<g>
						<g>
							<rect x="68.6" y="77.8" class="st7" width="5.8" height="2"/>
						</g>
						<g>
							<rect x="54.6" y="77.8" class="st7" width="5.8" height="2"/>
						</g>
					</g>
				</g>
				<g class="st18">
					<path class="st14" d="M65.5,74l-7.6,7c-3.4,0-6.9-0.1-7.2-0.4c-0.1-0.1,0.2-0.7,0.7-1.5v0l5.4-5c3-0.1,7.7-0.1,7.7-0.1
						S64.9,74,65.5,74z"/>
				</g>
				<g class="st18">
					<path class="st14" d="M69.4,74l-7.6,7c-0.7,0-1.5,0-2.4,0l7.6-7C67.8,74,68.6,74,69.4,74z"/>
				</g>
				<g class="st6">
					<path d="M74.7,74.2c0,0-0.1,0-0.2,0c0.7,0.9,3.6,6,3.5,6.2c-0.6,0.5-13.8,0.4-13.8,0.4s-11.3,0.1-13.5-0.3c0,0,0,0.1,0,0.1
						c0.6,0.5,13.8,0.4,13.8,0.4s13.2,0.1,13.8-0.4C78.5,80.4,75.1,74.4,74.7,74.2z"/>
				</g>
				<g class="st19">
					<path d="M84.9,88.3c0,2.6-0.2,5.3-0.3,5.6c-0.2,0.7-1.4,1.1-1.9,1.1c-0.5,0.1-18.7,0-18.7,0s-18.2,0.1-18.7,0
						c-0.5-0.1-1.7-0.4-1.9-1.1c-0.1-0.4-0.3-3.1-0.3-5.6c0,0,15.5,3.5,20.8,3.5C69.3,91.8,84.9,88.3,84.9,88.3z"/>
				</g>
				<g>
					<path class="st13" d="M78.5,90.1l2.4-0.6c0.5-0.1,1,0.1,1.2,0.6l0.7,2.3c0.1,0.4-0.2,0.9-0.7,1l-1.1,0.2
						c-0.5,0.1-1.2-0.1-1.6-0.4l-0.9-0.9c-0.3-0.4-0.7-0.9-0.8-1.3C77.7,90.6,78,90.2,78.5,90.1z"/>
				</g>
				<g>
					<path class="st11" d="M81.9,92.3c0,0.5-0.5,0.9-1.1,0.9c-0.6,0-1.1-0.4-1.1-0.9c0-0.5,0.5-0.9,1.1-0.9
						C81.4,91.4,81.9,91.8,81.9,92.3z"/>
				</g>
				<g>
					<path class="st7" d="M64,92.1c-2.7,0-10-0.5-10.8-0.5c0,0.1,1.9,1.8,3.1,2c0.6,0.1,5.8,0.3,7.7,0.3c1.9,0,7.2-0.3,7.7-0.3
						c1.2-0.1,3.1-1.8,3.1-2C74,91.6,66.7,92.1,64,92.1z"/>
				</g>
				<g class="st18">
					<path d="M64,92.4c2.5,0,8.9-0.5,10.5-0.5c0.2-0.2,0.3-0.3,0.3-0.3c-0.9-0.1-8.1,0.5-10.8,0.5s-10-0.5-10.8-0.5
						c0,0,0.1,0.2,0.3,0.3C55.1,92,61.5,92.4,64,92.4z"/>
				</g>
				<g>
					<path class="st13" d="M49.5,90.1l-2.4-0.6c-0.5-0.1-1,0.1-1.2,0.6l-0.7,2.3c-0.1,0.4,0.2,0.9,0.7,1l1.1,0.2
						c0.5,0.1,1.2-0.1,1.5-0.4l0.9-0.9c0.3-0.4,0.7-0.9,0.8-1.3C50.3,90.6,50,90.2,49.5,90.1z"/>
				</g>
				<g>
					<path class="st11" d="M46.1,92.3c0,0.5,0.5,0.9,1.1,0.9c0.6,0,1.1-0.4,1.1-0.9c0-0.5-0.5-0.9-1.1-0.9
						C46.6,91.4,46.1,91.8,46.1,92.3z"/>
				</g>
			</g>
		</g>
	</g>
</g>
</svg>
